%TF.GenerationSoftware,KiCad,Pcbnew,6.0.10-1.fc37*%
%TF.CreationDate,2023-01-04T19:13:09-05:00*%
%TF.ProjectId,ext-con-breakout-board,6578742d-636f-46e2-9d62-7265616b6f75,v0.6*%
%TF.SameCoordinates,Original*%
%TF.FileFunction,Legend,Bot*%
%TF.FilePolarity,Positive*%
%FSLAX46Y46*%
G04 Gerber Fmt 4.6, Leading zero omitted, Abs format (unit mm)*
G04 Created by KiCad (PCBNEW 6.0.10-1.fc37) date 2023-01-04 19:13:09*
%MOMM*%
%LPD*%
G01*
G04 APERTURE LIST*
%ADD10C,0.150000*%
%ADD11C,0.120000*%
G04 APERTURE END LIST*
D10*
X114866666Y-112028571D02*
X114533333Y-112028571D01*
X114390476Y-112552380D02*
X114866666Y-112552380D01*
X114866666Y-111552380D01*
X114390476Y-111552380D01*
X114057142Y-111552380D02*
X113390476Y-112552380D01*
X113390476Y-111552380D02*
X114057142Y-112552380D01*
X113152380Y-111552380D02*
X112580952Y-111552380D01*
X112866666Y-112552380D02*
X112866666Y-111552380D01*
X110914285Y-112457142D02*
X110961904Y-112504761D01*
X111104761Y-112552380D01*
X111200000Y-112552380D01*
X111342857Y-112504761D01*
X111438095Y-112409523D01*
X111485714Y-112314285D01*
X111533333Y-112123809D01*
X111533333Y-111980952D01*
X111485714Y-111790476D01*
X111438095Y-111695238D01*
X111342857Y-111600000D01*
X111200000Y-111552380D01*
X111104761Y-111552380D01*
X110961904Y-111600000D01*
X110914285Y-111647619D01*
X110295238Y-111552380D02*
X110104761Y-111552380D01*
X110009523Y-111600000D01*
X109914285Y-111695238D01*
X109866666Y-111885714D01*
X109866666Y-112219047D01*
X109914285Y-112409523D01*
X110009523Y-112504761D01*
X110104761Y-112552380D01*
X110295238Y-112552380D01*
X110390476Y-112504761D01*
X110485714Y-112409523D01*
X110533333Y-112219047D01*
X110533333Y-111885714D01*
X110485714Y-111695238D01*
X110390476Y-111600000D01*
X110295238Y-111552380D01*
X109438095Y-112552380D02*
X109438095Y-111552380D01*
X108866666Y-112552380D01*
X108866666Y-111552380D01*
X107295238Y-112028571D02*
X107152380Y-112076190D01*
X107104761Y-112123809D01*
X107057142Y-112219047D01*
X107057142Y-112361904D01*
X107104761Y-112457142D01*
X107152380Y-112504761D01*
X107247619Y-112552380D01*
X107628571Y-112552380D01*
X107628571Y-111552380D01*
X107295238Y-111552380D01*
X107200000Y-111600000D01*
X107152380Y-111647619D01*
X107104761Y-111742857D01*
X107104761Y-111838095D01*
X107152380Y-111933333D01*
X107200000Y-111980952D01*
X107295238Y-112028571D01*
X107628571Y-112028571D01*
X106628571Y-112552380D02*
X106628571Y-111885714D01*
X106628571Y-112076190D02*
X106580952Y-111980952D01*
X106533333Y-111933333D01*
X106438095Y-111885714D01*
X106342857Y-111885714D01*
X105628571Y-112504761D02*
X105723809Y-112552380D01*
X105914285Y-112552380D01*
X106009523Y-112504761D01*
X106057142Y-112409523D01*
X106057142Y-112028571D01*
X106009523Y-111933333D01*
X105914285Y-111885714D01*
X105723809Y-111885714D01*
X105628571Y-111933333D01*
X105580952Y-112028571D01*
X105580952Y-112123809D01*
X106057142Y-112219047D01*
X104723809Y-112552380D02*
X104723809Y-112028571D01*
X104771428Y-111933333D01*
X104866666Y-111885714D01*
X105057142Y-111885714D01*
X105152380Y-111933333D01*
X104723809Y-112504761D02*
X104819047Y-112552380D01*
X105057142Y-112552380D01*
X105152380Y-112504761D01*
X105200000Y-112409523D01*
X105200000Y-112314285D01*
X105152380Y-112219047D01*
X105057142Y-112171428D01*
X104819047Y-112171428D01*
X104723809Y-112123809D01*
X104247619Y-112552380D02*
X104247619Y-111552380D01*
X104152380Y-112171428D02*
X103866666Y-112552380D01*
X103866666Y-111885714D02*
X104247619Y-112266666D01*
X103295238Y-112552380D02*
X103390476Y-112504761D01*
X103438095Y-112457142D01*
X103485714Y-112361904D01*
X103485714Y-112076190D01*
X103438095Y-111980952D01*
X103390476Y-111933333D01*
X103295238Y-111885714D01*
X103152380Y-111885714D01*
X103057142Y-111933333D01*
X103009523Y-111980952D01*
X102961904Y-112076190D01*
X102961904Y-112361904D01*
X103009523Y-112457142D01*
X103057142Y-112504761D01*
X103152380Y-112552380D01*
X103295238Y-112552380D01*
X102104761Y-111885714D02*
X102104761Y-112552380D01*
X102533333Y-111885714D02*
X102533333Y-112409523D01*
X102485714Y-112504761D01*
X102390476Y-112552380D01*
X102247619Y-112552380D01*
X102152380Y-112504761D01*
X102104761Y-112457142D01*
X101771428Y-111885714D02*
X101390476Y-111885714D01*
X101628571Y-111552380D02*
X101628571Y-112409523D01*
X101580952Y-112504761D01*
X101485714Y-112552380D01*
X101390476Y-112552380D01*
X99961904Y-112028571D02*
X99819047Y-112076190D01*
X99771428Y-112123809D01*
X99723809Y-112219047D01*
X99723809Y-112361904D01*
X99771428Y-112457142D01*
X99819047Y-112504761D01*
X99914285Y-112552380D01*
X100295238Y-112552380D01*
X100295238Y-111552380D01*
X99961904Y-111552380D01*
X99866666Y-111600000D01*
X99819047Y-111647619D01*
X99771428Y-111742857D01*
X99771428Y-111838095D01*
X99819047Y-111933333D01*
X99866666Y-111980952D01*
X99961904Y-112028571D01*
X100295238Y-112028571D01*
X99152380Y-112552380D02*
X99247619Y-112504761D01*
X99295238Y-112457142D01*
X99342857Y-112361904D01*
X99342857Y-112076190D01*
X99295238Y-111980952D01*
X99247619Y-111933333D01*
X99152380Y-111885714D01*
X99009523Y-111885714D01*
X98914285Y-111933333D01*
X98866666Y-111980952D01*
X98819047Y-112076190D01*
X98819047Y-112361904D01*
X98866666Y-112457142D01*
X98914285Y-112504761D01*
X99009523Y-112552380D01*
X99152380Y-112552380D01*
X97961904Y-112552380D02*
X97961904Y-112028571D01*
X98009523Y-111933333D01*
X98104761Y-111885714D01*
X98295238Y-111885714D01*
X98390476Y-111933333D01*
X97961904Y-112504761D02*
X98057142Y-112552380D01*
X98295238Y-112552380D01*
X98390476Y-112504761D01*
X98438095Y-112409523D01*
X98438095Y-112314285D01*
X98390476Y-112219047D01*
X98295238Y-112171428D01*
X98057142Y-112171428D01*
X97961904Y-112123809D01*
X97485714Y-112552380D02*
X97485714Y-111885714D01*
X97485714Y-112076190D02*
X97438095Y-111980952D01*
X97390476Y-111933333D01*
X97295238Y-111885714D01*
X97200000Y-111885714D01*
X96438095Y-112552380D02*
X96438095Y-111552380D01*
X96438095Y-112504761D02*
X96533333Y-112552380D01*
X96723809Y-112552380D01*
X96819047Y-112504761D01*
X96866666Y-112457142D01*
X96914285Y-112361904D01*
X96914285Y-112076190D01*
X96866666Y-111980952D01*
X96819047Y-111933333D01*
X96723809Y-111885714D01*
X96533333Y-111885714D01*
X96438095Y-111933333D01*
X95295238Y-111885714D02*
X95057142Y-112552380D01*
X94819047Y-111885714D01*
X94247619Y-111552380D02*
X94152380Y-111552380D01*
X94057142Y-111600000D01*
X94009523Y-111647619D01*
X93961904Y-111742857D01*
X93914285Y-111933333D01*
X93914285Y-112171428D01*
X93961904Y-112361904D01*
X94009523Y-112457142D01*
X94057142Y-112504761D01*
X94152380Y-112552380D01*
X94247619Y-112552380D01*
X94342857Y-112504761D01*
X94390476Y-112457142D01*
X94438095Y-112361904D01*
X94485714Y-112171428D01*
X94485714Y-111933333D01*
X94438095Y-111742857D01*
X94390476Y-111647619D01*
X94342857Y-111600000D01*
X94247619Y-111552380D01*
X93485714Y-112457142D02*
X93438095Y-112504761D01*
X93485714Y-112552380D01*
X93533333Y-112504761D01*
X93485714Y-112457142D01*
X93485714Y-112552380D01*
X92580952Y-111552380D02*
X92771428Y-111552380D01*
X92866666Y-111600000D01*
X92914285Y-111647619D01*
X93009523Y-111790476D01*
X93057142Y-111980952D01*
X93057142Y-112361904D01*
X93009523Y-112457142D01*
X92961904Y-112504761D01*
X92866666Y-112552380D01*
X92676190Y-112552380D01*
X92580952Y-112504761D01*
X92533333Y-112457142D01*
X92485714Y-112361904D01*
X92485714Y-112123809D01*
X92533333Y-112028571D01*
X92580952Y-111980952D01*
X92676190Y-111933333D01*
X92866666Y-111933333D01*
X92961904Y-111980952D01*
X93009523Y-112028571D01*
X93057142Y-112123809D01*
X110452380Y-113952380D02*
X110452380Y-112952380D01*
X110071428Y-112952380D01*
X109976190Y-113000000D01*
X109928571Y-113047619D01*
X109880952Y-113142857D01*
X109880952Y-113285714D01*
X109928571Y-113380952D01*
X109976190Y-113428571D01*
X110071428Y-113476190D01*
X110452380Y-113476190D01*
X109023809Y-113285714D02*
X109023809Y-113952380D01*
X109452380Y-113285714D02*
X109452380Y-113809523D01*
X109404761Y-113904761D01*
X109309523Y-113952380D01*
X109166666Y-113952380D01*
X109071428Y-113904761D01*
X109023809Y-113857142D01*
X108547619Y-113952380D02*
X108547619Y-113285714D01*
X108547619Y-113476190D02*
X108500000Y-113380952D01*
X108452380Y-113333333D01*
X108357142Y-113285714D01*
X108261904Y-113285714D01*
X107928571Y-113952380D02*
X107928571Y-113285714D01*
X107928571Y-112952380D02*
X107976190Y-113000000D01*
X107928571Y-113047619D01*
X107880952Y-113000000D01*
X107928571Y-112952380D01*
X107928571Y-113047619D01*
X107500000Y-113904761D02*
X107404761Y-113952380D01*
X107214285Y-113952380D01*
X107119047Y-113904761D01*
X107071428Y-113809523D01*
X107071428Y-113761904D01*
X107119047Y-113666666D01*
X107214285Y-113619047D01*
X107357142Y-113619047D01*
X107452380Y-113571428D01*
X107500000Y-113476190D01*
X107500000Y-113428571D01*
X107452380Y-113333333D01*
X107357142Y-113285714D01*
X107214285Y-113285714D01*
X107119047Y-113333333D01*
X106642857Y-113952380D02*
X106642857Y-113285714D01*
X106642857Y-113380952D02*
X106595238Y-113333333D01*
X106500000Y-113285714D01*
X106357142Y-113285714D01*
X106261904Y-113333333D01*
X106214285Y-113428571D01*
X106214285Y-113952380D01*
X106214285Y-113428571D02*
X106166666Y-113333333D01*
X106071428Y-113285714D01*
X105928571Y-113285714D01*
X105833333Y-113333333D01*
X105785714Y-113428571D01*
X105785714Y-113952380D01*
X104595238Y-113904761D02*
X104452380Y-113952380D01*
X104214285Y-113952380D01*
X104119047Y-113904761D01*
X104071428Y-113857142D01*
X104023809Y-113761904D01*
X104023809Y-113666666D01*
X104071428Y-113571428D01*
X104119047Y-113523809D01*
X104214285Y-113476190D01*
X104404761Y-113428571D01*
X104500000Y-113380952D01*
X104547619Y-113333333D01*
X104595238Y-113238095D01*
X104595238Y-113142857D01*
X104547619Y-113047619D01*
X104500000Y-113000000D01*
X104404761Y-112952380D01*
X104166666Y-112952380D01*
X104023809Y-113000000D01*
X103595238Y-113952380D02*
X103595238Y-112952380D01*
X103214285Y-112952380D01*
X103119047Y-113000000D01*
X103071428Y-113047619D01*
X103023809Y-113142857D01*
X103023809Y-113285714D01*
X103071428Y-113380952D01*
X103119047Y-113428571D01*
X103214285Y-113476190D01*
X103595238Y-113476190D01*
X102023809Y-113857142D02*
X102071428Y-113904761D01*
X102214285Y-113952380D01*
X102309523Y-113952380D01*
X102452380Y-113904761D01*
X102547619Y-113809523D01*
X102595238Y-113714285D01*
X102642857Y-113523809D01*
X102642857Y-113380952D01*
X102595238Y-113190476D01*
X102547619Y-113095238D01*
X102452380Y-113000000D01*
X102309523Y-112952380D01*
X102214285Y-112952380D01*
X102071428Y-113000000D01*
X102023809Y-113047619D01*
X100309523Y-113000000D02*
X100404761Y-112952380D01*
X100547619Y-112952380D01*
X100690476Y-113000000D01*
X100785714Y-113095238D01*
X100833333Y-113190476D01*
X100880952Y-113380952D01*
X100880952Y-113523809D01*
X100833333Y-113714285D01*
X100785714Y-113809523D01*
X100690476Y-113904761D01*
X100547619Y-113952380D01*
X100452380Y-113952380D01*
X100309523Y-113904761D01*
X100261904Y-113857142D01*
X100261904Y-113523809D01*
X100452380Y-113523809D01*
X99833333Y-113952380D02*
X99833333Y-112952380D01*
X99452380Y-112952380D01*
X99357142Y-113000000D01*
X99309523Y-113047619D01*
X99261904Y-113142857D01*
X99261904Y-113285714D01*
X99309523Y-113380952D01*
X99357142Y-113428571D01*
X99452380Y-113476190D01*
X99833333Y-113476190D01*
X98357142Y-113952380D02*
X98833333Y-113952380D01*
X98833333Y-112952380D01*
X98119047Y-113285714D02*
X97880952Y-113952380D01*
X97642857Y-113285714D01*
X97357142Y-112952380D02*
X96738095Y-112952380D01*
X97071428Y-113333333D01*
X96928571Y-113333333D01*
X96833333Y-113380952D01*
X96785714Y-113428571D01*
X96738095Y-113523809D01*
X96738095Y-113761904D01*
X96785714Y-113857142D01*
X96833333Y-113904761D01*
X96928571Y-113952380D01*
X97214285Y-113952380D01*
X97309523Y-113904761D01*
X97357142Y-113857142D01*
X96309523Y-113571428D02*
X95547619Y-113571428D01*
X95928571Y-113952380D02*
X95928571Y-113190476D01*
D11*
%TO.C,J1*%
X131600000Y-86200000D02*
X124400000Y-86200000D01*
X131600000Y-89800000D02*
X124400000Y-89800000D01*
X130050000Y-90100000D02*
X130350000Y-90100000D01*
X124400000Y-86200000D02*
X124400000Y-89800000D01*
X131600000Y-86200000D02*
X131600000Y-89800000D01*
X130350000Y-90100000D02*
X130200000Y-89887868D01*
X130200000Y-89887868D02*
X130050000Y-90100000D01*
%TD*%
M02*
