%TF.GenerationSoftware,KiCad,Pcbnew,9.0.0-1.fc42*%
%TF.CreationDate,2025-03-01T14:54:56-05:00*%
%TF.ProjectId,ext-con-breakout-board,6578742d-636f-46e2-9d62-7265616b6f75,v0.6*%
%TF.SameCoordinates,Original*%
%TF.FileFunction,Profile,NP*%
%FSLAX45Y45*%
G04 Gerber Fmt 4.5, Leading zero omitted, Abs format (unit mm)*
G04 Created by KiCad (PCBNEW 9.0.0-1.fc42) date 2025-03-01 14:54:56*
%MOMM*%
%LPD*%
G01*
G04 APERTURE LIST*
%TA.AperFunction,Profile*%
%ADD10C,0.100000*%
%TD*%
G04 APERTURE END LIST*
D10*
X11753422Y-8851570D02*
G75*
G02*
X12102390Y-8630000I347048J-161000D01*
G01*
X13475000Y-11810000D02*
X9175000Y-11810000D01*
X12225000Y-11110000D02*
G75*
G02*
X12025000Y-10910000I0J200000D01*
G01*
X13120000Y-8500000D02*
X12390000Y-8500000D01*
X12225000Y-11110000D02*
X13124257Y-11110000D01*
X12295000Y-8565000D02*
G75*
G02*
X12200000Y-8630002I-95000J36920D01*
G01*
X12200000Y-8970000D02*
G75*
G02*
X12295004Y-9034998I0J-101930D01*
G01*
X13566421Y-11469321D02*
X13265679Y-11168579D01*
X11675000Y-10910000D02*
G75*
G02*
X11475000Y-11110000I-200000J0D01*
G01*
X9025000Y-11660000D02*
X9025000Y-11260000D01*
X12390000Y-9100000D02*
X13120000Y-9100000D01*
X13120000Y-8500000D02*
G75*
G02*
X13220000Y-8600000I0J-100000D01*
G01*
X13566421Y-11469321D02*
G75*
G02*
X13625002Y-11610743I-141431J-141429D01*
G01*
X12390000Y-9100000D02*
G75*
G02*
X12294996Y-9035002I0J101930D01*
G01*
X13625000Y-11610743D02*
X13625000Y-11660000D01*
X12025000Y-9116000D02*
X12025000Y-10910000D01*
X11675000Y-9116000D02*
G75*
G02*
X11720986Y-8918469I450800J-830D01*
G01*
X11720986Y-8918468D02*
X11753422Y-8851570D01*
X12025000Y-9116000D02*
G75*
G02*
X12035001Y-9073000I98130J-160D01*
G01*
X11675000Y-9116000D02*
X11675000Y-10910000D01*
X12200000Y-8630000D02*
X12102390Y-8630000D01*
X12068000Y-9005000D02*
G75*
G02*
X12124000Y-8970000I56000J-27300D01*
G01*
X13220000Y-8600000D02*
X13220000Y-9000000D01*
X13625000Y-11660000D02*
G75*
G02*
X13475000Y-11810000I-150000J0D01*
G01*
X9025000Y-11260000D02*
G75*
G02*
X9175000Y-11110000I150000J0D01*
G01*
X9175000Y-11810000D02*
G75*
G02*
X9025000Y-11660000I0J150000D01*
G01*
X12295000Y-8565000D02*
G75*
G02*
X12390000Y-8499998I95000J-36920D01*
G01*
X12200000Y-8970000D02*
X12124000Y-8970000D01*
X12035000Y-9073000D02*
X12068000Y-9005000D01*
X9175000Y-11110000D02*
X11475000Y-11110000D01*
X13124257Y-11110000D02*
G75*
G02*
X13265678Y-11168579I3J-199990D01*
G01*
X13220000Y-9000000D02*
G75*
G02*
X13120000Y-9100000I-100000J0D01*
G01*
M02*
