%TF.GenerationSoftware,KiCad,Pcbnew,7.0.1-2.fc38*%
%TF.CreationDate,2023-04-23T00:49:20-04:00*%
%TF.ProjectId,ext-con-breakout-board,6578742d-636f-46e2-9d62-7265616b6f75,v0.6*%
%TF.SameCoordinates,Original*%
%TF.FileFunction,Legend,Top*%
%TF.FilePolarity,Positive*%
%FSLAX46Y46*%
G04 Gerber Fmt 4.6, Leading zero omitted, Abs format (unit mm)*
G04 Created by KiCad (PCBNEW 7.0.1-2.fc38) date 2023-04-23 00:49:20*
%MOMM*%
%LPD*%
G01*
G04 APERTURE LIST*
%ADD10C,0.200000*%
%ADD11C,0.120000*%
G04 APERTURE END LIST*
D10*
X97026579Y-113110792D02*
X96925564Y-113144464D01*
X96925564Y-113144464D02*
X96824549Y-113245479D01*
X96824549Y-113245479D02*
X96757205Y-113380166D01*
X96757205Y-113380166D02*
X96757205Y-113514853D01*
X96757205Y-113514853D02*
X96790877Y-113615868D01*
X96790877Y-113615868D02*
X96891892Y-113784227D01*
X96891892Y-113784227D02*
X96992908Y-113885242D01*
X96992908Y-113885242D02*
X97161266Y-113986257D01*
X97161266Y-113986257D02*
X97262282Y-114019929D01*
X97262282Y-114019929D02*
X97396969Y-114019929D01*
X97396969Y-114019929D02*
X97531656Y-113952586D01*
X97531656Y-113952586D02*
X97598999Y-113885242D01*
X97598999Y-113885242D02*
X97666343Y-113750555D01*
X97666343Y-113750555D02*
X97666343Y-113683212D01*
X97666343Y-113683212D02*
X97430640Y-113447509D01*
X97430640Y-113447509D02*
X97295953Y-113582196D01*
X98036732Y-113447509D02*
X97329625Y-112740403D01*
X97329625Y-112740403D02*
X97598999Y-112471029D01*
X97598999Y-112471029D02*
X97700014Y-112437357D01*
X97700014Y-112437357D02*
X97767358Y-112437357D01*
X97767358Y-112437357D02*
X97868373Y-112471029D01*
X97868373Y-112471029D02*
X97969388Y-112572044D01*
X97969388Y-112572044D02*
X98003060Y-112673059D01*
X98003060Y-112673059D02*
X98003060Y-112740403D01*
X98003060Y-112740403D02*
X97969388Y-112841418D01*
X97969388Y-112841418D02*
X97700014Y-113110792D01*
X98743839Y-112740403D02*
X98036732Y-112033296D01*
X98508136Y-111561892D02*
X98642823Y-111427205D01*
X98642823Y-111427205D02*
X98743838Y-111393533D01*
X98743838Y-111393533D02*
X98878525Y-111393533D01*
X98878525Y-111393533D02*
X99046884Y-111494548D01*
X99046884Y-111494548D02*
X99282586Y-111730250D01*
X99282586Y-111730250D02*
X99383602Y-111898609D01*
X99383602Y-111898609D02*
X99383602Y-112033296D01*
X99383602Y-112033296D02*
X99349930Y-112134311D01*
X99349930Y-112134311D02*
X99215243Y-112268998D01*
X99215243Y-112268998D02*
X99114228Y-112302670D01*
X99114228Y-112302670D02*
X98979541Y-112302670D01*
X98979541Y-112302670D02*
X98811182Y-112201655D01*
X98811182Y-112201655D02*
X98575480Y-111965953D01*
X98575480Y-111965953D02*
X98474464Y-111797594D01*
X98474464Y-111797594D02*
X98474464Y-111662907D01*
X98474464Y-111662907D02*
X98508136Y-111561892D01*
X103661905Y-111712619D02*
X104280952Y-111712619D01*
X104280952Y-111712619D02*
X103947619Y-112093571D01*
X103947619Y-112093571D02*
X104090476Y-112093571D01*
X104090476Y-112093571D02*
X104185714Y-112141190D01*
X104185714Y-112141190D02*
X104233333Y-112188809D01*
X104233333Y-112188809D02*
X104280952Y-112284047D01*
X104280952Y-112284047D02*
X104280952Y-112522142D01*
X104280952Y-112522142D02*
X104233333Y-112617380D01*
X104233333Y-112617380D02*
X104185714Y-112665000D01*
X104185714Y-112665000D02*
X104090476Y-112712619D01*
X104090476Y-112712619D02*
X103804762Y-112712619D01*
X103804762Y-112712619D02*
X103709524Y-112665000D01*
X103709524Y-112665000D02*
X103661905Y-112617380D01*
X104566667Y-111712619D02*
X104900000Y-112712619D01*
X104900000Y-112712619D02*
X105233333Y-111712619D01*
X105471429Y-111712619D02*
X106090476Y-111712619D01*
X106090476Y-111712619D02*
X105757143Y-112093571D01*
X105757143Y-112093571D02*
X105900000Y-112093571D01*
X105900000Y-112093571D02*
X105995238Y-112141190D01*
X105995238Y-112141190D02*
X106042857Y-112188809D01*
X106042857Y-112188809D02*
X106090476Y-112284047D01*
X106090476Y-112284047D02*
X106090476Y-112522142D01*
X106090476Y-112522142D02*
X106042857Y-112617380D01*
X106042857Y-112617380D02*
X105995238Y-112665000D01*
X105995238Y-112665000D02*
X105900000Y-112712619D01*
X105900000Y-112712619D02*
X105614286Y-112712619D01*
X105614286Y-112712619D02*
X105519048Y-112665000D01*
X105519048Y-112665000D02*
X105471429Y-112617380D01*
X92434819Y-113902079D02*
X92569506Y-113834735D01*
X92569506Y-113834735D02*
X92737865Y-113666376D01*
X92737865Y-113666376D02*
X92771537Y-113565361D01*
X92771537Y-113565361D02*
X92771537Y-113498018D01*
X92771537Y-113498018D02*
X92737865Y-113397002D01*
X92737865Y-113397002D02*
X92670521Y-113329659D01*
X92670521Y-113329659D02*
X92569506Y-113295987D01*
X92569506Y-113295987D02*
X92502163Y-113295987D01*
X92502163Y-113295987D02*
X92401147Y-113329659D01*
X92401147Y-113329659D02*
X92232789Y-113430674D01*
X92232789Y-113430674D02*
X92131773Y-113464346D01*
X92131773Y-113464346D02*
X92064430Y-113464346D01*
X92064430Y-113464346D02*
X91963415Y-113430674D01*
X91963415Y-113430674D02*
X91896071Y-113363331D01*
X91896071Y-113363331D02*
X91862399Y-113262315D01*
X91862399Y-113262315D02*
X91862399Y-113194972D01*
X91862399Y-113194972D02*
X91896071Y-113093957D01*
X91896071Y-113093957D02*
X92064430Y-112925598D01*
X92064430Y-112925598D02*
X92199117Y-112858254D01*
X93175598Y-113228643D02*
X92468491Y-112521537D01*
X92468491Y-112521537D02*
X92636850Y-112353178D01*
X92636850Y-112353178D02*
X92771537Y-112285834D01*
X92771537Y-112285834D02*
X92906224Y-112285834D01*
X92906224Y-112285834D02*
X93007239Y-112319506D01*
X93007239Y-112319506D02*
X93175598Y-112420521D01*
X93175598Y-112420521D02*
X93276613Y-112521537D01*
X93276613Y-112521537D02*
X93377628Y-112689895D01*
X93377628Y-112689895D02*
X93411300Y-112790911D01*
X93411300Y-112790911D02*
X93411300Y-112925598D01*
X93411300Y-112925598D02*
X93343956Y-113060285D01*
X93343956Y-113060285D02*
X93175598Y-113228643D01*
X93647002Y-112353178D02*
X93983720Y-112016460D01*
X93781689Y-112622552D02*
X93310285Y-111679743D01*
X93310285Y-111679743D02*
X94253094Y-112151147D01*
X99196579Y-113110792D02*
X99095564Y-113144464D01*
X99095564Y-113144464D02*
X98994549Y-113245479D01*
X98994549Y-113245479D02*
X98927205Y-113380166D01*
X98927205Y-113380166D02*
X98927205Y-113514853D01*
X98927205Y-113514853D02*
X98960877Y-113615868D01*
X98960877Y-113615868D02*
X99061892Y-113784227D01*
X99061892Y-113784227D02*
X99162908Y-113885242D01*
X99162908Y-113885242D02*
X99331266Y-113986257D01*
X99331266Y-113986257D02*
X99432282Y-114019929D01*
X99432282Y-114019929D02*
X99566969Y-114019929D01*
X99566969Y-114019929D02*
X99701656Y-113952586D01*
X99701656Y-113952586D02*
X99768999Y-113885242D01*
X99768999Y-113885242D02*
X99836343Y-113750555D01*
X99836343Y-113750555D02*
X99836343Y-113683212D01*
X99836343Y-113683212D02*
X99600640Y-113447509D01*
X99600640Y-113447509D02*
X99465953Y-113582196D01*
X100206732Y-113447509D02*
X99499625Y-112740403D01*
X99499625Y-112740403D02*
X99768999Y-112471029D01*
X99768999Y-112471029D02*
X99870014Y-112437357D01*
X99870014Y-112437357D02*
X99937358Y-112437357D01*
X99937358Y-112437357D02*
X100038373Y-112471029D01*
X100038373Y-112471029D02*
X100139388Y-112572044D01*
X100139388Y-112572044D02*
X100173060Y-112673059D01*
X100173060Y-112673059D02*
X100173060Y-112740403D01*
X100173060Y-112740403D02*
X100139388Y-112841418D01*
X100139388Y-112841418D02*
X99870014Y-113110792D01*
X100913839Y-112740403D02*
X100206732Y-112033296D01*
X100678136Y-111561892D02*
X100812823Y-111427205D01*
X100812823Y-111427205D02*
X100913838Y-111393533D01*
X100913838Y-111393533D02*
X101048525Y-111393533D01*
X101048525Y-111393533D02*
X101216884Y-111494548D01*
X101216884Y-111494548D02*
X101452586Y-111730250D01*
X101452586Y-111730250D02*
X101553602Y-111898609D01*
X101553602Y-111898609D02*
X101553602Y-112033296D01*
X101553602Y-112033296D02*
X101519930Y-112134311D01*
X101519930Y-112134311D02*
X101385243Y-112268998D01*
X101385243Y-112268998D02*
X101284228Y-112302670D01*
X101284228Y-112302670D02*
X101149541Y-112302670D01*
X101149541Y-112302670D02*
X100981182Y-112201655D01*
X100981182Y-112201655D02*
X100745480Y-111965953D01*
X100745480Y-111965953D02*
X100644464Y-111797594D01*
X100644464Y-111797594D02*
X100644464Y-111662907D01*
X100644464Y-111662907D02*
X100678136Y-111561892D01*
X101960238Y-113411904D02*
X101912619Y-113507142D01*
X101912619Y-113507142D02*
X101912619Y-113649999D01*
X101912619Y-113649999D02*
X101960238Y-113792856D01*
X101960238Y-113792856D02*
X102055476Y-113888094D01*
X102055476Y-113888094D02*
X102150714Y-113935713D01*
X102150714Y-113935713D02*
X102341190Y-113983332D01*
X102341190Y-113983332D02*
X102484047Y-113983332D01*
X102484047Y-113983332D02*
X102674523Y-113935713D01*
X102674523Y-113935713D02*
X102769761Y-113888094D01*
X102769761Y-113888094D02*
X102865000Y-113792856D01*
X102865000Y-113792856D02*
X102912619Y-113649999D01*
X102912619Y-113649999D02*
X102912619Y-113554761D01*
X102912619Y-113554761D02*
X102865000Y-113411904D01*
X102865000Y-113411904D02*
X102817380Y-113364285D01*
X102817380Y-113364285D02*
X102484047Y-113364285D01*
X102484047Y-113364285D02*
X102484047Y-113554761D01*
X102912619Y-112935713D02*
X101912619Y-112935713D01*
X101912619Y-112935713D02*
X102912619Y-112364285D01*
X102912619Y-112364285D02*
X101912619Y-112364285D01*
X102912619Y-111888094D02*
X101912619Y-111888094D01*
X101912619Y-111888094D02*
X101912619Y-111649999D01*
X101912619Y-111649999D02*
X101960238Y-111507142D01*
X101960238Y-111507142D02*
X102055476Y-111411904D01*
X102055476Y-111411904D02*
X102150714Y-111364285D01*
X102150714Y-111364285D02*
X102341190Y-111316666D01*
X102341190Y-111316666D02*
X102484047Y-111316666D01*
X102484047Y-111316666D02*
X102674523Y-111364285D01*
X102674523Y-111364285D02*
X102769761Y-111411904D01*
X102769761Y-111411904D02*
X102865000Y-111507142D01*
X102865000Y-111507142D02*
X102912619Y-111649999D01*
X102912619Y-111649999D02*
X102912619Y-111888094D01*
X128769270Y-113194971D02*
X128196850Y-113093956D01*
X128365209Y-113599032D02*
X127658102Y-112891926D01*
X127658102Y-112891926D02*
X127927476Y-112622552D01*
X127927476Y-112622552D02*
X128028491Y-112588880D01*
X128028491Y-112588880D02*
X128095835Y-112588880D01*
X128095835Y-112588880D02*
X128196850Y-112622552D01*
X128196850Y-112622552D02*
X128297865Y-112723567D01*
X128297865Y-112723567D02*
X128331537Y-112824582D01*
X128331537Y-112824582D02*
X128331537Y-112891926D01*
X128331537Y-112891926D02*
X128297865Y-112992941D01*
X128297865Y-112992941D02*
X128028491Y-113262315D01*
X128297865Y-112252162D02*
X129476377Y-112487865D01*
X128769270Y-111780758D02*
X129004972Y-112959269D01*
X115075953Y-114188288D02*
X114368847Y-113481181D01*
X114368847Y-113481181D02*
X115109625Y-113750555D01*
X115109625Y-113750555D02*
X114840251Y-113009776D01*
X114840251Y-113009776D02*
X115547358Y-113716883D01*
X115311655Y-112538372D02*
X115446343Y-112403685D01*
X115446343Y-112403685D02*
X115547358Y-112370013D01*
X115547358Y-112370013D02*
X115682045Y-112370013D01*
X115682045Y-112370013D02*
X115850404Y-112471029D01*
X115850404Y-112471029D02*
X116086106Y-112706731D01*
X116086106Y-112706731D02*
X116187121Y-112875090D01*
X116187121Y-112875090D02*
X116187121Y-113009777D01*
X116187121Y-113009777D02*
X116153449Y-113110792D01*
X116153449Y-113110792D02*
X116018762Y-113245479D01*
X116018762Y-113245479D02*
X115917747Y-113279151D01*
X115917747Y-113279151D02*
X115783060Y-113279151D01*
X115783060Y-113279151D02*
X115614701Y-113178135D01*
X115614701Y-113178135D02*
X115378999Y-112942433D01*
X115378999Y-112942433D02*
X115277984Y-112774074D01*
X115277984Y-112774074D02*
X115277984Y-112639387D01*
X115277984Y-112639387D02*
X115311655Y-112538372D01*
X116557510Y-112639387D02*
X116692197Y-112572044D01*
X116692197Y-112572044D02*
X116860556Y-112403685D01*
X116860556Y-112403685D02*
X116894228Y-112302670D01*
X116894228Y-112302670D02*
X116894228Y-112235326D01*
X116894228Y-112235326D02*
X116860556Y-112134311D01*
X116860556Y-112134311D02*
X116793213Y-112066968D01*
X116793213Y-112066968D02*
X116692197Y-112033296D01*
X116692197Y-112033296D02*
X116624854Y-112033296D01*
X116624854Y-112033296D02*
X116523839Y-112066968D01*
X116523839Y-112066968D02*
X116355480Y-112167983D01*
X116355480Y-112167983D02*
X116254465Y-112201655D01*
X116254465Y-112201655D02*
X116187121Y-112201655D01*
X116187121Y-112201655D02*
X116086106Y-112167983D01*
X116086106Y-112167983D02*
X116018762Y-112100639D01*
X116018762Y-112100639D02*
X115985090Y-111999624D01*
X115985090Y-111999624D02*
X115985090Y-111932281D01*
X115985090Y-111932281D02*
X116018762Y-111831265D01*
X116018762Y-111831265D02*
X116187121Y-111662907D01*
X116187121Y-111662907D02*
X116321808Y-111595563D01*
X117298289Y-111965952D02*
X116591182Y-111258846D01*
X111928572Y-112512619D02*
X111928572Y-111512619D01*
X111928572Y-111512619D02*
X112261905Y-112226904D01*
X112261905Y-112226904D02*
X112595238Y-111512619D01*
X112595238Y-111512619D02*
X112595238Y-112512619D01*
X113071429Y-112512619D02*
X113071429Y-111512619D01*
X113500000Y-112465000D02*
X113642857Y-112512619D01*
X113642857Y-112512619D02*
X113880952Y-112512619D01*
X113880952Y-112512619D02*
X113976190Y-112465000D01*
X113976190Y-112465000D02*
X114023809Y-112417380D01*
X114023809Y-112417380D02*
X114071428Y-112322142D01*
X114071428Y-112322142D02*
X114071428Y-112226904D01*
X114071428Y-112226904D02*
X114023809Y-112131666D01*
X114023809Y-112131666D02*
X113976190Y-112084047D01*
X113976190Y-112084047D02*
X113880952Y-112036428D01*
X113880952Y-112036428D02*
X113690476Y-111988809D01*
X113690476Y-111988809D02*
X113595238Y-111941190D01*
X113595238Y-111941190D02*
X113547619Y-111893571D01*
X113547619Y-111893571D02*
X113500000Y-111798333D01*
X113500000Y-111798333D02*
X113500000Y-111703095D01*
X113500000Y-111703095D02*
X113547619Y-111607857D01*
X113547619Y-111607857D02*
X113595238Y-111560238D01*
X113595238Y-111560238D02*
X113690476Y-111512619D01*
X113690476Y-111512619D02*
X113928571Y-111512619D01*
X113928571Y-111512619D02*
X114071428Y-111560238D01*
X114690476Y-111512619D02*
X114880952Y-111512619D01*
X114880952Y-111512619D02*
X114976190Y-111560238D01*
X114976190Y-111560238D02*
X115071428Y-111655476D01*
X115071428Y-111655476D02*
X115119047Y-111845952D01*
X115119047Y-111845952D02*
X115119047Y-112179285D01*
X115119047Y-112179285D02*
X115071428Y-112369761D01*
X115071428Y-112369761D02*
X114976190Y-112465000D01*
X114976190Y-112465000D02*
X114880952Y-112512619D01*
X114880952Y-112512619D02*
X114690476Y-112512619D01*
X114690476Y-112512619D02*
X114595238Y-112465000D01*
X114595238Y-112465000D02*
X114500000Y-112369761D01*
X114500000Y-112369761D02*
X114452381Y-112179285D01*
X114452381Y-112179285D02*
X114452381Y-111845952D01*
X114452381Y-111845952D02*
X114500000Y-111655476D01*
X114500000Y-111655476D02*
X114595238Y-111560238D01*
X114595238Y-111560238D02*
X114690476Y-111512619D01*
X120357984Y-113918914D02*
X120492671Y-113851571D01*
X120492671Y-113851571D02*
X120661029Y-113683212D01*
X120661029Y-113683212D02*
X120694701Y-113582197D01*
X120694701Y-113582197D02*
X120694701Y-113514853D01*
X120694701Y-113514853D02*
X120661029Y-113413838D01*
X120661029Y-113413838D02*
X120593686Y-113346494D01*
X120593686Y-113346494D02*
X120492671Y-113312823D01*
X120492671Y-113312823D02*
X120425327Y-113312823D01*
X120425327Y-113312823D02*
X120324312Y-113346494D01*
X120324312Y-113346494D02*
X120155953Y-113447510D01*
X120155953Y-113447510D02*
X120054938Y-113481181D01*
X120054938Y-113481181D02*
X119987594Y-113481181D01*
X119987594Y-113481181D02*
X119886579Y-113447510D01*
X119886579Y-113447510D02*
X119819236Y-113380166D01*
X119819236Y-113380166D02*
X119785564Y-113279151D01*
X119785564Y-113279151D02*
X119785564Y-113211807D01*
X119785564Y-113211807D02*
X119819236Y-113110792D01*
X119819236Y-113110792D02*
X119987594Y-112942433D01*
X119987594Y-112942433D02*
X120122281Y-112875090D01*
X121031419Y-113245479D02*
X121166106Y-113178135D01*
X121166106Y-113178135D02*
X121334464Y-113009777D01*
X121334464Y-113009777D02*
X121368136Y-112908761D01*
X121368136Y-112908761D02*
X121368136Y-112841418D01*
X121368136Y-112841418D02*
X121334464Y-112740403D01*
X121334464Y-112740403D02*
X121267121Y-112673059D01*
X121267121Y-112673059D02*
X121166106Y-112639387D01*
X121166106Y-112639387D02*
X121098762Y-112639387D01*
X121098762Y-112639387D02*
X120997747Y-112673059D01*
X120997747Y-112673059D02*
X120829388Y-112774074D01*
X120829388Y-112774074D02*
X120728373Y-112807746D01*
X120728373Y-112807746D02*
X120661029Y-112807746D01*
X120661029Y-112807746D02*
X120560014Y-112774074D01*
X120560014Y-112774074D02*
X120492671Y-112706731D01*
X120492671Y-112706731D02*
X120458999Y-112605716D01*
X120458999Y-112605716D02*
X120458999Y-112538372D01*
X120458999Y-112538372D02*
X120492671Y-112437357D01*
X120492671Y-112437357D02*
X120661029Y-112268998D01*
X120661029Y-112268998D02*
X120795716Y-112201655D01*
X122142586Y-112201655D02*
X121738525Y-112605716D01*
X121940556Y-112403685D02*
X121233449Y-111696578D01*
X121233449Y-111696578D02*
X121267121Y-111864937D01*
X121267121Y-111864937D02*
X121267121Y-111999624D01*
X121267121Y-111999624D02*
X121233449Y-112100639D01*
X94991655Y-113885242D02*
X95126342Y-113817899D01*
X95126342Y-113817899D02*
X95294701Y-113649540D01*
X95294701Y-113649540D02*
X95328373Y-113548525D01*
X95328373Y-113548525D02*
X95328373Y-113481181D01*
X95328373Y-113481181D02*
X95294701Y-113380166D01*
X95294701Y-113380166D02*
X95227358Y-113312823D01*
X95227358Y-113312823D02*
X95126342Y-113279151D01*
X95126342Y-113279151D02*
X95058999Y-113279151D01*
X95058999Y-113279151D02*
X94957984Y-113312823D01*
X94957984Y-113312823D02*
X94789625Y-113413838D01*
X94789625Y-113413838D02*
X94688610Y-113447510D01*
X94688610Y-113447510D02*
X94621266Y-113447510D01*
X94621266Y-113447510D02*
X94520251Y-113413838D01*
X94520251Y-113413838D02*
X94452907Y-113346494D01*
X94452907Y-113346494D02*
X94419236Y-113245479D01*
X94419236Y-113245479D02*
X94419236Y-113178136D01*
X94419236Y-113178136D02*
X94452907Y-113077120D01*
X94452907Y-113077120D02*
X94621266Y-112908762D01*
X94621266Y-112908762D02*
X94755953Y-112841418D01*
X96069151Y-112740403D02*
X96069151Y-112807746D01*
X96069151Y-112807746D02*
X96001808Y-112942433D01*
X96001808Y-112942433D02*
X95934464Y-113009777D01*
X95934464Y-113009777D02*
X95799777Y-113077120D01*
X95799777Y-113077120D02*
X95665090Y-113077120D01*
X95665090Y-113077120D02*
X95564075Y-113043449D01*
X95564075Y-113043449D02*
X95395716Y-112942433D01*
X95395716Y-112942433D02*
X95294701Y-112841418D01*
X95294701Y-112841418D02*
X95193686Y-112673059D01*
X95193686Y-112673059D02*
X95160014Y-112572044D01*
X95160014Y-112572044D02*
X95160014Y-112437357D01*
X95160014Y-112437357D02*
X95227358Y-112302670D01*
X95227358Y-112302670D02*
X95294701Y-112235326D01*
X95294701Y-112235326D02*
X95429388Y-112167983D01*
X95429388Y-112167983D02*
X95496732Y-112167983D01*
X96776258Y-112167983D02*
X96439541Y-112504700D01*
X96439541Y-112504700D02*
X95732434Y-111797594D01*
X117784312Y-113952586D02*
X117918999Y-113885242D01*
X117918999Y-113885242D02*
X118087358Y-113716884D01*
X118087358Y-113716884D02*
X118121029Y-113615868D01*
X118121029Y-113615868D02*
X118121029Y-113548525D01*
X118121029Y-113548525D02*
X118087358Y-113447509D01*
X118087358Y-113447509D02*
X118020014Y-113380166D01*
X118020014Y-113380166D02*
X117918999Y-113346494D01*
X117918999Y-113346494D02*
X117851655Y-113346494D01*
X117851655Y-113346494D02*
X117750640Y-113380166D01*
X117750640Y-113380166D02*
X117582281Y-113481181D01*
X117582281Y-113481181D02*
X117481266Y-113514853D01*
X117481266Y-113514853D02*
X117413923Y-113514853D01*
X117413923Y-113514853D02*
X117312907Y-113481181D01*
X117312907Y-113481181D02*
X117245564Y-113413838D01*
X117245564Y-113413838D02*
X117211892Y-113312822D01*
X117211892Y-113312822D02*
X117211892Y-113245479D01*
X117211892Y-113245479D02*
X117245564Y-113144464D01*
X117245564Y-113144464D02*
X117413923Y-112976105D01*
X117413923Y-112976105D02*
X117548610Y-112908761D01*
X118861808Y-112807746D02*
X118861808Y-112875090D01*
X118861808Y-112875090D02*
X118794464Y-113009777D01*
X118794464Y-113009777D02*
X118727121Y-113077120D01*
X118727121Y-113077120D02*
X118592434Y-113144464D01*
X118592434Y-113144464D02*
X118457747Y-113144464D01*
X118457747Y-113144464D02*
X118356732Y-113110792D01*
X118356732Y-113110792D02*
X118188373Y-113009777D01*
X118188373Y-113009777D02*
X118087358Y-112908761D01*
X118087358Y-112908761D02*
X117986342Y-112740403D01*
X117986342Y-112740403D02*
X117952671Y-112639387D01*
X117952671Y-112639387D02*
X117952671Y-112504700D01*
X117952671Y-112504700D02*
X118020014Y-112370013D01*
X118020014Y-112370013D02*
X118087358Y-112302670D01*
X118087358Y-112302670D02*
X118222045Y-112235326D01*
X118222045Y-112235326D02*
X118289388Y-112235326D01*
X119232197Y-112572044D02*
X118525090Y-111864937D01*
X119636258Y-112167983D02*
X118929151Y-112066968D01*
X118929151Y-111460876D02*
X118929151Y-112268998D01*
X125101266Y-112908762D02*
X125505327Y-112504701D01*
X126010403Y-113413838D02*
X125303296Y-112706731D01*
X125673686Y-112336342D02*
X126852197Y-112572044D01*
X126145090Y-111864937D02*
X126380792Y-113043449D01*
X122594938Y-112942433D02*
X122493923Y-112976105D01*
X122493923Y-112976105D02*
X122392907Y-113077120D01*
X122392907Y-113077120D02*
X122325564Y-113211807D01*
X122325564Y-113211807D02*
X122325564Y-113346494D01*
X122325564Y-113346494D02*
X122359236Y-113447509D01*
X122359236Y-113447509D02*
X122460251Y-113615868D01*
X122460251Y-113615868D02*
X122561266Y-113716883D01*
X122561266Y-113716883D02*
X122729625Y-113817899D01*
X122729625Y-113817899D02*
X122830640Y-113851570D01*
X122830640Y-113851570D02*
X122965327Y-113851570D01*
X122965327Y-113851570D02*
X123100014Y-113784227D01*
X123100014Y-113784227D02*
X123167358Y-113716883D01*
X123167358Y-113716883D02*
X123234701Y-113582196D01*
X123234701Y-113582196D02*
X123234701Y-113514853D01*
X123234701Y-113514853D02*
X122998999Y-113279151D01*
X122998999Y-113279151D02*
X122864312Y-113413838D01*
X123605090Y-113279151D02*
X122897984Y-112572044D01*
X122897984Y-112572044D02*
X124009151Y-112875090D01*
X124009151Y-112875090D02*
X123302045Y-112167983D01*
X124345869Y-112538372D02*
X123638762Y-111831265D01*
X123638762Y-111831265D02*
X123807121Y-111662907D01*
X123807121Y-111662907D02*
X123941808Y-111595563D01*
X123941808Y-111595563D02*
X124076495Y-111595563D01*
X124076495Y-111595563D02*
X124177510Y-111629235D01*
X124177510Y-111629235D02*
X124345869Y-111730250D01*
X124345869Y-111730250D02*
X124446884Y-111831265D01*
X124446884Y-111831265D02*
X124547899Y-111999624D01*
X124547899Y-111999624D02*
X124581571Y-112100639D01*
X124581571Y-112100639D02*
X124581571Y-112235326D01*
X124581571Y-112235326D02*
X124514228Y-112370013D01*
X124514228Y-112370013D02*
X124345869Y-112538372D01*
X130214938Y-112942433D02*
X130113923Y-112976105D01*
X130113923Y-112976105D02*
X130012907Y-113077120D01*
X130012907Y-113077120D02*
X129945564Y-113211807D01*
X129945564Y-113211807D02*
X129945564Y-113346494D01*
X129945564Y-113346494D02*
X129979236Y-113447509D01*
X129979236Y-113447509D02*
X130080251Y-113615868D01*
X130080251Y-113615868D02*
X130181266Y-113716883D01*
X130181266Y-113716883D02*
X130349625Y-113817899D01*
X130349625Y-113817899D02*
X130450640Y-113851570D01*
X130450640Y-113851570D02*
X130585327Y-113851570D01*
X130585327Y-113851570D02*
X130720014Y-113784227D01*
X130720014Y-113784227D02*
X130787358Y-113716883D01*
X130787358Y-113716883D02*
X130854701Y-113582196D01*
X130854701Y-113582196D02*
X130854701Y-113514853D01*
X130854701Y-113514853D02*
X130618999Y-113279151D01*
X130618999Y-113279151D02*
X130484312Y-113413838D01*
X131225090Y-113279151D02*
X130517984Y-112572044D01*
X130517984Y-112572044D02*
X131629151Y-112875090D01*
X131629151Y-112875090D02*
X130922045Y-112167983D01*
X131965869Y-112538372D02*
X131258762Y-111831265D01*
X131258762Y-111831265D02*
X131427121Y-111662907D01*
X131427121Y-111662907D02*
X131561808Y-111595563D01*
X131561808Y-111595563D02*
X131696495Y-111595563D01*
X131696495Y-111595563D02*
X131797510Y-111629235D01*
X131797510Y-111629235D02*
X131965869Y-111730250D01*
X131965869Y-111730250D02*
X132066884Y-111831265D01*
X132066884Y-111831265D02*
X132167899Y-111999624D01*
X132167899Y-111999624D02*
X132201571Y-112100639D01*
X132201571Y-112100639D02*
X132201571Y-112235326D01*
X132201571Y-112235326D02*
X132134228Y-112370013D01*
X132134228Y-112370013D02*
X131965869Y-112538372D01*
X107220952Y-112712619D02*
X106649524Y-112712619D01*
X106935238Y-112712619D02*
X106935238Y-111712619D01*
X106935238Y-111712619D02*
X106840000Y-111855476D01*
X106840000Y-111855476D02*
X106744762Y-111950714D01*
X106744762Y-111950714D02*
X106649524Y-111998333D01*
X107506667Y-111712619D02*
X107840000Y-112712619D01*
X107840000Y-112712619D02*
X108173333Y-111712619D01*
X108649524Y-112141190D02*
X108554286Y-112093571D01*
X108554286Y-112093571D02*
X108506667Y-112045952D01*
X108506667Y-112045952D02*
X108459048Y-111950714D01*
X108459048Y-111950714D02*
X108459048Y-111903095D01*
X108459048Y-111903095D02*
X108506667Y-111807857D01*
X108506667Y-111807857D02*
X108554286Y-111760238D01*
X108554286Y-111760238D02*
X108649524Y-111712619D01*
X108649524Y-111712619D02*
X108840000Y-111712619D01*
X108840000Y-111712619D02*
X108935238Y-111760238D01*
X108935238Y-111760238D02*
X108982857Y-111807857D01*
X108982857Y-111807857D02*
X109030476Y-111903095D01*
X109030476Y-111903095D02*
X109030476Y-111950714D01*
X109030476Y-111950714D02*
X108982857Y-112045952D01*
X108982857Y-112045952D02*
X108935238Y-112093571D01*
X108935238Y-112093571D02*
X108840000Y-112141190D01*
X108840000Y-112141190D02*
X108649524Y-112141190D01*
X108649524Y-112141190D02*
X108554286Y-112188809D01*
X108554286Y-112188809D02*
X108506667Y-112236428D01*
X108506667Y-112236428D02*
X108459048Y-112331666D01*
X108459048Y-112331666D02*
X108459048Y-112522142D01*
X108459048Y-112522142D02*
X108506667Y-112617380D01*
X108506667Y-112617380D02*
X108554286Y-112665000D01*
X108554286Y-112665000D02*
X108649524Y-112712619D01*
X108649524Y-112712619D02*
X108840000Y-112712619D01*
X108840000Y-112712619D02*
X108935238Y-112665000D01*
X108935238Y-112665000D02*
X108982857Y-112617380D01*
X108982857Y-112617380D02*
X109030476Y-112522142D01*
X109030476Y-112522142D02*
X109030476Y-112331666D01*
X109030476Y-112331666D02*
X108982857Y-112236428D01*
X108982857Y-112236428D02*
X108935238Y-112188809D01*
X108935238Y-112188809D02*
X108840000Y-112141190D01*
X110660238Y-113411904D02*
X110612619Y-113507142D01*
X110612619Y-113507142D02*
X110612619Y-113649999D01*
X110612619Y-113649999D02*
X110660238Y-113792856D01*
X110660238Y-113792856D02*
X110755476Y-113888094D01*
X110755476Y-113888094D02*
X110850714Y-113935713D01*
X110850714Y-113935713D02*
X111041190Y-113983332D01*
X111041190Y-113983332D02*
X111184047Y-113983332D01*
X111184047Y-113983332D02*
X111374523Y-113935713D01*
X111374523Y-113935713D02*
X111469761Y-113888094D01*
X111469761Y-113888094D02*
X111565000Y-113792856D01*
X111565000Y-113792856D02*
X111612619Y-113649999D01*
X111612619Y-113649999D02*
X111612619Y-113554761D01*
X111612619Y-113554761D02*
X111565000Y-113411904D01*
X111565000Y-113411904D02*
X111517380Y-113364285D01*
X111517380Y-113364285D02*
X111184047Y-113364285D01*
X111184047Y-113364285D02*
X111184047Y-113554761D01*
X111612619Y-112935713D02*
X110612619Y-112935713D01*
X110612619Y-112935713D02*
X111612619Y-112364285D01*
X111612619Y-112364285D02*
X110612619Y-112364285D01*
X111612619Y-111888094D02*
X110612619Y-111888094D01*
X110612619Y-111888094D02*
X110612619Y-111649999D01*
X110612619Y-111649999D02*
X110660238Y-111507142D01*
X110660238Y-111507142D02*
X110755476Y-111411904D01*
X110755476Y-111411904D02*
X110850714Y-111364285D01*
X110850714Y-111364285D02*
X111041190Y-111316666D01*
X111041190Y-111316666D02*
X111184047Y-111316666D01*
X111184047Y-111316666D02*
X111374523Y-111364285D01*
X111374523Y-111364285D02*
X111469761Y-111411904D01*
X111469761Y-111411904D02*
X111565000Y-111507142D01*
X111565000Y-111507142D02*
X111612619Y-111649999D01*
X111612619Y-111649999D02*
X111612619Y-111888094D01*
D11*
%TO.C,J2*%
X131830000Y-114170000D02*
X131830000Y-115500000D01*
X130500000Y-114170000D02*
X131830000Y-114170000D01*
X129230000Y-114170000D02*
X91070000Y-114170000D01*
X129230000Y-114170000D02*
X129230000Y-116830000D01*
X91070000Y-114170000D02*
X91070000Y-116830000D01*
X129230000Y-116830000D02*
X91070000Y-116830000D01*
%TO.C,C1*%
X109592164Y-113140000D02*
X109807836Y-113140000D01*
X109592164Y-113860000D02*
X109807836Y-113860000D01*
%TO.C,C2*%
X103937836Y-113860000D02*
X103722164Y-113860000D01*
X103937836Y-113140000D02*
X103722164Y-113140000D01*
%TD*%
M02*
