%TF.GenerationSoftware,KiCad,Pcbnew,6.0.6-1.fc36*%
%TF.CreationDate,2022-07-20T16:56:09-04:00*%
%TF.ProjectId,ext-con-breakout-board,6578742d-636f-46e2-9d62-7265616b6f75,v0.5*%
%TF.SameCoordinates,Original*%
%TF.FileFunction,Copper,L4,Bot*%
%TF.FilePolarity,Positive*%
%FSLAX46Y46*%
G04 Gerber Fmt 4.6, Leading zero omitted, Abs format (unit mm)*
G04 Created by KiCad (PCBNEW 6.0.6-1.fc36) date 2022-07-20 16:56:09*
%MOMM*%
%LPD*%
G01*
G04 APERTURE LIST*
%TA.AperFunction,ComponentPad*%
%ADD10R,1.700000X1.700000*%
%TD*%
%TA.AperFunction,ComponentPad*%
%ADD11O,1.700000X1.700000*%
%TD*%
%TA.AperFunction,ComponentPad*%
%ADD12C,2.800000*%
%TD*%
%TA.AperFunction,SMDPad,CuDef*%
%ADD13C,0.500000*%
%TD*%
%TA.AperFunction,ViaPad*%
%ADD14C,0.800000*%
%TD*%
G04 APERTURE END LIST*
D10*
%TO.P,J2,1,Pin_1*%
%TO.N,GND*%
X135500000Y-119000000D03*
D11*
%TO.P,J2,2,Pin_2*%
%TO.N,/UART1_RXD*%
X132960000Y-119000000D03*
%TO.P,J2,3,Pin_3*%
%TO.N,/UART1_TXD*%
X130420000Y-119000000D03*
%TO.P,J2,4,Pin_4*%
%TO.N,GND*%
X127880000Y-119000000D03*
%TO.P,J2,5,Pin_5*%
%TO.N,/SPI_SS1*%
X125340000Y-119000000D03*
%TO.P,J2,6,Pin_6*%
%TO.N,/SPI_SCK*%
X122800000Y-119000000D03*
%TO.P,J2,7,Pin_7*%
%TO.N,/SPI_MOSI*%
X120260000Y-119000000D03*
%TO.P,J2,8,Pin_8*%
%TO.N,/SPI_MISO*%
X117720000Y-119000000D03*
%TO.P,J2,9,Pin_9*%
%TO.N,GND*%
X115180000Y-119000000D03*
%TO.P,J2,10,Pin_10*%
%TO.N,Net-(C1-Pad1)*%
X112640000Y-119000000D03*
%TO.P,J2,11,Pin_11*%
%TO.N,Net-(C2-Pad1)*%
X110100000Y-119000000D03*
%TO.P,J2,12,Pin_12*%
%TO.N,GND*%
X107560000Y-119000000D03*
%TO.P,J2,13,Pin_13*%
%TO.N,/GPIO4_IO11*%
X105020000Y-119000000D03*
%TO.P,J2,14,Pin_14*%
%TO.N,/GPIO4_IO28*%
X102480000Y-119000000D03*
%TO.P,J2,15,Pin_15*%
%TO.N,/I2C4_SCL*%
X99940000Y-119000000D03*
%TO.P,J2,16,Pin_16*%
%TO.N,/I2C4_SDA*%
X97400000Y-119000000D03*
%TD*%
D12*
%TO.P,H1,1,1*%
%TO.N,GND*%
X138671000Y-119000000D03*
%TD*%
D13*
%TO.P,FID1,*%
%TO.N,*%
X96500000Y-115700000D03*
%TD*%
%TO.P,FID2,*%
%TO.N,*%
X137700000Y-116700000D03*
%TD*%
D14*
%TO.N,+1V8*%
X117000000Y-116800000D03*
%TO.N,+3V3*%
X118500000Y-116800000D03*
%TD*%
%TA.AperFunction,Conductor*%
%TO.N,GND*%
G36*
X136505751Y-114802190D02*
G01*
X136705910Y-114842003D01*
X136720314Y-114845863D01*
X136931404Y-114917519D01*
X136945182Y-114923226D01*
X137145117Y-115021826D01*
X137158031Y-115029282D01*
X137343388Y-115153137D01*
X137355219Y-115162216D01*
X137505369Y-115293900D01*
X137510955Y-115299140D01*
X137518097Y-115306308D01*
X137524912Y-115317193D01*
X137535773Y-115324046D01*
X137538848Y-115327132D01*
X137551807Y-115337486D01*
X140512138Y-118297818D01*
X140521988Y-118310189D01*
X140525530Y-118313744D01*
X140532342Y-118324624D01*
X140543197Y-118331473D01*
X140552098Y-118340406D01*
X140557056Y-118345709D01*
X140687788Y-118494781D01*
X140696865Y-118506611D01*
X140820715Y-118691965D01*
X140828171Y-118704878D01*
X140926772Y-118904817D01*
X140932478Y-118918593D01*
X141004143Y-119129699D01*
X141008002Y-119144097D01*
X141038030Y-119295038D01*
X141051499Y-119362741D01*
X141053446Y-119377525D01*
X141066483Y-119576339D01*
X141066727Y-119583993D01*
X141066709Y-119594598D01*
X141063832Y-119607110D01*
X141066666Y-119619634D01*
X141066659Y-119623998D01*
X141068500Y-119640476D01*
X141068500Y-120066438D01*
X141066718Y-120082140D01*
X141066709Y-120087163D01*
X141063832Y-120099675D01*
X141066664Y-120112194D01*
X141066652Y-120119191D01*
X141066301Y-120127932D01*
X141053130Y-120295303D01*
X141052971Y-120297318D01*
X141050173Y-120314982D01*
X141039845Y-120358000D01*
X141006062Y-120498716D01*
X141000534Y-120515729D01*
X140928226Y-120690295D01*
X140920105Y-120706233D01*
X140821376Y-120867346D01*
X140810861Y-120881819D01*
X140688147Y-121025498D01*
X140675501Y-121038144D01*
X140531819Y-121160861D01*
X140517346Y-121171376D01*
X140356233Y-121270105D01*
X140340295Y-121278226D01*
X140165729Y-121350534D01*
X140148716Y-121356062D01*
X140087003Y-121370878D01*
X139964982Y-121400173D01*
X139947322Y-121402970D01*
X139887317Y-121407693D01*
X139777099Y-121416367D01*
X139767956Y-121416718D01*
X139762836Y-121416709D01*
X139750325Y-121413832D01*
X139737803Y-121416666D01*
X139733446Y-121416658D01*
X139716958Y-121418500D01*
X96783562Y-121418500D01*
X96767860Y-121416718D01*
X96762837Y-121416709D01*
X96750325Y-121413832D01*
X96737806Y-121416664D01*
X96730809Y-121416652D01*
X96722068Y-121416301D01*
X96634602Y-121409418D01*
X96552678Y-121402970D01*
X96535018Y-121400173D01*
X96412997Y-121370878D01*
X96351284Y-121356062D01*
X96334271Y-121350534D01*
X96159705Y-121278226D01*
X96143767Y-121270105D01*
X95982654Y-121171376D01*
X95968181Y-121160861D01*
X95824499Y-121038144D01*
X95811853Y-121025498D01*
X95689139Y-120881819D01*
X95678624Y-120867346D01*
X95579895Y-120706233D01*
X95571774Y-120690295D01*
X95499466Y-120515729D01*
X95493938Y-120498716D01*
X95455813Y-120339914D01*
X95449828Y-120314984D01*
X95447029Y-120297317D01*
X95433994Y-120131686D01*
X95434392Y-120109700D01*
X95434711Y-120106932D01*
X95436167Y-120100650D01*
X95436168Y-120100000D01*
X95434355Y-120092052D01*
X95431500Y-120066699D01*
X95431500Y-118985683D01*
X96374662Y-118985683D01*
X96391408Y-119185111D01*
X96403472Y-119227184D01*
X96431695Y-119325606D01*
X96446572Y-119377489D01*
X96449122Y-119382450D01*
X96449122Y-119382451D01*
X96469415Y-119421936D01*
X96538051Y-119555488D01*
X96662362Y-119712329D01*
X96814769Y-119842038D01*
X96861790Y-119868317D01*
X96984596Y-119936951D01*
X96984598Y-119936952D01*
X96989467Y-119939673D01*
X96994776Y-119941398D01*
X97174498Y-119999794D01*
X97174502Y-119999795D01*
X97179802Y-120001517D01*
X97237190Y-120008360D01*
X97372988Y-120024553D01*
X97372990Y-120024553D01*
X97378525Y-120025213D01*
X97578065Y-120009859D01*
X97583430Y-120008361D01*
X97583436Y-120008360D01*
X97765460Y-119957538D01*
X97765463Y-119957537D01*
X97770824Y-119956040D01*
X97949457Y-119865806D01*
X98107162Y-119742593D01*
X98137053Y-119707964D01*
X98234288Y-119595317D01*
X98234290Y-119595314D01*
X98237931Y-119591096D01*
X98255676Y-119559860D01*
X98334027Y-119421936D01*
X98336784Y-119417083D01*
X98338543Y-119411796D01*
X98338545Y-119411791D01*
X98398196Y-119232472D01*
X98398196Y-119232471D01*
X98399955Y-119227184D01*
X98402590Y-119206330D01*
X98424639Y-119031788D01*
X98425038Y-119028632D01*
X98425438Y-119000000D01*
X98424034Y-118985683D01*
X98914662Y-118985683D01*
X98931408Y-119185111D01*
X98943472Y-119227184D01*
X98971695Y-119325606D01*
X98986572Y-119377489D01*
X98989122Y-119382450D01*
X98989122Y-119382451D01*
X99009415Y-119421936D01*
X99078051Y-119555488D01*
X99202362Y-119712329D01*
X99354769Y-119842038D01*
X99401790Y-119868317D01*
X99524596Y-119936951D01*
X99524598Y-119936952D01*
X99529467Y-119939673D01*
X99534776Y-119941398D01*
X99714498Y-119999794D01*
X99714502Y-119999795D01*
X99719802Y-120001517D01*
X99777190Y-120008360D01*
X99912988Y-120024553D01*
X99912990Y-120024553D01*
X99918525Y-120025213D01*
X100118065Y-120009859D01*
X100123430Y-120008361D01*
X100123436Y-120008360D01*
X100305460Y-119957538D01*
X100305463Y-119957537D01*
X100310824Y-119956040D01*
X100489457Y-119865806D01*
X100647162Y-119742593D01*
X100677053Y-119707964D01*
X100774288Y-119595317D01*
X100774290Y-119595314D01*
X100777931Y-119591096D01*
X100795676Y-119559860D01*
X100874027Y-119421936D01*
X100876784Y-119417083D01*
X100878543Y-119411796D01*
X100878545Y-119411791D01*
X100938196Y-119232472D01*
X100938196Y-119232471D01*
X100939955Y-119227184D01*
X100942590Y-119206330D01*
X100964639Y-119031788D01*
X100965038Y-119028632D01*
X100965438Y-119000000D01*
X100964034Y-118985683D01*
X101454662Y-118985683D01*
X101471408Y-119185111D01*
X101483472Y-119227184D01*
X101511695Y-119325606D01*
X101526572Y-119377489D01*
X101529122Y-119382450D01*
X101529122Y-119382451D01*
X101549415Y-119421936D01*
X101618051Y-119555488D01*
X101742362Y-119712329D01*
X101894769Y-119842038D01*
X101941790Y-119868317D01*
X102064596Y-119936951D01*
X102064598Y-119936952D01*
X102069467Y-119939673D01*
X102074776Y-119941398D01*
X102254498Y-119999794D01*
X102254502Y-119999795D01*
X102259802Y-120001517D01*
X102317190Y-120008360D01*
X102452988Y-120024553D01*
X102452990Y-120024553D01*
X102458525Y-120025213D01*
X102658065Y-120009859D01*
X102663430Y-120008361D01*
X102663436Y-120008360D01*
X102845460Y-119957538D01*
X102845463Y-119957537D01*
X102850824Y-119956040D01*
X103029457Y-119865806D01*
X103187162Y-119742593D01*
X103217053Y-119707964D01*
X103314288Y-119595317D01*
X103314290Y-119595314D01*
X103317931Y-119591096D01*
X103335676Y-119559860D01*
X103414027Y-119421936D01*
X103416784Y-119417083D01*
X103418543Y-119411796D01*
X103418545Y-119411791D01*
X103478196Y-119232472D01*
X103478196Y-119232471D01*
X103479955Y-119227184D01*
X103482590Y-119206330D01*
X103504639Y-119031788D01*
X103505038Y-119028632D01*
X103505438Y-119000000D01*
X103504034Y-118985683D01*
X103994662Y-118985683D01*
X104011408Y-119185111D01*
X104023472Y-119227184D01*
X104051695Y-119325606D01*
X104066572Y-119377489D01*
X104069122Y-119382450D01*
X104069122Y-119382451D01*
X104089415Y-119421936D01*
X104158051Y-119555488D01*
X104282362Y-119712329D01*
X104434769Y-119842038D01*
X104481790Y-119868317D01*
X104604596Y-119936951D01*
X104604598Y-119936952D01*
X104609467Y-119939673D01*
X104614776Y-119941398D01*
X104794498Y-119999794D01*
X104794502Y-119999795D01*
X104799802Y-120001517D01*
X104857190Y-120008360D01*
X104992988Y-120024553D01*
X104992990Y-120024553D01*
X104998525Y-120025213D01*
X105198065Y-120009859D01*
X105203430Y-120008361D01*
X105203436Y-120008360D01*
X105385460Y-119957538D01*
X105385463Y-119957537D01*
X105390824Y-119956040D01*
X105569457Y-119865806D01*
X105727162Y-119742593D01*
X105757053Y-119707964D01*
X105854288Y-119595317D01*
X105854290Y-119595314D01*
X105857931Y-119591096D01*
X105875676Y-119559860D01*
X105954027Y-119421936D01*
X105956784Y-119417083D01*
X105958543Y-119411796D01*
X105958545Y-119411791D01*
X106009338Y-119259100D01*
X106045964Y-119206330D01*
X106105306Y-119181739D01*
X106168522Y-119193134D01*
X106215542Y-119236898D01*
X106228721Y-119270021D01*
X106258673Y-119402930D01*
X106261461Y-119411823D01*
X106341954Y-119610055D01*
X106346157Y-119618377D01*
X106457951Y-119800807D01*
X106463451Y-119808322D01*
X106603538Y-119970043D01*
X106610199Y-119976566D01*
X106774818Y-120113236D01*
X106782453Y-120118581D01*
X106967178Y-120226526D01*
X106975588Y-120230555D01*
X107175452Y-120306875D01*
X107184427Y-120309483D01*
X107289935Y-120330949D01*
X107302652Y-120329867D01*
X107306000Y-120320507D01*
X107306000Y-120320243D01*
X107814000Y-120320243D01*
X107817677Y-120332766D01*
X107829813Y-120334606D01*
X107838671Y-120333471D01*
X107847793Y-120331533D01*
X108052716Y-120270052D01*
X108061407Y-120266646D01*
X108253537Y-120172523D01*
X108261545Y-120167749D01*
X108435725Y-120043509D01*
X108442852Y-120037486D01*
X108594398Y-119886466D01*
X108600444Y-119879362D01*
X108725285Y-119705628D01*
X108730100Y-119697614D01*
X108824890Y-119505823D01*
X108828324Y-119497150D01*
X108890522Y-119292432D01*
X108893480Y-119278752D01*
X108894607Y-119278996D01*
X108918397Y-119225228D01*
X108972019Y-119189863D01*
X109036250Y-119189102D01*
X109090695Y-119223188D01*
X109115014Y-119267434D01*
X109131695Y-119325606D01*
X109146572Y-119377489D01*
X109149122Y-119382450D01*
X109149122Y-119382451D01*
X109169415Y-119421936D01*
X109238051Y-119555488D01*
X109362362Y-119712329D01*
X109514769Y-119842038D01*
X109561790Y-119868317D01*
X109684596Y-119936951D01*
X109684598Y-119936952D01*
X109689467Y-119939673D01*
X109694776Y-119941398D01*
X109874498Y-119999794D01*
X109874502Y-119999795D01*
X109879802Y-120001517D01*
X109937190Y-120008360D01*
X110072988Y-120024553D01*
X110072990Y-120024553D01*
X110078525Y-120025213D01*
X110278065Y-120009859D01*
X110283430Y-120008361D01*
X110283436Y-120008360D01*
X110465460Y-119957538D01*
X110465463Y-119957537D01*
X110470824Y-119956040D01*
X110649457Y-119865806D01*
X110807162Y-119742593D01*
X110837053Y-119707964D01*
X110934288Y-119595317D01*
X110934290Y-119595314D01*
X110937931Y-119591096D01*
X110955676Y-119559860D01*
X111034027Y-119421936D01*
X111036784Y-119417083D01*
X111038543Y-119411796D01*
X111038545Y-119411791D01*
X111098196Y-119232472D01*
X111098196Y-119232471D01*
X111099955Y-119227184D01*
X111102590Y-119206330D01*
X111124639Y-119031788D01*
X111125038Y-119028632D01*
X111125438Y-119000000D01*
X111124034Y-118985683D01*
X111614662Y-118985683D01*
X111631408Y-119185111D01*
X111643472Y-119227184D01*
X111671695Y-119325606D01*
X111686572Y-119377489D01*
X111689122Y-119382450D01*
X111689122Y-119382451D01*
X111709415Y-119421936D01*
X111778051Y-119555488D01*
X111902362Y-119712329D01*
X112054769Y-119842038D01*
X112101790Y-119868317D01*
X112224596Y-119936951D01*
X112224598Y-119936952D01*
X112229467Y-119939673D01*
X112234776Y-119941398D01*
X112414498Y-119999794D01*
X112414502Y-119999795D01*
X112419802Y-120001517D01*
X112477190Y-120008360D01*
X112612988Y-120024553D01*
X112612990Y-120024553D01*
X112618525Y-120025213D01*
X112818065Y-120009859D01*
X112823430Y-120008361D01*
X112823436Y-120008360D01*
X113005460Y-119957538D01*
X113005463Y-119957537D01*
X113010824Y-119956040D01*
X113189457Y-119865806D01*
X113347162Y-119742593D01*
X113377053Y-119707964D01*
X113474288Y-119595317D01*
X113474290Y-119595314D01*
X113477931Y-119591096D01*
X113495676Y-119559860D01*
X113574027Y-119421936D01*
X113576784Y-119417083D01*
X113578543Y-119411796D01*
X113578545Y-119411791D01*
X113629338Y-119259100D01*
X113665964Y-119206330D01*
X113725306Y-119181739D01*
X113788522Y-119193134D01*
X113835542Y-119236898D01*
X113848721Y-119270021D01*
X113878673Y-119402930D01*
X113881461Y-119411823D01*
X113961954Y-119610055D01*
X113966157Y-119618377D01*
X114077951Y-119800807D01*
X114083451Y-119808322D01*
X114223538Y-119970043D01*
X114230199Y-119976566D01*
X114394818Y-120113236D01*
X114402453Y-120118581D01*
X114587178Y-120226526D01*
X114595588Y-120230555D01*
X114795452Y-120306875D01*
X114804427Y-120309483D01*
X114909935Y-120330949D01*
X114922652Y-120329867D01*
X114926000Y-120320507D01*
X114926000Y-120320243D01*
X115434000Y-120320243D01*
X115437677Y-120332766D01*
X115449813Y-120334606D01*
X115458671Y-120333471D01*
X115467793Y-120331533D01*
X115672716Y-120270052D01*
X115681407Y-120266646D01*
X115873537Y-120172523D01*
X115881545Y-120167749D01*
X116055725Y-120043509D01*
X116062852Y-120037486D01*
X116214398Y-119886466D01*
X116220444Y-119879362D01*
X116345285Y-119705628D01*
X116350100Y-119697614D01*
X116444890Y-119505823D01*
X116448324Y-119497150D01*
X116510522Y-119292432D01*
X116513480Y-119278752D01*
X116514607Y-119278996D01*
X116538397Y-119225228D01*
X116592019Y-119189863D01*
X116656250Y-119189102D01*
X116710695Y-119223188D01*
X116735014Y-119267434D01*
X116751695Y-119325606D01*
X116766572Y-119377489D01*
X116769122Y-119382450D01*
X116769122Y-119382451D01*
X116789415Y-119421936D01*
X116858051Y-119555488D01*
X116982362Y-119712329D01*
X117134769Y-119842038D01*
X117181790Y-119868317D01*
X117304596Y-119936951D01*
X117304598Y-119936952D01*
X117309467Y-119939673D01*
X117314776Y-119941398D01*
X117494498Y-119999794D01*
X117494502Y-119999795D01*
X117499802Y-120001517D01*
X117557190Y-120008360D01*
X117692988Y-120024553D01*
X117692990Y-120024553D01*
X117698525Y-120025213D01*
X117898065Y-120009859D01*
X117903430Y-120008361D01*
X117903436Y-120008360D01*
X118085460Y-119957538D01*
X118085463Y-119957537D01*
X118090824Y-119956040D01*
X118269457Y-119865806D01*
X118427162Y-119742593D01*
X118457053Y-119707964D01*
X118554288Y-119595317D01*
X118554290Y-119595314D01*
X118557931Y-119591096D01*
X118575676Y-119559860D01*
X118654027Y-119421936D01*
X118656784Y-119417083D01*
X118658543Y-119411796D01*
X118658545Y-119411791D01*
X118718196Y-119232472D01*
X118718196Y-119232471D01*
X118719955Y-119227184D01*
X118722590Y-119206330D01*
X118744639Y-119031788D01*
X118745038Y-119028632D01*
X118745438Y-119000000D01*
X118744034Y-118985683D01*
X119234662Y-118985683D01*
X119251408Y-119185111D01*
X119263472Y-119227184D01*
X119291695Y-119325606D01*
X119306572Y-119377489D01*
X119309122Y-119382450D01*
X119309122Y-119382451D01*
X119329415Y-119421936D01*
X119398051Y-119555488D01*
X119522362Y-119712329D01*
X119674769Y-119842038D01*
X119721790Y-119868317D01*
X119844596Y-119936951D01*
X119844598Y-119936952D01*
X119849467Y-119939673D01*
X119854776Y-119941398D01*
X120034498Y-119999794D01*
X120034502Y-119999795D01*
X120039802Y-120001517D01*
X120097190Y-120008360D01*
X120232988Y-120024553D01*
X120232990Y-120024553D01*
X120238525Y-120025213D01*
X120438065Y-120009859D01*
X120443430Y-120008361D01*
X120443436Y-120008360D01*
X120625460Y-119957538D01*
X120625463Y-119957537D01*
X120630824Y-119956040D01*
X120809457Y-119865806D01*
X120967162Y-119742593D01*
X120997053Y-119707964D01*
X121094288Y-119595317D01*
X121094290Y-119595314D01*
X121097931Y-119591096D01*
X121115676Y-119559860D01*
X121194027Y-119421936D01*
X121196784Y-119417083D01*
X121198543Y-119411796D01*
X121198545Y-119411791D01*
X121258196Y-119232472D01*
X121258196Y-119232471D01*
X121259955Y-119227184D01*
X121262590Y-119206330D01*
X121284639Y-119031788D01*
X121285038Y-119028632D01*
X121285438Y-119000000D01*
X121284034Y-118985683D01*
X121774662Y-118985683D01*
X121791408Y-119185111D01*
X121803472Y-119227184D01*
X121831695Y-119325606D01*
X121846572Y-119377489D01*
X121849122Y-119382450D01*
X121849122Y-119382451D01*
X121869415Y-119421936D01*
X121938051Y-119555488D01*
X122062362Y-119712329D01*
X122214769Y-119842038D01*
X122261790Y-119868317D01*
X122384596Y-119936951D01*
X122384598Y-119936952D01*
X122389467Y-119939673D01*
X122394776Y-119941398D01*
X122574498Y-119999794D01*
X122574502Y-119999795D01*
X122579802Y-120001517D01*
X122637190Y-120008360D01*
X122772988Y-120024553D01*
X122772990Y-120024553D01*
X122778525Y-120025213D01*
X122978065Y-120009859D01*
X122983430Y-120008361D01*
X122983436Y-120008360D01*
X123165460Y-119957538D01*
X123165463Y-119957537D01*
X123170824Y-119956040D01*
X123349457Y-119865806D01*
X123507162Y-119742593D01*
X123537053Y-119707964D01*
X123634288Y-119595317D01*
X123634290Y-119595314D01*
X123637931Y-119591096D01*
X123655676Y-119559860D01*
X123734027Y-119421936D01*
X123736784Y-119417083D01*
X123738543Y-119411796D01*
X123738545Y-119411791D01*
X123798196Y-119232472D01*
X123798196Y-119232471D01*
X123799955Y-119227184D01*
X123802590Y-119206330D01*
X123824639Y-119031788D01*
X123825038Y-119028632D01*
X123825438Y-119000000D01*
X123824034Y-118985683D01*
X124314662Y-118985683D01*
X124331408Y-119185111D01*
X124343472Y-119227184D01*
X124371695Y-119325606D01*
X124386572Y-119377489D01*
X124389122Y-119382450D01*
X124389122Y-119382451D01*
X124409415Y-119421936D01*
X124478051Y-119555488D01*
X124602362Y-119712329D01*
X124754769Y-119842038D01*
X124801790Y-119868317D01*
X124924596Y-119936951D01*
X124924598Y-119936952D01*
X124929467Y-119939673D01*
X124934776Y-119941398D01*
X125114498Y-119999794D01*
X125114502Y-119999795D01*
X125119802Y-120001517D01*
X125177190Y-120008360D01*
X125312988Y-120024553D01*
X125312990Y-120024553D01*
X125318525Y-120025213D01*
X125518065Y-120009859D01*
X125523430Y-120008361D01*
X125523436Y-120008360D01*
X125705460Y-119957538D01*
X125705463Y-119957537D01*
X125710824Y-119956040D01*
X125889457Y-119865806D01*
X126047162Y-119742593D01*
X126077053Y-119707964D01*
X126174288Y-119595317D01*
X126174290Y-119595314D01*
X126177931Y-119591096D01*
X126195676Y-119559860D01*
X126274027Y-119421936D01*
X126276784Y-119417083D01*
X126278543Y-119411796D01*
X126278545Y-119411791D01*
X126329338Y-119259100D01*
X126365964Y-119206330D01*
X126425306Y-119181739D01*
X126488522Y-119193134D01*
X126535542Y-119236898D01*
X126548721Y-119270021D01*
X126578673Y-119402930D01*
X126581461Y-119411823D01*
X126661954Y-119610055D01*
X126666157Y-119618377D01*
X126777951Y-119800807D01*
X126783451Y-119808322D01*
X126923538Y-119970043D01*
X126930199Y-119976566D01*
X127094818Y-120113236D01*
X127102453Y-120118581D01*
X127287178Y-120226526D01*
X127295588Y-120230555D01*
X127495452Y-120306875D01*
X127504427Y-120309483D01*
X127609935Y-120330949D01*
X127622652Y-120329867D01*
X127626000Y-120320507D01*
X127626000Y-120320243D01*
X128134000Y-120320243D01*
X128137677Y-120332766D01*
X128149813Y-120334606D01*
X128158671Y-120333471D01*
X128167793Y-120331533D01*
X128372716Y-120270052D01*
X128381407Y-120266646D01*
X128573537Y-120172523D01*
X128581545Y-120167749D01*
X128755725Y-120043509D01*
X128762852Y-120037486D01*
X128914398Y-119886466D01*
X128920444Y-119879362D01*
X129045285Y-119705628D01*
X129050100Y-119697614D01*
X129144890Y-119505823D01*
X129148324Y-119497150D01*
X129210522Y-119292432D01*
X129213480Y-119278752D01*
X129214607Y-119278996D01*
X129238397Y-119225228D01*
X129292019Y-119189863D01*
X129356250Y-119189102D01*
X129410695Y-119223188D01*
X129435014Y-119267434D01*
X129451695Y-119325606D01*
X129466572Y-119377489D01*
X129469122Y-119382450D01*
X129469122Y-119382451D01*
X129489415Y-119421936D01*
X129558051Y-119555488D01*
X129682362Y-119712329D01*
X129834769Y-119842038D01*
X129881790Y-119868317D01*
X130004596Y-119936951D01*
X130004598Y-119936952D01*
X130009467Y-119939673D01*
X130014776Y-119941398D01*
X130194498Y-119999794D01*
X130194502Y-119999795D01*
X130199802Y-120001517D01*
X130257190Y-120008360D01*
X130392988Y-120024553D01*
X130392990Y-120024553D01*
X130398525Y-120025213D01*
X130598065Y-120009859D01*
X130603430Y-120008361D01*
X130603436Y-120008360D01*
X130785460Y-119957538D01*
X130785463Y-119957537D01*
X130790824Y-119956040D01*
X130969457Y-119865806D01*
X131127162Y-119742593D01*
X131157053Y-119707964D01*
X131254288Y-119595317D01*
X131254290Y-119595314D01*
X131257931Y-119591096D01*
X131275676Y-119559860D01*
X131354027Y-119421936D01*
X131356784Y-119417083D01*
X131358543Y-119411796D01*
X131358545Y-119411791D01*
X131418196Y-119232472D01*
X131418196Y-119232471D01*
X131419955Y-119227184D01*
X131422590Y-119206330D01*
X131444639Y-119031788D01*
X131445038Y-119028632D01*
X131445438Y-119000000D01*
X131444034Y-118985683D01*
X131934662Y-118985683D01*
X131951408Y-119185111D01*
X131963472Y-119227184D01*
X131991695Y-119325606D01*
X132006572Y-119377489D01*
X132009122Y-119382450D01*
X132009122Y-119382451D01*
X132029415Y-119421936D01*
X132098051Y-119555488D01*
X132222362Y-119712329D01*
X132374769Y-119842038D01*
X132421790Y-119868317D01*
X132544596Y-119936951D01*
X132544598Y-119936952D01*
X132549467Y-119939673D01*
X132554776Y-119941398D01*
X132734498Y-119999794D01*
X132734502Y-119999795D01*
X132739802Y-120001517D01*
X132797190Y-120008360D01*
X132932988Y-120024553D01*
X132932990Y-120024553D01*
X132938525Y-120025213D01*
X133138065Y-120009859D01*
X133143430Y-120008361D01*
X133143436Y-120008360D01*
X133325460Y-119957538D01*
X133325463Y-119957537D01*
X133330824Y-119956040D01*
X133509457Y-119865806D01*
X133667162Y-119742593D01*
X133697053Y-119707964D01*
X133794288Y-119595317D01*
X133794290Y-119595314D01*
X133797931Y-119591096D01*
X133815676Y-119559860D01*
X133894027Y-119421936D01*
X133896784Y-119417083D01*
X133898544Y-119411792D01*
X133898545Y-119411790D01*
X133919829Y-119347808D01*
X133956456Y-119295038D01*
X134015797Y-119270447D01*
X134079014Y-119281842D01*
X134126034Y-119325606D01*
X134142001Y-119383792D01*
X134142001Y-119895002D01*
X134142335Y-119901160D01*
X134147976Y-119953098D01*
X134151257Y-119966900D01*
X134196978Y-120088861D01*
X134204697Y-120102958D01*
X134282226Y-120206406D01*
X134293594Y-120217774D01*
X134397042Y-120295303D01*
X134411139Y-120303022D01*
X134533105Y-120348745D01*
X134546896Y-120352024D01*
X134598843Y-120357667D01*
X134604995Y-120358000D01*
X135229611Y-120358000D01*
X135243397Y-120353952D01*
X135244488Y-120352693D01*
X135246000Y-120345742D01*
X135246000Y-120341610D01*
X135754000Y-120341610D01*
X135758048Y-120355396D01*
X135759307Y-120356487D01*
X135766258Y-120357999D01*
X136395002Y-120357999D01*
X136401160Y-120357665D01*
X136453098Y-120352024D01*
X136466900Y-120348743D01*
X136588861Y-120303022D01*
X136602958Y-120295303D01*
X136706406Y-120217774D01*
X136717774Y-120206406D01*
X136795303Y-120102958D01*
X136803022Y-120088861D01*
X136848745Y-119966895D01*
X136852024Y-119953104D01*
X136857667Y-119901157D01*
X136858000Y-119895005D01*
X136858000Y-119270389D01*
X136853952Y-119256603D01*
X136852693Y-119255512D01*
X136845742Y-119254000D01*
X135770389Y-119254000D01*
X135756603Y-119258048D01*
X135755512Y-119259307D01*
X135754000Y-119266258D01*
X135754000Y-120341610D01*
X135246000Y-120341610D01*
X135246000Y-118729611D01*
X135754000Y-118729611D01*
X135758048Y-118743397D01*
X135759307Y-118744488D01*
X135766258Y-118746000D01*
X136841610Y-118746000D01*
X136855396Y-118741952D01*
X136856487Y-118740693D01*
X136857999Y-118733742D01*
X136857999Y-118104998D01*
X136857665Y-118098840D01*
X136852024Y-118046902D01*
X136848743Y-118033100D01*
X136803022Y-117911139D01*
X136795303Y-117897042D01*
X136717774Y-117793594D01*
X136706406Y-117782226D01*
X136602958Y-117704697D01*
X136588861Y-117696978D01*
X136466895Y-117651255D01*
X136453104Y-117647976D01*
X136401157Y-117642333D01*
X136395005Y-117642000D01*
X135770389Y-117642000D01*
X135756603Y-117646048D01*
X135755512Y-117647307D01*
X135754000Y-117654258D01*
X135754000Y-118729611D01*
X135246000Y-118729611D01*
X135246000Y-117658390D01*
X135241952Y-117644604D01*
X135240693Y-117643513D01*
X135233742Y-117642001D01*
X134604998Y-117642001D01*
X134598840Y-117642335D01*
X134546902Y-117647976D01*
X134533100Y-117651257D01*
X134411139Y-117696978D01*
X134397042Y-117704697D01*
X134293594Y-117782226D01*
X134282226Y-117793594D01*
X134204697Y-117897042D01*
X134196978Y-117911139D01*
X134151255Y-118033105D01*
X134147976Y-118046896D01*
X134142333Y-118098843D01*
X134142000Y-118104995D01*
X134142000Y-118612062D01*
X134123903Y-118673695D01*
X134075357Y-118715760D01*
X134011776Y-118724902D01*
X133953346Y-118698217D01*
X133918866Y-118645012D01*
X133908065Y-118609236D01*
X133903871Y-118601347D01*
X133816727Y-118437455D01*
X133814109Y-118432531D01*
X133687621Y-118277441D01*
X133675427Y-118267353D01*
X133537718Y-118153430D01*
X133537716Y-118153429D01*
X133533418Y-118149873D01*
X133357373Y-118054686D01*
X133166193Y-117995506D01*
X133154709Y-117994299D01*
X132972697Y-117975169D01*
X132972696Y-117975169D01*
X132967159Y-117974587D01*
X132767852Y-117992725D01*
X132575864Y-118049230D01*
X132398508Y-118141950D01*
X132388654Y-118149873D01*
X132270163Y-118245143D01*
X132242539Y-118267353D01*
X132113897Y-118420661D01*
X132017484Y-118596037D01*
X132015801Y-118601343D01*
X132015800Y-118601345D01*
X132011602Y-118614578D01*
X131956970Y-118786799D01*
X131934662Y-118985683D01*
X131444034Y-118985683D01*
X131436105Y-118904817D01*
X131426454Y-118806378D01*
X131426453Y-118806373D01*
X131425909Y-118800825D01*
X131421675Y-118786799D01*
X131369678Y-118614578D01*
X131369677Y-118614577D01*
X131368065Y-118609236D01*
X131363871Y-118601347D01*
X131276727Y-118437455D01*
X131274109Y-118432531D01*
X131147621Y-118277441D01*
X131135427Y-118267353D01*
X130997718Y-118153430D01*
X130997716Y-118153429D01*
X130993418Y-118149873D01*
X130817373Y-118054686D01*
X130626193Y-117995506D01*
X130614709Y-117994299D01*
X130432697Y-117975169D01*
X130432696Y-117975169D01*
X130427159Y-117974587D01*
X130227852Y-117992725D01*
X130035864Y-118049230D01*
X129858508Y-118141950D01*
X129848654Y-118149873D01*
X129730163Y-118245143D01*
X129702539Y-118267353D01*
X129573897Y-118420661D01*
X129477484Y-118596037D01*
X129475801Y-118601342D01*
X129475799Y-118601347D01*
X129432197Y-118738798D01*
X129396311Y-118792074D01*
X129337318Y-118817491D01*
X129273949Y-118806980D01*
X129226322Y-118763877D01*
X129212968Y-118732101D01*
X129171095Y-118565400D01*
X129168090Y-118556574D01*
X129082779Y-118360371D01*
X129078370Y-118352147D01*
X128962153Y-118172504D01*
X128956474Y-118165129D01*
X128812472Y-118006873D01*
X128805662Y-118000523D01*
X128637751Y-117867915D01*
X128629984Y-117862755D01*
X128442681Y-117759358D01*
X128434170Y-117755533D01*
X128232495Y-117684116D01*
X128223476Y-117681733D01*
X128150139Y-117668670D01*
X128138108Y-117669990D01*
X128134000Y-117683160D01*
X128134000Y-120320243D01*
X127626000Y-120320243D01*
X127626000Y-117681376D01*
X127622455Y-117669304D01*
X127609537Y-117667506D01*
X127568835Y-117673735D01*
X127559760Y-117675897D01*
X127356396Y-117742366D01*
X127347798Y-117745980D01*
X127158025Y-117844770D01*
X127150134Y-117849739D01*
X126979035Y-117978204D01*
X126972070Y-117984388D01*
X126824251Y-118139072D01*
X126818382Y-118146319D01*
X126697816Y-118323062D01*
X126693209Y-118331172D01*
X126603130Y-118525232D01*
X126599908Y-118533988D01*
X126544934Y-118732218D01*
X126511024Y-118786774D01*
X126453003Y-118814335D01*
X126389291Y-118806153D01*
X126340117Y-118764824D01*
X126325946Y-118734703D01*
X126289678Y-118614578D01*
X126289677Y-118614577D01*
X126288065Y-118609236D01*
X126283871Y-118601347D01*
X126196727Y-118437455D01*
X126194109Y-118432531D01*
X126067621Y-118277441D01*
X126055427Y-118267353D01*
X125917718Y-118153430D01*
X125917716Y-118153429D01*
X125913418Y-118149873D01*
X125737373Y-118054686D01*
X125546193Y-117995506D01*
X125534709Y-117994299D01*
X125352697Y-117975169D01*
X125352696Y-117975169D01*
X125347159Y-117974587D01*
X125147852Y-117992725D01*
X124955864Y-118049230D01*
X124778508Y-118141950D01*
X124768654Y-118149873D01*
X124650163Y-118245143D01*
X124622539Y-118267353D01*
X124493897Y-118420661D01*
X124397484Y-118596037D01*
X124395801Y-118601343D01*
X124395800Y-118601345D01*
X124391602Y-118614578D01*
X124336970Y-118786799D01*
X124314662Y-118985683D01*
X123824034Y-118985683D01*
X123816105Y-118904817D01*
X123806454Y-118806378D01*
X123806453Y-118806373D01*
X123805909Y-118800825D01*
X123801675Y-118786799D01*
X123749678Y-118614578D01*
X123749677Y-118614577D01*
X123748065Y-118609236D01*
X123743871Y-118601347D01*
X123656727Y-118437455D01*
X123654109Y-118432531D01*
X123527621Y-118277441D01*
X123515427Y-118267353D01*
X123377718Y-118153430D01*
X123377716Y-118153429D01*
X123373418Y-118149873D01*
X123197373Y-118054686D01*
X123006193Y-117995506D01*
X122994709Y-117994299D01*
X122812697Y-117975169D01*
X122812696Y-117975169D01*
X122807159Y-117974587D01*
X122607852Y-117992725D01*
X122415864Y-118049230D01*
X122238508Y-118141950D01*
X122228654Y-118149873D01*
X122110163Y-118245143D01*
X122082539Y-118267353D01*
X121953897Y-118420661D01*
X121857484Y-118596037D01*
X121855801Y-118601343D01*
X121855800Y-118601345D01*
X121851602Y-118614578D01*
X121796970Y-118786799D01*
X121774662Y-118985683D01*
X121284034Y-118985683D01*
X121276105Y-118904817D01*
X121266454Y-118806378D01*
X121266453Y-118806373D01*
X121265909Y-118800825D01*
X121261675Y-118786799D01*
X121209678Y-118614578D01*
X121209677Y-118614577D01*
X121208065Y-118609236D01*
X121203871Y-118601347D01*
X121116727Y-118437455D01*
X121114109Y-118432531D01*
X120987621Y-118277441D01*
X120975427Y-118267353D01*
X120837718Y-118153430D01*
X120837716Y-118153429D01*
X120833418Y-118149873D01*
X120657373Y-118054686D01*
X120466193Y-117995506D01*
X120454709Y-117994299D01*
X120272697Y-117975169D01*
X120272696Y-117975169D01*
X120267159Y-117974587D01*
X120067852Y-117992725D01*
X119875864Y-118049230D01*
X119698508Y-118141950D01*
X119688654Y-118149873D01*
X119570163Y-118245143D01*
X119542539Y-118267353D01*
X119413897Y-118420661D01*
X119317484Y-118596037D01*
X119315801Y-118601343D01*
X119315800Y-118601345D01*
X119311602Y-118614578D01*
X119256970Y-118786799D01*
X119234662Y-118985683D01*
X118744034Y-118985683D01*
X118736105Y-118904817D01*
X118726454Y-118806378D01*
X118726453Y-118806373D01*
X118725909Y-118800825D01*
X118721675Y-118786799D01*
X118669678Y-118614578D01*
X118669677Y-118614577D01*
X118668065Y-118609236D01*
X118663871Y-118601347D01*
X118576727Y-118437455D01*
X118574109Y-118432531D01*
X118447621Y-118277441D01*
X118435427Y-118267353D01*
X118297718Y-118153430D01*
X118297716Y-118153429D01*
X118293418Y-118149873D01*
X118117373Y-118054686D01*
X117926193Y-117995506D01*
X117914709Y-117994299D01*
X117732697Y-117975169D01*
X117732696Y-117975169D01*
X117727159Y-117974587D01*
X117527852Y-117992725D01*
X117335864Y-118049230D01*
X117158508Y-118141950D01*
X117148654Y-118149873D01*
X117030163Y-118245143D01*
X117002539Y-118267353D01*
X116873897Y-118420661D01*
X116777484Y-118596037D01*
X116775801Y-118601342D01*
X116775799Y-118601347D01*
X116732197Y-118738798D01*
X116696311Y-118792074D01*
X116637318Y-118817491D01*
X116573949Y-118806980D01*
X116526322Y-118763877D01*
X116512968Y-118732101D01*
X116471095Y-118565400D01*
X116468090Y-118556574D01*
X116382779Y-118360371D01*
X116378370Y-118352147D01*
X116262153Y-118172504D01*
X116256474Y-118165129D01*
X116112472Y-118006873D01*
X116105662Y-118000523D01*
X115937751Y-117867915D01*
X115929984Y-117862755D01*
X115742681Y-117759358D01*
X115734170Y-117755533D01*
X115532495Y-117684116D01*
X115523476Y-117681733D01*
X115450139Y-117668670D01*
X115438108Y-117669990D01*
X115434000Y-117683160D01*
X115434000Y-120320243D01*
X114926000Y-120320243D01*
X114926000Y-117681376D01*
X114922455Y-117669304D01*
X114909537Y-117667506D01*
X114868835Y-117673735D01*
X114859760Y-117675897D01*
X114656396Y-117742366D01*
X114647798Y-117745980D01*
X114458025Y-117844770D01*
X114450134Y-117849739D01*
X114279035Y-117978204D01*
X114272070Y-117984388D01*
X114124251Y-118139072D01*
X114118382Y-118146319D01*
X113997816Y-118323062D01*
X113993209Y-118331172D01*
X113903130Y-118525232D01*
X113899908Y-118533988D01*
X113844934Y-118732218D01*
X113811024Y-118786774D01*
X113753003Y-118814335D01*
X113689291Y-118806153D01*
X113640117Y-118764824D01*
X113625946Y-118734703D01*
X113589678Y-118614578D01*
X113589677Y-118614577D01*
X113588065Y-118609236D01*
X113583871Y-118601347D01*
X113496727Y-118437455D01*
X113494109Y-118432531D01*
X113367621Y-118277441D01*
X113355427Y-118267353D01*
X113217718Y-118153430D01*
X113217716Y-118153429D01*
X113213418Y-118149873D01*
X113037373Y-118054686D01*
X112846193Y-117995506D01*
X112834709Y-117994299D01*
X112652697Y-117975169D01*
X112652696Y-117975169D01*
X112647159Y-117974587D01*
X112447852Y-117992725D01*
X112255864Y-118049230D01*
X112078508Y-118141950D01*
X112068654Y-118149873D01*
X111950163Y-118245143D01*
X111922539Y-118267353D01*
X111793897Y-118420661D01*
X111697484Y-118596037D01*
X111695801Y-118601343D01*
X111695800Y-118601345D01*
X111691602Y-118614578D01*
X111636970Y-118786799D01*
X111614662Y-118985683D01*
X111124034Y-118985683D01*
X111116105Y-118904817D01*
X111106454Y-118806378D01*
X111106453Y-118806373D01*
X111105909Y-118800825D01*
X111101675Y-118786799D01*
X111049678Y-118614578D01*
X111049677Y-118614577D01*
X111048065Y-118609236D01*
X111043871Y-118601347D01*
X110956727Y-118437455D01*
X110954109Y-118432531D01*
X110827621Y-118277441D01*
X110815427Y-118267353D01*
X110677718Y-118153430D01*
X110677716Y-118153429D01*
X110673418Y-118149873D01*
X110497373Y-118054686D01*
X110306193Y-117995506D01*
X110294709Y-117994299D01*
X110112697Y-117975169D01*
X110112696Y-117975169D01*
X110107159Y-117974587D01*
X109907852Y-117992725D01*
X109715864Y-118049230D01*
X109538508Y-118141950D01*
X109528654Y-118149873D01*
X109410163Y-118245143D01*
X109382539Y-118267353D01*
X109253897Y-118420661D01*
X109157484Y-118596037D01*
X109155801Y-118601342D01*
X109155799Y-118601347D01*
X109112197Y-118738798D01*
X109076311Y-118792074D01*
X109017318Y-118817491D01*
X108953949Y-118806980D01*
X108906322Y-118763877D01*
X108892968Y-118732101D01*
X108851095Y-118565400D01*
X108848090Y-118556574D01*
X108762779Y-118360371D01*
X108758370Y-118352147D01*
X108642153Y-118172504D01*
X108636474Y-118165129D01*
X108492472Y-118006873D01*
X108485662Y-118000523D01*
X108317751Y-117867915D01*
X108309984Y-117862755D01*
X108122681Y-117759358D01*
X108114170Y-117755533D01*
X107912495Y-117684116D01*
X107903476Y-117681733D01*
X107830139Y-117668670D01*
X107818108Y-117669990D01*
X107814000Y-117683160D01*
X107814000Y-120320243D01*
X107306000Y-120320243D01*
X107306000Y-117681376D01*
X107302455Y-117669304D01*
X107289537Y-117667506D01*
X107248835Y-117673735D01*
X107239760Y-117675897D01*
X107036396Y-117742366D01*
X107027798Y-117745980D01*
X106838025Y-117844770D01*
X106830134Y-117849739D01*
X106659035Y-117978204D01*
X106652070Y-117984388D01*
X106504251Y-118139072D01*
X106498382Y-118146319D01*
X106377816Y-118323062D01*
X106373209Y-118331172D01*
X106283130Y-118525232D01*
X106279908Y-118533988D01*
X106224934Y-118732218D01*
X106191024Y-118786774D01*
X106133003Y-118814335D01*
X106069291Y-118806153D01*
X106020117Y-118764824D01*
X106005946Y-118734703D01*
X105969678Y-118614578D01*
X105969677Y-118614577D01*
X105968065Y-118609236D01*
X105963871Y-118601347D01*
X105876727Y-118437455D01*
X105874109Y-118432531D01*
X105747621Y-118277441D01*
X105735427Y-118267353D01*
X105597718Y-118153430D01*
X105597716Y-118153429D01*
X105593418Y-118149873D01*
X105417373Y-118054686D01*
X105226193Y-117995506D01*
X105214709Y-117994299D01*
X105032697Y-117975169D01*
X105032696Y-117975169D01*
X105027159Y-117974587D01*
X104827852Y-117992725D01*
X104635864Y-118049230D01*
X104458508Y-118141950D01*
X104448654Y-118149873D01*
X104330163Y-118245143D01*
X104302539Y-118267353D01*
X104173897Y-118420661D01*
X104077484Y-118596037D01*
X104075801Y-118601343D01*
X104075800Y-118601345D01*
X104071602Y-118614578D01*
X104016970Y-118786799D01*
X103994662Y-118985683D01*
X103504034Y-118985683D01*
X103496105Y-118904817D01*
X103486454Y-118806378D01*
X103486453Y-118806373D01*
X103485909Y-118800825D01*
X103481675Y-118786799D01*
X103429678Y-118614578D01*
X103429677Y-118614577D01*
X103428065Y-118609236D01*
X103423871Y-118601347D01*
X103336727Y-118437455D01*
X103334109Y-118432531D01*
X103207621Y-118277441D01*
X103195427Y-118267353D01*
X103057718Y-118153430D01*
X103057716Y-118153429D01*
X103053418Y-118149873D01*
X102877373Y-118054686D01*
X102686193Y-117995506D01*
X102674709Y-117994299D01*
X102492697Y-117975169D01*
X102492696Y-117975169D01*
X102487159Y-117974587D01*
X102287852Y-117992725D01*
X102095864Y-118049230D01*
X101918508Y-118141950D01*
X101908654Y-118149873D01*
X101790163Y-118245143D01*
X101762539Y-118267353D01*
X101633897Y-118420661D01*
X101537484Y-118596037D01*
X101535801Y-118601343D01*
X101535800Y-118601345D01*
X101531602Y-118614578D01*
X101476970Y-118786799D01*
X101454662Y-118985683D01*
X100964034Y-118985683D01*
X100956105Y-118904817D01*
X100946454Y-118806378D01*
X100946453Y-118806373D01*
X100945909Y-118800825D01*
X100941675Y-118786799D01*
X100889678Y-118614578D01*
X100889677Y-118614577D01*
X100888065Y-118609236D01*
X100883871Y-118601347D01*
X100796727Y-118437455D01*
X100794109Y-118432531D01*
X100667621Y-118277441D01*
X100655427Y-118267353D01*
X100517718Y-118153430D01*
X100517716Y-118153429D01*
X100513418Y-118149873D01*
X100337373Y-118054686D01*
X100146193Y-117995506D01*
X100134709Y-117994299D01*
X99952697Y-117975169D01*
X99952696Y-117975169D01*
X99947159Y-117974587D01*
X99747852Y-117992725D01*
X99555864Y-118049230D01*
X99378508Y-118141950D01*
X99368654Y-118149873D01*
X99250163Y-118245143D01*
X99222539Y-118267353D01*
X99093897Y-118420661D01*
X98997484Y-118596037D01*
X98995801Y-118601343D01*
X98995800Y-118601345D01*
X98991602Y-118614578D01*
X98936970Y-118786799D01*
X98914662Y-118985683D01*
X98424034Y-118985683D01*
X98416105Y-118904817D01*
X98406454Y-118806378D01*
X98406453Y-118806373D01*
X98405909Y-118800825D01*
X98401675Y-118786799D01*
X98349678Y-118614578D01*
X98349677Y-118614577D01*
X98348065Y-118609236D01*
X98343871Y-118601347D01*
X98256727Y-118437455D01*
X98254109Y-118432531D01*
X98127621Y-118277441D01*
X98115427Y-118267353D01*
X97977718Y-118153430D01*
X97977716Y-118153429D01*
X97973418Y-118149873D01*
X97797373Y-118054686D01*
X97606193Y-117995506D01*
X97594709Y-117994299D01*
X97412697Y-117975169D01*
X97412696Y-117975169D01*
X97407159Y-117974587D01*
X97207852Y-117992725D01*
X97015864Y-118049230D01*
X96838508Y-118141950D01*
X96828654Y-118149873D01*
X96710163Y-118245143D01*
X96682539Y-118267353D01*
X96553897Y-118420661D01*
X96457484Y-118596037D01*
X96455801Y-118601343D01*
X96455800Y-118601345D01*
X96451602Y-118614578D01*
X96396970Y-118786799D01*
X96374662Y-118985683D01*
X95431500Y-118985683D01*
X95431500Y-116800000D01*
X116424577Y-116800000D01*
X116444184Y-116948930D01*
X116447042Y-116955831D01*
X116447043Y-116955833D01*
X116458194Y-116982754D01*
X116501669Y-117087711D01*
X116506218Y-117093640D01*
X116506219Y-117093641D01*
X116556227Y-117158813D01*
X116593114Y-117206886D01*
X116712288Y-117298331D01*
X116719194Y-117301191D01*
X116719193Y-117301191D01*
X116844167Y-117352957D01*
X116844169Y-117352958D01*
X116851070Y-117355816D01*
X117000000Y-117375423D01*
X117148930Y-117355816D01*
X117155831Y-117352958D01*
X117155833Y-117352957D01*
X117280807Y-117301191D01*
X117280806Y-117301191D01*
X117287712Y-117298331D01*
X117406886Y-117206886D01*
X117443773Y-117158813D01*
X117493781Y-117093641D01*
X117493782Y-117093640D01*
X117498331Y-117087711D01*
X117541806Y-116982754D01*
X117552957Y-116955833D01*
X117552958Y-116955831D01*
X117555816Y-116948930D01*
X117575423Y-116800000D01*
X117924577Y-116800000D01*
X117944184Y-116948930D01*
X117947042Y-116955831D01*
X117947043Y-116955833D01*
X117958194Y-116982754D01*
X118001669Y-117087711D01*
X118006218Y-117093640D01*
X118006219Y-117093641D01*
X118056227Y-117158813D01*
X118093114Y-117206886D01*
X118212288Y-117298331D01*
X118219194Y-117301191D01*
X118219193Y-117301191D01*
X118344167Y-117352957D01*
X118344169Y-117352958D01*
X118351070Y-117355816D01*
X118500000Y-117375423D01*
X118648930Y-117355816D01*
X118655831Y-117352958D01*
X118655833Y-117352957D01*
X118780807Y-117301191D01*
X118780806Y-117301191D01*
X118787712Y-117298331D01*
X118906886Y-117206886D01*
X118943773Y-117158813D01*
X118993781Y-117093641D01*
X118993782Y-117093640D01*
X118998331Y-117087711D01*
X119041806Y-116982754D01*
X119052957Y-116955833D01*
X119052958Y-116955831D01*
X119055816Y-116948930D01*
X119075423Y-116800000D01*
X119061445Y-116693823D01*
X137194391Y-116693823D01*
X137195443Y-116701868D01*
X137195443Y-116701870D01*
X137207307Y-116792594D01*
X137212980Y-116835979D01*
X137216252Y-116843415D01*
X137262680Y-116948930D01*
X137270720Y-116967203D01*
X137362970Y-117076948D01*
X137482313Y-117156390D01*
X137490064Y-117158811D01*
X137490067Y-117158813D01*
X137554474Y-117178934D01*
X137619157Y-117199142D01*
X137627273Y-117199291D01*
X137627274Y-117199291D01*
X137701941Y-117200660D01*
X137762499Y-117201770D01*
X137772139Y-117199142D01*
X137792405Y-117193617D01*
X137900817Y-117164060D01*
X137920640Y-117151889D01*
X137940106Y-117139937D01*
X138022991Y-117089045D01*
X138119200Y-116982754D01*
X138181710Y-116853733D01*
X138205496Y-116712354D01*
X138205647Y-116700000D01*
X138205022Y-116695635D01*
X138186475Y-116566123D01*
X138186474Y-116566120D01*
X138185323Y-116558082D01*
X138161806Y-116506359D01*
X138129345Y-116434963D01*
X138129343Y-116434960D01*
X138125984Y-116427572D01*
X138032400Y-116318963D01*
X137993132Y-116293511D01*
X137918909Y-116245401D01*
X137918906Y-116245399D01*
X137912095Y-116240985D01*
X137830964Y-116216722D01*
X137782524Y-116202235D01*
X137782523Y-116202235D01*
X137774739Y-116199907D01*
X137766618Y-116199857D01*
X137766615Y-116199857D01*
X137705146Y-116199482D01*
X137631376Y-116199031D01*
X137493529Y-116238428D01*
X137479875Y-116247043D01*
X137379148Y-116310596D01*
X137379145Y-116310598D01*
X137372280Y-116314930D01*
X137366905Y-116321016D01*
X137366904Y-116321017D01*
X137282753Y-116416300D01*
X137282751Y-116416303D01*
X137277377Y-116422388D01*
X137216447Y-116552163D01*
X137194391Y-116693823D01*
X119061445Y-116693823D01*
X119055816Y-116651070D01*
X118998331Y-116512289D01*
X118938998Y-116434963D01*
X118911434Y-116399041D01*
X118906886Y-116393114D01*
X118900959Y-116388566D01*
X118793642Y-116306219D01*
X118793641Y-116306218D01*
X118787712Y-116301669D01*
X118743702Y-116283440D01*
X118655833Y-116247043D01*
X118655831Y-116247042D01*
X118648930Y-116244184D01*
X118500000Y-116224577D01*
X118351070Y-116244184D01*
X118344169Y-116247042D01*
X118344167Y-116247043D01*
X118219196Y-116298808D01*
X118212289Y-116301669D01*
X118206360Y-116306218D01*
X118206359Y-116306219D01*
X118187074Y-116321017D01*
X118093114Y-116393114D01*
X118088566Y-116399041D01*
X118061003Y-116434963D01*
X118001669Y-116512289D01*
X117944184Y-116651070D01*
X117924577Y-116800000D01*
X117575423Y-116800000D01*
X117555816Y-116651070D01*
X117498331Y-116512289D01*
X117438998Y-116434963D01*
X117411434Y-116399041D01*
X117406886Y-116393114D01*
X117400959Y-116388566D01*
X117293642Y-116306219D01*
X117293641Y-116306218D01*
X117287712Y-116301669D01*
X117243702Y-116283440D01*
X117155833Y-116247043D01*
X117155831Y-116247042D01*
X117148930Y-116244184D01*
X117000000Y-116224577D01*
X116851070Y-116244184D01*
X116844169Y-116247042D01*
X116844167Y-116247043D01*
X116719196Y-116298808D01*
X116712289Y-116301669D01*
X116706360Y-116306218D01*
X116706359Y-116306219D01*
X116687074Y-116321017D01*
X116593114Y-116393114D01*
X116588566Y-116399041D01*
X116561003Y-116434963D01*
X116501669Y-116512289D01*
X116444184Y-116651070D01*
X116424577Y-116800000D01*
X95431500Y-116800000D01*
X95431500Y-116133825D01*
X95434444Y-116108085D01*
X95434709Y-116106942D01*
X95434709Y-116106939D01*
X95436167Y-116100650D01*
X95436168Y-116100000D01*
X95434735Y-116093718D01*
X95434333Y-116090123D01*
X95433978Y-116068509D01*
X95441302Y-115975447D01*
X95447030Y-115902678D01*
X95449828Y-115885013D01*
X95455584Y-115861040D01*
X95479122Y-115762997D01*
X95493938Y-115701284D01*
X95496362Y-115693823D01*
X95994391Y-115693823D01*
X95995443Y-115701868D01*
X95995443Y-115701870D01*
X96009354Y-115808250D01*
X96012980Y-115835979D01*
X96070720Y-115967203D01*
X96162970Y-116076948D01*
X96282313Y-116156390D01*
X96290064Y-116158811D01*
X96290067Y-116158813D01*
X96354474Y-116178934D01*
X96419157Y-116199142D01*
X96427273Y-116199291D01*
X96427274Y-116199291D01*
X96501941Y-116200660D01*
X96562499Y-116201770D01*
X96572139Y-116199142D01*
X96592405Y-116193617D01*
X96700817Y-116164060D01*
X96720640Y-116151889D01*
X96771297Y-116120785D01*
X96822991Y-116089045D01*
X96919200Y-115982754D01*
X96950455Y-115918243D01*
X96978170Y-115861040D01*
X96978170Y-115861039D01*
X96981710Y-115853733D01*
X97005496Y-115712354D01*
X97005647Y-115700000D01*
X97005022Y-115695635D01*
X96986475Y-115566123D01*
X96986474Y-115566120D01*
X96985323Y-115558082D01*
X96956081Y-115493767D01*
X96929345Y-115434963D01*
X96929343Y-115434960D01*
X96925984Y-115427572D01*
X96832400Y-115318963D01*
X96793132Y-115293511D01*
X96718909Y-115245401D01*
X96718906Y-115245399D01*
X96712095Y-115240985D01*
X96630964Y-115216722D01*
X96582524Y-115202235D01*
X96582523Y-115202235D01*
X96574739Y-115199907D01*
X96566618Y-115199857D01*
X96566615Y-115199857D01*
X96505146Y-115199482D01*
X96431376Y-115199031D01*
X96293529Y-115238428D01*
X96254750Y-115262895D01*
X96179148Y-115310596D01*
X96179145Y-115310598D01*
X96172280Y-115314930D01*
X96166905Y-115321016D01*
X96166904Y-115321017D01*
X96082753Y-115416300D01*
X96082751Y-115416303D01*
X96077377Y-115422388D01*
X96016447Y-115552163D01*
X95994391Y-115693823D01*
X95496362Y-115693823D01*
X95499466Y-115684271D01*
X95571774Y-115509705D01*
X95579895Y-115493767D01*
X95678624Y-115332654D01*
X95689139Y-115318181D01*
X95692244Y-115314546D01*
X95811856Y-115174499D01*
X95824499Y-115161856D01*
X95968183Y-115039137D01*
X95982654Y-115028624D01*
X96143767Y-114929895D01*
X96159705Y-114921774D01*
X96334271Y-114849466D01*
X96351284Y-114843938D01*
X96454615Y-114819130D01*
X96521178Y-114803150D01*
X96547790Y-114800000D01*
X136483511Y-114800000D01*
X136505751Y-114802190D01*
G37*
%TD.AperFunction*%
%TD*%
M02*
