%TF.GenerationSoftware,KiCad,Pcbnew,6.0.6-1.fc36*%
%TF.CreationDate,2022-07-25T13:06:58-04:00*%
%TF.ProjectId,ext-con-breakout-board,6578742d-636f-46e2-9d62-7265616b6f75,v0.5*%
%TF.SameCoordinates,Original*%
%TF.FileFunction,Copper,L4,Bot*%
%TF.FilePolarity,Positive*%
%FSLAX46Y46*%
G04 Gerber Fmt 4.6, Leading zero omitted, Abs format (unit mm)*
G04 Created by KiCad (PCBNEW 6.0.6-1.fc36) date 2022-07-25 13:06:58*
%MOMM*%
%LPD*%
G01*
G04 APERTURE LIST*
%TA.AperFunction,ComponentPad*%
%ADD10R,1.700000X1.700000*%
%TD*%
%TA.AperFunction,ComponentPad*%
%ADD11O,1.700000X1.700000*%
%TD*%
%TA.AperFunction,ComponentPad*%
%ADD12C,2.800000*%
%TD*%
%TA.AperFunction,SMDPad,CuDef*%
%ADD13C,0.500000*%
%TD*%
%TA.AperFunction,ViaPad*%
%ADD14C,0.800000*%
%TD*%
G04 APERTURE END LIST*
D10*
%TO.P,J2,1,Pin_1*%
%TO.N,GND*%
X130500000Y-119000000D03*
D11*
%TO.P,J2,2,Pin_2*%
%TO.N,/UART1_RXD*%
X127960000Y-119000000D03*
%TO.P,J2,3,Pin_3*%
%TO.N,/UART1_TXD*%
X125420000Y-119000000D03*
%TO.P,J2,4,Pin_4*%
%TO.N,GND*%
X122880000Y-119000000D03*
%TO.P,J2,5,Pin_5*%
%TO.N,/SPI_SS1*%
X120340000Y-119000000D03*
%TO.P,J2,6,Pin_6*%
%TO.N,/SPI_SCK*%
X117800000Y-119000000D03*
%TO.P,J2,7,Pin_7*%
%TO.N,/SPI_MOSI*%
X115260000Y-119000000D03*
%TO.P,J2,8,Pin_8*%
%TO.N,/SPI_MISO*%
X112720000Y-119000000D03*
%TO.P,J2,9,Pin_9*%
%TO.N,GND*%
X110180000Y-119000000D03*
%TO.P,J2,10,Pin_10*%
%TO.N,Net-(C1-Pad1)*%
X107640000Y-119000000D03*
%TO.P,J2,11,Pin_11*%
%TO.N,Net-(C2-Pad1)*%
X105100000Y-119000000D03*
%TO.P,J2,12,Pin_12*%
%TO.N,GND*%
X102560000Y-119000000D03*
%TO.P,J2,13,Pin_13*%
%TO.N,/GPIO4_IO11*%
X100020000Y-119000000D03*
%TO.P,J2,14,Pin_14*%
%TO.N,/GPIO4_IO28*%
X97480000Y-119000000D03*
%TO.P,J2,15,Pin_15*%
%TO.N,/I2C4_SCL*%
X94940000Y-119000000D03*
%TO.P,J2,16,Pin_16*%
%TO.N,/I2C4_SDA*%
X92400000Y-119000000D03*
%TD*%
D12*
%TO.P,H1,1,1*%
%TO.N,GND*%
X133671000Y-119000000D03*
%TD*%
D13*
%TO.P,FID1,*%
%TO.N,*%
X91500000Y-115700000D03*
%TD*%
%TO.P,FID2,*%
%TO.N,*%
X132700000Y-116700000D03*
%TD*%
D14*
%TO.N,+1V8*%
X112000000Y-116800000D03*
%TO.N,+3V3*%
X113500000Y-116800000D03*
%TD*%
%TA.AperFunction,Conductor*%
%TO.N,GND*%
G36*
X131505760Y-114802190D02*
G01*
X131705920Y-114842002D01*
X131720303Y-114845855D01*
X131931431Y-114917521D01*
X131945183Y-114923217D01*
X132092854Y-114996039D01*
X132145132Y-115021819D01*
X132158046Y-115029275D01*
X132343404Y-115153124D01*
X132355234Y-115162201D01*
X132505077Y-115293607D01*
X132510652Y-115298838D01*
X132518103Y-115306315D01*
X132524917Y-115317198D01*
X132535776Y-115324049D01*
X132538852Y-115327136D01*
X132551812Y-115337491D01*
X135512138Y-118297818D01*
X135521986Y-118310187D01*
X135525530Y-118313743D01*
X135532342Y-118324624D01*
X135543201Y-118331475D01*
X135552077Y-118340382D01*
X135557033Y-118345683D01*
X135644108Y-118444975D01*
X135687784Y-118494779D01*
X135696861Y-118506609D01*
X135820708Y-118691964D01*
X135828164Y-118704878D01*
X135917380Y-118885793D01*
X135926762Y-118904819D01*
X135932461Y-118918577D01*
X136004126Y-119129702D01*
X136007979Y-119144085D01*
X136038004Y-119295038D01*
X136051469Y-119362738D01*
X136053414Y-119377519D01*
X136056007Y-119417083D01*
X136066483Y-119576946D01*
X136066727Y-119584600D01*
X136066709Y-119594588D01*
X136063832Y-119607100D01*
X136066666Y-119619623D01*
X136066658Y-119623979D01*
X136068500Y-119640466D01*
X136068500Y-120066438D01*
X136066718Y-120082140D01*
X136066709Y-120087163D01*
X136063832Y-120099675D01*
X136066664Y-120112194D01*
X136066652Y-120119191D01*
X136066301Y-120127932D01*
X136053130Y-120295303D01*
X136052971Y-120297318D01*
X136050173Y-120314982D01*
X136039845Y-120358000D01*
X136006062Y-120498716D01*
X136000534Y-120515729D01*
X135928226Y-120690295D01*
X135920105Y-120706233D01*
X135821376Y-120867346D01*
X135810861Y-120881819D01*
X135688147Y-121025498D01*
X135675501Y-121038144D01*
X135531819Y-121160861D01*
X135517346Y-121171376D01*
X135356233Y-121270105D01*
X135340295Y-121278226D01*
X135165729Y-121350534D01*
X135148716Y-121356062D01*
X135087003Y-121370878D01*
X134964982Y-121400173D01*
X134947322Y-121402970D01*
X134887317Y-121407693D01*
X134777099Y-121416367D01*
X134767956Y-121416718D01*
X134762836Y-121416709D01*
X134750325Y-121413832D01*
X134737803Y-121416666D01*
X134733446Y-121416658D01*
X134716958Y-121418500D01*
X91783562Y-121418500D01*
X91767860Y-121416718D01*
X91762837Y-121416709D01*
X91750325Y-121413832D01*
X91737806Y-121416664D01*
X91730809Y-121416652D01*
X91722068Y-121416301D01*
X91634602Y-121409418D01*
X91552678Y-121402970D01*
X91535018Y-121400173D01*
X91412997Y-121370878D01*
X91351284Y-121356062D01*
X91334271Y-121350534D01*
X91159705Y-121278226D01*
X91143767Y-121270105D01*
X90982654Y-121171376D01*
X90968181Y-121160861D01*
X90824499Y-121038144D01*
X90811853Y-121025498D01*
X90689139Y-120881819D01*
X90678624Y-120867346D01*
X90579895Y-120706233D01*
X90571774Y-120690295D01*
X90499466Y-120515729D01*
X90493938Y-120498716D01*
X90455813Y-120339914D01*
X90449828Y-120314984D01*
X90447029Y-120297317D01*
X90433994Y-120131686D01*
X90434392Y-120109700D01*
X90434711Y-120106932D01*
X90436167Y-120100650D01*
X90436168Y-120100000D01*
X90434355Y-120092052D01*
X90431500Y-120066699D01*
X90431500Y-118985683D01*
X91374662Y-118985683D01*
X91391408Y-119185111D01*
X91403472Y-119227184D01*
X91431695Y-119325606D01*
X91446572Y-119377489D01*
X91449122Y-119382450D01*
X91449122Y-119382451D01*
X91469415Y-119421936D01*
X91538051Y-119555488D01*
X91662362Y-119712329D01*
X91814769Y-119842038D01*
X91861790Y-119868317D01*
X91984596Y-119936951D01*
X91984598Y-119936952D01*
X91989467Y-119939673D01*
X91994776Y-119941398D01*
X92174498Y-119999794D01*
X92174502Y-119999795D01*
X92179802Y-120001517D01*
X92237190Y-120008360D01*
X92372988Y-120024553D01*
X92372990Y-120024553D01*
X92378525Y-120025213D01*
X92578065Y-120009859D01*
X92583430Y-120008361D01*
X92583436Y-120008360D01*
X92765460Y-119957538D01*
X92765463Y-119957537D01*
X92770824Y-119956040D01*
X92949457Y-119865806D01*
X93107162Y-119742593D01*
X93137053Y-119707964D01*
X93234288Y-119595317D01*
X93234290Y-119595314D01*
X93237931Y-119591096D01*
X93241622Y-119584600D01*
X93334027Y-119421936D01*
X93336784Y-119417083D01*
X93338543Y-119411796D01*
X93338545Y-119411791D01*
X93398196Y-119232472D01*
X93398196Y-119232471D01*
X93399955Y-119227184D01*
X93402590Y-119206330D01*
X93424639Y-119031788D01*
X93425038Y-119028632D01*
X93425438Y-119000000D01*
X93424034Y-118985683D01*
X93914662Y-118985683D01*
X93931408Y-119185111D01*
X93943472Y-119227184D01*
X93971695Y-119325606D01*
X93986572Y-119377489D01*
X93989122Y-119382450D01*
X93989122Y-119382451D01*
X94009415Y-119421936D01*
X94078051Y-119555488D01*
X94202362Y-119712329D01*
X94354769Y-119842038D01*
X94401790Y-119868317D01*
X94524596Y-119936951D01*
X94524598Y-119936952D01*
X94529467Y-119939673D01*
X94534776Y-119941398D01*
X94714498Y-119999794D01*
X94714502Y-119999795D01*
X94719802Y-120001517D01*
X94777190Y-120008360D01*
X94912988Y-120024553D01*
X94912990Y-120024553D01*
X94918525Y-120025213D01*
X95118065Y-120009859D01*
X95123430Y-120008361D01*
X95123436Y-120008360D01*
X95305460Y-119957538D01*
X95305463Y-119957537D01*
X95310824Y-119956040D01*
X95489457Y-119865806D01*
X95647162Y-119742593D01*
X95677053Y-119707964D01*
X95774288Y-119595317D01*
X95774290Y-119595314D01*
X95777931Y-119591096D01*
X95781622Y-119584600D01*
X95874027Y-119421936D01*
X95876784Y-119417083D01*
X95878543Y-119411796D01*
X95878545Y-119411791D01*
X95938196Y-119232472D01*
X95938196Y-119232471D01*
X95939955Y-119227184D01*
X95942590Y-119206330D01*
X95964639Y-119031788D01*
X95965038Y-119028632D01*
X95965438Y-119000000D01*
X95964034Y-118985683D01*
X96454662Y-118985683D01*
X96471408Y-119185111D01*
X96483472Y-119227184D01*
X96511695Y-119325606D01*
X96526572Y-119377489D01*
X96529122Y-119382450D01*
X96529122Y-119382451D01*
X96549415Y-119421936D01*
X96618051Y-119555488D01*
X96742362Y-119712329D01*
X96894769Y-119842038D01*
X96941790Y-119868317D01*
X97064596Y-119936951D01*
X97064598Y-119936952D01*
X97069467Y-119939673D01*
X97074776Y-119941398D01*
X97254498Y-119999794D01*
X97254502Y-119999795D01*
X97259802Y-120001517D01*
X97317190Y-120008360D01*
X97452988Y-120024553D01*
X97452990Y-120024553D01*
X97458525Y-120025213D01*
X97658065Y-120009859D01*
X97663430Y-120008361D01*
X97663436Y-120008360D01*
X97845460Y-119957538D01*
X97845463Y-119957537D01*
X97850824Y-119956040D01*
X98029457Y-119865806D01*
X98187162Y-119742593D01*
X98217053Y-119707964D01*
X98314288Y-119595317D01*
X98314290Y-119595314D01*
X98317931Y-119591096D01*
X98321622Y-119584600D01*
X98414027Y-119421936D01*
X98416784Y-119417083D01*
X98418543Y-119411796D01*
X98418545Y-119411791D01*
X98478196Y-119232472D01*
X98478196Y-119232471D01*
X98479955Y-119227184D01*
X98482590Y-119206330D01*
X98504639Y-119031788D01*
X98505038Y-119028632D01*
X98505438Y-119000000D01*
X98504034Y-118985683D01*
X98994662Y-118985683D01*
X99011408Y-119185111D01*
X99023472Y-119227184D01*
X99051695Y-119325606D01*
X99066572Y-119377489D01*
X99069122Y-119382450D01*
X99069122Y-119382451D01*
X99089415Y-119421936D01*
X99158051Y-119555488D01*
X99282362Y-119712329D01*
X99434769Y-119842038D01*
X99481790Y-119868317D01*
X99604596Y-119936951D01*
X99604598Y-119936952D01*
X99609467Y-119939673D01*
X99614776Y-119941398D01*
X99794498Y-119999794D01*
X99794502Y-119999795D01*
X99799802Y-120001517D01*
X99857190Y-120008360D01*
X99992988Y-120024553D01*
X99992990Y-120024553D01*
X99998525Y-120025213D01*
X100198065Y-120009859D01*
X100203430Y-120008361D01*
X100203436Y-120008360D01*
X100385460Y-119957538D01*
X100385463Y-119957537D01*
X100390824Y-119956040D01*
X100569457Y-119865806D01*
X100727162Y-119742593D01*
X100757053Y-119707964D01*
X100854288Y-119595317D01*
X100854290Y-119595314D01*
X100857931Y-119591096D01*
X100861622Y-119584600D01*
X100954027Y-119421936D01*
X100956784Y-119417083D01*
X100958543Y-119411796D01*
X100958545Y-119411791D01*
X101009338Y-119259100D01*
X101045964Y-119206330D01*
X101105306Y-119181739D01*
X101168522Y-119193134D01*
X101215542Y-119236898D01*
X101228721Y-119270021D01*
X101258673Y-119402930D01*
X101261461Y-119411823D01*
X101341954Y-119610055D01*
X101346157Y-119618377D01*
X101457951Y-119800807D01*
X101463451Y-119808322D01*
X101603538Y-119970043D01*
X101610199Y-119976566D01*
X101774818Y-120113236D01*
X101782453Y-120118581D01*
X101967178Y-120226526D01*
X101975588Y-120230555D01*
X102175452Y-120306875D01*
X102184427Y-120309483D01*
X102289935Y-120330949D01*
X102302652Y-120329867D01*
X102306000Y-120320507D01*
X102306000Y-120320243D01*
X102814000Y-120320243D01*
X102817677Y-120332766D01*
X102829813Y-120334606D01*
X102838671Y-120333471D01*
X102847793Y-120331533D01*
X103052716Y-120270052D01*
X103061407Y-120266646D01*
X103253537Y-120172523D01*
X103261545Y-120167749D01*
X103435725Y-120043509D01*
X103442852Y-120037486D01*
X103594398Y-119886466D01*
X103600444Y-119879362D01*
X103725285Y-119705628D01*
X103730100Y-119697614D01*
X103824890Y-119505823D01*
X103828324Y-119497150D01*
X103890522Y-119292432D01*
X103893480Y-119278752D01*
X103894607Y-119278996D01*
X103918397Y-119225228D01*
X103972019Y-119189863D01*
X104036250Y-119189102D01*
X104090695Y-119223188D01*
X104115014Y-119267434D01*
X104131695Y-119325606D01*
X104146572Y-119377489D01*
X104149122Y-119382450D01*
X104149122Y-119382451D01*
X104169415Y-119421936D01*
X104238051Y-119555488D01*
X104362362Y-119712329D01*
X104514769Y-119842038D01*
X104561790Y-119868317D01*
X104684596Y-119936951D01*
X104684598Y-119936952D01*
X104689467Y-119939673D01*
X104694776Y-119941398D01*
X104874498Y-119999794D01*
X104874502Y-119999795D01*
X104879802Y-120001517D01*
X104937190Y-120008360D01*
X105072988Y-120024553D01*
X105072990Y-120024553D01*
X105078525Y-120025213D01*
X105278065Y-120009859D01*
X105283430Y-120008361D01*
X105283436Y-120008360D01*
X105465460Y-119957538D01*
X105465463Y-119957537D01*
X105470824Y-119956040D01*
X105649457Y-119865806D01*
X105807162Y-119742593D01*
X105837053Y-119707964D01*
X105934288Y-119595317D01*
X105934290Y-119595314D01*
X105937931Y-119591096D01*
X105941622Y-119584600D01*
X106034027Y-119421936D01*
X106036784Y-119417083D01*
X106038543Y-119411796D01*
X106038545Y-119411791D01*
X106098196Y-119232472D01*
X106098196Y-119232471D01*
X106099955Y-119227184D01*
X106102590Y-119206330D01*
X106124639Y-119031788D01*
X106125038Y-119028632D01*
X106125438Y-119000000D01*
X106124034Y-118985683D01*
X106614662Y-118985683D01*
X106631408Y-119185111D01*
X106643472Y-119227184D01*
X106671695Y-119325606D01*
X106686572Y-119377489D01*
X106689122Y-119382450D01*
X106689122Y-119382451D01*
X106709415Y-119421936D01*
X106778051Y-119555488D01*
X106902362Y-119712329D01*
X107054769Y-119842038D01*
X107101790Y-119868317D01*
X107224596Y-119936951D01*
X107224598Y-119936952D01*
X107229467Y-119939673D01*
X107234776Y-119941398D01*
X107414498Y-119999794D01*
X107414502Y-119999795D01*
X107419802Y-120001517D01*
X107477190Y-120008360D01*
X107612988Y-120024553D01*
X107612990Y-120024553D01*
X107618525Y-120025213D01*
X107818065Y-120009859D01*
X107823430Y-120008361D01*
X107823436Y-120008360D01*
X108005460Y-119957538D01*
X108005463Y-119957537D01*
X108010824Y-119956040D01*
X108189457Y-119865806D01*
X108347162Y-119742593D01*
X108377053Y-119707964D01*
X108474288Y-119595317D01*
X108474290Y-119595314D01*
X108477931Y-119591096D01*
X108481622Y-119584600D01*
X108574027Y-119421936D01*
X108576784Y-119417083D01*
X108578543Y-119411796D01*
X108578545Y-119411791D01*
X108629338Y-119259100D01*
X108665964Y-119206330D01*
X108725306Y-119181739D01*
X108788522Y-119193134D01*
X108835542Y-119236898D01*
X108848721Y-119270021D01*
X108878673Y-119402930D01*
X108881461Y-119411823D01*
X108961954Y-119610055D01*
X108966157Y-119618377D01*
X109077951Y-119800807D01*
X109083451Y-119808322D01*
X109223538Y-119970043D01*
X109230199Y-119976566D01*
X109394818Y-120113236D01*
X109402453Y-120118581D01*
X109587178Y-120226526D01*
X109595588Y-120230555D01*
X109795452Y-120306875D01*
X109804427Y-120309483D01*
X109909935Y-120330949D01*
X109922652Y-120329867D01*
X109926000Y-120320507D01*
X109926000Y-120320243D01*
X110434000Y-120320243D01*
X110437677Y-120332766D01*
X110449813Y-120334606D01*
X110458671Y-120333471D01*
X110467793Y-120331533D01*
X110672716Y-120270052D01*
X110681407Y-120266646D01*
X110873537Y-120172523D01*
X110881545Y-120167749D01*
X111055725Y-120043509D01*
X111062852Y-120037486D01*
X111214398Y-119886466D01*
X111220444Y-119879362D01*
X111345285Y-119705628D01*
X111350100Y-119697614D01*
X111444890Y-119505823D01*
X111448324Y-119497150D01*
X111510522Y-119292432D01*
X111513480Y-119278752D01*
X111514607Y-119278996D01*
X111538397Y-119225228D01*
X111592019Y-119189863D01*
X111656250Y-119189102D01*
X111710695Y-119223188D01*
X111735014Y-119267434D01*
X111751695Y-119325606D01*
X111766572Y-119377489D01*
X111769122Y-119382450D01*
X111769122Y-119382451D01*
X111789415Y-119421936D01*
X111858051Y-119555488D01*
X111982362Y-119712329D01*
X112134769Y-119842038D01*
X112181790Y-119868317D01*
X112304596Y-119936951D01*
X112304598Y-119936952D01*
X112309467Y-119939673D01*
X112314776Y-119941398D01*
X112494498Y-119999794D01*
X112494502Y-119999795D01*
X112499802Y-120001517D01*
X112557190Y-120008360D01*
X112692988Y-120024553D01*
X112692990Y-120024553D01*
X112698525Y-120025213D01*
X112898065Y-120009859D01*
X112903430Y-120008361D01*
X112903436Y-120008360D01*
X113085460Y-119957538D01*
X113085463Y-119957537D01*
X113090824Y-119956040D01*
X113269457Y-119865806D01*
X113427162Y-119742593D01*
X113457053Y-119707964D01*
X113554288Y-119595317D01*
X113554290Y-119595314D01*
X113557931Y-119591096D01*
X113561622Y-119584600D01*
X113654027Y-119421936D01*
X113656784Y-119417083D01*
X113658543Y-119411796D01*
X113658545Y-119411791D01*
X113718196Y-119232472D01*
X113718196Y-119232471D01*
X113719955Y-119227184D01*
X113722590Y-119206330D01*
X113744639Y-119031788D01*
X113745038Y-119028632D01*
X113745438Y-119000000D01*
X113744034Y-118985683D01*
X114234662Y-118985683D01*
X114251408Y-119185111D01*
X114263472Y-119227184D01*
X114291695Y-119325606D01*
X114306572Y-119377489D01*
X114309122Y-119382450D01*
X114309122Y-119382451D01*
X114329415Y-119421936D01*
X114398051Y-119555488D01*
X114522362Y-119712329D01*
X114674769Y-119842038D01*
X114721790Y-119868317D01*
X114844596Y-119936951D01*
X114844598Y-119936952D01*
X114849467Y-119939673D01*
X114854776Y-119941398D01*
X115034498Y-119999794D01*
X115034502Y-119999795D01*
X115039802Y-120001517D01*
X115097190Y-120008360D01*
X115232988Y-120024553D01*
X115232990Y-120024553D01*
X115238525Y-120025213D01*
X115438065Y-120009859D01*
X115443430Y-120008361D01*
X115443436Y-120008360D01*
X115625460Y-119957538D01*
X115625463Y-119957537D01*
X115630824Y-119956040D01*
X115809457Y-119865806D01*
X115967162Y-119742593D01*
X115997053Y-119707964D01*
X116094288Y-119595317D01*
X116094290Y-119595314D01*
X116097931Y-119591096D01*
X116101622Y-119584600D01*
X116194027Y-119421936D01*
X116196784Y-119417083D01*
X116198543Y-119411796D01*
X116198545Y-119411791D01*
X116258196Y-119232472D01*
X116258196Y-119232471D01*
X116259955Y-119227184D01*
X116262590Y-119206330D01*
X116284639Y-119031788D01*
X116285038Y-119028632D01*
X116285438Y-119000000D01*
X116284034Y-118985683D01*
X116774662Y-118985683D01*
X116791408Y-119185111D01*
X116803472Y-119227184D01*
X116831695Y-119325606D01*
X116846572Y-119377489D01*
X116849122Y-119382450D01*
X116849122Y-119382451D01*
X116869415Y-119421936D01*
X116938051Y-119555488D01*
X117062362Y-119712329D01*
X117214769Y-119842038D01*
X117261790Y-119868317D01*
X117384596Y-119936951D01*
X117384598Y-119936952D01*
X117389467Y-119939673D01*
X117394776Y-119941398D01*
X117574498Y-119999794D01*
X117574502Y-119999795D01*
X117579802Y-120001517D01*
X117637190Y-120008360D01*
X117772988Y-120024553D01*
X117772990Y-120024553D01*
X117778525Y-120025213D01*
X117978065Y-120009859D01*
X117983430Y-120008361D01*
X117983436Y-120008360D01*
X118165460Y-119957538D01*
X118165463Y-119957537D01*
X118170824Y-119956040D01*
X118349457Y-119865806D01*
X118507162Y-119742593D01*
X118537053Y-119707964D01*
X118634288Y-119595317D01*
X118634290Y-119595314D01*
X118637931Y-119591096D01*
X118641622Y-119584600D01*
X118734027Y-119421936D01*
X118736784Y-119417083D01*
X118738543Y-119411796D01*
X118738545Y-119411791D01*
X118798196Y-119232472D01*
X118798196Y-119232471D01*
X118799955Y-119227184D01*
X118802590Y-119206330D01*
X118824639Y-119031788D01*
X118825038Y-119028632D01*
X118825438Y-119000000D01*
X118824034Y-118985683D01*
X119314662Y-118985683D01*
X119331408Y-119185111D01*
X119343472Y-119227184D01*
X119371695Y-119325606D01*
X119386572Y-119377489D01*
X119389122Y-119382450D01*
X119389122Y-119382451D01*
X119409415Y-119421936D01*
X119478051Y-119555488D01*
X119602362Y-119712329D01*
X119754769Y-119842038D01*
X119801790Y-119868317D01*
X119924596Y-119936951D01*
X119924598Y-119936952D01*
X119929467Y-119939673D01*
X119934776Y-119941398D01*
X120114498Y-119999794D01*
X120114502Y-119999795D01*
X120119802Y-120001517D01*
X120177190Y-120008360D01*
X120312988Y-120024553D01*
X120312990Y-120024553D01*
X120318525Y-120025213D01*
X120518065Y-120009859D01*
X120523430Y-120008361D01*
X120523436Y-120008360D01*
X120705460Y-119957538D01*
X120705463Y-119957537D01*
X120710824Y-119956040D01*
X120889457Y-119865806D01*
X121047162Y-119742593D01*
X121077053Y-119707964D01*
X121174288Y-119595317D01*
X121174290Y-119595314D01*
X121177931Y-119591096D01*
X121181622Y-119584600D01*
X121274027Y-119421936D01*
X121276784Y-119417083D01*
X121278543Y-119411796D01*
X121278545Y-119411791D01*
X121329338Y-119259100D01*
X121365964Y-119206330D01*
X121425306Y-119181739D01*
X121488522Y-119193134D01*
X121535542Y-119236898D01*
X121548721Y-119270021D01*
X121578673Y-119402930D01*
X121581461Y-119411823D01*
X121661954Y-119610055D01*
X121666157Y-119618377D01*
X121777951Y-119800807D01*
X121783451Y-119808322D01*
X121923538Y-119970043D01*
X121930199Y-119976566D01*
X122094818Y-120113236D01*
X122102453Y-120118581D01*
X122287178Y-120226526D01*
X122295588Y-120230555D01*
X122495452Y-120306875D01*
X122504427Y-120309483D01*
X122609935Y-120330949D01*
X122622652Y-120329867D01*
X122626000Y-120320507D01*
X122626000Y-120320243D01*
X123134000Y-120320243D01*
X123137677Y-120332766D01*
X123149813Y-120334606D01*
X123158671Y-120333471D01*
X123167793Y-120331533D01*
X123372716Y-120270052D01*
X123381407Y-120266646D01*
X123573537Y-120172523D01*
X123581545Y-120167749D01*
X123755725Y-120043509D01*
X123762852Y-120037486D01*
X123914398Y-119886466D01*
X123920444Y-119879362D01*
X124045285Y-119705628D01*
X124050100Y-119697614D01*
X124144890Y-119505823D01*
X124148324Y-119497150D01*
X124210522Y-119292432D01*
X124213480Y-119278752D01*
X124214607Y-119278996D01*
X124238397Y-119225228D01*
X124292019Y-119189863D01*
X124356250Y-119189102D01*
X124410695Y-119223188D01*
X124435014Y-119267434D01*
X124451695Y-119325606D01*
X124466572Y-119377489D01*
X124469122Y-119382450D01*
X124469122Y-119382451D01*
X124489415Y-119421936D01*
X124558051Y-119555488D01*
X124682362Y-119712329D01*
X124834769Y-119842038D01*
X124881790Y-119868317D01*
X125004596Y-119936951D01*
X125004598Y-119936952D01*
X125009467Y-119939673D01*
X125014776Y-119941398D01*
X125194498Y-119999794D01*
X125194502Y-119999795D01*
X125199802Y-120001517D01*
X125257190Y-120008360D01*
X125392988Y-120024553D01*
X125392990Y-120024553D01*
X125398525Y-120025213D01*
X125598065Y-120009859D01*
X125603430Y-120008361D01*
X125603436Y-120008360D01*
X125785460Y-119957538D01*
X125785463Y-119957537D01*
X125790824Y-119956040D01*
X125969457Y-119865806D01*
X126127162Y-119742593D01*
X126157053Y-119707964D01*
X126254288Y-119595317D01*
X126254290Y-119595314D01*
X126257931Y-119591096D01*
X126261622Y-119584600D01*
X126354027Y-119421936D01*
X126356784Y-119417083D01*
X126358543Y-119411796D01*
X126358545Y-119411791D01*
X126418196Y-119232472D01*
X126418196Y-119232471D01*
X126419955Y-119227184D01*
X126422590Y-119206330D01*
X126444639Y-119031788D01*
X126445038Y-119028632D01*
X126445438Y-119000000D01*
X126444034Y-118985683D01*
X126934662Y-118985683D01*
X126951408Y-119185111D01*
X126963472Y-119227184D01*
X126991695Y-119325606D01*
X127006572Y-119377489D01*
X127009122Y-119382450D01*
X127009122Y-119382451D01*
X127029415Y-119421936D01*
X127098051Y-119555488D01*
X127222362Y-119712329D01*
X127374769Y-119842038D01*
X127421790Y-119868317D01*
X127544596Y-119936951D01*
X127544598Y-119936952D01*
X127549467Y-119939673D01*
X127554776Y-119941398D01*
X127734498Y-119999794D01*
X127734502Y-119999795D01*
X127739802Y-120001517D01*
X127797190Y-120008360D01*
X127932988Y-120024553D01*
X127932990Y-120024553D01*
X127938525Y-120025213D01*
X128138065Y-120009859D01*
X128143430Y-120008361D01*
X128143436Y-120008360D01*
X128325460Y-119957538D01*
X128325463Y-119957537D01*
X128330824Y-119956040D01*
X128509457Y-119865806D01*
X128667162Y-119742593D01*
X128697053Y-119707964D01*
X128794288Y-119595317D01*
X128794290Y-119595314D01*
X128797931Y-119591096D01*
X128801622Y-119584600D01*
X128894027Y-119421936D01*
X128896784Y-119417083D01*
X128898544Y-119411792D01*
X128898545Y-119411790D01*
X128919829Y-119347808D01*
X128956456Y-119295038D01*
X129015797Y-119270447D01*
X129079014Y-119281842D01*
X129126034Y-119325606D01*
X129142001Y-119383792D01*
X129142001Y-119895002D01*
X129142335Y-119901160D01*
X129147976Y-119953098D01*
X129151257Y-119966900D01*
X129196978Y-120088861D01*
X129204697Y-120102958D01*
X129282226Y-120206406D01*
X129293594Y-120217774D01*
X129397042Y-120295303D01*
X129411139Y-120303022D01*
X129533105Y-120348745D01*
X129546896Y-120352024D01*
X129598843Y-120357667D01*
X129604995Y-120358000D01*
X130229611Y-120358000D01*
X130243397Y-120353952D01*
X130244488Y-120352693D01*
X130246000Y-120345742D01*
X130246000Y-120341610D01*
X130754000Y-120341610D01*
X130758048Y-120355396D01*
X130759307Y-120356487D01*
X130766258Y-120357999D01*
X131395002Y-120357999D01*
X131401160Y-120357665D01*
X131453098Y-120352024D01*
X131466900Y-120348743D01*
X131588861Y-120303022D01*
X131602958Y-120295303D01*
X131706406Y-120217774D01*
X131717774Y-120206406D01*
X131795303Y-120102958D01*
X131803022Y-120088861D01*
X131848745Y-119966895D01*
X131852024Y-119953104D01*
X131857667Y-119901157D01*
X131858000Y-119895005D01*
X131858000Y-119270389D01*
X131853952Y-119256603D01*
X131852693Y-119255512D01*
X131845742Y-119254000D01*
X130770389Y-119254000D01*
X130756603Y-119258048D01*
X130755512Y-119259307D01*
X130754000Y-119266258D01*
X130754000Y-120341610D01*
X130246000Y-120341610D01*
X130246000Y-118729611D01*
X130754000Y-118729611D01*
X130758048Y-118743397D01*
X130759307Y-118744488D01*
X130766258Y-118746000D01*
X131841610Y-118746000D01*
X131855396Y-118741952D01*
X131856487Y-118740693D01*
X131857999Y-118733742D01*
X131857999Y-118104998D01*
X131857665Y-118098840D01*
X131852024Y-118046902D01*
X131848743Y-118033100D01*
X131803022Y-117911139D01*
X131795303Y-117897042D01*
X131717774Y-117793594D01*
X131706406Y-117782226D01*
X131602958Y-117704697D01*
X131588861Y-117696978D01*
X131466895Y-117651255D01*
X131453104Y-117647976D01*
X131401157Y-117642333D01*
X131395005Y-117642000D01*
X130770389Y-117642000D01*
X130756603Y-117646048D01*
X130755512Y-117647307D01*
X130754000Y-117654258D01*
X130754000Y-118729611D01*
X130246000Y-118729611D01*
X130246000Y-117658390D01*
X130241952Y-117644604D01*
X130240693Y-117643513D01*
X130233742Y-117642001D01*
X129604998Y-117642001D01*
X129598840Y-117642335D01*
X129546902Y-117647976D01*
X129533100Y-117651257D01*
X129411139Y-117696978D01*
X129397042Y-117704697D01*
X129293594Y-117782226D01*
X129282226Y-117793594D01*
X129204697Y-117897042D01*
X129196978Y-117911139D01*
X129151255Y-118033105D01*
X129147976Y-118046896D01*
X129142333Y-118098843D01*
X129142000Y-118104995D01*
X129142000Y-118612062D01*
X129123903Y-118673695D01*
X129075357Y-118715760D01*
X129011776Y-118724902D01*
X128953346Y-118698217D01*
X128918866Y-118645012D01*
X128908065Y-118609236D01*
X128903871Y-118601347D01*
X128847207Y-118494779D01*
X128814109Y-118432531D01*
X128687621Y-118277441D01*
X128675427Y-118267353D01*
X128537718Y-118153430D01*
X128537716Y-118153429D01*
X128533418Y-118149873D01*
X128424172Y-118090804D01*
X128362278Y-118057338D01*
X128362277Y-118057338D01*
X128357373Y-118054686D01*
X128166193Y-117995506D01*
X128154709Y-117994299D01*
X127972697Y-117975169D01*
X127972696Y-117975169D01*
X127967159Y-117974587D01*
X127767852Y-117992725D01*
X127575864Y-118049230D01*
X127398508Y-118141950D01*
X127242539Y-118267353D01*
X127113897Y-118420661D01*
X127017484Y-118596037D01*
X127015801Y-118601343D01*
X127015800Y-118601345D01*
X126985070Y-118698217D01*
X126956970Y-118786799D01*
X126934662Y-118985683D01*
X126444034Y-118985683D01*
X126434240Y-118885793D01*
X126426454Y-118806378D01*
X126426453Y-118806373D01*
X126425909Y-118800825D01*
X126421675Y-118786799D01*
X126369678Y-118614578D01*
X126369677Y-118614577D01*
X126368065Y-118609236D01*
X126363871Y-118601347D01*
X126307207Y-118494779D01*
X126274109Y-118432531D01*
X126147621Y-118277441D01*
X126135427Y-118267353D01*
X125997718Y-118153430D01*
X125997716Y-118153429D01*
X125993418Y-118149873D01*
X125884172Y-118090804D01*
X125822278Y-118057338D01*
X125822277Y-118057338D01*
X125817373Y-118054686D01*
X125626193Y-117995506D01*
X125614709Y-117994299D01*
X125432697Y-117975169D01*
X125432696Y-117975169D01*
X125427159Y-117974587D01*
X125227852Y-117992725D01*
X125035864Y-118049230D01*
X124858508Y-118141950D01*
X124702539Y-118267353D01*
X124573897Y-118420661D01*
X124477484Y-118596037D01*
X124475801Y-118601342D01*
X124475799Y-118601347D01*
X124432197Y-118738798D01*
X124396311Y-118792074D01*
X124337318Y-118817491D01*
X124273949Y-118806980D01*
X124226322Y-118763877D01*
X124212968Y-118732101D01*
X124171095Y-118565400D01*
X124168090Y-118556574D01*
X124082779Y-118360371D01*
X124078370Y-118352147D01*
X123962153Y-118172504D01*
X123956474Y-118165129D01*
X123812472Y-118006873D01*
X123805662Y-118000523D01*
X123637751Y-117867915D01*
X123629984Y-117862755D01*
X123442681Y-117759358D01*
X123434170Y-117755533D01*
X123232495Y-117684116D01*
X123223476Y-117681733D01*
X123150139Y-117668670D01*
X123138108Y-117669990D01*
X123134000Y-117683160D01*
X123134000Y-120320243D01*
X122626000Y-120320243D01*
X122626000Y-117681376D01*
X122622455Y-117669304D01*
X122609537Y-117667506D01*
X122568835Y-117673735D01*
X122559760Y-117675897D01*
X122356396Y-117742366D01*
X122347798Y-117745980D01*
X122158025Y-117844770D01*
X122150134Y-117849739D01*
X121979035Y-117978204D01*
X121972070Y-117984388D01*
X121824251Y-118139072D01*
X121818382Y-118146319D01*
X121697816Y-118323062D01*
X121693209Y-118331172D01*
X121603130Y-118525232D01*
X121599908Y-118533988D01*
X121544934Y-118732218D01*
X121511024Y-118786774D01*
X121453003Y-118814335D01*
X121389291Y-118806153D01*
X121340117Y-118764824D01*
X121325946Y-118734703D01*
X121289678Y-118614578D01*
X121289677Y-118614577D01*
X121288065Y-118609236D01*
X121283871Y-118601347D01*
X121227207Y-118494779D01*
X121194109Y-118432531D01*
X121067621Y-118277441D01*
X121055427Y-118267353D01*
X120917718Y-118153430D01*
X120917716Y-118153429D01*
X120913418Y-118149873D01*
X120804172Y-118090804D01*
X120742278Y-118057338D01*
X120742277Y-118057338D01*
X120737373Y-118054686D01*
X120546193Y-117995506D01*
X120534709Y-117994299D01*
X120352697Y-117975169D01*
X120352696Y-117975169D01*
X120347159Y-117974587D01*
X120147852Y-117992725D01*
X119955864Y-118049230D01*
X119778508Y-118141950D01*
X119622539Y-118267353D01*
X119493897Y-118420661D01*
X119397484Y-118596037D01*
X119395801Y-118601343D01*
X119395800Y-118601345D01*
X119365070Y-118698217D01*
X119336970Y-118786799D01*
X119314662Y-118985683D01*
X118824034Y-118985683D01*
X118814240Y-118885793D01*
X118806454Y-118806378D01*
X118806453Y-118806373D01*
X118805909Y-118800825D01*
X118801675Y-118786799D01*
X118749678Y-118614578D01*
X118749677Y-118614577D01*
X118748065Y-118609236D01*
X118743871Y-118601347D01*
X118687207Y-118494779D01*
X118654109Y-118432531D01*
X118527621Y-118277441D01*
X118515427Y-118267353D01*
X118377718Y-118153430D01*
X118377716Y-118153429D01*
X118373418Y-118149873D01*
X118264172Y-118090804D01*
X118202278Y-118057338D01*
X118202277Y-118057338D01*
X118197373Y-118054686D01*
X118006193Y-117995506D01*
X117994709Y-117994299D01*
X117812697Y-117975169D01*
X117812696Y-117975169D01*
X117807159Y-117974587D01*
X117607852Y-117992725D01*
X117415864Y-118049230D01*
X117238508Y-118141950D01*
X117082539Y-118267353D01*
X116953897Y-118420661D01*
X116857484Y-118596037D01*
X116855801Y-118601343D01*
X116855800Y-118601345D01*
X116825070Y-118698217D01*
X116796970Y-118786799D01*
X116774662Y-118985683D01*
X116284034Y-118985683D01*
X116274240Y-118885793D01*
X116266454Y-118806378D01*
X116266453Y-118806373D01*
X116265909Y-118800825D01*
X116261675Y-118786799D01*
X116209678Y-118614578D01*
X116209677Y-118614577D01*
X116208065Y-118609236D01*
X116203871Y-118601347D01*
X116147207Y-118494779D01*
X116114109Y-118432531D01*
X115987621Y-118277441D01*
X115975427Y-118267353D01*
X115837718Y-118153430D01*
X115837716Y-118153429D01*
X115833418Y-118149873D01*
X115724172Y-118090804D01*
X115662278Y-118057338D01*
X115662277Y-118057338D01*
X115657373Y-118054686D01*
X115466193Y-117995506D01*
X115454709Y-117994299D01*
X115272697Y-117975169D01*
X115272696Y-117975169D01*
X115267159Y-117974587D01*
X115067852Y-117992725D01*
X114875864Y-118049230D01*
X114698508Y-118141950D01*
X114542539Y-118267353D01*
X114413897Y-118420661D01*
X114317484Y-118596037D01*
X114315801Y-118601343D01*
X114315800Y-118601345D01*
X114285070Y-118698217D01*
X114256970Y-118786799D01*
X114234662Y-118985683D01*
X113744034Y-118985683D01*
X113734240Y-118885793D01*
X113726454Y-118806378D01*
X113726453Y-118806373D01*
X113725909Y-118800825D01*
X113721675Y-118786799D01*
X113669678Y-118614578D01*
X113669677Y-118614577D01*
X113668065Y-118609236D01*
X113663871Y-118601347D01*
X113607207Y-118494779D01*
X113574109Y-118432531D01*
X113447621Y-118277441D01*
X113435427Y-118267353D01*
X113297718Y-118153430D01*
X113297716Y-118153429D01*
X113293418Y-118149873D01*
X113184172Y-118090804D01*
X113122278Y-118057338D01*
X113122277Y-118057338D01*
X113117373Y-118054686D01*
X112926193Y-117995506D01*
X112914709Y-117994299D01*
X112732697Y-117975169D01*
X112732696Y-117975169D01*
X112727159Y-117974587D01*
X112527852Y-117992725D01*
X112335864Y-118049230D01*
X112158508Y-118141950D01*
X112002539Y-118267353D01*
X111873897Y-118420661D01*
X111777484Y-118596037D01*
X111775801Y-118601342D01*
X111775799Y-118601347D01*
X111732197Y-118738798D01*
X111696311Y-118792074D01*
X111637318Y-118817491D01*
X111573949Y-118806980D01*
X111526322Y-118763877D01*
X111512968Y-118732101D01*
X111471095Y-118565400D01*
X111468090Y-118556574D01*
X111382779Y-118360371D01*
X111378370Y-118352147D01*
X111262153Y-118172504D01*
X111256474Y-118165129D01*
X111112472Y-118006873D01*
X111105662Y-118000523D01*
X110937751Y-117867915D01*
X110929984Y-117862755D01*
X110742681Y-117759358D01*
X110734170Y-117755533D01*
X110532495Y-117684116D01*
X110523476Y-117681733D01*
X110450139Y-117668670D01*
X110438108Y-117669990D01*
X110434000Y-117683160D01*
X110434000Y-120320243D01*
X109926000Y-120320243D01*
X109926000Y-117681376D01*
X109922455Y-117669304D01*
X109909537Y-117667506D01*
X109868835Y-117673735D01*
X109859760Y-117675897D01*
X109656396Y-117742366D01*
X109647798Y-117745980D01*
X109458025Y-117844770D01*
X109450134Y-117849739D01*
X109279035Y-117978204D01*
X109272070Y-117984388D01*
X109124251Y-118139072D01*
X109118382Y-118146319D01*
X108997816Y-118323062D01*
X108993209Y-118331172D01*
X108903130Y-118525232D01*
X108899908Y-118533988D01*
X108844934Y-118732218D01*
X108811024Y-118786774D01*
X108753003Y-118814335D01*
X108689291Y-118806153D01*
X108640117Y-118764824D01*
X108625946Y-118734703D01*
X108589678Y-118614578D01*
X108589677Y-118614577D01*
X108588065Y-118609236D01*
X108583871Y-118601347D01*
X108527207Y-118494779D01*
X108494109Y-118432531D01*
X108367621Y-118277441D01*
X108355427Y-118267353D01*
X108217718Y-118153430D01*
X108217716Y-118153429D01*
X108213418Y-118149873D01*
X108104172Y-118090804D01*
X108042278Y-118057338D01*
X108042277Y-118057338D01*
X108037373Y-118054686D01*
X107846193Y-117995506D01*
X107834709Y-117994299D01*
X107652697Y-117975169D01*
X107652696Y-117975169D01*
X107647159Y-117974587D01*
X107447852Y-117992725D01*
X107255864Y-118049230D01*
X107078508Y-118141950D01*
X106922539Y-118267353D01*
X106793897Y-118420661D01*
X106697484Y-118596037D01*
X106695801Y-118601343D01*
X106695800Y-118601345D01*
X106665070Y-118698217D01*
X106636970Y-118786799D01*
X106614662Y-118985683D01*
X106124034Y-118985683D01*
X106114240Y-118885793D01*
X106106454Y-118806378D01*
X106106453Y-118806373D01*
X106105909Y-118800825D01*
X106101675Y-118786799D01*
X106049678Y-118614578D01*
X106049677Y-118614577D01*
X106048065Y-118609236D01*
X106043871Y-118601347D01*
X105987207Y-118494779D01*
X105954109Y-118432531D01*
X105827621Y-118277441D01*
X105815427Y-118267353D01*
X105677718Y-118153430D01*
X105677716Y-118153429D01*
X105673418Y-118149873D01*
X105564172Y-118090804D01*
X105502278Y-118057338D01*
X105502277Y-118057338D01*
X105497373Y-118054686D01*
X105306193Y-117995506D01*
X105294709Y-117994299D01*
X105112697Y-117975169D01*
X105112696Y-117975169D01*
X105107159Y-117974587D01*
X104907852Y-117992725D01*
X104715864Y-118049230D01*
X104538508Y-118141950D01*
X104382539Y-118267353D01*
X104253897Y-118420661D01*
X104157484Y-118596037D01*
X104155801Y-118601342D01*
X104155799Y-118601347D01*
X104112197Y-118738798D01*
X104076311Y-118792074D01*
X104017318Y-118817491D01*
X103953949Y-118806980D01*
X103906322Y-118763877D01*
X103892968Y-118732101D01*
X103851095Y-118565400D01*
X103848090Y-118556574D01*
X103762779Y-118360371D01*
X103758370Y-118352147D01*
X103642153Y-118172504D01*
X103636474Y-118165129D01*
X103492472Y-118006873D01*
X103485662Y-118000523D01*
X103317751Y-117867915D01*
X103309984Y-117862755D01*
X103122681Y-117759358D01*
X103114170Y-117755533D01*
X102912495Y-117684116D01*
X102903476Y-117681733D01*
X102830139Y-117668670D01*
X102818108Y-117669990D01*
X102814000Y-117683160D01*
X102814000Y-120320243D01*
X102306000Y-120320243D01*
X102306000Y-117681376D01*
X102302455Y-117669304D01*
X102289537Y-117667506D01*
X102248835Y-117673735D01*
X102239760Y-117675897D01*
X102036396Y-117742366D01*
X102027798Y-117745980D01*
X101838025Y-117844770D01*
X101830134Y-117849739D01*
X101659035Y-117978204D01*
X101652070Y-117984388D01*
X101504251Y-118139072D01*
X101498382Y-118146319D01*
X101377816Y-118323062D01*
X101373209Y-118331172D01*
X101283130Y-118525232D01*
X101279908Y-118533988D01*
X101224934Y-118732218D01*
X101191024Y-118786774D01*
X101133003Y-118814335D01*
X101069291Y-118806153D01*
X101020117Y-118764824D01*
X101005946Y-118734703D01*
X100969678Y-118614578D01*
X100969677Y-118614577D01*
X100968065Y-118609236D01*
X100963871Y-118601347D01*
X100907207Y-118494779D01*
X100874109Y-118432531D01*
X100747621Y-118277441D01*
X100735427Y-118267353D01*
X100597718Y-118153430D01*
X100597716Y-118153429D01*
X100593418Y-118149873D01*
X100484172Y-118090804D01*
X100422278Y-118057338D01*
X100422277Y-118057338D01*
X100417373Y-118054686D01*
X100226193Y-117995506D01*
X100214709Y-117994299D01*
X100032697Y-117975169D01*
X100032696Y-117975169D01*
X100027159Y-117974587D01*
X99827852Y-117992725D01*
X99635864Y-118049230D01*
X99458508Y-118141950D01*
X99302539Y-118267353D01*
X99173897Y-118420661D01*
X99077484Y-118596037D01*
X99075801Y-118601343D01*
X99075800Y-118601345D01*
X99045070Y-118698217D01*
X99016970Y-118786799D01*
X98994662Y-118985683D01*
X98504034Y-118985683D01*
X98494240Y-118885793D01*
X98486454Y-118806378D01*
X98486453Y-118806373D01*
X98485909Y-118800825D01*
X98481675Y-118786799D01*
X98429678Y-118614578D01*
X98429677Y-118614577D01*
X98428065Y-118609236D01*
X98423871Y-118601347D01*
X98367207Y-118494779D01*
X98334109Y-118432531D01*
X98207621Y-118277441D01*
X98195427Y-118267353D01*
X98057718Y-118153430D01*
X98057716Y-118153429D01*
X98053418Y-118149873D01*
X97944172Y-118090804D01*
X97882278Y-118057338D01*
X97882277Y-118057338D01*
X97877373Y-118054686D01*
X97686193Y-117995506D01*
X97674709Y-117994299D01*
X97492697Y-117975169D01*
X97492696Y-117975169D01*
X97487159Y-117974587D01*
X97287852Y-117992725D01*
X97095864Y-118049230D01*
X96918508Y-118141950D01*
X96762539Y-118267353D01*
X96633897Y-118420661D01*
X96537484Y-118596037D01*
X96535801Y-118601343D01*
X96535800Y-118601345D01*
X96505070Y-118698217D01*
X96476970Y-118786799D01*
X96454662Y-118985683D01*
X95964034Y-118985683D01*
X95954240Y-118885793D01*
X95946454Y-118806378D01*
X95946453Y-118806373D01*
X95945909Y-118800825D01*
X95941675Y-118786799D01*
X95889678Y-118614578D01*
X95889677Y-118614577D01*
X95888065Y-118609236D01*
X95883871Y-118601347D01*
X95827207Y-118494779D01*
X95794109Y-118432531D01*
X95667621Y-118277441D01*
X95655427Y-118267353D01*
X95517718Y-118153430D01*
X95517716Y-118153429D01*
X95513418Y-118149873D01*
X95404172Y-118090804D01*
X95342278Y-118057338D01*
X95342277Y-118057338D01*
X95337373Y-118054686D01*
X95146193Y-117995506D01*
X95134709Y-117994299D01*
X94952697Y-117975169D01*
X94952696Y-117975169D01*
X94947159Y-117974587D01*
X94747852Y-117992725D01*
X94555864Y-118049230D01*
X94378508Y-118141950D01*
X94222539Y-118267353D01*
X94093897Y-118420661D01*
X93997484Y-118596037D01*
X93995801Y-118601343D01*
X93995800Y-118601345D01*
X93965070Y-118698217D01*
X93936970Y-118786799D01*
X93914662Y-118985683D01*
X93424034Y-118985683D01*
X93414240Y-118885793D01*
X93406454Y-118806378D01*
X93406453Y-118806373D01*
X93405909Y-118800825D01*
X93401675Y-118786799D01*
X93349678Y-118614578D01*
X93349677Y-118614577D01*
X93348065Y-118609236D01*
X93343871Y-118601347D01*
X93287207Y-118494779D01*
X93254109Y-118432531D01*
X93127621Y-118277441D01*
X93115427Y-118267353D01*
X92977718Y-118153430D01*
X92977716Y-118153429D01*
X92973418Y-118149873D01*
X92864172Y-118090804D01*
X92802278Y-118057338D01*
X92802277Y-118057338D01*
X92797373Y-118054686D01*
X92606193Y-117995506D01*
X92594709Y-117994299D01*
X92412697Y-117975169D01*
X92412696Y-117975169D01*
X92407159Y-117974587D01*
X92207852Y-117992725D01*
X92015864Y-118049230D01*
X91838508Y-118141950D01*
X91682539Y-118267353D01*
X91553897Y-118420661D01*
X91457484Y-118596037D01*
X91455801Y-118601343D01*
X91455800Y-118601345D01*
X91425070Y-118698217D01*
X91396970Y-118786799D01*
X91374662Y-118985683D01*
X90431500Y-118985683D01*
X90431500Y-116800000D01*
X111424577Y-116800000D01*
X111444184Y-116948930D01*
X111447042Y-116955831D01*
X111447043Y-116955833D01*
X111458194Y-116982754D01*
X111501669Y-117087711D01*
X111506218Y-117093640D01*
X111506219Y-117093641D01*
X111556227Y-117158813D01*
X111593114Y-117206886D01*
X111712288Y-117298331D01*
X111719194Y-117301191D01*
X111719193Y-117301191D01*
X111844167Y-117352957D01*
X111844169Y-117352958D01*
X111851070Y-117355816D01*
X112000000Y-117375423D01*
X112148930Y-117355816D01*
X112155831Y-117352958D01*
X112155833Y-117352957D01*
X112280807Y-117301191D01*
X112280806Y-117301191D01*
X112287712Y-117298331D01*
X112406886Y-117206886D01*
X112443773Y-117158813D01*
X112493781Y-117093641D01*
X112493782Y-117093640D01*
X112498331Y-117087711D01*
X112541806Y-116982754D01*
X112552957Y-116955833D01*
X112552958Y-116955831D01*
X112555816Y-116948930D01*
X112575423Y-116800000D01*
X112924577Y-116800000D01*
X112944184Y-116948930D01*
X112947042Y-116955831D01*
X112947043Y-116955833D01*
X112958194Y-116982754D01*
X113001669Y-117087711D01*
X113006218Y-117093640D01*
X113006219Y-117093641D01*
X113056227Y-117158813D01*
X113093114Y-117206886D01*
X113212288Y-117298331D01*
X113219194Y-117301191D01*
X113219193Y-117301191D01*
X113344167Y-117352957D01*
X113344169Y-117352958D01*
X113351070Y-117355816D01*
X113500000Y-117375423D01*
X113648930Y-117355816D01*
X113655831Y-117352958D01*
X113655833Y-117352957D01*
X113780807Y-117301191D01*
X113780806Y-117301191D01*
X113787712Y-117298331D01*
X113906886Y-117206886D01*
X113943773Y-117158813D01*
X113993781Y-117093641D01*
X113993782Y-117093640D01*
X113998331Y-117087711D01*
X114041806Y-116982754D01*
X114052957Y-116955833D01*
X114052958Y-116955831D01*
X114055816Y-116948930D01*
X114075423Y-116800000D01*
X114061445Y-116693823D01*
X132194391Y-116693823D01*
X132195443Y-116701868D01*
X132195443Y-116701870D01*
X132207307Y-116792594D01*
X132212980Y-116835979D01*
X132216252Y-116843415D01*
X132262680Y-116948930D01*
X132270720Y-116967203D01*
X132362970Y-117076948D01*
X132482313Y-117156390D01*
X132490064Y-117158811D01*
X132490067Y-117158813D01*
X132554474Y-117178934D01*
X132619157Y-117199142D01*
X132627273Y-117199291D01*
X132627274Y-117199291D01*
X132701941Y-117200660D01*
X132762499Y-117201770D01*
X132772139Y-117199142D01*
X132792405Y-117193617D01*
X132900817Y-117164060D01*
X132920640Y-117151889D01*
X132940106Y-117139937D01*
X133022991Y-117089045D01*
X133119200Y-116982754D01*
X133181710Y-116853733D01*
X133205496Y-116712354D01*
X133205647Y-116700000D01*
X133205022Y-116695635D01*
X133186475Y-116566123D01*
X133186474Y-116566120D01*
X133185323Y-116558082D01*
X133161806Y-116506359D01*
X133129345Y-116434963D01*
X133129343Y-116434960D01*
X133125984Y-116427572D01*
X133032400Y-116318963D01*
X132993132Y-116293511D01*
X132918909Y-116245401D01*
X132918906Y-116245399D01*
X132912095Y-116240985D01*
X132830964Y-116216722D01*
X132782524Y-116202235D01*
X132782523Y-116202235D01*
X132774739Y-116199907D01*
X132766618Y-116199857D01*
X132766615Y-116199857D01*
X132705146Y-116199482D01*
X132631376Y-116199031D01*
X132493529Y-116238428D01*
X132479875Y-116247043D01*
X132379148Y-116310596D01*
X132379145Y-116310598D01*
X132372280Y-116314930D01*
X132366905Y-116321016D01*
X132366904Y-116321017D01*
X132282753Y-116416300D01*
X132282751Y-116416303D01*
X132277377Y-116422388D01*
X132216447Y-116552163D01*
X132194391Y-116693823D01*
X114061445Y-116693823D01*
X114055816Y-116651070D01*
X113998331Y-116512289D01*
X113938998Y-116434963D01*
X113911434Y-116399041D01*
X113906886Y-116393114D01*
X113900959Y-116388566D01*
X113793642Y-116306219D01*
X113793641Y-116306218D01*
X113787712Y-116301669D01*
X113743702Y-116283440D01*
X113655833Y-116247043D01*
X113655831Y-116247042D01*
X113648930Y-116244184D01*
X113500000Y-116224577D01*
X113351070Y-116244184D01*
X113344169Y-116247042D01*
X113344167Y-116247043D01*
X113219196Y-116298808D01*
X113212289Y-116301669D01*
X113206360Y-116306218D01*
X113206359Y-116306219D01*
X113187074Y-116321017D01*
X113093114Y-116393114D01*
X113088566Y-116399041D01*
X113061003Y-116434963D01*
X113001669Y-116512289D01*
X112944184Y-116651070D01*
X112924577Y-116800000D01*
X112575423Y-116800000D01*
X112555816Y-116651070D01*
X112498331Y-116512289D01*
X112438998Y-116434963D01*
X112411434Y-116399041D01*
X112406886Y-116393114D01*
X112400959Y-116388566D01*
X112293642Y-116306219D01*
X112293641Y-116306218D01*
X112287712Y-116301669D01*
X112243702Y-116283440D01*
X112155833Y-116247043D01*
X112155831Y-116247042D01*
X112148930Y-116244184D01*
X112000000Y-116224577D01*
X111851070Y-116244184D01*
X111844169Y-116247042D01*
X111844167Y-116247043D01*
X111719196Y-116298808D01*
X111712289Y-116301669D01*
X111706360Y-116306218D01*
X111706359Y-116306219D01*
X111687074Y-116321017D01*
X111593114Y-116393114D01*
X111588566Y-116399041D01*
X111561003Y-116434963D01*
X111501669Y-116512289D01*
X111444184Y-116651070D01*
X111424577Y-116800000D01*
X90431500Y-116800000D01*
X90431500Y-116133825D01*
X90434444Y-116108085D01*
X90434709Y-116106942D01*
X90434709Y-116106939D01*
X90436167Y-116100650D01*
X90436168Y-116100000D01*
X90434735Y-116093718D01*
X90434333Y-116090123D01*
X90433978Y-116068509D01*
X90441302Y-115975447D01*
X90447030Y-115902678D01*
X90449828Y-115885013D01*
X90455584Y-115861040D01*
X90479122Y-115762997D01*
X90493938Y-115701284D01*
X90496362Y-115693823D01*
X90994391Y-115693823D01*
X90995443Y-115701868D01*
X90995443Y-115701870D01*
X91009354Y-115808250D01*
X91012980Y-115835979D01*
X91070720Y-115967203D01*
X91162970Y-116076948D01*
X91282313Y-116156390D01*
X91290064Y-116158811D01*
X91290067Y-116158813D01*
X91354474Y-116178934D01*
X91419157Y-116199142D01*
X91427273Y-116199291D01*
X91427274Y-116199291D01*
X91501941Y-116200660D01*
X91562499Y-116201770D01*
X91572139Y-116199142D01*
X91592405Y-116193617D01*
X91700817Y-116164060D01*
X91720640Y-116151889D01*
X91771297Y-116120785D01*
X91822991Y-116089045D01*
X91919200Y-115982754D01*
X91950455Y-115918243D01*
X91978170Y-115861040D01*
X91978170Y-115861039D01*
X91981710Y-115853733D01*
X92005496Y-115712354D01*
X92005647Y-115700000D01*
X92005022Y-115695635D01*
X91986475Y-115566123D01*
X91986474Y-115566120D01*
X91985323Y-115558082D01*
X91956081Y-115493767D01*
X91929345Y-115434963D01*
X91929343Y-115434960D01*
X91925984Y-115427572D01*
X91832400Y-115318963D01*
X91793132Y-115293511D01*
X91718909Y-115245401D01*
X91718906Y-115245399D01*
X91712095Y-115240985D01*
X91630964Y-115216722D01*
X91582524Y-115202235D01*
X91582523Y-115202235D01*
X91574739Y-115199907D01*
X91566618Y-115199857D01*
X91566615Y-115199857D01*
X91505146Y-115199482D01*
X91431376Y-115199031D01*
X91293529Y-115238428D01*
X91254750Y-115262895D01*
X91179148Y-115310596D01*
X91179145Y-115310598D01*
X91172280Y-115314930D01*
X91166905Y-115321016D01*
X91166904Y-115321017D01*
X91082753Y-115416300D01*
X91082751Y-115416303D01*
X91077377Y-115422388D01*
X91016447Y-115552163D01*
X90994391Y-115693823D01*
X90496362Y-115693823D01*
X90499466Y-115684271D01*
X90571774Y-115509705D01*
X90579895Y-115493767D01*
X90678624Y-115332654D01*
X90689139Y-115318181D01*
X90692244Y-115314546D01*
X90811856Y-115174499D01*
X90824499Y-115161856D01*
X90968183Y-115039137D01*
X90982654Y-115028624D01*
X91143767Y-114929895D01*
X91159705Y-114921774D01*
X91334271Y-114849466D01*
X91351284Y-114843938D01*
X91454615Y-114819130D01*
X91521178Y-114803150D01*
X91547790Y-114800000D01*
X131483521Y-114800000D01*
X131505760Y-114802190D01*
G37*
%TD.AperFunction*%
%TD*%
M02*
