%TF.GenerationSoftware,KiCad,Pcbnew,6.0.10-1.fc37*%
%TF.CreationDate,2023-01-04T19:13:09-05:00*%
%TF.ProjectId,ext-con-breakout-board,6578742d-636f-46e2-9d62-7265616b6f75,v0.6*%
%TF.SameCoordinates,Original*%
%TF.FileFunction,Copper,L2,Inr*%
%TF.FilePolarity,Positive*%
%FSLAX46Y46*%
G04 Gerber Fmt 4.6, Leading zero omitted, Abs format (unit mm)*
G04 Created by KiCad (PCBNEW 6.0.10-1.fc37) date 2023-01-04 19:13:09*
%MOMM*%
%LPD*%
G01*
G04 APERTURE LIST*
%TA.AperFunction,ComponentPad*%
%ADD10R,1.700000X1.700000*%
%TD*%
%TA.AperFunction,ComponentPad*%
%ADD11O,1.700000X1.700000*%
%TD*%
%TA.AperFunction,ComponentPad*%
%ADD12C,2.800000*%
%TD*%
%TA.AperFunction,ViaPad*%
%ADD13C,0.800000*%
%TD*%
%TA.AperFunction,Conductor*%
%ADD14C,0.230000*%
%TD*%
G04 APERTURE END LIST*
D10*
%TO.N,GND*%
%TO.C,J2*%
X130500000Y-115500000D03*
D11*
%TO.N,/UART1_RXD*%
X127960000Y-115500000D03*
%TO.N,/UART1_TXD*%
X125420000Y-115500000D03*
%TO.N,GND*%
X122880000Y-115500000D03*
%TO.N,/SPI_SS1*%
X120340000Y-115500000D03*
%TO.N,/SPI_SCK*%
X117800000Y-115500000D03*
%TO.N,/SPI_MOSI*%
X115260000Y-115500000D03*
%TO.N,/SPI_MISO*%
X112720000Y-115500000D03*
%TO.N,GND*%
X110180000Y-115500000D03*
%TO.N,Net-(C1-Pad1)*%
X107640000Y-115500000D03*
%TO.N,Net-(C2-Pad1)*%
X105100000Y-115500000D03*
%TO.N,GND*%
X102560000Y-115500000D03*
%TO.N,/GPIO4_IO11*%
X100020000Y-115500000D03*
%TO.N,/GPIO4_IO28*%
X97480000Y-115500000D03*
%TO.N,/I2C4_SCL*%
X94940000Y-115500000D03*
%TO.N,/I2C4_SDA*%
X92400000Y-115500000D03*
%TD*%
D12*
%TO.N,GND*%
%TO.C,H1*%
X133671000Y-115500000D03*
%TD*%
D13*
%TO.N,/I2C4_SDA*%
X130200000Y-90400000D03*
%TO.N,/I2C4_SCL*%
X130100000Y-88000000D03*
%TO.N,GND*%
X127000000Y-88000000D03*
%TO.N,/UART1_RXD*%
X129000000Y-90400000D03*
%TO.N,/UART1_TXD*%
X128700000Y-88200000D03*
%TO.N,+1V8*%
X112000000Y-113300000D03*
%TO.N,+3V3*%
X113500000Y-113300000D03*
%TD*%
D14*
%TO.N,/I2C4_SDA*%
X131200000Y-89400000D02*
X131200000Y-88131263D01*
X117843000Y-88691000D02*
X117508789Y-89379678D01*
X116666003Y-111650000D02*
X104650000Y-111650000D01*
X104647328Y-111647328D02*
X101701172Y-111647328D01*
X117100000Y-91158335D02*
X117100000Y-111216003D01*
X129668737Y-86600000D02*
X120988355Y-86600000D01*
X104650000Y-111650000D02*
X104647328Y-111647328D01*
X92400008Y-115500008D02*
G75*
G02*
X101701172Y-111647328I9301192J-9301192D01*
G01*
X117100016Y-91158335D02*
G75*
G02*
X117508789Y-89379678I4073884J35D01*
G01*
X129668737Y-86600000D02*
G75*
G02*
X131200000Y-88131263I-37J-1531300D01*
G01*
X117843000Y-88691000D02*
G75*
G02*
X120988355Y-86600000I3134800J-1304300D01*
G01*
X116666003Y-111650000D02*
G75*
G03*
X117100000Y-111216003I-3J434000D01*
G01*
X131200000Y-89400000D02*
G75*
G02*
X130200000Y-90400000I-1000000J0D01*
G01*
%TO.N,/I2C4_SCL*%
X127685787Y-87000000D02*
X121008650Y-87000000D01*
X117500000Y-91159875D02*
X117500000Y-111394836D01*
X118203246Y-88866390D02*
X117868652Y-89555857D01*
X116844836Y-112050000D02*
X103269036Y-112050000D01*
X118203246Y-88866390D02*
G75*
G02*
X121008650Y-87000000I2806254J-1176510D01*
G01*
X116844836Y-112050000D02*
G75*
G03*
X117500000Y-111394836I-36J655200D01*
G01*
X127685787Y-87000006D02*
G75*
G02*
X130100000Y-88000000I13J-3414194D01*
G01*
X117499990Y-91159875D02*
G75*
G02*
X117868652Y-89555857I3673910J-25D01*
G01*
X94939989Y-115499989D02*
G75*
G02*
X103269036Y-112050000I8329011J-8329011D01*
G01*
%TO.N,/UART1_RXD*%
X126827559Y-114367559D02*
X127960000Y-115500000D01*
X121286714Y-112720000D02*
X122850000Y-112720000D01*
X119900000Y-91167525D02*
X119900000Y-111333286D01*
X126585787Y-89400000D02*
X121190000Y-89400000D01*
X120360362Y-89918489D02*
X120031159Y-90596848D01*
X126827555Y-114367563D02*
G75*
G03*
X122850000Y-112720000I-3977555J-3977537D01*
G01*
X126585787Y-89400006D02*
G75*
G02*
X129000000Y-90400000I13J-3414194D01*
G01*
X120360342Y-89918479D02*
G75*
G02*
X121190000Y-89400000I831258J-407121D01*
G01*
X121286714Y-112720000D02*
G75*
G02*
X119900000Y-111333286I-14J1386700D01*
G01*
X119900012Y-91167525D02*
G75*
G02*
X120031160Y-90596848I1307088J25D01*
G01*
%TO.N,/UART1_TXD*%
X121864993Y-113125000D02*
X121145393Y-113125000D01*
X119672340Y-90420058D02*
X120000844Y-89743140D01*
X121163259Y-89000000D02*
X126768630Y-89000000D01*
X125420000Y-115500000D02*
X123879393Y-113959392D01*
X119500000Y-111479607D02*
X119500000Y-91169915D01*
X119672334Y-90420055D02*
G75*
G03*
X119500000Y-91169915I1545166J-749845D01*
G01*
X121864993Y-113125008D02*
G75*
G02*
X123879393Y-113959392I7J-2848792D01*
G01*
X128699991Y-88199991D02*
G75*
G02*
X126768630Y-89000000I-1931391J1931391D01*
G01*
X121163259Y-89000014D02*
G75*
G03*
X120000844Y-89743140I5041J-1288586D01*
G01*
X119500000Y-111479607D02*
G75*
G03*
X121145393Y-113125000I1645400J7D01*
G01*
%TD*%
%TA.AperFunction,Conductor*%
%TO.N,/I2C4_SCL*%
G36*
X129543575Y-87413157D02*
G01*
X129617681Y-87455893D01*
X129617695Y-87455900D01*
X129617859Y-87455995D01*
X129691444Y-87492148D01*
X129691658Y-87492233D01*
X129756834Y-87518171D01*
X129756845Y-87518175D01*
X129757049Y-87518256D01*
X129757277Y-87518326D01*
X129757278Y-87518326D01*
X129817038Y-87536583D01*
X129817044Y-87536585D01*
X129817245Y-87536646D01*
X129817441Y-87536690D01*
X129817447Y-87536692D01*
X129874454Y-87549608D01*
X129874462Y-87549610D01*
X129874605Y-87549642D01*
X129874743Y-87549666D01*
X129874758Y-87549669D01*
X129901811Y-87554373D01*
X129931702Y-87559571D01*
X129991088Y-87568754D01*
X129991233Y-87568778D01*
X130055177Y-87579489D01*
X130055589Y-87579565D01*
X130097549Y-87588149D01*
X130126894Y-87594152D01*
X130127418Y-87594273D01*
X130158480Y-87602217D01*
X130200811Y-87613043D01*
X130207977Y-87618413D01*
X130209576Y-87623465D01*
X130248508Y-88120770D01*
X130245738Y-88129285D01*
X130237302Y-88133374D01*
X129738941Y-88152836D01*
X129730540Y-88149735D01*
X129727525Y-88145241D01*
X129703645Y-88081351D01*
X129703418Y-88080683D01*
X129683400Y-88015368D01*
X129683291Y-88014991D01*
X129667003Y-87954688D01*
X129651616Y-87898804D01*
X129651612Y-87898790D01*
X129651571Y-87898642D01*
X129634101Y-87846101D01*
X129611655Y-87796136D01*
X129581291Y-87747815D01*
X129540069Y-87700210D01*
X129485048Y-87652389D01*
X129484767Y-87652197D01*
X129422503Y-87609710D01*
X129417601Y-87602217D01*
X129419130Y-87593920D01*
X129527762Y-87417166D01*
X129535014Y-87411912D01*
X129543575Y-87413157D01*
G37*
%TD.AperFunction*%
%TD*%
%TA.AperFunction,Conductor*%
%TO.N,/I2C4_SDA*%
G36*
X130307503Y-90014974D02*
G01*
X130363171Y-90031633D01*
X130363827Y-90031851D01*
X130422617Y-90053301D01*
X130422857Y-90053391D01*
X130478059Y-90074914D01*
X130478082Y-90074923D01*
X130478096Y-90074928D01*
X130530450Y-90093980D01*
X130580765Y-90108031D01*
X130581163Y-90108084D01*
X130581167Y-90108085D01*
X130629403Y-90114526D01*
X130629404Y-90114526D01*
X130629988Y-90114604D01*
X130664241Y-90112244D01*
X130678369Y-90111271D01*
X130678370Y-90111271D01*
X130679064Y-90111223D01*
X130728938Y-90095410D01*
X130731341Y-90093980D01*
X130780085Y-90064970D01*
X130780087Y-90064969D01*
X130780555Y-90064690D01*
X130793311Y-90053391D01*
X130826737Y-90023782D01*
X130835202Y-90020861D01*
X130842647Y-90024147D01*
X130991414Y-90168633D01*
X130994961Y-90176855D01*
X130991613Y-90185221D01*
X130930607Y-90247388D01*
X130930513Y-90247483D01*
X130871177Y-90306584D01*
X130871078Y-90306680D01*
X130819450Y-90356903D01*
X130819438Y-90356915D01*
X130773206Y-90400946D01*
X130730239Y-90441301D01*
X130688325Y-90480571D01*
X130645251Y-90521351D01*
X130598804Y-90566234D01*
X130598762Y-90566276D01*
X130546772Y-90617813D01*
X130492881Y-90672640D01*
X130484638Y-90676138D01*
X130479349Y-90674925D01*
X130016123Y-90445737D01*
X130010227Y-90438996D01*
X130010824Y-90430062D01*
X130011687Y-90428596D01*
X130095983Y-90306680D01*
X130228842Y-90114526D01*
X130294525Y-90019529D01*
X130302049Y-90014673D01*
X130307503Y-90014974D01*
G37*
%TD.AperFunction*%
%TD*%
%TA.AperFunction,Conductor*%
%TO.N,GND*%
G36*
X119162133Y-111118097D02*
G01*
X119204198Y-111166643D01*
X119214500Y-111214000D01*
X119214500Y-111444659D01*
X119212768Y-111464454D01*
X119210096Y-111479608D01*
X119210511Y-111481964D01*
X119211147Y-111491669D01*
X119211147Y-111491670D01*
X119215273Y-111554609D01*
X119226912Y-111732181D01*
X119276293Y-111980431D01*
X119277491Y-111983960D01*
X119277492Y-111983964D01*
X119355408Y-112213493D01*
X119357655Y-112220113D01*
X119359305Y-112223458D01*
X119359305Y-112223459D01*
X119372758Y-112250739D01*
X119469605Y-112447124D01*
X119471676Y-112450223D01*
X119471678Y-112450227D01*
X119608157Y-112654482D01*
X119610228Y-112657581D01*
X119612681Y-112660378D01*
X119612684Y-112660382D01*
X119738999Y-112804416D01*
X119777118Y-112847882D01*
X119779914Y-112850334D01*
X119964588Y-113012289D01*
X119967419Y-113014772D01*
X119970515Y-113016841D01*
X119970518Y-113016843D01*
X120174773Y-113153322D01*
X120174777Y-113153324D01*
X120177876Y-113155395D01*
X120181228Y-113157048D01*
X120392522Y-113261247D01*
X120404887Y-113267345D01*
X120408413Y-113268542D01*
X120408418Y-113268544D01*
X120641036Y-113347508D01*
X120641040Y-113347509D01*
X120644569Y-113348707D01*
X120732747Y-113366247D01*
X120889157Y-113397360D01*
X120889163Y-113397361D01*
X120892819Y-113398088D01*
X120896540Y-113398332D01*
X120896541Y-113398332D01*
X121132311Y-113413786D01*
X121143036Y-113414489D01*
X121145392Y-113414904D01*
X121160546Y-113412232D01*
X121180341Y-113410500D01*
X121830045Y-113410500D01*
X121849840Y-113412232D01*
X121864994Y-113414904D01*
X121874817Y-113413172D01*
X121882547Y-113413172D01*
X121897082Y-113412310D01*
X122145614Y-113426267D01*
X122158301Y-113427697D01*
X122429067Y-113473701D01*
X122441518Y-113476542D01*
X122670393Y-113542479D01*
X122705450Y-113552579D01*
X122717517Y-113556802D01*
X122971242Y-113661898D01*
X122982755Y-113667440D01*
X123223158Y-113800306D01*
X123233956Y-113807091D01*
X123457960Y-113966029D01*
X123467949Y-113973995D01*
X123591356Y-114084277D01*
X123625254Y-114138840D01*
X123624271Y-114203068D01*
X123588721Y-114256568D01*
X123529889Y-114282356D01*
X123466455Y-114272243D01*
X123460298Y-114269084D01*
X123442676Y-114259356D01*
X123434170Y-114255533D01*
X123232495Y-114184116D01*
X123223476Y-114181733D01*
X123150139Y-114168670D01*
X123138108Y-114169990D01*
X123134000Y-114183160D01*
X123134000Y-116820243D01*
X123137677Y-116832766D01*
X123149813Y-116834606D01*
X123158671Y-116833471D01*
X123167793Y-116831533D01*
X123372716Y-116770052D01*
X123381407Y-116766646D01*
X123573537Y-116672523D01*
X123581545Y-116667749D01*
X123755725Y-116543509D01*
X123762852Y-116537486D01*
X123914398Y-116386466D01*
X123920444Y-116379362D01*
X124045285Y-116205628D01*
X124050100Y-116197614D01*
X124144890Y-116005823D01*
X124148324Y-115997150D01*
X124210520Y-115792440D01*
X124212416Y-115783671D01*
X124243131Y-115727256D01*
X124299471Y-115696401D01*
X124363548Y-115700904D01*
X124415018Y-115739335D01*
X124433237Y-115775697D01*
X124446249Y-115820082D01*
X124447600Y-115823230D01*
X124447600Y-115823231D01*
X124455056Y-115840608D01*
X124459876Y-115854138D01*
X124466572Y-115877489D01*
X124469122Y-115882450D01*
X124469122Y-115882451D01*
X124489415Y-115921936D01*
X124558051Y-116055488D01*
X124682362Y-116212329D01*
X124834769Y-116342038D01*
X124881790Y-116368317D01*
X125004596Y-116436951D01*
X125004598Y-116436952D01*
X125009467Y-116439673D01*
X125014776Y-116441398D01*
X125194498Y-116499794D01*
X125194502Y-116499795D01*
X125199802Y-116501517D01*
X125257190Y-116508360D01*
X125392988Y-116524553D01*
X125392990Y-116524553D01*
X125398525Y-116525213D01*
X125598065Y-116509859D01*
X125603430Y-116508361D01*
X125603436Y-116508360D01*
X125785460Y-116457538D01*
X125785463Y-116457537D01*
X125790824Y-116456040D01*
X125969457Y-116365806D01*
X126127162Y-116242593D01*
X126157053Y-116207964D01*
X126254288Y-116095317D01*
X126254290Y-116095314D01*
X126257931Y-116091096D01*
X126275676Y-116059860D01*
X126332530Y-115959777D01*
X126356784Y-115917083D01*
X126358543Y-115911796D01*
X126358545Y-115911791D01*
X126418196Y-115732472D01*
X126418196Y-115732471D01*
X126419955Y-115727184D01*
X126422590Y-115706330D01*
X126438474Y-115580594D01*
X126445038Y-115528632D01*
X126445275Y-115511676D01*
X126445394Y-115503182D01*
X126445394Y-115503174D01*
X126445438Y-115500000D01*
X126436105Y-115404817D01*
X126426454Y-115306378D01*
X126426453Y-115306373D01*
X126425909Y-115300825D01*
X126421675Y-115286799D01*
X126369678Y-115114578D01*
X126369677Y-115114577D01*
X126368065Y-115109236D01*
X126363871Y-115101347D01*
X126276727Y-114937455D01*
X126274109Y-114932531D01*
X126147621Y-114777441D01*
X126135427Y-114767353D01*
X125997718Y-114653430D01*
X125997716Y-114653429D01*
X125993418Y-114649873D01*
X125817373Y-114554686D01*
X125812053Y-114553039D01*
X125812050Y-114553038D01*
X125778215Y-114542565D01*
X125771167Y-114540383D01*
X125752086Y-114532521D01*
X125746254Y-114529474D01*
X125745045Y-114528842D01*
X125745043Y-114528841D01*
X125740082Y-114526249D01*
X125625729Y-114492725D01*
X125575208Y-114477914D01*
X125575199Y-114477911D01*
X125574597Y-114477735D01*
X125570618Y-114476669D01*
X125567302Y-114475781D01*
X125567277Y-114475775D01*
X125566610Y-114475596D01*
X125565555Y-114475340D01*
X125564875Y-114475192D01*
X125564840Y-114475184D01*
X125558088Y-114473715D01*
X125558045Y-114473706D01*
X125557396Y-114473565D01*
X125556720Y-114473435D01*
X125556707Y-114473432D01*
X125402315Y-114443664D01*
X125402290Y-114443659D01*
X125401764Y-114443558D01*
X125401242Y-114443467D01*
X125401197Y-114443459D01*
X125395978Y-114442552D01*
X125395964Y-114442550D01*
X125395425Y-114442456D01*
X125394580Y-114442325D01*
X125388251Y-114441461D01*
X125387792Y-114441407D01*
X125387754Y-114441402D01*
X125246403Y-114424730D01*
X125246406Y-114424730D01*
X125246242Y-114424711D01*
X125243790Y-114424440D01*
X125243414Y-114424401D01*
X125241431Y-114424216D01*
X125240144Y-114424095D01*
X125240101Y-114424091D01*
X125239810Y-114424064D01*
X125239503Y-114424039D01*
X125239440Y-114424033D01*
X125110095Y-114413309D01*
X125108109Y-114413127D01*
X124995703Y-114401824D01*
X124987171Y-114400639D01*
X124892913Y-114383896D01*
X124878972Y-114380503D01*
X124793669Y-114353946D01*
X124777505Y-114347523D01*
X124688509Y-114304013D01*
X124673748Y-114295367D01*
X124617639Y-114256568D01*
X124570127Y-114223715D01*
X124558716Y-114214696D01*
X124547603Y-114204697D01*
X124431943Y-114100631D01*
X124427482Y-114097899D01*
X124423975Y-114095751D01*
X124402902Y-114079143D01*
X124105985Y-113782226D01*
X124093216Y-113767010D01*
X124084385Y-113754398D01*
X124080302Y-113751539D01*
X123855763Y-113548030D01*
X123757526Y-113475173D01*
X123610655Y-113366247D01*
X123610652Y-113366245D01*
X123608411Y-113364583D01*
X123557585Y-113334119D01*
X123436004Y-113261247D01*
X123392443Y-113214039D01*
X123381320Y-113150775D01*
X123406166Y-113091539D01*
X123459093Y-113055140D01*
X123508010Y-113050256D01*
X123680854Y-113070714D01*
X123689685Y-113072112D01*
X124051930Y-113144167D01*
X124092119Y-113152161D01*
X124100823Y-113154251D01*
X124112907Y-113157659D01*
X124495725Y-113265625D01*
X124504229Y-113268388D01*
X124889190Y-113410408D01*
X124897449Y-113413830D01*
X125202257Y-113554349D01*
X125270056Y-113585605D01*
X125278032Y-113589668D01*
X125636043Y-113790164D01*
X125643675Y-113794842D01*
X125984816Y-114022787D01*
X125992047Y-114028040D01*
X125993279Y-114029011D01*
X126009563Y-114044700D01*
X126015214Y-114051347D01*
X126129488Y-114141853D01*
X126226731Y-114218871D01*
X126234380Y-114225502D01*
X126308082Y-114295367D01*
X126392211Y-114375116D01*
X126392623Y-114375507D01*
X126401400Y-114384817D01*
X126515907Y-114520813D01*
X126524573Y-114532555D01*
X126607799Y-114661921D01*
X126614770Y-114674418D01*
X126678543Y-114807816D01*
X126682977Y-114818437D01*
X126736395Y-114967103D01*
X126738571Y-114973803D01*
X126788676Y-115146009D01*
X126789315Y-115148293D01*
X126842678Y-115347020D01*
X126843212Y-115348957D01*
X126843244Y-115349074D01*
X126843284Y-115349219D01*
X126891119Y-115518537D01*
X126906707Y-115573715D01*
X126907601Y-115576772D01*
X126907724Y-115577179D01*
X126908674Y-115580223D01*
X126987470Y-115824816D01*
X126988807Y-115827769D01*
X126988808Y-115827771D01*
X126994933Y-115841298D01*
X127000667Y-115856897D01*
X127006572Y-115877489D01*
X127009122Y-115882450D01*
X127009122Y-115882451D01*
X127029415Y-115921936D01*
X127098051Y-116055488D01*
X127222362Y-116212329D01*
X127374769Y-116342038D01*
X127421790Y-116368317D01*
X127544596Y-116436951D01*
X127544598Y-116436952D01*
X127549467Y-116439673D01*
X127554776Y-116441398D01*
X127734498Y-116499794D01*
X127734502Y-116499795D01*
X127739802Y-116501517D01*
X127797190Y-116508360D01*
X127932988Y-116524553D01*
X127932990Y-116524553D01*
X127938525Y-116525213D01*
X128138065Y-116509859D01*
X128143430Y-116508361D01*
X128143436Y-116508360D01*
X128325460Y-116457538D01*
X128325463Y-116457537D01*
X128330824Y-116456040D01*
X128509457Y-116365806D01*
X128667162Y-116242593D01*
X128697053Y-116207964D01*
X128794288Y-116095317D01*
X128794290Y-116095314D01*
X128797931Y-116091096D01*
X128815676Y-116059860D01*
X128872530Y-115959777D01*
X128896784Y-115917083D01*
X128898544Y-115911792D01*
X128898545Y-115911790D01*
X128919829Y-115847808D01*
X128956456Y-115795038D01*
X129015797Y-115770447D01*
X129079014Y-115781842D01*
X129126034Y-115825606D01*
X129142001Y-115883792D01*
X129142001Y-116395002D01*
X129142335Y-116401160D01*
X129147976Y-116453098D01*
X129151257Y-116466900D01*
X129196978Y-116588861D01*
X129204697Y-116602958D01*
X129282226Y-116706406D01*
X129293594Y-116717774D01*
X129397042Y-116795303D01*
X129411139Y-116803022D01*
X129533105Y-116848745D01*
X129546896Y-116852024D01*
X129598843Y-116857667D01*
X129604995Y-116858000D01*
X130229611Y-116858000D01*
X130243397Y-116853952D01*
X130244488Y-116852693D01*
X130246000Y-116845742D01*
X130246000Y-116841610D01*
X130754000Y-116841610D01*
X130758048Y-116855396D01*
X130759307Y-116856487D01*
X130766258Y-116857999D01*
X131395002Y-116857999D01*
X131401160Y-116857665D01*
X131453098Y-116852024D01*
X131466900Y-116848743D01*
X131588861Y-116803022D01*
X131602958Y-116795303D01*
X131706406Y-116717774D01*
X131717774Y-116706406D01*
X131795303Y-116602958D01*
X131803022Y-116588861D01*
X131848745Y-116466895D01*
X131852024Y-116453104D01*
X131857667Y-116401157D01*
X131858000Y-116395005D01*
X131858000Y-115770389D01*
X131853952Y-115756603D01*
X131852693Y-115755512D01*
X131845742Y-115754000D01*
X130770389Y-115754000D01*
X130756603Y-115758048D01*
X130755512Y-115759307D01*
X130754000Y-115766258D01*
X130754000Y-116841610D01*
X130246000Y-116841610D01*
X130246000Y-115229611D01*
X130754000Y-115229611D01*
X130758048Y-115243397D01*
X130759307Y-115244488D01*
X130766258Y-115246000D01*
X131841610Y-115246000D01*
X131855396Y-115241952D01*
X131856487Y-115240693D01*
X131857999Y-115233742D01*
X131857999Y-114604998D01*
X131857665Y-114598840D01*
X131852024Y-114546902D01*
X131848743Y-114533100D01*
X131803022Y-114411139D01*
X131795303Y-114397042D01*
X131717774Y-114293594D01*
X131706406Y-114282226D01*
X131602958Y-114204697D01*
X131588861Y-114196978D01*
X131466895Y-114151255D01*
X131453104Y-114147976D01*
X131401157Y-114142333D01*
X131395005Y-114142000D01*
X130770389Y-114142000D01*
X130756603Y-114146048D01*
X130755512Y-114147307D01*
X130754000Y-114154258D01*
X130754000Y-115229611D01*
X130246000Y-115229611D01*
X130246000Y-114158390D01*
X130241952Y-114144604D01*
X130240693Y-114143513D01*
X130233742Y-114142001D01*
X129604998Y-114142001D01*
X129598840Y-114142335D01*
X129546902Y-114147976D01*
X129533100Y-114151257D01*
X129411139Y-114196978D01*
X129397042Y-114204697D01*
X129293594Y-114282226D01*
X129282226Y-114293594D01*
X129204697Y-114397042D01*
X129196978Y-114411139D01*
X129151255Y-114533105D01*
X129147976Y-114546896D01*
X129142333Y-114598843D01*
X129142000Y-114604995D01*
X129142000Y-115112062D01*
X129123903Y-115173695D01*
X129075357Y-115215760D01*
X129011776Y-115224902D01*
X128953346Y-115198217D01*
X128918866Y-115145012D01*
X128908065Y-115109236D01*
X128903871Y-115101347D01*
X128816727Y-114937455D01*
X128814109Y-114932531D01*
X128687621Y-114777441D01*
X128675427Y-114767353D01*
X128537718Y-114653430D01*
X128537716Y-114653429D01*
X128533418Y-114649873D01*
X128357373Y-114554686D01*
X128318209Y-114542562D01*
X128294698Y-114532258D01*
X128288005Y-114528373D01*
X128039480Y-114443353D01*
X128038770Y-114443112D01*
X127819942Y-114369294D01*
X127819229Y-114369050D01*
X127631046Y-114303928D01*
X127628477Y-114303003D01*
X127572828Y-114282226D01*
X127463704Y-114241484D01*
X127459351Y-114239755D01*
X127308092Y-114176051D01*
X127302573Y-114173552D01*
X127153940Y-114101409D01*
X127148311Y-114098480D01*
X127051648Y-114044703D01*
X126990887Y-114010899D01*
X126986051Y-114008049D01*
X126809489Y-113898027D01*
X126805787Y-113895619D01*
X126774581Y-113874448D01*
X126600821Y-113756567D01*
X126598225Y-113754752D01*
X126597733Y-113754398D01*
X126363550Y-113585826D01*
X126358528Y-113583522D01*
X126353748Y-113580740D01*
X126353755Y-113580728D01*
X126341685Y-113573840D01*
X126195583Y-113472399D01*
X126047557Y-113369622D01*
X125987720Y-113334119D01*
X125686190Y-113155213D01*
X125686184Y-113155210D01*
X125684462Y-113154188D01*
X125306924Y-112965205D01*
X124916865Y-112803637D01*
X124914941Y-112802997D01*
X124914934Y-112802994D01*
X124717567Y-112737304D01*
X124516275Y-112670307D01*
X124514313Y-112669806D01*
X124514302Y-112669803D01*
X124109149Y-112566394D01*
X124109143Y-112566393D01*
X124107193Y-112565895D01*
X123976865Y-112542381D01*
X123693702Y-112491292D01*
X123693694Y-112491291D01*
X123691705Y-112490932D01*
X123481816Y-112468367D01*
X123273947Y-112446018D01*
X123273942Y-112446018D01*
X123271927Y-112445801D01*
X123269897Y-112445729D01*
X123269890Y-112445728D01*
X123127595Y-112440646D01*
X122854523Y-112430894D01*
X122850000Y-112430096D01*
X122840177Y-112431828D01*
X122840175Y-112431828D01*
X122834846Y-112432768D01*
X122815051Y-112434500D01*
X122314000Y-112434500D01*
X122252367Y-112416403D01*
X122210302Y-112367857D01*
X122200000Y-112320500D01*
X122200000Y-111395500D01*
X122218097Y-111333867D01*
X122266643Y-111291802D01*
X122314000Y-111281500D01*
X131209011Y-111281500D01*
X131224718Y-111283283D01*
X131229740Y-111283292D01*
X131242250Y-111286168D01*
X131254769Y-111283335D01*
X131267368Y-111283357D01*
X131274623Y-111283601D01*
X131431360Y-111293872D01*
X131472477Y-111296566D01*
X131487258Y-111298512D01*
X131698841Y-111340597D01*
X131705910Y-111342003D01*
X131720314Y-111345863D01*
X131931404Y-111417519D01*
X131945182Y-111423226D01*
X132145117Y-111521826D01*
X132158031Y-111529282D01*
X132343388Y-111653137D01*
X132355219Y-111662216D01*
X132505369Y-111793900D01*
X132510955Y-111799140D01*
X132518097Y-111806308D01*
X132524912Y-111817193D01*
X132535773Y-111824046D01*
X132538848Y-111827132D01*
X132551807Y-111837486D01*
X135512138Y-114797818D01*
X135521988Y-114810189D01*
X135525530Y-114813744D01*
X135532342Y-114824624D01*
X135543197Y-114831473D01*
X135552098Y-114840406D01*
X135557056Y-114845709D01*
X135687788Y-114994781D01*
X135696865Y-115006611D01*
X135820715Y-115191965D01*
X135828171Y-115204878D01*
X135926772Y-115404817D01*
X135932478Y-115418593D01*
X136004143Y-115629699D01*
X136008002Y-115644097D01*
X136049893Y-115854668D01*
X136051499Y-115862741D01*
X136053446Y-115877525D01*
X136066483Y-116076339D01*
X136066727Y-116083993D01*
X136066709Y-116094598D01*
X136063832Y-116107110D01*
X136066666Y-116119634D01*
X136066659Y-116123998D01*
X136068500Y-116140476D01*
X136068500Y-116566438D01*
X136066718Y-116582140D01*
X136066709Y-116587163D01*
X136063832Y-116599675D01*
X136066664Y-116612194D01*
X136066652Y-116619191D01*
X136066301Y-116627932D01*
X136053130Y-116795303D01*
X136052971Y-116797318D01*
X136050173Y-116814982D01*
X136039845Y-116858000D01*
X136006062Y-116998716D01*
X136000534Y-117015729D01*
X135928226Y-117190295D01*
X135920105Y-117206233D01*
X135821376Y-117367346D01*
X135810861Y-117381819D01*
X135688147Y-117525498D01*
X135675501Y-117538144D01*
X135531819Y-117660861D01*
X135517346Y-117671376D01*
X135356233Y-117770105D01*
X135340295Y-117778226D01*
X135165729Y-117850534D01*
X135148716Y-117856062D01*
X135087003Y-117870878D01*
X134964982Y-117900173D01*
X134947322Y-117902970D01*
X134887317Y-117907693D01*
X134777099Y-117916367D01*
X134767956Y-117916718D01*
X134762836Y-117916709D01*
X134750325Y-117913832D01*
X134737803Y-117916666D01*
X134733446Y-117916658D01*
X134716958Y-117918500D01*
X91783562Y-117918500D01*
X91767860Y-117916718D01*
X91762837Y-117916709D01*
X91750325Y-117913832D01*
X91737806Y-117916664D01*
X91730809Y-117916652D01*
X91722068Y-117916301D01*
X91634602Y-117909418D01*
X91552678Y-117902970D01*
X91535018Y-117900173D01*
X91412997Y-117870878D01*
X91351284Y-117856062D01*
X91334271Y-117850534D01*
X91159705Y-117778226D01*
X91143767Y-117770105D01*
X90982654Y-117671376D01*
X90968181Y-117660861D01*
X90824499Y-117538144D01*
X90811853Y-117525498D01*
X90689139Y-117381819D01*
X90678624Y-117367346D01*
X90579895Y-117206233D01*
X90571774Y-117190295D01*
X90499466Y-117015729D01*
X90493938Y-116998716D01*
X90455813Y-116839914D01*
X90449828Y-116814984D01*
X90447029Y-116797317D01*
X90433994Y-116631686D01*
X90434392Y-116609700D01*
X90434711Y-116606932D01*
X90436167Y-116600650D01*
X90436168Y-116600000D01*
X90434355Y-116592052D01*
X90431500Y-116566699D01*
X90431500Y-112633825D01*
X90434444Y-112608085D01*
X90434709Y-112606942D01*
X90434709Y-112606939D01*
X90436167Y-112600650D01*
X90436168Y-112600000D01*
X90434735Y-112593718D01*
X90434333Y-112590123D01*
X90433978Y-112568509D01*
X90443287Y-112450227D01*
X90447030Y-112402678D01*
X90449828Y-112385013D01*
X90453118Y-112371312D01*
X90491228Y-112212573D01*
X90493938Y-112201284D01*
X90499466Y-112184271D01*
X90571774Y-112009705D01*
X90579895Y-111993767D01*
X90678624Y-111832654D01*
X90689139Y-111818181D01*
X90691222Y-111815742D01*
X90811856Y-111674499D01*
X90824499Y-111661856D01*
X90968183Y-111539137D01*
X90982654Y-111528624D01*
X91143767Y-111429895D01*
X91159705Y-111421774D01*
X91334271Y-111349466D01*
X91351284Y-111343938D01*
X91446806Y-111321005D01*
X91535018Y-111299827D01*
X91552678Y-111297030D01*
X91619100Y-111291802D01*
X91722901Y-111283633D01*
X91732044Y-111283282D01*
X91737164Y-111283291D01*
X91749675Y-111286168D01*
X91762197Y-111283334D01*
X91766554Y-111283342D01*
X91783042Y-111281500D01*
X99691184Y-111281500D01*
X99752817Y-111299597D01*
X99794882Y-111348143D01*
X99804024Y-111411724D01*
X99777339Y-111470154D01*
X99723302Y-111504882D01*
X99706064Y-111508525D01*
X99599569Y-111522545D01*
X99599553Y-111522548D01*
X99598076Y-111522742D01*
X99596606Y-111523015D01*
X99596590Y-111523017D01*
X98907474Y-111650739D01*
X98907462Y-111650742D01*
X98906019Y-111651009D01*
X98221624Y-111815318D01*
X97966616Y-111890855D01*
X97548217Y-112014791D01*
X97548210Y-112014793D01*
X97546766Y-112015221D01*
X96883295Y-112250170D01*
X96233029Y-112519519D01*
X95597751Y-112822532D01*
X95596449Y-112823239D01*
X95596441Y-112823243D01*
X94980524Y-113157659D01*
X94979202Y-113158377D01*
X94379078Y-113526135D01*
X93799023Y-113924796D01*
X93527924Y-114132818D01*
X93504225Y-114146814D01*
X93496640Y-114150133D01*
X93492043Y-114153338D01*
X93492039Y-114153340D01*
X93429443Y-114196978D01*
X93365590Y-114241492D01*
X93349990Y-114252367D01*
X93339005Y-114259135D01*
X93218843Y-114324088D01*
X93205248Y-114330322D01*
X93102799Y-114369384D01*
X93088381Y-114373813D01*
X92992508Y-114396449D01*
X92980381Y-114398628D01*
X92931526Y-114404703D01*
X92878711Y-114411269D01*
X92871626Y-114411926D01*
X92754445Y-114419114D01*
X92753459Y-114419170D01*
X92674367Y-114423334D01*
X92621668Y-114426109D01*
X92617987Y-114426341D01*
X92617526Y-114426375D01*
X92614294Y-114426644D01*
X92470903Y-114439888D01*
X92470479Y-114439935D01*
X92470438Y-114439939D01*
X92467307Y-114440286D01*
X92464598Y-114440585D01*
X92463745Y-114440695D01*
X92457258Y-114441655D01*
X92446465Y-114443459D01*
X92299252Y-114468065D01*
X92299236Y-114468068D01*
X92298607Y-114468173D01*
X92294155Y-114469022D01*
X92291365Y-114469554D01*
X92291354Y-114469556D01*
X92290768Y-114469668D01*
X92289732Y-114469890D01*
X92289085Y-114470044D01*
X92289067Y-114470048D01*
X92285533Y-114470889D01*
X92282028Y-114471723D01*
X92110935Y-114516545D01*
X92107767Y-114517794D01*
X92107764Y-114517795D01*
X92072065Y-114531870D01*
X92072015Y-114531742D01*
X92060415Y-114536118D01*
X92015864Y-114549230D01*
X91838508Y-114641950D01*
X91828654Y-114649873D01*
X91710163Y-114745143D01*
X91682539Y-114767353D01*
X91553897Y-114920661D01*
X91457484Y-115096037D01*
X91455801Y-115101343D01*
X91455800Y-115101345D01*
X91413496Y-115234703D01*
X91396970Y-115286799D01*
X91374662Y-115485683D01*
X91391408Y-115685111D01*
X91403472Y-115727184D01*
X91441424Y-115859535D01*
X91446572Y-115877489D01*
X91449122Y-115882450D01*
X91449122Y-115882451D01*
X91469415Y-115921936D01*
X91538051Y-116055488D01*
X91662362Y-116212329D01*
X91814769Y-116342038D01*
X91861790Y-116368317D01*
X91984596Y-116436951D01*
X91984598Y-116436952D01*
X91989467Y-116439673D01*
X91994776Y-116441398D01*
X92174498Y-116499794D01*
X92174502Y-116499795D01*
X92179802Y-116501517D01*
X92237190Y-116508360D01*
X92372988Y-116524553D01*
X92372990Y-116524553D01*
X92378525Y-116525213D01*
X92578065Y-116509859D01*
X92583430Y-116508361D01*
X92583436Y-116508360D01*
X92765460Y-116457538D01*
X92765463Y-116457537D01*
X92770824Y-116456040D01*
X92949457Y-116365806D01*
X93107162Y-116242593D01*
X93137053Y-116207964D01*
X93234288Y-116095317D01*
X93234290Y-116095314D01*
X93237931Y-116091096D01*
X93255676Y-116059860D01*
X93291300Y-115997150D01*
X93336784Y-115917083D01*
X93349145Y-115879925D01*
X93357945Y-115860042D01*
X93360241Y-115855959D01*
X93362983Y-115851082D01*
X93366181Y-115841298D01*
X93415593Y-115690098D01*
X93415602Y-115690069D01*
X93415824Y-115689390D01*
X93418201Y-115681494D01*
X93418495Y-115680427D01*
X93418715Y-115679549D01*
X93420368Y-115672932D01*
X93420371Y-115672919D01*
X93420538Y-115672251D01*
X93420690Y-115671575D01*
X93455048Y-115518537D01*
X93455055Y-115518505D01*
X93455155Y-115518059D01*
X93456389Y-115512075D01*
X93456539Y-115511278D01*
X93457557Y-115505306D01*
X93462244Y-115474611D01*
X93471876Y-115411522D01*
X93479226Y-115363381D01*
X93479547Y-115361183D01*
X93479592Y-115360861D01*
X93479940Y-115358226D01*
X93481309Y-115347221D01*
X93491896Y-115262068D01*
X93495913Y-115229755D01*
X93496330Y-115226740D01*
X93512840Y-115117863D01*
X93514774Y-115108037D01*
X93536198Y-115019865D01*
X93541120Y-115004466D01*
X93571652Y-114928089D01*
X93580394Y-114910698D01*
X93627996Y-114833274D01*
X93639246Y-114817991D01*
X93716940Y-114729032D01*
X93728220Y-114717805D01*
X93818894Y-114639366D01*
X93852935Y-114609918D01*
X93853221Y-114609560D01*
X93861643Y-114602034D01*
X94071930Y-114440675D01*
X94134998Y-114392282D01*
X94139822Y-114388777D01*
X94151864Y-114380501D01*
X94690122Y-114010566D01*
X94695096Y-114007335D01*
X95264469Y-113658423D01*
X95269634Y-113655441D01*
X95856456Y-113336822D01*
X95861749Y-113334125D01*
X96464466Y-113046642D01*
X96469914Y-113044217D01*
X96536001Y-113016843D01*
X97086822Y-112788685D01*
X97092379Y-112786552D01*
X97721832Y-112563650D01*
X97727505Y-112561807D01*
X97868092Y-112520163D01*
X98367745Y-112372159D01*
X98373492Y-112370618D01*
X99022798Y-112214732D01*
X99028621Y-112213495D01*
X99254737Y-112171586D01*
X99495489Y-112126965D01*
X99559388Y-112133527D01*
X99609595Y-112173594D01*
X99630171Y-112234445D01*
X99614581Y-112296759D01*
X99567777Y-112340754D01*
X99548639Y-112348362D01*
X99541045Y-112350611D01*
X99541009Y-112350623D01*
X99539607Y-112351038D01*
X99538211Y-112351532D01*
X99538209Y-112351533D01*
X99484320Y-112370616D01*
X98944006Y-112561951D01*
X98551389Y-112724577D01*
X98372176Y-112798809D01*
X98360259Y-112803745D01*
X97789967Y-113075760D01*
X97234693Y-113377248D01*
X97233419Y-113378028D01*
X97233415Y-113378031D01*
X97074894Y-113475173D01*
X96695958Y-113707385D01*
X96175240Y-114065264D01*
X96075426Y-114141854D01*
X96058003Y-114151972D01*
X96058293Y-114152508D01*
X96053365Y-114155175D01*
X96048207Y-114157343D01*
X96043577Y-114160472D01*
X96043571Y-114160475D01*
X95899443Y-114257871D01*
X95888514Y-114264398D01*
X95879569Y-114269084D01*
X95766591Y-114328268D01*
X95753149Y-114334237D01*
X95649260Y-114372547D01*
X95635051Y-114376759D01*
X95574624Y-114390472D01*
X95538055Y-114398771D01*
X95526147Y-114400816D01*
X95423664Y-114412865D01*
X95416794Y-114413463D01*
X95316436Y-114419114D01*
X95299263Y-114420081D01*
X95298406Y-114420126D01*
X95166451Y-114426560D01*
X95166398Y-114426563D01*
X95166272Y-114426569D01*
X95166140Y-114426577D01*
X95166061Y-114426581D01*
X95163170Y-114426751D01*
X95163160Y-114426752D01*
X95162864Y-114426769D01*
X95162410Y-114426800D01*
X95158785Y-114427085D01*
X95158545Y-114427106D01*
X95158477Y-114427112D01*
X95015762Y-114439833D01*
X95015748Y-114439834D01*
X95015281Y-114439876D01*
X95014813Y-114439926D01*
X95014797Y-114439928D01*
X95013322Y-114440087D01*
X95008868Y-114440567D01*
X95008013Y-114440675D01*
X95007419Y-114440761D01*
X95007398Y-114440764D01*
X95002124Y-114441529D01*
X95002118Y-114441530D01*
X95001601Y-114441605D01*
X95001125Y-114441683D01*
X95001119Y-114441684D01*
X94843318Y-114467566D01*
X94843295Y-114467570D01*
X94842710Y-114467666D01*
X94838784Y-114468402D01*
X94835477Y-114469022D01*
X94835451Y-114469027D01*
X94834844Y-114469141D01*
X94833812Y-114469359D01*
X94826192Y-114471147D01*
X94825575Y-114471306D01*
X94825544Y-114471314D01*
X94657887Y-114514621D01*
X94657882Y-114514623D01*
X94654586Y-114515474D01*
X94651416Y-114516711D01*
X94651410Y-114516713D01*
X94618838Y-114529424D01*
X94618835Y-114529426D01*
X94615679Y-114530657D01*
X94615666Y-114530623D01*
X94603236Y-114535286D01*
X94561220Y-114547653D01*
X94561215Y-114547655D01*
X94555864Y-114549230D01*
X94378508Y-114641950D01*
X94368654Y-114649873D01*
X94250163Y-114745143D01*
X94222539Y-114767353D01*
X94093897Y-114920661D01*
X93997484Y-115096037D01*
X93995801Y-115101343D01*
X93995800Y-115101345D01*
X93953496Y-115234703D01*
X93936970Y-115286799D01*
X93914662Y-115485683D01*
X93931408Y-115685111D01*
X93943472Y-115727184D01*
X93981424Y-115859535D01*
X93986572Y-115877489D01*
X93989122Y-115882450D01*
X93989122Y-115882451D01*
X94009415Y-115921936D01*
X94078051Y-116055488D01*
X94202362Y-116212329D01*
X94354769Y-116342038D01*
X94401790Y-116368317D01*
X94524596Y-116436951D01*
X94524598Y-116436952D01*
X94529467Y-116439673D01*
X94534776Y-116441398D01*
X94714498Y-116499794D01*
X94714502Y-116499795D01*
X94719802Y-116501517D01*
X94777190Y-116508360D01*
X94912988Y-116524553D01*
X94912990Y-116524553D01*
X94918525Y-116525213D01*
X95118065Y-116509859D01*
X95123430Y-116508361D01*
X95123436Y-116508360D01*
X95305460Y-116457538D01*
X95305463Y-116457537D01*
X95310824Y-116456040D01*
X95489457Y-116365806D01*
X95647162Y-116242593D01*
X95677053Y-116207964D01*
X95774288Y-116095317D01*
X95774290Y-116095314D01*
X95777931Y-116091096D01*
X95795676Y-116059860D01*
X95852530Y-115959777D01*
X95876784Y-115917083D01*
X95878544Y-115911793D01*
X95878546Y-115911788D01*
X95888187Y-115882804D01*
X95897185Y-115862570D01*
X95901665Y-115854668D01*
X95940612Y-115736898D01*
X95954725Y-115694222D01*
X95954731Y-115694204D01*
X95954946Y-115693553D01*
X95957163Y-115686278D01*
X95957175Y-115686236D01*
X95957369Y-115685600D01*
X95957668Y-115684528D01*
X95959726Y-115676404D01*
X95960518Y-115672932D01*
X95994734Y-115522915D01*
X95994745Y-115522867D01*
X95994830Y-115522492D01*
X95996086Y-115516504D01*
X95996238Y-115515711D01*
X95997266Y-115509805D01*
X96001041Y-115485683D01*
X96454662Y-115485683D01*
X96471408Y-115685111D01*
X96483472Y-115727184D01*
X96521424Y-115859535D01*
X96526572Y-115877489D01*
X96529122Y-115882450D01*
X96529122Y-115882451D01*
X96549415Y-115921936D01*
X96618051Y-116055488D01*
X96742362Y-116212329D01*
X96894769Y-116342038D01*
X96941790Y-116368317D01*
X97064596Y-116436951D01*
X97064598Y-116436952D01*
X97069467Y-116439673D01*
X97074776Y-116441398D01*
X97254498Y-116499794D01*
X97254502Y-116499795D01*
X97259802Y-116501517D01*
X97317190Y-116508360D01*
X97452988Y-116524553D01*
X97452990Y-116524553D01*
X97458525Y-116525213D01*
X97658065Y-116509859D01*
X97663430Y-116508361D01*
X97663436Y-116508360D01*
X97845460Y-116457538D01*
X97845463Y-116457537D01*
X97850824Y-116456040D01*
X98029457Y-116365806D01*
X98187162Y-116242593D01*
X98217053Y-116207964D01*
X98314288Y-116095317D01*
X98314290Y-116095314D01*
X98317931Y-116091096D01*
X98335676Y-116059860D01*
X98392530Y-115959777D01*
X98416784Y-115917083D01*
X98418543Y-115911796D01*
X98418545Y-115911791D01*
X98478196Y-115732472D01*
X98478196Y-115732471D01*
X98479955Y-115727184D01*
X98482590Y-115706330D01*
X98498474Y-115580594D01*
X98505038Y-115528632D01*
X98505275Y-115511676D01*
X98505394Y-115503182D01*
X98505394Y-115503174D01*
X98505438Y-115500000D01*
X98504034Y-115485683D01*
X98994662Y-115485683D01*
X99011408Y-115685111D01*
X99023472Y-115727184D01*
X99061424Y-115859535D01*
X99066572Y-115877489D01*
X99069122Y-115882450D01*
X99069122Y-115882451D01*
X99089415Y-115921936D01*
X99158051Y-116055488D01*
X99282362Y-116212329D01*
X99434769Y-116342038D01*
X99481790Y-116368317D01*
X99604596Y-116436951D01*
X99604598Y-116436952D01*
X99609467Y-116439673D01*
X99614776Y-116441398D01*
X99794498Y-116499794D01*
X99794502Y-116499795D01*
X99799802Y-116501517D01*
X99857190Y-116508360D01*
X99992988Y-116524553D01*
X99992990Y-116524553D01*
X99998525Y-116525213D01*
X100198065Y-116509859D01*
X100203430Y-116508361D01*
X100203436Y-116508360D01*
X100385460Y-116457538D01*
X100385463Y-116457537D01*
X100390824Y-116456040D01*
X100569457Y-116365806D01*
X100727162Y-116242593D01*
X100757053Y-116207964D01*
X100854288Y-116095317D01*
X100854290Y-116095314D01*
X100857931Y-116091096D01*
X100875676Y-116059860D01*
X100932530Y-115959777D01*
X100956784Y-115917083D01*
X100958543Y-115911796D01*
X100958545Y-115911791D01*
X101009338Y-115759100D01*
X101045964Y-115706330D01*
X101105306Y-115681739D01*
X101168522Y-115693134D01*
X101215542Y-115736898D01*
X101228721Y-115770021D01*
X101258673Y-115902930D01*
X101261461Y-115911823D01*
X101341954Y-116110055D01*
X101346157Y-116118377D01*
X101457951Y-116300807D01*
X101463451Y-116308322D01*
X101603538Y-116470043D01*
X101610199Y-116476566D01*
X101774818Y-116613236D01*
X101782453Y-116618581D01*
X101967178Y-116726526D01*
X101975588Y-116730555D01*
X102175452Y-116806875D01*
X102184427Y-116809483D01*
X102289935Y-116830949D01*
X102302652Y-116829867D01*
X102306000Y-116820507D01*
X102306000Y-116820243D01*
X102814000Y-116820243D01*
X102817677Y-116832766D01*
X102829813Y-116834606D01*
X102838671Y-116833471D01*
X102847793Y-116831533D01*
X103052716Y-116770052D01*
X103061407Y-116766646D01*
X103253537Y-116672523D01*
X103261545Y-116667749D01*
X103435725Y-116543509D01*
X103442852Y-116537486D01*
X103594398Y-116386466D01*
X103600444Y-116379362D01*
X103725285Y-116205628D01*
X103730100Y-116197614D01*
X103824890Y-116005823D01*
X103828324Y-115997150D01*
X103890522Y-115792432D01*
X103893480Y-115778752D01*
X103894607Y-115778996D01*
X103918397Y-115725228D01*
X103972019Y-115689863D01*
X104036250Y-115689102D01*
X104090695Y-115723188D01*
X104115014Y-115767434D01*
X104141424Y-115859535D01*
X104146572Y-115877489D01*
X104149122Y-115882450D01*
X104149122Y-115882451D01*
X104169415Y-115921936D01*
X104238051Y-116055488D01*
X104362362Y-116212329D01*
X104514769Y-116342038D01*
X104561790Y-116368317D01*
X104684596Y-116436951D01*
X104684598Y-116436952D01*
X104689467Y-116439673D01*
X104694776Y-116441398D01*
X104874498Y-116499794D01*
X104874502Y-116499795D01*
X104879802Y-116501517D01*
X104937190Y-116508360D01*
X105072988Y-116524553D01*
X105072990Y-116524553D01*
X105078525Y-116525213D01*
X105278065Y-116509859D01*
X105283430Y-116508361D01*
X105283436Y-116508360D01*
X105465460Y-116457538D01*
X105465463Y-116457537D01*
X105470824Y-116456040D01*
X105649457Y-116365806D01*
X105807162Y-116242593D01*
X105837053Y-116207964D01*
X105934288Y-116095317D01*
X105934290Y-116095314D01*
X105937931Y-116091096D01*
X105955676Y-116059860D01*
X106012530Y-115959777D01*
X106036784Y-115917083D01*
X106038543Y-115911796D01*
X106038545Y-115911791D01*
X106098196Y-115732472D01*
X106098196Y-115732471D01*
X106099955Y-115727184D01*
X106102590Y-115706330D01*
X106118474Y-115580594D01*
X106125038Y-115528632D01*
X106125275Y-115511676D01*
X106125394Y-115503182D01*
X106125394Y-115503174D01*
X106125438Y-115500000D01*
X106124034Y-115485683D01*
X106614662Y-115485683D01*
X106631408Y-115685111D01*
X106643472Y-115727184D01*
X106681424Y-115859535D01*
X106686572Y-115877489D01*
X106689122Y-115882450D01*
X106689122Y-115882451D01*
X106709415Y-115921936D01*
X106778051Y-116055488D01*
X106902362Y-116212329D01*
X107054769Y-116342038D01*
X107101790Y-116368317D01*
X107224596Y-116436951D01*
X107224598Y-116436952D01*
X107229467Y-116439673D01*
X107234776Y-116441398D01*
X107414498Y-116499794D01*
X107414502Y-116499795D01*
X107419802Y-116501517D01*
X107477190Y-116508360D01*
X107612988Y-116524553D01*
X107612990Y-116524553D01*
X107618525Y-116525213D01*
X107818065Y-116509859D01*
X107823430Y-116508361D01*
X107823436Y-116508360D01*
X108005460Y-116457538D01*
X108005463Y-116457537D01*
X108010824Y-116456040D01*
X108189457Y-116365806D01*
X108347162Y-116242593D01*
X108377053Y-116207964D01*
X108474288Y-116095317D01*
X108474290Y-116095314D01*
X108477931Y-116091096D01*
X108495676Y-116059860D01*
X108552530Y-115959777D01*
X108576784Y-115917083D01*
X108578543Y-115911796D01*
X108578545Y-115911791D01*
X108629338Y-115759100D01*
X108665964Y-115706330D01*
X108725306Y-115681739D01*
X108788522Y-115693134D01*
X108835542Y-115736898D01*
X108848721Y-115770021D01*
X108878673Y-115902930D01*
X108881461Y-115911823D01*
X108961954Y-116110055D01*
X108966157Y-116118377D01*
X109077951Y-116300807D01*
X109083451Y-116308322D01*
X109223538Y-116470043D01*
X109230199Y-116476566D01*
X109394818Y-116613236D01*
X109402453Y-116618581D01*
X109587178Y-116726526D01*
X109595588Y-116730555D01*
X109795452Y-116806875D01*
X109804427Y-116809483D01*
X109909935Y-116830949D01*
X109922652Y-116829867D01*
X109926000Y-116820507D01*
X109926000Y-116820243D01*
X110434000Y-116820243D01*
X110437677Y-116832766D01*
X110449813Y-116834606D01*
X110458671Y-116833471D01*
X110467793Y-116831533D01*
X110672716Y-116770052D01*
X110681407Y-116766646D01*
X110873537Y-116672523D01*
X110881545Y-116667749D01*
X111055725Y-116543509D01*
X111062852Y-116537486D01*
X111214398Y-116386466D01*
X111220444Y-116379362D01*
X111345285Y-116205628D01*
X111350100Y-116197614D01*
X111444890Y-116005823D01*
X111448324Y-115997150D01*
X111510522Y-115792432D01*
X111513480Y-115778752D01*
X111514607Y-115778996D01*
X111538397Y-115725228D01*
X111592019Y-115689863D01*
X111656250Y-115689102D01*
X111710695Y-115723188D01*
X111735014Y-115767434D01*
X111761424Y-115859535D01*
X111766572Y-115877489D01*
X111769122Y-115882450D01*
X111769122Y-115882451D01*
X111789415Y-115921936D01*
X111858051Y-116055488D01*
X111982362Y-116212329D01*
X112134769Y-116342038D01*
X112181790Y-116368317D01*
X112304596Y-116436951D01*
X112304598Y-116436952D01*
X112309467Y-116439673D01*
X112314776Y-116441398D01*
X112494498Y-116499794D01*
X112494502Y-116499795D01*
X112499802Y-116501517D01*
X112557190Y-116508360D01*
X112692988Y-116524553D01*
X112692990Y-116524553D01*
X112698525Y-116525213D01*
X112898065Y-116509859D01*
X112903430Y-116508361D01*
X112903436Y-116508360D01*
X113085460Y-116457538D01*
X113085463Y-116457537D01*
X113090824Y-116456040D01*
X113269457Y-116365806D01*
X113427162Y-116242593D01*
X113457053Y-116207964D01*
X113554288Y-116095317D01*
X113554290Y-116095314D01*
X113557931Y-116091096D01*
X113575676Y-116059860D01*
X113632530Y-115959777D01*
X113656784Y-115917083D01*
X113658543Y-115911796D01*
X113658545Y-115911791D01*
X113718196Y-115732472D01*
X113718196Y-115732471D01*
X113719955Y-115727184D01*
X113722590Y-115706330D01*
X113738474Y-115580594D01*
X113745038Y-115528632D01*
X113745275Y-115511676D01*
X113745394Y-115503182D01*
X113745394Y-115503174D01*
X113745438Y-115500000D01*
X113744034Y-115485683D01*
X114234662Y-115485683D01*
X114251408Y-115685111D01*
X114263472Y-115727184D01*
X114301424Y-115859535D01*
X114306572Y-115877489D01*
X114309122Y-115882450D01*
X114309122Y-115882451D01*
X114329415Y-115921936D01*
X114398051Y-116055488D01*
X114522362Y-116212329D01*
X114674769Y-116342038D01*
X114721790Y-116368317D01*
X114844596Y-116436951D01*
X114844598Y-116436952D01*
X114849467Y-116439673D01*
X114854776Y-116441398D01*
X115034498Y-116499794D01*
X115034502Y-116499795D01*
X115039802Y-116501517D01*
X115097190Y-116508360D01*
X115232988Y-116524553D01*
X115232990Y-116524553D01*
X115238525Y-116525213D01*
X115438065Y-116509859D01*
X115443430Y-116508361D01*
X115443436Y-116508360D01*
X115625460Y-116457538D01*
X115625463Y-116457537D01*
X115630824Y-116456040D01*
X115809457Y-116365806D01*
X115967162Y-116242593D01*
X115997053Y-116207964D01*
X116094288Y-116095317D01*
X116094290Y-116095314D01*
X116097931Y-116091096D01*
X116115676Y-116059860D01*
X116172530Y-115959777D01*
X116196784Y-115917083D01*
X116198543Y-115911796D01*
X116198545Y-115911791D01*
X116258196Y-115732472D01*
X116258196Y-115732471D01*
X116259955Y-115727184D01*
X116262590Y-115706330D01*
X116278474Y-115580594D01*
X116285038Y-115528632D01*
X116285275Y-115511676D01*
X116285394Y-115503182D01*
X116285394Y-115503174D01*
X116285438Y-115500000D01*
X116284034Y-115485683D01*
X116774662Y-115485683D01*
X116791408Y-115685111D01*
X116803472Y-115727184D01*
X116841424Y-115859535D01*
X116846572Y-115877489D01*
X116849122Y-115882450D01*
X116849122Y-115882451D01*
X116869415Y-115921936D01*
X116938051Y-116055488D01*
X117062362Y-116212329D01*
X117214769Y-116342038D01*
X117261790Y-116368317D01*
X117384596Y-116436951D01*
X117384598Y-116436952D01*
X117389467Y-116439673D01*
X117394776Y-116441398D01*
X117574498Y-116499794D01*
X117574502Y-116499795D01*
X117579802Y-116501517D01*
X117637190Y-116508360D01*
X117772988Y-116524553D01*
X117772990Y-116524553D01*
X117778525Y-116525213D01*
X117978065Y-116509859D01*
X117983430Y-116508361D01*
X117983436Y-116508360D01*
X118165460Y-116457538D01*
X118165463Y-116457537D01*
X118170824Y-116456040D01*
X118349457Y-116365806D01*
X118507162Y-116242593D01*
X118537053Y-116207964D01*
X118634288Y-116095317D01*
X118634290Y-116095314D01*
X118637931Y-116091096D01*
X118655676Y-116059860D01*
X118712530Y-115959777D01*
X118736784Y-115917083D01*
X118738543Y-115911796D01*
X118738545Y-115911791D01*
X118798196Y-115732472D01*
X118798196Y-115732471D01*
X118799955Y-115727184D01*
X118802590Y-115706330D01*
X118818474Y-115580594D01*
X118825038Y-115528632D01*
X118825275Y-115511676D01*
X118825394Y-115503182D01*
X118825394Y-115503174D01*
X118825438Y-115500000D01*
X118824034Y-115485683D01*
X119314662Y-115485683D01*
X119331408Y-115685111D01*
X119343472Y-115727184D01*
X119381424Y-115859535D01*
X119386572Y-115877489D01*
X119389122Y-115882450D01*
X119389122Y-115882451D01*
X119409415Y-115921936D01*
X119478051Y-116055488D01*
X119602362Y-116212329D01*
X119754769Y-116342038D01*
X119801790Y-116368317D01*
X119924596Y-116436951D01*
X119924598Y-116436952D01*
X119929467Y-116439673D01*
X119934776Y-116441398D01*
X120114498Y-116499794D01*
X120114502Y-116499795D01*
X120119802Y-116501517D01*
X120177190Y-116508360D01*
X120312988Y-116524553D01*
X120312990Y-116524553D01*
X120318525Y-116525213D01*
X120518065Y-116509859D01*
X120523430Y-116508361D01*
X120523436Y-116508360D01*
X120705460Y-116457538D01*
X120705463Y-116457537D01*
X120710824Y-116456040D01*
X120889457Y-116365806D01*
X121047162Y-116242593D01*
X121077053Y-116207964D01*
X121174288Y-116095317D01*
X121174290Y-116095314D01*
X121177931Y-116091096D01*
X121195676Y-116059860D01*
X121252530Y-115959777D01*
X121276784Y-115917083D01*
X121278543Y-115911796D01*
X121278545Y-115911791D01*
X121329338Y-115759100D01*
X121365964Y-115706330D01*
X121425306Y-115681739D01*
X121488522Y-115693134D01*
X121535542Y-115736898D01*
X121548721Y-115770021D01*
X121578673Y-115902930D01*
X121581461Y-115911823D01*
X121661954Y-116110055D01*
X121666157Y-116118377D01*
X121777951Y-116300807D01*
X121783451Y-116308322D01*
X121923538Y-116470043D01*
X121930199Y-116476566D01*
X122094818Y-116613236D01*
X122102453Y-116618581D01*
X122287178Y-116726526D01*
X122295588Y-116730555D01*
X122495452Y-116806875D01*
X122504427Y-116809483D01*
X122609935Y-116830949D01*
X122622652Y-116829867D01*
X122626000Y-116820507D01*
X122626000Y-114181376D01*
X122622455Y-114169304D01*
X122609537Y-114167506D01*
X122568835Y-114173735D01*
X122559760Y-114175897D01*
X122356396Y-114242366D01*
X122347798Y-114245980D01*
X122158025Y-114344770D01*
X122150134Y-114349739D01*
X121979035Y-114478204D01*
X121972070Y-114484388D01*
X121824251Y-114639072D01*
X121818382Y-114646319D01*
X121697816Y-114823062D01*
X121693209Y-114831172D01*
X121603130Y-115025232D01*
X121599908Y-115033988D01*
X121544934Y-115232218D01*
X121511024Y-115286774D01*
X121453003Y-115314335D01*
X121389291Y-115306153D01*
X121340117Y-115264824D01*
X121325946Y-115234703D01*
X121289678Y-115114578D01*
X121289677Y-115114577D01*
X121288065Y-115109236D01*
X121283871Y-115101347D01*
X121196727Y-114937455D01*
X121194109Y-114932531D01*
X121067621Y-114777441D01*
X121055427Y-114767353D01*
X120917718Y-114653430D01*
X120917716Y-114653429D01*
X120913418Y-114649873D01*
X120737373Y-114554686D01*
X120546193Y-114495506D01*
X120534709Y-114494299D01*
X120352697Y-114475169D01*
X120352696Y-114475169D01*
X120347159Y-114474587D01*
X120147852Y-114492725D01*
X119955864Y-114549230D01*
X119778508Y-114641950D01*
X119768654Y-114649873D01*
X119650163Y-114745143D01*
X119622539Y-114767353D01*
X119493897Y-114920661D01*
X119397484Y-115096037D01*
X119395801Y-115101343D01*
X119395800Y-115101345D01*
X119353496Y-115234703D01*
X119336970Y-115286799D01*
X119314662Y-115485683D01*
X118824034Y-115485683D01*
X118816105Y-115404817D01*
X118806454Y-115306378D01*
X118806453Y-115306373D01*
X118805909Y-115300825D01*
X118801675Y-115286799D01*
X118749678Y-115114578D01*
X118749677Y-115114577D01*
X118748065Y-115109236D01*
X118743871Y-115101347D01*
X118656727Y-114937455D01*
X118654109Y-114932531D01*
X118527621Y-114777441D01*
X118515427Y-114767353D01*
X118377718Y-114653430D01*
X118377716Y-114653429D01*
X118373418Y-114649873D01*
X118197373Y-114554686D01*
X118006193Y-114495506D01*
X117994709Y-114494299D01*
X117812697Y-114475169D01*
X117812696Y-114475169D01*
X117807159Y-114474587D01*
X117607852Y-114492725D01*
X117415864Y-114549230D01*
X117238508Y-114641950D01*
X117228654Y-114649873D01*
X117110163Y-114745143D01*
X117082539Y-114767353D01*
X116953897Y-114920661D01*
X116857484Y-115096037D01*
X116855801Y-115101343D01*
X116855800Y-115101345D01*
X116813496Y-115234703D01*
X116796970Y-115286799D01*
X116774662Y-115485683D01*
X116284034Y-115485683D01*
X116276105Y-115404817D01*
X116266454Y-115306378D01*
X116266453Y-115306373D01*
X116265909Y-115300825D01*
X116261675Y-115286799D01*
X116209678Y-115114578D01*
X116209677Y-115114577D01*
X116208065Y-115109236D01*
X116203871Y-115101347D01*
X116116727Y-114937455D01*
X116114109Y-114932531D01*
X115987621Y-114777441D01*
X115975427Y-114767353D01*
X115837718Y-114653430D01*
X115837716Y-114653429D01*
X115833418Y-114649873D01*
X115657373Y-114554686D01*
X115466193Y-114495506D01*
X115454709Y-114494299D01*
X115272697Y-114475169D01*
X115272696Y-114475169D01*
X115267159Y-114474587D01*
X115067852Y-114492725D01*
X114875864Y-114549230D01*
X114698508Y-114641950D01*
X114688654Y-114649873D01*
X114570163Y-114745143D01*
X114542539Y-114767353D01*
X114413897Y-114920661D01*
X114317484Y-115096037D01*
X114315801Y-115101343D01*
X114315800Y-115101345D01*
X114273496Y-115234703D01*
X114256970Y-115286799D01*
X114234662Y-115485683D01*
X113744034Y-115485683D01*
X113736105Y-115404817D01*
X113726454Y-115306378D01*
X113726453Y-115306373D01*
X113725909Y-115300825D01*
X113721675Y-115286799D01*
X113669678Y-115114578D01*
X113669677Y-115114577D01*
X113668065Y-115109236D01*
X113663871Y-115101347D01*
X113576727Y-114937455D01*
X113574109Y-114932531D01*
X113447621Y-114777441D01*
X113435427Y-114767353D01*
X113297718Y-114653430D01*
X113297716Y-114653429D01*
X113293418Y-114649873D01*
X113117373Y-114554686D01*
X112926193Y-114495506D01*
X112914709Y-114494299D01*
X112732697Y-114475169D01*
X112732696Y-114475169D01*
X112727159Y-114474587D01*
X112527852Y-114492725D01*
X112335864Y-114549230D01*
X112158508Y-114641950D01*
X112148654Y-114649873D01*
X112030163Y-114745143D01*
X112002539Y-114767353D01*
X111873897Y-114920661D01*
X111777484Y-115096037D01*
X111775801Y-115101342D01*
X111775799Y-115101347D01*
X111732197Y-115238798D01*
X111696311Y-115292074D01*
X111637318Y-115317491D01*
X111573949Y-115306980D01*
X111526322Y-115263877D01*
X111512968Y-115232101D01*
X111471095Y-115065400D01*
X111468090Y-115056574D01*
X111382779Y-114860371D01*
X111378370Y-114852147D01*
X111262153Y-114672504D01*
X111256474Y-114665129D01*
X111112472Y-114506873D01*
X111105662Y-114500523D01*
X110937751Y-114367915D01*
X110929984Y-114362755D01*
X110742681Y-114259358D01*
X110734170Y-114255533D01*
X110532495Y-114184116D01*
X110523476Y-114181733D01*
X110450139Y-114168670D01*
X110438108Y-114169990D01*
X110434000Y-114183160D01*
X110434000Y-116820243D01*
X109926000Y-116820243D01*
X109926000Y-114181376D01*
X109922455Y-114169304D01*
X109909537Y-114167506D01*
X109868835Y-114173735D01*
X109859760Y-114175897D01*
X109656396Y-114242366D01*
X109647798Y-114245980D01*
X109458025Y-114344770D01*
X109450134Y-114349739D01*
X109279035Y-114478204D01*
X109272070Y-114484388D01*
X109124251Y-114639072D01*
X109118382Y-114646319D01*
X108997816Y-114823062D01*
X108993209Y-114831172D01*
X108903130Y-115025232D01*
X108899908Y-115033988D01*
X108844934Y-115232218D01*
X108811024Y-115286774D01*
X108753003Y-115314335D01*
X108689291Y-115306153D01*
X108640117Y-115264824D01*
X108625946Y-115234703D01*
X108589678Y-115114578D01*
X108589677Y-115114577D01*
X108588065Y-115109236D01*
X108583871Y-115101347D01*
X108496727Y-114937455D01*
X108494109Y-114932531D01*
X108367621Y-114777441D01*
X108355427Y-114767353D01*
X108217718Y-114653430D01*
X108217716Y-114653429D01*
X108213418Y-114649873D01*
X108037373Y-114554686D01*
X107846193Y-114495506D01*
X107834709Y-114494299D01*
X107652697Y-114475169D01*
X107652696Y-114475169D01*
X107647159Y-114474587D01*
X107447852Y-114492725D01*
X107255864Y-114549230D01*
X107078508Y-114641950D01*
X107068654Y-114649873D01*
X106950163Y-114745143D01*
X106922539Y-114767353D01*
X106793897Y-114920661D01*
X106697484Y-115096037D01*
X106695801Y-115101343D01*
X106695800Y-115101345D01*
X106653496Y-115234703D01*
X106636970Y-115286799D01*
X106614662Y-115485683D01*
X106124034Y-115485683D01*
X106116105Y-115404817D01*
X106106454Y-115306378D01*
X106106453Y-115306373D01*
X106105909Y-115300825D01*
X106101675Y-115286799D01*
X106049678Y-115114578D01*
X106049677Y-115114577D01*
X106048065Y-115109236D01*
X106043871Y-115101347D01*
X105956727Y-114937455D01*
X105954109Y-114932531D01*
X105827621Y-114777441D01*
X105815427Y-114767353D01*
X105677718Y-114653430D01*
X105677716Y-114653429D01*
X105673418Y-114649873D01*
X105497373Y-114554686D01*
X105306193Y-114495506D01*
X105294709Y-114494299D01*
X105112697Y-114475169D01*
X105112696Y-114475169D01*
X105107159Y-114474587D01*
X104907852Y-114492725D01*
X104715864Y-114549230D01*
X104538508Y-114641950D01*
X104528654Y-114649873D01*
X104410163Y-114745143D01*
X104382539Y-114767353D01*
X104253897Y-114920661D01*
X104157484Y-115096037D01*
X104155801Y-115101342D01*
X104155799Y-115101347D01*
X104112197Y-115238798D01*
X104076311Y-115292074D01*
X104017318Y-115317491D01*
X103953949Y-115306980D01*
X103906322Y-115263877D01*
X103892968Y-115232101D01*
X103851095Y-115065400D01*
X103848090Y-115056574D01*
X103762779Y-114860371D01*
X103758370Y-114852147D01*
X103642153Y-114672504D01*
X103636474Y-114665129D01*
X103492472Y-114506873D01*
X103485662Y-114500523D01*
X103317751Y-114367915D01*
X103309984Y-114362755D01*
X103122681Y-114259358D01*
X103114170Y-114255533D01*
X102912495Y-114184116D01*
X102903476Y-114181733D01*
X102830139Y-114168670D01*
X102818108Y-114169990D01*
X102814000Y-114183160D01*
X102814000Y-116820243D01*
X102306000Y-116820243D01*
X102306000Y-114181376D01*
X102302455Y-114169304D01*
X102289537Y-114167506D01*
X102248835Y-114173735D01*
X102239760Y-114175897D01*
X102036396Y-114242366D01*
X102027798Y-114245980D01*
X101838025Y-114344770D01*
X101830134Y-114349739D01*
X101659035Y-114478204D01*
X101652070Y-114484388D01*
X101504251Y-114639072D01*
X101498382Y-114646319D01*
X101377816Y-114823062D01*
X101373209Y-114831172D01*
X101283130Y-115025232D01*
X101279908Y-115033988D01*
X101224934Y-115232218D01*
X101191024Y-115286774D01*
X101133003Y-115314335D01*
X101069291Y-115306153D01*
X101020117Y-115264824D01*
X101005946Y-115234703D01*
X100969678Y-115114578D01*
X100969677Y-115114577D01*
X100968065Y-115109236D01*
X100963871Y-115101347D01*
X100876727Y-114937455D01*
X100874109Y-114932531D01*
X100747621Y-114777441D01*
X100735427Y-114767353D01*
X100597718Y-114653430D01*
X100597716Y-114653429D01*
X100593418Y-114649873D01*
X100417373Y-114554686D01*
X100226193Y-114495506D01*
X100214709Y-114494299D01*
X100032697Y-114475169D01*
X100032696Y-114475169D01*
X100027159Y-114474587D01*
X99827852Y-114492725D01*
X99635864Y-114549230D01*
X99458508Y-114641950D01*
X99448654Y-114649873D01*
X99330163Y-114745143D01*
X99302539Y-114767353D01*
X99173897Y-114920661D01*
X99077484Y-115096037D01*
X99075801Y-115101343D01*
X99075800Y-115101345D01*
X99033496Y-115234703D01*
X99016970Y-115286799D01*
X98994662Y-115485683D01*
X98504034Y-115485683D01*
X98496105Y-115404817D01*
X98486454Y-115306378D01*
X98486453Y-115306373D01*
X98485909Y-115300825D01*
X98481675Y-115286799D01*
X98429678Y-115114578D01*
X98429677Y-115114577D01*
X98428065Y-115109236D01*
X98423871Y-115101347D01*
X98336727Y-114937455D01*
X98334109Y-114932531D01*
X98207621Y-114777441D01*
X98195427Y-114767353D01*
X98057718Y-114653430D01*
X98057716Y-114653429D01*
X98053418Y-114649873D01*
X97877373Y-114554686D01*
X97686193Y-114495506D01*
X97674709Y-114494299D01*
X97492697Y-114475169D01*
X97492696Y-114475169D01*
X97487159Y-114474587D01*
X97287852Y-114492725D01*
X97095864Y-114549230D01*
X96918508Y-114641950D01*
X96908654Y-114649873D01*
X96790163Y-114745143D01*
X96762539Y-114767353D01*
X96633897Y-114920661D01*
X96537484Y-115096037D01*
X96535801Y-115101343D01*
X96535800Y-115101345D01*
X96493496Y-115234703D01*
X96476970Y-115286799D01*
X96454662Y-115485683D01*
X96001041Y-115485683D01*
X96019460Y-115367972D01*
X96019806Y-115365659D01*
X96019851Y-115365344D01*
X96020177Y-115362942D01*
X96020377Y-115361395D01*
X96036702Y-115234632D01*
X96037150Y-115231499D01*
X96054171Y-115123171D01*
X96056195Y-115113210D01*
X96078056Y-115025790D01*
X96083160Y-115010227D01*
X96113987Y-114934984D01*
X96123014Y-114917451D01*
X96170849Y-114841498D01*
X96182424Y-114826158D01*
X96198865Y-114807816D01*
X96260524Y-114739030D01*
X96272080Y-114727840D01*
X96397695Y-114622323D01*
X96398081Y-114621855D01*
X96406139Y-114614825D01*
X96412659Y-114609918D01*
X96615491Y-114457271D01*
X96620698Y-114453576D01*
X97151453Y-114098938D01*
X97156850Y-114095546D01*
X97444766Y-113925710D01*
X97706631Y-113771241D01*
X97712227Y-113768148D01*
X98003117Y-113617870D01*
X98279352Y-113475164D01*
X98285096Y-113472399D01*
X98337545Y-113448930D01*
X98670371Y-113300000D01*
X111424577Y-113300000D01*
X111444184Y-113448930D01*
X111447042Y-113455831D01*
X111447043Y-113455833D01*
X111498808Y-113580804D01*
X111501669Y-113587711D01*
X111593114Y-113706886D01*
X111599041Y-113711434D01*
X111701645Y-113790164D01*
X111712288Y-113798331D01*
X111733463Y-113807102D01*
X111844167Y-113852957D01*
X111844169Y-113852958D01*
X111851070Y-113855816D01*
X112000000Y-113875423D01*
X112148930Y-113855816D01*
X112155831Y-113852958D01*
X112155833Y-113852957D01*
X112266537Y-113807102D01*
X112287712Y-113798331D01*
X112298356Y-113790164D01*
X112400959Y-113711434D01*
X112406886Y-113706886D01*
X112498331Y-113587711D01*
X112501192Y-113580804D01*
X112552957Y-113455833D01*
X112552958Y-113455831D01*
X112555816Y-113448930D01*
X112575423Y-113300000D01*
X112924577Y-113300000D01*
X112944184Y-113448930D01*
X112947042Y-113455831D01*
X112947043Y-113455833D01*
X112998808Y-113580804D01*
X113001669Y-113587711D01*
X113093114Y-113706886D01*
X113099041Y-113711434D01*
X113201645Y-113790164D01*
X113212288Y-113798331D01*
X113233463Y-113807102D01*
X113344167Y-113852957D01*
X113344169Y-113852958D01*
X113351070Y-113855816D01*
X113500000Y-113875423D01*
X113648930Y-113855816D01*
X113655831Y-113852958D01*
X113655833Y-113852957D01*
X113766537Y-113807102D01*
X113787712Y-113798331D01*
X113798356Y-113790164D01*
X113900959Y-113711434D01*
X113906886Y-113706886D01*
X113998331Y-113587711D01*
X114001192Y-113580804D01*
X114052957Y-113455833D01*
X114052958Y-113455831D01*
X114055816Y-113448930D01*
X114075423Y-113300000D01*
X114055816Y-113151070D01*
X114031158Y-113091539D01*
X114001192Y-113019196D01*
X113998331Y-113012289D01*
X113974791Y-112981610D01*
X113911434Y-112899041D01*
X113906886Y-112893114D01*
X113847938Y-112847882D01*
X113793642Y-112806219D01*
X113793641Y-112806218D01*
X113787712Y-112801669D01*
X113743702Y-112783440D01*
X113655833Y-112747043D01*
X113655831Y-112747042D01*
X113648930Y-112744184D01*
X113500000Y-112724577D01*
X113351070Y-112744184D01*
X113344169Y-112747042D01*
X113344167Y-112747043D01*
X113248792Y-112786549D01*
X113212289Y-112801669D01*
X113093114Y-112893114D01*
X113088566Y-112899041D01*
X113025210Y-112981610D01*
X113001669Y-113012289D01*
X112998808Y-113019196D01*
X112968843Y-113091539D01*
X112944184Y-113151070D01*
X112924577Y-113300000D01*
X112575423Y-113300000D01*
X112555816Y-113151070D01*
X112531158Y-113091539D01*
X112501192Y-113019196D01*
X112498331Y-113012289D01*
X112474791Y-112981610D01*
X112411434Y-112899041D01*
X112406886Y-112893114D01*
X112347938Y-112847882D01*
X112293642Y-112806219D01*
X112293641Y-112806218D01*
X112287712Y-112801669D01*
X112243702Y-112783440D01*
X112155833Y-112747043D01*
X112155831Y-112747042D01*
X112148930Y-112744184D01*
X112000000Y-112724577D01*
X111851070Y-112744184D01*
X111844169Y-112747042D01*
X111844167Y-112747043D01*
X111748792Y-112786549D01*
X111712289Y-112801669D01*
X111593114Y-112893114D01*
X111588566Y-112899041D01*
X111525210Y-112981610D01*
X111501669Y-113012289D01*
X111498808Y-113019196D01*
X111468843Y-113091539D01*
X111444184Y-113151070D01*
X111424577Y-113300000D01*
X98670371Y-113300000D01*
X98741013Y-113268390D01*
X98867728Y-113211689D01*
X98873626Y-113209246D01*
X99469976Y-112981608D01*
X99475999Y-112979500D01*
X100084153Y-112785666D01*
X100090299Y-112783895D01*
X100708381Y-112624460D01*
X100714615Y-112623037D01*
X101340658Y-112498511D01*
X101346962Y-112497440D01*
X101816456Y-112431159D01*
X101979003Y-112408212D01*
X101985350Y-112407496D01*
X102621411Y-112353848D01*
X102627791Y-112353490D01*
X103173773Y-112338173D01*
X103235903Y-112336430D01*
X103258893Y-112338116D01*
X103259215Y-112338173D01*
X103259217Y-112338173D01*
X103269035Y-112339904D01*
X103284189Y-112337232D01*
X103303984Y-112335500D01*
X116809898Y-112335500D01*
X116829688Y-112337231D01*
X116844852Y-112339904D01*
X116853981Y-112338294D01*
X116855385Y-112338171D01*
X116856574Y-112338171D01*
X116858931Y-112337861D01*
X116948883Y-112329986D01*
X117008814Y-112324740D01*
X117167794Y-112282135D01*
X117316961Y-112212573D01*
X117451784Y-112118167D01*
X117568167Y-112001784D01*
X117662573Y-111866961D01*
X117732135Y-111717794D01*
X117774740Y-111558814D01*
X117783630Y-111457254D01*
X117784410Y-111452513D01*
X117784914Y-111451250D01*
X117785500Y-111445273D01*
X117785500Y-111440881D01*
X117785934Y-111430937D01*
X117787861Y-111408929D01*
X117788171Y-111406573D01*
X117788171Y-111405385D01*
X117788294Y-111403981D01*
X117789904Y-111394852D01*
X117787231Y-111379688D01*
X117785500Y-111359898D01*
X117785500Y-111214000D01*
X117803597Y-111152367D01*
X117852143Y-111110302D01*
X117899500Y-111100000D01*
X119100500Y-111100000D01*
X119162133Y-111118097D01*
G37*
%TD.AperFunction*%
%TD*%
%TA.AperFunction,Conductor*%
%TO.N,/UART1_RXD*%
G36*
X128443575Y-89813157D02*
G01*
X128517681Y-89855893D01*
X128517695Y-89855900D01*
X128517859Y-89855995D01*
X128591444Y-89892148D01*
X128591658Y-89892233D01*
X128656834Y-89918171D01*
X128656845Y-89918175D01*
X128657049Y-89918256D01*
X128657277Y-89918326D01*
X128657278Y-89918326D01*
X128717038Y-89936583D01*
X128717044Y-89936585D01*
X128717245Y-89936646D01*
X128717441Y-89936690D01*
X128717447Y-89936692D01*
X128774454Y-89949608D01*
X128774462Y-89949610D01*
X128774605Y-89949642D01*
X128774743Y-89949666D01*
X128774758Y-89949669D01*
X128801811Y-89954373D01*
X128831702Y-89959571D01*
X128891088Y-89968754D01*
X128891233Y-89968778D01*
X128955177Y-89979489D01*
X128955589Y-89979565D01*
X128997549Y-89988149D01*
X129026894Y-89994152D01*
X129027418Y-89994273D01*
X129058480Y-90002217D01*
X129100811Y-90013043D01*
X129107977Y-90018413D01*
X129109576Y-90023465D01*
X129148508Y-90520770D01*
X129145738Y-90529285D01*
X129137302Y-90533374D01*
X128638941Y-90552836D01*
X128630540Y-90549735D01*
X128627525Y-90545241D01*
X128603645Y-90481351D01*
X128603418Y-90480683D01*
X128583400Y-90415368D01*
X128583291Y-90414991D01*
X128567003Y-90354688D01*
X128551616Y-90298804D01*
X128551612Y-90298790D01*
X128551571Y-90298642D01*
X128534101Y-90246101D01*
X128511655Y-90196136D01*
X128481291Y-90147815D01*
X128440069Y-90100210D01*
X128385048Y-90052389D01*
X128384767Y-90052197D01*
X128322503Y-90009710D01*
X128317601Y-90002217D01*
X128319130Y-89993920D01*
X128427762Y-89817166D01*
X128435014Y-89811912D01*
X128443575Y-89813157D01*
G37*
%TD.AperFunction*%
%TD*%
%TA.AperFunction,Conductor*%
%TO.N,/UART1_RXD*%
G36*
X126261021Y-113728262D02*
G01*
X126498967Y-113899542D01*
X126499018Y-113899576D01*
X126499020Y-113899578D01*
X126711811Y-114043940D01*
X126711833Y-114043954D01*
X126711918Y-114044012D01*
X126712002Y-114044065D01*
X126712023Y-114044078D01*
X126784568Y-114089283D01*
X126899323Y-114160791D01*
X127000213Y-114216920D01*
X127069870Y-114255673D01*
X127069883Y-114255680D01*
X127070029Y-114255761D01*
X127070175Y-114255832D01*
X127070181Y-114255835D01*
X127077388Y-114259333D01*
X127232881Y-114334806D01*
X127396726Y-114403810D01*
X127396816Y-114403843D01*
X127396822Y-114403846D01*
X127445387Y-114421978D01*
X127570409Y-114468656D01*
X127762776Y-114535226D01*
X127982674Y-114609405D01*
X128231199Y-114694425D01*
X128237917Y-114700344D01*
X128239109Y-114705265D01*
X128260282Y-115788355D01*
X128257017Y-115796694D01*
X128248355Y-115800282D01*
X127165423Y-115779112D01*
X127157219Y-115775524D01*
X127154516Y-115771002D01*
X127075720Y-115526409D01*
X127075597Y-115526002D01*
X127012215Y-115301653D01*
X127012174Y-115301506D01*
X126958046Y-115099930D01*
X126958035Y-115099889D01*
X126904581Y-114916174D01*
X126843194Y-114745329D01*
X126843068Y-114745065D01*
X126765408Y-114582621D01*
X126765406Y-114582617D01*
X126765248Y-114582287D01*
X126662115Y-114421978D01*
X126525169Y-114259333D01*
X126345781Y-114089283D01*
X126288705Y-114044078D01*
X126124177Y-113913770D01*
X126119819Y-113905947D01*
X126122017Y-113897665D01*
X126244762Y-113730825D01*
X126252425Y-113726191D01*
X126261021Y-113728262D01*
G37*
%TD.AperFunction*%
%TD*%
%TA.AperFunction,Conductor*%
%TO.N,GND*%
G36*
X127661820Y-87285678D02*
G01*
X127685788Y-87289904D01*
X127704004Y-87286692D01*
X127706603Y-87286528D01*
X127991885Y-87300542D01*
X127993028Y-87300655D01*
X128190017Y-87329875D01*
X128197698Y-87334478D01*
X128200000Y-87341448D01*
X128200000Y-87900000D01*
X128200964Y-87900000D01*
X128202063Y-87902652D01*
X128202064Y-87911607D01*
X128201833Y-87912076D01*
X128201669Y-87912289D01*
X128191686Y-87936390D01*
X128181177Y-87961762D01*
X128180233Y-87963576D01*
X128166166Y-87985628D01*
X128141770Y-88048257D01*
X128139920Y-88053227D01*
X128139681Y-88053900D01*
X128137951Y-88059021D01*
X128117246Y-88123562D01*
X128116407Y-88126249D01*
X128116303Y-88126592D01*
X128115829Y-88128205D01*
X128115473Y-88129415D01*
X128115457Y-88129470D01*
X128098617Y-88188564D01*
X128098595Y-88188641D01*
X128083970Y-88238644D01*
X128083772Y-88239255D01*
X128080639Y-88248106D01*
X128070463Y-88276852D01*
X128069986Y-88278002D01*
X128056777Y-88305581D01*
X128055930Y-88307061D01*
X128046433Y-88321158D01*
X128040594Y-88329824D01*
X128039420Y-88331295D01*
X128019959Y-88352003D01*
X128017007Y-88355144D01*
X128015713Y-88356328D01*
X127979547Y-88384765D01*
X127978361Y-88385585D01*
X127924594Y-88418024D01*
X127919956Y-88422146D01*
X127917847Y-88423638D01*
X127830417Y-88471960D01*
X127829234Y-88472529D01*
X127577057Y-88576985D01*
X127575819Y-88577419D01*
X127473540Y-88606886D01*
X127342977Y-88644502D01*
X127313515Y-88652990D01*
X127312237Y-88653282D01*
X127043123Y-88699008D01*
X127041824Y-88699155D01*
X126922538Y-88705855D01*
X126788920Y-88713360D01*
X126786232Y-88713200D01*
X126769637Y-88710274D01*
X126768627Y-88710096D01*
X126767618Y-88710274D01*
X126744661Y-88714322D01*
X126742629Y-88714500D01*
X121188675Y-88714500D01*
X121186688Y-88714330D01*
X121180130Y-88713200D01*
X121162125Y-88710098D01*
X121158978Y-88710666D01*
X121158972Y-88710667D01*
X121157765Y-88710821D01*
X120940060Y-88727075D01*
X120722538Y-88774748D01*
X120722147Y-88774894D01*
X120722143Y-88774895D01*
X120572883Y-88830562D01*
X120513891Y-88852563D01*
X120513531Y-88852759D01*
X120318640Y-88958773D01*
X120318635Y-88958776D01*
X120318275Y-88958972D01*
X120317948Y-88959215D01*
X120317942Y-88959219D01*
X120255252Y-89005839D01*
X120139584Y-89091856D01*
X120139291Y-89092147D01*
X120139289Y-89092148D01*
X120090678Y-89140300D01*
X119981377Y-89248568D01*
X119846802Y-89425989D01*
X119846598Y-89426356D01*
X119740605Y-89616877D01*
X119739959Y-89617907D01*
X119738194Y-89620424D01*
X119737929Y-89621411D01*
X119732450Y-89641797D01*
X119731677Y-89643868D01*
X119426837Y-90272022D01*
X119425790Y-90273772D01*
X119422379Y-90278487D01*
X119411525Y-90293489D01*
X119410283Y-90297855D01*
X119408838Y-90302931D01*
X119408383Y-90304234D01*
X119389554Y-90349355D01*
X119325420Y-90503044D01*
X119325330Y-90503353D01*
X119325330Y-90503354D01*
X119270533Y-90692229D01*
X119262314Y-90720557D01*
X119262260Y-90720875D01*
X119262258Y-90720882D01*
X119244575Y-90824255D01*
X119224126Y-90943796D01*
X119224108Y-90944120D01*
X119224107Y-90944126D01*
X119211972Y-91158807D01*
X119211813Y-91160178D01*
X119211688Y-91160886D01*
X119210096Y-91169918D01*
X119210274Y-91170927D01*
X119214322Y-91193884D01*
X119214500Y-91195916D01*
X119214500Y-111250000D01*
X117785500Y-111250000D01*
X117785500Y-111039084D01*
X118268030Y-111039084D01*
X118297246Y-111068300D01*
X118482060Y-111068300D01*
X118511276Y-111039084D01*
X118748863Y-111039084D01*
X118778079Y-111068300D01*
X118962893Y-111068300D01*
X118992108Y-111039084D01*
X118870486Y-110917462D01*
X118748863Y-111039084D01*
X118511276Y-111039084D01*
X118389653Y-110917462D01*
X118268030Y-111039084D01*
X117785500Y-111039084D01*
X117785500Y-110798668D01*
X118027614Y-110798668D01*
X118149237Y-110920291D01*
X118270859Y-110798668D01*
X118508447Y-110798668D01*
X118630069Y-110920291D01*
X118751692Y-110798668D01*
X118630069Y-110677045D01*
X118508447Y-110798668D01*
X118270859Y-110798668D01*
X118149237Y-110677045D01*
X118027614Y-110798668D01*
X117785500Y-110798668D01*
X117785500Y-110558252D01*
X118268030Y-110558252D01*
X118389653Y-110679874D01*
X118511276Y-110558252D01*
X118748863Y-110558252D01*
X118870486Y-110679874D01*
X118992108Y-110558252D01*
X118870486Y-110436629D01*
X118748863Y-110558252D01*
X118511276Y-110558252D01*
X118389653Y-110436629D01*
X118268030Y-110558252D01*
X117785500Y-110558252D01*
X117785500Y-110317835D01*
X118027614Y-110317835D01*
X118149237Y-110439458D01*
X118270859Y-110317835D01*
X118508447Y-110317835D01*
X118630069Y-110439458D01*
X118751692Y-110317835D01*
X118630069Y-110196213D01*
X118508447Y-110317835D01*
X118270859Y-110317835D01*
X118149237Y-110196213D01*
X118027614Y-110317835D01*
X117785500Y-110317835D01*
X117785500Y-110077419D01*
X118268030Y-110077419D01*
X118389653Y-110199042D01*
X118511276Y-110077419D01*
X118748863Y-110077419D01*
X118870486Y-110199042D01*
X118992108Y-110077419D01*
X118870486Y-109955796D01*
X118748863Y-110077419D01*
X118511276Y-110077419D01*
X118389653Y-109955796D01*
X118268030Y-110077419D01*
X117785500Y-110077419D01*
X117785500Y-109837003D01*
X118027614Y-109837003D01*
X118149237Y-109958625D01*
X118270859Y-109837003D01*
X118508447Y-109837003D01*
X118630069Y-109958625D01*
X118751692Y-109837003D01*
X118630069Y-109715380D01*
X118508447Y-109837003D01*
X118270859Y-109837003D01*
X118149237Y-109715380D01*
X118027614Y-109837003D01*
X117785500Y-109837003D01*
X117785500Y-109596586D01*
X118268030Y-109596586D01*
X118389653Y-109718209D01*
X118511276Y-109596586D01*
X118748863Y-109596586D01*
X118870486Y-109718209D01*
X118992108Y-109596586D01*
X118870486Y-109474964D01*
X118748863Y-109596586D01*
X118511276Y-109596586D01*
X118389653Y-109474964D01*
X118268030Y-109596586D01*
X117785500Y-109596586D01*
X117785500Y-109356170D01*
X118027614Y-109356170D01*
X118149237Y-109477793D01*
X118270859Y-109356170D01*
X118508447Y-109356170D01*
X118630069Y-109477793D01*
X118751692Y-109356170D01*
X118630069Y-109234548D01*
X118508447Y-109356170D01*
X118270859Y-109356170D01*
X118149237Y-109234548D01*
X118027614Y-109356170D01*
X117785500Y-109356170D01*
X117785500Y-109115754D01*
X118268030Y-109115754D01*
X118389653Y-109237377D01*
X118511276Y-109115754D01*
X118748863Y-109115754D01*
X118870486Y-109237377D01*
X118992108Y-109115754D01*
X118870486Y-108994131D01*
X118748863Y-109115754D01*
X118511276Y-109115754D01*
X118389653Y-108994131D01*
X118268030Y-109115754D01*
X117785500Y-109115754D01*
X117785500Y-108875338D01*
X118027614Y-108875338D01*
X118149237Y-108996960D01*
X118270859Y-108875338D01*
X118508447Y-108875338D01*
X118630069Y-108996960D01*
X118751692Y-108875338D01*
X118630069Y-108753715D01*
X118508447Y-108875338D01*
X118270859Y-108875338D01*
X118149237Y-108753715D01*
X118027614Y-108875338D01*
X117785500Y-108875338D01*
X117785500Y-108634921D01*
X118268030Y-108634921D01*
X118389653Y-108756544D01*
X118511276Y-108634921D01*
X118748863Y-108634921D01*
X118870486Y-108756544D01*
X118992108Y-108634921D01*
X118870486Y-108513299D01*
X118748863Y-108634921D01*
X118511276Y-108634921D01*
X118389653Y-108513299D01*
X118268030Y-108634921D01*
X117785500Y-108634921D01*
X117785500Y-108394505D01*
X118027614Y-108394505D01*
X118149237Y-108516128D01*
X118270859Y-108394505D01*
X118508447Y-108394505D01*
X118630069Y-108516128D01*
X118751692Y-108394505D01*
X118630069Y-108272882D01*
X118508447Y-108394505D01*
X118270859Y-108394505D01*
X118149237Y-108272882D01*
X118027614Y-108394505D01*
X117785500Y-108394505D01*
X117785500Y-108154089D01*
X118268030Y-108154089D01*
X118389653Y-108275711D01*
X118511276Y-108154089D01*
X118748863Y-108154089D01*
X118870486Y-108275711D01*
X118992108Y-108154089D01*
X118870486Y-108032466D01*
X118748863Y-108154089D01*
X118511276Y-108154089D01*
X118389653Y-108032466D01*
X118268030Y-108154089D01*
X117785500Y-108154089D01*
X117785500Y-107913672D01*
X118027614Y-107913672D01*
X118149237Y-108035295D01*
X118270859Y-107913672D01*
X118508447Y-107913672D01*
X118630069Y-108035295D01*
X118751692Y-107913672D01*
X118630069Y-107792050D01*
X118508447Y-107913672D01*
X118270859Y-107913672D01*
X118149237Y-107792050D01*
X118027614Y-107913672D01*
X117785500Y-107913672D01*
X117785500Y-107673256D01*
X118268030Y-107673256D01*
X118389653Y-107794879D01*
X118511276Y-107673256D01*
X118748863Y-107673256D01*
X118870486Y-107794879D01*
X118992108Y-107673256D01*
X118870486Y-107551633D01*
X118748863Y-107673256D01*
X118511276Y-107673256D01*
X118389653Y-107551633D01*
X118268030Y-107673256D01*
X117785500Y-107673256D01*
X117785500Y-107432840D01*
X118027614Y-107432840D01*
X118149237Y-107554462D01*
X118270859Y-107432840D01*
X118508447Y-107432840D01*
X118630069Y-107554462D01*
X118751692Y-107432840D01*
X118630069Y-107311217D01*
X118508447Y-107432840D01*
X118270859Y-107432840D01*
X118149237Y-107311217D01*
X118027614Y-107432840D01*
X117785500Y-107432840D01*
X117785500Y-107192423D01*
X118268030Y-107192423D01*
X118389653Y-107314046D01*
X118511276Y-107192423D01*
X118748863Y-107192423D01*
X118870486Y-107314046D01*
X118992108Y-107192423D01*
X118870486Y-107070801D01*
X118748863Y-107192423D01*
X118511276Y-107192423D01*
X118389653Y-107070801D01*
X118268030Y-107192423D01*
X117785500Y-107192423D01*
X117785500Y-106952007D01*
X118027614Y-106952007D01*
X118149237Y-107073630D01*
X118270859Y-106952007D01*
X118508447Y-106952007D01*
X118630069Y-107073630D01*
X118751692Y-106952007D01*
X118630069Y-106830384D01*
X118508447Y-106952007D01*
X118270859Y-106952007D01*
X118149237Y-106830384D01*
X118027614Y-106952007D01*
X117785500Y-106952007D01*
X117785500Y-106711591D01*
X118268030Y-106711591D01*
X118389653Y-106833213D01*
X118511276Y-106711591D01*
X118748863Y-106711591D01*
X118870486Y-106833213D01*
X118992108Y-106711591D01*
X118870486Y-106589968D01*
X118748863Y-106711591D01*
X118511276Y-106711591D01*
X118389653Y-106589968D01*
X118268030Y-106711591D01*
X117785500Y-106711591D01*
X117785500Y-106471175D01*
X118027614Y-106471175D01*
X118149237Y-106592797D01*
X118270859Y-106471175D01*
X118508447Y-106471175D01*
X118630069Y-106592797D01*
X118751692Y-106471175D01*
X118630069Y-106349552D01*
X118508447Y-106471175D01*
X118270859Y-106471175D01*
X118149237Y-106349552D01*
X118027614Y-106471175D01*
X117785500Y-106471175D01*
X117785500Y-106230758D01*
X118268030Y-106230758D01*
X118389653Y-106352381D01*
X118511276Y-106230758D01*
X118748863Y-106230758D01*
X118870486Y-106352381D01*
X118992108Y-106230758D01*
X118870486Y-106109136D01*
X118748863Y-106230758D01*
X118511276Y-106230758D01*
X118389653Y-106109136D01*
X118268030Y-106230758D01*
X117785500Y-106230758D01*
X117785500Y-105990342D01*
X118027614Y-105990342D01*
X118149237Y-106111965D01*
X118270859Y-105990342D01*
X118508447Y-105990342D01*
X118630069Y-106111965D01*
X118751692Y-105990342D01*
X118630069Y-105868719D01*
X118508447Y-105990342D01*
X118270859Y-105990342D01*
X118149237Y-105868719D01*
X118027614Y-105990342D01*
X117785500Y-105990342D01*
X117785500Y-105749926D01*
X118268030Y-105749926D01*
X118389653Y-105871548D01*
X118511276Y-105749926D01*
X118748863Y-105749926D01*
X118870486Y-105871548D01*
X118992108Y-105749926D01*
X118870486Y-105628303D01*
X118748863Y-105749926D01*
X118511276Y-105749926D01*
X118389653Y-105628303D01*
X118268030Y-105749926D01*
X117785500Y-105749926D01*
X117785500Y-105509509D01*
X118027614Y-105509509D01*
X118149237Y-105631132D01*
X118270859Y-105509509D01*
X118508447Y-105509509D01*
X118630069Y-105631132D01*
X118751692Y-105509509D01*
X118630069Y-105387887D01*
X118508447Y-105509509D01*
X118270859Y-105509509D01*
X118149237Y-105387887D01*
X118027614Y-105509509D01*
X117785500Y-105509509D01*
X117785500Y-105269093D01*
X118268030Y-105269093D01*
X118389653Y-105390716D01*
X118511276Y-105269093D01*
X118748863Y-105269093D01*
X118870486Y-105390716D01*
X118992108Y-105269093D01*
X118870486Y-105147470D01*
X118748863Y-105269093D01*
X118511276Y-105269093D01*
X118389653Y-105147470D01*
X118268030Y-105269093D01*
X117785500Y-105269093D01*
X117785500Y-105028677D01*
X118027614Y-105028677D01*
X118149237Y-105150299D01*
X118270859Y-105028677D01*
X118508447Y-105028677D01*
X118630069Y-105150299D01*
X118751692Y-105028677D01*
X118630069Y-104907054D01*
X118508447Y-105028677D01*
X118270859Y-105028677D01*
X118149237Y-104907054D01*
X118027614Y-105028677D01*
X117785500Y-105028677D01*
X117785500Y-104788260D01*
X118268030Y-104788260D01*
X118389653Y-104909883D01*
X118511276Y-104788260D01*
X118748863Y-104788260D01*
X118870486Y-104909883D01*
X118992108Y-104788260D01*
X118870486Y-104666638D01*
X118748863Y-104788260D01*
X118511276Y-104788260D01*
X118389653Y-104666638D01*
X118268030Y-104788260D01*
X117785500Y-104788260D01*
X117785500Y-104547844D01*
X118027614Y-104547844D01*
X118149237Y-104669467D01*
X118270859Y-104547844D01*
X118508447Y-104547844D01*
X118630069Y-104669467D01*
X118751692Y-104547844D01*
X118630069Y-104426221D01*
X118508447Y-104547844D01*
X118270859Y-104547844D01*
X118149237Y-104426221D01*
X118027614Y-104547844D01*
X117785500Y-104547844D01*
X117785500Y-104307428D01*
X118268030Y-104307428D01*
X118389653Y-104429050D01*
X118511276Y-104307428D01*
X118748863Y-104307428D01*
X118870486Y-104429050D01*
X118992108Y-104307428D01*
X118870486Y-104185805D01*
X118748863Y-104307428D01*
X118511276Y-104307428D01*
X118389653Y-104185805D01*
X118268030Y-104307428D01*
X117785500Y-104307428D01*
X117785500Y-104067011D01*
X118027614Y-104067011D01*
X118149237Y-104188634D01*
X118270859Y-104067011D01*
X118508447Y-104067011D01*
X118630069Y-104188634D01*
X118751692Y-104067011D01*
X118630069Y-103945389D01*
X118508447Y-104067011D01*
X118270859Y-104067011D01*
X118149237Y-103945389D01*
X118027614Y-104067011D01*
X117785500Y-104067011D01*
X117785500Y-103826595D01*
X118268030Y-103826595D01*
X118389653Y-103948218D01*
X118511276Y-103826595D01*
X118748863Y-103826595D01*
X118870486Y-103948218D01*
X118992108Y-103826595D01*
X118870486Y-103704972D01*
X118748863Y-103826595D01*
X118511276Y-103826595D01*
X118389653Y-103704972D01*
X118268030Y-103826595D01*
X117785500Y-103826595D01*
X117785500Y-103586179D01*
X118027614Y-103586179D01*
X118149237Y-103707802D01*
X118270859Y-103586179D01*
X118508447Y-103586179D01*
X118630069Y-103707802D01*
X118751692Y-103586179D01*
X118630069Y-103464556D01*
X118508447Y-103586179D01*
X118270859Y-103586179D01*
X118149237Y-103464556D01*
X118027614Y-103586179D01*
X117785500Y-103586179D01*
X117785500Y-103345763D01*
X118268030Y-103345763D01*
X118389653Y-103467385D01*
X118511276Y-103345763D01*
X118748863Y-103345763D01*
X118870486Y-103467385D01*
X118992108Y-103345763D01*
X118870486Y-103224140D01*
X118748863Y-103345763D01*
X118511276Y-103345763D01*
X118389653Y-103224140D01*
X118268030Y-103345763D01*
X117785500Y-103345763D01*
X117785500Y-103105346D01*
X118027614Y-103105346D01*
X118149237Y-103226969D01*
X118270859Y-103105346D01*
X118508447Y-103105346D01*
X118630069Y-103226969D01*
X118751692Y-103105346D01*
X118630069Y-102983724D01*
X118508447Y-103105346D01*
X118270859Y-103105346D01*
X118149237Y-102983724D01*
X118027614Y-103105346D01*
X117785500Y-103105346D01*
X117785500Y-102864930D01*
X118268030Y-102864930D01*
X118389653Y-102986553D01*
X118511276Y-102864930D01*
X118748863Y-102864930D01*
X118870486Y-102986553D01*
X118992108Y-102864930D01*
X118870486Y-102743307D01*
X118748863Y-102864930D01*
X118511276Y-102864930D01*
X118389653Y-102743307D01*
X118268030Y-102864930D01*
X117785500Y-102864930D01*
X117785500Y-102624514D01*
X118027614Y-102624514D01*
X118149237Y-102746136D01*
X118270859Y-102624514D01*
X118508447Y-102624514D01*
X118630069Y-102746136D01*
X118751692Y-102624514D01*
X118630069Y-102502891D01*
X118508447Y-102624514D01*
X118270859Y-102624514D01*
X118149237Y-102502891D01*
X118027614Y-102624514D01*
X117785500Y-102624514D01*
X117785500Y-102384097D01*
X118268030Y-102384097D01*
X118389653Y-102505720D01*
X118511276Y-102384097D01*
X118748863Y-102384097D01*
X118870486Y-102505720D01*
X118992108Y-102384097D01*
X118870486Y-102262475D01*
X118748863Y-102384097D01*
X118511276Y-102384097D01*
X118389653Y-102262475D01*
X118268030Y-102384097D01*
X117785500Y-102384097D01*
X117785500Y-102143681D01*
X118027614Y-102143681D01*
X118149237Y-102265304D01*
X118270859Y-102143681D01*
X118508447Y-102143681D01*
X118630069Y-102265304D01*
X118751692Y-102143681D01*
X118630069Y-102022058D01*
X118508447Y-102143681D01*
X118270859Y-102143681D01*
X118149237Y-102022058D01*
X118027614Y-102143681D01*
X117785500Y-102143681D01*
X117785500Y-101903265D01*
X118268030Y-101903265D01*
X118389653Y-102024887D01*
X118511276Y-101903265D01*
X118748863Y-101903265D01*
X118870486Y-102024887D01*
X118992108Y-101903265D01*
X118870486Y-101781642D01*
X118748863Y-101903265D01*
X118511276Y-101903265D01*
X118389653Y-101781642D01*
X118268030Y-101903265D01*
X117785500Y-101903265D01*
X117785500Y-101662848D01*
X118027614Y-101662848D01*
X118149237Y-101784471D01*
X118270859Y-101662848D01*
X118508447Y-101662848D01*
X118630069Y-101784471D01*
X118751692Y-101662848D01*
X118630069Y-101541226D01*
X118508447Y-101662848D01*
X118270859Y-101662848D01*
X118149237Y-101541226D01*
X118027614Y-101662848D01*
X117785500Y-101662848D01*
X117785500Y-101422432D01*
X118268030Y-101422432D01*
X118389653Y-101544055D01*
X118511276Y-101422432D01*
X118748863Y-101422432D01*
X118870486Y-101544055D01*
X118992108Y-101422432D01*
X118870486Y-101300809D01*
X118748863Y-101422432D01*
X118511276Y-101422432D01*
X118389653Y-101300809D01*
X118268030Y-101422432D01*
X117785500Y-101422432D01*
X117785500Y-101182016D01*
X118027614Y-101182016D01*
X118149237Y-101303638D01*
X118270859Y-101182016D01*
X118508447Y-101182016D01*
X118630069Y-101303638D01*
X118751692Y-101182016D01*
X118630069Y-101060393D01*
X118508447Y-101182016D01*
X118270859Y-101182016D01*
X118149237Y-101060393D01*
X118027614Y-101182016D01*
X117785500Y-101182016D01*
X117785500Y-100941599D01*
X118268030Y-100941599D01*
X118389653Y-101063222D01*
X118511276Y-100941599D01*
X118748863Y-100941599D01*
X118870486Y-101063222D01*
X118992108Y-100941599D01*
X118870486Y-100819977D01*
X118748863Y-100941599D01*
X118511276Y-100941599D01*
X118389653Y-100819977D01*
X118268030Y-100941599D01*
X117785500Y-100941599D01*
X117785500Y-100701183D01*
X118027614Y-100701183D01*
X118149237Y-100822806D01*
X118270859Y-100701183D01*
X118508447Y-100701183D01*
X118630069Y-100822806D01*
X118751692Y-100701183D01*
X118630069Y-100579561D01*
X118508447Y-100701183D01*
X118270859Y-100701183D01*
X118149237Y-100579561D01*
X118027614Y-100701183D01*
X117785500Y-100701183D01*
X117785500Y-100460767D01*
X118268030Y-100460767D01*
X118389653Y-100582390D01*
X118511276Y-100460767D01*
X118748863Y-100460767D01*
X118870486Y-100582390D01*
X118992108Y-100460767D01*
X118870486Y-100339144D01*
X118748863Y-100460767D01*
X118511276Y-100460767D01*
X118389653Y-100339144D01*
X118268030Y-100460767D01*
X117785500Y-100460767D01*
X117785500Y-100220351D01*
X118027614Y-100220351D01*
X118149237Y-100341973D01*
X118270859Y-100220351D01*
X118508447Y-100220351D01*
X118630069Y-100341973D01*
X118751692Y-100220351D01*
X118630069Y-100098728D01*
X118508447Y-100220351D01*
X118270859Y-100220351D01*
X118149237Y-100098728D01*
X118027614Y-100220351D01*
X117785500Y-100220351D01*
X117785500Y-99979934D01*
X118268030Y-99979934D01*
X118389653Y-100101557D01*
X118511276Y-99979934D01*
X118748863Y-99979934D01*
X118870486Y-100101557D01*
X118992108Y-99979934D01*
X118870486Y-99858312D01*
X118748863Y-99979934D01*
X118511276Y-99979934D01*
X118389653Y-99858312D01*
X118268030Y-99979934D01*
X117785500Y-99979934D01*
X117785500Y-99739518D01*
X118027614Y-99739518D01*
X118149237Y-99861141D01*
X118270859Y-99739518D01*
X118508447Y-99739518D01*
X118630069Y-99861141D01*
X118751692Y-99739518D01*
X118630069Y-99617895D01*
X118508447Y-99739518D01*
X118270859Y-99739518D01*
X118149237Y-99617895D01*
X118027614Y-99739518D01*
X117785500Y-99739518D01*
X117785500Y-99499102D01*
X118268030Y-99499102D01*
X118389653Y-99620724D01*
X118511276Y-99499102D01*
X118748863Y-99499102D01*
X118870486Y-99620724D01*
X118992108Y-99499102D01*
X118870486Y-99377479D01*
X118748863Y-99499102D01*
X118511276Y-99499102D01*
X118389653Y-99377479D01*
X118268030Y-99499102D01*
X117785500Y-99499102D01*
X117785500Y-99258685D01*
X118027614Y-99258685D01*
X118149237Y-99380308D01*
X118270859Y-99258685D01*
X118508447Y-99258685D01*
X118630069Y-99380308D01*
X118751692Y-99258685D01*
X118630069Y-99137063D01*
X118508447Y-99258685D01*
X118270859Y-99258685D01*
X118149237Y-99137063D01*
X118027614Y-99258685D01*
X117785500Y-99258685D01*
X117785500Y-99018269D01*
X118268030Y-99018269D01*
X118389653Y-99139892D01*
X118511276Y-99018269D01*
X118748863Y-99018269D01*
X118870486Y-99139892D01*
X118992108Y-99018269D01*
X118870486Y-98896646D01*
X118748863Y-99018269D01*
X118511276Y-99018269D01*
X118389653Y-98896646D01*
X118268030Y-99018269D01*
X117785500Y-99018269D01*
X117785500Y-98777853D01*
X118027614Y-98777853D01*
X118149237Y-98899475D01*
X118270859Y-98777853D01*
X118508447Y-98777853D01*
X118630069Y-98899475D01*
X118751692Y-98777853D01*
X118630069Y-98656230D01*
X118508447Y-98777853D01*
X118270859Y-98777853D01*
X118149237Y-98656230D01*
X118027614Y-98777853D01*
X117785500Y-98777853D01*
X117785500Y-98537436D01*
X118268030Y-98537436D01*
X118389653Y-98659059D01*
X118511276Y-98537436D01*
X118748863Y-98537436D01*
X118870486Y-98659059D01*
X118992108Y-98537436D01*
X118870486Y-98415814D01*
X118748863Y-98537436D01*
X118511276Y-98537436D01*
X118389653Y-98415814D01*
X118268030Y-98537436D01*
X117785500Y-98537436D01*
X117785500Y-98297020D01*
X118027614Y-98297020D01*
X118149237Y-98418643D01*
X118270859Y-98297020D01*
X118508447Y-98297020D01*
X118630069Y-98418643D01*
X118751692Y-98297020D01*
X118630069Y-98175397D01*
X118508447Y-98297020D01*
X118270859Y-98297020D01*
X118149237Y-98175397D01*
X118027614Y-98297020D01*
X117785500Y-98297020D01*
X117785500Y-98056604D01*
X118268030Y-98056604D01*
X118389653Y-98178226D01*
X118511276Y-98056604D01*
X118748863Y-98056604D01*
X118870486Y-98178226D01*
X118992108Y-98056604D01*
X118870486Y-97934981D01*
X118748863Y-98056604D01*
X118511276Y-98056604D01*
X118389653Y-97934981D01*
X118268030Y-98056604D01*
X117785500Y-98056604D01*
X117785500Y-97816188D01*
X118027614Y-97816188D01*
X118149237Y-97937810D01*
X118270859Y-97816188D01*
X118508447Y-97816188D01*
X118630069Y-97937810D01*
X118751692Y-97816188D01*
X118630069Y-97694565D01*
X118508447Y-97816188D01*
X118270859Y-97816188D01*
X118149237Y-97694565D01*
X118027614Y-97816188D01*
X117785500Y-97816188D01*
X117785500Y-97575771D01*
X118268030Y-97575771D01*
X118389653Y-97697394D01*
X118511276Y-97575771D01*
X118748863Y-97575771D01*
X118870486Y-97697394D01*
X118992108Y-97575771D01*
X118870486Y-97454149D01*
X118748863Y-97575771D01*
X118511276Y-97575771D01*
X118389653Y-97454149D01*
X118268030Y-97575771D01*
X117785500Y-97575771D01*
X117785500Y-97335355D01*
X118027614Y-97335355D01*
X118149237Y-97456978D01*
X118270859Y-97335355D01*
X118508447Y-97335355D01*
X118630069Y-97456978D01*
X118751692Y-97335355D01*
X118630069Y-97213732D01*
X118508447Y-97335355D01*
X118270859Y-97335355D01*
X118149237Y-97213732D01*
X118027614Y-97335355D01*
X117785500Y-97335355D01*
X117785500Y-97094939D01*
X118268030Y-97094939D01*
X118389653Y-97216561D01*
X118511276Y-97094939D01*
X118748863Y-97094939D01*
X118870486Y-97216561D01*
X118992108Y-97094939D01*
X118870486Y-96973316D01*
X118748863Y-97094939D01*
X118511276Y-97094939D01*
X118389653Y-96973316D01*
X118268030Y-97094939D01*
X117785500Y-97094939D01*
X117785500Y-96854522D01*
X118027614Y-96854522D01*
X118149237Y-96976145D01*
X118270859Y-96854522D01*
X118508447Y-96854522D01*
X118630069Y-96976145D01*
X118751692Y-96854522D01*
X118630069Y-96732900D01*
X118508447Y-96854522D01*
X118270859Y-96854522D01*
X118149237Y-96732900D01*
X118027614Y-96854522D01*
X117785500Y-96854522D01*
X117785500Y-96614106D01*
X118268030Y-96614106D01*
X118389653Y-96735729D01*
X118511276Y-96614106D01*
X118748863Y-96614106D01*
X118870486Y-96735729D01*
X118992108Y-96614106D01*
X118870486Y-96492483D01*
X118748863Y-96614106D01*
X118511276Y-96614106D01*
X118389653Y-96492483D01*
X118268030Y-96614106D01*
X117785500Y-96614106D01*
X117785500Y-96373690D01*
X118027614Y-96373690D01*
X118149237Y-96495312D01*
X118270859Y-96373690D01*
X118508447Y-96373690D01*
X118630069Y-96495312D01*
X118751692Y-96373690D01*
X118630069Y-96252067D01*
X118508447Y-96373690D01*
X118270859Y-96373690D01*
X118149237Y-96252067D01*
X118027614Y-96373690D01*
X117785500Y-96373690D01*
X117785500Y-96133273D01*
X118268030Y-96133273D01*
X118389653Y-96254896D01*
X118511276Y-96133273D01*
X118748863Y-96133273D01*
X118870486Y-96254896D01*
X118992108Y-96133273D01*
X118870486Y-96011651D01*
X118748863Y-96133273D01*
X118511276Y-96133273D01*
X118389653Y-96011651D01*
X118268030Y-96133273D01*
X117785500Y-96133273D01*
X117785500Y-95892857D01*
X118027614Y-95892857D01*
X118149237Y-96014480D01*
X118270859Y-95892857D01*
X118508447Y-95892857D01*
X118630069Y-96014480D01*
X118751692Y-95892857D01*
X118630069Y-95771234D01*
X118508447Y-95892857D01*
X118270859Y-95892857D01*
X118149237Y-95771234D01*
X118027614Y-95892857D01*
X117785500Y-95892857D01*
X117785500Y-95652441D01*
X118268030Y-95652441D01*
X118389653Y-95774063D01*
X118511276Y-95652441D01*
X118748863Y-95652441D01*
X118870486Y-95774063D01*
X118992108Y-95652441D01*
X118870486Y-95530818D01*
X118748863Y-95652441D01*
X118511276Y-95652441D01*
X118389653Y-95530818D01*
X118268030Y-95652441D01*
X117785500Y-95652441D01*
X117785500Y-95412024D01*
X118027614Y-95412024D01*
X118149237Y-95533647D01*
X118270859Y-95412024D01*
X118508447Y-95412024D01*
X118630069Y-95533647D01*
X118751692Y-95412024D01*
X118630069Y-95290402D01*
X118508447Y-95412024D01*
X118270859Y-95412024D01*
X118149237Y-95290402D01*
X118027614Y-95412024D01*
X117785500Y-95412024D01*
X117785500Y-95171608D01*
X118268030Y-95171608D01*
X118389653Y-95293231D01*
X118511276Y-95171608D01*
X118748863Y-95171608D01*
X118870486Y-95293231D01*
X118992108Y-95171608D01*
X118870486Y-95049985D01*
X118748863Y-95171608D01*
X118511276Y-95171608D01*
X118389653Y-95049985D01*
X118268030Y-95171608D01*
X117785500Y-95171608D01*
X117785500Y-94931192D01*
X118027614Y-94931192D01*
X118149237Y-95052815D01*
X118270859Y-94931192D01*
X118508447Y-94931192D01*
X118630069Y-95052815D01*
X118751692Y-94931192D01*
X118630069Y-94809569D01*
X118508447Y-94931192D01*
X118270859Y-94931192D01*
X118149237Y-94809569D01*
X118027614Y-94931192D01*
X117785500Y-94931192D01*
X117785500Y-94690776D01*
X118268030Y-94690776D01*
X118389653Y-94812398D01*
X118511276Y-94690776D01*
X118748863Y-94690776D01*
X118870486Y-94812398D01*
X118992108Y-94690776D01*
X118870486Y-94569153D01*
X118748863Y-94690776D01*
X118511276Y-94690776D01*
X118389653Y-94569153D01*
X118268030Y-94690776D01*
X117785500Y-94690776D01*
X117785500Y-94450359D01*
X118027614Y-94450359D01*
X118149237Y-94571982D01*
X118270859Y-94450359D01*
X118508447Y-94450359D01*
X118630069Y-94571982D01*
X118751692Y-94450359D01*
X118630069Y-94328737D01*
X118508447Y-94450359D01*
X118270859Y-94450359D01*
X118149237Y-94328737D01*
X118027614Y-94450359D01*
X117785500Y-94450359D01*
X117785500Y-94209943D01*
X118268030Y-94209943D01*
X118389653Y-94331566D01*
X118511276Y-94209943D01*
X118748863Y-94209943D01*
X118870486Y-94331566D01*
X118992108Y-94209943D01*
X118870486Y-94088320D01*
X118748863Y-94209943D01*
X118511276Y-94209943D01*
X118389653Y-94088320D01*
X118268030Y-94209943D01*
X117785500Y-94209943D01*
X117785500Y-93969527D01*
X118027614Y-93969527D01*
X118149237Y-94091149D01*
X118270859Y-93969527D01*
X118508447Y-93969527D01*
X118630069Y-94091149D01*
X118751692Y-93969527D01*
X118630069Y-93847904D01*
X118508447Y-93969527D01*
X118270859Y-93969527D01*
X118149237Y-93847904D01*
X118027614Y-93969527D01*
X117785500Y-93969527D01*
X117785500Y-93729110D01*
X118268030Y-93729110D01*
X118389653Y-93850733D01*
X118511276Y-93729110D01*
X118748863Y-93729110D01*
X118870486Y-93850733D01*
X118992108Y-93729110D01*
X118870486Y-93607488D01*
X118748863Y-93729110D01*
X118511276Y-93729110D01*
X118389653Y-93607488D01*
X118268030Y-93729110D01*
X117785500Y-93729110D01*
X117785500Y-93488694D01*
X118027614Y-93488694D01*
X118149237Y-93610317D01*
X118270859Y-93488694D01*
X118508447Y-93488694D01*
X118630069Y-93610317D01*
X118751692Y-93488694D01*
X118630069Y-93367071D01*
X118508447Y-93488694D01*
X118270859Y-93488694D01*
X118149237Y-93367071D01*
X118027614Y-93488694D01*
X117785500Y-93488694D01*
X117785500Y-93248278D01*
X118268030Y-93248278D01*
X118389653Y-93369900D01*
X118511276Y-93248278D01*
X118748863Y-93248278D01*
X118870486Y-93369900D01*
X118992108Y-93248278D01*
X118870486Y-93126655D01*
X118748863Y-93248278D01*
X118511276Y-93248278D01*
X118389653Y-93126655D01*
X118268030Y-93248278D01*
X117785500Y-93248278D01*
X117785500Y-93007861D01*
X118027614Y-93007861D01*
X118149237Y-93129484D01*
X118270859Y-93007861D01*
X118508447Y-93007861D01*
X118630069Y-93129484D01*
X118751692Y-93007861D01*
X118630069Y-92886239D01*
X118508447Y-93007861D01*
X118270859Y-93007861D01*
X118149237Y-92886239D01*
X118027614Y-93007861D01*
X117785500Y-93007861D01*
X117785500Y-92767445D01*
X118268030Y-92767445D01*
X118389653Y-92889068D01*
X118511276Y-92767445D01*
X118748863Y-92767445D01*
X118870486Y-92889068D01*
X118992108Y-92767445D01*
X118870486Y-92645822D01*
X118748863Y-92767445D01*
X118511276Y-92767445D01*
X118389653Y-92645822D01*
X118268030Y-92767445D01*
X117785500Y-92767445D01*
X117785500Y-92527029D01*
X118027614Y-92527029D01*
X118149237Y-92648651D01*
X118270859Y-92527029D01*
X118508447Y-92527029D01*
X118630069Y-92648651D01*
X118751692Y-92527029D01*
X118630069Y-92405406D01*
X118508447Y-92527029D01*
X118270859Y-92527029D01*
X118149237Y-92405406D01*
X118027614Y-92527029D01*
X117785500Y-92527029D01*
X117785500Y-92286612D01*
X118268030Y-92286612D01*
X118389653Y-92408235D01*
X118511276Y-92286612D01*
X118748863Y-92286612D01*
X118870486Y-92408235D01*
X118992108Y-92286612D01*
X118870486Y-92164990D01*
X118748863Y-92286612D01*
X118511276Y-92286612D01*
X118389653Y-92164990D01*
X118268030Y-92286612D01*
X117785500Y-92286612D01*
X117785500Y-92046196D01*
X118027614Y-92046196D01*
X118149237Y-92167819D01*
X118270859Y-92046196D01*
X118508447Y-92046196D01*
X118630069Y-92167819D01*
X118751692Y-92046196D01*
X118630069Y-91924574D01*
X118508447Y-92046196D01*
X118270859Y-92046196D01*
X118149237Y-91924574D01*
X118027614Y-92046196D01*
X117785500Y-92046196D01*
X117785500Y-91805780D01*
X118268030Y-91805780D01*
X118389653Y-91927403D01*
X118511276Y-91805780D01*
X118748863Y-91805780D01*
X118870486Y-91927403D01*
X118992108Y-91805780D01*
X118870486Y-91684157D01*
X118748863Y-91805780D01*
X118511276Y-91805780D01*
X118389653Y-91684157D01*
X118268030Y-91805780D01*
X117785500Y-91805780D01*
X117785500Y-91565364D01*
X118027614Y-91565364D01*
X118149237Y-91686986D01*
X118270859Y-91565364D01*
X118508447Y-91565364D01*
X118630069Y-91686986D01*
X118751692Y-91565364D01*
X118630069Y-91443741D01*
X118508447Y-91565364D01*
X118270859Y-91565364D01*
X118149237Y-91443741D01*
X118027614Y-91565364D01*
X117785500Y-91565364D01*
X117785500Y-91324947D01*
X118268030Y-91324947D01*
X118389653Y-91446570D01*
X118511276Y-91324947D01*
X118748863Y-91324947D01*
X118870486Y-91446570D01*
X118992108Y-91324947D01*
X118870486Y-91203325D01*
X118748863Y-91324947D01*
X118511276Y-91324947D01*
X118389653Y-91203325D01*
X118268030Y-91324947D01*
X117785500Y-91324947D01*
X117785500Y-91185875D01*
X117785678Y-91183843D01*
X117789726Y-91160886D01*
X117789904Y-91159877D01*
X117786615Y-91141222D01*
X117786449Y-91138663D01*
X117788897Y-91084531D01*
X118027614Y-91084531D01*
X118149237Y-91206154D01*
X118270859Y-91084531D01*
X118508447Y-91084531D01*
X118630069Y-91206154D01*
X118751692Y-91084531D01*
X118630069Y-90962908D01*
X118508447Y-91084531D01*
X118270859Y-91084531D01*
X118149237Y-90962908D01*
X118027614Y-91084531D01*
X117788897Y-91084531D01*
X117793872Y-90974529D01*
X117799293Y-90854640D01*
X117799388Y-90853588D01*
X117800680Y-90844115D01*
X118268030Y-90844115D01*
X118389653Y-90965737D01*
X118511276Y-90844115D01*
X118748863Y-90844115D01*
X118870486Y-90965737D01*
X118992108Y-90844115D01*
X118870486Y-90722492D01*
X118748863Y-90844115D01*
X118511276Y-90844115D01*
X118389653Y-90722492D01*
X118268030Y-90844115D01*
X117800680Y-90844115D01*
X117816353Y-90729196D01*
X117833469Y-90603698D01*
X118027614Y-90603698D01*
X118149237Y-90725321D01*
X118270859Y-90603698D01*
X118508447Y-90603698D01*
X118630069Y-90725321D01*
X118751692Y-90603698D01*
X118989279Y-90603698D01*
X119093958Y-90708377D01*
X119096720Y-90692229D01*
X119096779Y-90691907D01*
X119098364Y-90683982D01*
X119098433Y-90683663D01*
X119098728Y-90682376D01*
X119098807Y-90682051D01*
X119100879Y-90674067D01*
X119100967Y-90673746D01*
X119146304Y-90517478D01*
X119110902Y-90482076D01*
X118989279Y-90603698D01*
X118751692Y-90603698D01*
X118630069Y-90482076D01*
X118508447Y-90603698D01*
X118270859Y-90603698D01*
X118149237Y-90482076D01*
X118027614Y-90603698D01*
X117833469Y-90603698D01*
X117840609Y-90551350D01*
X117840797Y-90550319D01*
X117840848Y-90550100D01*
X117883785Y-90363282D01*
X118268030Y-90363282D01*
X118389653Y-90484905D01*
X118511276Y-90363282D01*
X118748863Y-90363282D01*
X118870486Y-90484905D01*
X118992108Y-90363282D01*
X118870486Y-90241659D01*
X118748863Y-90363282D01*
X118511276Y-90363282D01*
X118389653Y-90241659D01*
X118268030Y-90363282D01*
X117883785Y-90363282D01*
X117909122Y-90253045D01*
X117909405Y-90252027D01*
X117926813Y-90198833D01*
X118103582Y-90198833D01*
X118149237Y-90244488D01*
X118270859Y-90122866D01*
X118508447Y-90122866D01*
X118630069Y-90244488D01*
X118751692Y-90122866D01*
X118989279Y-90122866D01*
X119110902Y-90244488D01*
X119232525Y-90122866D01*
X119110902Y-90001243D01*
X118989279Y-90122866D01*
X118751692Y-90122866D01*
X118630069Y-90001243D01*
X118508447Y-90122866D01*
X118270859Y-90122866D01*
X118163959Y-90015965D01*
X118161748Y-90021099D01*
X118103582Y-90198833D01*
X117926813Y-90198833D01*
X118004277Y-89962132D01*
X118004651Y-89961143D01*
X118038540Y-89882449D01*
X118268030Y-89882449D01*
X118389653Y-90004072D01*
X118511276Y-89882449D01*
X118748863Y-89882449D01*
X118870486Y-90004072D01*
X118992108Y-89882449D01*
X119229696Y-89882449D01*
X119351318Y-90004072D01*
X119387875Y-89967515D01*
X119443463Y-89852971D01*
X119351318Y-89760827D01*
X119229696Y-89882449D01*
X118992108Y-89882449D01*
X118870486Y-89760827D01*
X118748863Y-89882449D01*
X118511276Y-89882449D01*
X118389653Y-89760827D01*
X118268030Y-89882449D01*
X118038540Y-89882449D01*
X118117127Y-89699962D01*
X118118394Y-89697732D01*
X118128863Y-89683262D01*
X118129465Y-89682430D01*
X118135841Y-89660030D01*
X118136128Y-89659021D01*
X118136855Y-89657116D01*
X118144175Y-89642033D01*
X118508447Y-89642033D01*
X118630069Y-89763656D01*
X118751692Y-89642033D01*
X118989279Y-89642033D01*
X119110902Y-89763656D01*
X119232525Y-89642033D01*
X119470112Y-89642033D01*
X119521090Y-89693011D01*
X119574056Y-89583870D01*
X119575951Y-89576820D01*
X119576259Y-89575846D01*
X119584907Y-89552147D01*
X119585299Y-89551204D01*
X119587020Y-89547522D01*
X119587492Y-89546617D01*
X119593721Y-89535849D01*
X119593796Y-89535202D01*
X119598347Y-89527022D01*
X119591735Y-89520410D01*
X119470112Y-89642033D01*
X119232525Y-89642033D01*
X119110902Y-89520410D01*
X118989279Y-89642033D01*
X118751692Y-89642033D01*
X118630069Y-89520410D01*
X118508447Y-89642033D01*
X118144175Y-89642033D01*
X118260847Y-89401617D01*
X118748863Y-89401617D01*
X118870486Y-89523239D01*
X118992108Y-89401617D01*
X119229696Y-89401617D01*
X119351318Y-89523239D01*
X119472941Y-89401617D01*
X119351318Y-89279994D01*
X119229696Y-89401617D01*
X118992108Y-89401617D01*
X118870486Y-89279994D01*
X118748863Y-89401617D01*
X118260847Y-89401617D01*
X118359285Y-89198776D01*
X118546022Y-89198776D01*
X118630069Y-89282823D01*
X118751692Y-89161201D01*
X118989279Y-89161201D01*
X119110902Y-89282823D01*
X119232525Y-89161201D01*
X119470112Y-89161201D01*
X119591735Y-89282823D01*
X119713357Y-89161201D01*
X119591735Y-89039578D01*
X119470112Y-89161201D01*
X119232525Y-89161201D01*
X119110902Y-89039578D01*
X118989279Y-89161201D01*
X118751692Y-89161201D01*
X118630069Y-89039578D01*
X118624720Y-89044927D01*
X118624588Y-89045242D01*
X118624153Y-89046166D01*
X118612419Y-89068472D01*
X118611905Y-89069354D01*
X118599373Y-89088840D01*
X118546022Y-89198776D01*
X118359285Y-89198776D01*
X118452323Y-89007060D01*
X118453008Y-89005839D01*
X118470052Y-88979338D01*
X118470053Y-88979336D01*
X118470604Y-88978479D01*
X118474605Y-88960795D01*
X118475483Y-88958284D01*
X118493613Y-88920784D01*
X118748863Y-88920784D01*
X118870486Y-89042407D01*
X118992108Y-88920784D01*
X119229696Y-88920784D01*
X119351318Y-89042407D01*
X119472941Y-88920784D01*
X119710528Y-88920784D01*
X119832151Y-89042407D01*
X119953774Y-88920784D01*
X119832151Y-88799162D01*
X119710528Y-88920784D01*
X119472941Y-88920784D01*
X119351318Y-88799162D01*
X119229696Y-88920784D01*
X118992108Y-88920784D01*
X118870486Y-88799162D01*
X118748863Y-88920784D01*
X118493613Y-88920784D01*
X118594256Y-88712610D01*
X118594859Y-88711518D01*
X118614259Y-88680368D01*
X118989279Y-88680368D01*
X119110902Y-88801991D01*
X119232525Y-88680368D01*
X119470112Y-88680368D01*
X119591735Y-88801991D01*
X119713357Y-88680368D01*
X119950945Y-88680368D01*
X120072567Y-88801991D01*
X120194190Y-88680368D01*
X120431777Y-88680368D01*
X120449080Y-88697671D01*
X120454804Y-88695305D01*
X120455186Y-88695155D01*
X120626076Y-88631422D01*
X120553400Y-88558745D01*
X120431777Y-88680368D01*
X120194190Y-88680368D01*
X120072567Y-88558745D01*
X119950945Y-88680368D01*
X119713357Y-88680368D01*
X119591735Y-88558745D01*
X119470112Y-88680368D01*
X119232525Y-88680368D01*
X119110902Y-88558745D01*
X118989279Y-88680368D01*
X118614259Y-88680368D01*
X118678375Y-88577419D01*
X118749636Y-88462999D01*
X118750347Y-88461982D01*
X118760182Y-88449406D01*
X118767576Y-88439952D01*
X119229696Y-88439952D01*
X119351318Y-88561574D01*
X119472941Y-88439952D01*
X119710528Y-88439952D01*
X119832151Y-88561574D01*
X119953774Y-88439952D01*
X120191361Y-88439952D01*
X120312984Y-88561574D01*
X120434606Y-88439952D01*
X120672193Y-88439952D01*
X120793816Y-88561574D01*
X120915439Y-88439952D01*
X121153026Y-88439952D01*
X121259575Y-88546500D01*
X121289723Y-88546500D01*
X121396271Y-88439952D01*
X121633859Y-88439952D01*
X121740407Y-88546500D01*
X121770555Y-88546500D01*
X121877104Y-88439952D01*
X122114691Y-88439952D01*
X122221240Y-88546500D01*
X122251388Y-88546500D01*
X122357937Y-88439952D01*
X122595524Y-88439952D01*
X122702073Y-88546500D01*
X122732221Y-88546500D01*
X122838769Y-88439952D01*
X123076357Y-88439952D01*
X123182905Y-88546500D01*
X123213053Y-88546500D01*
X123319602Y-88439952D01*
X123557189Y-88439952D01*
X123663738Y-88546500D01*
X123693886Y-88546500D01*
X123800434Y-88439952D01*
X124038022Y-88439952D01*
X124144570Y-88546500D01*
X124174718Y-88546500D01*
X124281267Y-88439952D01*
X124518854Y-88439952D01*
X124625403Y-88546500D01*
X124655551Y-88546500D01*
X124762100Y-88439952D01*
X124999687Y-88439952D01*
X125106236Y-88546500D01*
X125136384Y-88546500D01*
X125242932Y-88439952D01*
X125480520Y-88439952D01*
X125587068Y-88546500D01*
X125617216Y-88546500D01*
X125723765Y-88439952D01*
X125961352Y-88439952D01*
X126067901Y-88546500D01*
X126098049Y-88546500D01*
X126204598Y-88439952D01*
X126442185Y-88439952D01*
X126548733Y-88546500D01*
X126578881Y-88546500D01*
X126685430Y-88439952D01*
X126923017Y-88439952D01*
X127015437Y-88532372D01*
X127023630Y-88531912D01*
X127084675Y-88521540D01*
X127166263Y-88439952D01*
X127403850Y-88439952D01*
X127413304Y-88449406D01*
X127520880Y-88418413D01*
X127594897Y-88387754D01*
X127525473Y-88318329D01*
X127403850Y-88439952D01*
X127166263Y-88439952D01*
X127044640Y-88318329D01*
X126923017Y-88439952D01*
X126685430Y-88439952D01*
X126563807Y-88318329D01*
X126442185Y-88439952D01*
X126204598Y-88439952D01*
X126082975Y-88318329D01*
X125961352Y-88439952D01*
X125723765Y-88439952D01*
X125602142Y-88318329D01*
X125480520Y-88439952D01*
X125242932Y-88439952D01*
X125121310Y-88318329D01*
X124999687Y-88439952D01*
X124762100Y-88439952D01*
X124640477Y-88318329D01*
X124518854Y-88439952D01*
X124281267Y-88439952D01*
X124159644Y-88318329D01*
X124038022Y-88439952D01*
X123800434Y-88439952D01*
X123678812Y-88318329D01*
X123557189Y-88439952D01*
X123319602Y-88439952D01*
X123197979Y-88318329D01*
X123076357Y-88439952D01*
X122838769Y-88439952D01*
X122717147Y-88318329D01*
X122595524Y-88439952D01*
X122357937Y-88439952D01*
X122236314Y-88318329D01*
X122114691Y-88439952D01*
X121877104Y-88439952D01*
X121755481Y-88318329D01*
X121633859Y-88439952D01*
X121396271Y-88439952D01*
X121274649Y-88318329D01*
X121153026Y-88439952D01*
X120915439Y-88439952D01*
X120793816Y-88318329D01*
X120672193Y-88439952D01*
X120434606Y-88439952D01*
X120312984Y-88318329D01*
X120191361Y-88439952D01*
X119953774Y-88439952D01*
X119832151Y-88318329D01*
X119710528Y-88439952D01*
X119472941Y-88439952D01*
X119351318Y-88318329D01*
X119229696Y-88439952D01*
X118767576Y-88439952D01*
X118930722Y-88231339D01*
X118931530Y-88230412D01*
X118961493Y-88199535D01*
X119470112Y-88199535D01*
X119591735Y-88321158D01*
X119713357Y-88199535D01*
X119950945Y-88199535D01*
X120072567Y-88321158D01*
X120194190Y-88199535D01*
X120431777Y-88199535D01*
X120553400Y-88321158D01*
X120675022Y-88199535D01*
X120912610Y-88199535D01*
X121034232Y-88321158D01*
X121155855Y-88199535D01*
X121393442Y-88199535D01*
X121515065Y-88321158D01*
X121636688Y-88199535D01*
X121874275Y-88199535D01*
X121995898Y-88321158D01*
X122117520Y-88199535D01*
X122355108Y-88199535D01*
X122476730Y-88321158D01*
X122598353Y-88199535D01*
X122835940Y-88199535D01*
X122957563Y-88321158D01*
X123079186Y-88199535D01*
X123316773Y-88199535D01*
X123438395Y-88321158D01*
X123560018Y-88199535D01*
X123797605Y-88199535D01*
X123919228Y-88321158D01*
X124040851Y-88199535D01*
X124278438Y-88199535D01*
X124400061Y-88321158D01*
X124521683Y-88199535D01*
X124759271Y-88199535D01*
X124880893Y-88321158D01*
X125002516Y-88199535D01*
X125240103Y-88199535D01*
X125361726Y-88321158D01*
X125483349Y-88199535D01*
X125720936Y-88199535D01*
X125842559Y-88321158D01*
X125964181Y-88199535D01*
X126201768Y-88199535D01*
X126323391Y-88321158D01*
X126445014Y-88199535D01*
X126682601Y-88199535D01*
X126804224Y-88321158D01*
X126870912Y-88254469D01*
X126817393Y-88218708D01*
X127182607Y-88218708D01*
X127285056Y-88321158D01*
X127406679Y-88199535D01*
X127644266Y-88199535D01*
X127762355Y-88317624D01*
X127778155Y-88308892D01*
X127887512Y-88199535D01*
X127765889Y-88077913D01*
X127644266Y-88199535D01*
X127406679Y-88199535D01*
X127285056Y-88077913D01*
X127270447Y-88092522D01*
X127267317Y-88108256D01*
X127265570Y-88112473D01*
X127205541Y-88202313D01*
X127202313Y-88205541D01*
X127182607Y-88218708D01*
X126817393Y-88218708D01*
X126797687Y-88205541D01*
X126794459Y-88202313D01*
X126748542Y-88133594D01*
X126682601Y-88199535D01*
X126445014Y-88199535D01*
X126323391Y-88077913D01*
X126201768Y-88199535D01*
X125964181Y-88199535D01*
X125842559Y-88077913D01*
X125720936Y-88199535D01*
X125483349Y-88199535D01*
X125361726Y-88077913D01*
X125240103Y-88199535D01*
X125002516Y-88199535D01*
X124880893Y-88077913D01*
X124759271Y-88199535D01*
X124521683Y-88199535D01*
X124400061Y-88077913D01*
X124278438Y-88199535D01*
X124040851Y-88199535D01*
X123919228Y-88077913D01*
X123797605Y-88199535D01*
X123560018Y-88199535D01*
X123438395Y-88077913D01*
X123316773Y-88199535D01*
X123079186Y-88199535D01*
X122957563Y-88077913D01*
X122835940Y-88199535D01*
X122598353Y-88199535D01*
X122476730Y-88077913D01*
X122355108Y-88199535D01*
X122117520Y-88199535D01*
X121995898Y-88077913D01*
X121874275Y-88199535D01*
X121636688Y-88199535D01*
X121515065Y-88077913D01*
X121393442Y-88199535D01*
X121155855Y-88199535D01*
X121034232Y-88077913D01*
X120912610Y-88199535D01*
X120675022Y-88199535D01*
X120553400Y-88077913D01*
X120431777Y-88199535D01*
X120194190Y-88199535D01*
X120072567Y-88077913D01*
X119950945Y-88199535D01*
X119713357Y-88199535D01*
X119591735Y-88077913D01*
X119470112Y-88199535D01*
X118961493Y-88199535D01*
X119135431Y-88020293D01*
X119136343Y-88019448D01*
X119150468Y-88007702D01*
X119208887Y-87959119D01*
X119710528Y-87959119D01*
X119832151Y-88080742D01*
X119953774Y-87959119D01*
X120191361Y-87959119D01*
X120312984Y-88080742D01*
X120434606Y-87959119D01*
X120672193Y-87959119D01*
X120793816Y-88080742D01*
X120915439Y-87959119D01*
X121153026Y-87959119D01*
X121274649Y-88080742D01*
X121396271Y-87959119D01*
X121633859Y-87959119D01*
X121755481Y-88080742D01*
X121877104Y-87959119D01*
X122114691Y-87959119D01*
X122236314Y-88080742D01*
X122357937Y-87959119D01*
X122595524Y-87959119D01*
X122717147Y-88080742D01*
X122838769Y-87959119D01*
X123076357Y-87959119D01*
X123197979Y-88080742D01*
X123319602Y-87959119D01*
X123557189Y-87959119D01*
X123678812Y-88080742D01*
X123800434Y-87959119D01*
X124038022Y-87959119D01*
X124159644Y-88080742D01*
X124281267Y-87959119D01*
X124518854Y-87959119D01*
X124640477Y-88080742D01*
X124762100Y-87959119D01*
X124999687Y-87959119D01*
X125121310Y-88080742D01*
X125242932Y-87959119D01*
X125480520Y-87959119D01*
X125602142Y-88080742D01*
X125723765Y-87959119D01*
X125961352Y-87959119D01*
X126082975Y-88080742D01*
X126204598Y-87959119D01*
X126442185Y-87959119D01*
X126563807Y-88080742D01*
X126685430Y-87959119D01*
X127403850Y-87959119D01*
X127525473Y-88080742D01*
X127647095Y-87959119D01*
X127884683Y-87959119D01*
X127967121Y-88041557D01*
X127977981Y-88007702D01*
X127977989Y-88007677D01*
X127978258Y-88006845D01*
X127978272Y-88006803D01*
X127978328Y-88006632D01*
X127978346Y-88006578D01*
X127978771Y-88005301D01*
X127978787Y-88005251D01*
X127980517Y-88000130D01*
X127980544Y-88000053D01*
X127981182Y-87998207D01*
X127981207Y-87998135D01*
X127981267Y-87997965D01*
X127981358Y-87997708D01*
X127981368Y-87997680D01*
X127981607Y-87997007D01*
X127981619Y-87996973D01*
X127981799Y-87996471D01*
X127981801Y-87996464D01*
X127981861Y-87996297D01*
X127981882Y-87996238D01*
X127982449Y-87994686D01*
X127982474Y-87994619D01*
X127984324Y-87989649D01*
X127984341Y-87989603D01*
X127984769Y-87988468D01*
X127984787Y-87988423D01*
X127984850Y-87988258D01*
X127984862Y-87988225D01*
X127985211Y-87987319D01*
X127985227Y-87987278D01*
X128009623Y-87924649D01*
X128009845Y-87924119D01*
X128015643Y-87911156D01*
X128015890Y-87910637D01*
X128016928Y-87908592D01*
X128017201Y-87908087D01*
X128024233Y-87895771D01*
X128024529Y-87895280D01*
X128031216Y-87884797D01*
X128032000Y-87882904D01*
X128032000Y-87863191D01*
X128006305Y-87837496D01*
X127884683Y-87959119D01*
X127647095Y-87959119D01*
X127525473Y-87837496D01*
X127403850Y-87959119D01*
X126685430Y-87959119D01*
X126563807Y-87837496D01*
X126442185Y-87959119D01*
X126204598Y-87959119D01*
X126082975Y-87837496D01*
X125961352Y-87959119D01*
X125723765Y-87959119D01*
X125602142Y-87837496D01*
X125480520Y-87959119D01*
X125242932Y-87959119D01*
X125121310Y-87837496D01*
X124999687Y-87959119D01*
X124762100Y-87959119D01*
X124640477Y-87837496D01*
X124518854Y-87959119D01*
X124281267Y-87959119D01*
X124159644Y-87837496D01*
X124038022Y-87959119D01*
X123800434Y-87959119D01*
X123678812Y-87837496D01*
X123557189Y-87959119D01*
X123319602Y-87959119D01*
X123197979Y-87837496D01*
X123076357Y-87959119D01*
X122838769Y-87959119D01*
X122717147Y-87837496D01*
X122595524Y-87959119D01*
X122357937Y-87959119D01*
X122236314Y-87837496D01*
X122114691Y-87959119D01*
X121877104Y-87959119D01*
X121755481Y-87837496D01*
X121633859Y-87959119D01*
X121396271Y-87959119D01*
X121274649Y-87837496D01*
X121153026Y-87959119D01*
X120915439Y-87959119D01*
X120793816Y-87837496D01*
X120672193Y-87959119D01*
X120434606Y-87959119D01*
X120312984Y-87837496D01*
X120191361Y-87959119D01*
X119953774Y-87959119D01*
X119832151Y-87837496D01*
X119710528Y-87959119D01*
X119208887Y-87959119D01*
X119264364Y-87912983D01*
X119361459Y-87832237D01*
X119362459Y-87831492D01*
X119531994Y-87718703D01*
X119950945Y-87718703D01*
X120072567Y-87840325D01*
X120194190Y-87718703D01*
X120431777Y-87718703D01*
X120553400Y-87840325D01*
X120675022Y-87718703D01*
X120912610Y-87718703D01*
X121034232Y-87840325D01*
X121155855Y-87718703D01*
X121393442Y-87718703D01*
X121515065Y-87840325D01*
X121636688Y-87718703D01*
X121874275Y-87718703D01*
X121995898Y-87840325D01*
X122117520Y-87718703D01*
X122355108Y-87718703D01*
X122476730Y-87840325D01*
X122598353Y-87718703D01*
X122835940Y-87718703D01*
X122957563Y-87840325D01*
X123079186Y-87718703D01*
X123316773Y-87718703D01*
X123438395Y-87840325D01*
X123560018Y-87718703D01*
X123797605Y-87718703D01*
X123919228Y-87840325D01*
X124040851Y-87718703D01*
X124278438Y-87718703D01*
X124400061Y-87840325D01*
X124521683Y-87718703D01*
X124759271Y-87718703D01*
X124880893Y-87840325D01*
X125002516Y-87718703D01*
X125240103Y-87718703D01*
X125361726Y-87840325D01*
X125483349Y-87718703D01*
X125720936Y-87718703D01*
X125842559Y-87840325D01*
X125964181Y-87718703D01*
X126201768Y-87718703D01*
X126323391Y-87840325D01*
X126445014Y-87718703D01*
X126682601Y-87718703D01*
X126781292Y-87817393D01*
X126794459Y-87797687D01*
X126797687Y-87794459D01*
X126887527Y-87734430D01*
X126891744Y-87732683D01*
X126916863Y-87727686D01*
X126925846Y-87718703D01*
X127163434Y-87718703D01*
X127285056Y-87840325D01*
X127406679Y-87718703D01*
X127644266Y-87718703D01*
X127765889Y-87840325D01*
X127887512Y-87718703D01*
X127765889Y-87597080D01*
X127644266Y-87718703D01*
X127406679Y-87718703D01*
X127285056Y-87597080D01*
X127163434Y-87718703D01*
X126925846Y-87718703D01*
X126804224Y-87597080D01*
X126682601Y-87718703D01*
X126445014Y-87718703D01*
X126323391Y-87597080D01*
X126201768Y-87718703D01*
X125964181Y-87718703D01*
X125842559Y-87597080D01*
X125720936Y-87718703D01*
X125483349Y-87718703D01*
X125361726Y-87597080D01*
X125240103Y-87718703D01*
X125002516Y-87718703D01*
X124880893Y-87597080D01*
X124759271Y-87718703D01*
X124521683Y-87718703D01*
X124400061Y-87597080D01*
X124278438Y-87718703D01*
X124040851Y-87718703D01*
X123919228Y-87597080D01*
X123797605Y-87718703D01*
X123560018Y-87718703D01*
X123438395Y-87597080D01*
X123316773Y-87718703D01*
X123079186Y-87718703D01*
X122957563Y-87597080D01*
X122835940Y-87718703D01*
X122598353Y-87718703D01*
X122476730Y-87597080D01*
X122355108Y-87718703D01*
X122117520Y-87718703D01*
X121995898Y-87597080D01*
X121874275Y-87718703D01*
X121636688Y-87718703D01*
X121515065Y-87597080D01*
X121393442Y-87718703D01*
X121155855Y-87718703D01*
X121034232Y-87597080D01*
X120912610Y-87718703D01*
X120675022Y-87718703D01*
X120553400Y-87597080D01*
X120431777Y-87718703D01*
X120194190Y-87718703D01*
X120098475Y-87622988D01*
X120013237Y-87656411D01*
X119950945Y-87718703D01*
X119531994Y-87718703D01*
X119606221Y-87669321D01*
X119607295Y-87668686D01*
X119744716Y-87597080D01*
X119866948Y-87533389D01*
X119868081Y-87532873D01*
X120007090Y-87478368D01*
X120672275Y-87478368D01*
X120793816Y-87599909D01*
X120915439Y-87478286D01*
X121153026Y-87478286D01*
X121274649Y-87599909D01*
X121396271Y-87478286D01*
X121633859Y-87478286D01*
X121755481Y-87599909D01*
X121877104Y-87478286D01*
X122114691Y-87478286D01*
X122236314Y-87599909D01*
X122357937Y-87478286D01*
X122595524Y-87478286D01*
X122717147Y-87599909D01*
X122838769Y-87478286D01*
X123076357Y-87478286D01*
X123197979Y-87599909D01*
X123319602Y-87478286D01*
X123557189Y-87478286D01*
X123678812Y-87599909D01*
X123800434Y-87478286D01*
X124038022Y-87478286D01*
X124159644Y-87599909D01*
X124281267Y-87478286D01*
X124518854Y-87478286D01*
X124640477Y-87599909D01*
X124762100Y-87478286D01*
X124999687Y-87478286D01*
X125121310Y-87599909D01*
X125242932Y-87478286D01*
X125480520Y-87478286D01*
X125602142Y-87599909D01*
X125723765Y-87478286D01*
X125961352Y-87478286D01*
X126082975Y-87599909D01*
X126204598Y-87478286D01*
X126442185Y-87478286D01*
X126563807Y-87599909D01*
X126685430Y-87478286D01*
X126923017Y-87478286D01*
X127044640Y-87599909D01*
X127166263Y-87478286D01*
X127403850Y-87478286D01*
X127525473Y-87599909D01*
X127647095Y-87478286D01*
X127884683Y-87478286D01*
X128006305Y-87599909D01*
X128032000Y-87574214D01*
X128032000Y-87476273D01*
X127975978Y-87467964D01*
X127898797Y-87464172D01*
X127884683Y-87478286D01*
X127647095Y-87478286D01*
X127622309Y-87453500D01*
X127428636Y-87453500D01*
X127403850Y-87478286D01*
X127166263Y-87478286D01*
X127141477Y-87453500D01*
X126947803Y-87453500D01*
X126923017Y-87478286D01*
X126685430Y-87478286D01*
X126660644Y-87453500D01*
X126466971Y-87453500D01*
X126442185Y-87478286D01*
X126204598Y-87478286D01*
X126179812Y-87453500D01*
X125986138Y-87453500D01*
X125961352Y-87478286D01*
X125723765Y-87478286D01*
X125698979Y-87453500D01*
X125505306Y-87453500D01*
X125480520Y-87478286D01*
X125242932Y-87478286D01*
X125218146Y-87453500D01*
X125024473Y-87453500D01*
X124999687Y-87478286D01*
X124762100Y-87478286D01*
X124737314Y-87453500D01*
X124543640Y-87453500D01*
X124518854Y-87478286D01*
X124281267Y-87478286D01*
X124256481Y-87453500D01*
X124062808Y-87453500D01*
X124038022Y-87478286D01*
X123800434Y-87478286D01*
X123775648Y-87453500D01*
X123581975Y-87453500D01*
X123557189Y-87478286D01*
X123319602Y-87478286D01*
X123294816Y-87453500D01*
X123101143Y-87453500D01*
X123076357Y-87478286D01*
X122838769Y-87478286D01*
X122813983Y-87453500D01*
X122620310Y-87453500D01*
X122595524Y-87478286D01*
X122357937Y-87478286D01*
X122333151Y-87453500D01*
X122139477Y-87453500D01*
X122114691Y-87478286D01*
X121877104Y-87478286D01*
X121852318Y-87453500D01*
X121658645Y-87453500D01*
X121633859Y-87478286D01*
X121396271Y-87478286D01*
X121371485Y-87453500D01*
X121177812Y-87453500D01*
X121153026Y-87478286D01*
X120915439Y-87478286D01*
X120896897Y-87459744D01*
X120733087Y-87468535D01*
X120672275Y-87478368D01*
X120007090Y-87478368D01*
X120140674Y-87425990D01*
X120141844Y-87425602D01*
X120424250Y-87348359D01*
X120425469Y-87348094D01*
X120466571Y-87341448D01*
X120714513Y-87301357D01*
X120715739Y-87301226D01*
X120902097Y-87291223D01*
X120988220Y-87286601D01*
X120990875Y-87286761D01*
X121007724Y-87289727D01*
X121007725Y-87289727D01*
X121008731Y-87289904D01*
X121032659Y-87285678D01*
X121034694Y-87285500D01*
X127659789Y-87285500D01*
X127661820Y-87285678D01*
G37*
%TD.AperFunction*%
%TD*%
%TA.AperFunction,Conductor*%
%TO.N,/UART1_TXD*%
G36*
X124314557Y-114231095D02*
G01*
X124455084Y-114357535D01*
X124496695Y-114386308D01*
X124591493Y-114451860D01*
X124591497Y-114451862D01*
X124591858Y-114452112D01*
X124720339Y-114514926D01*
X124844235Y-114553497D01*
X124844591Y-114553560D01*
X124844590Y-114553560D01*
X124967030Y-114575309D01*
X124967041Y-114575310D01*
X124967252Y-114575348D01*
X125093100Y-114588002D01*
X125225308Y-114598964D01*
X125225684Y-114599003D01*
X125360748Y-114614934D01*
X125367693Y-114615753D01*
X125368538Y-114615884D01*
X125524170Y-114645891D01*
X125525225Y-114646147D01*
X125614275Y-114672253D01*
X125690710Y-114694661D01*
X125697685Y-114700276D01*
X125699117Y-114705659D01*
X125720282Y-115788355D01*
X125717017Y-115796694D01*
X125708355Y-115800282D01*
X125199064Y-115790326D01*
X124625658Y-115779117D01*
X124617455Y-115775529D01*
X124614661Y-115770710D01*
X124596284Y-115708024D01*
X124566147Y-115605225D01*
X124565889Y-115604160D01*
X124535884Y-115448537D01*
X124535753Y-115447693D01*
X124519004Y-115305699D01*
X124518963Y-115305295D01*
X124508006Y-115173148D01*
X124508006Y-115173146D01*
X124508002Y-115173100D01*
X124495349Y-115047252D01*
X124473497Y-114924235D01*
X124434926Y-114800340D01*
X124434733Y-114799946D01*
X124434731Y-114799940D01*
X124372306Y-114672253D01*
X124372113Y-114671858D01*
X124354337Y-114646150D01*
X124290268Y-114553497D01*
X124277536Y-114535084D01*
X124259518Y-114515058D01*
X124203055Y-114452305D01*
X124151096Y-114394557D01*
X124148111Y-114386117D01*
X124151522Y-114378460D01*
X124298460Y-114231521D01*
X124306733Y-114228094D01*
X124314557Y-114231095D01*
G37*
%TD.AperFunction*%
%TD*%
%TA.AperFunction,Conductor*%
%TO.N,GND*%
G36*
X127671666Y-87287414D02*
G01*
X127685788Y-87289904D01*
X127696642Y-87287990D01*
X127706184Y-87287990D01*
X127719427Y-87287158D01*
X127986278Y-87300267D01*
X127998573Y-87301478D01*
X128092489Y-87315408D01*
X128156936Y-87345189D01*
X128195053Y-87405085D01*
X128200000Y-87440044D01*
X128200000Y-87891255D01*
X128190411Y-87939468D01*
X128185017Y-87952492D01*
X128174839Y-87972031D01*
X128166166Y-87985628D01*
X128141770Y-88048257D01*
X128139920Y-88053227D01*
X128139681Y-88053900D01*
X128137951Y-88059021D01*
X128117246Y-88123562D01*
X128116407Y-88126249D01*
X128116303Y-88126592D01*
X128115473Y-88129415D01*
X128115402Y-88129663D01*
X128115384Y-88129726D01*
X128098686Y-88188322D01*
X128098443Y-88189161D01*
X128084869Y-88235570D01*
X128082719Y-88242229D01*
X128080639Y-88248106D01*
X128072493Y-88271119D01*
X128067358Y-88283489D01*
X128060388Y-88298041D01*
X128051257Y-88313997D01*
X128045754Y-88322164D01*
X128033081Y-88338039D01*
X128022887Y-88348885D01*
X128008958Y-88361638D01*
X127985103Y-88380396D01*
X127972310Y-88389235D01*
X127929555Y-88415030D01*
X127929548Y-88415035D01*
X127924594Y-88418024D01*
X127921905Y-88420414D01*
X127910751Y-88427560D01*
X127836042Y-88468850D01*
X127823313Y-88474981D01*
X127582974Y-88574534D01*
X127569637Y-88579200D01*
X127319689Y-88651211D01*
X127305914Y-88654356D01*
X127186214Y-88674695D01*
X127049449Y-88697933D01*
X127035413Y-88699515D01*
X126802137Y-88712618D01*
X126790506Y-88711928D01*
X126790506Y-88712010D01*
X126779482Y-88712010D01*
X126768627Y-88710096D01*
X126757773Y-88712010D01*
X126757772Y-88712010D01*
X126754505Y-88712586D01*
X126732625Y-88714500D01*
X122950000Y-88714500D01*
X122950000Y-87285500D01*
X127649787Y-87285500D01*
X127671666Y-87287414D01*
G37*
%TD.AperFunction*%
%TD*%
%TA.AperFunction,Conductor*%
%TO.N,/I2C4_SCL*%
G36*
X96162397Y-114305452D02*
G01*
X96242278Y-114412500D01*
X96286667Y-114471986D01*
X96288868Y-114480666D01*
X96284815Y-114487942D01*
X96143512Y-114606637D01*
X96143235Y-114606946D01*
X96143234Y-114606947D01*
X96063342Y-114696074D01*
X96035397Y-114727249D01*
X95961115Y-114845194D01*
X95960929Y-114845649D01*
X95960926Y-114845654D01*
X95913014Y-114962599D01*
X95912854Y-114962990D01*
X95882805Y-115083156D01*
X95863155Y-115208213D01*
X95863146Y-115208284D01*
X95846115Y-115340525D01*
X95846070Y-115340840D01*
X95823876Y-115482673D01*
X95823724Y-115483466D01*
X95788620Y-115637378D01*
X95788321Y-115638450D01*
X95738308Y-115789684D01*
X95735040Y-115799565D01*
X95729189Y-115806343D01*
X95723740Y-115807589D01*
X95114200Y-115797509D01*
X94641000Y-115789684D01*
X94632784Y-115786121D01*
X94629511Y-115777335D01*
X94645876Y-115483466D01*
X94668181Y-115082910D01*
X94689722Y-114696074D01*
X94693604Y-114688005D01*
X94698478Y-114685397D01*
X94870084Y-114641070D01*
X94871116Y-114640852D01*
X95030007Y-114614791D01*
X95030862Y-114614683D01*
X95130481Y-114605803D01*
X95174366Y-114601892D01*
X95174820Y-114601861D01*
X95307952Y-114595369D01*
X95435428Y-114588191D01*
X95497578Y-114580884D01*
X95561602Y-114573356D01*
X95561607Y-114573355D01*
X95561906Y-114573320D01*
X95692281Y-114543735D01*
X95692633Y-114543605D01*
X95692637Y-114543604D01*
X95831082Y-114492551D01*
X95831084Y-114492550D01*
X95831445Y-114492417D01*
X95984293Y-114412347D01*
X96146470Y-114302755D01*
X96155243Y-114300962D01*
X96162397Y-114305452D01*
G37*
%TD.AperFunction*%
%TD*%
%TA.AperFunction,Conductor*%
%TO.N,/UART1_TXD*%
G36*
X128839240Y-88068651D02*
G01*
X128847316Y-88072517D01*
X128850261Y-88081418D01*
X128804050Y-88578113D01*
X128799871Y-88586033D01*
X128795149Y-88588401D01*
X128748035Y-88599789D01*
X128720648Y-88606409D01*
X128720134Y-88606521D01*
X128669175Y-88616356D01*
X128648131Y-88620417D01*
X128647720Y-88620489D01*
X128583189Y-88630569D01*
X128583017Y-88630594D01*
X128523303Y-88639014D01*
X128465665Y-88647955D01*
X128465549Y-88647978D01*
X128465533Y-88647981D01*
X128407670Y-88659549D01*
X128407485Y-88659586D01*
X128407314Y-88659632D01*
X128407305Y-88659634D01*
X128362488Y-88671669D01*
X128346019Y-88676091D01*
X128345819Y-88676161D01*
X128345812Y-88676163D01*
X128278719Y-88699587D01*
X128278712Y-88699590D01*
X128278525Y-88699655D01*
X128243312Y-88714804D01*
X128202416Y-88732397D01*
X128202408Y-88732401D01*
X128202261Y-88732464D01*
X128134420Y-88766656D01*
X128124666Y-88771572D01*
X128115736Y-88772235D01*
X128109091Y-88766656D01*
X128010991Y-88583842D01*
X128010098Y-88574933D01*
X128015256Y-88568293D01*
X128078614Y-88530067D01*
X128078924Y-88529880D01*
X128135257Y-88485586D01*
X128177677Y-88440449D01*
X128209134Y-88393761D01*
X128209314Y-88393386D01*
X128209317Y-88393380D01*
X128232440Y-88345099D01*
X128232576Y-88344816D01*
X128250952Y-88292904D01*
X128267210Y-88237318D01*
X128284253Y-88177515D01*
X128284357Y-88177172D01*
X128305062Y-88112631D01*
X128305301Y-88111958D01*
X128322170Y-88068651D01*
X128329697Y-88049329D01*
X128335892Y-88042865D01*
X128341225Y-88041894D01*
X128839240Y-88068651D01*
G37*
%TD.AperFunction*%
%TD*%
%TA.AperFunction,Conductor*%
%TO.N,/I2C4_SDA*%
G36*
X93612965Y-114296562D02*
G01*
X93739731Y-114461202D01*
X93742063Y-114469848D01*
X93738116Y-114477189D01*
X93665266Y-114540209D01*
X93598085Y-114598325D01*
X93491155Y-114720759D01*
X93417896Y-114839912D01*
X93370518Y-114958433D01*
X93341229Y-115078975D01*
X93322241Y-115204186D01*
X93322235Y-115204238D01*
X93305781Y-115336571D01*
X93305736Y-115336893D01*
X93284067Y-115478818D01*
X93283917Y-115479615D01*
X93249300Y-115633807D01*
X93249006Y-115634874D01*
X93198097Y-115790655D01*
X93196165Y-115796566D01*
X93190338Y-115803366D01*
X93184895Y-115804631D01*
X92102095Y-115790810D01*
X92093866Y-115787278D01*
X92090560Y-115778505D01*
X92146692Y-114697028D01*
X92150543Y-114688943D01*
X92155411Y-114686316D01*
X92326504Y-114641494D01*
X92327540Y-114641272D01*
X92486191Y-114614754D01*
X92487044Y-114614644D01*
X92630435Y-114601400D01*
X92630896Y-114601366D01*
X92764015Y-114594357D01*
X92891203Y-114586556D01*
X92891218Y-114586555D01*
X92891391Y-114586544D01*
X92891565Y-114586522D01*
X92891569Y-114586522D01*
X93017277Y-114570893D01*
X93017285Y-114570892D01*
X93017587Y-114570854D01*
X93147383Y-114540209D01*
X93147739Y-114540073D01*
X93147743Y-114540072D01*
X93285201Y-114487661D01*
X93285558Y-114487525D01*
X93285883Y-114487349D01*
X93285888Y-114487347D01*
X93436602Y-114405878D01*
X93436889Y-114405723D01*
X93597005Y-114294102D01*
X93605751Y-114292182D01*
X93612965Y-114296562D01*
G37*
%TD.AperFunction*%
%TD*%
M02*
