%TF.GenerationSoftware,KiCad,Pcbnew,6.0.10-1.fc37*%
%TF.CreationDate,2023-01-04T19:13:09-05:00*%
%TF.ProjectId,ext-con-breakout-board,6578742d-636f-46e2-9d62-7265616b6f75,v0.6*%
%TF.SameCoordinates,Original*%
%TF.FileFunction,Copper,L3,Inr*%
%TF.FilePolarity,Positive*%
%FSLAX46Y46*%
G04 Gerber Fmt 4.6, Leading zero omitted, Abs format (unit mm)*
G04 Created by KiCad (PCBNEW 6.0.10-1.fc37) date 2023-01-04 19:13:09*
%MOMM*%
%LPD*%
G01*
G04 APERTURE LIST*
%TA.AperFunction,ComponentPad*%
%ADD10R,1.700000X1.700000*%
%TD*%
%TA.AperFunction,ComponentPad*%
%ADD11O,1.700000X1.700000*%
%TD*%
%TA.AperFunction,ComponentPad*%
%ADD12C,2.800000*%
%TD*%
%TA.AperFunction,Conductor*%
%ADD13R,0.230000X0.750000*%
%TD*%
%TA.AperFunction,Conductor*%
%ADD14R,0.450000X0.655000*%
%TD*%
%TA.AperFunction,ViaPad*%
%ADD15C,0.800000*%
%TD*%
%TA.AperFunction,Conductor*%
%ADD16C,0.230000*%
%TD*%
G04 APERTURE END LIST*
D10*
%TO.N,GND*%
%TO.C,J2*%
X130500000Y-115500000D03*
D11*
%TO.N,/UART1_RXD*%
X127960000Y-115500000D03*
%TO.N,/UART1_TXD*%
X125420000Y-115500000D03*
%TO.N,GND*%
X122880000Y-115500000D03*
%TO.N,/SPI_SS1*%
X120340000Y-115500000D03*
%TO.N,/SPI_SCK*%
X117800000Y-115500000D03*
%TO.N,/SPI_MOSI*%
X115260000Y-115500000D03*
%TO.N,/SPI_MISO*%
X112720000Y-115500000D03*
%TO.N,GND*%
X110180000Y-115500000D03*
%TO.N,Net-(C1-Pad1)*%
X107640000Y-115500000D03*
%TO.N,Net-(C2-Pad1)*%
X105100000Y-115500000D03*
%TO.N,GND*%
X102560000Y-115500000D03*
%TO.N,/GPIO4_IO11*%
X100020000Y-115500000D03*
%TO.N,/GPIO4_IO28*%
X97480000Y-115500000D03*
%TO.N,/I2C4_SCL*%
X94940000Y-115500000D03*
%TO.N,/I2C4_SDA*%
X92400000Y-115500000D03*
%TD*%
D12*
%TO.N,GND*%
%TO.C,H1*%
X133671000Y-115500000D03*
%TD*%
D13*
%TO.N,/I2C4_SDA*%
%TO.C,J1*%
X130200000Y-89225000D03*
%TO.N,unconnected-(J1-Pad2)*%
X130200000Y-86775000D03*
%TO.N,/I2C4_SCL*%
X129800000Y-89225000D03*
%TO.N,unconnected-(J1-Pad4)*%
X129800000Y-86775000D03*
%TO.N,GND*%
X129400000Y-89225000D03*
%TO.N,/GPIO4_IO28*%
X129400000Y-86775000D03*
%TO.N,/UART1_RXD*%
X129000000Y-89225000D03*
%TO.N,unconnected-(J1-Pad8)*%
X129000000Y-86775000D03*
%TO.N,/UART1_TXD*%
X128600000Y-89225000D03*
%TO.N,unconnected-(J1-Pad10)*%
X128600000Y-86775000D03*
%TO.N,GND*%
X128200000Y-89225000D03*
%TO.N,unconnected-(J1-Pad12)*%
X128200000Y-86775000D03*
%TO.N,/SPI_SS1*%
X127800000Y-89225000D03*
%TO.N,/GPIO4_IO11*%
X127800000Y-86775000D03*
%TO.N,/SPI_SCK*%
X127400000Y-89225000D03*
%TO.N,unconnected-(J1-Pad16)*%
X127400000Y-86775000D03*
%TO.N,GND*%
X127000000Y-89225000D03*
%TO.N,+1V8*%
X127000000Y-86775000D03*
%TO.N,/SPI_MOSI*%
X126600000Y-89225000D03*
%TO.N,unconnected-(J1-Pad20)*%
X126600000Y-86775000D03*
%TO.N,GND*%
X126200000Y-89225000D03*
%TO.N,+3V3*%
X126200000Y-86775000D03*
%TO.N,/SPI_MISO*%
X125800000Y-89225000D03*
%TO.N,unconnected-(J1-Pad24)*%
X125800000Y-86775000D03*
D14*
%TO.N,N/C*%
X130995000Y-88702500D03*
X125005000Y-88702500D03*
X125005000Y-87297500D03*
X130995000Y-87297500D03*
%TD*%
D15*
%TO.N,/I2C4_SDA*%
X130200000Y-90400000D03*
%TO.N,/I2C4_SCL*%
X130100000Y-88000000D03*
%TO.N,GND*%
X127000000Y-88000000D03*
%TO.N,/UART1_RXD*%
X129000000Y-90400000D03*
%TO.N,/UART1_TXD*%
X128700000Y-88200000D03*
%TO.N,+1V8*%
X112000000Y-113300000D03*
%TO.N,+3V3*%
X113500000Y-113300000D03*
%TD*%
D16*
%TO.N,/I2C4_SDA*%
X130200000Y-89225000D02*
X130200000Y-90400000D01*
%TO.N,/I2C4_SCL*%
X129800000Y-89225000D02*
X129800000Y-88724264D01*
X130100011Y-88000011D02*
G75*
G03*
X129800000Y-88724264I724289J-724289D01*
G01*
%TO.N,GND*%
X128717158Y-87500000D02*
X128207106Y-87500000D01*
X128200000Y-89225000D02*
X128200000Y-88844390D01*
X126200000Y-88565000D02*
X126200000Y-89225000D01*
X127000000Y-89225000D02*
X127000000Y-88000000D01*
X129400000Y-89225000D02*
X129400000Y-88182842D01*
X128097901Y-88597901D02*
X127853553Y-88353553D01*
X127000000Y-88000000D02*
X126765000Y-88000000D01*
X127000000Y-87999999D02*
G75*
G02*
X127853552Y-88353554I0J-1207101D01*
G01*
X128717158Y-87500018D02*
G75*
G02*
X129200000Y-87700000I42J-682782D01*
G01*
X129200013Y-87699987D02*
G75*
G02*
X129400000Y-88182842I-482813J-482813D01*
G01*
X126999998Y-87999998D02*
G75*
G02*
X128207106Y-87500000I1207102J-1207102D01*
G01*
X128097898Y-88597904D02*
G75*
G02*
X128200000Y-88844390I-246498J-246496D01*
G01*
X126200000Y-88565000D02*
G75*
G02*
X126765000Y-88000000I565000J0D01*
G01*
%TO.N,/GPIO4_IO28*%
X121910051Y-86600000D02*
X120988355Y-86600000D01*
X117843000Y-88691000D02*
X117508789Y-89379678D01*
X129400000Y-86775000D02*
X129400000Y-86408317D01*
X117100000Y-91158335D02*
X117100000Y-111218184D01*
X128306683Y-85315000D02*
X125012269Y-85315000D01*
X116593184Y-111725000D02*
X106593656Y-111725000D01*
X117100016Y-91158335D02*
G75*
G02*
X117508789Y-89379678I4073884J35D01*
G01*
X128306683Y-85315000D02*
G75*
G02*
X129400000Y-86408317I17J-1093300D01*
G01*
X121910051Y-86599979D02*
G75*
G03*
X123600000Y-85900000I49J2389879D01*
G01*
X117843000Y-88691000D02*
G75*
G02*
X120988355Y-86600000I3134800J-1304300D01*
G01*
X123600016Y-85900016D02*
G75*
G02*
X125012269Y-85315000I1412284J-1412184D01*
G01*
X116593184Y-111725000D02*
G75*
G03*
X117100000Y-111218184I16J506800D01*
G01*
X97480013Y-115500013D02*
G75*
G02*
X106593656Y-111725000I9113687J-9113687D01*
G01*
%TO.N,/UART1_RXD*%
X129000000Y-89225000D02*
X129000000Y-90400000D01*
%TO.N,/UART1_TXD*%
X128600000Y-89225000D02*
X128600000Y-88441421D01*
X128699994Y-88199994D02*
G75*
G03*
X128600000Y-88441421I241406J-241406D01*
G01*
%TO.N,/SPI_SS1*%
X119900000Y-91167525D02*
X119900000Y-114437747D01*
X121992894Y-89400000D02*
X121190000Y-89400000D01*
X126735074Y-90685000D02*
X125095101Y-90685000D01*
X127800000Y-89225000D02*
X127800000Y-89620074D01*
X120360362Y-89918489D02*
X120031159Y-90596848D01*
X121992894Y-89400003D02*
G75*
G02*
X123200000Y-89900000I6J-1707097D01*
G01*
X119900012Y-91167525D02*
G75*
G02*
X120031160Y-90596848I1307088J25D01*
G01*
X126735074Y-90685000D02*
G75*
G03*
X127800000Y-89620074I26J1064900D01*
G01*
X120360342Y-89918479D02*
G75*
G02*
X121190000Y-89400000I831258J-407121D01*
G01*
X123200004Y-89899996D02*
G75*
G03*
X125095101Y-90685000I1895096J1894996D01*
G01*
X120340013Y-115499987D02*
G75*
G02*
X119900000Y-114437747I1062287J1062287D01*
G01*
%TO.N,/GPIO4_IO11*%
X118203246Y-88866390D02*
X117868652Y-89555857D01*
X116594544Y-112150000D02*
X108107615Y-112150000D01*
X122110051Y-87000000D02*
X121008650Y-87000000D01*
X117500000Y-91159875D02*
X117500000Y-111244544D01*
X127800000Y-86775000D02*
X127800000Y-86408054D01*
X127106946Y-85715000D02*
X125212292Y-85715000D01*
X116594544Y-112150000D02*
G75*
G03*
X117500000Y-111244544I-44J905500D01*
G01*
X100019995Y-115499995D02*
G75*
G02*
X108107615Y-112150000I8087605J-8087605D01*
G01*
X122110051Y-86999979D02*
G75*
G03*
X123800000Y-86300000I49J2389879D01*
G01*
X123799996Y-86299996D02*
G75*
G02*
X125212292Y-85715000I1412304J-1412304D01*
G01*
X127106946Y-85715000D02*
G75*
G02*
X127800000Y-86408054I-46J-693100D01*
G01*
X117499990Y-91159875D02*
G75*
G02*
X117868652Y-89555857I3673910J-25D01*
G01*
X118203246Y-88866390D02*
G75*
G02*
X121008650Y-87000000I2806254J-1176510D01*
G01*
%TO.N,/SPI_SCK*%
X119500000Y-91169915D02*
X119500000Y-111526629D01*
X117829859Y-115470140D02*
X117849950Y-115450048D01*
X117817840Y-115482160D02*
X117829859Y-115470140D01*
X120000844Y-89743140D02*
X119672340Y-90420058D01*
X117849950Y-115450048D02*
X117872680Y-115427317D01*
X122051472Y-89000000D02*
X121163259Y-89000000D01*
X117817840Y-115482160D02*
X117800000Y-115500000D01*
X126710366Y-90285000D02*
X125153730Y-90285000D01*
X127400000Y-89225000D02*
X127400000Y-89595366D01*
X117872680Y-115427317D02*
X117892517Y-115407480D01*
X119500007Y-91169915D02*
G75*
G02*
X119672340Y-90420058I1717493J15D01*
G01*
X122051472Y-89000012D02*
G75*
G02*
X123500000Y-89600000I28J-2048488D01*
G01*
X117892503Y-115407466D02*
G75*
G03*
X119500000Y-111526629I-3880903J3880866D01*
G01*
X120000832Y-89743135D02*
G75*
G02*
X121163259Y-89000001I1167468J-545465D01*
G01*
X126710366Y-90285000D02*
G75*
G03*
X127400000Y-89595366I34J689600D01*
G01*
X123499989Y-89600011D02*
G75*
G03*
X125153730Y-90285000I1653711J1653711D01*
G01*
%TO.N,+1V8*%
X112000000Y-113300000D02*
X112063604Y-113236396D01*
X122551472Y-87400000D02*
X121051370Y-87400000D01*
X126715548Y-86115000D02*
X125653670Y-86115000D01*
X127000000Y-86775000D02*
X127000000Y-86399452D01*
X113600000Y-112600000D02*
X116587827Y-112600000D01*
X117900000Y-91159902D02*
X117900000Y-111287827D01*
X118562774Y-89041746D02*
X118228514Y-89730524D01*
X126715548Y-86115000D02*
G75*
G02*
X127000000Y-86399452I-48J-284500D01*
G01*
X117900000Y-111287827D02*
G75*
G02*
X116587827Y-112600000I-1312200J27D01*
G01*
X117900002Y-91159902D02*
G75*
G02*
X118228515Y-89730524I3273898J2D01*
G01*
X113600000Y-112600003D02*
G75*
G03*
X112063605Y-113236397I0J-2172797D01*
G01*
X124000010Y-86800010D02*
G75*
G02*
X125653670Y-86115000I1653690J-1653590D01*
G01*
X122551472Y-87399988D02*
G75*
G03*
X124000000Y-86800000I28J2048488D01*
G01*
X118562742Y-89041732D02*
G75*
G02*
X121051370Y-87400000I2481658J-1054768D01*
G01*
%TO.N,/SPI_MOSI*%
X118287621Y-113512380D02*
X117903556Y-113896445D01*
X119100000Y-91159898D02*
X119100000Y-111551122D01*
X119641327Y-89567792D02*
X119308102Y-90254437D01*
X126600000Y-89225000D02*
X126600000Y-89600882D01*
X116128163Y-114631838D02*
X115260000Y-115500000D01*
X126315882Y-89885000D02*
X125212340Y-89885000D01*
X122110051Y-88600000D02*
X121138822Y-88600000D01*
X118287602Y-113512361D02*
G75*
G03*
X119100000Y-111551122I-1961202J1961261D01*
G01*
X122110051Y-88600044D02*
G75*
G02*
X123970711Y-89370711I49J-2631356D01*
G01*
X123970681Y-89370741D02*
G75*
G03*
X125212340Y-89885000I1241619J1241741D01*
G01*
X126315882Y-89885000D02*
G75*
G03*
X126600000Y-89600882I18J284100D01*
G01*
X117050000Y-114250002D02*
G75*
G03*
X117903556Y-113896445I0J1207102D01*
G01*
X119099999Y-91159898D02*
G75*
G02*
X119308102Y-90254437I2073901J-2D01*
G01*
X119641341Y-89567798D02*
G75*
G02*
X121138822Y-88600000I1498559J-676302D01*
G01*
X116128157Y-114631832D02*
G75*
G02*
X117050000Y-114250000I921843J-921868D01*
G01*
%TO.N,+3V3*%
X124068758Y-87931242D02*
X123614569Y-87885431D01*
X124339732Y-87960268D02*
X124068758Y-87931242D01*
X122875734Y-87824266D02*
X122400000Y-87800000D01*
X126200000Y-86775000D02*
X126200000Y-87200000D01*
X124684837Y-87984837D02*
X124339732Y-87960268D01*
X118300000Y-91159900D02*
X118300000Y-111326857D01*
X125400000Y-88000000D02*
X125000000Y-88000000D01*
X116326857Y-113300000D02*
X113500000Y-113300000D01*
X123614569Y-87885431D02*
X123251870Y-87851870D01*
X123251870Y-87851870D02*
X122875734Y-87824266D01*
X122400000Y-87800000D02*
X121089949Y-87800000D01*
X125000000Y-88000000D02*
X124684837Y-87984837D01*
X118922291Y-89217095D02*
X118588377Y-89905161D01*
X125400000Y-88000000D02*
G75*
G03*
X126200000Y-87200000I0J800000D01*
G01*
X118300001Y-91159900D02*
G75*
G02*
X118588378Y-89905161I2873899J0D01*
G01*
X118922293Y-89217096D02*
G75*
G02*
X121089949Y-87800001I2160907J-939004D01*
G01*
X116326857Y-113300000D02*
G75*
G03*
X118300000Y-111326857I43J1973100D01*
G01*
%TO.N,/SPI_MISO*%
X125710000Y-89315000D02*
X124783298Y-89315000D01*
X119281809Y-89392443D02*
X118948240Y-90079798D01*
X124295602Y-89095599D02*
X124266208Y-89066207D01*
X113019928Y-115200071D02*
X112720000Y-115500000D01*
X118700000Y-91159898D02*
X118700000Y-111500000D01*
X122175000Y-88200000D02*
X121124386Y-88200000D01*
X124325291Y-89125288D02*
X124295602Y-89095599D01*
X116400000Y-113800000D02*
G75*
G03*
X118700000Y-111500000I0J2300000D01*
G01*
X124325296Y-89125283D02*
G75*
G03*
X124783298Y-89315000I458004J457983D01*
G01*
X113019937Y-115200080D02*
G75*
G02*
X116400000Y-113800000I3380063J-3380020D01*
G01*
X125710000Y-89315000D02*
G75*
G03*
X125800000Y-89225000I0J90000D01*
G01*
X118700000Y-91159898D02*
G75*
G02*
X118948240Y-90079798I2473900J-2D01*
G01*
X122175000Y-88199996D02*
G75*
G02*
X124266208Y-89066207I0J-2957404D01*
G01*
X119281781Y-89392430D02*
G75*
G02*
X121124386Y-88200001I1844119J-829770D01*
G01*
%TD*%
%TA.AperFunction,Conductor*%
%TO.N,GND*%
G36*
X105112144Y-111318097D02*
G01*
X105154209Y-111366643D01*
X105163351Y-111430224D01*
X105136666Y-111488654D01*
X105082629Y-111523382D01*
X105065391Y-111527025D01*
X105048248Y-111529282D01*
X104533552Y-111597044D01*
X104533536Y-111597047D01*
X104532059Y-111597241D01*
X104530589Y-111597514D01*
X104530573Y-111597516D01*
X103855114Y-111722707D01*
X103855102Y-111722710D01*
X103853659Y-111722977D01*
X103182768Y-111884046D01*
X102933561Y-111957865D01*
X102522678Y-112079575D01*
X102522671Y-112079577D01*
X102521227Y-112080005D01*
X101870848Y-112310317D01*
X101233414Y-112574352D01*
X100610672Y-112871386D01*
X100609370Y-112872093D01*
X100609362Y-112872097D01*
X100005651Y-113199887D01*
X100004329Y-113200605D01*
X100003056Y-113201385D01*
X100003051Y-113201388D01*
X99854217Y-113292594D01*
X99416047Y-113561105D01*
X98847438Y-113951900D01*
X98611101Y-114133249D01*
X98609985Y-114134105D01*
X98586013Y-114148221D01*
X98583828Y-114149170D01*
X98583825Y-114149172D01*
X98578692Y-114151402D01*
X98447493Y-114242366D01*
X98431669Y-114253337D01*
X98420698Y-114260060D01*
X98300219Y-114324829D01*
X98286657Y-114331012D01*
X98250362Y-114344770D01*
X98183942Y-114369946D01*
X98169561Y-114374337D01*
X98112133Y-114387803D01*
X98073494Y-114396863D01*
X98061411Y-114399017D01*
X98019626Y-114404162D01*
X97959570Y-114411556D01*
X97952517Y-114412202D01*
X97874863Y-114416896D01*
X97835387Y-114419282D01*
X97834532Y-114419330D01*
X97702500Y-114426190D01*
X97699103Y-114426400D01*
X97698641Y-114426433D01*
X97695104Y-114426722D01*
X97694911Y-114426740D01*
X97694861Y-114426744D01*
X97609148Y-114434612D01*
X97551662Y-114439888D01*
X97548059Y-114440283D01*
X97545915Y-114440518D01*
X97545892Y-114440521D01*
X97545470Y-114440567D01*
X97544640Y-114440673D01*
X97541014Y-114441207D01*
X97538583Y-114441564D01*
X97538561Y-114441567D01*
X97538034Y-114441645D01*
X97537464Y-114441740D01*
X97537451Y-114441742D01*
X97509293Y-114446433D01*
X97379334Y-114468083D01*
X97376612Y-114468600D01*
X97372187Y-114469440D01*
X97372163Y-114469445D01*
X97371525Y-114469566D01*
X97370490Y-114469787D01*
X97369864Y-114469936D01*
X97369831Y-114469943D01*
X97363418Y-114471465D01*
X97363395Y-114471471D01*
X97362766Y-114471620D01*
X97362146Y-114471782D01*
X97362126Y-114471787D01*
X97194878Y-114515493D01*
X97194876Y-114515494D01*
X97191580Y-114516355D01*
X97188415Y-114517601D01*
X97188411Y-114517602D01*
X97152693Y-114531660D01*
X97152649Y-114531548D01*
X97140916Y-114535970D01*
X97095864Y-114549230D01*
X96918508Y-114641950D01*
X96904230Y-114653430D01*
X96778953Y-114754156D01*
X96762539Y-114767353D01*
X96633897Y-114920661D01*
X96537484Y-115096037D01*
X96535801Y-115101343D01*
X96535800Y-115101345D01*
X96490073Y-115245494D01*
X96476970Y-115286799D01*
X96467422Y-115371925D01*
X96463678Y-115405306D01*
X96454662Y-115485683D01*
X96471408Y-115685111D01*
X96483472Y-115727184D01*
X96523790Y-115867786D01*
X96526572Y-115877489D01*
X96529122Y-115882450D01*
X96529122Y-115882451D01*
X96549415Y-115921936D01*
X96618051Y-116055488D01*
X96742362Y-116212329D01*
X96894769Y-116342038D01*
X96941790Y-116368317D01*
X97064596Y-116436951D01*
X97064598Y-116436952D01*
X97069467Y-116439673D01*
X97074776Y-116441398D01*
X97254498Y-116499794D01*
X97254502Y-116499795D01*
X97259802Y-116501517D01*
X97317190Y-116508360D01*
X97452988Y-116524553D01*
X97452990Y-116524553D01*
X97458525Y-116525213D01*
X97658065Y-116509859D01*
X97663430Y-116508361D01*
X97663436Y-116508360D01*
X97845460Y-116457538D01*
X97845463Y-116457537D01*
X97850824Y-116456040D01*
X98029457Y-116365806D01*
X98187162Y-116242593D01*
X98217053Y-116207964D01*
X98314288Y-116095317D01*
X98314290Y-116095314D01*
X98317931Y-116091096D01*
X98335676Y-116059860D01*
X98414027Y-115921936D01*
X98416784Y-115917083D01*
X98418544Y-115911792D01*
X98418545Y-115911790D01*
X98428974Y-115880439D01*
X98437811Y-115860490D01*
X98440003Y-115856597D01*
X98440005Y-115856593D01*
X98442752Y-115851714D01*
X98445048Y-115844702D01*
X98495462Y-115690760D01*
X98495467Y-115690743D01*
X98495673Y-115690115D01*
X98495979Y-115689102D01*
X98497888Y-115682768D01*
X98498073Y-115682156D01*
X98498367Y-115681090D01*
X98500397Y-115672978D01*
X98512174Y-115620672D01*
X98534992Y-115519321D01*
X98534993Y-115519316D01*
X98535098Y-115518850D01*
X98536317Y-115512971D01*
X98536468Y-115512174D01*
X98537507Y-115506106D01*
X98551065Y-115417695D01*
X98559274Y-115364159D01*
X98559290Y-115364046D01*
X98559630Y-115361711D01*
X98559666Y-115361464D01*
X98559710Y-115361144D01*
X98559988Y-115359029D01*
X98571894Y-115263877D01*
X98576063Y-115230563D01*
X98576486Y-115227518D01*
X98592952Y-115119630D01*
X98593079Y-115118802D01*
X98595025Y-115108971D01*
X98616532Y-115020912D01*
X98621484Y-115005491D01*
X98643123Y-114951597D01*
X98652072Y-114929309D01*
X98660860Y-114911900D01*
X98708512Y-114834727D01*
X98719817Y-114819437D01*
X98723091Y-114815706D01*
X98797596Y-114730789D01*
X98808918Y-114719575D01*
X98929854Y-114615499D01*
X98929855Y-114615498D01*
X98933793Y-114612109D01*
X98934310Y-114611467D01*
X98942789Y-114603908D01*
X98954043Y-114595273D01*
X99183366Y-114419307D01*
X99188184Y-114415807D01*
X99193430Y-114412202D01*
X99539621Y-114174271D01*
X99727027Y-114045470D01*
X99732032Y-114042219D01*
X100085608Y-113825547D01*
X100289551Y-113700571D01*
X100294716Y-113697589D01*
X100364714Y-113659583D01*
X100869336Y-113385594D01*
X100874628Y-113382897D01*
X101464814Y-113101392D01*
X101470262Y-113098967D01*
X101563506Y-113060344D01*
X102074344Y-112848747D01*
X102079901Y-112846614D01*
X102430212Y-112722561D01*
X102696263Y-112628347D01*
X102701939Y-112626503D01*
X103015398Y-112533652D01*
X103328866Y-112440798D01*
X103334613Y-112439257D01*
X103970420Y-112286613D01*
X103976243Y-112285375D01*
X104298047Y-112225731D01*
X104549632Y-112179102D01*
X104613531Y-112185664D01*
X104663738Y-112225731D01*
X104684314Y-112286582D01*
X104668725Y-112348896D01*
X104621920Y-112392891D01*
X104605030Y-112399807D01*
X104234190Y-112518004D01*
X104232705Y-112518571D01*
X104232696Y-112518574D01*
X103700351Y-112721781D01*
X103619606Y-112752603D01*
X103618163Y-112753249D01*
X103618155Y-112753252D01*
X103046176Y-113009196D01*
X103019142Y-113021293D01*
X102434689Y-113323228D01*
X102433325Y-113324033D01*
X102433308Y-113324042D01*
X101869455Y-113656650D01*
X101868084Y-113657459D01*
X101637553Y-113811495D01*
X101325807Y-114019797D01*
X101321112Y-114022934D01*
X101161367Y-114143154D01*
X101141533Y-114154497D01*
X101141613Y-114154646D01*
X101136681Y-114157289D01*
X101131510Y-114159438D01*
X100982316Y-114259358D01*
X100982147Y-114259471D01*
X100971233Y-114265930D01*
X100848824Y-114329474D01*
X100835407Y-114335378D01*
X100770781Y-114358979D01*
X100733434Y-114372618D01*
X100731117Y-114373464D01*
X100716972Y-114377614D01*
X100619644Y-114399444D01*
X100607796Y-114401451D01*
X100536594Y-114409685D01*
X100505103Y-114413326D01*
X100498261Y-114413910D01*
X100380480Y-114420372D01*
X100379813Y-114420406D01*
X100264457Y-114425902D01*
X100247900Y-114426691D01*
X100247892Y-114426691D01*
X100247586Y-114426706D01*
X100247304Y-114426722D01*
X100247291Y-114426723D01*
X100244250Y-114426899D01*
X100244043Y-114426911D01*
X100243572Y-114426943D01*
X100240048Y-114427218D01*
X100176412Y-114432831D01*
X100097092Y-114439827D01*
X100097049Y-114439831D01*
X100096530Y-114439877D01*
X100089982Y-114440578D01*
X100089126Y-114440686D01*
X100082840Y-114441595D01*
X100082340Y-114441677D01*
X100082311Y-114441681D01*
X100017635Y-114452231D01*
X99923895Y-114467522D01*
X99916162Y-114468962D01*
X99915131Y-114469178D01*
X99907393Y-114470983D01*
X99906763Y-114471145D01*
X99906747Y-114471149D01*
X99738924Y-114514323D01*
X99738919Y-114514325D01*
X99735629Y-114515171D01*
X99696730Y-114530303D01*
X99696728Y-114530298D01*
X99684036Y-114535051D01*
X99641216Y-114547654D01*
X99641209Y-114547657D01*
X99635864Y-114549230D01*
X99458508Y-114641950D01*
X99444230Y-114653430D01*
X99318953Y-114754156D01*
X99302539Y-114767353D01*
X99173897Y-114920661D01*
X99077484Y-115096037D01*
X99075801Y-115101343D01*
X99075800Y-115101345D01*
X99030073Y-115245494D01*
X99016970Y-115286799D01*
X99007422Y-115371925D01*
X99003678Y-115405306D01*
X98994662Y-115485683D01*
X99011408Y-115685111D01*
X99023472Y-115727184D01*
X99063790Y-115867786D01*
X99066572Y-115877489D01*
X99069122Y-115882450D01*
X99069122Y-115882451D01*
X99089415Y-115921936D01*
X99158051Y-116055488D01*
X99282362Y-116212329D01*
X99434769Y-116342038D01*
X99481790Y-116368317D01*
X99604596Y-116436951D01*
X99604598Y-116436952D01*
X99609467Y-116439673D01*
X99614776Y-116441398D01*
X99794498Y-116499794D01*
X99794502Y-116499795D01*
X99799802Y-116501517D01*
X99857190Y-116508360D01*
X99992988Y-116524553D01*
X99992990Y-116524553D01*
X99998525Y-116525213D01*
X100198065Y-116509859D01*
X100203430Y-116508361D01*
X100203436Y-116508360D01*
X100385460Y-116457538D01*
X100385463Y-116457537D01*
X100390824Y-116456040D01*
X100569457Y-116365806D01*
X100727162Y-116242593D01*
X100757053Y-116207964D01*
X100854288Y-116095317D01*
X100854290Y-116095314D01*
X100857931Y-116091096D01*
X100875676Y-116059860D01*
X100954027Y-115921936D01*
X100956784Y-115917083D01*
X100958544Y-115911793D01*
X100958546Y-115911788D01*
X100966373Y-115888257D01*
X100967916Y-115883621D01*
X100976974Y-115863279D01*
X100978518Y-115860562D01*
X100981285Y-115855693D01*
X101010931Y-115766354D01*
X101047515Y-115713561D01*
X101106839Y-115688926D01*
X101170063Y-115700274D01*
X101217116Y-115744003D01*
X101230338Y-115777199D01*
X101258673Y-115902929D01*
X101261461Y-115911823D01*
X101341954Y-116110055D01*
X101346157Y-116118377D01*
X101457951Y-116300807D01*
X101463451Y-116308322D01*
X101603538Y-116470043D01*
X101610199Y-116476566D01*
X101774818Y-116613236D01*
X101782453Y-116618581D01*
X101967178Y-116726526D01*
X101975588Y-116730555D01*
X102175452Y-116806875D01*
X102184427Y-116809483D01*
X102289935Y-116830949D01*
X102302652Y-116829867D01*
X102306000Y-116820507D01*
X102306000Y-116820243D01*
X102814000Y-116820243D01*
X102817677Y-116832766D01*
X102829813Y-116834606D01*
X102838671Y-116833471D01*
X102847793Y-116831533D01*
X103052716Y-116770052D01*
X103061407Y-116766646D01*
X103253537Y-116672523D01*
X103261545Y-116667749D01*
X103435725Y-116543509D01*
X103442852Y-116537486D01*
X103594398Y-116386466D01*
X103600444Y-116379362D01*
X103725285Y-116205628D01*
X103730100Y-116197614D01*
X103824890Y-116005823D01*
X103828324Y-115997150D01*
X103890522Y-115792432D01*
X103893480Y-115778752D01*
X103894607Y-115778996D01*
X103918397Y-115725228D01*
X103972019Y-115689863D01*
X104036250Y-115689102D01*
X104090695Y-115723188D01*
X104115014Y-115767434D01*
X104117773Y-115777056D01*
X104143790Y-115867786D01*
X104146572Y-115877489D01*
X104149122Y-115882450D01*
X104149122Y-115882451D01*
X104169415Y-115921936D01*
X104238051Y-116055488D01*
X104362362Y-116212329D01*
X104514769Y-116342038D01*
X104561790Y-116368317D01*
X104684596Y-116436951D01*
X104684598Y-116436952D01*
X104689467Y-116439673D01*
X104694776Y-116441398D01*
X104874498Y-116499794D01*
X104874502Y-116499795D01*
X104879802Y-116501517D01*
X104937190Y-116508360D01*
X105072988Y-116524553D01*
X105072990Y-116524553D01*
X105078525Y-116525213D01*
X105278065Y-116509859D01*
X105283430Y-116508361D01*
X105283436Y-116508360D01*
X105465460Y-116457538D01*
X105465463Y-116457537D01*
X105470824Y-116456040D01*
X105649457Y-116365806D01*
X105807162Y-116242593D01*
X105837053Y-116207964D01*
X105934288Y-116095317D01*
X105934290Y-116095314D01*
X105937931Y-116091096D01*
X105955676Y-116059860D01*
X106034027Y-115921936D01*
X106036784Y-115917083D01*
X106038544Y-115911793D01*
X106038545Y-115911791D01*
X106098196Y-115732472D01*
X106098196Y-115732471D01*
X106099955Y-115727184D01*
X106101342Y-115716211D01*
X106119165Y-115575122D01*
X106125038Y-115528632D01*
X106125283Y-115511087D01*
X106125394Y-115503182D01*
X106125394Y-115503174D01*
X106125438Y-115500000D01*
X106124034Y-115485683D01*
X106614662Y-115485683D01*
X106631408Y-115685111D01*
X106643472Y-115727184D01*
X106683790Y-115867786D01*
X106686572Y-115877489D01*
X106689122Y-115882450D01*
X106689122Y-115882451D01*
X106709415Y-115921936D01*
X106778051Y-116055488D01*
X106902362Y-116212329D01*
X107054769Y-116342038D01*
X107101790Y-116368317D01*
X107224596Y-116436951D01*
X107224598Y-116436952D01*
X107229467Y-116439673D01*
X107234776Y-116441398D01*
X107414498Y-116499794D01*
X107414502Y-116499795D01*
X107419802Y-116501517D01*
X107477190Y-116508360D01*
X107612988Y-116524553D01*
X107612990Y-116524553D01*
X107618525Y-116525213D01*
X107818065Y-116509859D01*
X107823430Y-116508361D01*
X107823436Y-116508360D01*
X108005460Y-116457538D01*
X108005463Y-116457537D01*
X108010824Y-116456040D01*
X108189457Y-116365806D01*
X108347162Y-116242593D01*
X108377053Y-116207964D01*
X108474288Y-116095317D01*
X108474290Y-116095314D01*
X108477931Y-116091096D01*
X108495676Y-116059860D01*
X108574027Y-115921936D01*
X108576784Y-115917083D01*
X108578544Y-115911793D01*
X108578545Y-115911791D01*
X108629338Y-115759100D01*
X108665964Y-115706330D01*
X108725306Y-115681739D01*
X108788522Y-115693134D01*
X108835542Y-115736898D01*
X108848721Y-115770021D01*
X108878673Y-115902930D01*
X108881461Y-115911823D01*
X108961954Y-116110055D01*
X108966157Y-116118377D01*
X109077951Y-116300807D01*
X109083451Y-116308322D01*
X109223538Y-116470043D01*
X109230199Y-116476566D01*
X109394818Y-116613236D01*
X109402453Y-116618581D01*
X109587178Y-116726526D01*
X109595588Y-116730555D01*
X109795452Y-116806875D01*
X109804427Y-116809483D01*
X109909935Y-116830949D01*
X109922652Y-116829867D01*
X109926000Y-116820507D01*
X109926000Y-114181376D01*
X109922455Y-114169304D01*
X109909537Y-114167506D01*
X109868835Y-114173735D01*
X109859760Y-114175897D01*
X109656396Y-114242366D01*
X109647798Y-114245980D01*
X109458025Y-114344770D01*
X109450134Y-114349739D01*
X109279035Y-114478204D01*
X109272070Y-114484388D01*
X109124251Y-114639072D01*
X109118382Y-114646319D01*
X108997816Y-114823062D01*
X108993209Y-114831172D01*
X108903130Y-115025232D01*
X108899908Y-115033988D01*
X108844934Y-115232218D01*
X108811024Y-115286774D01*
X108753003Y-115314335D01*
X108689291Y-115306153D01*
X108640117Y-115264824D01*
X108625946Y-115234703D01*
X108589678Y-115114578D01*
X108589677Y-115114577D01*
X108588065Y-115109236D01*
X108583871Y-115101347D01*
X108507032Y-114956835D01*
X108494109Y-114932531D01*
X108367621Y-114777441D01*
X108351212Y-114763866D01*
X108217718Y-114653430D01*
X108217716Y-114653429D01*
X108213418Y-114649873D01*
X108077765Y-114576526D01*
X108042278Y-114557338D01*
X108042277Y-114557338D01*
X108037373Y-114554686D01*
X107846193Y-114495506D01*
X107820076Y-114492761D01*
X107652697Y-114475169D01*
X107652696Y-114475169D01*
X107647159Y-114474587D01*
X107447852Y-114492725D01*
X107255864Y-114549230D01*
X107078508Y-114641950D01*
X107064230Y-114653430D01*
X106938953Y-114754156D01*
X106922539Y-114767353D01*
X106793897Y-114920661D01*
X106697484Y-115096037D01*
X106695801Y-115101343D01*
X106695800Y-115101345D01*
X106650073Y-115245494D01*
X106636970Y-115286799D01*
X106627422Y-115371925D01*
X106623678Y-115405306D01*
X106614662Y-115485683D01*
X106124034Y-115485683D01*
X106114864Y-115392155D01*
X106106454Y-115306378D01*
X106106453Y-115306373D01*
X106105909Y-115300825D01*
X106101960Y-115287743D01*
X106049678Y-115114578D01*
X106049677Y-115114577D01*
X106048065Y-115109236D01*
X106043871Y-115101347D01*
X105967032Y-114956835D01*
X105954109Y-114932531D01*
X105827621Y-114777441D01*
X105811212Y-114763866D01*
X105677718Y-114653430D01*
X105677716Y-114653429D01*
X105673418Y-114649873D01*
X105537765Y-114576526D01*
X105502278Y-114557338D01*
X105502277Y-114557338D01*
X105497373Y-114554686D01*
X105306193Y-114495506D01*
X105280076Y-114492761D01*
X105112697Y-114475169D01*
X105112696Y-114475169D01*
X105107159Y-114474587D01*
X104907852Y-114492725D01*
X104715864Y-114549230D01*
X104538508Y-114641950D01*
X104524230Y-114653430D01*
X104398953Y-114754156D01*
X104382539Y-114767353D01*
X104253897Y-114920661D01*
X104157484Y-115096037D01*
X104155801Y-115101342D01*
X104155799Y-115101347D01*
X104112197Y-115238798D01*
X104076311Y-115292074D01*
X104017318Y-115317491D01*
X103953949Y-115306980D01*
X103906322Y-115263877D01*
X103892968Y-115232101D01*
X103851095Y-115065400D01*
X103848090Y-115056574D01*
X103762779Y-114860371D01*
X103758370Y-114852147D01*
X103642153Y-114672504D01*
X103636474Y-114665129D01*
X103492472Y-114506873D01*
X103485662Y-114500523D01*
X103317751Y-114367915D01*
X103309984Y-114362755D01*
X103122681Y-114259358D01*
X103114170Y-114255533D01*
X102912495Y-114184116D01*
X102903476Y-114181733D01*
X102830139Y-114168670D01*
X102818108Y-114169990D01*
X102814000Y-114183160D01*
X102814000Y-116820243D01*
X102306000Y-116820243D01*
X102306000Y-114181378D01*
X102302433Y-114169230D01*
X102302433Y-114104995D01*
X102337160Y-114050957D01*
X102353894Y-114038922D01*
X102710378Y-113828637D01*
X102715970Y-113825547D01*
X102723982Y-113821408D01*
X103266072Y-113541358D01*
X103271797Y-113538601D01*
X103836974Y-113285702D01*
X103842865Y-113283262D01*
X104421322Y-113062454D01*
X104427346Y-113060346D01*
X105017253Y-112872326D01*
X105023398Y-112870555D01*
X105116221Y-112846611D01*
X105622948Y-112715900D01*
X105629155Y-112714483D01*
X106062194Y-112628347D01*
X106236429Y-112593690D01*
X106242733Y-112592619D01*
X106549269Y-112549344D01*
X106855814Y-112506067D01*
X106862150Y-112505353D01*
X107479132Y-112453312D01*
X107485518Y-112452954D01*
X108074483Y-112436430D01*
X108097473Y-112438116D01*
X108097795Y-112438173D01*
X108097797Y-112438173D01*
X108107615Y-112439904D01*
X108122769Y-112437232D01*
X108142564Y-112435500D01*
X112229901Y-112435500D01*
X112291534Y-112453597D01*
X112333599Y-112502143D01*
X112342741Y-112565724D01*
X112316056Y-112624154D01*
X112260354Y-112659357D01*
X112258149Y-112659969D01*
X112256262Y-112660492D01*
X112250421Y-112661946D01*
X112204275Y-112672149D01*
X112200232Y-112672966D01*
X112149211Y-112682325D01*
X112147796Y-112682575D01*
X112089797Y-112692460D01*
X112089559Y-112692502D01*
X112089428Y-112692524D01*
X112089323Y-112692542D01*
X112087727Y-112692823D01*
X112087574Y-112692850D01*
X112054080Y-112698929D01*
X112022653Y-112704632D01*
X112022597Y-112704642D01*
X112022434Y-112704672D01*
X112020326Y-112705068D01*
X112020053Y-112705121D01*
X112017395Y-112705658D01*
X112017339Y-112705670D01*
X112017279Y-112705682D01*
X111944600Y-112720961D01*
X111944570Y-112720967D01*
X111944439Y-112720995D01*
X111944289Y-112721028D01*
X111944261Y-112721034D01*
X111943388Y-112721226D01*
X111941250Y-112721696D01*
X111940880Y-112721781D01*
X111940665Y-112721833D01*
X111940650Y-112721836D01*
X111937993Y-112722472D01*
X111937945Y-112722484D01*
X111937831Y-112722511D01*
X111937726Y-112722537D01*
X111937628Y-112722561D01*
X111885797Y-112735447D01*
X111861926Y-112741382D01*
X111858928Y-112742497D01*
X111858926Y-112742498D01*
X111858295Y-112742733D01*
X111855631Y-112743583D01*
X111851070Y-112744184D01*
X111712289Y-112801669D01*
X111706360Y-112806218D01*
X111706359Y-112806219D01*
X111603037Y-112885500D01*
X111593114Y-112893114D01*
X111588566Y-112899041D01*
X111513150Y-112997327D01*
X111501669Y-113012289D01*
X111498808Y-113019196D01*
X111447459Y-113143164D01*
X111444184Y-113151070D01*
X111424577Y-113300000D01*
X111444184Y-113448930D01*
X111447042Y-113455831D01*
X111447043Y-113455833D01*
X111489914Y-113559333D01*
X111501669Y-113587711D01*
X111506218Y-113593640D01*
X111506219Y-113593641D01*
X111562596Y-113667114D01*
X111593114Y-113706886D01*
X111599041Y-113711434D01*
X111682705Y-113775631D01*
X111712288Y-113798331D01*
X111719194Y-113801191D01*
X111719193Y-113801191D01*
X111844167Y-113852957D01*
X111844169Y-113852958D01*
X111851070Y-113855816D01*
X112000000Y-113875423D01*
X112148930Y-113855816D01*
X112155831Y-113852958D01*
X112155833Y-113852957D01*
X112280807Y-113801191D01*
X112280806Y-113801191D01*
X112287712Y-113798331D01*
X112317296Y-113775631D01*
X112400959Y-113711434D01*
X112406886Y-113706886D01*
X112437404Y-113667114D01*
X112493781Y-113593641D01*
X112493782Y-113593640D01*
X112498331Y-113587711D01*
X112509002Y-113561949D01*
X112515800Y-113545537D01*
X112524777Y-113528224D01*
X112531274Y-113517952D01*
X112531276Y-113517948D01*
X112534269Y-113513216D01*
X112558627Y-113449974D01*
X112560544Y-113444749D01*
X112560794Y-113444033D01*
X112562621Y-113438510D01*
X112583100Y-113372954D01*
X112584020Y-113369912D01*
X112584135Y-113369519D01*
X112584943Y-113366668D01*
X112601465Y-113306454D01*
X112601656Y-113305768D01*
X112615135Y-113257819D01*
X112617063Y-113251638D01*
X112627397Y-113221552D01*
X112632127Y-113209916D01*
X112639221Y-113194898D01*
X112647915Y-113179658D01*
X112653115Y-113171982D01*
X112665489Y-113156736D01*
X112665807Y-113156407D01*
X112674948Y-113146942D01*
X112688756Y-113134784D01*
X112712039Y-113117406D01*
X112724751Y-113109173D01*
X112769408Y-113084300D01*
X112832060Y-113070121D01*
X112892431Y-113092065D01*
X112931354Y-113143164D01*
X112937904Y-113198774D01*
X112924577Y-113300000D01*
X112944184Y-113448930D01*
X112947042Y-113455831D01*
X112947043Y-113455833D01*
X112989914Y-113559333D01*
X113001669Y-113587711D01*
X113006218Y-113593640D01*
X113006219Y-113593641D01*
X113062596Y-113667114D01*
X113093114Y-113706886D01*
X113099041Y-113711434D01*
X113182705Y-113775631D01*
X113212288Y-113798331D01*
X113219194Y-113801191D01*
X113219193Y-113801191D01*
X113344167Y-113852957D01*
X113344169Y-113852958D01*
X113351070Y-113855816D01*
X113500000Y-113875423D01*
X113648930Y-113855816D01*
X113655831Y-113852958D01*
X113655833Y-113852957D01*
X113714539Y-113828640D01*
X113732003Y-113821406D01*
X113743360Y-113817392D01*
X113763353Y-113811495D01*
X113826166Y-113778542D01*
X113828416Y-113777320D01*
X113830213Y-113776344D01*
X113830252Y-113776323D01*
X113830586Y-113776141D01*
X113831161Y-113775818D01*
X113831483Y-113775631D01*
X113835261Y-113773435D01*
X113835322Y-113773399D01*
X113835652Y-113773207D01*
X113895278Y-113737351D01*
X113895486Y-113737223D01*
X113898263Y-113735514D01*
X113898292Y-113735496D01*
X113898417Y-113735419D01*
X113898793Y-113735182D01*
X113901302Y-113733571D01*
X113925751Y-113717574D01*
X113953792Y-113699226D01*
X113953835Y-113699292D01*
X113954735Y-113698758D01*
X113954664Y-113698651D01*
X113998973Y-113669304D01*
X114002412Y-113667114D01*
X114036080Y-113646508D01*
X114043797Y-113642187D01*
X114069706Y-113628977D01*
X114080997Y-113623971D01*
X114105490Y-113614668D01*
X114118468Y-113610608D01*
X114149966Y-113602786D01*
X114162454Y-113600415D01*
X114208868Y-113594260D01*
X114219452Y-113593356D01*
X114251213Y-113592129D01*
X114285526Y-113590803D01*
X114296090Y-113588382D01*
X114321557Y-113585500D01*
X114664565Y-113585500D01*
X114726198Y-113603597D01*
X114768263Y-113652143D01*
X114777405Y-113715724D01*
X114750720Y-113774154D01*
X114704022Y-113806454D01*
X114462065Y-113895717D01*
X114462057Y-113895720D01*
X114459968Y-113896491D01*
X114457951Y-113897421D01*
X114457941Y-113897425D01*
X114339778Y-113951900D01*
X114098474Y-114063144D01*
X114011492Y-114111857D01*
X113920000Y-114163095D01*
X113896240Y-114173064D01*
X113893941Y-114173735D01*
X113886729Y-114175840D01*
X113720715Y-114262323D01*
X113711666Y-114266542D01*
X113663183Y-114286616D01*
X113573298Y-114323831D01*
X113562598Y-114327649D01*
X113537107Y-114335335D01*
X113444714Y-114363192D01*
X113433757Y-114365910D01*
X113325955Y-114387029D01*
X113316938Y-114388422D01*
X113267728Y-114394018D01*
X113207748Y-114400838D01*
X113202833Y-114401289D01*
X113110273Y-114407753D01*
X113082602Y-114409685D01*
X113082587Y-114409686D01*
X113082484Y-114409694D01*
X112951207Y-114418951D01*
X112951193Y-114418952D01*
X112950896Y-114418973D01*
X112950600Y-114418997D01*
X112950545Y-114419001D01*
X112949290Y-114419102D01*
X112947420Y-114419253D01*
X112947323Y-114419262D01*
X112947272Y-114419266D01*
X112947200Y-114419273D01*
X112946956Y-114419295D01*
X112946652Y-114419325D01*
X112946647Y-114419326D01*
X112946512Y-114419340D01*
X112943470Y-114419645D01*
X112943206Y-114419674D01*
X112943189Y-114419676D01*
X112801611Y-114435346D01*
X112801107Y-114435402D01*
X112800624Y-114435463D01*
X112800584Y-114435468D01*
X112796597Y-114435974D01*
X112795563Y-114436105D01*
X112794801Y-114436214D01*
X112794323Y-114436291D01*
X112794321Y-114436291D01*
X112789389Y-114437082D01*
X112789345Y-114437089D01*
X112788949Y-114437153D01*
X112743988Y-114445142D01*
X112630340Y-114465335D01*
X112630294Y-114465344D01*
X112629780Y-114465435D01*
X112623185Y-114466737D01*
X112622316Y-114466926D01*
X112619807Y-114467522D01*
X112616365Y-114468339D01*
X112616321Y-114468350D01*
X112615828Y-114468467D01*
X112441679Y-114513335D01*
X112403409Y-114528150D01*
X112402705Y-114528522D01*
X112389556Y-114533428D01*
X112335864Y-114549230D01*
X112158508Y-114641950D01*
X112144230Y-114653430D01*
X112018953Y-114754156D01*
X112002539Y-114767353D01*
X111873897Y-114920661D01*
X111777484Y-115096037D01*
X111775801Y-115101342D01*
X111775799Y-115101347D01*
X111732197Y-115238798D01*
X111696311Y-115292074D01*
X111637318Y-115317491D01*
X111573949Y-115306980D01*
X111526322Y-115263877D01*
X111512968Y-115232101D01*
X111471095Y-115065400D01*
X111468090Y-115056574D01*
X111382779Y-114860371D01*
X111378370Y-114852147D01*
X111262153Y-114672504D01*
X111256474Y-114665129D01*
X111112472Y-114506873D01*
X111105662Y-114500523D01*
X110937751Y-114367915D01*
X110929984Y-114362755D01*
X110742681Y-114259358D01*
X110734170Y-114255533D01*
X110532495Y-114184116D01*
X110523476Y-114181733D01*
X110450139Y-114168670D01*
X110438108Y-114169990D01*
X110434000Y-114183160D01*
X110434000Y-116820243D01*
X110437677Y-116832766D01*
X110449813Y-116834606D01*
X110458671Y-116833471D01*
X110467793Y-116831533D01*
X110672716Y-116770052D01*
X110681407Y-116766646D01*
X110873537Y-116672523D01*
X110881545Y-116667749D01*
X111055725Y-116543509D01*
X111062852Y-116537486D01*
X111214398Y-116386466D01*
X111220444Y-116379362D01*
X111345285Y-116205628D01*
X111350100Y-116197614D01*
X111444890Y-116005823D01*
X111448324Y-115997150D01*
X111510522Y-115792432D01*
X111513480Y-115778752D01*
X111514607Y-115778996D01*
X111538397Y-115725228D01*
X111592019Y-115689863D01*
X111656250Y-115689102D01*
X111710695Y-115723188D01*
X111735014Y-115767434D01*
X111737773Y-115777056D01*
X111763790Y-115867786D01*
X111766572Y-115877489D01*
X111769122Y-115882450D01*
X111769122Y-115882451D01*
X111789415Y-115921936D01*
X111858051Y-116055488D01*
X111982362Y-116212329D01*
X112134769Y-116342038D01*
X112181790Y-116368317D01*
X112304596Y-116436951D01*
X112304598Y-116436952D01*
X112309467Y-116439673D01*
X112314776Y-116441398D01*
X112494498Y-116499794D01*
X112494502Y-116499795D01*
X112499802Y-116501517D01*
X112557190Y-116508360D01*
X112692988Y-116524553D01*
X112692990Y-116524553D01*
X112698525Y-116525213D01*
X112898065Y-116509859D01*
X112903430Y-116508361D01*
X112903436Y-116508360D01*
X113085460Y-116457538D01*
X113085463Y-116457537D01*
X113090824Y-116456040D01*
X113269457Y-116365806D01*
X113427162Y-116242593D01*
X113457053Y-116207964D01*
X113554288Y-116095317D01*
X113554290Y-116095314D01*
X113557931Y-116091096D01*
X113575676Y-116059860D01*
X113654027Y-115921936D01*
X113656784Y-115917083D01*
X113658545Y-115911789D01*
X113658546Y-115911787D01*
X113666374Y-115888257D01*
X113675506Y-115867786D01*
X113676093Y-115866756D01*
X113678867Y-115861891D01*
X113707105Y-115777199D01*
X113731638Y-115703619D01*
X113731647Y-115703592D01*
X113731869Y-115702925D01*
X113734534Y-115694177D01*
X113734858Y-115693005D01*
X113735417Y-115690760D01*
X113736676Y-115685697D01*
X113737053Y-115684181D01*
X113771297Y-115529520D01*
X113771385Y-115529086D01*
X113771396Y-115529034D01*
X113772441Y-115523875D01*
X113772442Y-115523868D01*
X113772553Y-115523322D01*
X113772706Y-115522490D01*
X113773230Y-115519321D01*
X113773657Y-115516737D01*
X113773663Y-115516696D01*
X113773744Y-115516208D01*
X113794898Y-115371925D01*
X113795159Y-115370076D01*
X113795200Y-115369774D01*
X113795544Y-115367083D01*
X113801498Y-115317491D01*
X113811211Y-115236582D01*
X113811715Y-115232890D01*
X113828308Y-115124689D01*
X113830599Y-115113515D01*
X113852013Y-115030435D01*
X113858157Y-115012757D01*
X113885811Y-114950273D01*
X113887277Y-114946961D01*
X113898733Y-114926873D01*
X113943365Y-114864339D01*
X113958390Y-114847207D01*
X114034375Y-114776321D01*
X114049243Y-114764601D01*
X114065033Y-114754156D01*
X114179315Y-114678556D01*
X114183016Y-114675010D01*
X114185571Y-114672968D01*
X114204102Y-114660905D01*
X114496075Y-114508913D01*
X114505090Y-114504709D01*
X114520684Y-114498250D01*
X114584551Y-114491385D01*
X114641991Y-114520138D01*
X114674767Y-114575382D01*
X114672474Y-114639576D01*
X114635744Y-114692414D01*
X114542539Y-114767353D01*
X114413897Y-114920661D01*
X114317484Y-115096037D01*
X114315801Y-115101343D01*
X114315800Y-115101345D01*
X114270073Y-115245494D01*
X114256970Y-115286799D01*
X114247422Y-115371925D01*
X114243678Y-115405306D01*
X114234662Y-115485683D01*
X114251408Y-115685111D01*
X114263472Y-115727184D01*
X114303790Y-115867786D01*
X114306572Y-115877489D01*
X114309122Y-115882450D01*
X114309122Y-115882451D01*
X114329415Y-115921936D01*
X114398051Y-116055488D01*
X114522362Y-116212329D01*
X114674769Y-116342038D01*
X114721790Y-116368317D01*
X114844596Y-116436951D01*
X114844598Y-116436952D01*
X114849467Y-116439673D01*
X114854776Y-116441398D01*
X115034498Y-116499794D01*
X115034502Y-116499795D01*
X115039802Y-116501517D01*
X115097190Y-116508360D01*
X115232988Y-116524553D01*
X115232990Y-116524553D01*
X115238525Y-116525213D01*
X115438065Y-116509859D01*
X115443430Y-116508361D01*
X115443436Y-116508360D01*
X115625460Y-116457538D01*
X115625463Y-116457537D01*
X115630824Y-116456040D01*
X115809457Y-116365806D01*
X115967162Y-116242593D01*
X115997053Y-116207964D01*
X116094288Y-116095317D01*
X116094290Y-116095314D01*
X116097931Y-116091096D01*
X116115676Y-116059860D01*
X116194027Y-115921936D01*
X116196784Y-115917083D01*
X116198544Y-115911793D01*
X116198546Y-115911788D01*
X116217994Y-115853323D01*
X116225057Y-115836648D01*
X116233808Y-115819849D01*
X116290147Y-115626741D01*
X116291942Y-115620108D01*
X116292165Y-115619215D01*
X116293712Y-115612454D01*
X116334192Y-115417954D01*
X116334855Y-115414608D01*
X116334939Y-115414161D01*
X116335536Y-115410803D01*
X116336361Y-115405893D01*
X116366504Y-115226330D01*
X116366659Y-115225429D01*
X116395481Y-115061787D01*
X116397006Y-115054521D01*
X116429031Y-114923356D01*
X116433716Y-114908602D01*
X116471114Y-114813696D01*
X116482464Y-114792042D01*
X116489353Y-114781759D01*
X116525040Y-114728488D01*
X116545617Y-114705335D01*
X116602351Y-114656778D01*
X116628245Y-114640095D01*
X116724255Y-114595272D01*
X116747799Y-114587274D01*
X116887629Y-114556269D01*
X116919402Y-114549224D01*
X116921588Y-114548316D01*
X116944978Y-114543765D01*
X116977689Y-114541191D01*
X117018276Y-114537997D01*
X117030204Y-114538569D01*
X117030204Y-114538172D01*
X117040177Y-114538172D01*
X117049406Y-114539799D01*
X117049405Y-114539799D01*
X117049981Y-114539901D01*
X117049970Y-114539965D01*
X117105495Y-114556269D01*
X117147560Y-114604815D01*
X117156702Y-114668396D01*
X117130017Y-114726826D01*
X117115299Y-114741013D01*
X117082539Y-114767353D01*
X116953897Y-114920661D01*
X116857484Y-115096037D01*
X116855801Y-115101343D01*
X116855800Y-115101345D01*
X116810073Y-115245494D01*
X116796970Y-115286799D01*
X116787422Y-115371925D01*
X116783678Y-115405306D01*
X116774662Y-115485683D01*
X116791408Y-115685111D01*
X116803472Y-115727184D01*
X116843790Y-115867786D01*
X116846572Y-115877489D01*
X116849122Y-115882450D01*
X116849122Y-115882451D01*
X116869415Y-115921936D01*
X116938051Y-116055488D01*
X117062362Y-116212329D01*
X117214769Y-116342038D01*
X117261790Y-116368317D01*
X117384596Y-116436951D01*
X117384598Y-116436952D01*
X117389467Y-116439673D01*
X117394776Y-116441398D01*
X117574498Y-116499794D01*
X117574502Y-116499795D01*
X117579802Y-116501517D01*
X117637190Y-116508360D01*
X117772988Y-116524553D01*
X117772990Y-116524553D01*
X117778525Y-116525213D01*
X117978065Y-116509859D01*
X117983430Y-116508361D01*
X117983436Y-116508360D01*
X118165460Y-116457538D01*
X118165463Y-116457537D01*
X118170824Y-116456040D01*
X118349457Y-116365806D01*
X118507162Y-116242593D01*
X118537053Y-116207964D01*
X118634288Y-116095317D01*
X118634290Y-116095314D01*
X118637931Y-116091096D01*
X118655676Y-116059860D01*
X118734027Y-115921936D01*
X118736784Y-115917083D01*
X118781501Y-115782660D01*
X118785803Y-115771666D01*
X118788249Y-115766258D01*
X118792336Y-115757223D01*
X118796650Y-115738666D01*
X118797356Y-115736164D01*
X118798193Y-115732479D01*
X118799955Y-115727184D01*
X118800654Y-115721649D01*
X118801890Y-115716211D01*
X118801909Y-115716215D01*
X118802038Y-115715496D01*
X118805121Y-115702239D01*
X118833181Y-115581555D01*
X118834660Y-115574547D01*
X118834840Y-115573599D01*
X118836055Y-115566388D01*
X118859650Y-115405893D01*
X118860471Y-115399493D01*
X118860562Y-115398663D01*
X118861119Y-115392609D01*
X118862829Y-115369716D01*
X118871808Y-115249514D01*
X118871813Y-115249445D01*
X118871839Y-115249094D01*
X118872071Y-115245494D01*
X118872099Y-115244976D01*
X118872275Y-115240813D01*
X118876293Y-115108069D01*
X118876308Y-115107545D01*
X118879618Y-114986214D01*
X118879865Y-114981214D01*
X118884215Y-114920226D01*
X118887698Y-114871397D01*
X118888768Y-114861961D01*
X118903953Y-114764601D01*
X118905582Y-114754156D01*
X118908041Y-114742458D01*
X118939280Y-114624850D01*
X118942998Y-114613349D01*
X118996015Y-114474898D01*
X119000296Y-114465116D01*
X119012435Y-114440578D01*
X119083148Y-114297638D01*
X119084581Y-114292520D01*
X119084584Y-114292513D01*
X119085205Y-114290294D01*
X119095516Y-114265334D01*
X119098863Y-114259358D01*
X119160154Y-114149914D01*
X119177699Y-114111857D01*
X119349169Y-113739908D01*
X119350103Y-113737882D01*
X119351661Y-113733659D01*
X119393546Y-113620126D01*
X119431857Y-113568566D01*
X119491962Y-113545903D01*
X119554777Y-113559333D01*
X119600360Y-113604592D01*
X119614500Y-113659583D01*
X119614500Y-113886664D01*
X119611401Y-113913064D01*
X119609201Y-113922302D01*
X119608991Y-113927902D01*
X119608991Y-113927905D01*
X119601815Y-114119622D01*
X119601064Y-114129100D01*
X119581614Y-114289271D01*
X119579999Y-114299019D01*
X119552998Y-114427248D01*
X119551822Y-114432831D01*
X119549706Y-114441267D01*
X119541079Y-114470836D01*
X119514661Y-114561378D01*
X119512977Y-114566666D01*
X119471938Y-114685478D01*
X119471676Y-114686228D01*
X119428528Y-114808379D01*
X119428495Y-114808475D01*
X119428434Y-114808647D01*
X119427342Y-114811836D01*
X119427201Y-114812261D01*
X119426177Y-114815450D01*
X119426097Y-114815706D01*
X119410266Y-114866657D01*
X119386251Y-114943948D01*
X119384415Y-114950273D01*
X119384189Y-114951110D01*
X119382629Y-114957337D01*
X119382525Y-114957789D01*
X119382511Y-114957845D01*
X119364912Y-115033988D01*
X119349811Y-115099324D01*
X119349674Y-115099984D01*
X119349668Y-115100012D01*
X119349392Y-115101347D01*
X119348194Y-115107122D01*
X119347999Y-115108183D01*
X119346704Y-115116290D01*
X119342804Y-115145010D01*
X119328612Y-115249514D01*
X119324429Y-115280312D01*
X119323522Y-115288390D01*
X119323426Y-115289470D01*
X119322893Y-115297602D01*
X119317938Y-115414909D01*
X119315288Y-115477629D01*
X119315275Y-115477789D01*
X119315265Y-115478150D01*
X119315266Y-115478153D01*
X119315120Y-115481597D01*
X119314662Y-115485683D01*
X119315128Y-115491233D01*
X119315128Y-115491237D01*
X119325307Y-115612454D01*
X119331408Y-115685111D01*
X119343472Y-115727184D01*
X119383790Y-115867786D01*
X119386572Y-115877489D01*
X119389122Y-115882450D01*
X119389122Y-115882451D01*
X119409415Y-115921936D01*
X119478051Y-116055488D01*
X119602362Y-116212329D01*
X119754769Y-116342038D01*
X119801790Y-116368317D01*
X119924596Y-116436951D01*
X119924598Y-116436952D01*
X119929467Y-116439673D01*
X119934776Y-116441398D01*
X120114498Y-116499794D01*
X120114502Y-116499795D01*
X120119802Y-116501517D01*
X120177190Y-116508360D01*
X120312988Y-116524553D01*
X120312990Y-116524553D01*
X120318525Y-116525213D01*
X120518065Y-116509859D01*
X120523430Y-116508361D01*
X120523436Y-116508360D01*
X120705460Y-116457538D01*
X120705463Y-116457537D01*
X120710824Y-116456040D01*
X120889457Y-116365806D01*
X121047162Y-116242593D01*
X121077053Y-116207964D01*
X121174288Y-116095317D01*
X121174290Y-116095314D01*
X121177931Y-116091096D01*
X121195676Y-116059860D01*
X121274027Y-115921936D01*
X121276784Y-115917083D01*
X121278544Y-115911793D01*
X121278545Y-115911791D01*
X121329338Y-115759100D01*
X121365964Y-115706330D01*
X121425306Y-115681739D01*
X121488522Y-115693134D01*
X121535542Y-115736898D01*
X121548721Y-115770021D01*
X121578673Y-115902930D01*
X121581461Y-115911823D01*
X121661954Y-116110055D01*
X121666157Y-116118377D01*
X121777951Y-116300807D01*
X121783451Y-116308322D01*
X121923538Y-116470043D01*
X121930199Y-116476566D01*
X122094818Y-116613236D01*
X122102453Y-116618581D01*
X122287178Y-116726526D01*
X122295588Y-116730555D01*
X122495452Y-116806875D01*
X122504427Y-116809483D01*
X122609935Y-116830949D01*
X122622652Y-116829867D01*
X122626000Y-116820507D01*
X122626000Y-116820243D01*
X123134000Y-116820243D01*
X123137677Y-116832766D01*
X123149813Y-116834606D01*
X123158671Y-116833471D01*
X123167793Y-116831533D01*
X123372716Y-116770052D01*
X123381407Y-116766646D01*
X123573537Y-116672523D01*
X123581545Y-116667749D01*
X123755725Y-116543509D01*
X123762852Y-116537486D01*
X123914398Y-116386466D01*
X123920444Y-116379362D01*
X124045285Y-116205628D01*
X124050100Y-116197614D01*
X124144890Y-116005823D01*
X124148324Y-115997150D01*
X124210522Y-115792432D01*
X124213480Y-115778752D01*
X124214607Y-115778996D01*
X124238397Y-115725228D01*
X124292019Y-115689863D01*
X124356250Y-115689102D01*
X124410695Y-115723188D01*
X124435014Y-115767434D01*
X124437773Y-115777056D01*
X124463790Y-115867786D01*
X124466572Y-115877489D01*
X124469122Y-115882450D01*
X124469122Y-115882451D01*
X124489415Y-115921936D01*
X124558051Y-116055488D01*
X124682362Y-116212329D01*
X124834769Y-116342038D01*
X124881790Y-116368317D01*
X125004596Y-116436951D01*
X125004598Y-116436952D01*
X125009467Y-116439673D01*
X125014776Y-116441398D01*
X125194498Y-116499794D01*
X125194502Y-116499795D01*
X125199802Y-116501517D01*
X125257190Y-116508360D01*
X125392988Y-116524553D01*
X125392990Y-116524553D01*
X125398525Y-116525213D01*
X125598065Y-116509859D01*
X125603430Y-116508361D01*
X125603436Y-116508360D01*
X125785460Y-116457538D01*
X125785463Y-116457537D01*
X125790824Y-116456040D01*
X125969457Y-116365806D01*
X126127162Y-116242593D01*
X126157053Y-116207964D01*
X126254288Y-116095317D01*
X126254290Y-116095314D01*
X126257931Y-116091096D01*
X126275676Y-116059860D01*
X126354027Y-115921936D01*
X126356784Y-115917083D01*
X126358544Y-115911793D01*
X126358545Y-115911791D01*
X126418196Y-115732472D01*
X126418196Y-115732471D01*
X126419955Y-115727184D01*
X126421342Y-115716211D01*
X126439165Y-115575122D01*
X126445038Y-115528632D01*
X126445283Y-115511087D01*
X126445394Y-115503182D01*
X126445394Y-115503174D01*
X126445438Y-115500000D01*
X126444034Y-115485683D01*
X126934662Y-115485683D01*
X126951408Y-115685111D01*
X126963472Y-115727184D01*
X127003790Y-115867786D01*
X127006572Y-115877489D01*
X127009122Y-115882450D01*
X127009122Y-115882451D01*
X127029415Y-115921936D01*
X127098051Y-116055488D01*
X127222362Y-116212329D01*
X127374769Y-116342038D01*
X127421790Y-116368317D01*
X127544596Y-116436951D01*
X127544598Y-116436952D01*
X127549467Y-116439673D01*
X127554776Y-116441398D01*
X127734498Y-116499794D01*
X127734502Y-116499795D01*
X127739802Y-116501517D01*
X127797190Y-116508360D01*
X127932988Y-116524553D01*
X127932990Y-116524553D01*
X127938525Y-116525213D01*
X128138065Y-116509859D01*
X128143430Y-116508361D01*
X128143436Y-116508360D01*
X128325460Y-116457538D01*
X128325463Y-116457537D01*
X128330824Y-116456040D01*
X128509457Y-116365806D01*
X128667162Y-116242593D01*
X128697053Y-116207964D01*
X128794288Y-116095317D01*
X128794290Y-116095314D01*
X128797931Y-116091096D01*
X128815676Y-116059860D01*
X128894027Y-115921936D01*
X128896784Y-115917083D01*
X128898544Y-115911792D01*
X128898545Y-115911790D01*
X128919829Y-115847808D01*
X128956456Y-115795038D01*
X129015797Y-115770447D01*
X129079014Y-115781842D01*
X129126034Y-115825606D01*
X129142001Y-115883792D01*
X129142001Y-116395002D01*
X129142335Y-116401160D01*
X129147976Y-116453098D01*
X129151257Y-116466900D01*
X129196978Y-116588861D01*
X129204697Y-116602958D01*
X129282226Y-116706406D01*
X129293594Y-116717774D01*
X129397042Y-116795303D01*
X129411139Y-116803022D01*
X129533105Y-116848745D01*
X129546896Y-116852024D01*
X129598843Y-116857667D01*
X129604995Y-116858000D01*
X130229611Y-116858000D01*
X130243397Y-116853952D01*
X130244488Y-116852693D01*
X130246000Y-116845742D01*
X130246000Y-116841610D01*
X130754000Y-116841610D01*
X130758048Y-116855396D01*
X130759307Y-116856487D01*
X130766258Y-116857999D01*
X131395002Y-116857999D01*
X131401160Y-116857665D01*
X131453098Y-116852024D01*
X131466900Y-116848743D01*
X131588861Y-116803022D01*
X131602958Y-116795303D01*
X131706406Y-116717774D01*
X131717774Y-116706406D01*
X131795303Y-116602958D01*
X131803022Y-116588861D01*
X131848745Y-116466895D01*
X131852024Y-116453104D01*
X131857667Y-116401157D01*
X131858000Y-116395005D01*
X131858000Y-115770389D01*
X131853952Y-115756603D01*
X131852693Y-115755512D01*
X131845742Y-115754000D01*
X130770389Y-115754000D01*
X130756603Y-115758048D01*
X130755512Y-115759307D01*
X130754000Y-115766258D01*
X130754000Y-116841610D01*
X130246000Y-116841610D01*
X130246000Y-115229611D01*
X130754000Y-115229611D01*
X130758048Y-115243397D01*
X130759307Y-115244488D01*
X130766258Y-115246000D01*
X131841610Y-115246000D01*
X131855396Y-115241952D01*
X131856487Y-115240693D01*
X131857999Y-115233742D01*
X131857999Y-114604998D01*
X131857665Y-114598840D01*
X131852024Y-114546902D01*
X131848743Y-114533100D01*
X131803022Y-114411139D01*
X131795303Y-114397042D01*
X131717774Y-114293594D01*
X131706406Y-114282226D01*
X131602958Y-114204697D01*
X131588861Y-114196978D01*
X131466895Y-114151255D01*
X131453104Y-114147976D01*
X131401157Y-114142333D01*
X131395005Y-114142000D01*
X130770389Y-114142000D01*
X130756603Y-114146048D01*
X130755512Y-114147307D01*
X130754000Y-114154258D01*
X130754000Y-115229611D01*
X130246000Y-115229611D01*
X130246000Y-114158390D01*
X130241952Y-114144604D01*
X130240693Y-114143513D01*
X130233742Y-114142001D01*
X129604998Y-114142001D01*
X129598840Y-114142335D01*
X129546902Y-114147976D01*
X129533100Y-114151257D01*
X129411139Y-114196978D01*
X129397042Y-114204697D01*
X129293594Y-114282226D01*
X129282226Y-114293594D01*
X129204697Y-114397042D01*
X129196978Y-114411139D01*
X129151255Y-114533105D01*
X129147976Y-114546896D01*
X129142333Y-114598843D01*
X129142000Y-114604995D01*
X129142000Y-115112062D01*
X129123903Y-115173695D01*
X129075357Y-115215760D01*
X129011776Y-115224902D01*
X128953346Y-115198217D01*
X128918866Y-115145012D01*
X128908065Y-115109236D01*
X128903871Y-115101347D01*
X128827032Y-114956835D01*
X128814109Y-114932531D01*
X128687621Y-114777441D01*
X128671212Y-114763866D01*
X128537718Y-114653430D01*
X128537716Y-114653429D01*
X128533418Y-114649873D01*
X128397765Y-114576526D01*
X128362278Y-114557338D01*
X128362277Y-114557338D01*
X128357373Y-114554686D01*
X128166193Y-114495506D01*
X128140076Y-114492761D01*
X127972697Y-114475169D01*
X127972696Y-114475169D01*
X127967159Y-114474587D01*
X127767852Y-114492725D01*
X127575864Y-114549230D01*
X127398508Y-114641950D01*
X127384230Y-114653430D01*
X127258953Y-114754156D01*
X127242539Y-114767353D01*
X127113897Y-114920661D01*
X127017484Y-115096037D01*
X127015801Y-115101343D01*
X127015800Y-115101345D01*
X126970073Y-115245494D01*
X126956970Y-115286799D01*
X126947422Y-115371925D01*
X126943678Y-115405306D01*
X126934662Y-115485683D01*
X126444034Y-115485683D01*
X126434864Y-115392155D01*
X126426454Y-115306378D01*
X126426453Y-115306373D01*
X126425909Y-115300825D01*
X126421960Y-115287743D01*
X126369678Y-115114578D01*
X126369677Y-115114577D01*
X126368065Y-115109236D01*
X126363871Y-115101347D01*
X126287032Y-114956835D01*
X126274109Y-114932531D01*
X126147621Y-114777441D01*
X126131212Y-114763866D01*
X125997718Y-114653430D01*
X125997716Y-114653429D01*
X125993418Y-114649873D01*
X125857765Y-114576526D01*
X125822278Y-114557338D01*
X125822277Y-114557338D01*
X125817373Y-114554686D01*
X125626193Y-114495506D01*
X125600076Y-114492761D01*
X125432697Y-114475169D01*
X125432696Y-114475169D01*
X125427159Y-114474587D01*
X125227852Y-114492725D01*
X125035864Y-114549230D01*
X124858508Y-114641950D01*
X124844230Y-114653430D01*
X124718953Y-114754156D01*
X124702539Y-114767353D01*
X124573897Y-114920661D01*
X124477484Y-115096037D01*
X124475801Y-115101342D01*
X124475799Y-115101347D01*
X124432197Y-115238798D01*
X124396311Y-115292074D01*
X124337318Y-115317491D01*
X124273949Y-115306980D01*
X124226322Y-115263877D01*
X124212968Y-115232101D01*
X124171095Y-115065400D01*
X124168090Y-115056574D01*
X124082779Y-114860371D01*
X124078370Y-114852147D01*
X123962153Y-114672504D01*
X123956474Y-114665129D01*
X123812472Y-114506873D01*
X123805662Y-114500523D01*
X123637751Y-114367915D01*
X123629984Y-114362755D01*
X123442681Y-114259358D01*
X123434170Y-114255533D01*
X123232495Y-114184116D01*
X123223476Y-114181733D01*
X123150139Y-114168670D01*
X123138108Y-114169990D01*
X123134000Y-114183160D01*
X123134000Y-116820243D01*
X122626000Y-116820243D01*
X122626000Y-114181376D01*
X122622455Y-114169304D01*
X122609537Y-114167506D01*
X122568835Y-114173735D01*
X122559760Y-114175897D01*
X122356396Y-114242366D01*
X122347798Y-114245980D01*
X122158025Y-114344770D01*
X122150134Y-114349739D01*
X121979035Y-114478204D01*
X121972070Y-114484388D01*
X121824251Y-114639072D01*
X121818382Y-114646319D01*
X121697816Y-114823062D01*
X121693209Y-114831172D01*
X121603130Y-115025232D01*
X121599908Y-115033988D01*
X121544934Y-115232218D01*
X121511024Y-115286774D01*
X121453003Y-115314335D01*
X121389291Y-115306153D01*
X121340117Y-115264824D01*
X121325946Y-115234703D01*
X121289678Y-115114578D01*
X121289677Y-115114577D01*
X121288065Y-115109236D01*
X121283871Y-115101347D01*
X121207032Y-114956835D01*
X121194109Y-114932531D01*
X121135257Y-114860371D01*
X121071143Y-114781759D01*
X121071141Y-114781757D01*
X121067621Y-114777441D01*
X121060588Y-114771622D01*
X120928651Y-114662474D01*
X120926766Y-114660780D01*
X120924552Y-114659008D01*
X120920546Y-114655101D01*
X120916764Y-114652641D01*
X120913418Y-114649873D01*
X120908515Y-114647221D01*
X120906132Y-114645614D01*
X120904153Y-114644438D01*
X120865040Y-114618998D01*
X120799311Y-114576246D01*
X120798917Y-114575998D01*
X120798885Y-114575978D01*
X120794986Y-114573529D01*
X120794604Y-114573289D01*
X120793964Y-114572901D01*
X120789058Y-114570035D01*
X120666013Y-114500784D01*
X120665918Y-114500732D01*
X120665862Y-114500700D01*
X120663955Y-114499644D01*
X120663776Y-114499546D01*
X120663682Y-114499495D01*
X120663585Y-114499442D01*
X120661235Y-114498186D01*
X120661071Y-114498100D01*
X120660958Y-114498040D01*
X120547006Y-114438223D01*
X120545505Y-114437422D01*
X120449178Y-114384958D01*
X120442297Y-114380890D01*
X120371075Y-114335335D01*
X120358836Y-114326301D01*
X120343208Y-114313069D01*
X120311962Y-114286612D01*
X120296654Y-114270881D01*
X120266513Y-114233247D01*
X120252907Y-114211702D01*
X120229529Y-114163456D01*
X120221371Y-114140774D01*
X120202508Y-114063431D01*
X120199525Y-114044167D01*
X120193304Y-113952814D01*
X120190837Y-113916585D01*
X120188970Y-113909194D01*
X120185500Y-113881282D01*
X120185500Y-111414000D01*
X120203597Y-111352367D01*
X120252143Y-111310302D01*
X120299500Y-111300000D01*
X131483511Y-111300000D01*
X131505751Y-111302190D01*
X131705910Y-111342003D01*
X131720314Y-111345863D01*
X131931404Y-111417519D01*
X131945182Y-111423226D01*
X132145117Y-111521826D01*
X132158031Y-111529282D01*
X132343388Y-111653137D01*
X132355219Y-111662216D01*
X132505369Y-111793900D01*
X132510955Y-111799140D01*
X132518097Y-111806308D01*
X132524912Y-111817193D01*
X132535773Y-111824046D01*
X132538848Y-111827132D01*
X132551807Y-111837486D01*
X135512138Y-114797818D01*
X135521988Y-114810189D01*
X135525530Y-114813744D01*
X135532342Y-114824624D01*
X135543197Y-114831473D01*
X135552098Y-114840406D01*
X135557056Y-114845709D01*
X135687788Y-114994781D01*
X135696863Y-115006609D01*
X135736147Y-115065400D01*
X135820715Y-115191965D01*
X135828171Y-115204878D01*
X135926772Y-115404817D01*
X135932478Y-115418593D01*
X136004143Y-115629699D01*
X136008002Y-115644097D01*
X136051330Y-115861891D01*
X136051499Y-115862741D01*
X136053446Y-115877525D01*
X136066483Y-116076339D01*
X136066727Y-116083993D01*
X136066709Y-116094598D01*
X136063832Y-116107110D01*
X136066666Y-116119634D01*
X136066659Y-116123998D01*
X136068500Y-116140476D01*
X136068500Y-116566438D01*
X136066718Y-116582140D01*
X136066709Y-116587163D01*
X136063832Y-116599675D01*
X136066664Y-116612194D01*
X136066652Y-116619191D01*
X136066301Y-116627932D01*
X136053130Y-116795303D01*
X136052971Y-116797318D01*
X136050173Y-116814982D01*
X136039845Y-116858000D01*
X136006062Y-116998716D01*
X136000534Y-117015729D01*
X135928226Y-117190295D01*
X135920105Y-117206233D01*
X135821376Y-117367346D01*
X135810861Y-117381819D01*
X135688147Y-117525498D01*
X135675501Y-117538144D01*
X135531819Y-117660861D01*
X135517346Y-117671376D01*
X135356233Y-117770105D01*
X135340295Y-117778226D01*
X135165729Y-117850534D01*
X135148716Y-117856062D01*
X135087003Y-117870878D01*
X134964982Y-117900173D01*
X134947322Y-117902970D01*
X134887317Y-117907693D01*
X134777099Y-117916367D01*
X134767956Y-117916718D01*
X134762836Y-117916709D01*
X134750325Y-117913832D01*
X134737803Y-117916666D01*
X134733446Y-117916658D01*
X134716958Y-117918500D01*
X91783562Y-117918500D01*
X91767860Y-117916718D01*
X91762837Y-117916709D01*
X91750325Y-117913832D01*
X91737806Y-117916664D01*
X91730809Y-117916652D01*
X91722068Y-117916301D01*
X91634602Y-117909418D01*
X91552678Y-117902970D01*
X91535018Y-117900173D01*
X91412997Y-117870878D01*
X91351284Y-117856062D01*
X91334271Y-117850534D01*
X91159705Y-117778226D01*
X91143767Y-117770105D01*
X90982654Y-117671376D01*
X90968181Y-117660861D01*
X90824499Y-117538144D01*
X90811853Y-117525498D01*
X90689139Y-117381819D01*
X90678624Y-117367346D01*
X90579895Y-117206233D01*
X90571774Y-117190295D01*
X90499466Y-117015729D01*
X90493938Y-116998716D01*
X90455813Y-116839914D01*
X90449828Y-116814984D01*
X90447029Y-116797317D01*
X90433994Y-116631686D01*
X90434392Y-116609700D01*
X90434711Y-116606932D01*
X90436167Y-116600650D01*
X90436168Y-116600000D01*
X90434355Y-116592052D01*
X90431500Y-116566699D01*
X90431500Y-115485683D01*
X91374662Y-115485683D01*
X91391408Y-115685111D01*
X91403472Y-115727184D01*
X91443790Y-115867786D01*
X91446572Y-115877489D01*
X91449122Y-115882450D01*
X91449122Y-115882451D01*
X91469415Y-115921936D01*
X91538051Y-116055488D01*
X91662362Y-116212329D01*
X91814769Y-116342038D01*
X91861790Y-116368317D01*
X91984596Y-116436951D01*
X91984598Y-116436952D01*
X91989467Y-116439673D01*
X91994776Y-116441398D01*
X92174498Y-116499794D01*
X92174502Y-116499795D01*
X92179802Y-116501517D01*
X92237190Y-116508360D01*
X92372988Y-116524553D01*
X92372990Y-116524553D01*
X92378525Y-116525213D01*
X92578065Y-116509859D01*
X92583430Y-116508361D01*
X92583436Y-116508360D01*
X92765460Y-116457538D01*
X92765463Y-116457537D01*
X92770824Y-116456040D01*
X92949457Y-116365806D01*
X93107162Y-116242593D01*
X93137053Y-116207964D01*
X93234288Y-116095317D01*
X93234290Y-116095314D01*
X93237931Y-116091096D01*
X93255676Y-116059860D01*
X93334027Y-115921936D01*
X93336784Y-115917083D01*
X93338544Y-115911793D01*
X93338545Y-115911791D01*
X93398196Y-115732472D01*
X93398196Y-115732471D01*
X93399955Y-115727184D01*
X93401342Y-115716211D01*
X93419165Y-115575122D01*
X93425038Y-115528632D01*
X93425283Y-115511087D01*
X93425394Y-115503182D01*
X93425394Y-115503174D01*
X93425438Y-115500000D01*
X93424034Y-115485683D01*
X93914662Y-115485683D01*
X93931408Y-115685111D01*
X93943472Y-115727184D01*
X93983790Y-115867786D01*
X93986572Y-115877489D01*
X93989122Y-115882450D01*
X93989122Y-115882451D01*
X94009415Y-115921936D01*
X94078051Y-116055488D01*
X94202362Y-116212329D01*
X94354769Y-116342038D01*
X94401790Y-116368317D01*
X94524596Y-116436951D01*
X94524598Y-116436952D01*
X94529467Y-116439673D01*
X94534776Y-116441398D01*
X94714498Y-116499794D01*
X94714502Y-116499795D01*
X94719802Y-116501517D01*
X94777190Y-116508360D01*
X94912988Y-116524553D01*
X94912990Y-116524553D01*
X94918525Y-116525213D01*
X95118065Y-116509859D01*
X95123430Y-116508361D01*
X95123436Y-116508360D01*
X95305460Y-116457538D01*
X95305463Y-116457537D01*
X95310824Y-116456040D01*
X95489457Y-116365806D01*
X95647162Y-116242593D01*
X95677053Y-116207964D01*
X95774288Y-116095317D01*
X95774290Y-116095314D01*
X95777931Y-116091096D01*
X95795676Y-116059860D01*
X95874027Y-115921936D01*
X95876784Y-115917083D01*
X95878544Y-115911793D01*
X95878545Y-115911791D01*
X95938196Y-115732472D01*
X95938196Y-115732471D01*
X95939955Y-115727184D01*
X95941342Y-115716211D01*
X95959165Y-115575122D01*
X95965038Y-115528632D01*
X95965283Y-115511087D01*
X95965394Y-115503182D01*
X95965394Y-115503174D01*
X95965438Y-115500000D01*
X95954864Y-115392155D01*
X95946454Y-115306378D01*
X95946453Y-115306373D01*
X95945909Y-115300825D01*
X95941960Y-115287743D01*
X95889678Y-115114578D01*
X95889677Y-115114577D01*
X95888065Y-115109236D01*
X95883871Y-115101347D01*
X95807032Y-114956835D01*
X95794109Y-114932531D01*
X95667621Y-114777441D01*
X95651212Y-114763866D01*
X95517718Y-114653430D01*
X95517716Y-114653429D01*
X95513418Y-114649873D01*
X95377765Y-114576526D01*
X95342278Y-114557338D01*
X95342277Y-114557338D01*
X95337373Y-114554686D01*
X95146193Y-114495506D01*
X95120076Y-114492761D01*
X94952697Y-114475169D01*
X94952696Y-114475169D01*
X94947159Y-114474587D01*
X94747852Y-114492725D01*
X94555864Y-114549230D01*
X94378508Y-114641950D01*
X94364230Y-114653430D01*
X94238953Y-114754156D01*
X94222539Y-114767353D01*
X94093897Y-114920661D01*
X93997484Y-115096037D01*
X93995801Y-115101343D01*
X93995800Y-115101345D01*
X93950073Y-115245494D01*
X93936970Y-115286799D01*
X93927422Y-115371925D01*
X93923678Y-115405306D01*
X93914662Y-115485683D01*
X93424034Y-115485683D01*
X93414864Y-115392155D01*
X93406454Y-115306378D01*
X93406453Y-115306373D01*
X93405909Y-115300825D01*
X93401960Y-115287743D01*
X93349678Y-115114578D01*
X93349677Y-115114577D01*
X93348065Y-115109236D01*
X93343871Y-115101347D01*
X93267032Y-114956835D01*
X93254109Y-114932531D01*
X93127621Y-114777441D01*
X93111212Y-114763866D01*
X92977718Y-114653430D01*
X92977716Y-114653429D01*
X92973418Y-114649873D01*
X92837765Y-114576526D01*
X92802278Y-114557338D01*
X92802277Y-114557338D01*
X92797373Y-114554686D01*
X92606193Y-114495506D01*
X92580076Y-114492761D01*
X92412697Y-114475169D01*
X92412696Y-114475169D01*
X92407159Y-114474587D01*
X92207852Y-114492725D01*
X92015864Y-114549230D01*
X91838508Y-114641950D01*
X91824230Y-114653430D01*
X91698953Y-114754156D01*
X91682539Y-114767353D01*
X91553897Y-114920661D01*
X91457484Y-115096037D01*
X91455801Y-115101343D01*
X91455800Y-115101345D01*
X91410073Y-115245494D01*
X91396970Y-115286799D01*
X91387422Y-115371925D01*
X91383678Y-115405306D01*
X91374662Y-115485683D01*
X90431500Y-115485683D01*
X90431500Y-112633825D01*
X90434444Y-112608085D01*
X90434709Y-112606942D01*
X90434709Y-112606939D01*
X90436167Y-112600650D01*
X90436168Y-112600000D01*
X90434735Y-112593718D01*
X90434333Y-112590123D01*
X90433978Y-112568509D01*
X90438892Y-112506068D01*
X90447030Y-112402678D01*
X90449828Y-112385013D01*
X90473460Y-112286582D01*
X90493938Y-112201284D01*
X90499466Y-112184271D01*
X90571774Y-112009705D01*
X90579895Y-111993767D01*
X90678624Y-111832654D01*
X90689139Y-111818181D01*
X90770156Y-111723323D01*
X90811856Y-111674499D01*
X90824499Y-111661856D01*
X90968183Y-111539137D01*
X90982654Y-111528624D01*
X91143767Y-111429895D01*
X91159705Y-111421774D01*
X91334271Y-111349466D01*
X91351284Y-111343938D01*
X91491387Y-111310302D01*
X91521178Y-111303150D01*
X91547790Y-111300000D01*
X105050511Y-111300000D01*
X105112144Y-111318097D01*
G37*
%TD.AperFunction*%
%TD*%
%TA.AperFunction,Conductor*%
%TO.N,/GPIO4_IO28*%
G36*
X98694641Y-114298129D02*
G01*
X98777781Y-114406704D01*
X98820971Y-114463107D01*
X98823280Y-114471759D01*
X98819315Y-114479087D01*
X98747563Y-114540836D01*
X98685164Y-114594537D01*
X98679055Y-114599794D01*
X98571914Y-114721907D01*
X98498472Y-114840847D01*
X98450936Y-114959240D01*
X98421512Y-115079715D01*
X98402406Y-115204898D01*
X98402398Y-115204965D01*
X98385846Y-115337238D01*
X98385802Y-115337558D01*
X98364035Y-115479505D01*
X98363884Y-115480302D01*
X98329183Y-115634430D01*
X98328889Y-115635496D01*
X98279250Y-115787074D01*
X98275968Y-115797095D01*
X98270136Y-115803891D01*
X98264694Y-115805153D01*
X97658401Y-115797011D01*
X97181902Y-115790612D01*
X97173676Y-115787074D01*
X97170375Y-115778299D01*
X97227226Y-114696859D01*
X97231083Y-114688777D01*
X97235952Y-114686153D01*
X97407138Y-114641418D01*
X97408173Y-114641197D01*
X97566873Y-114614759D01*
X97567703Y-114614653D01*
X97658363Y-114606331D01*
X97711145Y-114601487D01*
X97711607Y-114601454D01*
X97844712Y-114594538D01*
X97844729Y-114594537D01*
X97972107Y-114586838D01*
X98098354Y-114571294D01*
X98098663Y-114571221D01*
X98098666Y-114571221D01*
X98227879Y-114540924D01*
X98227883Y-114540923D01*
X98228253Y-114540836D01*
X98366604Y-114488393D01*
X98518205Y-114406894D01*
X98518472Y-114406709D01*
X98518480Y-114406704D01*
X98678687Y-114295628D01*
X98687438Y-114293730D01*
X98694641Y-114298129D01*
G37*
%TD.AperFunction*%
%TD*%
%TA.AperFunction,Conductor*%
%TO.N,/UART1_RXD*%
G36*
X129111822Y-89613427D02*
G01*
X129115024Y-89619418D01*
X129115266Y-89620635D01*
X129115481Y-89622460D01*
X129115482Y-89622471D01*
X129118497Y-89700551D01*
X129118498Y-89700561D01*
X129118508Y-89700823D01*
X129128562Y-89776639D01*
X129144457Y-89840638D01*
X129165487Y-89896008D01*
X129190946Y-89945939D01*
X129191062Y-89946129D01*
X129191069Y-89946141D01*
X129220071Y-89993525D01*
X129220130Y-89993621D01*
X129220182Y-89993699D01*
X129252333Y-90042243D01*
X129252327Y-90042247D01*
X129252369Y-90042298D01*
X129286714Y-90094788D01*
X129286951Y-90095164D01*
X129322802Y-90154780D01*
X129323136Y-90155375D01*
X129356083Y-90218178D01*
X129356892Y-90227096D01*
X129354155Y-90231723D01*
X129008433Y-90591231D01*
X129000229Y-90594819D01*
X128991567Y-90591231D01*
X128645845Y-90231723D01*
X128642580Y-90223384D01*
X128643917Y-90218178D01*
X128676863Y-90155375D01*
X128677197Y-90154780D01*
X128713048Y-90095164D01*
X128713285Y-90094788D01*
X128747630Y-90042298D01*
X128747689Y-90042258D01*
X128747666Y-90042243D01*
X128779817Y-89993699D01*
X128779869Y-89993621D01*
X128779928Y-89993525D01*
X128808930Y-89946141D01*
X128808937Y-89946129D01*
X128809053Y-89945939D01*
X128834512Y-89896008D01*
X128855542Y-89840638D01*
X128871437Y-89776639D01*
X128881491Y-89700823D01*
X128884518Y-89622469D01*
X128884735Y-89620635D01*
X128884927Y-89619672D01*
X128884979Y-89619411D01*
X128889958Y-89611968D01*
X128896453Y-89610000D01*
X129103549Y-89610000D01*
X129111822Y-89613427D01*
G37*
%TD.AperFunction*%
%TD*%
%TA.AperFunction,Conductor*%
%TO.N,GND*%
G36*
X127315288Y-87739716D02*
G01*
X127373703Y-87788150D01*
X127424355Y-87831871D01*
X127470245Y-87872771D01*
X127474770Y-87876870D01*
X127476009Y-87877992D01*
X127476010Y-87877994D01*
X127514369Y-87912742D01*
X127558300Y-87952388D01*
X127559727Y-87953676D01*
X127609316Y-87997465D01*
X127609391Y-87997529D01*
X127666076Y-88045948D01*
X127666168Y-88046026D01*
X127733176Y-88101164D01*
X127733187Y-88101173D01*
X127804374Y-88157664D01*
X127808724Y-88165491D01*
X127806324Y-88174027D01*
X127734978Y-88265437D01*
X127678675Y-88337573D01*
X127670883Y-88341986D01*
X127662899Y-88340065D01*
X127608836Y-88303500D01*
X127551122Y-88277362D01*
X127497383Y-88265438D01*
X127496747Y-88265437D01*
X127496743Y-88265437D01*
X127446740Y-88265394D01*
X127446190Y-88265394D01*
X127445655Y-88265496D01*
X127445650Y-88265496D01*
X127396490Y-88274823D01*
X127396487Y-88274824D01*
X127396117Y-88274894D01*
X127395756Y-88275014D01*
X127395755Y-88275014D01*
X127345929Y-88291539D01*
X127345921Y-88291542D01*
X127345737Y-88291603D01*
X127345561Y-88291676D01*
X127345558Y-88291677D01*
X127293622Y-88313186D01*
X127278215Y-88319909D01*
X127278214Y-88319910D01*
X127238344Y-88337308D01*
X127178477Y-88361632D01*
X127112594Y-88383826D01*
X126802739Y-87967015D01*
X127246113Y-87684678D01*
X127315288Y-87739716D01*
G37*
%TD.AperFunction*%
%TD*%
%TA.AperFunction,Conductor*%
%TO.N,/I2C4_SCL*%
G36*
X130207462Y-87838660D02*
G01*
X130213257Y-87845487D01*
X130213639Y-87847024D01*
X130300598Y-88336829D01*
X130298670Y-88345574D01*
X130294584Y-88349197D01*
X130242993Y-88376706D01*
X130242385Y-88377007D01*
X130198301Y-88397251D01*
X130185263Y-88403238D01*
X130185024Y-88403344D01*
X130130608Y-88426868D01*
X130130584Y-88426878D01*
X130130523Y-88426905D01*
X130130481Y-88426924D01*
X130130441Y-88426942D01*
X130079999Y-88450094D01*
X130079993Y-88450097D01*
X130079797Y-88450187D01*
X130079606Y-88450293D01*
X130079600Y-88450296D01*
X130056473Y-88463125D01*
X130034009Y-88475586D01*
X129994184Y-88505559D01*
X129961346Y-88542562D01*
X129936521Y-88589051D01*
X129936349Y-88589689D01*
X129936347Y-88589693D01*
X129920874Y-88646961D01*
X129920873Y-88646967D01*
X129920733Y-88647485D01*
X129920691Y-88648021D01*
X129920690Y-88648026D01*
X129915858Y-88709488D01*
X129911793Y-88717467D01*
X129904143Y-88720271D01*
X129697149Y-88719366D01*
X129688891Y-88715903D01*
X129685500Y-88707666D01*
X129685500Y-88655827D01*
X129685776Y-88619951D01*
X129685777Y-88619865D01*
X129687046Y-88535609D01*
X129687048Y-88535520D01*
X129688401Y-88475830D01*
X129688689Y-88463125D01*
X129690579Y-88398995D01*
X129692590Y-88339802D01*
X129694595Y-88282127D01*
X129696465Y-88222552D01*
X129698075Y-88157660D01*
X129699297Y-88084032D01*
X129699934Y-88006703D01*
X129703429Y-87998459D01*
X129708052Y-87995662D01*
X130198537Y-87837931D01*
X130207462Y-87838660D01*
G37*
%TD.AperFunction*%
%TD*%
%TA.AperFunction,Conductor*%
%TO.N,+1V8*%
G36*
X112601630Y-112727084D02*
G01*
X112692615Y-112913519D01*
X112693163Y-112922457D01*
X112687793Y-112928872D01*
X112622517Y-112965228D01*
X112564993Y-113008165D01*
X112564663Y-113008507D01*
X112522209Y-113052462D01*
X112522205Y-113052467D01*
X112521862Y-113052822D01*
X112490082Y-113099727D01*
X112466612Y-113149411D01*
X112466506Y-113149720D01*
X112448473Y-113202219D01*
X112448468Y-113202236D01*
X112448410Y-113202404D01*
X112448362Y-113202575D01*
X112448356Y-113202594D01*
X112432434Y-113259235D01*
X112415698Y-113320231D01*
X112415583Y-113320624D01*
X112395104Y-113386180D01*
X112394854Y-113386896D01*
X112370496Y-113450138D01*
X112364325Y-113456627D01*
X112358966Y-113457617D01*
X111860940Y-113431537D01*
X111852858Y-113427682D01*
X111849901Y-113418785D01*
X111895441Y-112921983D01*
X111899609Y-112914057D01*
X111904269Y-112911697D01*
X111909712Y-112910344D01*
X111980174Y-112892826D01*
X111980544Y-112892741D01*
X112053500Y-112877404D01*
X112053773Y-112877351D01*
X112118813Y-112865547D01*
X112118913Y-112865529D01*
X112179055Y-112855279D01*
X112236978Y-112844655D01*
X112237000Y-112844650D01*
X112237057Y-112844640D01*
X112256640Y-112840310D01*
X112295645Y-112831686D01*
X112295651Y-112831684D01*
X112295807Y-112831650D01*
X112358221Y-112814339D01*
X112427214Y-112790737D01*
X112505702Y-112758874D01*
X112586200Y-112721598D01*
X112595146Y-112721231D01*
X112601630Y-112727084D01*
G37*
%TD.AperFunction*%
%TD*%
%TA.AperFunction,Conductor*%
%TO.N,GND*%
G36*
X127637461Y-87479872D02*
G01*
X127643098Y-87486564D01*
X127707729Y-87683724D01*
X127707050Y-87692653D01*
X127700901Y-87698254D01*
X127635641Y-87723966D01*
X127576782Y-87757659D01*
X127576384Y-87757991D01*
X127576382Y-87757993D01*
X127532129Y-87794981D01*
X127532126Y-87794984D01*
X127531706Y-87795335D01*
X127497528Y-87837042D01*
X127497292Y-87837455D01*
X127497290Y-87837458D01*
X127475924Y-87874850D01*
X127475924Y-87874852D01*
X127471367Y-87882826D01*
X127450340Y-87932733D01*
X127431564Y-87986811D01*
X127412156Y-88045106D01*
X127389232Y-88107665D01*
X127359912Y-88174536D01*
X126843018Y-88123921D01*
X126878620Y-87865116D01*
X126912663Y-87617643D01*
X126917185Y-87609914D01*
X126921954Y-87607766D01*
X126965895Y-87598963D01*
X126999677Y-87592195D01*
X127000137Y-87592112D01*
X127035913Y-87586421D01*
X127074371Y-87580303D01*
X127074739Y-87580252D01*
X127109911Y-87575910D01*
X127140776Y-87572101D01*
X127141030Y-87572073D01*
X127202059Y-87565894D01*
X127202079Y-87565892D01*
X127261328Y-87559993D01*
X127261379Y-87559987D01*
X127261387Y-87559986D01*
X127321673Y-87552713D01*
X127321682Y-87552712D01*
X127321804Y-87552697D01*
X127340313Y-87549733D01*
X127386561Y-87542329D01*
X127386578Y-87542326D01*
X127386683Y-87542309D01*
X127459144Y-87527135D01*
X127461445Y-87526536D01*
X127542262Y-87505509D01*
X127542281Y-87505504D01*
X127542364Y-87505482D01*
X127542452Y-87505455D01*
X127542459Y-87505453D01*
X127628546Y-87479024D01*
X127637461Y-87479872D01*
G37*
%TD.AperFunction*%
%TD*%
%TA.AperFunction,Conductor*%
%TO.N,+3V3*%
G36*
X113681821Y-112943917D02*
G01*
X113744634Y-112976869D01*
X113745209Y-112977192D01*
X113782561Y-112999653D01*
X113804835Y-113013048D01*
X113805211Y-113013285D01*
X113857701Y-113047630D01*
X113857741Y-113047689D01*
X113857756Y-113047666D01*
X113906378Y-113079869D01*
X113906465Y-113079922D01*
X113906474Y-113079928D01*
X113953858Y-113108930D01*
X113953870Y-113108937D01*
X113954060Y-113109053D01*
X114003991Y-113134512D01*
X114059361Y-113155542D01*
X114088476Y-113162773D01*
X114123045Y-113171359D01*
X114123049Y-113171360D01*
X114123360Y-113171437D01*
X114167625Y-113177307D01*
X114198904Y-113181455D01*
X114198905Y-113181455D01*
X114199176Y-113181491D01*
X114278753Y-113184565D01*
X114286886Y-113188308D01*
X114290000Y-113196256D01*
X114290000Y-113403743D01*
X114286573Y-113412016D01*
X114278752Y-113415434D01*
X114240086Y-113416928D01*
X114199176Y-113418508D01*
X114198905Y-113418544D01*
X114198904Y-113418544D01*
X114167625Y-113422692D01*
X114123360Y-113428562D01*
X114123049Y-113428639D01*
X114123045Y-113428640D01*
X114088476Y-113437226D01*
X114059361Y-113444457D01*
X114003991Y-113465487D01*
X113954060Y-113490946D01*
X113953870Y-113491062D01*
X113953858Y-113491069D01*
X113906474Y-113520071D01*
X113906378Y-113520130D01*
X113857756Y-113552333D01*
X113857752Y-113552327D01*
X113857701Y-113552369D01*
X113805211Y-113586714D01*
X113804835Y-113586951D01*
X113745209Y-113622807D01*
X113744634Y-113623130D01*
X113681821Y-113656083D01*
X113672904Y-113656892D01*
X113668277Y-113654155D01*
X113498449Y-113490839D01*
X113308769Y-113308433D01*
X113305181Y-113300229D01*
X113308769Y-113291567D01*
X113419586Y-113185000D01*
X113668277Y-112945845D01*
X113676616Y-112942580D01*
X113681821Y-112943917D01*
G37*
%TD.AperFunction*%
%TD*%
%TA.AperFunction,Conductor*%
%TO.N,/UART1_TXD*%
G36*
X128755505Y-88016808D02*
G01*
X128993660Y-88436910D01*
X129001509Y-88450756D01*
X129002608Y-88459643D01*
X129000076Y-88464298D01*
X128956718Y-88513086D01*
X128956410Y-88513420D01*
X128910793Y-88560900D01*
X128910698Y-88560998D01*
X128868604Y-88603803D01*
X128868592Y-88603816D01*
X128868583Y-88603825D01*
X128830573Y-88644502D01*
X128797158Y-88685648D01*
X128796987Y-88685914D01*
X128796984Y-88685919D01*
X128778329Y-88715040D01*
X128774977Y-88718457D01*
X128771688Y-88720655D01*
X128762077Y-88727077D01*
X128724393Y-88783474D01*
X128724168Y-88784603D01*
X128724168Y-88784604D01*
X128715779Y-88826779D01*
X128714500Y-88833209D01*
X128714500Y-88979721D01*
X128711073Y-88987994D01*
X128702800Y-88991421D01*
X128497200Y-88991421D01*
X128488927Y-88987994D01*
X128485500Y-88979721D01*
X128485500Y-88870384D01*
X128485678Y-88868353D01*
X128489726Y-88845392D01*
X128489904Y-88844382D01*
X128486956Y-88827664D01*
X128486834Y-88826779D01*
X128482434Y-88782119D01*
X128476322Y-88720082D01*
X128440063Y-88600559D01*
X128394398Y-88515127D01*
X128381456Y-88490914D01*
X128381454Y-88490911D01*
X128381184Y-88490406D01*
X128380820Y-88489962D01*
X128380817Y-88489958D01*
X128362583Y-88467740D01*
X128360655Y-88464381D01*
X128350710Y-88437524D01*
X128350502Y-88436910D01*
X128328394Y-88365256D01*
X128328192Y-88364515D01*
X128309998Y-88288027D01*
X128311417Y-88279185D01*
X128315217Y-88275374D01*
X128739164Y-88012633D01*
X128748001Y-88011188D01*
X128755505Y-88016808D01*
G37*
%TD.AperFunction*%
%TD*%
%TA.AperFunction,Conductor*%
%TO.N,GND*%
G36*
X126666005Y-87795577D02*
G01*
X126784383Y-87834294D01*
X127197654Y-87969462D01*
X126882658Y-88382401D01*
X126821673Y-88359677D01*
X126763228Y-88331955D01*
X126712494Y-88305329D01*
X126712493Y-88305328D01*
X126707262Y-88302583D01*
X126653718Y-88274910D01*
X126620585Y-88260261D01*
X126602895Y-88252439D01*
X126602891Y-88252438D01*
X126602537Y-88252281D01*
X126602162Y-88252172D01*
X126602157Y-88252170D01*
X126554307Y-88238235D01*
X126554304Y-88238234D01*
X126553660Y-88238047D01*
X126552989Y-88238011D01*
X126552988Y-88238011D01*
X126544147Y-88237538D01*
X126507028Y-88235554D01*
X126462582Y-88248150D01*
X126420264Y-88279183D01*
X126386387Y-88323641D01*
X126378648Y-88328144D01*
X126371024Y-88326559D01*
X126193886Y-88219351D01*
X126188583Y-88212135D01*
X126190322Y-88202686D01*
X126207662Y-88177616D01*
X126232141Y-88142227D01*
X126233131Y-88140985D01*
X126281512Y-88088106D01*
X126282690Y-88086986D01*
X126330910Y-88047127D01*
X126332030Y-88046308D01*
X126334004Y-88045037D01*
X126380188Y-88015301D01*
X126380918Y-88014868D01*
X126429066Y-87988683D01*
X126429194Y-87988614D01*
X126476940Y-87963410D01*
X126476946Y-87963407D01*
X126477076Y-87963338D01*
X126496830Y-87951497D01*
X126523809Y-87935325D01*
X126523814Y-87935322D01*
X126524102Y-87935149D01*
X126570033Y-87900035D01*
X126614664Y-87853960D01*
X126652810Y-87799947D01*
X126660383Y-87795167D01*
X126666005Y-87795577D01*
G37*
%TD.AperFunction*%
%TD*%
%TA.AperFunction,Conductor*%
%TO.N,/SPI_MISO*%
G36*
X113983383Y-114336074D02*
G01*
X114086199Y-114516639D01*
X114087315Y-114525524D01*
X114082487Y-114532185D01*
X113932294Y-114631541D01*
X113931942Y-114631870D01*
X113931940Y-114631871D01*
X113859904Y-114699073D01*
X113817414Y-114738711D01*
X113738736Y-114848945D01*
X113688022Y-114963531D01*
X113657033Y-115083758D01*
X113637532Y-115210914D01*
X113637527Y-115210958D01*
X113621295Y-115346164D01*
X113621254Y-115346466D01*
X113600100Y-115490749D01*
X113599947Y-115491581D01*
X113565703Y-115646242D01*
X113565379Y-115647414D01*
X113512377Y-115806380D01*
X113506510Y-115813144D01*
X113500984Y-115814375D01*
X112418498Y-115787080D01*
X112410315Y-115783446D01*
X112407118Y-115774632D01*
X112476709Y-114693862D01*
X112480661Y-114685826D01*
X112485465Y-114683285D01*
X112659614Y-114638417D01*
X112660483Y-114638228D01*
X112698118Y-114631541D01*
X112819652Y-114609946D01*
X112820414Y-114609837D01*
X112962777Y-114594080D01*
X112963241Y-114594038D01*
X113094821Y-114584760D01*
X113094829Y-114584759D01*
X113221206Y-114575934D01*
X113221213Y-114575933D01*
X113221318Y-114575926D01*
X113348303Y-114561486D01*
X113481615Y-114535370D01*
X113627083Y-114491510D01*
X113790537Y-114423836D01*
X113967811Y-114331487D01*
X113976731Y-114330703D01*
X113983383Y-114336074D01*
G37*
%TD.AperFunction*%
%TD*%
%TA.AperFunction,Conductor*%
%TO.N,/I2C4_SDA*%
G36*
X130312016Y-89613427D02*
G01*
X130315434Y-89621248D01*
X130316936Y-89660121D01*
X130318508Y-89700823D01*
X130328562Y-89776639D01*
X130344457Y-89840638D01*
X130365487Y-89896008D01*
X130390946Y-89945939D01*
X130391062Y-89946129D01*
X130391069Y-89946141D01*
X130420071Y-89993525D01*
X130420130Y-89993621D01*
X130420182Y-89993699D01*
X130452333Y-90042243D01*
X130452327Y-90042247D01*
X130452369Y-90042298D01*
X130486714Y-90094788D01*
X130486951Y-90095164D01*
X130522802Y-90154780D01*
X130523136Y-90155375D01*
X130556083Y-90218178D01*
X130556892Y-90227096D01*
X130554155Y-90231723D01*
X130208433Y-90591231D01*
X130200229Y-90594819D01*
X130191567Y-90591231D01*
X129845845Y-90231723D01*
X129842580Y-90223384D01*
X129843917Y-90218178D01*
X129876863Y-90155375D01*
X129877197Y-90154780D01*
X129913048Y-90095164D01*
X129913285Y-90094788D01*
X129947630Y-90042298D01*
X129947689Y-90042258D01*
X129947666Y-90042243D01*
X129979817Y-89993699D01*
X129979869Y-89993621D01*
X129979928Y-89993525D01*
X130008930Y-89946141D01*
X130008937Y-89946129D01*
X130009053Y-89945939D01*
X130034512Y-89896008D01*
X130055542Y-89840638D01*
X130071437Y-89776639D01*
X130081491Y-89700823D01*
X130084518Y-89622469D01*
X130084734Y-89620641D01*
X130084979Y-89619411D01*
X130089958Y-89611968D01*
X130096453Y-89610000D01*
X130303743Y-89610000D01*
X130312016Y-89613427D01*
G37*
%TD.AperFunction*%
%TD*%
%TA.AperFunction,Conductor*%
%TO.N,/SPI_SS1*%
G36*
X120012343Y-113921031D02*
G01*
X120015743Y-113928508D01*
X120026119Y-114080879D01*
X120058165Y-114212271D01*
X120109174Y-114317540D01*
X120177177Y-114402447D01*
X120260209Y-114472753D01*
X120260536Y-114472962D01*
X120356119Y-114534098D01*
X120356126Y-114534102D01*
X120356304Y-114534216D01*
X120463496Y-114592598D01*
X120579666Y-114653578D01*
X120579936Y-114653725D01*
X120702981Y-114722976D01*
X120703621Y-114723364D01*
X120824856Y-114802219D01*
X120829923Y-114809603D01*
X120829774Y-114815073D01*
X120547974Y-115860271D01*
X120542511Y-115867367D01*
X120532781Y-115868257D01*
X119498159Y-115502881D01*
X119491499Y-115496895D01*
X119490365Y-115491355D01*
X119498237Y-115305009D01*
X119498333Y-115303929D01*
X119520608Y-115139907D01*
X119520803Y-115138846D01*
X119553621Y-114996859D01*
X119553847Y-114996022D01*
X119593773Y-114867524D01*
X119593914Y-114867099D01*
X119637500Y-114743705D01*
X119637518Y-114743654D01*
X119681113Y-114617443D01*
X119681160Y-114617308D01*
X119721279Y-114479809D01*
X119737493Y-114402812D01*
X119754270Y-114323135D01*
X119754320Y-114322899D01*
X119755042Y-114316950D01*
X119776713Y-114138492D01*
X119776714Y-114138484D01*
X119776740Y-114138267D01*
X119776748Y-114138052D01*
X119776749Y-114138040D01*
X119784578Y-113928866D01*
X119788312Y-113920727D01*
X119796270Y-113917604D01*
X120004070Y-113917604D01*
X120012343Y-113921031D01*
G37*
%TD.AperFunction*%
%TD*%
%TA.AperFunction,Conductor*%
%TO.N,/SPI_MOSI*%
G36*
X116858127Y-114151608D02*
G01*
X116862921Y-114159572D01*
X116890474Y-114364906D01*
X116888178Y-114373561D01*
X116881411Y-114377885D01*
X116679420Y-114422672D01*
X116679417Y-114422673D01*
X116678799Y-114422810D01*
X116678225Y-114423078D01*
X116678222Y-114423079D01*
X116518945Y-114497439D01*
X116518943Y-114497440D01*
X116518226Y-114497775D01*
X116401337Y-114597818D01*
X116319281Y-114720304D01*
X116263210Y-114862597D01*
X116224276Y-115022063D01*
X116224246Y-115022235D01*
X116224244Y-115022243D01*
X116193629Y-115196066D01*
X116162458Y-115381748D01*
X116162374Y-115382195D01*
X116121894Y-115576695D01*
X116121671Y-115577588D01*
X116065332Y-115770696D01*
X116059725Y-115777678D01*
X116054329Y-115779117D01*
X114973529Y-115800245D01*
X114965190Y-115796980D01*
X114961602Y-115788776D01*
X114961754Y-115786653D01*
X114962991Y-115779117D01*
X115145600Y-114665786D01*
X115150321Y-114658178D01*
X115155177Y-114656148D01*
X115361271Y-114620963D01*
X115361281Y-114620961D01*
X115361497Y-114620924D01*
X115361715Y-114620869D01*
X115540941Y-114575598D01*
X115540951Y-114575595D01*
X115541153Y-114575544D01*
X115592141Y-114558340D01*
X115695242Y-114523552D01*
X115695250Y-114523549D01*
X115695410Y-114523495D01*
X115759065Y-114497439D01*
X115833690Y-114466893D01*
X115833708Y-114466885D01*
X115833760Y-114466864D01*
X115833811Y-114466841D01*
X115833823Y-114466836D01*
X115965693Y-114407735D01*
X115965757Y-114407707D01*
X116043182Y-114373561D01*
X116100496Y-114348285D01*
X116100926Y-114348106D01*
X116247918Y-114290465D01*
X116248616Y-114290216D01*
X116417514Y-114236339D01*
X116418327Y-114236113D01*
X116618697Y-114188039D01*
X116619493Y-114187877D01*
X116768498Y-114163061D01*
X116849403Y-114149587D01*
X116858127Y-114151608D01*
G37*
%TD.AperFunction*%
%TD*%
%TA.AperFunction,Conductor*%
%TO.N,/SPI_SCK*%
G36*
X118738540Y-114104863D02*
G01*
X118830243Y-114154881D01*
X118920959Y-114204361D01*
X118926582Y-114211331D01*
X118925844Y-114219820D01*
X118837096Y-114399217D01*
X118836976Y-114399460D01*
X118836878Y-114399717D01*
X118779855Y-114548628D01*
X118773608Y-114564941D01*
X118773530Y-114565236D01*
X118773529Y-114565238D01*
X118759208Y-114619155D01*
X118734519Y-114712101D01*
X118713503Y-114846849D01*
X118704356Y-114975097D01*
X118704353Y-114975218D01*
X118700874Y-115102724D01*
X118700873Y-115102759D01*
X118696855Y-115235503D01*
X118696827Y-115236021D01*
X118686107Y-115379536D01*
X118686016Y-115380366D01*
X118662421Y-115540861D01*
X118662241Y-115541809D01*
X118621396Y-115717477D01*
X118616185Y-115724759D01*
X118610994Y-115726485D01*
X117531931Y-115818523D01*
X117523397Y-115815811D01*
X117519249Y-115807403D01*
X117469460Y-114725696D01*
X117472503Y-114717274D01*
X117477189Y-114714148D01*
X117483724Y-114711798D01*
X117633589Y-114657909D01*
X117634686Y-114657574D01*
X117713385Y-114637795D01*
X117786880Y-114619323D01*
X117787659Y-114619155D01*
X117929578Y-114593600D01*
X117929840Y-114593556D01*
X118016995Y-114579899D01*
X118062646Y-114572746D01*
X118062733Y-114572729D01*
X118062740Y-114572728D01*
X118120317Y-114561626D01*
X118187307Y-114548710D01*
X118187578Y-114548629D01*
X118187581Y-114548628D01*
X118249584Y-114530034D01*
X118304903Y-114513444D01*
X118305329Y-114513236D01*
X118305332Y-114513235D01*
X118416129Y-114459178D01*
X118416648Y-114458925D01*
X118523755Y-114377129D01*
X118627438Y-114260032D01*
X118723051Y-114108879D01*
X118730370Y-114103720D01*
X118738540Y-114104863D01*
G37*
%TD.AperFunction*%
%TD*%
%TA.AperFunction,Conductor*%
%TO.N,/GPIO4_IO11*%
G36*
X101245086Y-114308019D02*
G01*
X101323764Y-114414409D01*
X101368637Y-114475087D01*
X101370801Y-114483777D01*
X101366718Y-114491033D01*
X101225061Y-114609029D01*
X101116612Y-114729118D01*
X101042040Y-114846715D01*
X100993528Y-114964301D01*
X100963260Y-115084359D01*
X100943420Y-115209370D01*
X100943402Y-115209508D01*
X100943398Y-115209536D01*
X100926211Y-115341664D01*
X100926166Y-115341976D01*
X100903821Y-115483767D01*
X100903669Y-115484559D01*
X100868424Y-115638400D01*
X100868124Y-115639472D01*
X100814716Y-115800420D01*
X100808858Y-115807193D01*
X100803405Y-115808433D01*
X99720688Y-115789362D01*
X99712476Y-115785790D01*
X99709213Y-115777001D01*
X99761995Y-114847187D01*
X99770588Y-114695804D01*
X99774478Y-114687739D01*
X99779354Y-114685137D01*
X99951118Y-114640949D01*
X99952149Y-114640733D01*
X100111094Y-114614806D01*
X100111950Y-114614698D01*
X100255468Y-114602039D01*
X100255939Y-114602007D01*
X100389082Y-114595663D01*
X100516405Y-114588678D01*
X100516406Y-114588678D01*
X100516587Y-114588668D01*
X100516744Y-114588650D01*
X100516754Y-114588649D01*
X100589456Y-114580242D01*
X100643146Y-114574033D01*
X100703912Y-114560404D01*
X100773308Y-114544840D01*
X100773314Y-114544838D01*
X100773685Y-114544755D01*
X100913130Y-114493831D01*
X100913459Y-114493660D01*
X100913464Y-114493658D01*
X100982434Y-114457854D01*
X101066409Y-114414261D01*
X101066671Y-114414086D01*
X101066677Y-114414082D01*
X101229169Y-114305256D01*
X101237950Y-114303499D01*
X101245086Y-114308019D01*
G37*
%TD.AperFunction*%
%TD*%
%TA.AperFunction,Conductor*%
%TO.N,GND*%
G36*
X127360000Y-88174355D02*
G01*
X127322973Y-88244934D01*
X127286849Y-88305005D01*
X127275715Y-88322021D01*
X127275714Y-88322022D01*
X127252369Y-88357701D01*
X127252310Y-88357741D01*
X127252333Y-88357756D01*
X127220130Y-88406378D01*
X127220077Y-88406465D01*
X127220071Y-88406474D01*
X127191069Y-88453858D01*
X127191062Y-88453870D01*
X127190946Y-88454060D01*
X127165487Y-88503991D01*
X127144457Y-88559361D01*
X127128562Y-88623360D01*
X127118508Y-88699176D01*
X127118498Y-88699447D01*
X127115434Y-88778752D01*
X127111691Y-88786886D01*
X127103743Y-88790000D01*
X126896256Y-88790000D01*
X126887983Y-88786573D01*
X126884565Y-88778752D01*
X126881501Y-88699447D01*
X126881491Y-88699176D01*
X126871437Y-88623360D01*
X126855542Y-88559361D01*
X126834512Y-88503991D01*
X126809053Y-88454060D01*
X126808937Y-88453870D01*
X126808930Y-88453858D01*
X126779928Y-88406474D01*
X126779922Y-88406465D01*
X126779869Y-88406378D01*
X126747666Y-88357756D01*
X126747672Y-88357752D01*
X126747630Y-88357701D01*
X126713150Y-88305005D01*
X126677026Y-88244934D01*
X126640000Y-88174355D01*
X127000000Y-87800000D01*
X127360000Y-88174355D01*
G37*
%TD.AperFunction*%
%TD*%
M02*
