%TF.GenerationSoftware,KiCad,Pcbnew,9.0.0-1.fc42*%
%TF.CreationDate,2025-03-01T14:54:56-05:00*%
%TF.ProjectId,ext-con-breakout-board,6578742d-636f-46e2-9d62-7265616b6f75,v0.6*%
%TF.SameCoordinates,Original*%
%TF.FileFunction,Soldermask,Bot*%
%TF.FilePolarity,Negative*%
%FSLAX45Y45*%
G04 Gerber Fmt 4.5, Leading zero omitted, Abs format (unit mm)*
G04 Created by KiCad (PCBNEW 9.0.0-1.fc42) date 2025-03-01 14:54:56*
%MOMM*%
%LPD*%
G01*
G04 APERTURE LIST*
%ADD10C,0.500000*%
%ADD11R,1.700000X1.700000*%
%ADD12O,1.700000X1.700000*%
%ADD13C,2.800000*%
%ADD14R,0.230000X0.750000*%
%ADD15R,0.450000X0.655000*%
G04 APERTURE END LIST*
D10*
%TO.C,FID3*%
X13190000Y-11714000D03*
%TD*%
D11*
%TO.C,J2*%
X13050000Y-11550000D03*
D12*
X12796000Y-11550000D03*
X12542000Y-11550000D03*
X12288000Y-11550000D03*
X12034000Y-11550000D03*
X11780000Y-11550000D03*
X11526000Y-11550000D03*
X11272000Y-11550000D03*
X11018000Y-11550000D03*
X10764000Y-11550000D03*
X10510000Y-11550000D03*
X10256000Y-11550000D03*
X10002000Y-11550000D03*
X9748000Y-11550000D03*
X9494000Y-11550000D03*
X9240000Y-11550000D03*
%TD*%
D13*
%TO.C,H1*%
X13367100Y-11550000D03*
%TD*%
D10*
%TO.C,FID1*%
X9150000Y-11220000D03*
%TD*%
D14*
%TO.C,J1*%
X13020000Y-8922500D03*
X13020000Y-8677500D03*
X12980000Y-8922500D03*
X12980000Y-8677500D03*
X12940000Y-8922500D03*
X12940000Y-8677500D03*
X12900000Y-8922500D03*
X12900000Y-8677500D03*
X12860000Y-8922500D03*
X12860000Y-8677500D03*
X12820000Y-8922500D03*
X12820000Y-8677500D03*
X12780000Y-8922500D03*
X12780000Y-8677500D03*
X12740000Y-8922500D03*
X12740000Y-8677500D03*
X12700000Y-8922500D03*
X12700000Y-8677500D03*
X12660000Y-8922500D03*
X12660000Y-8677500D03*
X12620000Y-8922500D03*
X12620000Y-8677500D03*
X12580000Y-8922500D03*
X12580000Y-8677500D03*
D15*
X12500500Y-8729750D03*
X12500500Y-8870250D03*
X13099500Y-8729750D03*
X13099500Y-8870250D03*
%TD*%
D10*
%TO.C,FID2*%
X13270000Y-11320000D03*
%TD*%
M02*
