%TF.GenerationSoftware,KiCad,Pcbnew,7.0.1-2.fc38*%
%TF.CreationDate,2023-04-23T00:49:20-04:00*%
%TF.ProjectId,ext-con-breakout-board,6578742d-636f-46e2-9d62-7265616b6f75,v0.6*%
%TF.SameCoordinates,Original*%
%TF.FileFunction,Copper,L4,Bot*%
%TF.FilePolarity,Positive*%
%FSLAX46Y46*%
G04 Gerber Fmt 4.6, Leading zero omitted, Abs format (unit mm)*
G04 Created by KiCad (PCBNEW 7.0.1-2.fc38) date 2023-04-23 00:49:20*
%MOMM*%
%LPD*%
G01*
G04 APERTURE LIST*
%TA.AperFunction,ComponentPad*%
%ADD10R,1.700000X1.700000*%
%TD*%
%TA.AperFunction,ComponentPad*%
%ADD11O,1.700000X1.700000*%
%TD*%
%TA.AperFunction,ComponentPad*%
%ADD12C,2.800000*%
%TD*%
%TA.AperFunction,SMDPad,CuDef*%
%ADD13C,0.500000*%
%TD*%
%TA.AperFunction,ViaPad*%
%ADD14C,0.800000*%
%TD*%
G04 APERTURE END LIST*
D10*
%TO.P,J2,1,Pin_1*%
%TO.N,GND*%
X130500000Y-115500000D03*
D11*
%TO.P,J2,2,Pin_2*%
%TO.N,/UART1_RXD*%
X127960000Y-115500000D03*
%TO.P,J2,3,Pin_3*%
%TO.N,/UART1_TXD*%
X125420000Y-115500000D03*
%TO.P,J2,4,Pin_4*%
%TO.N,GND*%
X122880000Y-115500000D03*
%TO.P,J2,5,Pin_5*%
%TO.N,/SPI_SS1*%
X120340000Y-115500000D03*
%TO.P,J2,6,Pin_6*%
%TO.N,/SPI_SCK*%
X117800000Y-115500000D03*
%TO.P,J2,7,Pin_7*%
%TO.N,/SPI_MOSI*%
X115260000Y-115500000D03*
%TO.P,J2,8,Pin_8*%
%TO.N,/SPI_MISO*%
X112720000Y-115500000D03*
%TO.P,J2,9,Pin_9*%
%TO.N,GND*%
X110180000Y-115500000D03*
%TO.P,J2,10,Pin_10*%
%TO.N,Net-(J2-Pin_10)*%
X107640000Y-115500000D03*
%TO.P,J2,11,Pin_11*%
%TO.N,Net-(J2-Pin_11)*%
X105100000Y-115500000D03*
%TO.P,J2,12,Pin_12*%
%TO.N,GND*%
X102560000Y-115500000D03*
%TO.P,J2,13,Pin_13*%
%TO.N,/GPIO4_IO11*%
X100020000Y-115500000D03*
%TO.P,J2,14,Pin_14*%
%TO.N,/GPIO4_IO28*%
X97480000Y-115500000D03*
%TO.P,J2,15,Pin_15*%
%TO.N,/I2C4_SCL*%
X94940000Y-115500000D03*
%TO.P,J2,16,Pin_16*%
%TO.N,/I2C4_SDA*%
X92400000Y-115500000D03*
%TD*%
D12*
%TO.P,H1,1,1*%
%TO.N,GND*%
X133671000Y-115500000D03*
%TD*%
D13*
%TO.P,FID1,*%
%TO.N,*%
X91500000Y-112200000D03*
%TD*%
%TO.P,FID2,*%
%TO.N,*%
X132700000Y-113200000D03*
%TD*%
D14*
%TO.N,+1V8*%
X112000000Y-113300000D03*
%TO.N,+3V3*%
X113500000Y-113300000D03*
%TD*%
%TA.AperFunction,Conductor*%
%TO.N,GND*%
G36*
X131505751Y-111302190D02*
G01*
X131705910Y-111342003D01*
X131720313Y-111345862D01*
X131931413Y-111417521D01*
X131945173Y-111423221D01*
X132145120Y-111521827D01*
X132158028Y-111529279D01*
X132343396Y-111653142D01*
X132355204Y-111662203D01*
X132525750Y-111811774D01*
X132531180Y-111816860D01*
X132553970Y-111839652D01*
X132563351Y-111849033D01*
X132563360Y-111849040D01*
X135510345Y-114796024D01*
X135510346Y-114796026D01*
X135533240Y-114818921D01*
X135538338Y-114824364D01*
X135687787Y-114994780D01*
X135696864Y-115006610D01*
X135820714Y-115191964D01*
X135828170Y-115204877D01*
X135926772Y-115404817D01*
X135932479Y-115418593D01*
X136004143Y-115629699D01*
X136008002Y-115644102D01*
X136051498Y-115862741D01*
X136053445Y-115877524D01*
X136068256Y-116103378D01*
X136068500Y-116110838D01*
X136068500Y-116595516D01*
X136068149Y-116604461D01*
X136052970Y-116797318D01*
X136050171Y-116814986D01*
X136006062Y-116998715D01*
X136000534Y-117015728D01*
X135928226Y-117190295D01*
X135920105Y-117206234D01*
X135821375Y-117367347D01*
X135810860Y-117381820D01*
X135688146Y-117525498D01*
X135675498Y-117538146D01*
X135531820Y-117660860D01*
X135517347Y-117671375D01*
X135356234Y-117770105D01*
X135340295Y-117778226D01*
X135165728Y-117850534D01*
X135148715Y-117856062D01*
X134964986Y-117900171D01*
X134947318Y-117902970D01*
X134777093Y-117916367D01*
X134754458Y-117918149D01*
X134745516Y-117918500D01*
X91754484Y-117918500D01*
X91745541Y-117918149D01*
X91720309Y-117916163D01*
X91552681Y-117902970D01*
X91535013Y-117900171D01*
X91351284Y-117856062D01*
X91334271Y-117850534D01*
X91159704Y-117778226D01*
X91143765Y-117770105D01*
X90982652Y-117671375D01*
X90968186Y-117660865D01*
X90824499Y-117538144D01*
X90811853Y-117525498D01*
X90689132Y-117381811D01*
X90678624Y-117367347D01*
X90579890Y-117206227D01*
X90571776Y-117190302D01*
X90499463Y-117015723D01*
X90493939Y-116998721D01*
X90449827Y-116814983D01*
X90447029Y-116797317D01*
X90443138Y-116747882D01*
X90431850Y-116604459D01*
X90431500Y-116595516D01*
X90431500Y-115500000D01*
X91374561Y-115500000D01*
X91394266Y-115700054D01*
X91452618Y-115892417D01*
X91479363Y-115942454D01*
X91547379Y-116069703D01*
X91674906Y-116225094D01*
X91830297Y-116352621D01*
X92007582Y-116447381D01*
X92199947Y-116505734D01*
X92400000Y-116525438D01*
X92600053Y-116505734D01*
X92792418Y-116447381D01*
X92969703Y-116352621D01*
X93125094Y-116225094D01*
X93252621Y-116069703D01*
X93347381Y-115892418D01*
X93405734Y-115700053D01*
X93425438Y-115500000D01*
X93914561Y-115500000D01*
X93934266Y-115700054D01*
X93992618Y-115892417D01*
X94019363Y-115942454D01*
X94087379Y-116069703D01*
X94214906Y-116225094D01*
X94370297Y-116352621D01*
X94547582Y-116447381D01*
X94739947Y-116505734D01*
X94940000Y-116525438D01*
X95140053Y-116505734D01*
X95332418Y-116447381D01*
X95509703Y-116352621D01*
X95665094Y-116225094D01*
X95792621Y-116069703D01*
X95887381Y-115892418D01*
X95945734Y-115700053D01*
X95965438Y-115500000D01*
X96454561Y-115500000D01*
X96474266Y-115700054D01*
X96532618Y-115892417D01*
X96559363Y-115942454D01*
X96627379Y-116069703D01*
X96754906Y-116225094D01*
X96910297Y-116352621D01*
X97087582Y-116447381D01*
X97279947Y-116505734D01*
X97480000Y-116525438D01*
X97680053Y-116505734D01*
X97872418Y-116447381D01*
X98049703Y-116352621D01*
X98205094Y-116225094D01*
X98332621Y-116069703D01*
X98427381Y-115892418D01*
X98485734Y-115700053D01*
X98505438Y-115500000D01*
X98994561Y-115500000D01*
X99014266Y-115700054D01*
X99072618Y-115892417D01*
X99099363Y-115942454D01*
X99167379Y-116069703D01*
X99294906Y-116225094D01*
X99450297Y-116352621D01*
X99627582Y-116447381D01*
X99819947Y-116505734D01*
X100020000Y-116525438D01*
X100220053Y-116505734D01*
X100412418Y-116447381D01*
X100589703Y-116352621D01*
X100745094Y-116225094D01*
X100872621Y-116069703D01*
X100967381Y-115892418D01*
X101007068Y-115761585D01*
X101037913Y-115711772D01*
X101089430Y-115683858D01*
X101148008Y-115685220D01*
X101198172Y-115715498D01*
X101226670Y-115766695D01*
X101271178Y-115942453D01*
X101361582Y-116148552D01*
X101484674Y-116336957D01*
X101637101Y-116502538D01*
X101814697Y-116640767D01*
X102012628Y-116747882D01*
X102225488Y-116820956D01*
X102306000Y-116834391D01*
X102306000Y-114165608D01*
X102814000Y-114165608D01*
X102814000Y-116834391D01*
X102894511Y-116820956D01*
X103107371Y-116747882D01*
X103305302Y-116640767D01*
X103482898Y-116502538D01*
X103635325Y-116336957D01*
X103758417Y-116148552D01*
X103848821Y-115942454D01*
X103893329Y-115766695D01*
X103921827Y-115715499D01*
X103971990Y-115685220D01*
X104030568Y-115683857D01*
X104082085Y-115711771D01*
X104112932Y-115761588D01*
X104152618Y-115892417D01*
X104179363Y-115942454D01*
X104247379Y-116069703D01*
X104374906Y-116225094D01*
X104530297Y-116352621D01*
X104707582Y-116447381D01*
X104899947Y-116505734D01*
X105100000Y-116525438D01*
X105300053Y-116505734D01*
X105492418Y-116447381D01*
X105669703Y-116352621D01*
X105825094Y-116225094D01*
X105952621Y-116069703D01*
X106047381Y-115892418D01*
X106105734Y-115700053D01*
X106125438Y-115500000D01*
X106614561Y-115500000D01*
X106634266Y-115700054D01*
X106692618Y-115892417D01*
X106719363Y-115942454D01*
X106787379Y-116069703D01*
X106914906Y-116225094D01*
X107070297Y-116352621D01*
X107247582Y-116447381D01*
X107439947Y-116505734D01*
X107640000Y-116525438D01*
X107840053Y-116505734D01*
X108032418Y-116447381D01*
X108209703Y-116352621D01*
X108365094Y-116225094D01*
X108492621Y-116069703D01*
X108587381Y-115892418D01*
X108627068Y-115761585D01*
X108657913Y-115711772D01*
X108709430Y-115683858D01*
X108768008Y-115685220D01*
X108818172Y-115715498D01*
X108846670Y-115766695D01*
X108891178Y-115942453D01*
X108981582Y-116148552D01*
X109104674Y-116336957D01*
X109257101Y-116502538D01*
X109434697Y-116640767D01*
X109632628Y-116747882D01*
X109845488Y-116820956D01*
X109926000Y-116834392D01*
X109926000Y-114165608D01*
X110434000Y-114165608D01*
X110434000Y-116834391D01*
X110514511Y-116820956D01*
X110727371Y-116747882D01*
X110925302Y-116640767D01*
X111102898Y-116502538D01*
X111255325Y-116336957D01*
X111378417Y-116148552D01*
X111468821Y-115942454D01*
X111513329Y-115766695D01*
X111541827Y-115715499D01*
X111591990Y-115685220D01*
X111650568Y-115683857D01*
X111702085Y-115711771D01*
X111732932Y-115761588D01*
X111772618Y-115892417D01*
X111799363Y-115942454D01*
X111867379Y-116069703D01*
X111994906Y-116225094D01*
X112150297Y-116352621D01*
X112327582Y-116447381D01*
X112519947Y-116505734D01*
X112720000Y-116525438D01*
X112920053Y-116505734D01*
X113112418Y-116447381D01*
X113289703Y-116352621D01*
X113445094Y-116225094D01*
X113572621Y-116069703D01*
X113667381Y-115892418D01*
X113725734Y-115700053D01*
X113745438Y-115500000D01*
X114234561Y-115500000D01*
X114254266Y-115700054D01*
X114312618Y-115892417D01*
X114339363Y-115942454D01*
X114407379Y-116069703D01*
X114534906Y-116225094D01*
X114690297Y-116352621D01*
X114867582Y-116447381D01*
X115059947Y-116505734D01*
X115260000Y-116525438D01*
X115460053Y-116505734D01*
X115652418Y-116447381D01*
X115829703Y-116352621D01*
X115985094Y-116225094D01*
X116112621Y-116069703D01*
X116207381Y-115892418D01*
X116265734Y-115700053D01*
X116285438Y-115500000D01*
X116774561Y-115500000D01*
X116794266Y-115700054D01*
X116852618Y-115892417D01*
X116879363Y-115942454D01*
X116947379Y-116069703D01*
X117074906Y-116225094D01*
X117230297Y-116352621D01*
X117407582Y-116447381D01*
X117599947Y-116505734D01*
X117800000Y-116525438D01*
X118000053Y-116505734D01*
X118192418Y-116447381D01*
X118369703Y-116352621D01*
X118525094Y-116225094D01*
X118652621Y-116069703D01*
X118747381Y-115892418D01*
X118805734Y-115700053D01*
X118825438Y-115500000D01*
X119314561Y-115500000D01*
X119334266Y-115700054D01*
X119392618Y-115892417D01*
X119419363Y-115942454D01*
X119487379Y-116069703D01*
X119614906Y-116225094D01*
X119770297Y-116352621D01*
X119947582Y-116447381D01*
X120139947Y-116505734D01*
X120340000Y-116525438D01*
X120540053Y-116505734D01*
X120732418Y-116447381D01*
X120909703Y-116352621D01*
X121065094Y-116225094D01*
X121192621Y-116069703D01*
X121287381Y-115892418D01*
X121327068Y-115761585D01*
X121357913Y-115711772D01*
X121409430Y-115683858D01*
X121468008Y-115685220D01*
X121518172Y-115715498D01*
X121546670Y-115766695D01*
X121591178Y-115942453D01*
X121681582Y-116148552D01*
X121804674Y-116336957D01*
X121957101Y-116502538D01*
X122134697Y-116640767D01*
X122332628Y-116747882D01*
X122545488Y-116820956D01*
X122626000Y-116834391D01*
X122626000Y-114165608D01*
X123134000Y-114165608D01*
X123134000Y-116834391D01*
X123214511Y-116820956D01*
X123427371Y-116747882D01*
X123625302Y-116640767D01*
X123802898Y-116502538D01*
X123955325Y-116336957D01*
X124078417Y-116148552D01*
X124168821Y-115942454D01*
X124213329Y-115766695D01*
X124241827Y-115715499D01*
X124291990Y-115685220D01*
X124350568Y-115683857D01*
X124402085Y-115711771D01*
X124432932Y-115761588D01*
X124472618Y-115892417D01*
X124499363Y-115942454D01*
X124567379Y-116069703D01*
X124694906Y-116225094D01*
X124850297Y-116352621D01*
X125027582Y-116447381D01*
X125219947Y-116505734D01*
X125420000Y-116525438D01*
X125620053Y-116505734D01*
X125812418Y-116447381D01*
X125989703Y-116352621D01*
X126145094Y-116225094D01*
X126272621Y-116069703D01*
X126367381Y-115892418D01*
X126425734Y-115700053D01*
X126445438Y-115500000D01*
X126934561Y-115500000D01*
X126954266Y-115700054D01*
X127012618Y-115892417D01*
X127039363Y-115942454D01*
X127107379Y-116069703D01*
X127234906Y-116225094D01*
X127390297Y-116352621D01*
X127567582Y-116447381D01*
X127759947Y-116505734D01*
X127960000Y-116525438D01*
X128160053Y-116505734D01*
X128352418Y-116447381D01*
X128529703Y-116352621D01*
X128685094Y-116225094D01*
X128812621Y-116069703D01*
X128907381Y-115892418D01*
X128914160Y-115870071D01*
X128918909Y-115854416D01*
X128953963Y-115800822D01*
X129012380Y-115774583D01*
X129075727Y-115783980D01*
X129124013Y-115826046D01*
X129142000Y-115887508D01*
X129142000Y-116398588D01*
X129148505Y-116459095D01*
X129199553Y-116595959D01*
X129287096Y-116712903D01*
X129404040Y-116800446D01*
X129540904Y-116851494D01*
X129601412Y-116858000D01*
X130246000Y-116858000D01*
X130246000Y-115754000D01*
X130754000Y-115754000D01*
X130754000Y-116858000D01*
X131398588Y-116858000D01*
X131459095Y-116851494D01*
X131595959Y-116800446D01*
X131712903Y-116712903D01*
X131800446Y-116595959D01*
X131851494Y-116459095D01*
X131858000Y-116398588D01*
X131858000Y-115754000D01*
X130754000Y-115754000D01*
X130246000Y-115754000D01*
X130246000Y-114142000D01*
X130754000Y-114142000D01*
X130754000Y-115246000D01*
X131858000Y-115246000D01*
X131858000Y-114601412D01*
X131851494Y-114540904D01*
X131800446Y-114404040D01*
X131712903Y-114287096D01*
X131595959Y-114199553D01*
X131459095Y-114148505D01*
X131398588Y-114142000D01*
X130754000Y-114142000D01*
X130246000Y-114142000D01*
X129601412Y-114142000D01*
X129540904Y-114148505D01*
X129404040Y-114199553D01*
X129287096Y-114287096D01*
X129199553Y-114404040D01*
X129148505Y-114540904D01*
X129142000Y-114601412D01*
X129142000Y-115112492D01*
X129124013Y-115173954D01*
X129075727Y-115216020D01*
X129012380Y-115225417D01*
X128953963Y-115199178D01*
X128918909Y-115145584D01*
X128907381Y-115107582D01*
X128812621Y-114930297D01*
X128721216Y-114818921D01*
X128685094Y-114774906D01*
X128529703Y-114647379D01*
X128529702Y-114647378D01*
X128352417Y-114552618D01*
X128160054Y-114494266D01*
X127960000Y-114474561D01*
X127759945Y-114494266D01*
X127567582Y-114552618D01*
X127390297Y-114647378D01*
X127234906Y-114774906D01*
X127107378Y-114930297D01*
X127012618Y-115107582D01*
X126954266Y-115299945D01*
X126934561Y-115500000D01*
X126445438Y-115500000D01*
X126425734Y-115299947D01*
X126367381Y-115107582D01*
X126272621Y-114930297D01*
X126145094Y-114774906D01*
X125989703Y-114647379D01*
X125989702Y-114647378D01*
X125812417Y-114552618D01*
X125620054Y-114494266D01*
X125420000Y-114474561D01*
X125219945Y-114494266D01*
X125027582Y-114552618D01*
X124850297Y-114647378D01*
X124694906Y-114774906D01*
X124567378Y-114930297D01*
X124472618Y-115107582D01*
X124432932Y-115238411D01*
X124402085Y-115288228D01*
X124350568Y-115316142D01*
X124291990Y-115314779D01*
X124241827Y-115284500D01*
X124213329Y-115233304D01*
X124168821Y-115057546D01*
X124078417Y-114851447D01*
X123955325Y-114663042D01*
X123802898Y-114497461D01*
X123625302Y-114359232D01*
X123427371Y-114252117D01*
X123214511Y-114179043D01*
X123134000Y-114165608D01*
X122626000Y-114165608D01*
X122545488Y-114179043D01*
X122332628Y-114252117D01*
X122134697Y-114359232D01*
X121957101Y-114497461D01*
X121804674Y-114663042D01*
X121681582Y-114851447D01*
X121591178Y-115057546D01*
X121546670Y-115233304D01*
X121518172Y-115284501D01*
X121468008Y-115314779D01*
X121409430Y-115316141D01*
X121357913Y-115288227D01*
X121327067Y-115238411D01*
X121323125Y-115225417D01*
X121287381Y-115107582D01*
X121192621Y-114930297D01*
X121065094Y-114774906D01*
X120909703Y-114647379D01*
X120909702Y-114647378D01*
X120732417Y-114552618D01*
X120540054Y-114494266D01*
X120340000Y-114474561D01*
X120139945Y-114494266D01*
X119947582Y-114552618D01*
X119770297Y-114647378D01*
X119614906Y-114774906D01*
X119487378Y-114930297D01*
X119392618Y-115107582D01*
X119334266Y-115299945D01*
X119314561Y-115500000D01*
X118825438Y-115500000D01*
X118805734Y-115299947D01*
X118747381Y-115107582D01*
X118652621Y-114930297D01*
X118525094Y-114774906D01*
X118369703Y-114647379D01*
X118369702Y-114647378D01*
X118192417Y-114552618D01*
X118000054Y-114494266D01*
X117800000Y-114474561D01*
X117599945Y-114494266D01*
X117407582Y-114552618D01*
X117230297Y-114647378D01*
X117074906Y-114774906D01*
X116947378Y-114930297D01*
X116852618Y-115107582D01*
X116794266Y-115299945D01*
X116774561Y-115500000D01*
X116285438Y-115500000D01*
X116265734Y-115299947D01*
X116207381Y-115107582D01*
X116112621Y-114930297D01*
X115985094Y-114774906D01*
X115829703Y-114647379D01*
X115829702Y-114647378D01*
X115652417Y-114552618D01*
X115460054Y-114494266D01*
X115260000Y-114474561D01*
X115059945Y-114494266D01*
X114867582Y-114552618D01*
X114690297Y-114647378D01*
X114534906Y-114774906D01*
X114407378Y-114930297D01*
X114312618Y-115107582D01*
X114254266Y-115299945D01*
X114234561Y-115500000D01*
X113745438Y-115500000D01*
X113725734Y-115299947D01*
X113667381Y-115107582D01*
X113572621Y-114930297D01*
X113445094Y-114774906D01*
X113289703Y-114647379D01*
X113289702Y-114647378D01*
X113112417Y-114552618D01*
X112920054Y-114494266D01*
X112720000Y-114474561D01*
X112519945Y-114494266D01*
X112327582Y-114552618D01*
X112150297Y-114647378D01*
X111994906Y-114774906D01*
X111867378Y-114930297D01*
X111772618Y-115107582D01*
X111732932Y-115238411D01*
X111702085Y-115288228D01*
X111650568Y-115316142D01*
X111591990Y-115314779D01*
X111541827Y-115284500D01*
X111513329Y-115233304D01*
X111468821Y-115057546D01*
X111378417Y-114851447D01*
X111255325Y-114663042D01*
X111102898Y-114497461D01*
X110925302Y-114359232D01*
X110727371Y-114252117D01*
X110514511Y-114179043D01*
X110434000Y-114165608D01*
X109926000Y-114165608D01*
X109845488Y-114179043D01*
X109632628Y-114252117D01*
X109434697Y-114359232D01*
X109257101Y-114497461D01*
X109104674Y-114663042D01*
X108981582Y-114851447D01*
X108891178Y-115057546D01*
X108846670Y-115233304D01*
X108818172Y-115284501D01*
X108768008Y-115314779D01*
X108709430Y-115316141D01*
X108657913Y-115288227D01*
X108627067Y-115238411D01*
X108623125Y-115225417D01*
X108587381Y-115107582D01*
X108492621Y-114930297D01*
X108365094Y-114774906D01*
X108209703Y-114647379D01*
X108209702Y-114647378D01*
X108032417Y-114552618D01*
X107840054Y-114494266D01*
X107640000Y-114474561D01*
X107439945Y-114494266D01*
X107247582Y-114552618D01*
X107070297Y-114647378D01*
X106914906Y-114774906D01*
X106787378Y-114930297D01*
X106692618Y-115107582D01*
X106634266Y-115299945D01*
X106614561Y-115500000D01*
X106125438Y-115500000D01*
X106105734Y-115299947D01*
X106047381Y-115107582D01*
X105952621Y-114930297D01*
X105825094Y-114774906D01*
X105669703Y-114647379D01*
X105669702Y-114647378D01*
X105492417Y-114552618D01*
X105300054Y-114494266D01*
X105100000Y-114474561D01*
X104899945Y-114494266D01*
X104707582Y-114552618D01*
X104530297Y-114647378D01*
X104374906Y-114774906D01*
X104247378Y-114930297D01*
X104152618Y-115107582D01*
X104112932Y-115238411D01*
X104082085Y-115288228D01*
X104030568Y-115316142D01*
X103971990Y-115314779D01*
X103921827Y-115284500D01*
X103893329Y-115233304D01*
X103848821Y-115057546D01*
X103758417Y-114851447D01*
X103635325Y-114663042D01*
X103482898Y-114497461D01*
X103305302Y-114359232D01*
X103107371Y-114252117D01*
X102894511Y-114179043D01*
X102814000Y-114165608D01*
X102306000Y-114165608D01*
X102225488Y-114179043D01*
X102012628Y-114252117D01*
X101814697Y-114359232D01*
X101637101Y-114497461D01*
X101484674Y-114663042D01*
X101361582Y-114851447D01*
X101271178Y-115057546D01*
X101226670Y-115233304D01*
X101198172Y-115284501D01*
X101148008Y-115314779D01*
X101089430Y-115316141D01*
X101037913Y-115288227D01*
X101007067Y-115238411D01*
X101003125Y-115225417D01*
X100967381Y-115107582D01*
X100872621Y-114930297D01*
X100745094Y-114774906D01*
X100589703Y-114647379D01*
X100589702Y-114647378D01*
X100412417Y-114552618D01*
X100220054Y-114494266D01*
X100020000Y-114474561D01*
X99819945Y-114494266D01*
X99627582Y-114552618D01*
X99450297Y-114647378D01*
X99294906Y-114774906D01*
X99167378Y-114930297D01*
X99072618Y-115107582D01*
X99014266Y-115299945D01*
X98994561Y-115500000D01*
X98505438Y-115500000D01*
X98485734Y-115299947D01*
X98427381Y-115107582D01*
X98332621Y-114930297D01*
X98205094Y-114774906D01*
X98049703Y-114647379D01*
X98049702Y-114647378D01*
X97872417Y-114552618D01*
X97680054Y-114494266D01*
X97480000Y-114474561D01*
X97279945Y-114494266D01*
X97087582Y-114552618D01*
X96910297Y-114647378D01*
X96754906Y-114774906D01*
X96627378Y-114930297D01*
X96532618Y-115107582D01*
X96474266Y-115299945D01*
X96454561Y-115500000D01*
X95965438Y-115500000D01*
X95945734Y-115299947D01*
X95887381Y-115107582D01*
X95792621Y-114930297D01*
X95665094Y-114774906D01*
X95509703Y-114647379D01*
X95509702Y-114647378D01*
X95332417Y-114552618D01*
X95140054Y-114494266D01*
X94940000Y-114474561D01*
X94739945Y-114494266D01*
X94547582Y-114552618D01*
X94370297Y-114647378D01*
X94214906Y-114774906D01*
X94087378Y-114930297D01*
X93992618Y-115107582D01*
X93934266Y-115299945D01*
X93914561Y-115500000D01*
X93425438Y-115500000D01*
X93405734Y-115299947D01*
X93347381Y-115107582D01*
X93252621Y-114930297D01*
X93125094Y-114774906D01*
X92969703Y-114647379D01*
X92969702Y-114647378D01*
X92792417Y-114552618D01*
X92600054Y-114494266D01*
X92400000Y-114474561D01*
X92199945Y-114494266D01*
X92007582Y-114552618D01*
X91830297Y-114647378D01*
X91674906Y-114774906D01*
X91547378Y-114930297D01*
X91452618Y-115107582D01*
X91394266Y-115299945D01*
X91374561Y-115500000D01*
X90431500Y-115500000D01*
X90431500Y-113300000D01*
X111424576Y-113300000D01*
X111444184Y-113448931D01*
X111501668Y-113587712D01*
X111593113Y-113706886D01*
X111712287Y-113798331D01*
X111810418Y-113838977D01*
X111851070Y-113855816D01*
X112000000Y-113875423D01*
X112148930Y-113855816D01*
X112287712Y-113798331D01*
X112406886Y-113706886D01*
X112498331Y-113587712D01*
X112555816Y-113448930D01*
X112575423Y-113300000D01*
X112924576Y-113300000D01*
X112944184Y-113448931D01*
X113001668Y-113587712D01*
X113093113Y-113706886D01*
X113212287Y-113798331D01*
X113310418Y-113838977D01*
X113351070Y-113855816D01*
X113500000Y-113875423D01*
X113648930Y-113855816D01*
X113787712Y-113798331D01*
X113906886Y-113706886D01*
X113998331Y-113587712D01*
X114055816Y-113448930D01*
X114075423Y-113300000D01*
X114062258Y-113200000D01*
X132194353Y-113200000D01*
X132214835Y-113342457D01*
X132274623Y-113473373D01*
X132368871Y-113582142D01*
X132368872Y-113582143D01*
X132489948Y-113659954D01*
X132628037Y-113700500D01*
X132628039Y-113700500D01*
X132771961Y-113700500D01*
X132771963Y-113700500D01*
X132910051Y-113659954D01*
X132910053Y-113659953D01*
X133031128Y-113582143D01*
X133125377Y-113473373D01*
X133185165Y-113342457D01*
X133205647Y-113200000D01*
X133185165Y-113057543D01*
X133125377Y-112926627D01*
X133031128Y-112817857D01*
X133031127Y-112817856D01*
X132910051Y-112740045D01*
X132771963Y-112699500D01*
X132771961Y-112699500D01*
X132628039Y-112699500D01*
X132628037Y-112699500D01*
X132489948Y-112740045D01*
X132368872Y-112817856D01*
X132303663Y-112893113D01*
X132274623Y-112926627D01*
X132214835Y-113057543D01*
X132194353Y-113200000D01*
X114062258Y-113200000D01*
X114055816Y-113151070D01*
X113998331Y-113012289D01*
X113906886Y-112893114D01*
X113906885Y-112893113D01*
X113787712Y-112801668D01*
X113648931Y-112744184D01*
X113500000Y-112724576D01*
X113351068Y-112744184D01*
X113212289Y-112801668D01*
X113093113Y-112893113D01*
X113001668Y-113012289D01*
X112944184Y-113151068D01*
X112924576Y-113300000D01*
X112575423Y-113300000D01*
X112555816Y-113151070D01*
X112498331Y-113012289D01*
X112406886Y-112893114D01*
X112406885Y-112893113D01*
X112287712Y-112801668D01*
X112148931Y-112744184D01*
X112000000Y-112724576D01*
X111851068Y-112744184D01*
X111712289Y-112801668D01*
X111593113Y-112893113D01*
X111501668Y-113012289D01*
X111444184Y-113151068D01*
X111424576Y-113300000D01*
X90431500Y-113300000D01*
X90431500Y-112604484D01*
X90431851Y-112595540D01*
X90447029Y-112402682D01*
X90449828Y-112385013D01*
X90460045Y-112342457D01*
X90493940Y-112201274D01*
X90494354Y-112200000D01*
X90994353Y-112200000D01*
X91014835Y-112342457D01*
X91074623Y-112473373D01*
X91168872Y-112582143D01*
X91289948Y-112659954D01*
X91428037Y-112700500D01*
X91428039Y-112700500D01*
X91571961Y-112700500D01*
X91571963Y-112700500D01*
X91710051Y-112659954D01*
X91710053Y-112659953D01*
X91831128Y-112582143D01*
X91925377Y-112473373D01*
X91985165Y-112342457D01*
X92005647Y-112200000D01*
X91985165Y-112057543D01*
X91925377Y-111926627D01*
X91831128Y-111817857D01*
X91831127Y-111817856D01*
X91710051Y-111740045D01*
X91571963Y-111699500D01*
X91571961Y-111699500D01*
X91428039Y-111699500D01*
X91428037Y-111699500D01*
X91289948Y-111740045D01*
X91168872Y-111817856D01*
X91074623Y-111926627D01*
X91036683Y-112009704D01*
X91014835Y-112057543D01*
X90994353Y-112200000D01*
X90494354Y-112200000D01*
X90499461Y-112184280D01*
X90571779Y-112009691D01*
X90579887Y-111993777D01*
X90678629Y-111832643D01*
X90689127Y-111818194D01*
X90811861Y-111674492D01*
X90824492Y-111661861D01*
X90968194Y-111539127D01*
X90982643Y-111528629D01*
X91143777Y-111429887D01*
X91159691Y-111421779D01*
X91334280Y-111349461D01*
X91351278Y-111343939D01*
X91521177Y-111303150D01*
X91547790Y-111300000D01*
X131483511Y-111300000D01*
X131505751Y-111302190D01*
G37*
%TD.AperFunction*%
%TD*%
M02*
