%TF.GenerationSoftware,KiCad,Pcbnew,6.0.6-1.fc36*%
%TF.CreationDate,2022-07-20T16:56:09-04:00*%
%TF.ProjectId,ext-con-breakout-board,6578742d-636f-46e2-9d62-7265616b6f75,v0.5*%
%TF.SameCoordinates,Original*%
%TF.FileFunction,Copper,L1,Top*%
%TF.FilePolarity,Positive*%
%FSLAX46Y46*%
G04 Gerber Fmt 4.6, Leading zero omitted, Abs format (unit mm)*
G04 Created by KiCad (PCBNEW 6.0.6-1.fc36) date 2022-07-20 16:56:09*
%MOMM*%
%LPD*%
G01*
G04 APERTURE LIST*
G04 Aperture macros list*
%AMRoundRect*
0 Rectangle with rounded corners*
0 $1 Rounding radius*
0 $2 $3 $4 $5 $6 $7 $8 $9 X,Y pos of 4 corners*
0 Add a 4 corners polygon primitive as box body*
4,1,4,$2,$3,$4,$5,$6,$7,$8,$9,$2,$3,0*
0 Add four circle primitives for the rounded corners*
1,1,$1+$1,$2,$3*
1,1,$1+$1,$4,$5*
1,1,$1+$1,$6,$7*
1,1,$1+$1,$8,$9*
0 Add four rect primitives between the rounded corners*
20,1,$1+$1,$2,$3,$4,$5,0*
20,1,$1+$1,$4,$5,$6,$7,0*
20,1,$1+$1,$6,$7,$8,$9,0*
20,1,$1+$1,$8,$9,$2,$3,0*%
G04 Aperture macros list end*
%TA.AperFunction,SMDPad,CuDef*%
%ADD10RoundRect,0.147500X0.147500X0.172500X-0.147500X0.172500X-0.147500X-0.172500X0.147500X-0.172500X0*%
%TD*%
%TA.AperFunction,ComponentPad*%
%ADD11R,1.700000X1.700000*%
%TD*%
%TA.AperFunction,ComponentPad*%
%ADD12O,1.700000X1.700000*%
%TD*%
%TA.AperFunction,ComponentPad*%
%ADD13C,2.800000*%
%TD*%
%TA.AperFunction,SMDPad,CuDef*%
%ADD14RoundRect,0.147500X-0.147500X-0.172500X0.147500X-0.172500X0.147500X0.172500X-0.147500X0.172500X0*%
%TD*%
%TA.AperFunction,SMDPad,CuDef*%
%ADD15C,0.500000*%
%TD*%
%TA.AperFunction,SMDPad,CuDef*%
%ADD16RoundRect,0.140000X-0.140000X-0.170000X0.140000X-0.170000X0.140000X0.170000X-0.140000X0.170000X0*%
%TD*%
%TA.AperFunction,SMDPad,CuDef*%
%ADD17RoundRect,0.140000X0.140000X0.170000X-0.140000X0.170000X-0.140000X-0.170000X0.140000X-0.170000X0*%
%TD*%
%TA.AperFunction,ViaPad*%
%ADD18C,0.800000*%
%TD*%
%TA.AperFunction,Conductor*%
%ADD19C,0.230000*%
%TD*%
%TA.AperFunction,Conductor*%
%ADD20C,0.620000*%
%TD*%
%TA.AperFunction,Conductor*%
%ADD21C,0.500000*%
%TD*%
G04 APERTURE END LIST*
D10*
%TO.P,FB2,1*%
%TO.N,+3V3*%
X111285000Y-117000000D03*
%TO.P,FB2,2*%
%TO.N,Net-(C2-Pad1)*%
X110315000Y-117000000D03*
%TD*%
D11*
%TO.P,J2,1,Pin_1*%
%TO.N,GND*%
X135500000Y-119000000D03*
D12*
%TO.P,J2,2,Pin_2*%
%TO.N,/UART1_RXD*%
X132960000Y-119000000D03*
%TO.P,J2,3,Pin_3*%
%TO.N,/UART1_TXD*%
X130420000Y-119000000D03*
%TO.P,J2,4,Pin_4*%
%TO.N,GND*%
X127880000Y-119000000D03*
%TO.P,J2,5,Pin_5*%
%TO.N,/SPI_SS1*%
X125340000Y-119000000D03*
%TO.P,J2,6,Pin_6*%
%TO.N,/SPI_SCK*%
X122800000Y-119000000D03*
%TO.P,J2,7,Pin_7*%
%TO.N,/SPI_MOSI*%
X120260000Y-119000000D03*
%TO.P,J2,8,Pin_8*%
%TO.N,/SPI_MISO*%
X117720000Y-119000000D03*
%TO.P,J2,9,Pin_9*%
%TO.N,GND*%
X115180000Y-119000000D03*
%TO.P,J2,10,Pin_10*%
%TO.N,Net-(C1-Pad1)*%
X112640000Y-119000000D03*
%TO.P,J2,11,Pin_11*%
%TO.N,Net-(C2-Pad1)*%
X110100000Y-119000000D03*
%TO.P,J2,12,Pin_12*%
%TO.N,GND*%
X107560000Y-119000000D03*
%TO.P,J2,13,Pin_13*%
%TO.N,/GPIO4_IO11*%
X105020000Y-119000000D03*
%TO.P,J2,14,Pin_14*%
%TO.N,/GPIO4_IO28*%
X102480000Y-119000000D03*
%TO.P,J2,15,Pin_15*%
%TO.N,/I2C4_SCL*%
X99940000Y-119000000D03*
%TO.P,J2,16,Pin_16*%
%TO.N,/I2C4_SDA*%
X97400000Y-119000000D03*
%TD*%
D13*
%TO.P,H1,1,1*%
%TO.N,GND*%
X138671000Y-119000000D03*
%TD*%
D14*
%TO.P,FB1,1*%
%TO.N,+1V8*%
X112315000Y-117000000D03*
%TO.P,FB1,2*%
%TO.N,Net-(C1-Pad1)*%
X113285000Y-117000000D03*
%TD*%
D15*
%TO.P,FID1,*%
%TO.N,*%
X96500000Y-115700000D03*
%TD*%
D16*
%TO.P,C1,1*%
%TO.N,Net-(C1-Pad1)*%
X114220000Y-117000000D03*
%TO.P,C1,2*%
%TO.N,GND*%
X115180000Y-117000000D03*
%TD*%
D17*
%TO.P,C2,1*%
%TO.N,Net-(C2-Pad1)*%
X109310000Y-117000000D03*
%TO.P,C2,2*%
%TO.N,GND*%
X108350000Y-117000000D03*
%TD*%
D15*
%TO.P,FID2,*%
%TO.N,*%
X137700000Y-116700000D03*
%TD*%
D18*
%TO.N,+1V8*%
X117000000Y-116800000D03*
%TO.N,+3V3*%
X118500000Y-116800000D03*
%TD*%
D19*
%TO.N,+1V8*%
X115913604Y-116350000D02*
X112965000Y-116350000D01*
X112315000Y-117000000D02*
G75*
G02*
X112965000Y-116350000I650000J0D01*
G01*
X115913604Y-116349999D02*
G75*
G02*
X117000000Y-116800000I-4J-1536401D01*
G01*
%TO.N,+3V3*%
X116447919Y-115950000D02*
X112335000Y-115950000D01*
X116447919Y-115949993D02*
G75*
G02*
X118500000Y-116800000I-19J-2902107D01*
G01*
X111285000Y-117000000D02*
G75*
G02*
X112335000Y-115950000I1050000J0D01*
G01*
D20*
%TO.N,Net-(C2-Pad1)*%
X109310000Y-117000000D02*
X110315000Y-117000000D01*
X110315000Y-117000000D02*
X110315000Y-118480945D01*
D21*
X110100000Y-119000000D02*
X110100000Y-118900000D01*
D20*
X110099987Y-118999987D02*
G75*
G03*
X110315000Y-118480945I-519087J519087D01*
G01*
%TO.N,Net-(C1-Pad1)*%
X113285000Y-117000000D02*
X113285000Y-117442833D01*
X113285000Y-117000000D02*
X114220000Y-117000000D01*
X112639991Y-118999991D02*
G75*
G03*
X113285000Y-117442833I-1557191J1557191D01*
G01*
%TD*%
%TA.AperFunction,Conductor*%
%TO.N,+1V8*%
G36*
X116386531Y-116302860D02*
G01*
X116444990Y-116317649D01*
X116445003Y-116317652D01*
X116445082Y-116317672D01*
X116445168Y-116317690D01*
X116445184Y-116317694D01*
X116495638Y-116328419D01*
X116530016Y-116335727D01*
X116603726Y-116348212D01*
X116603804Y-116348222D01*
X116603817Y-116348224D01*
X116633939Y-116352093D01*
X116669493Y-116356660D01*
X116669569Y-116356667D01*
X116669583Y-116356669D01*
X116706157Y-116360224D01*
X116730600Y-116362600D01*
X116790328Y-116367566D01*
X116790403Y-116367573D01*
X116851802Y-116373074D01*
X116852082Y-116373102D01*
X116918585Y-116380676D01*
X116918987Y-116380729D01*
X116993855Y-116391897D01*
X116994293Y-116391971D01*
X117072946Y-116406774D01*
X117080443Y-116411672D01*
X117082351Y-116416527D01*
X117156767Y-116909837D01*
X117154613Y-116918529D01*
X117146490Y-116923210D01*
X116650830Y-116978268D01*
X116642229Y-116975776D01*
X116638883Y-116971473D01*
X116612762Y-116913881D01*
X116612483Y-116913212D01*
X116589141Y-116851913D01*
X116589026Y-116851596D01*
X116568978Y-116794018D01*
X116549514Y-116740619D01*
X116549512Y-116740614D01*
X116549446Y-116740433D01*
X116549361Y-116740240D01*
X116527805Y-116691498D01*
X116527801Y-116691491D01*
X116527655Y-116691160D01*
X116500765Y-116646343D01*
X116482917Y-116625732D01*
X116466311Y-116606554D01*
X116466308Y-116606551D01*
X116465939Y-116606125D01*
X116420340Y-116570650D01*
X116361128Y-116540061D01*
X116360724Y-116539924D01*
X116360718Y-116539922D01*
X116315163Y-116524535D01*
X116295897Y-116518027D01*
X116289155Y-116512132D01*
X116288348Y-116503881D01*
X116333927Y-116335727D01*
X116342631Y-116303618D01*
X116348102Y-116296531D01*
X116356792Y-116295337D01*
X116386531Y-116302860D01*
G37*
%TD.AperFunction*%
%TD*%
%TA.AperFunction,Conductor*%
%TO.N,Net-(C1-Pad1)*%
G36*
X113582943Y-117476410D02*
G01*
X113591170Y-117479948D01*
X113594482Y-117488396D01*
X113589562Y-117688787D01*
X113589552Y-117689072D01*
X113580740Y-117869184D01*
X113580722Y-117869477D01*
X113569222Y-118024662D01*
X113569203Y-118024890D01*
X113555907Y-118162463D01*
X113541737Y-118289398D01*
X113527615Y-118412701D01*
X113514458Y-118539463D01*
X113503180Y-118676777D01*
X113494696Y-118831734D01*
X113494694Y-118831808D01*
X113494694Y-118831809D01*
X113490145Y-119003075D01*
X113486500Y-119011254D01*
X113481952Y-119013927D01*
X112415422Y-119348586D01*
X112406502Y-119347794D01*
X112400756Y-119340926D01*
X112400395Y-119339442D01*
X112342896Y-119011254D01*
X112213688Y-118273782D01*
X112215635Y-118265042D01*
X112219643Y-118261473D01*
X112330775Y-118201326D01*
X112331225Y-118201096D01*
X112445022Y-118145720D01*
X112445104Y-118145680D01*
X112469657Y-118133969D01*
X112552679Y-118094370D01*
X112552754Y-118094331D01*
X112651838Y-118042763D01*
X112651843Y-118042760D01*
X112652043Y-118042656D01*
X112741368Y-117985983D01*
X112818867Y-117919780D01*
X112882750Y-117839475D01*
X112931230Y-117740498D01*
X112944427Y-117688949D01*
X112962396Y-117618755D01*
X112962396Y-117618753D01*
X112962519Y-117618274D01*
X112973937Y-117479124D01*
X112978029Y-117471159D01*
X112985755Y-117468382D01*
X113582943Y-117476410D01*
G37*
%TD.AperFunction*%
%TD*%
%TA.AperFunction,Conductor*%
%TO.N,+3V3*%
G36*
X117930179Y-116223845D02*
G01*
X118006645Y-116263984D01*
X118006654Y-116263988D01*
X118006819Y-116264075D01*
X118031286Y-116275034D01*
X118082131Y-116297808D01*
X118082143Y-116297813D01*
X118082313Y-116297889D01*
X118149261Y-116322216D01*
X118177610Y-116330135D01*
X118210182Y-116339235D01*
X118210194Y-116339238D01*
X118210359Y-116339284D01*
X118210541Y-116339322D01*
X118210550Y-116339324D01*
X118268136Y-116351288D01*
X118268300Y-116351322D01*
X118325779Y-116360556D01*
X118385462Y-116369210D01*
X118385516Y-116369218D01*
X118422543Y-116375125D01*
X118449907Y-116379490D01*
X118450319Y-116379563D01*
X118483221Y-116386024D01*
X118522121Y-116393663D01*
X118522629Y-116393776D01*
X118596819Y-116412014D01*
X118604034Y-116417317D01*
X118605679Y-116422342D01*
X118617575Y-116556470D01*
X118649748Y-116919227D01*
X118647066Y-116927771D01*
X118638671Y-116931947D01*
X118140545Y-116956558D01*
X118132113Y-116953543D01*
X118129049Y-116949074D01*
X118104807Y-116886085D01*
X118104571Y-116885414D01*
X118084059Y-116820612D01*
X118083949Y-116820241D01*
X118067141Y-116760325D01*
X118067133Y-116760296D01*
X118051170Y-116704750D01*
X118051165Y-116704735D01*
X118051127Y-116704602D01*
X118033018Y-116652502D01*
X118032197Y-116650756D01*
X118010049Y-116603642D01*
X118010045Y-116603635D01*
X118009866Y-116603254D01*
X117978722Y-116556083D01*
X117936638Y-116510218D01*
X117880668Y-116464883D01*
X117817300Y-116425216D01*
X117812106Y-116417922D01*
X117813295Y-116409590D01*
X117914528Y-116228495D01*
X117921556Y-116222946D01*
X117930179Y-116223845D01*
G37*
%TD.AperFunction*%
%TD*%
%TA.AperFunction,Conductor*%
%TO.N,GND*%
G36*
X136505751Y-114802190D02*
G01*
X136705910Y-114842003D01*
X136720314Y-114845863D01*
X136931404Y-114917519D01*
X136945182Y-114923226D01*
X137145117Y-115021826D01*
X137158031Y-115029282D01*
X137343388Y-115153137D01*
X137355219Y-115162216D01*
X137505369Y-115293900D01*
X137510955Y-115299140D01*
X137518097Y-115306308D01*
X137524912Y-115317193D01*
X137535773Y-115324046D01*
X137538848Y-115327132D01*
X137551807Y-115337486D01*
X140512138Y-118297818D01*
X140521988Y-118310189D01*
X140525530Y-118313744D01*
X140532342Y-118324624D01*
X140543197Y-118331473D01*
X140552098Y-118340406D01*
X140557056Y-118345709D01*
X140687788Y-118494781D01*
X140696865Y-118506611D01*
X140820715Y-118691965D01*
X140828171Y-118704878D01*
X140926772Y-118904817D01*
X140932478Y-118918593D01*
X141004143Y-119129699D01*
X141008002Y-119144097D01*
X141038030Y-119295038D01*
X141051499Y-119362741D01*
X141053446Y-119377525D01*
X141066483Y-119576339D01*
X141066727Y-119583993D01*
X141066709Y-119594598D01*
X141063832Y-119607110D01*
X141066666Y-119619634D01*
X141066659Y-119623998D01*
X141068500Y-119640476D01*
X141068500Y-120066438D01*
X141066718Y-120082140D01*
X141066709Y-120087163D01*
X141063832Y-120099675D01*
X141066664Y-120112194D01*
X141066652Y-120119191D01*
X141066301Y-120127932D01*
X141053130Y-120295303D01*
X141052971Y-120297318D01*
X141050173Y-120314982D01*
X141039845Y-120358000D01*
X141006062Y-120498716D01*
X141000534Y-120515729D01*
X140928226Y-120690295D01*
X140920105Y-120706233D01*
X140821376Y-120867346D01*
X140810861Y-120881819D01*
X140688147Y-121025498D01*
X140675501Y-121038144D01*
X140531819Y-121160861D01*
X140517346Y-121171376D01*
X140356233Y-121270105D01*
X140340295Y-121278226D01*
X140165729Y-121350534D01*
X140148716Y-121356062D01*
X140087003Y-121370878D01*
X139964982Y-121400173D01*
X139947322Y-121402970D01*
X139887317Y-121407693D01*
X139777099Y-121416367D01*
X139767956Y-121416718D01*
X139762836Y-121416709D01*
X139750325Y-121413832D01*
X139737803Y-121416666D01*
X139733446Y-121416658D01*
X139716958Y-121418500D01*
X96783562Y-121418500D01*
X96767860Y-121416718D01*
X96762837Y-121416709D01*
X96750325Y-121413832D01*
X96737806Y-121416664D01*
X96730809Y-121416652D01*
X96722068Y-121416301D01*
X96634602Y-121409418D01*
X96552678Y-121402970D01*
X96535018Y-121400173D01*
X96412997Y-121370878D01*
X96351284Y-121356062D01*
X96334271Y-121350534D01*
X96159705Y-121278226D01*
X96143767Y-121270105D01*
X95982654Y-121171376D01*
X95968181Y-121160861D01*
X95824499Y-121038144D01*
X95811853Y-121025498D01*
X95689139Y-120881819D01*
X95678624Y-120867346D01*
X95579895Y-120706233D01*
X95571774Y-120690295D01*
X95499466Y-120515729D01*
X95493938Y-120498716D01*
X95455813Y-120339914D01*
X95449828Y-120314984D01*
X95447029Y-120297317D01*
X95433994Y-120131686D01*
X95434392Y-120109700D01*
X95434711Y-120106932D01*
X95436167Y-120100650D01*
X95436168Y-120100000D01*
X95434355Y-120092052D01*
X95431500Y-120066699D01*
X95431500Y-118985683D01*
X96374662Y-118985683D01*
X96391408Y-119185111D01*
X96403472Y-119227184D01*
X96431695Y-119325606D01*
X96446572Y-119377489D01*
X96449122Y-119382450D01*
X96449122Y-119382451D01*
X96469415Y-119421936D01*
X96538051Y-119555488D01*
X96662362Y-119712329D01*
X96814769Y-119842038D01*
X96861790Y-119868317D01*
X96984596Y-119936951D01*
X96984598Y-119936952D01*
X96989467Y-119939673D01*
X96994776Y-119941398D01*
X97174498Y-119999794D01*
X97174502Y-119999795D01*
X97179802Y-120001517D01*
X97237190Y-120008360D01*
X97372988Y-120024553D01*
X97372990Y-120024553D01*
X97378525Y-120025213D01*
X97578065Y-120009859D01*
X97583430Y-120008361D01*
X97583436Y-120008360D01*
X97765460Y-119957538D01*
X97765463Y-119957537D01*
X97770824Y-119956040D01*
X97949457Y-119865806D01*
X98107162Y-119742593D01*
X98137053Y-119707964D01*
X98234288Y-119595317D01*
X98234290Y-119595314D01*
X98237931Y-119591096D01*
X98255676Y-119559860D01*
X98334027Y-119421936D01*
X98336784Y-119417083D01*
X98338543Y-119411796D01*
X98338545Y-119411791D01*
X98398196Y-119232472D01*
X98398196Y-119232471D01*
X98399955Y-119227184D01*
X98402590Y-119206330D01*
X98424639Y-119031788D01*
X98425038Y-119028632D01*
X98425233Y-119014671D01*
X98425394Y-119003182D01*
X98425394Y-119003174D01*
X98425438Y-119000000D01*
X98424034Y-118985683D01*
X98914662Y-118985683D01*
X98931408Y-119185111D01*
X98943472Y-119227184D01*
X98971695Y-119325606D01*
X98986572Y-119377489D01*
X98989122Y-119382450D01*
X98989122Y-119382451D01*
X99009415Y-119421936D01*
X99078051Y-119555488D01*
X99202362Y-119712329D01*
X99354769Y-119842038D01*
X99401790Y-119868317D01*
X99524596Y-119936951D01*
X99524598Y-119936952D01*
X99529467Y-119939673D01*
X99534776Y-119941398D01*
X99714498Y-119999794D01*
X99714502Y-119999795D01*
X99719802Y-120001517D01*
X99777190Y-120008360D01*
X99912988Y-120024553D01*
X99912990Y-120024553D01*
X99918525Y-120025213D01*
X100118065Y-120009859D01*
X100123430Y-120008361D01*
X100123436Y-120008360D01*
X100305460Y-119957538D01*
X100305463Y-119957537D01*
X100310824Y-119956040D01*
X100489457Y-119865806D01*
X100647162Y-119742593D01*
X100677053Y-119707964D01*
X100774288Y-119595317D01*
X100774290Y-119595314D01*
X100777931Y-119591096D01*
X100795676Y-119559860D01*
X100874027Y-119421936D01*
X100876784Y-119417083D01*
X100878543Y-119411796D01*
X100878545Y-119411791D01*
X100938196Y-119232472D01*
X100938196Y-119232471D01*
X100939955Y-119227184D01*
X100942590Y-119206330D01*
X100964639Y-119031788D01*
X100965038Y-119028632D01*
X100965233Y-119014671D01*
X100965394Y-119003182D01*
X100965394Y-119003174D01*
X100965438Y-119000000D01*
X100964034Y-118985683D01*
X101454662Y-118985683D01*
X101471408Y-119185111D01*
X101483472Y-119227184D01*
X101511695Y-119325606D01*
X101526572Y-119377489D01*
X101529122Y-119382450D01*
X101529122Y-119382451D01*
X101549415Y-119421936D01*
X101618051Y-119555488D01*
X101742362Y-119712329D01*
X101894769Y-119842038D01*
X101941790Y-119868317D01*
X102064596Y-119936951D01*
X102064598Y-119936952D01*
X102069467Y-119939673D01*
X102074776Y-119941398D01*
X102254498Y-119999794D01*
X102254502Y-119999795D01*
X102259802Y-120001517D01*
X102317190Y-120008360D01*
X102452988Y-120024553D01*
X102452990Y-120024553D01*
X102458525Y-120025213D01*
X102658065Y-120009859D01*
X102663430Y-120008361D01*
X102663436Y-120008360D01*
X102845460Y-119957538D01*
X102845463Y-119957537D01*
X102850824Y-119956040D01*
X103029457Y-119865806D01*
X103187162Y-119742593D01*
X103217053Y-119707964D01*
X103314288Y-119595317D01*
X103314290Y-119595314D01*
X103317931Y-119591096D01*
X103335676Y-119559860D01*
X103414027Y-119421936D01*
X103416784Y-119417083D01*
X103418543Y-119411796D01*
X103418545Y-119411791D01*
X103478196Y-119232472D01*
X103478196Y-119232471D01*
X103479955Y-119227184D01*
X103482590Y-119206330D01*
X103504639Y-119031788D01*
X103505038Y-119028632D01*
X103505233Y-119014671D01*
X103505394Y-119003182D01*
X103505394Y-119003174D01*
X103505438Y-119000000D01*
X103504034Y-118985683D01*
X103994662Y-118985683D01*
X104011408Y-119185111D01*
X104023472Y-119227184D01*
X104051695Y-119325606D01*
X104066572Y-119377489D01*
X104069122Y-119382450D01*
X104069122Y-119382451D01*
X104089415Y-119421936D01*
X104158051Y-119555488D01*
X104282362Y-119712329D01*
X104434769Y-119842038D01*
X104481790Y-119868317D01*
X104604596Y-119936951D01*
X104604598Y-119936952D01*
X104609467Y-119939673D01*
X104614776Y-119941398D01*
X104794498Y-119999794D01*
X104794502Y-119999795D01*
X104799802Y-120001517D01*
X104857190Y-120008360D01*
X104992988Y-120024553D01*
X104992990Y-120024553D01*
X104998525Y-120025213D01*
X105198065Y-120009859D01*
X105203430Y-120008361D01*
X105203436Y-120008360D01*
X105385460Y-119957538D01*
X105385463Y-119957537D01*
X105390824Y-119956040D01*
X105569457Y-119865806D01*
X105727162Y-119742593D01*
X105757053Y-119707964D01*
X105854288Y-119595317D01*
X105854290Y-119595314D01*
X105857931Y-119591096D01*
X105875676Y-119559860D01*
X105954027Y-119421936D01*
X105956784Y-119417083D01*
X105958543Y-119411796D01*
X105958545Y-119411791D01*
X106009338Y-119259100D01*
X106045964Y-119206330D01*
X106105306Y-119181739D01*
X106168522Y-119193134D01*
X106215542Y-119236898D01*
X106228721Y-119270021D01*
X106258673Y-119402930D01*
X106261461Y-119411823D01*
X106341954Y-119610055D01*
X106346157Y-119618377D01*
X106457951Y-119800807D01*
X106463451Y-119808322D01*
X106603538Y-119970043D01*
X106610199Y-119976566D01*
X106774818Y-120113236D01*
X106782453Y-120118581D01*
X106967178Y-120226526D01*
X106975588Y-120230555D01*
X107175452Y-120306875D01*
X107184427Y-120309483D01*
X107289935Y-120330949D01*
X107302652Y-120329867D01*
X107306000Y-120320507D01*
X107306000Y-117681376D01*
X107302455Y-117669304D01*
X107289537Y-117667506D01*
X107248835Y-117673735D01*
X107239760Y-117675897D01*
X107036396Y-117742366D01*
X107027798Y-117745980D01*
X106838025Y-117844770D01*
X106830134Y-117849739D01*
X106659035Y-117978204D01*
X106652070Y-117984388D01*
X106504251Y-118139072D01*
X106498382Y-118146319D01*
X106377816Y-118323062D01*
X106373209Y-118331172D01*
X106283130Y-118525232D01*
X106279908Y-118533988D01*
X106224934Y-118732218D01*
X106191024Y-118786774D01*
X106133003Y-118814335D01*
X106069291Y-118806153D01*
X106020117Y-118764824D01*
X106005946Y-118734703D01*
X105969678Y-118614578D01*
X105969677Y-118614577D01*
X105968065Y-118609236D01*
X105963871Y-118601347D01*
X105886730Y-118456267D01*
X105874109Y-118432531D01*
X105747621Y-118277441D01*
X105735427Y-118267353D01*
X105597718Y-118153430D01*
X105597716Y-118153429D01*
X105593418Y-118149873D01*
X105484172Y-118090804D01*
X105422278Y-118057338D01*
X105422277Y-118057338D01*
X105417373Y-118054686D01*
X105226193Y-117995506D01*
X105214709Y-117994299D01*
X105032697Y-117975169D01*
X105032696Y-117975169D01*
X105027159Y-117974587D01*
X104827852Y-117992725D01*
X104635864Y-118049230D01*
X104458508Y-118141950D01*
X104448654Y-118149873D01*
X104330163Y-118245143D01*
X104302539Y-118267353D01*
X104173897Y-118420661D01*
X104077484Y-118596037D01*
X104075801Y-118601343D01*
X104075800Y-118601345D01*
X104047053Y-118691965D01*
X104016970Y-118786799D01*
X103994662Y-118985683D01*
X103504034Y-118985683D01*
X103496105Y-118904817D01*
X103486454Y-118806378D01*
X103486453Y-118806373D01*
X103485909Y-118800825D01*
X103481676Y-118786802D01*
X103429678Y-118614578D01*
X103429677Y-118614577D01*
X103428065Y-118609236D01*
X103423871Y-118601347D01*
X103346730Y-118456267D01*
X103334109Y-118432531D01*
X103207621Y-118277441D01*
X103195427Y-118267353D01*
X103057718Y-118153430D01*
X103057716Y-118153429D01*
X103053418Y-118149873D01*
X102944172Y-118090804D01*
X102882278Y-118057338D01*
X102882277Y-118057338D01*
X102877373Y-118054686D01*
X102686193Y-117995506D01*
X102674709Y-117994299D01*
X102492697Y-117975169D01*
X102492696Y-117975169D01*
X102487159Y-117974587D01*
X102287852Y-117992725D01*
X102095864Y-118049230D01*
X101918508Y-118141950D01*
X101908654Y-118149873D01*
X101790163Y-118245143D01*
X101762539Y-118267353D01*
X101633897Y-118420661D01*
X101537484Y-118596037D01*
X101535801Y-118601343D01*
X101535800Y-118601345D01*
X101507053Y-118691965D01*
X101476970Y-118786799D01*
X101454662Y-118985683D01*
X100964034Y-118985683D01*
X100956105Y-118904817D01*
X100946454Y-118806378D01*
X100946453Y-118806373D01*
X100945909Y-118800825D01*
X100941676Y-118786802D01*
X100889678Y-118614578D01*
X100889677Y-118614577D01*
X100888065Y-118609236D01*
X100883871Y-118601347D01*
X100806730Y-118456267D01*
X100794109Y-118432531D01*
X100667621Y-118277441D01*
X100655427Y-118267353D01*
X100517718Y-118153430D01*
X100517716Y-118153429D01*
X100513418Y-118149873D01*
X100404172Y-118090804D01*
X100342278Y-118057338D01*
X100342277Y-118057338D01*
X100337373Y-118054686D01*
X100146193Y-117995506D01*
X100134709Y-117994299D01*
X99952697Y-117975169D01*
X99952696Y-117975169D01*
X99947159Y-117974587D01*
X99747852Y-117992725D01*
X99555864Y-118049230D01*
X99378508Y-118141950D01*
X99368654Y-118149873D01*
X99250163Y-118245143D01*
X99222539Y-118267353D01*
X99093897Y-118420661D01*
X98997484Y-118596037D01*
X98995801Y-118601343D01*
X98995800Y-118601345D01*
X98967053Y-118691965D01*
X98936970Y-118786799D01*
X98914662Y-118985683D01*
X98424034Y-118985683D01*
X98416105Y-118904817D01*
X98406454Y-118806378D01*
X98406453Y-118806373D01*
X98405909Y-118800825D01*
X98401676Y-118786802D01*
X98349678Y-118614578D01*
X98349677Y-118614577D01*
X98348065Y-118609236D01*
X98343871Y-118601347D01*
X98266730Y-118456267D01*
X98254109Y-118432531D01*
X98127621Y-118277441D01*
X98115427Y-118267353D01*
X97977718Y-118153430D01*
X97977716Y-118153429D01*
X97973418Y-118149873D01*
X97864172Y-118090804D01*
X97802278Y-118057338D01*
X97802277Y-118057338D01*
X97797373Y-118054686D01*
X97606193Y-117995506D01*
X97594709Y-117994299D01*
X97412697Y-117975169D01*
X97412696Y-117975169D01*
X97407159Y-117974587D01*
X97207852Y-117992725D01*
X97015864Y-118049230D01*
X96838508Y-118141950D01*
X96828654Y-118149873D01*
X96710163Y-118245143D01*
X96682539Y-118267353D01*
X96553897Y-118420661D01*
X96457484Y-118596037D01*
X96455801Y-118601343D01*
X96455800Y-118601345D01*
X96427053Y-118691965D01*
X96396970Y-118786799D01*
X96374662Y-118985683D01*
X95431500Y-118985683D01*
X95431500Y-117267868D01*
X107564708Y-117267868D01*
X107566518Y-117277776D01*
X107608567Y-117422506D01*
X107614221Y-117435572D01*
X107690259Y-117564147D01*
X107698982Y-117575392D01*
X107713998Y-117590408D01*
X107754634Y-117612597D01*
X107800055Y-117658018D01*
X107814000Y-117712653D01*
X107814000Y-120320243D01*
X107817677Y-120332766D01*
X107829813Y-120334606D01*
X107838671Y-120333471D01*
X107847793Y-120331533D01*
X108052716Y-120270052D01*
X108061407Y-120266646D01*
X108253537Y-120172523D01*
X108261545Y-120167749D01*
X108435725Y-120043509D01*
X108442852Y-120037486D01*
X108594398Y-119886466D01*
X108600444Y-119879362D01*
X108725285Y-119705628D01*
X108730100Y-119697614D01*
X108824890Y-119505823D01*
X108828324Y-119497150D01*
X108890522Y-119292432D01*
X108893480Y-119278752D01*
X108894607Y-119278996D01*
X108918397Y-119225228D01*
X108972019Y-119189863D01*
X109036250Y-119189102D01*
X109090695Y-119223188D01*
X109115014Y-119267434D01*
X109131695Y-119325606D01*
X109146572Y-119377489D01*
X109149122Y-119382450D01*
X109149122Y-119382451D01*
X109169415Y-119421936D01*
X109238051Y-119555488D01*
X109362362Y-119712329D01*
X109514769Y-119842038D01*
X109561790Y-119868317D01*
X109684596Y-119936951D01*
X109684598Y-119936952D01*
X109689467Y-119939673D01*
X109694776Y-119941398D01*
X109874498Y-119999794D01*
X109874502Y-119999795D01*
X109879802Y-120001517D01*
X109937190Y-120008360D01*
X110072988Y-120024553D01*
X110072990Y-120024553D01*
X110078525Y-120025213D01*
X110278065Y-120009859D01*
X110283430Y-120008361D01*
X110283436Y-120008360D01*
X110465460Y-119957538D01*
X110465463Y-119957537D01*
X110470824Y-119956040D01*
X110649457Y-119865806D01*
X110807162Y-119742593D01*
X110837053Y-119707964D01*
X110934288Y-119595317D01*
X110934290Y-119595314D01*
X110937931Y-119591096D01*
X110955676Y-119559860D01*
X111034027Y-119421936D01*
X111036784Y-119417083D01*
X111038543Y-119411796D01*
X111038545Y-119411791D01*
X111098196Y-119232472D01*
X111098196Y-119232471D01*
X111099955Y-119227184D01*
X111102590Y-119206330D01*
X111124639Y-119031788D01*
X111125038Y-119028632D01*
X111125233Y-119014671D01*
X111125394Y-119003182D01*
X111125394Y-119003174D01*
X111125438Y-119000000D01*
X111105909Y-118800825D01*
X111104298Y-118795489D01*
X111103215Y-118790017D01*
X111103539Y-118789953D01*
X111102926Y-118787045D01*
X111102920Y-118786802D01*
X111092853Y-118741952D01*
X111065261Y-118619036D01*
X111065193Y-118618733D01*
X111064214Y-118614607D01*
X111064084Y-118614087D01*
X111063120Y-118610401D01*
X111030562Y-118491227D01*
X111021909Y-118459553D01*
X111021894Y-118459499D01*
X111021830Y-118459265D01*
X111020962Y-118456199D01*
X111020844Y-118455796D01*
X111019943Y-118452816D01*
X110978177Y-118319023D01*
X110978134Y-118318888D01*
X110978104Y-118318794D01*
X110977380Y-118316542D01*
X110977294Y-118316274D01*
X110936959Y-118194165D01*
X110936599Y-118193058D01*
X110900311Y-118079315D01*
X110899082Y-118075196D01*
X110890704Y-118045055D01*
X110868223Y-117964179D01*
X110866639Y-117957760D01*
X110841125Y-117839824D01*
X110839764Y-117832333D01*
X110819844Y-117697110D01*
X110819004Y-117689757D01*
X110808255Y-117557874D01*
X110821285Y-117494974D01*
X110866253Y-117449105D01*
X110928882Y-117434828D01*
X110970057Y-117445294D01*
X111053926Y-117484403D01*
X111100236Y-117490500D01*
X111469764Y-117490500D01*
X111516074Y-117484403D01*
X111617711Y-117437009D01*
X111697009Y-117357711D01*
X111701226Y-117348669D01*
X111706616Y-117340970D01*
X111756791Y-117300863D01*
X111820685Y-117294249D01*
X111878011Y-117323229D01*
X111893384Y-117340970D01*
X111898774Y-117348669D01*
X111902991Y-117357711D01*
X111982289Y-117437009D01*
X112083926Y-117484403D01*
X112130236Y-117490500D01*
X112499764Y-117490500D01*
X112546074Y-117484403D01*
X112629571Y-117445468D01*
X112693076Y-117435822D01*
X112751716Y-117462042D01*
X112786872Y-117515803D01*
X112791366Y-117558107D01*
X112789610Y-117579515D01*
X112786430Y-117598468D01*
X112768592Y-117668146D01*
X112760533Y-117690018D01*
X112738980Y-117734022D01*
X112725818Y-117754843D01*
X112698867Y-117788722D01*
X112683702Y-117804427D01*
X112642978Y-117839215D01*
X112630017Y-117848788D01*
X112568472Y-117887835D01*
X112560040Y-117892692D01*
X112476123Y-117936367D01*
X112472577Y-117938135D01*
X112369550Y-117987276D01*
X112368312Y-117987873D01*
X112368172Y-117987941D01*
X112353822Y-117994924D01*
X112254433Y-118043289D01*
X112251353Y-118044825D01*
X112250903Y-118045055D01*
X112247240Y-118046981D01*
X112247047Y-118047085D01*
X112246984Y-118047119D01*
X112139005Y-118105560D01*
X112136108Y-118107128D01*
X112115849Y-118121343D01*
X112103193Y-118129045D01*
X112078508Y-118141950D01*
X112074164Y-118145443D01*
X112074162Y-118145444D01*
X111950163Y-118245143D01*
X111922539Y-118267353D01*
X111793897Y-118420661D01*
X111697484Y-118596037D01*
X111695801Y-118601343D01*
X111695800Y-118601345D01*
X111667053Y-118691965D01*
X111636970Y-118786799D01*
X111614662Y-118985683D01*
X111631408Y-119185111D01*
X111643472Y-119227184D01*
X111671695Y-119325606D01*
X111686572Y-119377489D01*
X111689122Y-119382450D01*
X111689122Y-119382451D01*
X111709415Y-119421936D01*
X111778051Y-119555488D01*
X111902362Y-119712329D01*
X112054769Y-119842038D01*
X112101790Y-119868317D01*
X112224596Y-119936951D01*
X112224598Y-119936952D01*
X112229467Y-119939673D01*
X112234776Y-119941398D01*
X112414498Y-119999794D01*
X112414502Y-119999795D01*
X112419802Y-120001517D01*
X112477190Y-120008360D01*
X112612988Y-120024553D01*
X112612990Y-120024553D01*
X112618525Y-120025213D01*
X112818065Y-120009859D01*
X112823430Y-120008361D01*
X112823436Y-120008360D01*
X113005460Y-119957538D01*
X113005463Y-119957537D01*
X113010824Y-119956040D01*
X113189457Y-119865806D01*
X113347162Y-119742593D01*
X113377053Y-119707964D01*
X113474288Y-119595317D01*
X113474290Y-119595314D01*
X113477931Y-119591096D01*
X113495676Y-119559860D01*
X113574027Y-119421936D01*
X113576784Y-119417083D01*
X113578543Y-119411796D01*
X113578545Y-119411791D01*
X113629338Y-119259100D01*
X113665964Y-119206330D01*
X113725306Y-119181739D01*
X113788522Y-119193134D01*
X113835542Y-119236898D01*
X113848721Y-119270021D01*
X113878673Y-119402930D01*
X113881461Y-119411823D01*
X113961954Y-119610055D01*
X113966157Y-119618377D01*
X114077951Y-119800807D01*
X114083451Y-119808322D01*
X114223538Y-119970043D01*
X114230199Y-119976566D01*
X114394818Y-120113236D01*
X114402453Y-120118581D01*
X114587178Y-120226526D01*
X114595588Y-120230555D01*
X114795452Y-120306875D01*
X114804427Y-120309483D01*
X114909935Y-120330949D01*
X114922652Y-120329867D01*
X114926000Y-120320507D01*
X114926000Y-120320243D01*
X115434000Y-120320243D01*
X115437677Y-120332766D01*
X115449813Y-120334606D01*
X115458671Y-120333471D01*
X115467793Y-120331533D01*
X115672716Y-120270052D01*
X115681407Y-120266646D01*
X115873537Y-120172523D01*
X115881545Y-120167749D01*
X116055725Y-120043509D01*
X116062852Y-120037486D01*
X116214398Y-119886466D01*
X116220444Y-119879362D01*
X116345285Y-119705628D01*
X116350100Y-119697614D01*
X116444890Y-119505823D01*
X116448324Y-119497150D01*
X116510522Y-119292432D01*
X116513480Y-119278752D01*
X116514607Y-119278996D01*
X116538397Y-119225228D01*
X116592019Y-119189863D01*
X116656250Y-119189102D01*
X116710695Y-119223188D01*
X116735014Y-119267434D01*
X116751695Y-119325606D01*
X116766572Y-119377489D01*
X116769122Y-119382450D01*
X116769122Y-119382451D01*
X116789415Y-119421936D01*
X116858051Y-119555488D01*
X116982362Y-119712329D01*
X117134769Y-119842038D01*
X117181790Y-119868317D01*
X117304596Y-119936951D01*
X117304598Y-119936952D01*
X117309467Y-119939673D01*
X117314776Y-119941398D01*
X117494498Y-119999794D01*
X117494502Y-119999795D01*
X117499802Y-120001517D01*
X117557190Y-120008360D01*
X117692988Y-120024553D01*
X117692990Y-120024553D01*
X117698525Y-120025213D01*
X117898065Y-120009859D01*
X117903430Y-120008361D01*
X117903436Y-120008360D01*
X118085460Y-119957538D01*
X118085463Y-119957537D01*
X118090824Y-119956040D01*
X118269457Y-119865806D01*
X118427162Y-119742593D01*
X118457053Y-119707964D01*
X118554288Y-119595317D01*
X118554290Y-119595314D01*
X118557931Y-119591096D01*
X118575676Y-119559860D01*
X118654027Y-119421936D01*
X118656784Y-119417083D01*
X118658543Y-119411796D01*
X118658545Y-119411791D01*
X118718196Y-119232472D01*
X118718196Y-119232471D01*
X118719955Y-119227184D01*
X118722590Y-119206330D01*
X118744639Y-119031788D01*
X118745038Y-119028632D01*
X118745233Y-119014671D01*
X118745394Y-119003182D01*
X118745394Y-119003174D01*
X118745438Y-119000000D01*
X118744034Y-118985683D01*
X119234662Y-118985683D01*
X119251408Y-119185111D01*
X119263472Y-119227184D01*
X119291695Y-119325606D01*
X119306572Y-119377489D01*
X119309122Y-119382450D01*
X119309122Y-119382451D01*
X119329415Y-119421936D01*
X119398051Y-119555488D01*
X119522362Y-119712329D01*
X119674769Y-119842038D01*
X119721790Y-119868317D01*
X119844596Y-119936951D01*
X119844598Y-119936952D01*
X119849467Y-119939673D01*
X119854776Y-119941398D01*
X120034498Y-119999794D01*
X120034502Y-119999795D01*
X120039802Y-120001517D01*
X120097190Y-120008360D01*
X120232988Y-120024553D01*
X120232990Y-120024553D01*
X120238525Y-120025213D01*
X120438065Y-120009859D01*
X120443430Y-120008361D01*
X120443436Y-120008360D01*
X120625460Y-119957538D01*
X120625463Y-119957537D01*
X120630824Y-119956040D01*
X120809457Y-119865806D01*
X120967162Y-119742593D01*
X120997053Y-119707964D01*
X121094288Y-119595317D01*
X121094290Y-119595314D01*
X121097931Y-119591096D01*
X121115676Y-119559860D01*
X121194027Y-119421936D01*
X121196784Y-119417083D01*
X121198543Y-119411796D01*
X121198545Y-119411791D01*
X121258196Y-119232472D01*
X121258196Y-119232471D01*
X121259955Y-119227184D01*
X121262590Y-119206330D01*
X121284639Y-119031788D01*
X121285038Y-119028632D01*
X121285233Y-119014671D01*
X121285394Y-119003182D01*
X121285394Y-119003174D01*
X121285438Y-119000000D01*
X121284034Y-118985683D01*
X121774662Y-118985683D01*
X121791408Y-119185111D01*
X121803472Y-119227184D01*
X121831695Y-119325606D01*
X121846572Y-119377489D01*
X121849122Y-119382450D01*
X121849122Y-119382451D01*
X121869415Y-119421936D01*
X121938051Y-119555488D01*
X122062362Y-119712329D01*
X122214769Y-119842038D01*
X122261790Y-119868317D01*
X122384596Y-119936951D01*
X122384598Y-119936952D01*
X122389467Y-119939673D01*
X122394776Y-119941398D01*
X122574498Y-119999794D01*
X122574502Y-119999795D01*
X122579802Y-120001517D01*
X122637190Y-120008360D01*
X122772988Y-120024553D01*
X122772990Y-120024553D01*
X122778525Y-120025213D01*
X122978065Y-120009859D01*
X122983430Y-120008361D01*
X122983436Y-120008360D01*
X123165460Y-119957538D01*
X123165463Y-119957537D01*
X123170824Y-119956040D01*
X123349457Y-119865806D01*
X123507162Y-119742593D01*
X123537053Y-119707964D01*
X123634288Y-119595317D01*
X123634290Y-119595314D01*
X123637931Y-119591096D01*
X123655676Y-119559860D01*
X123734027Y-119421936D01*
X123736784Y-119417083D01*
X123738543Y-119411796D01*
X123738545Y-119411791D01*
X123798196Y-119232472D01*
X123798196Y-119232471D01*
X123799955Y-119227184D01*
X123802590Y-119206330D01*
X123824639Y-119031788D01*
X123825038Y-119028632D01*
X123825233Y-119014671D01*
X123825394Y-119003182D01*
X123825394Y-119003174D01*
X123825438Y-119000000D01*
X123824034Y-118985683D01*
X124314662Y-118985683D01*
X124331408Y-119185111D01*
X124343472Y-119227184D01*
X124371695Y-119325606D01*
X124386572Y-119377489D01*
X124389122Y-119382450D01*
X124389122Y-119382451D01*
X124409415Y-119421936D01*
X124478051Y-119555488D01*
X124602362Y-119712329D01*
X124754769Y-119842038D01*
X124801790Y-119868317D01*
X124924596Y-119936951D01*
X124924598Y-119936952D01*
X124929467Y-119939673D01*
X124934776Y-119941398D01*
X125114498Y-119999794D01*
X125114502Y-119999795D01*
X125119802Y-120001517D01*
X125177190Y-120008360D01*
X125312988Y-120024553D01*
X125312990Y-120024553D01*
X125318525Y-120025213D01*
X125518065Y-120009859D01*
X125523430Y-120008361D01*
X125523436Y-120008360D01*
X125705460Y-119957538D01*
X125705463Y-119957537D01*
X125710824Y-119956040D01*
X125889457Y-119865806D01*
X126047162Y-119742593D01*
X126077053Y-119707964D01*
X126174288Y-119595317D01*
X126174290Y-119595314D01*
X126177931Y-119591096D01*
X126195676Y-119559860D01*
X126274027Y-119421936D01*
X126276784Y-119417083D01*
X126278543Y-119411796D01*
X126278545Y-119411791D01*
X126329338Y-119259100D01*
X126365964Y-119206330D01*
X126425306Y-119181739D01*
X126488522Y-119193134D01*
X126535542Y-119236898D01*
X126548721Y-119270021D01*
X126578673Y-119402930D01*
X126581461Y-119411823D01*
X126661954Y-119610055D01*
X126666157Y-119618377D01*
X126777951Y-119800807D01*
X126783451Y-119808322D01*
X126923538Y-119970043D01*
X126930199Y-119976566D01*
X127094818Y-120113236D01*
X127102453Y-120118581D01*
X127287178Y-120226526D01*
X127295588Y-120230555D01*
X127495452Y-120306875D01*
X127504427Y-120309483D01*
X127609935Y-120330949D01*
X127622652Y-120329867D01*
X127626000Y-120320507D01*
X127626000Y-120320243D01*
X128134000Y-120320243D01*
X128137677Y-120332766D01*
X128149813Y-120334606D01*
X128158671Y-120333471D01*
X128167793Y-120331533D01*
X128372716Y-120270052D01*
X128381407Y-120266646D01*
X128573537Y-120172523D01*
X128581545Y-120167749D01*
X128755725Y-120043509D01*
X128762852Y-120037486D01*
X128914398Y-119886466D01*
X128920444Y-119879362D01*
X129045285Y-119705628D01*
X129050100Y-119697614D01*
X129144890Y-119505823D01*
X129148324Y-119497150D01*
X129210522Y-119292432D01*
X129213480Y-119278752D01*
X129214607Y-119278996D01*
X129238397Y-119225228D01*
X129292019Y-119189863D01*
X129356250Y-119189102D01*
X129410695Y-119223188D01*
X129435014Y-119267434D01*
X129451695Y-119325606D01*
X129466572Y-119377489D01*
X129469122Y-119382450D01*
X129469122Y-119382451D01*
X129489415Y-119421936D01*
X129558051Y-119555488D01*
X129682362Y-119712329D01*
X129834769Y-119842038D01*
X129881790Y-119868317D01*
X130004596Y-119936951D01*
X130004598Y-119936952D01*
X130009467Y-119939673D01*
X130014776Y-119941398D01*
X130194498Y-119999794D01*
X130194502Y-119999795D01*
X130199802Y-120001517D01*
X130257190Y-120008360D01*
X130392988Y-120024553D01*
X130392990Y-120024553D01*
X130398525Y-120025213D01*
X130598065Y-120009859D01*
X130603430Y-120008361D01*
X130603436Y-120008360D01*
X130785460Y-119957538D01*
X130785463Y-119957537D01*
X130790824Y-119956040D01*
X130969457Y-119865806D01*
X131127162Y-119742593D01*
X131157053Y-119707964D01*
X131254288Y-119595317D01*
X131254290Y-119595314D01*
X131257931Y-119591096D01*
X131275676Y-119559860D01*
X131354027Y-119421936D01*
X131356784Y-119417083D01*
X131358543Y-119411796D01*
X131358545Y-119411791D01*
X131418196Y-119232472D01*
X131418196Y-119232471D01*
X131419955Y-119227184D01*
X131422590Y-119206330D01*
X131444639Y-119031788D01*
X131445038Y-119028632D01*
X131445233Y-119014671D01*
X131445394Y-119003182D01*
X131445394Y-119003174D01*
X131445438Y-119000000D01*
X131444034Y-118985683D01*
X131934662Y-118985683D01*
X131951408Y-119185111D01*
X131963472Y-119227184D01*
X131991695Y-119325606D01*
X132006572Y-119377489D01*
X132009122Y-119382450D01*
X132009122Y-119382451D01*
X132029415Y-119421936D01*
X132098051Y-119555488D01*
X132222362Y-119712329D01*
X132374769Y-119842038D01*
X132421790Y-119868317D01*
X132544596Y-119936951D01*
X132544598Y-119936952D01*
X132549467Y-119939673D01*
X132554776Y-119941398D01*
X132734498Y-119999794D01*
X132734502Y-119999795D01*
X132739802Y-120001517D01*
X132797190Y-120008360D01*
X132932988Y-120024553D01*
X132932990Y-120024553D01*
X132938525Y-120025213D01*
X133138065Y-120009859D01*
X133143430Y-120008361D01*
X133143436Y-120008360D01*
X133325460Y-119957538D01*
X133325463Y-119957537D01*
X133330824Y-119956040D01*
X133509457Y-119865806D01*
X133667162Y-119742593D01*
X133697053Y-119707964D01*
X133794288Y-119595317D01*
X133794290Y-119595314D01*
X133797931Y-119591096D01*
X133815676Y-119559860D01*
X133894027Y-119421936D01*
X133896784Y-119417083D01*
X133898544Y-119411792D01*
X133898545Y-119411790D01*
X133919829Y-119347808D01*
X133956456Y-119295038D01*
X134015797Y-119270447D01*
X134079014Y-119281842D01*
X134126034Y-119325606D01*
X134142001Y-119383792D01*
X134142001Y-119895002D01*
X134142335Y-119901160D01*
X134147976Y-119953098D01*
X134151257Y-119966900D01*
X134196978Y-120088861D01*
X134204697Y-120102958D01*
X134282226Y-120206406D01*
X134293594Y-120217774D01*
X134397042Y-120295303D01*
X134411139Y-120303022D01*
X134533105Y-120348745D01*
X134546896Y-120352024D01*
X134598843Y-120357667D01*
X134604995Y-120358000D01*
X135229611Y-120358000D01*
X135243397Y-120353952D01*
X135244488Y-120352693D01*
X135246000Y-120345742D01*
X135246000Y-120341610D01*
X135754000Y-120341610D01*
X135758048Y-120355396D01*
X135759307Y-120356487D01*
X135766258Y-120357999D01*
X136395002Y-120357999D01*
X136401160Y-120357665D01*
X136453098Y-120352024D01*
X136466900Y-120348743D01*
X136588861Y-120303022D01*
X136602958Y-120295303D01*
X136706406Y-120217774D01*
X136717774Y-120206406D01*
X136795303Y-120102958D01*
X136803022Y-120088861D01*
X136848745Y-119966895D01*
X136852024Y-119953104D01*
X136857667Y-119901157D01*
X136858000Y-119895005D01*
X136858000Y-119270389D01*
X136853952Y-119256603D01*
X136852693Y-119255512D01*
X136845742Y-119254000D01*
X135770389Y-119254000D01*
X135756603Y-119258048D01*
X135755512Y-119259307D01*
X135754000Y-119266258D01*
X135754000Y-120341610D01*
X135246000Y-120341610D01*
X135246000Y-118729611D01*
X135754000Y-118729611D01*
X135758048Y-118743397D01*
X135759307Y-118744488D01*
X135766258Y-118746000D01*
X136841610Y-118746000D01*
X136855396Y-118741952D01*
X136856487Y-118740693D01*
X136857999Y-118733742D01*
X136857999Y-118104998D01*
X136857665Y-118098840D01*
X136852024Y-118046902D01*
X136848743Y-118033100D01*
X136803022Y-117911139D01*
X136795303Y-117897042D01*
X136717774Y-117793594D01*
X136706406Y-117782226D01*
X136602958Y-117704697D01*
X136588861Y-117696978D01*
X136466895Y-117651255D01*
X136453104Y-117647976D01*
X136401157Y-117642333D01*
X136395005Y-117642000D01*
X135770389Y-117642000D01*
X135756603Y-117646048D01*
X135755512Y-117647307D01*
X135754000Y-117654258D01*
X135754000Y-118729611D01*
X135246000Y-118729611D01*
X135246000Y-117658390D01*
X135241952Y-117644604D01*
X135240693Y-117643513D01*
X135233742Y-117642001D01*
X134604998Y-117642001D01*
X134598840Y-117642335D01*
X134546902Y-117647976D01*
X134533100Y-117651257D01*
X134411139Y-117696978D01*
X134397042Y-117704697D01*
X134293594Y-117782226D01*
X134282226Y-117793594D01*
X134204697Y-117897042D01*
X134196978Y-117911139D01*
X134151255Y-118033105D01*
X134147976Y-118046896D01*
X134142333Y-118098843D01*
X134142000Y-118104995D01*
X134142000Y-118612062D01*
X134123903Y-118673695D01*
X134075357Y-118715760D01*
X134011776Y-118724902D01*
X133953346Y-118698217D01*
X133918866Y-118645012D01*
X133908065Y-118609236D01*
X133903871Y-118601347D01*
X133826730Y-118456267D01*
X133814109Y-118432531D01*
X133687621Y-118277441D01*
X133675427Y-118267353D01*
X133537718Y-118153430D01*
X133537716Y-118153429D01*
X133533418Y-118149873D01*
X133424172Y-118090804D01*
X133362278Y-118057338D01*
X133362277Y-118057338D01*
X133357373Y-118054686D01*
X133166193Y-117995506D01*
X133154709Y-117994299D01*
X132972697Y-117975169D01*
X132972696Y-117975169D01*
X132967159Y-117974587D01*
X132767852Y-117992725D01*
X132575864Y-118049230D01*
X132398508Y-118141950D01*
X132388654Y-118149873D01*
X132270163Y-118245143D01*
X132242539Y-118267353D01*
X132113897Y-118420661D01*
X132017484Y-118596037D01*
X132015801Y-118601343D01*
X132015800Y-118601345D01*
X131987053Y-118691965D01*
X131956970Y-118786799D01*
X131934662Y-118985683D01*
X131444034Y-118985683D01*
X131436105Y-118904817D01*
X131426454Y-118806378D01*
X131426453Y-118806373D01*
X131425909Y-118800825D01*
X131421676Y-118786802D01*
X131369678Y-118614578D01*
X131369677Y-118614577D01*
X131368065Y-118609236D01*
X131363871Y-118601347D01*
X131286730Y-118456267D01*
X131274109Y-118432531D01*
X131147621Y-118277441D01*
X131135427Y-118267353D01*
X130997718Y-118153430D01*
X130997716Y-118153429D01*
X130993418Y-118149873D01*
X130884172Y-118090804D01*
X130822278Y-118057338D01*
X130822277Y-118057338D01*
X130817373Y-118054686D01*
X130626193Y-117995506D01*
X130614709Y-117994299D01*
X130432697Y-117975169D01*
X130432696Y-117975169D01*
X130427159Y-117974587D01*
X130227852Y-117992725D01*
X130035864Y-118049230D01*
X129858508Y-118141950D01*
X129848654Y-118149873D01*
X129730163Y-118245143D01*
X129702539Y-118267353D01*
X129573897Y-118420661D01*
X129477484Y-118596037D01*
X129475801Y-118601342D01*
X129475799Y-118601347D01*
X129432197Y-118738798D01*
X129396311Y-118792074D01*
X129337318Y-118817491D01*
X129273949Y-118806980D01*
X129226322Y-118763877D01*
X129212968Y-118732101D01*
X129171095Y-118565400D01*
X129168090Y-118556574D01*
X129082779Y-118360371D01*
X129078370Y-118352147D01*
X128962153Y-118172504D01*
X128956474Y-118165129D01*
X128812469Y-118006870D01*
X128805662Y-118000523D01*
X128637751Y-117867915D01*
X128629984Y-117862755D01*
X128442681Y-117759358D01*
X128434170Y-117755533D01*
X128232495Y-117684116D01*
X128223476Y-117681733D01*
X128150139Y-117668670D01*
X128138108Y-117669990D01*
X128134000Y-117683160D01*
X128134000Y-120320243D01*
X127626000Y-120320243D01*
X127626000Y-117681376D01*
X127622455Y-117669304D01*
X127609537Y-117667506D01*
X127568835Y-117673735D01*
X127559760Y-117675897D01*
X127356396Y-117742366D01*
X127347798Y-117745980D01*
X127158025Y-117844770D01*
X127150134Y-117849739D01*
X126979035Y-117978204D01*
X126972070Y-117984388D01*
X126824251Y-118139072D01*
X126818382Y-118146319D01*
X126697816Y-118323062D01*
X126693209Y-118331172D01*
X126603130Y-118525232D01*
X126599908Y-118533988D01*
X126544934Y-118732218D01*
X126511024Y-118786774D01*
X126453003Y-118814335D01*
X126389291Y-118806153D01*
X126340117Y-118764824D01*
X126325946Y-118734703D01*
X126289678Y-118614578D01*
X126289677Y-118614577D01*
X126288065Y-118609236D01*
X126283871Y-118601347D01*
X126206730Y-118456267D01*
X126194109Y-118432531D01*
X126067621Y-118277441D01*
X126055427Y-118267353D01*
X125917718Y-118153430D01*
X125917716Y-118153429D01*
X125913418Y-118149873D01*
X125804172Y-118090804D01*
X125742278Y-118057338D01*
X125742277Y-118057338D01*
X125737373Y-118054686D01*
X125546193Y-117995506D01*
X125534709Y-117994299D01*
X125352697Y-117975169D01*
X125352696Y-117975169D01*
X125347159Y-117974587D01*
X125147852Y-117992725D01*
X124955864Y-118049230D01*
X124778508Y-118141950D01*
X124768654Y-118149873D01*
X124650163Y-118245143D01*
X124622539Y-118267353D01*
X124493897Y-118420661D01*
X124397484Y-118596037D01*
X124395801Y-118601343D01*
X124395800Y-118601345D01*
X124367053Y-118691965D01*
X124336970Y-118786799D01*
X124314662Y-118985683D01*
X123824034Y-118985683D01*
X123816105Y-118904817D01*
X123806454Y-118806378D01*
X123806453Y-118806373D01*
X123805909Y-118800825D01*
X123801676Y-118786802D01*
X123749678Y-118614578D01*
X123749677Y-118614577D01*
X123748065Y-118609236D01*
X123743871Y-118601347D01*
X123666730Y-118456267D01*
X123654109Y-118432531D01*
X123527621Y-118277441D01*
X123515427Y-118267353D01*
X123377718Y-118153430D01*
X123377716Y-118153429D01*
X123373418Y-118149873D01*
X123264172Y-118090804D01*
X123202278Y-118057338D01*
X123202277Y-118057338D01*
X123197373Y-118054686D01*
X123006193Y-117995506D01*
X122994709Y-117994299D01*
X122812697Y-117975169D01*
X122812696Y-117975169D01*
X122807159Y-117974587D01*
X122607852Y-117992725D01*
X122415864Y-118049230D01*
X122238508Y-118141950D01*
X122228654Y-118149873D01*
X122110163Y-118245143D01*
X122082539Y-118267353D01*
X121953897Y-118420661D01*
X121857484Y-118596037D01*
X121855801Y-118601343D01*
X121855800Y-118601345D01*
X121827053Y-118691965D01*
X121796970Y-118786799D01*
X121774662Y-118985683D01*
X121284034Y-118985683D01*
X121276105Y-118904817D01*
X121266454Y-118806378D01*
X121266453Y-118806373D01*
X121265909Y-118800825D01*
X121261676Y-118786802D01*
X121209678Y-118614578D01*
X121209677Y-118614577D01*
X121208065Y-118609236D01*
X121203871Y-118601347D01*
X121126730Y-118456267D01*
X121114109Y-118432531D01*
X120987621Y-118277441D01*
X120975427Y-118267353D01*
X120837718Y-118153430D01*
X120837716Y-118153429D01*
X120833418Y-118149873D01*
X120724172Y-118090804D01*
X120662278Y-118057338D01*
X120662277Y-118057338D01*
X120657373Y-118054686D01*
X120466193Y-117995506D01*
X120454709Y-117994299D01*
X120272697Y-117975169D01*
X120272696Y-117975169D01*
X120267159Y-117974587D01*
X120067852Y-117992725D01*
X119875864Y-118049230D01*
X119698508Y-118141950D01*
X119688654Y-118149873D01*
X119570163Y-118245143D01*
X119542539Y-118267353D01*
X119413897Y-118420661D01*
X119317484Y-118596037D01*
X119315801Y-118601343D01*
X119315800Y-118601345D01*
X119287053Y-118691965D01*
X119256970Y-118786799D01*
X119234662Y-118985683D01*
X118744034Y-118985683D01*
X118736105Y-118904817D01*
X118726454Y-118806378D01*
X118726453Y-118806373D01*
X118725909Y-118800825D01*
X118721676Y-118786802D01*
X118669678Y-118614578D01*
X118669677Y-118614577D01*
X118668065Y-118609236D01*
X118663871Y-118601347D01*
X118586730Y-118456267D01*
X118574109Y-118432531D01*
X118447621Y-118277441D01*
X118435427Y-118267353D01*
X118297718Y-118153430D01*
X118297716Y-118153429D01*
X118293418Y-118149873D01*
X118184172Y-118090804D01*
X118122278Y-118057338D01*
X118122277Y-118057338D01*
X118117373Y-118054686D01*
X117926193Y-117995506D01*
X117914709Y-117994299D01*
X117732697Y-117975169D01*
X117732696Y-117975169D01*
X117727159Y-117974587D01*
X117527852Y-117992725D01*
X117335864Y-118049230D01*
X117158508Y-118141950D01*
X117148654Y-118149873D01*
X117030163Y-118245143D01*
X117002539Y-118267353D01*
X116873897Y-118420661D01*
X116777484Y-118596037D01*
X116775801Y-118601342D01*
X116775799Y-118601347D01*
X116732197Y-118738798D01*
X116696311Y-118792074D01*
X116637318Y-118817491D01*
X116573949Y-118806980D01*
X116526322Y-118763877D01*
X116512968Y-118732101D01*
X116471095Y-118565400D01*
X116468090Y-118556574D01*
X116382779Y-118360371D01*
X116378370Y-118352147D01*
X116262153Y-118172504D01*
X116256474Y-118165129D01*
X116112469Y-118006870D01*
X116105662Y-118000523D01*
X115937751Y-117867915D01*
X115929984Y-117862755D01*
X115813749Y-117798590D01*
X115768537Y-117752960D01*
X115755172Y-117690131D01*
X115777897Y-117630050D01*
X115788233Y-117618177D01*
X115831018Y-117575392D01*
X115839741Y-117564147D01*
X115915779Y-117435572D01*
X115921433Y-117422506D01*
X115963482Y-117277776D01*
X115965032Y-117269286D01*
X115962385Y-117256687D01*
X115952013Y-117254000D01*
X115450389Y-117254000D01*
X115436603Y-117258048D01*
X115435512Y-117259307D01*
X115434000Y-117266258D01*
X115434000Y-120320243D01*
X114926000Y-120320243D01*
X114926000Y-116860000D01*
X114944097Y-116798367D01*
X114992643Y-116756302D01*
X115040000Y-116746000D01*
X115950150Y-116746000D01*
X115963795Y-116741993D01*
X115991960Y-116685223D01*
X116047086Y-116652249D01*
X116084615Y-116648958D01*
X116100350Y-116650197D01*
X116118010Y-116652994D01*
X116169913Y-116665455D01*
X116222266Y-116678024D01*
X116238467Y-116683569D01*
X116239733Y-116684298D01*
X116284209Y-116699321D01*
X116300049Y-116706043D01*
X116316016Y-116714292D01*
X116333684Y-116725590D01*
X116335561Y-116727050D01*
X116363321Y-116758380D01*
X116367916Y-116766038D01*
X116374420Y-116778580D01*
X116376761Y-116783872D01*
X116385025Y-116802559D01*
X116387868Y-116809616D01*
X116403353Y-116852097D01*
X116403908Y-116853654D01*
X116423285Y-116909305D01*
X116424047Y-116911447D01*
X116424162Y-116911764D01*
X116425130Y-116914367D01*
X116448472Y-116975666D01*
X116450504Y-116980764D01*
X116450783Y-116981433D01*
X116450940Y-116981793D01*
X116452740Y-116985930D01*
X116452768Y-116985994D01*
X116452933Y-116986372D01*
X116479054Y-117043964D01*
X116481698Y-117048341D01*
X116488908Y-117060278D01*
X116496649Y-117075592D01*
X116501669Y-117087711D01*
X116593114Y-117206886D01*
X116599041Y-117211434D01*
X116674436Y-117269286D01*
X116712288Y-117298331D01*
X116756298Y-117316560D01*
X116844167Y-117352957D01*
X116844169Y-117352958D01*
X116851070Y-117355816D01*
X117000000Y-117375423D01*
X117148930Y-117355816D01*
X117155831Y-117352958D01*
X117155833Y-117352957D01*
X117243702Y-117316560D01*
X117287712Y-117298331D01*
X117325565Y-117269286D01*
X117400959Y-117211434D01*
X117406886Y-117206886D01*
X117433328Y-117172426D01*
X117493781Y-117093641D01*
X117493783Y-117093638D01*
X117498331Y-117087711D01*
X117517714Y-117040916D01*
X117552957Y-116955833D01*
X117552958Y-116955831D01*
X117555816Y-116948930D01*
X117575423Y-116800000D01*
X117572604Y-116778585D01*
X117561216Y-116692086D01*
X117571114Y-116628618D01*
X117613754Y-116580576D01*
X117675598Y-116563214D01*
X117734728Y-116580577D01*
X117755781Y-116593755D01*
X117772620Y-116604296D01*
X117783882Y-116612337D01*
X117802084Y-116627079D01*
X117803984Y-116628618D01*
X117809542Y-116633120D01*
X117821787Y-116644633D01*
X117833825Y-116657752D01*
X117844967Y-116672020D01*
X117851900Y-116682522D01*
X117859930Y-116696827D01*
X117864263Y-116706043D01*
X117867722Y-116713402D01*
X117872233Y-116724472D01*
X117882756Y-116754745D01*
X117884639Y-116760679D01*
X117895940Y-116800000D01*
X117898255Y-116808055D01*
X117898434Y-116808687D01*
X117914972Y-116867643D01*
X117915689Y-116870129D01*
X117915799Y-116870500D01*
X117916741Y-116873574D01*
X117916846Y-116873906D01*
X117916852Y-116873925D01*
X117923113Y-116893703D01*
X117937253Y-116938376D01*
X117939013Y-116943643D01*
X117939249Y-116944314D01*
X117941018Y-116949121D01*
X117965260Y-117012110D01*
X117966814Y-117015064D01*
X117984302Y-117048314D01*
X117984251Y-117048341D01*
X117990428Y-117060573D01*
X118001669Y-117087711D01*
X118006217Y-117093638D01*
X118006219Y-117093641D01*
X118066672Y-117172426D01*
X118093114Y-117206886D01*
X118099041Y-117211434D01*
X118174436Y-117269286D01*
X118212288Y-117298331D01*
X118256298Y-117316560D01*
X118344167Y-117352957D01*
X118344169Y-117352958D01*
X118351070Y-117355816D01*
X118500000Y-117375423D01*
X118648930Y-117355816D01*
X118655831Y-117352958D01*
X118655833Y-117352957D01*
X118743702Y-117316560D01*
X118787712Y-117298331D01*
X118825565Y-117269286D01*
X118900959Y-117211434D01*
X118906886Y-117206886D01*
X118933328Y-117172426D01*
X118993781Y-117093641D01*
X118993783Y-117093638D01*
X118998331Y-117087711D01*
X119017714Y-117040916D01*
X119052957Y-116955833D01*
X119052958Y-116955831D01*
X119055816Y-116948930D01*
X119075423Y-116800000D01*
X119061445Y-116693823D01*
X137194391Y-116693823D01*
X137195443Y-116701868D01*
X137195443Y-116701870D01*
X137200943Y-116743926D01*
X137212980Y-116835979D01*
X137225201Y-116863753D01*
X137262764Y-116949121D01*
X137270720Y-116967203D01*
X137275948Y-116973423D01*
X137275949Y-116973424D01*
X137288852Y-116988774D01*
X137362970Y-117076948D01*
X137482313Y-117156390D01*
X137490064Y-117158811D01*
X137490067Y-117158813D01*
X137533642Y-117172426D01*
X137619157Y-117199142D01*
X137627273Y-117199291D01*
X137627274Y-117199291D01*
X137701941Y-117200660D01*
X137762499Y-117201770D01*
X137772139Y-117199142D01*
X137792405Y-117193617D01*
X137900817Y-117164060D01*
X137920640Y-117151889D01*
X137940106Y-117139937D01*
X138022991Y-117089045D01*
X138119200Y-116982754D01*
X138173424Y-116870836D01*
X138178170Y-116861040D01*
X138178170Y-116861039D01*
X138181710Y-116853733D01*
X138205496Y-116712354D01*
X138205647Y-116700000D01*
X138205022Y-116695635D01*
X138186475Y-116566123D01*
X138186474Y-116566120D01*
X138185323Y-116558082D01*
X138151087Y-116482784D01*
X138129345Y-116434963D01*
X138129343Y-116434960D01*
X138125984Y-116427572D01*
X138032400Y-116318963D01*
X137961184Y-116272803D01*
X137918909Y-116245401D01*
X137918906Y-116245399D01*
X137912095Y-116240985D01*
X137799754Y-116207388D01*
X137782524Y-116202235D01*
X137782523Y-116202235D01*
X137774739Y-116199907D01*
X137766618Y-116199857D01*
X137766615Y-116199857D01*
X137705146Y-116199482D01*
X137631376Y-116199031D01*
X137493529Y-116238428D01*
X137468706Y-116254090D01*
X137379148Y-116310596D01*
X137379145Y-116310598D01*
X137372280Y-116314930D01*
X137366905Y-116321016D01*
X137366904Y-116321017D01*
X137282753Y-116416300D01*
X137282751Y-116416303D01*
X137277377Y-116422388D01*
X137216447Y-116552163D01*
X137194391Y-116693823D01*
X119061445Y-116693823D01*
X119055816Y-116651070D01*
X119039773Y-116612337D01*
X119001192Y-116519196D01*
X118998331Y-116512289D01*
X118975972Y-116483149D01*
X118911434Y-116399041D01*
X118906886Y-116393114D01*
X118842853Y-116343980D01*
X118793642Y-116306219D01*
X118793639Y-116306217D01*
X118787712Y-116301669D01*
X118718023Y-116272803D01*
X118655831Y-116247042D01*
X118655828Y-116247041D01*
X118648930Y-116244184D01*
X118642660Y-116243358D01*
X118642189Y-116243212D01*
X118638715Y-116241588D01*
X118602292Y-116232634D01*
X118564791Y-116223415D01*
X118564729Y-116223400D01*
X118564525Y-116223350D01*
X118564290Y-116223295D01*
X118564265Y-116223289D01*
X118561134Y-116222556D01*
X118561105Y-116222549D01*
X118560736Y-116222463D01*
X118560228Y-116222350D01*
X118555939Y-116221452D01*
X118484137Y-116207352D01*
X118483961Y-116207319D01*
X118483903Y-116207308D01*
X118481218Y-116206807D01*
X118481150Y-116206795D01*
X118480938Y-116206755D01*
X118480800Y-116206731D01*
X118480715Y-116206715D01*
X118480650Y-116206704D01*
X118480526Y-116206682D01*
X118478509Y-116206342D01*
X118477875Y-116206235D01*
X118477851Y-116206231D01*
X118477554Y-116206181D01*
X118438225Y-116199907D01*
X118413303Y-116195931D01*
X118413227Y-116195919D01*
X118413163Y-116195909D01*
X118413062Y-116195894D01*
X118412942Y-116195875D01*
X118410886Y-116195562D01*
X118410849Y-116195556D01*
X118410701Y-116195534D01*
X118353140Y-116187188D01*
X118351422Y-116186925D01*
X118302659Y-116179090D01*
X118297558Y-116178151D01*
X118255619Y-116169439D01*
X118248146Y-116167621D01*
X118207102Y-116156155D01*
X118198847Y-116153507D01*
X118152128Y-116136530D01*
X118144464Y-116133426D01*
X118115167Y-116120304D01*
X118086767Y-116107584D01*
X118080400Y-116104490D01*
X118071847Y-116100000D01*
X118011748Y-116068453D01*
X118006563Y-116066885D01*
X118001561Y-116064838D01*
X118001767Y-116064334D01*
X117984000Y-116056468D01*
X117954742Y-116038931D01*
X117954740Y-116038930D01*
X117952346Y-116037495D01*
X117787997Y-115959763D01*
X117671739Y-115904777D01*
X117671738Y-115904777D01*
X117669225Y-115903588D01*
X117374342Y-115798076D01*
X117070537Y-115721975D01*
X117067777Y-115721566D01*
X117067774Y-115721565D01*
X116763509Y-115676430D01*
X116763499Y-115676429D01*
X116760735Y-115676019D01*
X116471930Y-115661829D01*
X116460696Y-115661277D01*
X116452269Y-115660863D01*
X116447921Y-115660096D01*
X116438098Y-115661828D01*
X116438095Y-115661828D01*
X116432765Y-115662768D01*
X116412971Y-115664500D01*
X112369949Y-115664500D01*
X112350154Y-115662768D01*
X112344823Y-115661828D01*
X112335000Y-115660096D01*
X112332193Y-115660591D01*
X112321873Y-115661403D01*
X112321872Y-115661403D01*
X112220137Y-115669410D01*
X112125436Y-115676863D01*
X112047245Y-115695635D01*
X111925388Y-115724890D01*
X111925385Y-115724891D01*
X111921032Y-115725936D01*
X111726821Y-115806381D01*
X111547585Y-115916217D01*
X111387739Y-116052739D01*
X111251217Y-116212585D01*
X111248875Y-116216407D01*
X111220802Y-116262216D01*
X111205704Y-116281741D01*
X111198085Y-116289650D01*
X111195066Y-116294356D01*
X111163480Y-116343592D01*
X111162999Y-116344335D01*
X111128576Y-116397000D01*
X111128057Y-116397785D01*
X111098106Y-116442672D01*
X111097497Y-116443576D01*
X111083901Y-116463532D01*
X111070784Y-116482784D01*
X111070334Y-116483439D01*
X111062780Y-116494332D01*
X111017284Y-116532683D01*
X110952289Y-116562991D01*
X110880610Y-116634670D01*
X110824232Y-116665455D01*
X110760161Y-116660872D01*
X110719390Y-116634670D01*
X110647711Y-116562991D01*
X110546074Y-116515597D01*
X110499764Y-116509500D01*
X110130236Y-116509500D01*
X110083926Y-116515597D01*
X110082862Y-116516093D01*
X110059001Y-116519500D01*
X109275498Y-116519500D01*
X109275495Y-116519501D01*
X109124235Y-116519501D01*
X109062602Y-116501404D01*
X109026110Y-116463532D01*
X109009741Y-116435853D01*
X109001017Y-116424607D01*
X108895392Y-116318982D01*
X108884147Y-116310259D01*
X108755572Y-116234221D01*
X108742506Y-116228567D01*
X108619743Y-116192901D01*
X108606981Y-116192937D01*
X108604000Y-116199514D01*
X108604000Y-117140000D01*
X108585903Y-117201633D01*
X108537357Y-117243698D01*
X108490000Y-117254000D01*
X107579850Y-117254000D01*
X107566465Y-117257930D01*
X107564708Y-117267868D01*
X95431500Y-117267868D01*
X95431500Y-116730714D01*
X107564968Y-116730714D01*
X107567615Y-116743313D01*
X107577987Y-116746000D01*
X108079611Y-116746000D01*
X108093397Y-116741952D01*
X108094488Y-116740693D01*
X108096000Y-116733742D01*
X108096000Y-116204716D01*
X108092406Y-116192476D01*
X108085257Y-116191448D01*
X107957494Y-116228567D01*
X107944428Y-116234221D01*
X107815853Y-116310259D01*
X107804608Y-116318982D01*
X107698982Y-116424608D01*
X107690259Y-116435853D01*
X107614221Y-116564428D01*
X107608567Y-116577494D01*
X107566518Y-116722224D01*
X107564968Y-116730714D01*
X95431500Y-116730714D01*
X95431500Y-116133825D01*
X95434444Y-116108085D01*
X95434709Y-116106942D01*
X95434709Y-116106939D01*
X95436167Y-116100650D01*
X95436168Y-116100000D01*
X95434735Y-116093718D01*
X95434333Y-116090123D01*
X95433978Y-116068509D01*
X95441302Y-115975447D01*
X95447030Y-115902678D01*
X95449828Y-115885013D01*
X95455584Y-115861040D01*
X95487608Y-115727651D01*
X95493938Y-115701284D01*
X95496362Y-115693823D01*
X95994391Y-115693823D01*
X95995443Y-115701868D01*
X95995443Y-115701870D01*
X96007934Y-115797394D01*
X96012980Y-115835979D01*
X96016252Y-115843415D01*
X96049566Y-115919126D01*
X96070720Y-115967203D01*
X96162970Y-116076948D01*
X96282313Y-116156390D01*
X96290064Y-116158811D01*
X96290067Y-116158813D01*
X96351967Y-116178151D01*
X96419157Y-116199142D01*
X96427273Y-116199291D01*
X96427274Y-116199291D01*
X96501941Y-116200660D01*
X96562499Y-116201770D01*
X96572139Y-116199142D01*
X96615981Y-116187189D01*
X96700817Y-116164060D01*
X96720640Y-116151889D01*
X96771297Y-116120785D01*
X96822991Y-116089045D01*
X96919200Y-115982754D01*
X96957556Y-115903588D01*
X96978170Y-115861040D01*
X96978170Y-115861039D01*
X96981710Y-115853733D01*
X97005496Y-115712354D01*
X97005647Y-115700000D01*
X97005022Y-115695635D01*
X96986475Y-115566123D01*
X96986474Y-115566120D01*
X96985323Y-115558082D01*
X96956081Y-115493767D01*
X96929345Y-115434963D01*
X96929343Y-115434960D01*
X96925984Y-115427572D01*
X96832400Y-115318963D01*
X96793132Y-115293511D01*
X96718909Y-115245401D01*
X96718906Y-115245399D01*
X96712095Y-115240985D01*
X96630964Y-115216722D01*
X96582524Y-115202235D01*
X96582523Y-115202235D01*
X96574739Y-115199907D01*
X96566618Y-115199857D01*
X96566615Y-115199857D01*
X96505146Y-115199482D01*
X96431376Y-115199031D01*
X96293529Y-115238428D01*
X96254750Y-115262895D01*
X96179148Y-115310596D01*
X96179145Y-115310598D01*
X96172280Y-115314930D01*
X96166905Y-115321016D01*
X96166904Y-115321017D01*
X96082753Y-115416300D01*
X96082751Y-115416303D01*
X96077377Y-115422388D01*
X96016447Y-115552163D01*
X95994391Y-115693823D01*
X95496362Y-115693823D01*
X95499466Y-115684271D01*
X95571774Y-115509705D01*
X95579895Y-115493767D01*
X95678624Y-115332654D01*
X95689139Y-115318181D01*
X95692244Y-115314546D01*
X95811856Y-115174499D01*
X95824499Y-115161856D01*
X95968183Y-115039137D01*
X95982654Y-115028624D01*
X96143767Y-114929895D01*
X96159705Y-114921774D01*
X96334271Y-114849466D01*
X96351284Y-114843938D01*
X96454615Y-114819130D01*
X96521178Y-114803150D01*
X96547790Y-114800000D01*
X136483511Y-114800000D01*
X136505751Y-114802190D01*
G37*
%TD.AperFunction*%
%TD*%
%TA.AperFunction,Conductor*%
%TO.N,Net-(C2-Pad1)*%
G36*
X110621855Y-117324372D02*
G01*
X110625279Y-117332359D01*
X110630196Y-117533622D01*
X110630209Y-117533786D01*
X110630210Y-117533798D01*
X110638933Y-117640813D01*
X110644848Y-117713390D01*
X110667547Y-117867472D01*
X110667590Y-117867670D01*
X110667592Y-117867682D01*
X110689557Y-117969215D01*
X110696885Y-118003087D01*
X110731455Y-118127457D01*
X110769850Y-118247805D01*
X110799245Y-118336792D01*
X110810650Y-118371320D01*
X110810708Y-118371504D01*
X110852416Y-118505113D01*
X110852534Y-118505516D01*
X110893824Y-118656652D01*
X110893954Y-118657172D01*
X110931681Y-118825241D01*
X110930149Y-118834064D01*
X110926393Y-118837770D01*
X110505557Y-119096484D01*
X110003678Y-119405019D01*
X109994836Y-119406433D01*
X109987352Y-119400785D01*
X109668779Y-118834064D01*
X109456562Y-118456542D01*
X109455495Y-118447653D01*
X109457966Y-118443095D01*
X109551229Y-118336792D01*
X109551371Y-118336633D01*
X109641598Y-118237493D01*
X109641642Y-118237445D01*
X109723068Y-118146506D01*
X109795121Y-118058866D01*
X109795243Y-118058691D01*
X109795252Y-118058679D01*
X109857162Y-117969764D01*
X109857165Y-117969759D01*
X109857344Y-117969502D01*
X109909280Y-117873388D01*
X109950471Y-117765500D01*
X109980460Y-117640813D01*
X109998788Y-117494303D01*
X110004596Y-117332226D01*
X110008316Y-117324081D01*
X110016288Y-117320945D01*
X110613582Y-117320945D01*
X110621855Y-117324372D01*
G37*
%TD.AperFunction*%
%TD*%
%TA.AperFunction,Conductor*%
%TO.N,+3V3*%
G36*
X111361931Y-116380860D02*
G01*
X111536796Y-116492122D01*
X111541936Y-116499454D01*
X111540713Y-116507727D01*
X111518385Y-116547429D01*
X111500650Y-116591922D01*
X111491656Y-116632693D01*
X111490123Y-116670885D01*
X111494770Y-116707639D01*
X111494867Y-116708009D01*
X111502182Y-116735944D01*
X111504317Y-116744099D01*
X111517483Y-116781408D01*
X111517515Y-116781489D01*
X111532988Y-116820707D01*
X111532980Y-116820710D01*
X111533003Y-116820745D01*
X111538764Y-116835506D01*
X111549470Y-116862938D01*
X111549615Y-116863329D01*
X111563122Y-116901945D01*
X111562619Y-116910886D01*
X111559293Y-116915019D01*
X111273926Y-117138544D01*
X111265300Y-117140948D01*
X111257225Y-117136182D01*
X111044910Y-116842140D01*
X111042845Y-116833427D01*
X111044708Y-116828731D01*
X111076299Y-116782078D01*
X111076349Y-116782006D01*
X111108004Y-116736004D01*
X111108044Y-116735944D01*
X111136488Y-116695148D01*
X111136498Y-116695155D01*
X111136510Y-116695116D01*
X111153192Y-116671358D01*
X111162959Y-116657447D01*
X111188740Y-116620669D01*
X111215110Y-116582641D01*
X111238851Y-116547797D01*
X111243350Y-116541193D01*
X111243363Y-116541173D01*
X111274740Y-116494151D01*
X111274757Y-116494125D01*
X111310562Y-116439345D01*
X111345802Y-116384413D01*
X111353154Y-116379300D01*
X111361931Y-116380860D01*
G37*
%TD.AperFunction*%
%TD*%
%TA.AperFunction,Conductor*%
%TO.N,+1V8*%
G36*
X112506083Y-116403057D02*
G01*
X112632304Y-116567241D01*
X112634629Y-116575889D01*
X112630828Y-116583091D01*
X112602285Y-116608616D01*
X112577071Y-116641219D01*
X112561748Y-116673979D01*
X112554782Y-116707215D01*
X112554639Y-116741244D01*
X112559788Y-116776386D01*
X112568694Y-116812958D01*
X112568727Y-116813073D01*
X112568729Y-116813079D01*
X112579824Y-116851279D01*
X112591586Y-116891467D01*
X112591690Y-116891844D01*
X112600538Y-116926317D01*
X112599275Y-116935183D01*
X112595597Y-116939025D01*
X112293895Y-117135838D01*
X112285094Y-117137488D01*
X112277704Y-117132431D01*
X112276596Y-117130274D01*
X112138262Y-116774006D01*
X112138462Y-116765053D01*
X112141724Y-116760745D01*
X112181575Y-116727875D01*
X112181578Y-116727872D01*
X112181736Y-116727742D01*
X112203198Y-116707215D01*
X112219302Y-116691813D01*
X112219311Y-116691804D01*
X112219454Y-116691667D01*
X112250814Y-116657128D01*
X112278274Y-116623351D01*
X112278314Y-116623299D01*
X112278338Y-116623269D01*
X112304236Y-116589637D01*
X112304290Y-116589567D01*
X112331183Y-116555179D01*
X112331460Y-116554838D01*
X112361604Y-116519147D01*
X112362051Y-116518647D01*
X112397996Y-116480722D01*
X112398535Y-116480189D01*
X112442809Y-116439161D01*
X112443367Y-116438676D01*
X112489413Y-116401121D01*
X112497989Y-116398548D01*
X112506083Y-116403057D01*
G37*
%TD.AperFunction*%
%TD*%
M02*
