%TF.GenerationSoftware,KiCad,Pcbnew,6.0.10-1.fc37*%
%TF.CreationDate,2023-01-04T15:53:12-05:00*%
%TF.ProjectId,ext-con-breakout-board,6578742d-636f-46e2-9d62-7265616b6f75,v0.5*%
%TF.SameCoordinates,Original*%
%TF.FileFunction,Legend,Top*%
%TF.FilePolarity,Positive*%
%FSLAX46Y46*%
G04 Gerber Fmt 4.6, Leading zero omitted, Abs format (unit mm)*
G04 Created by KiCad (PCBNEW 6.0.10-1.fc37) date 2023-01-04 15:53:12*
%MOMM*%
%LPD*%
G01*
G04 APERTURE LIST*
%ADD10C,0.200000*%
%ADD11C,0.120000*%
G04 APERTURE END LIST*
D10*
X97019339Y-116603553D02*
X96918324Y-116637225D01*
X96817309Y-116738240D01*
X96749965Y-116872927D01*
X96749965Y-117007614D01*
X96783637Y-117108629D01*
X96884652Y-117276988D01*
X96985668Y-117378003D01*
X97154026Y-117479018D01*
X97255042Y-117512690D01*
X97389729Y-117512690D01*
X97524416Y-117445347D01*
X97591759Y-117378003D01*
X97659103Y-117243316D01*
X97659103Y-117175973D01*
X97423400Y-116940270D01*
X97288713Y-117074957D01*
X98029492Y-116940270D02*
X97322385Y-116233164D01*
X97591759Y-115963790D01*
X97692774Y-115930118D01*
X97760118Y-115930118D01*
X97861133Y-115963790D01*
X97962148Y-116064805D01*
X97995820Y-116165820D01*
X97995820Y-116233164D01*
X97962148Y-116334179D01*
X97692774Y-116603553D01*
X98736599Y-116233164D02*
X98029492Y-115526057D01*
X98500896Y-115054652D02*
X98635583Y-114919965D01*
X98736599Y-114886294D01*
X98871286Y-114886294D01*
X99039644Y-114987309D01*
X99275347Y-115223011D01*
X99376362Y-115391370D01*
X99376362Y-115526057D01*
X99342690Y-115627072D01*
X99208003Y-115761759D01*
X99106988Y-115795431D01*
X98972301Y-115795431D01*
X98803942Y-115694416D01*
X98568240Y-115458713D01*
X98467225Y-115290355D01*
X98467225Y-115155668D01*
X98500896Y-115054652D01*
X103661904Y-115202380D02*
X104280952Y-115202380D01*
X103947619Y-115583333D01*
X104090476Y-115583333D01*
X104185714Y-115630952D01*
X104233333Y-115678571D01*
X104280952Y-115773809D01*
X104280952Y-116011904D01*
X104233333Y-116107142D01*
X104185714Y-116154761D01*
X104090476Y-116202380D01*
X103804761Y-116202380D01*
X103709523Y-116154761D01*
X103661904Y-116107142D01*
X104566666Y-115202380D02*
X104900000Y-116202380D01*
X105233333Y-115202380D01*
X105471428Y-115202380D02*
X106090476Y-115202380D01*
X105757142Y-115583333D01*
X105900000Y-115583333D01*
X105995238Y-115630952D01*
X106042857Y-115678571D01*
X106090476Y-115773809D01*
X106090476Y-116011904D01*
X106042857Y-116107142D01*
X105995238Y-116154761D01*
X105900000Y-116202380D01*
X105614285Y-116202380D01*
X105519047Y-116154761D01*
X105471428Y-116107142D01*
X92427580Y-117394839D02*
X92562267Y-117327496D01*
X92730625Y-117159137D01*
X92764297Y-117058122D01*
X92764297Y-116990778D01*
X92730625Y-116889763D01*
X92663282Y-116822419D01*
X92562267Y-116788748D01*
X92494923Y-116788748D01*
X92393908Y-116822419D01*
X92225549Y-116923435D01*
X92124534Y-116957106D01*
X92057190Y-116957106D01*
X91956175Y-116923435D01*
X91888832Y-116856091D01*
X91855160Y-116755076D01*
X91855160Y-116687732D01*
X91888832Y-116586717D01*
X92057190Y-116418358D01*
X92191877Y-116351015D01*
X93168358Y-116721404D02*
X92461251Y-116014297D01*
X92629610Y-115845938D01*
X92764297Y-115778595D01*
X92898984Y-115778595D01*
X93000000Y-115812267D01*
X93168358Y-115913282D01*
X93269374Y-116014297D01*
X93370389Y-116182656D01*
X93404061Y-116283671D01*
X93404061Y-116418358D01*
X93336717Y-116553045D01*
X93168358Y-116721404D01*
X93639763Y-115845938D02*
X93976480Y-115509221D01*
X93774450Y-116115312D02*
X93303045Y-115172503D01*
X94245854Y-115643908D01*
X99189339Y-116603553D02*
X99088324Y-116637225D01*
X98987309Y-116738240D01*
X98919965Y-116872927D01*
X98919965Y-117007614D01*
X98953637Y-117108629D01*
X99054652Y-117276988D01*
X99155668Y-117378003D01*
X99324026Y-117479018D01*
X99425042Y-117512690D01*
X99559729Y-117512690D01*
X99694416Y-117445347D01*
X99761759Y-117378003D01*
X99829103Y-117243316D01*
X99829103Y-117175973D01*
X99593400Y-116940270D01*
X99458713Y-117074957D01*
X100199492Y-116940270D02*
X99492385Y-116233164D01*
X99761759Y-115963790D01*
X99862774Y-115930118D01*
X99930118Y-115930118D01*
X100031133Y-115963790D01*
X100132148Y-116064805D01*
X100165820Y-116165820D01*
X100165820Y-116233164D01*
X100132148Y-116334179D01*
X99862774Y-116603553D01*
X100906599Y-116233164D02*
X100199492Y-115526057D01*
X100670896Y-115054652D02*
X100805583Y-114919965D01*
X100906599Y-114886294D01*
X101041286Y-114886294D01*
X101209644Y-114987309D01*
X101445347Y-115223011D01*
X101546362Y-115391370D01*
X101546362Y-115526057D01*
X101512690Y-115627072D01*
X101378003Y-115761759D01*
X101276988Y-115795431D01*
X101142301Y-115795431D01*
X100973942Y-115694416D01*
X100738240Y-115458713D01*
X100637225Y-115290355D01*
X100637225Y-115155668D01*
X100670896Y-115054652D01*
X101950000Y-116911904D02*
X101902380Y-117007142D01*
X101902380Y-117150000D01*
X101950000Y-117292857D01*
X102045238Y-117388095D01*
X102140476Y-117435714D01*
X102330952Y-117483333D01*
X102473809Y-117483333D01*
X102664285Y-117435714D01*
X102759523Y-117388095D01*
X102854761Y-117292857D01*
X102902380Y-117150000D01*
X102902380Y-117054761D01*
X102854761Y-116911904D01*
X102807142Y-116864285D01*
X102473809Y-116864285D01*
X102473809Y-117054761D01*
X102902380Y-116435714D02*
X101902380Y-116435714D01*
X102902380Y-115864285D01*
X101902380Y-115864285D01*
X102902380Y-115388095D02*
X101902380Y-115388095D01*
X101902380Y-115150000D01*
X101950000Y-115007142D01*
X102045238Y-114911904D01*
X102140476Y-114864285D01*
X102330952Y-114816666D01*
X102473809Y-114816666D01*
X102664285Y-114864285D01*
X102759523Y-114911904D01*
X102854761Y-115007142D01*
X102902380Y-115150000D01*
X102902380Y-115388095D01*
X128762030Y-116687732D02*
X128189610Y-116586717D01*
X128357969Y-117091793D02*
X127650862Y-116384687D01*
X127920236Y-116115312D01*
X128021251Y-116081641D01*
X128088595Y-116081641D01*
X128189610Y-116115312D01*
X128290625Y-116216328D01*
X128324297Y-116317343D01*
X128324297Y-116384687D01*
X128290625Y-116485702D01*
X128021251Y-116755076D01*
X128290625Y-115744923D02*
X129469137Y-115980625D01*
X128762030Y-115273519D02*
X128997732Y-116452030D01*
X115068713Y-117681049D02*
X114361607Y-116973942D01*
X115102385Y-117243316D01*
X114833011Y-116502538D01*
X115540118Y-117209644D01*
X115304416Y-116031133D02*
X115439103Y-115896446D01*
X115540118Y-115862774D01*
X115674805Y-115862774D01*
X115843164Y-115963790D01*
X116078866Y-116199492D01*
X116179881Y-116367851D01*
X116179881Y-116502538D01*
X116146209Y-116603553D01*
X116011522Y-116738240D01*
X115910507Y-116771912D01*
X115775820Y-116771912D01*
X115607461Y-116670896D01*
X115371759Y-116435194D01*
X115270744Y-116266835D01*
X115270744Y-116132148D01*
X115304416Y-116031133D01*
X116550270Y-116132148D02*
X116684957Y-116064805D01*
X116853316Y-115896446D01*
X116886988Y-115795431D01*
X116886988Y-115728087D01*
X116853316Y-115627072D01*
X116785973Y-115559729D01*
X116684957Y-115526057D01*
X116617614Y-115526057D01*
X116516599Y-115559729D01*
X116348240Y-115660744D01*
X116247225Y-115694416D01*
X116179881Y-115694416D01*
X116078866Y-115660744D01*
X116011522Y-115593400D01*
X115977851Y-115492385D01*
X115977851Y-115425042D01*
X116011522Y-115324026D01*
X116179881Y-115155668D01*
X116314568Y-115088324D01*
X117291049Y-115458713D02*
X116583942Y-114751607D01*
X111928571Y-116002380D02*
X111928571Y-115002380D01*
X112261904Y-115716666D01*
X112595238Y-115002380D01*
X112595238Y-116002380D01*
X113071428Y-116002380D02*
X113071428Y-115002380D01*
X113500000Y-115954761D02*
X113642857Y-116002380D01*
X113880952Y-116002380D01*
X113976190Y-115954761D01*
X114023809Y-115907142D01*
X114071428Y-115811904D01*
X114071428Y-115716666D01*
X114023809Y-115621428D01*
X113976190Y-115573809D01*
X113880952Y-115526190D01*
X113690476Y-115478571D01*
X113595238Y-115430952D01*
X113547619Y-115383333D01*
X113500000Y-115288095D01*
X113500000Y-115192857D01*
X113547619Y-115097619D01*
X113595238Y-115050000D01*
X113690476Y-115002380D01*
X113928571Y-115002380D01*
X114071428Y-115050000D01*
X114690476Y-115002380D02*
X114880952Y-115002380D01*
X114976190Y-115050000D01*
X115071428Y-115145238D01*
X115119047Y-115335714D01*
X115119047Y-115669047D01*
X115071428Y-115859523D01*
X114976190Y-115954761D01*
X114880952Y-116002380D01*
X114690476Y-116002380D01*
X114595238Y-115954761D01*
X114500000Y-115859523D01*
X114452380Y-115669047D01*
X114452380Y-115335714D01*
X114500000Y-115145238D01*
X114595238Y-115050000D01*
X114690476Y-115002380D01*
X120350744Y-117411675D02*
X120485431Y-117344331D01*
X120653790Y-117175973D01*
X120687461Y-117074957D01*
X120687461Y-117007614D01*
X120653790Y-116906599D01*
X120586446Y-116839255D01*
X120485431Y-116805583D01*
X120418087Y-116805583D01*
X120317072Y-116839255D01*
X120148713Y-116940270D01*
X120047698Y-116973942D01*
X119980355Y-116973942D01*
X119879339Y-116940270D01*
X119811996Y-116872927D01*
X119778324Y-116771912D01*
X119778324Y-116704568D01*
X119811996Y-116603553D01*
X119980355Y-116435194D01*
X120115042Y-116367851D01*
X121024179Y-116738240D02*
X121158866Y-116670896D01*
X121327225Y-116502538D01*
X121360896Y-116401522D01*
X121360896Y-116334179D01*
X121327225Y-116233164D01*
X121259881Y-116165820D01*
X121158866Y-116132148D01*
X121091522Y-116132148D01*
X120990507Y-116165820D01*
X120822148Y-116266835D01*
X120721133Y-116300507D01*
X120653790Y-116300507D01*
X120552774Y-116266835D01*
X120485431Y-116199492D01*
X120451759Y-116098477D01*
X120451759Y-116031133D01*
X120485431Y-115930118D01*
X120653790Y-115761759D01*
X120788477Y-115694416D01*
X122135347Y-115694416D02*
X121731286Y-116098477D01*
X121933316Y-115896446D02*
X121226209Y-115189339D01*
X121259881Y-115357698D01*
X121259881Y-115492385D01*
X121226209Y-115593400D01*
X94984416Y-117378003D02*
X95119103Y-117310660D01*
X95287461Y-117142301D01*
X95321133Y-117041286D01*
X95321133Y-116973942D01*
X95287461Y-116872927D01*
X95220118Y-116805583D01*
X95119103Y-116771912D01*
X95051759Y-116771912D01*
X94950744Y-116805583D01*
X94782385Y-116906599D01*
X94681370Y-116940270D01*
X94614026Y-116940270D01*
X94513011Y-116906599D01*
X94445668Y-116839255D01*
X94411996Y-116738240D01*
X94411996Y-116670896D01*
X94445668Y-116569881D01*
X94614026Y-116401522D01*
X94748713Y-116334179D01*
X96061912Y-116233164D02*
X96061912Y-116300507D01*
X95994568Y-116435194D01*
X95927225Y-116502538D01*
X95792538Y-116569881D01*
X95657851Y-116569881D01*
X95556835Y-116536209D01*
X95388477Y-116435194D01*
X95287461Y-116334179D01*
X95186446Y-116165820D01*
X95152774Y-116064805D01*
X95152774Y-115930118D01*
X95220118Y-115795431D01*
X95287461Y-115728087D01*
X95422148Y-115660744D01*
X95489492Y-115660744D01*
X96769018Y-115660744D02*
X96432301Y-115997461D01*
X95725194Y-115290355D01*
X117777072Y-117445347D02*
X117911759Y-117378003D01*
X118080118Y-117209644D01*
X118113790Y-117108629D01*
X118113790Y-117041286D01*
X118080118Y-116940270D01*
X118012774Y-116872927D01*
X117911759Y-116839255D01*
X117844416Y-116839255D01*
X117743400Y-116872927D01*
X117575042Y-116973942D01*
X117474026Y-117007614D01*
X117406683Y-117007614D01*
X117305668Y-116973942D01*
X117238324Y-116906599D01*
X117204652Y-116805583D01*
X117204652Y-116738240D01*
X117238324Y-116637225D01*
X117406683Y-116468866D01*
X117541370Y-116401522D01*
X118854568Y-116300507D02*
X118854568Y-116367851D01*
X118787225Y-116502538D01*
X118719881Y-116569881D01*
X118585194Y-116637225D01*
X118450507Y-116637225D01*
X118349492Y-116603553D01*
X118181133Y-116502538D01*
X118080118Y-116401522D01*
X117979103Y-116233164D01*
X117945431Y-116132148D01*
X117945431Y-115997461D01*
X118012774Y-115862774D01*
X118080118Y-115795431D01*
X118214805Y-115728087D01*
X118282148Y-115728087D01*
X119224957Y-116064805D02*
X118517851Y-115357698D01*
X119629018Y-115660744D02*
X118921912Y-115559729D01*
X118921912Y-114953637D02*
X118921912Y-115761759D01*
X125094026Y-116401522D02*
X125498087Y-115997461D01*
X126003164Y-116906599D02*
X125296057Y-116199492D01*
X125666446Y-115829103D02*
X126844957Y-116064805D01*
X126137851Y-115357698D02*
X126373553Y-116536209D01*
X122587698Y-116435194D02*
X122486683Y-116468866D01*
X122385668Y-116569881D01*
X122318324Y-116704568D01*
X122318324Y-116839255D01*
X122351996Y-116940270D01*
X122453011Y-117108629D01*
X122554026Y-117209644D01*
X122722385Y-117310660D01*
X122823400Y-117344331D01*
X122958087Y-117344331D01*
X123092774Y-117276988D01*
X123160118Y-117209644D01*
X123227461Y-117074957D01*
X123227461Y-117007614D01*
X122991759Y-116771912D01*
X122857072Y-116906599D01*
X123597851Y-116771912D02*
X122890744Y-116064805D01*
X124001912Y-116367851D01*
X123294805Y-115660744D01*
X124338629Y-116031133D02*
X123631522Y-115324026D01*
X123799881Y-115155668D01*
X123934568Y-115088324D01*
X124069255Y-115088324D01*
X124170270Y-115121996D01*
X124338629Y-115223011D01*
X124439644Y-115324026D01*
X124540660Y-115492385D01*
X124574331Y-115593400D01*
X124574331Y-115728087D01*
X124506988Y-115862774D01*
X124338629Y-116031133D01*
X130207698Y-116435194D02*
X130106683Y-116468866D01*
X130005668Y-116569881D01*
X129938324Y-116704568D01*
X129938324Y-116839255D01*
X129971996Y-116940270D01*
X130073011Y-117108629D01*
X130174026Y-117209644D01*
X130342385Y-117310660D01*
X130443400Y-117344331D01*
X130578087Y-117344331D01*
X130712774Y-117276988D01*
X130780118Y-117209644D01*
X130847461Y-117074957D01*
X130847461Y-117007614D01*
X130611759Y-116771912D01*
X130477072Y-116906599D01*
X131217851Y-116771912D02*
X130510744Y-116064805D01*
X131621912Y-116367851D01*
X130914805Y-115660744D01*
X131958629Y-116031133D02*
X131251522Y-115324026D01*
X131419881Y-115155668D01*
X131554568Y-115088324D01*
X131689255Y-115088324D01*
X131790270Y-115121996D01*
X131958629Y-115223011D01*
X132059644Y-115324026D01*
X132160660Y-115492385D01*
X132194331Y-115593400D01*
X132194331Y-115728087D01*
X132126988Y-115862774D01*
X131958629Y-116031133D01*
X107220952Y-116202380D02*
X106649523Y-116202380D01*
X106935238Y-116202380D02*
X106935238Y-115202380D01*
X106840000Y-115345238D01*
X106744761Y-115440476D01*
X106649523Y-115488095D01*
X107506666Y-115202380D02*
X107840000Y-116202380D01*
X108173333Y-115202380D01*
X108649523Y-115630952D02*
X108554285Y-115583333D01*
X108506666Y-115535714D01*
X108459047Y-115440476D01*
X108459047Y-115392857D01*
X108506666Y-115297619D01*
X108554285Y-115250000D01*
X108649523Y-115202380D01*
X108840000Y-115202380D01*
X108935238Y-115250000D01*
X108982857Y-115297619D01*
X109030476Y-115392857D01*
X109030476Y-115440476D01*
X108982857Y-115535714D01*
X108935238Y-115583333D01*
X108840000Y-115630952D01*
X108649523Y-115630952D01*
X108554285Y-115678571D01*
X108506666Y-115726190D01*
X108459047Y-115821428D01*
X108459047Y-116011904D01*
X108506666Y-116107142D01*
X108554285Y-116154761D01*
X108649523Y-116202380D01*
X108840000Y-116202380D01*
X108935238Y-116154761D01*
X108982857Y-116107142D01*
X109030476Y-116011904D01*
X109030476Y-115821428D01*
X108982857Y-115726190D01*
X108935238Y-115678571D01*
X108840000Y-115630952D01*
X110650000Y-116911904D02*
X110602380Y-117007142D01*
X110602380Y-117150000D01*
X110650000Y-117292857D01*
X110745238Y-117388095D01*
X110840476Y-117435714D01*
X111030952Y-117483333D01*
X111173809Y-117483333D01*
X111364285Y-117435714D01*
X111459523Y-117388095D01*
X111554761Y-117292857D01*
X111602380Y-117150000D01*
X111602380Y-117054761D01*
X111554761Y-116911904D01*
X111507142Y-116864285D01*
X111173809Y-116864285D01*
X111173809Y-117054761D01*
X111602380Y-116435714D02*
X110602380Y-116435714D01*
X111602380Y-115864285D01*
X110602380Y-115864285D01*
X111602380Y-115388095D02*
X110602380Y-115388095D01*
X110602380Y-115150000D01*
X110650000Y-115007142D01*
X110745238Y-114911904D01*
X110840476Y-114864285D01*
X111030952Y-114816666D01*
X111173809Y-114816666D01*
X111364285Y-114864285D01*
X111459523Y-114911904D01*
X111554761Y-115007142D01*
X111602380Y-115150000D01*
X111602380Y-115388095D01*
D11*
%TO.C,J2*%
X131830000Y-117670000D02*
X131830000Y-119000000D01*
X129230000Y-120330000D02*
X91070000Y-120330000D01*
X91070000Y-117670000D02*
X91070000Y-120330000D01*
X129230000Y-117670000D02*
X91070000Y-117670000D01*
X129230000Y-117670000D02*
X129230000Y-120330000D01*
X130500000Y-117670000D02*
X131830000Y-117670000D01*
%TO.C,C1*%
X109592164Y-117360000D02*
X109807836Y-117360000D01*
X109592164Y-116640000D02*
X109807836Y-116640000D01*
%TO.C,C2*%
X103937836Y-116640000D02*
X103722164Y-116640000D01*
X103937836Y-117360000D02*
X103722164Y-117360000D01*
%TD*%
M02*
