%TF.GenerationSoftware,KiCad,Pcbnew,9.0.0-1.fc42*%
%TF.CreationDate,2025-03-01T14:54:56-05:00*%
%TF.ProjectId,ext-con-breakout-board,6578742d-636f-46e2-9d62-7265616b6f75,v0.6*%
%TF.SameCoordinates,Original*%
%TF.FileFunction,Copper,L3,Inr*%
%TF.FilePolarity,Positive*%
%FSLAX45Y45*%
G04 Gerber Fmt 4.5, Leading zero omitted, Abs format (unit mm)*
G04 Created by KiCad (PCBNEW 9.0.0-1.fc42) date 2025-03-01 14:54:56*
%MOMM*%
%LPD*%
G01*
G04 APERTURE LIST*
%TA.AperFunction,ComponentPad*%
%ADD10R,1.700000X1.700000*%
%TD*%
%TA.AperFunction,ComponentPad*%
%ADD11O,1.700000X1.700000*%
%TD*%
%TA.AperFunction,ComponentPad*%
%ADD12C,2.800000*%
%TD*%
%TA.AperFunction,Conductor*%
%ADD13R,0.230000X0.750000*%
%TD*%
%TA.AperFunction,Conductor*%
%ADD14R,0.450000X0.655000*%
%TD*%
%TA.AperFunction,ViaPad*%
%ADD15C,0.800000*%
%TD*%
%TA.AperFunction,Conductor*%
%ADD16C,0.230000*%
%TD*%
G04 APERTURE END LIST*
D10*
%TO.N,GND*%
%TO.C,J2*%
X13050000Y-11550000D03*
D11*
%TO.N,/UART1_RXD*%
X12796000Y-11550000D03*
%TO.N,/UART1_TXD*%
X12542000Y-11550000D03*
%TO.N,GND*%
X12288000Y-11550000D03*
%TO.N,/SPI_SS1*%
X12034000Y-11550000D03*
%TO.N,/SPI_SCK*%
X11780000Y-11550000D03*
%TO.N,/SPI_MOSI*%
X11526000Y-11550000D03*
%TO.N,/SPI_MISO*%
X11272000Y-11550000D03*
%TO.N,GND*%
X11018000Y-11550000D03*
%TO.N,Net-(J2-Pin_10)*%
X10764000Y-11550000D03*
%TO.N,Net-(J2-Pin_11)*%
X10510000Y-11550000D03*
%TO.N,GND*%
X10256000Y-11550000D03*
%TO.N,/GPIO4_IO11*%
X10002000Y-11550000D03*
%TO.N,/GPIO4_IO28*%
X9748000Y-11550000D03*
%TO.N,/I2C4_SCL*%
X9494000Y-11550000D03*
%TO.N,/I2C4_SDA*%
X9240000Y-11550000D03*
%TD*%
D12*
%TO.N,GND*%
%TO.C,H1*%
X13367100Y-11550000D03*
%TD*%
D13*
%TO.N,/I2C4_SDA*%
%TO.C,J1*%
X13020000Y-8922500D03*
%TO.N,unconnected-(J1-Pin_2-Pad2)*%
X13020000Y-8677500D03*
%TO.N,/I2C4_SCL*%
X12980000Y-8922500D03*
%TO.N,unconnected-(J1-Pin_4-Pad4)*%
X12980000Y-8677500D03*
%TO.N,GND*%
X12940000Y-8922500D03*
%TO.N,/GPIO4_IO28*%
X12940000Y-8677500D03*
%TO.N,/UART1_RXD*%
X12900000Y-8922500D03*
%TO.N,unconnected-(J1-Pin_8-Pad8)*%
X12900000Y-8677500D03*
%TO.N,/UART1_TXD*%
X12860000Y-8922500D03*
%TO.N,unconnected-(J1-Pin_10-Pad10)*%
X12860000Y-8677500D03*
%TO.N,GND*%
X12820000Y-8922500D03*
%TO.N,unconnected-(J1-Pin_12-Pad12)*%
X12820000Y-8677500D03*
%TO.N,/SPI_SS1*%
X12780000Y-8922500D03*
%TO.N,/GPIO4_IO11*%
X12780000Y-8677500D03*
%TO.N,/SPI_SCK*%
X12740000Y-8922500D03*
%TO.N,unconnected-(J1-Pin_16-Pad16)*%
X12740000Y-8677500D03*
%TO.N,GND*%
X12700000Y-8922500D03*
%TO.N,+1V8*%
X12700000Y-8677500D03*
%TO.N,/SPI_MOSI*%
X12660000Y-8922500D03*
%TO.N,unconnected-(J1-Pin_20-Pad20)*%
X12660000Y-8677500D03*
%TO.N,GND*%
X12620000Y-8922500D03*
%TO.N,+3V3*%
X12620000Y-8677500D03*
%TO.N,/SPI_MISO*%
X12580000Y-8922500D03*
%TO.N,unconnected-(J1-Pin_24-Pad24)*%
X12580000Y-8677500D03*
D14*
%TO.N,N/C*%
X12500500Y-8729750D03*
X12500500Y-8870250D03*
X13099500Y-8729750D03*
X13099500Y-8870250D03*
%TD*%
D15*
%TO.N,/I2C4_SDA*%
X13020000Y-9040000D03*
%TO.N,/I2C4_SCL*%
X13010000Y-8800000D03*
%TO.N,GND*%
X12700000Y-8800000D03*
%TO.N,/UART1_RXD*%
X12900000Y-9040000D03*
%TO.N,/UART1_TXD*%
X12870000Y-8820000D03*
%TO.N,+1V8*%
X11200000Y-11330000D03*
%TO.N,+3V3*%
X11350000Y-11330000D03*
%TD*%
D16*
%TO.N,/I2C4_SDA*%
X13020000Y-8922500D02*
X13020000Y-9040000D01*
%TO.N,/I2C4_SCL*%
X12980000Y-8922500D02*
X12980000Y-8872426D01*
X12980000Y-8872426D02*
G75*
G02*
X13010001Y-8800001I102430J-4D01*
G01*
%TO.N,GND*%
X12871716Y-8750000D02*
X12820711Y-8750000D01*
X12820000Y-8922500D02*
X12820000Y-8884439D01*
X12620000Y-8856500D02*
X12620000Y-8922500D01*
X12700000Y-8922500D02*
X12700000Y-8800000D01*
X12940000Y-8922500D02*
X12940000Y-8818284D01*
X12809790Y-8859790D02*
X12785355Y-8835355D01*
X12700000Y-8800000D02*
X12676500Y-8800000D01*
X12785355Y-8835355D02*
G75*
G03*
X12700000Y-8800000I-85355J-85355D01*
G01*
X12920000Y-8770000D02*
G75*
G03*
X12871716Y-8750002I-48280J-48280D01*
G01*
X12940000Y-8818284D02*
G75*
G03*
X12920001Y-8769999I-68280J4D01*
G01*
X12820711Y-8750000D02*
G75*
G03*
X12700000Y-8800000I-1J-170710D01*
G01*
X12820000Y-8884439D02*
G75*
G03*
X12809790Y-8859790I-34860J-1D01*
G01*
X12676500Y-8800000D02*
G75*
G03*
X12620000Y-8856500I0J-56500D01*
G01*
%TO.N,/GPIO4_IO28*%
X12191005Y-8660000D02*
X12098835Y-8660000D01*
X11784300Y-8869100D02*
X11750879Y-8937968D01*
X12940000Y-8677500D02*
X12940000Y-8640832D01*
X11710000Y-9115834D02*
X11710000Y-11121818D01*
X12830668Y-8531500D02*
X12501227Y-8531500D01*
X11659318Y-11172500D02*
X10659366Y-11172500D01*
X11750879Y-8937968D02*
G75*
G03*
X11710002Y-9115834I366511J-177862D01*
G01*
X12940000Y-8640832D02*
G75*
G03*
X12830668Y-8531500I-109330J2D01*
G01*
X12360000Y-8590000D02*
G75*
G02*
X12191005Y-8659998I-168990J168990D01*
G01*
X12098835Y-8660000D02*
G75*
G03*
X11784300Y-8869100I-1056J-339530D01*
G01*
X12501227Y-8531500D02*
G75*
G03*
X12360002Y-8590002I3J-199720D01*
G01*
X11710000Y-11121818D02*
G75*
G02*
X11659318Y-11172500I-50680J-2D01*
G01*
X10659366Y-11172500D02*
G75*
G03*
X9748001Y-11550001I4J-1288870D01*
G01*
%TO.N,/UART1_RXD*%
X12900000Y-8922500D02*
X12900000Y-9040000D01*
%TO.N,/UART1_TXD*%
X12860000Y-8922500D02*
X12860000Y-8844142D01*
X12860000Y-8844142D02*
G75*
G02*
X12869999Y-8819999I34140J2D01*
G01*
%TO.N,/SPI_SS1*%
X11990000Y-9116753D02*
X11990000Y-11443775D01*
X12199289Y-8940000D02*
X12119000Y-8940000D01*
X12673507Y-9068500D02*
X12509510Y-9068500D01*
X12780000Y-8922500D02*
X12780000Y-8962007D01*
X12036036Y-8991849D02*
X12003116Y-9059685D01*
X12320000Y-8990000D02*
G75*
G03*
X12199289Y-8940000I-120710J-120710D01*
G01*
X12003116Y-9059685D02*
G75*
G03*
X11990001Y-9116753I117594J-57065D01*
G01*
X12780000Y-8962007D02*
G75*
G02*
X12673507Y-9068500I-106490J-3D01*
G01*
X12119000Y-8940000D02*
G75*
G03*
X12036034Y-8991848I160J-92560D01*
G01*
X12509510Y-9068500D02*
G75*
G02*
X12320000Y-8990000I0J268000D01*
G01*
X11990000Y-11443775D02*
G75*
G03*
X12034001Y-11549999I150230J5D01*
G01*
%TO.N,/GPIO4_IO11*%
X11820325Y-8886639D02*
X11786865Y-8955586D01*
X11659454Y-11215000D02*
X10810762Y-11215000D01*
X12211005Y-8700000D02*
X12100865Y-8700000D01*
X11750000Y-9115988D02*
X11750000Y-11124454D01*
X12780000Y-8677500D02*
X12780000Y-8640805D01*
X12710695Y-8571500D02*
X12521229Y-8571500D01*
X11750000Y-11124454D02*
G75*
G02*
X11659454Y-11215000I-90550J4D01*
G01*
X10810762Y-11215000D02*
G75*
G03*
X10002000Y-11549999I-2J-1143760D01*
G01*
X12380000Y-8630000D02*
G75*
G02*
X12211005Y-8699998I-168990J168990D01*
G01*
X12521229Y-8571500D02*
G75*
G03*
X12380000Y-8630000I1J-199730D01*
G01*
X12780000Y-8640805D02*
G75*
G03*
X12710695Y-8571500I-69310J-5D01*
G01*
X11786865Y-8955586D02*
G75*
G03*
X11749999Y-9115988I330525J-160404D01*
G01*
X12100865Y-8700000D02*
G75*
G03*
X11820324Y-8886639I85J-304290D01*
G01*
%TO.N,/SPI_SCK*%
X11950000Y-9116992D02*
X11950000Y-11152663D01*
X11782986Y-11547014D02*
X11784995Y-11545005D01*
X11781784Y-11548216D02*
X11782986Y-11547014D01*
X12000084Y-8974314D02*
X11967234Y-9042006D01*
X11784995Y-11545005D02*
X11787268Y-11542732D01*
X12205147Y-8900000D02*
X12116326Y-8900000D01*
X11781784Y-11548216D02*
X11780000Y-11550000D01*
X12671037Y-9028500D02*
X12515373Y-9028500D01*
X12740000Y-8922500D02*
X12740000Y-8959537D01*
X11787268Y-11542732D02*
X11789252Y-11540748D01*
X11967234Y-9042006D02*
G75*
G03*
X11950001Y-9116992I154516J-74984D01*
G01*
X12350000Y-8960000D02*
G75*
G03*
X12205147Y-8900001I-144850J-144850D01*
G01*
X11950000Y-11152663D02*
G75*
G02*
X11789250Y-11540747I-548840J3D01*
G01*
X12116326Y-8900000D02*
G75*
G03*
X12000083Y-8974313I504J-128860D01*
G01*
X12740000Y-8959537D02*
G75*
G02*
X12671037Y-9028500I-68960J-3D01*
G01*
X12515373Y-9028500D02*
G75*
G02*
X12349999Y-8960001I-3J233870D01*
G01*
%TO.N,+1V8*%
X11200000Y-11330000D02*
X11206360Y-11323640D01*
X12255147Y-8740000D02*
X12105137Y-8740000D01*
X12671555Y-8611500D02*
X12565367Y-8611500D01*
X12700000Y-8677500D02*
X12700000Y-8639945D01*
X11360000Y-11260000D02*
X11658783Y-11260000D01*
X11790000Y-9115990D02*
X11790000Y-11128783D01*
X11856277Y-8904175D02*
X11822851Y-8973052D01*
X12700000Y-8639945D02*
G75*
G03*
X12671555Y-8611500I-28450J-5D01*
G01*
X11658783Y-11260000D02*
G75*
G03*
X11790000Y-11128783I-3J131220D01*
G01*
X11822851Y-8973052D02*
G75*
G03*
X11790000Y-9115990I294539J-142938D01*
G01*
X11206360Y-11323640D02*
G75*
G02*
X11360000Y-11260000I153640J-153640D01*
G01*
X12565367Y-8611500D02*
G75*
G03*
X12400001Y-8680001I3J-233860D01*
G01*
X12400000Y-8680000D02*
G75*
G02*
X12255147Y-8739999I-144850J144850D01*
G01*
X12105137Y-8740000D02*
G75*
G03*
X11856274Y-8904173I-697J-269650D01*
G01*
%TO.N,/SPI_MOSI*%
X11828762Y-11351238D02*
X11790356Y-11389644D01*
X11910000Y-9115990D02*
X11910000Y-11155112D01*
X11964133Y-8956779D02*
X11930810Y-9025444D01*
X12660000Y-8922500D02*
X12660000Y-8960088D01*
X11612816Y-11463184D02*
X11526000Y-11550000D01*
X12631588Y-8988500D02*
X12521234Y-8988500D01*
X12211005Y-8860000D02*
X12113882Y-8860000D01*
X11910000Y-11155112D02*
G75*
G02*
X11828760Y-11351236I-277360J2D01*
G01*
X12397071Y-8937071D02*
G75*
G03*
X12211005Y-8860004I-186061J-186069D01*
G01*
X12521234Y-8988500D02*
G75*
G02*
X12397068Y-8937074I-4J175600D01*
G01*
X12660000Y-8960088D02*
G75*
G02*
X12631588Y-8988500I-28410J-2D01*
G01*
X11790356Y-11389644D02*
G75*
G02*
X11705000Y-11425000I-85356J85355D01*
G01*
X11930810Y-9025444D02*
G75*
G03*
X11910000Y-9115990I186580J-90546D01*
G01*
X12113882Y-8860000D02*
G75*
G03*
X11964134Y-8956780I108J-164410D01*
G01*
X11705000Y-11425000D02*
G75*
G03*
X11612816Y-11463183I0J-130370D01*
G01*
%TO.N,+3V3*%
X12406876Y-8793124D02*
X12361457Y-8788543D01*
X12433973Y-8796027D02*
X12406876Y-8793124D01*
X12287573Y-8782427D02*
X12240000Y-8780000D01*
X12620000Y-8677500D02*
X12620000Y-8720000D01*
X12468484Y-8798484D02*
X12433973Y-8796027D01*
X11830000Y-9115990D02*
X11830000Y-11132686D01*
X12540000Y-8800000D02*
X12500000Y-8800000D01*
X11632686Y-11330000D02*
X11350000Y-11330000D01*
X12361457Y-8788543D02*
X12325187Y-8785187D01*
X12325187Y-8785187D02*
X12287573Y-8782427D01*
X12240000Y-8780000D02*
X12108995Y-8780000D01*
X12500000Y-8800000D02*
X12468484Y-8798484D01*
X11892229Y-8921710D02*
X11858838Y-8990516D01*
X12620000Y-8720000D02*
G75*
G02*
X12540000Y-8800000I-80000J0D01*
G01*
X11858838Y-8990516D02*
G75*
G03*
X11830000Y-9115990I258552J-125474D01*
G01*
X12108995Y-8780000D02*
G75*
G03*
X11892229Y-8921710I-675J-235610D01*
G01*
X11830000Y-11132686D02*
G75*
G02*
X11632686Y-11330000I-197310J-4D01*
G01*
%TO.N,/SPI_MISO*%
X12571000Y-8931500D02*
X12478330Y-8931500D01*
X11928181Y-8939244D02*
X11894824Y-9007980D01*
X12429560Y-8909560D02*
X12426621Y-8906621D01*
X11301993Y-11520007D02*
X11272000Y-11550000D01*
X11870000Y-9115990D02*
X11870000Y-11150000D01*
X12217500Y-8820000D02*
X12112439Y-8820000D01*
X12432529Y-8912529D02*
X12429560Y-8909560D01*
X11870000Y-11150000D02*
G75*
G02*
X11640000Y-11380000I-230000J0D01*
G01*
X12478330Y-8931500D02*
G75*
G02*
X12432530Y-8912528I0J64770D01*
G01*
X11640000Y-11380000D02*
G75*
G03*
X11301994Y-11520008I0J-478010D01*
G01*
X12580000Y-8922500D02*
G75*
G02*
X12571000Y-8931500I-9000J0D01*
G01*
X11894824Y-9007980D02*
G75*
G03*
X11870000Y-9115990I222566J-108010D01*
G01*
X12426621Y-8906621D02*
G75*
G03*
X12217500Y-8820000I-209121J-209119D01*
G01*
X12112439Y-8820000D02*
G75*
G03*
X11928178Y-8939243I151J-202220D01*
G01*
%TD*%
%TA.AperFunction,Conductor*%
%TO.N,GND*%
G36*
X10511675Y-11131810D02*
G01*
X10515881Y-11136664D01*
X10516795Y-11143022D01*
X10514127Y-11148865D01*
X10508723Y-11152338D01*
X10506703Y-11152737D01*
X10504890Y-11152928D01*
X10487348Y-11154772D01*
X10419205Y-11165565D01*
X10419203Y-11165565D01*
X10351713Y-11179911D01*
X10285070Y-11197768D01*
X10285069Y-11197768D01*
X10219453Y-11219089D01*
X10219452Y-11219089D01*
X10155041Y-11243814D01*
X10155037Y-11243816D01*
X10092010Y-11271877D01*
X10092009Y-11271878D01*
X10092009Y-11271878D01*
X10059831Y-11288273D01*
X10030533Y-11303201D01*
X9970784Y-11337698D01*
X9970780Y-11337700D01*
X9912920Y-11375275D01*
X9912919Y-11375275D01*
X9857099Y-11415831D01*
X9857097Y-11415832D01*
X9856963Y-11415941D01*
X9856605Y-11416219D01*
X9856068Y-11416619D01*
X9855964Y-11416669D01*
X9845155Y-11424752D01*
X9845113Y-11424783D01*
X9845111Y-11424784D01*
X9844458Y-11425237D01*
X9834683Y-11431509D01*
X9833882Y-11431978D01*
X9825592Y-11436389D01*
X9824686Y-11436821D01*
X9817751Y-11439761D01*
X9816287Y-11440268D01*
X9801029Y-11444408D01*
X9799256Y-11444741D01*
X9780104Y-11446790D01*
X9779400Y-11446843D01*
X9768204Y-11447343D01*
X9767924Y-11447358D01*
X9758477Y-11447929D01*
X9757789Y-11447950D01*
X9737949Y-11447950D01*
X9723168Y-11450890D01*
X9718233Y-11451872D01*
X9718232Y-11451872D01*
X9699661Y-11459564D01*
X9699660Y-11459565D01*
X9682947Y-11470732D01*
X9668732Y-11484947D01*
X9657565Y-11501660D01*
X9657564Y-11501661D01*
X9649872Y-11520232D01*
X9649872Y-11520232D01*
X9649449Y-11522356D01*
X9645950Y-11539949D01*
X9645950Y-11560051D01*
X9648753Y-11574143D01*
X9649872Y-11579767D01*
X9649872Y-11579767D01*
X9657564Y-11598338D01*
X9657565Y-11598339D01*
X9668732Y-11615053D01*
X9682947Y-11629268D01*
X9699660Y-11640435D01*
X9699661Y-11640436D01*
X9718233Y-11648128D01*
X9718233Y-11648128D01*
X9718233Y-11648128D01*
X9737949Y-11652050D01*
X9737949Y-11652050D01*
X9758051Y-11652050D01*
X9758051Y-11652050D01*
X9777767Y-11648128D01*
X9777767Y-11648128D01*
X9777768Y-11648128D01*
X9790148Y-11643000D01*
X9796339Y-11640436D01*
X9813053Y-11629267D01*
X9827267Y-11615053D01*
X9838436Y-11598339D01*
X9846128Y-11579767D01*
X9847996Y-11570378D01*
X9848407Y-11569258D01*
X9849102Y-11564818D01*
X9850050Y-11560051D01*
X9850050Y-11559648D01*
X9850187Y-11557884D01*
X9850209Y-11557747D01*
X9852995Y-11539949D01*
X9853214Y-11538552D01*
X9853215Y-11538544D01*
X9853237Y-11538396D01*
X9856408Y-11516938D01*
X9856610Y-11515906D01*
X9858560Y-11507908D01*
X9858915Y-11506733D01*
X9861583Y-11499357D01*
X9862178Y-11497996D01*
X9862335Y-11497694D01*
X9865877Y-11490849D01*
X9866684Y-11489519D01*
X9868293Y-11487238D01*
X9872019Y-11481954D01*
X9872929Y-11480824D01*
X9880644Y-11472403D01*
X9881532Y-11471533D01*
X9892453Y-11461959D01*
X9892453Y-11461959D01*
X9892654Y-11461783D01*
X9893755Y-11460790D01*
X9918337Y-11441928D01*
X9918814Y-11441581D01*
X9972703Y-11404544D01*
X9973201Y-11404221D01*
X10028957Y-11370054D01*
X10029467Y-11369759D01*
X10086933Y-11338558D01*
X10087462Y-11338288D01*
X10146481Y-11310138D01*
X10147026Y-11309895D01*
X10148265Y-11309382D01*
X10207434Y-11284873D01*
X10207989Y-11284660D01*
X10269629Y-11262832D01*
X10270190Y-11262650D01*
X10332886Y-11244078D01*
X10333461Y-11243924D01*
X10397042Y-11228659D01*
X10397623Y-11228536D01*
X10451985Y-11218460D01*
X10458375Y-11219116D01*
X10463395Y-11223123D01*
X10465453Y-11229208D01*
X10463894Y-11235440D01*
X10459214Y-11239839D01*
X10457218Y-11240624D01*
X10454619Y-11241373D01*
X10454619Y-11241373D01*
X10392525Y-11263100D01*
X10331752Y-11288273D01*
X10331750Y-11288274D01*
X10331749Y-11288274D01*
X10331749Y-11288274D01*
X10331746Y-11288276D01*
X10272482Y-11316816D01*
X10272481Y-11316816D01*
X10272480Y-11316817D01*
X10262216Y-11322489D01*
X10214905Y-11348638D01*
X10159203Y-11383637D01*
X10113613Y-11415985D01*
X10113538Y-11416038D01*
X10112732Y-11416600D01*
X10110949Y-11417433D01*
X10099900Y-11425549D01*
X10099785Y-11425630D01*
X10099761Y-11425637D01*
X10099339Y-11425925D01*
X10089482Y-11432134D01*
X10088679Y-11432595D01*
X10080324Y-11436953D01*
X10079417Y-11437377D01*
X10072430Y-11440273D01*
X10070965Y-11440767D01*
X10055617Y-11444806D01*
X10053849Y-11445124D01*
X10034587Y-11447049D01*
X10033891Y-11447097D01*
X10030401Y-11447231D01*
X10029727Y-11447256D01*
X10029723Y-11447256D01*
X10022840Y-11447520D01*
X10022566Y-11447533D01*
X10013926Y-11448002D01*
X10012192Y-11447964D01*
X10012052Y-11447950D01*
X10012051Y-11447950D01*
X9991949Y-11447950D01*
X9977168Y-11450890D01*
X9972233Y-11451872D01*
X9972232Y-11451872D01*
X9953661Y-11459564D01*
X9953660Y-11459565D01*
X9936947Y-11470732D01*
X9922732Y-11484947D01*
X9911565Y-11501660D01*
X9911564Y-11501661D01*
X9903872Y-11520232D01*
X9903872Y-11520232D01*
X9903449Y-11522356D01*
X9899950Y-11539949D01*
X9899950Y-11560051D01*
X9902753Y-11574143D01*
X9903872Y-11579767D01*
X9903872Y-11579767D01*
X9911564Y-11598338D01*
X9911565Y-11598339D01*
X9922732Y-11615053D01*
X9936947Y-11629268D01*
X9953660Y-11640435D01*
X9953661Y-11640436D01*
X9972233Y-11648128D01*
X9972233Y-11648128D01*
X9972233Y-11648128D01*
X9991949Y-11652050D01*
X9991949Y-11652050D01*
X10012051Y-11652050D01*
X10012051Y-11652050D01*
X10031767Y-11648128D01*
X10031767Y-11648128D01*
X10031768Y-11648128D01*
X10044148Y-11643000D01*
X10050339Y-11640436D01*
X10067053Y-11629267D01*
X10081267Y-11615053D01*
X10092436Y-11598339D01*
X10100128Y-11579767D01*
X10101802Y-11571354D01*
X10101861Y-11571077D01*
X10102004Y-11570441D01*
X10102070Y-11570270D01*
X10102367Y-11568531D01*
X10102422Y-11568235D01*
X10103148Y-11564587D01*
X10104050Y-11560051D01*
X10104050Y-11559671D01*
X10104214Y-11557747D01*
X10104442Y-11556415D01*
X10106508Y-11544345D01*
X10106558Y-11544034D01*
X10106565Y-11543991D01*
X10106613Y-11543654D01*
X10107220Y-11539088D01*
X10107255Y-11538848D01*
X10108922Y-11528166D01*
X10111660Y-11522356D01*
X10117105Y-11518948D01*
X10123528Y-11519026D01*
X10128854Y-11522521D01*
X10130630Y-11524600D01*
X10212930Y-11524600D01*
X10209408Y-11530701D01*
X10206000Y-11543417D01*
X10206000Y-11556583D01*
X10209408Y-11569299D01*
X10212930Y-11575400D01*
X10130630Y-11575400D01*
X10131347Y-11579927D01*
X10137563Y-11599058D01*
X10146696Y-11616982D01*
X10158520Y-11633256D01*
X10172744Y-11647480D01*
X10189018Y-11659304D01*
X10206942Y-11668437D01*
X10226073Y-11674653D01*
X10230600Y-11675370D01*
X10230600Y-11593070D01*
X10236701Y-11596592D01*
X10249417Y-11600000D01*
X10262583Y-11600000D01*
X10275299Y-11596592D01*
X10281400Y-11593070D01*
X10281400Y-11675370D01*
X10285927Y-11674653D01*
X10305058Y-11668437D01*
X10322982Y-11659304D01*
X10339256Y-11647480D01*
X10353480Y-11633256D01*
X10365304Y-11616982D01*
X10374437Y-11599058D01*
X10380653Y-11579927D01*
X10381370Y-11575400D01*
X10299070Y-11575400D01*
X10302593Y-11569299D01*
X10306000Y-11556583D01*
X10306000Y-11543417D01*
X10305071Y-11539949D01*
X10407950Y-11539949D01*
X10407950Y-11560051D01*
X10410753Y-11574143D01*
X10411872Y-11579767D01*
X10411872Y-11579767D01*
X10419564Y-11598338D01*
X10419565Y-11598339D01*
X10430732Y-11615053D01*
X10444947Y-11629268D01*
X10461660Y-11640435D01*
X10461661Y-11640436D01*
X10480233Y-11648128D01*
X10480233Y-11648128D01*
X10480233Y-11648128D01*
X10499949Y-11652050D01*
X10499949Y-11652050D01*
X10520051Y-11652050D01*
X10520051Y-11652050D01*
X10539767Y-11648128D01*
X10539767Y-11648128D01*
X10539768Y-11648128D01*
X10552148Y-11643000D01*
X10558339Y-11640436D01*
X10575053Y-11629267D01*
X10589267Y-11615053D01*
X10600436Y-11598339D01*
X10605129Y-11587007D01*
X10608128Y-11579767D01*
X10608128Y-11579767D01*
X10608128Y-11579767D01*
X10608128Y-11579767D01*
X10612050Y-11560051D01*
X10612050Y-11539949D01*
X10661950Y-11539949D01*
X10661950Y-11560051D01*
X10664753Y-11574143D01*
X10665872Y-11579767D01*
X10665872Y-11579767D01*
X10673564Y-11598338D01*
X10673565Y-11598339D01*
X10684732Y-11615053D01*
X10698947Y-11629268D01*
X10715660Y-11640435D01*
X10715661Y-11640436D01*
X10734233Y-11648128D01*
X10734233Y-11648128D01*
X10734233Y-11648128D01*
X10753949Y-11652050D01*
X10753949Y-11652050D01*
X10774051Y-11652050D01*
X10774051Y-11652050D01*
X10793767Y-11648128D01*
X10793767Y-11648128D01*
X10793768Y-11648128D01*
X10806148Y-11643000D01*
X10812339Y-11640436D01*
X10829053Y-11629267D01*
X10843267Y-11615053D01*
X10854436Y-11598339D01*
X10859129Y-11587007D01*
X10862128Y-11579767D01*
X10862128Y-11579767D01*
X10862128Y-11579767D01*
X10862128Y-11579767D01*
X10866050Y-11560051D01*
X10866050Y-11539949D01*
X10862997Y-11524600D01*
X10892630Y-11524600D01*
X10974930Y-11524600D01*
X10971408Y-11530701D01*
X10968000Y-11543417D01*
X10968000Y-11556583D01*
X10971408Y-11569299D01*
X10974930Y-11575400D01*
X10892630Y-11575400D01*
X10893347Y-11579927D01*
X10899563Y-11599058D01*
X10908696Y-11616982D01*
X10920520Y-11633256D01*
X10934744Y-11647480D01*
X10951018Y-11659304D01*
X10968942Y-11668437D01*
X10988073Y-11674653D01*
X10992600Y-11675370D01*
X10992600Y-11593070D01*
X10998701Y-11596592D01*
X11011417Y-11600000D01*
X11024583Y-11600000D01*
X11037299Y-11596592D01*
X11043400Y-11593070D01*
X11043400Y-11675370D01*
X11047927Y-11674653D01*
X11067058Y-11668437D01*
X11084982Y-11659304D01*
X11101256Y-11647480D01*
X11115480Y-11633256D01*
X11127304Y-11616982D01*
X11136437Y-11599058D01*
X11142653Y-11579927D01*
X11143370Y-11575400D01*
X11061070Y-11575400D01*
X11064593Y-11569299D01*
X11068000Y-11556583D01*
X11068000Y-11543417D01*
X11064593Y-11530701D01*
X11061070Y-11524600D01*
X11143370Y-11524600D01*
X11142653Y-11520073D01*
X11136437Y-11500942D01*
X11127304Y-11483018D01*
X11115480Y-11466744D01*
X11101256Y-11452520D01*
X11084982Y-11440696D01*
X11067058Y-11431563D01*
X11047927Y-11425347D01*
X11047925Y-11425346D01*
X11043400Y-11424630D01*
X11043400Y-11506930D01*
X11037299Y-11503407D01*
X11024583Y-11500000D01*
X11011417Y-11500000D01*
X10998701Y-11503407D01*
X10992600Y-11506930D01*
X10992600Y-11424630D01*
X10992600Y-11424630D01*
X10988075Y-11425346D01*
X10988073Y-11425347D01*
X10968942Y-11431563D01*
X10951018Y-11440696D01*
X10934744Y-11452520D01*
X10920520Y-11466744D01*
X10908696Y-11483018D01*
X10899563Y-11500942D01*
X10893347Y-11520073D01*
X10892630Y-11524600D01*
X10862997Y-11524600D01*
X10862128Y-11520233D01*
X10862128Y-11520232D01*
X10862128Y-11520232D01*
X10854436Y-11501661D01*
X10854435Y-11501660D01*
X10843268Y-11484947D01*
X10829053Y-11470732D01*
X10812340Y-11459565D01*
X10812339Y-11459564D01*
X10793767Y-11451872D01*
X10788833Y-11450890D01*
X10774051Y-11447950D01*
X10753949Y-11447950D01*
X10739168Y-11450890D01*
X10734233Y-11451872D01*
X10734232Y-11451872D01*
X10715661Y-11459564D01*
X10715660Y-11459565D01*
X10698947Y-11470732D01*
X10684732Y-11484947D01*
X10673565Y-11501660D01*
X10673564Y-11501661D01*
X10665872Y-11520232D01*
X10665872Y-11520232D01*
X10665449Y-11522356D01*
X10661950Y-11539949D01*
X10612050Y-11539949D01*
X10608128Y-11520233D01*
X10608128Y-11520232D01*
X10608128Y-11520232D01*
X10600436Y-11501661D01*
X10600435Y-11501660D01*
X10589268Y-11484947D01*
X10575053Y-11470732D01*
X10558340Y-11459565D01*
X10558339Y-11459564D01*
X10539767Y-11451872D01*
X10534833Y-11450890D01*
X10520051Y-11447950D01*
X10499949Y-11447950D01*
X10485168Y-11450890D01*
X10480233Y-11451872D01*
X10480232Y-11451872D01*
X10461661Y-11459564D01*
X10461660Y-11459565D01*
X10444947Y-11470732D01*
X10430732Y-11484947D01*
X10419565Y-11501660D01*
X10419564Y-11501661D01*
X10411872Y-11520232D01*
X10411872Y-11520232D01*
X10411449Y-11522356D01*
X10407950Y-11539949D01*
X10305071Y-11539949D01*
X10302593Y-11530701D01*
X10299070Y-11524600D01*
X10381370Y-11524600D01*
X10380653Y-11520073D01*
X10374437Y-11500942D01*
X10365304Y-11483018D01*
X10353480Y-11466744D01*
X10339256Y-11452520D01*
X10322982Y-11440696D01*
X10305058Y-11431563D01*
X10285927Y-11425347D01*
X10285925Y-11425346D01*
X10281400Y-11424630D01*
X10281400Y-11506930D01*
X10275299Y-11503407D01*
X10262583Y-11500000D01*
X10249417Y-11500000D01*
X10236701Y-11503407D01*
X10230600Y-11506930D01*
X10230600Y-11424630D01*
X10230341Y-11424408D01*
X10226829Y-11419029D01*
X10226783Y-11412606D01*
X10230218Y-11407177D01*
X10231951Y-11405921D01*
X10271040Y-11382863D01*
X10271595Y-11382556D01*
X10326607Y-11354136D01*
X10327180Y-11353861D01*
X10383699Y-11328570D01*
X10384286Y-11328327D01*
X10442134Y-11306246D01*
X10442734Y-11306036D01*
X10501729Y-11287232D01*
X10502337Y-11287057D01*
X10562296Y-11271590D01*
X10562915Y-11271449D01*
X10623646Y-11259369D01*
X10624271Y-11259263D01*
X10685582Y-11250607D01*
X10686215Y-11250536D01*
X10747914Y-11245332D01*
X10748552Y-11245296D01*
X10757942Y-11245033D01*
X10810627Y-11243554D01*
X10810946Y-11243550D01*
X10815796Y-11243550D01*
X11229095Y-11243550D01*
X11229543Y-11243682D01*
X11230001Y-11243586D01*
X11232594Y-11244577D01*
X11235258Y-11245360D01*
X11235564Y-11245713D01*
X11236001Y-11245880D01*
X11237646Y-11248116D01*
X11239464Y-11250214D01*
X11239531Y-11250677D01*
X11239808Y-11251054D01*
X11239983Y-11253824D01*
X11240379Y-11256572D01*
X11240184Y-11256998D01*
X11240214Y-11257465D01*
X11238863Y-11259890D01*
X11237710Y-11262415D01*
X11237255Y-11262779D01*
X11237089Y-11263077D01*
X11234476Y-11265000D01*
X11234425Y-11265027D01*
X11233402Y-11265511D01*
X11223654Y-11269544D01*
X11222259Y-11270018D01*
X11217281Y-11271358D01*
X11216038Y-11271619D01*
X11210501Y-11272465D01*
X11209444Y-11272576D01*
X11203356Y-11272931D01*
X11202693Y-11272950D01*
X11192489Y-11272950D01*
X11181607Y-11275866D01*
X11177979Y-11276838D01*
X11164971Y-11284348D01*
X11164970Y-11284349D01*
X11154349Y-11294970D01*
X11154349Y-11294970D01*
X11146838Y-11307979D01*
X11146428Y-11309509D01*
X11142950Y-11322489D01*
X11142950Y-11337511D01*
X11145931Y-11348638D01*
X11146838Y-11352020D01*
X11154349Y-11365029D01*
X11154349Y-11365030D01*
X11164970Y-11375651D01*
X11164971Y-11375651D01*
X11177980Y-11383162D01*
X11192489Y-11387050D01*
X11192489Y-11387050D01*
X11207510Y-11387050D01*
X11207511Y-11387050D01*
X11222020Y-11383162D01*
X11235029Y-11375651D01*
X11245651Y-11365029D01*
X11253162Y-11352020D01*
X11256909Y-11338037D01*
X11256955Y-11337869D01*
X11257097Y-11337373D01*
X11257125Y-11337277D01*
X11259741Y-11328461D01*
X11260325Y-11326913D01*
X11262573Y-11322062D01*
X11264119Y-11319605D01*
X11267257Y-11315797D01*
X11269387Y-11313801D01*
X11269888Y-11313439D01*
X11275514Y-11309382D01*
X11281572Y-11307245D01*
X11287823Y-11308722D01*
X11292284Y-11313344D01*
X11293537Y-11319644D01*
X11293194Y-11321578D01*
X11292950Y-11322489D01*
X11292950Y-11337511D01*
X11295931Y-11348638D01*
X11296838Y-11352020D01*
X11304348Y-11365029D01*
X11304349Y-11365030D01*
X11314970Y-11375651D01*
X11314970Y-11375651D01*
X11327979Y-11383162D01*
X11342489Y-11387050D01*
X11342489Y-11387050D01*
X11357510Y-11387050D01*
X11357511Y-11387050D01*
X11372020Y-11383162D01*
X11385029Y-11375651D01*
X11385743Y-11374938D01*
X11387212Y-11373698D01*
X11394181Y-11368759D01*
X11395776Y-11367629D01*
X11397018Y-11366863D01*
X11403469Y-11363438D01*
X11405778Y-11362518D01*
X11413216Y-11360463D01*
X11415437Y-11360081D01*
X11429397Y-11359083D01*
X11430097Y-11358904D01*
X11432916Y-11358550D01*
X11465936Y-11358550D01*
X11472100Y-11360360D01*
X11476306Y-11365214D01*
X11477220Y-11371572D01*
X11474552Y-11377415D01*
X11469459Y-11380792D01*
X11464535Y-11382392D01*
X11427758Y-11397626D01*
X11392290Y-11415697D01*
X11392288Y-11415699D01*
X11388253Y-11418172D01*
X11387724Y-11418476D01*
X11386999Y-11418869D01*
X11386739Y-11418950D01*
X11370825Y-11427627D01*
X11370777Y-11427653D01*
X11370774Y-11427653D01*
X11370200Y-11427944D01*
X11356302Y-11434479D01*
X11355565Y-11434795D01*
X11351442Y-11436389D01*
X11344627Y-11439025D01*
X11343801Y-11439309D01*
X11334479Y-11442115D01*
X11333205Y-11442420D01*
X11313107Y-11446024D01*
X11311880Y-11446176D01*
X11295769Y-11447288D01*
X11295574Y-11447301D01*
X11295574Y-11447301D01*
X11294081Y-11447404D01*
X11285187Y-11448018D01*
X11285034Y-11448027D01*
X11284658Y-11448048D01*
X11284447Y-11448060D01*
X11282615Y-11447931D01*
X11282608Y-11448005D01*
X11282051Y-11447950D01*
X11282051Y-11447950D01*
X11261949Y-11447950D01*
X11247167Y-11450890D01*
X11242232Y-11451872D01*
X11242232Y-11451872D01*
X11223661Y-11459564D01*
X11223660Y-11459565D01*
X11206947Y-11470732D01*
X11192732Y-11484947D01*
X11181565Y-11501660D01*
X11181564Y-11501661D01*
X11173872Y-11520232D01*
X11173872Y-11520232D01*
X11173449Y-11522356D01*
X11169950Y-11539949D01*
X11169950Y-11560051D01*
X11172753Y-11574143D01*
X11173872Y-11579767D01*
X11173872Y-11579767D01*
X11181564Y-11598338D01*
X11181565Y-11598339D01*
X11192732Y-11615053D01*
X11206947Y-11629268D01*
X11223660Y-11640435D01*
X11223661Y-11640436D01*
X11242232Y-11648128D01*
X11242233Y-11648128D01*
X11242233Y-11648128D01*
X11261949Y-11652050D01*
X11261949Y-11652050D01*
X11282051Y-11652050D01*
X11282051Y-11652050D01*
X11301767Y-11648128D01*
X11301767Y-11648128D01*
X11301767Y-11648128D01*
X11314148Y-11643000D01*
X11320339Y-11640436D01*
X11337053Y-11629267D01*
X11351267Y-11615053D01*
X11362436Y-11598339D01*
X11367129Y-11587007D01*
X11370128Y-11579767D01*
X11370128Y-11579767D01*
X11370128Y-11579767D01*
X11370128Y-11579767D01*
X11374050Y-11560051D01*
X11374050Y-11558063D01*
X11374170Y-11556415D01*
X11374206Y-11556164D01*
X11375158Y-11551207D01*
X11375255Y-11550654D01*
X11375267Y-11550580D01*
X11375347Y-11550020D01*
X11376880Y-11537861D01*
X11379950Y-11516831D01*
X11380177Y-11515688D01*
X11382084Y-11508131D01*
X11382508Y-11506802D01*
X11385069Y-11500198D01*
X11385825Y-11498620D01*
X11389266Y-11492660D01*
X11390348Y-11491103D01*
X11395310Y-11485097D01*
X11396574Y-11483794D01*
X11403969Y-11477298D01*
X11405220Y-11476344D01*
X11416377Y-11468993D01*
X11417037Y-11468361D01*
X11419661Y-11466479D01*
X11449610Y-11450888D01*
X11450507Y-11450470D01*
X11450825Y-11450338D01*
X11457212Y-11449653D01*
X11462955Y-11452530D01*
X11466232Y-11458055D01*
X11466001Y-11464474D01*
X11462336Y-11469750D01*
X11461519Y-11470350D01*
X11460947Y-11470732D01*
X11446732Y-11484947D01*
X11435565Y-11501660D01*
X11435564Y-11501661D01*
X11427872Y-11520232D01*
X11427872Y-11520232D01*
X11427449Y-11522356D01*
X11423950Y-11539949D01*
X11423950Y-11560051D01*
X11426753Y-11574143D01*
X11427872Y-11579767D01*
X11427872Y-11579767D01*
X11435564Y-11598338D01*
X11435565Y-11598339D01*
X11446732Y-11615053D01*
X11460947Y-11629268D01*
X11477660Y-11640435D01*
X11477661Y-11640436D01*
X11496232Y-11648128D01*
X11496233Y-11648128D01*
X11496233Y-11648128D01*
X11515949Y-11652050D01*
X11515949Y-11652050D01*
X11536051Y-11652050D01*
X11536051Y-11652050D01*
X11555767Y-11648128D01*
X11555767Y-11648128D01*
X11555767Y-11648128D01*
X11568148Y-11643000D01*
X11574339Y-11640436D01*
X11591053Y-11629267D01*
X11605267Y-11615053D01*
X11616436Y-11598339D01*
X11621129Y-11587007D01*
X11624128Y-11579767D01*
X11624128Y-11579767D01*
X11624128Y-11579767D01*
X11624128Y-11579767D01*
X11628050Y-11560051D01*
X11628050Y-11551224D01*
X11628086Y-11550320D01*
X11628110Y-11550020D01*
X11628320Y-11547377D01*
X11628372Y-11546319D01*
X11628375Y-11546177D01*
X11628362Y-11545106D01*
X11627515Y-11524967D01*
X11626811Y-11506145D01*
X11626835Y-11504869D01*
X11627075Y-11501661D01*
X11627287Y-11498835D01*
X11627521Y-11497236D01*
X11628529Y-11492659D01*
X11629192Y-11490603D01*
X11630642Y-11487237D01*
X11631864Y-11485080D01*
X11632444Y-11484276D01*
X11634286Y-11482277D01*
X11644471Y-11473578D01*
X11645918Y-11472527D01*
X11658011Y-11465117D01*
X11659603Y-11464305D01*
X11672709Y-11458877D01*
X11674408Y-11458325D01*
X11688200Y-11455014D01*
X11689965Y-11454734D01*
X11703641Y-11453658D01*
X11709927Y-11454978D01*
X11714501Y-11459488D01*
X11715911Y-11465755D01*
X11713709Y-11471789D01*
X11712596Y-11473084D01*
X11700732Y-11484947D01*
X11689565Y-11501660D01*
X11689564Y-11501661D01*
X11681872Y-11520232D01*
X11681872Y-11520232D01*
X11681449Y-11522356D01*
X11677950Y-11539949D01*
X11677950Y-11560051D01*
X11680753Y-11574143D01*
X11681872Y-11579767D01*
X11681872Y-11579767D01*
X11689564Y-11598338D01*
X11689565Y-11598339D01*
X11700732Y-11615053D01*
X11714947Y-11629268D01*
X11731660Y-11640435D01*
X11731661Y-11640436D01*
X11750232Y-11648128D01*
X11750233Y-11648128D01*
X11750233Y-11648128D01*
X11769949Y-11652050D01*
X11769949Y-11652050D01*
X11790051Y-11652050D01*
X11790051Y-11652050D01*
X11809767Y-11648128D01*
X11809767Y-11648128D01*
X11809767Y-11648128D01*
X11822148Y-11643000D01*
X11828339Y-11640436D01*
X11845053Y-11629267D01*
X11859267Y-11615053D01*
X11870436Y-11598339D01*
X11875129Y-11587007D01*
X11878128Y-11579767D01*
X11878128Y-11579767D01*
X11878128Y-11579767D01*
X11878128Y-11579767D01*
X11882050Y-11560051D01*
X11882050Y-11539949D01*
X11881485Y-11537111D01*
X11881268Y-11534670D01*
X11881359Y-11529921D01*
X11881359Y-11529888D01*
X11881985Y-11506035D01*
X11882031Y-11505261D01*
X11882954Y-11495511D01*
X11883070Y-11494642D01*
X11884740Y-11485011D01*
X11884958Y-11484020D01*
X11887658Y-11473916D01*
X11887963Y-11472950D01*
X11892100Y-11461626D01*
X11892445Y-11460789D01*
X11898475Y-11447641D01*
X11898809Y-11446970D01*
X11904888Y-11435737D01*
X11905194Y-11435207D01*
X11905319Y-11435002D01*
X11905796Y-11434067D01*
X11905926Y-11433820D01*
X11906327Y-11433078D01*
X11906979Y-11431874D01*
X11906979Y-11431873D01*
X11907148Y-11431474D01*
X11907485Y-11430752D01*
X11925917Y-11394576D01*
X11927169Y-11391556D01*
X11939518Y-11361742D01*
X11940168Y-11360935D01*
X11940460Y-11359941D01*
X11942147Y-11358479D01*
X11943548Y-11356740D01*
X11944531Y-11356413D01*
X11945314Y-11355735D01*
X11947524Y-11355417D01*
X11949643Y-11354712D01*
X11950647Y-11354968D01*
X11951672Y-11354821D01*
X11953703Y-11355748D01*
X11955867Y-11356300D01*
X11956573Y-11357059D01*
X11957515Y-11357489D01*
X11958722Y-11359367D01*
X11960244Y-11361002D01*
X11960518Y-11362162D01*
X11960988Y-11362893D01*
X11961450Y-11366105D01*
X11961450Y-11388946D01*
X11961189Y-11391369D01*
X11960932Y-11392551D01*
X11960445Y-11419785D01*
X11960418Y-11420390D01*
X11959775Y-11429418D01*
X11959775Y-11429419D01*
X11959771Y-11429470D01*
X11958889Y-11441872D01*
X11958807Y-11442644D01*
X11956934Y-11456019D01*
X11956799Y-11456792D01*
X11954302Y-11468624D01*
X11954046Y-11469613D01*
X11945509Y-11497444D01*
X11945345Y-11497937D01*
X11945006Y-11498886D01*
X11943750Y-11501383D01*
X11943564Y-11501661D01*
X11943564Y-11501661D01*
X11935872Y-11520232D01*
X11935872Y-11520232D01*
X11935449Y-11522356D01*
X11931950Y-11539949D01*
X11931950Y-11560051D01*
X11934753Y-11574143D01*
X11935872Y-11579767D01*
X11935872Y-11579767D01*
X11943564Y-11598338D01*
X11943565Y-11598339D01*
X11954732Y-11615053D01*
X11968947Y-11629268D01*
X11985660Y-11640435D01*
X11985661Y-11640436D01*
X12004232Y-11648128D01*
X12004233Y-11648128D01*
X12004233Y-11648128D01*
X12023949Y-11652050D01*
X12023949Y-11652050D01*
X12044051Y-11652050D01*
X12044051Y-11652050D01*
X12063767Y-11648128D01*
X12063767Y-11648128D01*
X12063767Y-11648128D01*
X12076148Y-11643000D01*
X12082339Y-11640436D01*
X12099053Y-11629267D01*
X12113267Y-11615053D01*
X12124436Y-11598339D01*
X12129129Y-11587007D01*
X12132128Y-11579767D01*
X12132128Y-11579767D01*
X12132128Y-11579767D01*
X12132128Y-11579767D01*
X12136050Y-11560051D01*
X12136050Y-11539949D01*
X12132997Y-11524600D01*
X12162630Y-11524600D01*
X12244930Y-11524600D01*
X12241407Y-11530701D01*
X12238000Y-11543417D01*
X12238000Y-11556583D01*
X12241407Y-11569299D01*
X12244930Y-11575400D01*
X12162630Y-11575400D01*
X12163347Y-11579927D01*
X12169563Y-11599058D01*
X12178696Y-11616982D01*
X12190520Y-11633256D01*
X12204744Y-11647480D01*
X12221018Y-11659304D01*
X12238942Y-11668437D01*
X12258073Y-11674653D01*
X12262600Y-11675370D01*
X12262600Y-11593070D01*
X12268701Y-11596592D01*
X12281417Y-11600000D01*
X12294583Y-11600000D01*
X12307299Y-11596592D01*
X12313400Y-11593070D01*
X12313400Y-11675370D01*
X12317927Y-11674653D01*
X12337058Y-11668437D01*
X12354982Y-11659304D01*
X12371256Y-11647480D01*
X12385480Y-11633256D01*
X12397304Y-11616982D01*
X12406437Y-11599058D01*
X12412653Y-11579927D01*
X12413370Y-11575400D01*
X12331070Y-11575400D01*
X12334592Y-11569299D01*
X12338000Y-11556583D01*
X12338000Y-11543417D01*
X12337071Y-11539949D01*
X12439950Y-11539949D01*
X12439950Y-11560051D01*
X12442753Y-11574143D01*
X12443872Y-11579767D01*
X12443872Y-11579767D01*
X12451564Y-11598338D01*
X12451565Y-11598339D01*
X12462732Y-11615053D01*
X12476947Y-11629268D01*
X12493660Y-11640435D01*
X12493661Y-11640436D01*
X12512232Y-11648128D01*
X12512233Y-11648128D01*
X12512233Y-11648128D01*
X12531949Y-11652050D01*
X12531949Y-11652050D01*
X12552051Y-11652050D01*
X12552051Y-11652050D01*
X12571767Y-11648128D01*
X12571767Y-11648128D01*
X12571767Y-11648128D01*
X12584148Y-11643000D01*
X12590339Y-11640436D01*
X12607053Y-11629267D01*
X12621267Y-11615053D01*
X12632436Y-11598339D01*
X12637129Y-11587007D01*
X12640128Y-11579767D01*
X12640128Y-11579767D01*
X12640128Y-11579767D01*
X12640128Y-11579767D01*
X12644050Y-11560051D01*
X12644050Y-11539949D01*
X12693950Y-11539949D01*
X12693950Y-11560051D01*
X12696753Y-11574143D01*
X12697872Y-11579767D01*
X12697872Y-11579767D01*
X12705564Y-11598338D01*
X12705565Y-11598339D01*
X12716732Y-11615053D01*
X12730947Y-11629268D01*
X12747660Y-11640435D01*
X12747661Y-11640436D01*
X12766232Y-11648128D01*
X12766233Y-11648128D01*
X12766233Y-11648128D01*
X12785949Y-11652050D01*
X12785949Y-11652050D01*
X12806051Y-11652050D01*
X12806051Y-11652050D01*
X12825767Y-11648128D01*
X12825767Y-11648128D01*
X12825767Y-11648128D01*
X12838148Y-11643000D01*
X12844339Y-11640436D01*
X12861053Y-11629267D01*
X12875267Y-11615053D01*
X12886436Y-11598339D01*
X12891129Y-11587007D01*
X12894128Y-11579767D01*
X12894128Y-11579767D01*
X12894128Y-11579767D01*
X12894128Y-11579767D01*
X12898050Y-11560051D01*
X12898050Y-11539949D01*
X12894128Y-11520233D01*
X12894128Y-11520232D01*
X12894128Y-11520232D01*
X12886436Y-11501661D01*
X12886435Y-11501660D01*
X12875268Y-11484947D01*
X12861053Y-11470732D01*
X12858546Y-11469057D01*
X12858546Y-11469057D01*
X12844758Y-11459844D01*
X12922200Y-11459844D01*
X12922200Y-11524600D01*
X13006930Y-11524600D01*
X13003407Y-11530701D01*
X13000000Y-11543417D01*
X13000000Y-11556583D01*
X13003407Y-11569299D01*
X13006930Y-11575400D01*
X12922200Y-11575400D01*
X12922200Y-11640155D01*
X12922471Y-11643046D01*
X12926733Y-11655225D01*
X12926733Y-11655225D01*
X12934394Y-11665606D01*
X12934394Y-11665606D01*
X12944775Y-11673267D01*
X12956953Y-11677529D01*
X12959845Y-11677800D01*
X13024600Y-11677800D01*
X13024600Y-11593070D01*
X13030701Y-11596592D01*
X13043417Y-11600000D01*
X13056583Y-11600000D01*
X13069299Y-11596592D01*
X13075400Y-11593070D01*
X13075400Y-11677800D01*
X13140155Y-11677800D01*
X13143046Y-11677529D01*
X13155225Y-11673267D01*
X13155225Y-11673267D01*
X13165606Y-11665606D01*
X13165606Y-11665606D01*
X13173267Y-11655225D01*
X13173267Y-11655225D01*
X13177529Y-11643047D01*
X13177800Y-11640156D01*
X13177800Y-11640154D01*
X13177800Y-11575400D01*
X13093070Y-11575400D01*
X13096592Y-11569299D01*
X13100000Y-11556583D01*
X13100000Y-11543417D01*
X13096592Y-11530701D01*
X13093070Y-11524600D01*
X13177800Y-11524600D01*
X13177800Y-11459845D01*
X13177529Y-11456953D01*
X13173267Y-11444775D01*
X13173267Y-11444775D01*
X13165606Y-11434394D01*
X13165606Y-11434394D01*
X13155225Y-11426733D01*
X13143047Y-11422471D01*
X13140156Y-11422200D01*
X13075400Y-11422200D01*
X13075400Y-11506930D01*
X13069299Y-11503407D01*
X13056583Y-11500000D01*
X13043417Y-11500000D01*
X13030701Y-11503407D01*
X13024600Y-11506930D01*
X13024600Y-11422200D01*
X12959845Y-11422200D01*
X12956953Y-11422471D01*
X12944775Y-11426733D01*
X12944775Y-11426733D01*
X12934394Y-11434394D01*
X12934394Y-11434394D01*
X12926733Y-11444775D01*
X12926733Y-11444775D01*
X12922471Y-11456953D01*
X12922200Y-11459844D01*
X12844758Y-11459844D01*
X12844340Y-11459565D01*
X12844338Y-11459564D01*
X12825767Y-11451872D01*
X12820832Y-11450890D01*
X12806051Y-11447950D01*
X12785949Y-11447950D01*
X12771167Y-11450890D01*
X12766232Y-11451872D01*
X12766232Y-11451872D01*
X12747661Y-11459564D01*
X12747660Y-11459565D01*
X12730947Y-11470732D01*
X12716732Y-11484947D01*
X12705565Y-11501660D01*
X12705564Y-11501661D01*
X12697872Y-11520232D01*
X12697872Y-11520232D01*
X12697449Y-11522356D01*
X12693950Y-11539949D01*
X12644050Y-11539949D01*
X12640128Y-11520233D01*
X12640128Y-11520232D01*
X12640128Y-11520232D01*
X12632436Y-11501661D01*
X12632435Y-11501660D01*
X12621268Y-11484947D01*
X12607053Y-11470732D01*
X12590339Y-11459565D01*
X12590338Y-11459564D01*
X12571767Y-11451872D01*
X12566832Y-11450890D01*
X12552051Y-11447950D01*
X12531949Y-11447950D01*
X12517167Y-11450890D01*
X12512232Y-11451872D01*
X12512232Y-11451872D01*
X12493661Y-11459564D01*
X12493660Y-11459565D01*
X12476947Y-11470732D01*
X12462732Y-11484947D01*
X12451565Y-11501660D01*
X12451564Y-11501661D01*
X12443872Y-11520232D01*
X12443872Y-11520232D01*
X12443449Y-11522356D01*
X12439950Y-11539949D01*
X12337071Y-11539949D01*
X12334592Y-11530701D01*
X12331070Y-11524600D01*
X12413370Y-11524600D01*
X12412653Y-11520073D01*
X12406437Y-11500942D01*
X12397304Y-11483018D01*
X12385480Y-11466744D01*
X12371256Y-11452520D01*
X12354982Y-11440696D01*
X12337058Y-11431563D01*
X12317927Y-11425347D01*
X12317925Y-11425346D01*
X12313400Y-11424630D01*
X12313400Y-11506930D01*
X12307299Y-11503407D01*
X12294583Y-11500000D01*
X12281417Y-11500000D01*
X12268701Y-11503407D01*
X12262600Y-11506930D01*
X12262600Y-11424630D01*
X12262600Y-11424630D01*
X12258075Y-11425346D01*
X12258073Y-11425347D01*
X12238942Y-11431563D01*
X12221018Y-11440696D01*
X12204744Y-11452520D01*
X12190520Y-11466744D01*
X12178696Y-11483018D01*
X12169563Y-11500942D01*
X12163347Y-11520073D01*
X12162630Y-11524600D01*
X12132997Y-11524600D01*
X12132128Y-11520233D01*
X12132128Y-11520232D01*
X12132128Y-11520232D01*
X12124436Y-11501661D01*
X12124435Y-11501660D01*
X12113268Y-11484947D01*
X12099053Y-11470732D01*
X12082339Y-11459565D01*
X12082339Y-11459564D01*
X12079475Y-11458378D01*
X12078340Y-11457833D01*
X12078192Y-11457751D01*
X12078158Y-11457731D01*
X12077445Y-11457317D01*
X12061880Y-11448771D01*
X12061880Y-11448771D01*
X12061772Y-11448711D01*
X12043618Y-11438444D01*
X12042570Y-11437774D01*
X12039821Y-11435795D01*
X12037425Y-11434070D01*
X12036675Y-11433531D01*
X12035486Y-11432546D01*
X12032032Y-11429267D01*
X12031039Y-11428324D01*
X12029705Y-11426811D01*
X12026497Y-11422450D01*
X12025340Y-11420495D01*
X12022837Y-11415101D01*
X12022104Y-11413010D01*
X12020227Y-11405334D01*
X12019930Y-11403437D01*
X12019083Y-11391556D01*
X12018904Y-11390852D01*
X12018550Y-11388035D01*
X12018550Y-11141400D01*
X12020360Y-11135237D01*
X12025214Y-11131030D01*
X12029950Y-11130000D01*
X13148351Y-11130000D01*
X13150575Y-11130219D01*
X13170591Y-11134200D01*
X13172031Y-11134586D01*
X13193141Y-11141752D01*
X13194517Y-11142322D01*
X13214512Y-11152183D01*
X13215803Y-11152928D01*
X13234340Y-11165314D01*
X13235520Y-11166220D01*
X13252575Y-11181177D01*
X13253118Y-11181686D01*
X13253118Y-11181686D01*
X13255397Y-11183965D01*
X13255397Y-11183965D01*
X13256336Y-11184904D01*
X13553323Y-11481891D01*
X13553833Y-11482436D01*
X13568779Y-11499478D01*
X13569686Y-11500661D01*
X13582071Y-11519196D01*
X13582817Y-11520488D01*
X13592677Y-11540482D01*
X13593248Y-11541859D01*
X13600414Y-11562970D01*
X13600800Y-11564410D01*
X13605150Y-11586274D01*
X13605344Y-11587752D01*
X13606826Y-11610338D01*
X13606850Y-11611084D01*
X13606850Y-11659551D01*
X13606815Y-11660446D01*
X13605297Y-11679732D01*
X13605017Y-11681499D01*
X13600606Y-11699871D01*
X13600053Y-11701573D01*
X13592823Y-11719029D01*
X13592010Y-11720623D01*
X13582137Y-11736735D01*
X13581086Y-11738182D01*
X13568815Y-11752550D01*
X13567550Y-11753815D01*
X13553182Y-11766086D01*
X13551735Y-11767137D01*
X13535623Y-11777010D01*
X13534029Y-11777823D01*
X13516573Y-11785053D01*
X13514871Y-11785606D01*
X13496499Y-11790017D01*
X13494732Y-11790297D01*
X13477709Y-11791637D01*
X13475446Y-11791815D01*
X13474552Y-11791850D01*
X9175448Y-11791850D01*
X9174554Y-11791815D01*
X9172031Y-11791616D01*
X9155268Y-11790297D01*
X9153501Y-11790017D01*
X9135128Y-11785606D01*
X9133427Y-11785053D01*
X9115970Y-11777823D01*
X9114377Y-11777010D01*
X9098265Y-11767137D01*
X9096819Y-11766086D01*
X9082450Y-11753814D01*
X9081185Y-11752550D01*
X9068913Y-11738181D01*
X9067862Y-11736735D01*
X9057989Y-11720623D01*
X9057178Y-11719030D01*
X9049946Y-11701572D01*
X9049394Y-11699872D01*
X9044983Y-11681498D01*
X9044703Y-11679732D01*
X9044530Y-11677529D01*
X9043185Y-11660446D01*
X9043150Y-11659551D01*
X9043150Y-11539949D01*
X9137950Y-11539949D01*
X9137950Y-11560051D01*
X9140753Y-11574143D01*
X9141872Y-11579767D01*
X9141872Y-11579767D01*
X9149564Y-11598338D01*
X9149565Y-11598339D01*
X9160732Y-11615053D01*
X9174947Y-11629268D01*
X9191660Y-11640435D01*
X9191661Y-11640436D01*
X9210233Y-11648128D01*
X9210233Y-11648128D01*
X9210233Y-11648128D01*
X9229949Y-11652050D01*
X9229949Y-11652050D01*
X9250051Y-11652050D01*
X9250051Y-11652050D01*
X9269767Y-11648128D01*
X9269767Y-11648128D01*
X9269768Y-11648128D01*
X9282148Y-11643000D01*
X9288339Y-11640436D01*
X9305053Y-11629267D01*
X9319267Y-11615053D01*
X9330436Y-11598339D01*
X9335129Y-11587007D01*
X9338128Y-11579767D01*
X9338128Y-11579767D01*
X9338128Y-11579767D01*
X9338128Y-11579767D01*
X9342050Y-11560051D01*
X9342050Y-11539949D01*
X9391950Y-11539949D01*
X9391950Y-11560051D01*
X9394753Y-11574143D01*
X9395872Y-11579767D01*
X9395872Y-11579767D01*
X9403564Y-11598338D01*
X9403565Y-11598339D01*
X9414732Y-11615053D01*
X9428947Y-11629268D01*
X9445660Y-11640435D01*
X9445661Y-11640436D01*
X9464233Y-11648128D01*
X9464233Y-11648128D01*
X9464233Y-11648128D01*
X9483949Y-11652050D01*
X9483949Y-11652050D01*
X9504051Y-11652050D01*
X9504051Y-11652050D01*
X9523767Y-11648128D01*
X9523767Y-11648128D01*
X9523768Y-11648128D01*
X9536148Y-11643000D01*
X9542339Y-11640436D01*
X9559053Y-11629267D01*
X9573267Y-11615053D01*
X9584436Y-11598339D01*
X9589129Y-11587007D01*
X9592128Y-11579767D01*
X9592128Y-11579767D01*
X9592128Y-11579767D01*
X9592128Y-11579767D01*
X9596050Y-11560051D01*
X9596050Y-11539949D01*
X9592128Y-11520233D01*
X9592128Y-11520232D01*
X9592128Y-11520232D01*
X9584436Y-11501661D01*
X9584435Y-11501660D01*
X9573268Y-11484947D01*
X9559053Y-11470732D01*
X9542340Y-11459565D01*
X9542339Y-11459564D01*
X9523767Y-11451872D01*
X9518833Y-11450890D01*
X9504051Y-11447950D01*
X9483949Y-11447950D01*
X9469168Y-11450890D01*
X9464233Y-11451872D01*
X9464232Y-11451872D01*
X9445661Y-11459564D01*
X9445660Y-11459565D01*
X9428947Y-11470732D01*
X9414732Y-11484947D01*
X9403565Y-11501660D01*
X9403564Y-11501661D01*
X9395872Y-11520232D01*
X9395872Y-11520232D01*
X9395449Y-11522356D01*
X9391950Y-11539949D01*
X9342050Y-11539949D01*
X9338128Y-11520233D01*
X9338128Y-11520232D01*
X9338128Y-11520232D01*
X9330436Y-11501661D01*
X9330435Y-11501660D01*
X9319268Y-11484947D01*
X9305053Y-11470732D01*
X9288340Y-11459565D01*
X9288339Y-11459564D01*
X9269767Y-11451872D01*
X9264833Y-11450890D01*
X9250051Y-11447950D01*
X9229949Y-11447950D01*
X9215168Y-11450890D01*
X9210233Y-11451872D01*
X9210232Y-11451872D01*
X9191661Y-11459564D01*
X9191660Y-11459565D01*
X9174947Y-11470732D01*
X9160732Y-11484947D01*
X9149565Y-11501660D01*
X9149564Y-11501661D01*
X9141872Y-11520232D01*
X9141872Y-11520232D01*
X9141449Y-11522356D01*
X9137950Y-11539949D01*
X9043150Y-11539949D01*
X9043150Y-11260448D01*
X9043185Y-11259554D01*
X9043895Y-11250536D01*
X9044703Y-11240268D01*
X9044983Y-11238501D01*
X9049394Y-11220127D01*
X9049946Y-11218428D01*
X9057178Y-11200969D01*
X9057989Y-11199378D01*
X9067863Y-11183264D01*
X9068913Y-11181819D01*
X9081186Y-11167449D01*
X9082449Y-11166186D01*
X9096819Y-11153913D01*
X9098264Y-11152863D01*
X9114378Y-11142989D01*
X9115969Y-11142178D01*
X9133428Y-11134946D01*
X9135128Y-11134394D01*
X9152118Y-11130315D01*
X9154779Y-11130000D01*
X10505511Y-11130000D01*
X10511675Y-11131810D01*
G37*
%TD.AperFunction*%
%TD*%
%TA.AperFunction,Conductor*%
%TO.N,+3V3*%
G36*
X11374423Y-11298694D02*
G01*
X11376361Y-11300122D01*
X11380605Y-11303239D01*
X11393996Y-11311715D01*
X11393996Y-11311715D01*
X11393996Y-11311715D01*
X11400523Y-11314495D01*
X11400523Y-11314495D01*
X11407956Y-11316582D01*
X11417553Y-11318010D01*
X11428110Y-11318453D01*
X11428923Y-11318830D01*
X11429231Y-11319622D01*
X11429231Y-11340411D01*
X11428889Y-11341238D01*
X11428145Y-11341578D01*
X11411316Y-11342781D01*
X11398043Y-11346448D01*
X11387145Y-11352235D01*
X11376361Y-11359878D01*
X11374423Y-11361306D01*
X11373554Y-11361521D01*
X11372787Y-11361058D01*
X11366286Y-11352235D01*
X11350411Y-11330694D01*
X11350196Y-11329825D01*
X11350411Y-11329306D01*
X11372787Y-11298942D01*
X11373554Y-11298479D01*
X11374423Y-11298694D01*
G37*
%TD.AperFunction*%
%TD*%
%TA.AperFunction,Conductor*%
%TO.N,/I2C4_SDA*%
G36*
X13031238Y-8961111D02*
G01*
X13031578Y-8961855D01*
X13032781Y-8978683D01*
X13036448Y-8991957D01*
X13042235Y-9002854D01*
X13049877Y-9013638D01*
X13051306Y-9015577D01*
X13051521Y-9016446D01*
X13051058Y-9017213D01*
X13020694Y-9039589D01*
X13019825Y-9039803D01*
X13019306Y-9039589D01*
X13019137Y-9039464D01*
X12988942Y-9017212D01*
X12988479Y-9016446D01*
X12988694Y-9015577D01*
X12990122Y-9013639D01*
X12993239Y-9009395D01*
X13001715Y-8996004D01*
X13004495Y-8989477D01*
X13006582Y-8982044D01*
X13008010Y-8972447D01*
X13008434Y-8962330D01*
X13008456Y-8962153D01*
X13008544Y-8961710D01*
X13009041Y-8960966D01*
X13009691Y-8960769D01*
X13030411Y-8960769D01*
X13031238Y-8961111D01*
G37*
%TD.AperFunction*%
%TD*%
%TA.AperFunction,Conductor*%
%TO.N,/UART1_RXD*%
G36*
X12911136Y-8961111D02*
G01*
X12911456Y-8961710D01*
X12911580Y-8962330D01*
X12911615Y-8962510D01*
X12911635Y-8962655D01*
X12912781Y-8978684D01*
X12916448Y-8991957D01*
X12922235Y-9002854D01*
X12929877Y-9013638D01*
X12931306Y-9015577D01*
X12931521Y-9016446D01*
X12931058Y-9017213D01*
X12900694Y-9039589D01*
X12899825Y-9039803D01*
X12899306Y-9039589D01*
X12899137Y-9039464D01*
X12868942Y-9017212D01*
X12868479Y-9016446D01*
X12868694Y-9015577D01*
X12870122Y-9013639D01*
X12873239Y-9009395D01*
X12881715Y-8996004D01*
X12884495Y-8989477D01*
X12886582Y-8982044D01*
X12888010Y-8972447D01*
X12888434Y-8962330D01*
X12888456Y-8962153D01*
X12888544Y-8961710D01*
X12889041Y-8960966D01*
X12889691Y-8960769D01*
X12910309Y-8960769D01*
X12911136Y-8961111D01*
G37*
%TD.AperFunction*%
%TD*%
%TA.AperFunction,Conductor*%
%TO.N,/SPI_MISO*%
G36*
X11396714Y-11434801D02*
G01*
X11407091Y-11452775D01*
X11407208Y-11453663D01*
X11406722Y-11454337D01*
X11393892Y-11462791D01*
X11393891Y-11462791D01*
X11383254Y-11472136D01*
X11375278Y-11481789D01*
X11375278Y-11481789D01*
X11369512Y-11491774D01*
X11365503Y-11502113D01*
X11365503Y-11502114D01*
X11362798Y-11512830D01*
X11359490Y-11535492D01*
X11357935Y-11547824D01*
X11357923Y-11547898D01*
X11353680Y-11569997D01*
X11353187Y-11570745D01*
X11352310Y-11570926D01*
X11352237Y-11570909D01*
X11272732Y-11550263D01*
X11272017Y-11549723D01*
X11271859Y-11549206D01*
X11266583Y-11467811D01*
X11266872Y-11466964D01*
X11267675Y-11466568D01*
X11280277Y-11465869D01*
X11286210Y-11465539D01*
X11296782Y-11464810D01*
X11314657Y-11463576D01*
X11337941Y-11459401D01*
X11349923Y-11455794D01*
X11358540Y-11452461D01*
X11362848Y-11450795D01*
X11362848Y-11450795D01*
X11362848Y-11450795D01*
X11378449Y-11443459D01*
X11395140Y-11434359D01*
X11396031Y-11434264D01*
X11396714Y-11434801D01*
G37*
%TD.AperFunction*%
%TD*%
%TA.AperFunction,Conductor*%
%TO.N,/I2C4_SCL*%
G36*
X13010048Y-8800241D02*
G01*
X13010445Y-8800638D01*
X13029900Y-8832855D01*
X13030034Y-8833741D01*
X13029503Y-8834462D01*
X13029415Y-8834510D01*
X13017799Y-8840218D01*
X13017795Y-8840220D01*
X13006114Y-8845905D01*
X12998216Y-8852226D01*
X12993356Y-8860487D01*
X12991982Y-8865988D01*
X12991982Y-8865989D01*
X12991613Y-8870996D01*
X12991591Y-8871306D01*
X12991580Y-8871454D01*
X12991177Y-8872254D01*
X12990413Y-8872538D01*
X12969734Y-8872538D01*
X12968906Y-8872195D01*
X12968564Y-8871368D01*
X12968565Y-8871306D01*
X12969434Y-8854882D01*
X12969444Y-8854780D01*
X12971368Y-8841191D01*
X12973241Y-8824295D01*
X12972867Y-8817246D01*
X12971639Y-8810512D01*
X12971828Y-8809636D01*
X12972509Y-8809166D01*
X13009163Y-8800107D01*
X13010048Y-8800241D01*
G37*
%TD.AperFunction*%
%TD*%
%TA.AperFunction,Conductor*%
%TO.N,GND*%
G36*
X12700694Y-8800411D02*
G01*
X12731058Y-8822787D01*
X12731521Y-8823554D01*
X12731306Y-8824423D01*
X12729879Y-8826360D01*
X12729878Y-8826360D01*
X12728540Y-8828183D01*
X12726762Y-8830604D01*
X12718285Y-8843996D01*
X12718285Y-8843996D01*
X12715505Y-8850523D01*
X12713418Y-8857955D01*
X12713418Y-8857956D01*
X12711990Y-8867554D01*
X12711547Y-8878110D01*
X12711170Y-8878923D01*
X12710378Y-8879231D01*
X12689589Y-8879231D01*
X12688762Y-8878889D01*
X12688422Y-8878145D01*
X12688351Y-8877149D01*
X12687219Y-8861316D01*
X12683552Y-8848043D01*
X12677765Y-8837146D01*
X12670122Y-8826361D01*
X12668694Y-8824423D01*
X12668479Y-8823554D01*
X12668942Y-8822788D01*
X12699306Y-8800411D01*
X12700175Y-8800197D01*
X12700694Y-8800411D01*
G37*
%TD.AperFunction*%
%TD*%
%TA.AperFunction,Conductor*%
%TO.N,GND*%
G36*
X12733677Y-8778390D02*
G01*
X12739423Y-8785796D01*
X12739423Y-8785797D01*
X12739424Y-8785798D01*
X12746009Y-8792178D01*
X12761740Y-8803259D01*
X12775513Y-8812610D01*
X12780013Y-8815665D01*
X12780505Y-8816413D01*
X12780324Y-8817290D01*
X12780302Y-8817321D01*
X12768135Y-8834068D01*
X12767371Y-8834536D01*
X12766568Y-8834372D01*
X12761121Y-8830968D01*
X12761121Y-8830968D01*
X12755150Y-8828470D01*
X12749509Y-8827249D01*
X12749507Y-8827248D01*
X12744124Y-8827099D01*
X12744123Y-8827099D01*
X12733843Y-8829190D01*
X12723737Y-8833094D01*
X12723728Y-8833098D01*
X12712532Y-8837317D01*
X12711637Y-8837288D01*
X12711024Y-8836634D01*
X12711000Y-8836563D01*
X12700168Y-8800766D01*
X12700257Y-8799874D01*
X12700632Y-8799458D01*
X12732097Y-8778139D01*
X12732974Y-8777959D01*
X12733677Y-8778390D01*
G37*
%TD.AperFunction*%
%TD*%
%TA.AperFunction,Conductor*%
%TO.N,/GPIO4_IO11*%
G36*
X10122952Y-11431799D02*
G01*
X10135748Y-11448132D01*
X10135989Y-11448995D01*
X10135591Y-11449740D01*
X10123391Y-11460255D01*
X10113268Y-11471125D01*
X10113267Y-11471125D01*
X10105637Y-11481764D01*
X10100071Y-11492314D01*
X10100071Y-11492314D01*
X10096141Y-11502914D01*
X10096140Y-11502916D01*
X10093415Y-11513712D01*
X10089865Y-11536458D01*
X10089216Y-11541340D01*
X10089210Y-11541384D01*
X10084771Y-11567308D01*
X10084294Y-11568066D01*
X10083421Y-11568264D01*
X10083363Y-11568253D01*
X10002756Y-11550248D01*
X10002023Y-11549733D01*
X10001845Y-11549210D01*
X9997709Y-11502915D01*
X9994576Y-11467840D01*
X9994843Y-11466985D01*
X9995637Y-11466570D01*
X9995673Y-11466568D01*
X10023512Y-11465058D01*
X10030179Y-11464802D01*
X10035448Y-11464600D01*
X10035451Y-11464600D01*
X10035451Y-11464600D01*
X10035452Y-11464600D01*
X10035453Y-11464600D01*
X10037160Y-11464429D01*
X10057871Y-11462360D01*
X10077333Y-11457239D01*
X10087313Y-11453102D01*
X10097839Y-11447611D01*
X10109568Y-11440223D01*
X10121339Y-11431577D01*
X10122208Y-11431364D01*
X10122952Y-11431799D01*
G37*
%TD.AperFunction*%
%TD*%
%TA.AperFunction,Conductor*%
%TO.N,/UART1_TXD*%
G36*
X12870617Y-8820472D02*
G01*
X12897970Y-8845815D01*
X12898344Y-8846629D01*
X12898033Y-8847469D01*
X12898012Y-8847490D01*
X12891814Y-8853845D01*
X12891811Y-8853848D01*
X12886274Y-8859482D01*
X12886273Y-8859484D01*
X12878227Y-8869842D01*
X12878227Y-8869842D01*
X12877502Y-8871604D01*
X12877070Y-8872131D01*
X12876208Y-8872708D01*
X12872439Y-8878347D01*
X12871450Y-8883321D01*
X12871450Y-8897152D01*
X12871107Y-8897979D01*
X12870280Y-8898322D01*
X12849720Y-8898322D01*
X12848893Y-8897979D01*
X12848550Y-8897152D01*
X12848550Y-8889473D01*
X12848550Y-8889472D01*
X12848550Y-8884923D01*
X12848550Y-8884922D01*
X12848550Y-8884438D01*
X12848550Y-8884438D01*
X12848550Y-8878193D01*
X12846294Y-8866854D01*
X12846257Y-8866479D01*
X12846147Y-8866116D01*
X12846113Y-8865943D01*
X12846071Y-8865841D01*
X12846032Y-8865730D01*
X12844151Y-8859482D01*
X12842159Y-8852866D01*
X12835817Y-8839817D01*
X12835763Y-8838924D01*
X12836309Y-8838279D01*
X12869262Y-8820303D01*
X12870152Y-8820207D01*
X12870617Y-8820472D01*
G37*
%TD.AperFunction*%
%TD*%
%TA.AperFunction,Conductor*%
%TO.N,+1V8*%
G36*
X11257951Y-11273591D02*
G01*
X11268355Y-11291611D01*
X11268472Y-11292498D01*
X11268026Y-11293145D01*
X11256090Y-11301752D01*
X11256090Y-11301752D01*
X11248212Y-11311312D01*
X11248212Y-11311312D01*
X11248212Y-11311312D01*
X11248212Y-11311312D01*
X11243515Y-11321448D01*
X11240265Y-11332402D01*
X11240264Y-11332407D01*
X11237915Y-11340624D01*
X11237358Y-11341325D01*
X11236469Y-11341427D01*
X11236443Y-11341419D01*
X11200714Y-11330299D01*
X11200026Y-11329726D01*
X11199892Y-11329212D01*
X11198957Y-11291900D01*
X11199279Y-11291064D01*
X11200059Y-11290703D01*
X11211813Y-11290018D01*
X11220283Y-11288725D01*
X11228631Y-11286478D01*
X11241466Y-11281168D01*
X11256384Y-11273145D01*
X11257275Y-11273055D01*
X11257951Y-11273591D01*
G37*
%TD.AperFunction*%
%TD*%
%TA.AperFunction,Conductor*%
%TO.N,GND*%
G36*
X12667435Y-8778684D02*
G01*
X12679991Y-8786857D01*
X12699327Y-8799443D01*
X12699833Y-8800181D01*
X12699814Y-8800743D01*
X12689583Y-8836750D01*
X12689028Y-8837452D01*
X12688138Y-8837556D01*
X12688021Y-8837516D01*
X12681632Y-8834944D01*
X12681514Y-8834888D01*
X12673732Y-8830691D01*
X12659830Y-8823887D01*
X12651849Y-8822579D01*
X12651849Y-8822579D01*
X12651849Y-8822579D01*
X12645236Y-8824752D01*
X12642007Y-8827593D01*
X12639628Y-8830947D01*
X12638870Y-8831423D01*
X12638089Y-8831283D01*
X12620195Y-8820952D01*
X12619649Y-8820241D01*
X12619766Y-8819353D01*
X12619818Y-8819272D01*
X12625789Y-8810667D01*
X12625923Y-8810507D01*
X12632753Y-8803700D01*
X12632897Y-8803579D01*
X12639804Y-8798624D01*
X12639898Y-8798563D01*
X12646781Y-8794574D01*
X12658812Y-8786857D01*
X12665924Y-8778886D01*
X12666730Y-8778496D01*
X12667435Y-8778684D01*
G37*
%TD.AperFunction*%
%TD*%
%TA.AperFunction,Conductor*%
%TO.N,/SPI_MOSI*%
G36*
X11632067Y-11434797D02*
G01*
X11640333Y-11451019D01*
X11641497Y-11453305D01*
X11641567Y-11454197D01*
X11641064Y-11454835D01*
X11630347Y-11461376D01*
X11630347Y-11461376D01*
X11621755Y-11469095D01*
X11621754Y-11469096D01*
X11615777Y-11477384D01*
X11611983Y-11486192D01*
X11611983Y-11486192D01*
X11609939Y-11495473D01*
X11609213Y-11505178D01*
X11609213Y-11505178D01*
X11609979Y-11525673D01*
X11610828Y-11545843D01*
X11610825Y-11545985D01*
X11609468Y-11563046D01*
X11609061Y-11563843D01*
X11608209Y-11564119D01*
X11608105Y-11564106D01*
X11526759Y-11550190D01*
X11526001Y-11549713D01*
X11525797Y-11549192D01*
X11517362Y-11486192D01*
X11514899Y-11467798D01*
X11515129Y-11466933D01*
X11515903Y-11466484D01*
X11530821Y-11464560D01*
X11530821Y-11464561D01*
X11530824Y-11464560D01*
X11538063Y-11463642D01*
X11539022Y-11463520D01*
X11552621Y-11461278D01*
X11567121Y-11458888D01*
X11567121Y-11458888D01*
X11567122Y-11458888D01*
X11572162Y-11457580D01*
X11579768Y-11455607D01*
X11593384Y-11451020D01*
X11610826Y-11443779D01*
X11630516Y-11434275D01*
X11631410Y-11434224D01*
X11632067Y-11434797D01*
G37*
%TD.AperFunction*%
%TD*%
%TA.AperFunction,Conductor*%
%TO.N,/SPI_SCK*%
G36*
X11873141Y-11411582D02*
G01*
X11891100Y-11421951D01*
X11891645Y-11422661D01*
X11891544Y-11423521D01*
X11882921Y-11439456D01*
X11882921Y-11439457D01*
X11876013Y-11454518D01*
X11876011Y-11454522D01*
X11871037Y-11468137D01*
X11871036Y-11468140D01*
X11867669Y-11480736D01*
X11867669Y-11480738D01*
X11865587Y-11492746D01*
X11865587Y-11492746D01*
X11864467Y-11504589D01*
X11864466Y-11504590D01*
X11863814Y-11529498D01*
X11863389Y-11551844D01*
X11863031Y-11552664D01*
X11862197Y-11552991D01*
X11862178Y-11552991D01*
X11780788Y-11550116D01*
X11779973Y-11549744D01*
X11779709Y-11549283D01*
X11756179Y-11470955D01*
X11756269Y-11470064D01*
X11756963Y-11469498D01*
X11757017Y-11469483D01*
X11773764Y-11465336D01*
X11773833Y-11465321D01*
X11790759Y-11462291D01*
X11814620Y-11457600D01*
X11831267Y-11451744D01*
X11845541Y-11443070D01*
X11852296Y-11437241D01*
X11858919Y-11430162D01*
X11865601Y-11421417D01*
X11871567Y-11411971D01*
X11872298Y-11411454D01*
X11873141Y-11411582D01*
G37*
%TD.AperFunction*%
%TD*%
%TA.AperFunction,Conductor*%
%TO.N,/GPIO4_IO28*%
G36*
X9868090Y-11430931D02*
G01*
X9881027Y-11447153D01*
X9881275Y-11448014D01*
X9880883Y-11448763D01*
X9868773Y-11459380D01*
X9858741Y-11470331D01*
X9851200Y-11481024D01*
X9845723Y-11491609D01*
X9845722Y-11491610D01*
X9841880Y-11502233D01*
X9841880Y-11502233D01*
X9839243Y-11513048D01*
X9839243Y-11513049D01*
X9835878Y-11535820D01*
X9835876Y-11535830D01*
X9831068Y-11566544D01*
X9830601Y-11567308D01*
X9829731Y-11567519D01*
X9829668Y-11567507D01*
X9825154Y-11566544D01*
X9823545Y-11566201D01*
X9748761Y-11550241D01*
X9748023Y-11549733D01*
X9747840Y-11549209D01*
X9740046Y-11467839D01*
X9740308Y-11466983D01*
X9741099Y-11466563D01*
X9741138Y-11466560D01*
X9768983Y-11464876D01*
X9781079Y-11464336D01*
X9803408Y-11461947D01*
X9822785Y-11456689D01*
X9832710Y-11452482D01*
X9843168Y-11446917D01*
X9843168Y-11446917D01*
X9843169Y-11446916D01*
X9854805Y-11439450D01*
X9854805Y-11439450D01*
X9854808Y-11439448D01*
X9866475Y-11430724D01*
X9867342Y-11430503D01*
X9868090Y-11430931D01*
G37*
%TD.AperFunction*%
%TD*%
%TA.AperFunction,Conductor*%
%TO.N,GND*%
G36*
X12763357Y-8748363D02*
G01*
X12763942Y-8749041D01*
X12763944Y-8749047D01*
X12770348Y-8768757D01*
X12770278Y-8769650D01*
X12769666Y-8770207D01*
X12763425Y-8772676D01*
X12763425Y-8772676D01*
X12757567Y-8776041D01*
X12752908Y-8779846D01*
X12749240Y-8784041D01*
X12744051Y-8793391D01*
X12744051Y-8793392D01*
X12740344Y-8803682D01*
X12740343Y-8803685D01*
X12736506Y-8814240D01*
X12735902Y-8814901D01*
X12735007Y-8814940D01*
X12734949Y-8814917D01*
X12700675Y-8800358D01*
X12700047Y-8799719D01*
X12699965Y-8799197D01*
X12702667Y-8761867D01*
X12703068Y-8761066D01*
X12703847Y-8760781D01*
X12715258Y-8760912D01*
X12715258Y-8760912D01*
X12715258Y-8760912D01*
X12715258Y-8760912D01*
X12726254Y-8759453D01*
X12726254Y-8759453D01*
X12726255Y-8759453D01*
X12726255Y-8759453D01*
X12726256Y-8759453D01*
X12740891Y-8755100D01*
X12751110Y-8752061D01*
X12762464Y-8748298D01*
X12763357Y-8748363D01*
G37*
%TD.AperFunction*%
%TD*%
%TA.AperFunction,Conductor*%
%TO.N,/SPI_SS1*%
G36*
X12001238Y-11392059D02*
G01*
X12001577Y-11392803D01*
X12002598Y-11407124D01*
X12002598Y-11407126D01*
X12005728Y-11419925D01*
X12005728Y-11419925D01*
X12010641Y-11430512D01*
X12017090Y-11439280D01*
X12017090Y-11439281D01*
X12024827Y-11446626D01*
X12029101Y-11449703D01*
X12033603Y-11452943D01*
X12033604Y-11452944D01*
X12053283Y-11464072D01*
X12053287Y-11464074D01*
X12068999Y-11472701D01*
X12069092Y-11472758D01*
X12085286Y-11483725D01*
X12085779Y-11484473D01*
X12085598Y-11485350D01*
X12085545Y-11485423D01*
X12034524Y-11549443D01*
X12033740Y-11549876D01*
X12033210Y-11549813D01*
X11956610Y-11522027D01*
X11955949Y-11521423D01*
X11955907Y-11520534D01*
X11962093Y-11503223D01*
X11971205Y-11473519D01*
X11974177Y-11459441D01*
X11976325Y-11444102D01*
X11977292Y-11430512D01*
X11977978Y-11420868D01*
X11977978Y-11420866D01*
X11977978Y-11420864D01*
X11978479Y-11392866D01*
X11978837Y-11392045D01*
X11979649Y-11391717D01*
X12000410Y-11391717D01*
X12001238Y-11392059D01*
G37*
%TD.AperFunction*%
%TD*%
M02*
