%TF.GenerationSoftware,KiCad,Pcbnew,9.0.0-1.fc42*%
%TF.CreationDate,2025-03-01T14:54:56-05:00*%
%TF.ProjectId,ext-con-breakout-board,6578742d-636f-46e2-9d62-7265616b6f75,v0.6*%
%TF.SameCoordinates,Original*%
%TF.FileFunction,Copper,L4,Bot*%
%TF.FilePolarity,Positive*%
%FSLAX45Y45*%
G04 Gerber Fmt 4.5, Leading zero omitted, Abs format (unit mm)*
G04 Created by KiCad (PCBNEW 9.0.0-1.fc42) date 2025-03-01 14:54:56*
%MOMM*%
%LPD*%
G01*
G04 APERTURE LIST*
%TA.AperFunction,SMDPad,CuDef*%
%ADD10C,0.500000*%
%TD*%
%TA.AperFunction,ComponentPad*%
%ADD11R,1.700000X1.700000*%
%TD*%
%TA.AperFunction,ComponentPad*%
%ADD12O,1.700000X1.700000*%
%TD*%
%TA.AperFunction,ComponentPad*%
%ADD13C,2.800000*%
%TD*%
%TA.AperFunction,ViaPad*%
%ADD14C,0.800000*%
%TD*%
G04 APERTURE END LIST*
D10*
%TO.P,FID3,*%
%TO.N,*%
X13190000Y-11714000D03*
%TD*%
D11*
%TO.P,J2,1,Pin_1*%
%TO.N,GND*%
X13050000Y-11550000D03*
D12*
%TO.P,J2,2,Pin_2*%
%TO.N,/UART1_RXD*%
X12796000Y-11550000D03*
%TO.P,J2,3,Pin_3*%
%TO.N,/UART1_TXD*%
X12542000Y-11550000D03*
%TO.P,J2,4,Pin_4*%
%TO.N,GND*%
X12288000Y-11550000D03*
%TO.P,J2,5,Pin_5*%
%TO.N,/SPI_SS1*%
X12034000Y-11550000D03*
%TO.P,J2,6,Pin_6*%
%TO.N,/SPI_SCK*%
X11780000Y-11550000D03*
%TO.P,J2,7,Pin_7*%
%TO.N,/SPI_MOSI*%
X11526000Y-11550000D03*
%TO.P,J2,8,Pin_8*%
%TO.N,/SPI_MISO*%
X11272000Y-11550000D03*
%TO.P,J2,9,Pin_9*%
%TO.N,GND*%
X11018000Y-11550000D03*
%TO.P,J2,10,Pin_10*%
%TO.N,Net-(J2-Pin_10)*%
X10764000Y-11550000D03*
%TO.P,J2,11,Pin_11*%
%TO.N,Net-(J2-Pin_11)*%
X10510000Y-11550000D03*
%TO.P,J2,12,Pin_12*%
%TO.N,GND*%
X10256000Y-11550000D03*
%TO.P,J2,13,Pin_13*%
%TO.N,/GPIO4_IO11*%
X10002000Y-11550000D03*
%TO.P,J2,14,Pin_14*%
%TO.N,/GPIO4_IO28*%
X9748000Y-11550000D03*
%TO.P,J2,15,Pin_15*%
%TO.N,/I2C4_SCL*%
X9494000Y-11550000D03*
%TO.P,J2,16,Pin_16*%
%TO.N,/I2C4_SDA*%
X9240000Y-11550000D03*
%TD*%
D13*
%TO.P,H1,1,1*%
%TO.N,GND*%
X13367100Y-11550000D03*
%TD*%
D10*
%TO.P,FID1,*%
%TO.N,*%
X9150000Y-11220000D03*
%TD*%
%TO.P,FID2,*%
%TO.N,*%
X13270000Y-11320000D03*
%TD*%
D14*
%TO.N,+1V8*%
X11200000Y-11330000D03*
%TO.N,+3V3*%
X11350000Y-11330000D03*
%TD*%
%TA.AperFunction,Conductor*%
%TO.N,GND*%
G36*
X13150575Y-11130219D02*
G01*
X13170591Y-11134200D01*
X13172031Y-11134586D01*
X13193141Y-11141752D01*
X13194517Y-11142322D01*
X13214512Y-11152183D01*
X13215803Y-11152928D01*
X13234340Y-11165314D01*
X13235520Y-11166220D01*
X13252575Y-11181177D01*
X13253118Y-11181686D01*
X13253118Y-11181686D01*
X13255397Y-11183965D01*
X13255397Y-11183965D01*
X13256336Y-11184904D01*
X13553323Y-11481891D01*
X13553833Y-11482436D01*
X13568779Y-11499478D01*
X13569686Y-11500661D01*
X13582071Y-11519196D01*
X13582817Y-11520488D01*
X13592677Y-11540482D01*
X13593248Y-11541859D01*
X13600414Y-11562970D01*
X13600800Y-11564410D01*
X13605150Y-11586274D01*
X13605344Y-11587752D01*
X13606826Y-11610338D01*
X13606850Y-11611084D01*
X13606850Y-11659551D01*
X13606815Y-11660446D01*
X13605297Y-11679732D01*
X13605017Y-11681499D01*
X13600606Y-11699871D01*
X13600053Y-11701573D01*
X13592823Y-11719029D01*
X13592010Y-11720623D01*
X13582137Y-11736735D01*
X13581086Y-11738182D01*
X13568815Y-11752550D01*
X13567550Y-11753815D01*
X13553182Y-11766086D01*
X13551735Y-11767137D01*
X13535623Y-11777010D01*
X13534029Y-11777823D01*
X13516573Y-11785053D01*
X13514871Y-11785606D01*
X13496499Y-11790017D01*
X13494732Y-11790297D01*
X13477709Y-11791637D01*
X13475446Y-11791815D01*
X13474552Y-11791850D01*
X9175448Y-11791850D01*
X9174554Y-11791815D01*
X9172031Y-11791616D01*
X9155268Y-11790297D01*
X9153501Y-11790017D01*
X9135128Y-11785606D01*
X9133427Y-11785053D01*
X9115970Y-11777823D01*
X9114377Y-11777010D01*
X9098265Y-11767137D01*
X9096819Y-11766086D01*
X9082450Y-11753814D01*
X9081185Y-11752550D01*
X9068913Y-11738181D01*
X9067862Y-11736735D01*
X9057989Y-11720623D01*
X9057178Y-11719030D01*
X9049946Y-11701572D01*
X9049394Y-11699872D01*
X9044983Y-11681498D01*
X9044703Y-11679732D01*
X9044360Y-11675370D01*
X9043185Y-11660446D01*
X9043150Y-11659551D01*
X9043150Y-11539949D01*
X9137950Y-11539949D01*
X9137950Y-11560051D01*
X9139883Y-11569768D01*
X9141872Y-11579767D01*
X9141872Y-11579767D01*
X9149564Y-11598338D01*
X9149565Y-11598339D01*
X9160732Y-11615053D01*
X9174947Y-11629268D01*
X9191660Y-11640435D01*
X9191661Y-11640436D01*
X9210233Y-11648128D01*
X9210233Y-11648128D01*
X9210233Y-11648128D01*
X9229949Y-11652050D01*
X9229949Y-11652050D01*
X9250051Y-11652050D01*
X9250051Y-11652050D01*
X9269767Y-11648128D01*
X9269767Y-11648128D01*
X9269768Y-11648128D01*
X9282148Y-11643000D01*
X9288339Y-11640436D01*
X9305053Y-11629267D01*
X9319267Y-11615053D01*
X9330436Y-11598339D01*
X9335129Y-11587007D01*
X9338128Y-11579767D01*
X9338128Y-11579767D01*
X9338128Y-11579767D01*
X9338128Y-11579767D01*
X9342050Y-11560051D01*
X9342050Y-11539949D01*
X9391950Y-11539949D01*
X9391950Y-11560051D01*
X9393883Y-11569768D01*
X9395872Y-11579767D01*
X9395872Y-11579767D01*
X9403564Y-11598338D01*
X9403565Y-11598339D01*
X9414732Y-11615053D01*
X9428947Y-11629268D01*
X9445660Y-11640435D01*
X9445661Y-11640436D01*
X9464233Y-11648128D01*
X9464233Y-11648128D01*
X9464233Y-11648128D01*
X9483949Y-11652050D01*
X9483949Y-11652050D01*
X9504051Y-11652050D01*
X9504051Y-11652050D01*
X9523767Y-11648128D01*
X9523767Y-11648128D01*
X9523768Y-11648128D01*
X9536148Y-11643000D01*
X9542339Y-11640436D01*
X9559053Y-11629267D01*
X9573267Y-11615053D01*
X9584436Y-11598339D01*
X9589129Y-11587007D01*
X9592128Y-11579767D01*
X9592128Y-11579767D01*
X9592128Y-11579767D01*
X9592128Y-11579767D01*
X9596050Y-11560051D01*
X9596050Y-11539949D01*
X9645950Y-11539949D01*
X9645950Y-11560051D01*
X9647883Y-11569768D01*
X9649872Y-11579767D01*
X9649872Y-11579767D01*
X9657564Y-11598338D01*
X9657565Y-11598339D01*
X9668732Y-11615053D01*
X9682947Y-11629268D01*
X9699660Y-11640435D01*
X9699661Y-11640436D01*
X9718233Y-11648128D01*
X9718233Y-11648128D01*
X9718233Y-11648128D01*
X9737949Y-11652050D01*
X9737949Y-11652050D01*
X9758051Y-11652050D01*
X9758051Y-11652050D01*
X9777767Y-11648128D01*
X9777767Y-11648128D01*
X9777768Y-11648128D01*
X9790148Y-11643000D01*
X9796339Y-11640436D01*
X9813053Y-11629267D01*
X9827267Y-11615053D01*
X9838436Y-11598339D01*
X9843129Y-11587007D01*
X9846128Y-11579767D01*
X9846128Y-11579767D01*
X9846128Y-11579767D01*
X9846128Y-11579767D01*
X9850050Y-11560051D01*
X9850050Y-11539949D01*
X9899950Y-11539949D01*
X9899950Y-11560051D01*
X9901883Y-11569768D01*
X9903872Y-11579767D01*
X9903872Y-11579767D01*
X9911564Y-11598338D01*
X9911565Y-11598339D01*
X9922732Y-11615053D01*
X9936947Y-11629268D01*
X9953660Y-11640435D01*
X9953661Y-11640436D01*
X9972233Y-11648128D01*
X9972233Y-11648128D01*
X9972233Y-11648128D01*
X9991949Y-11652050D01*
X9991949Y-11652050D01*
X10012051Y-11652050D01*
X10012051Y-11652050D01*
X10031767Y-11648128D01*
X10031767Y-11648128D01*
X10031768Y-11648128D01*
X10044148Y-11643000D01*
X10050339Y-11640436D01*
X10067053Y-11629267D01*
X10081267Y-11615053D01*
X10092436Y-11598339D01*
X10097129Y-11587007D01*
X10100128Y-11579767D01*
X10100128Y-11579767D01*
X10100128Y-11579767D01*
X10100128Y-11579767D01*
X10104050Y-11560051D01*
X10104050Y-11539949D01*
X10100997Y-11524600D01*
X10130630Y-11524600D01*
X10212930Y-11524600D01*
X10209408Y-11530701D01*
X10206000Y-11543417D01*
X10206000Y-11556583D01*
X10209408Y-11569299D01*
X10212930Y-11575400D01*
X10130630Y-11575400D01*
X10131347Y-11579927D01*
X10137563Y-11599058D01*
X10146696Y-11616982D01*
X10158520Y-11633256D01*
X10172744Y-11647480D01*
X10189018Y-11659304D01*
X10206942Y-11668437D01*
X10226073Y-11674653D01*
X10230600Y-11675370D01*
X10230600Y-11593070D01*
X10236701Y-11596592D01*
X10249417Y-11600000D01*
X10262583Y-11600000D01*
X10275299Y-11596592D01*
X10281400Y-11593070D01*
X10281400Y-11675370D01*
X10285927Y-11674653D01*
X10305058Y-11668437D01*
X10322982Y-11659304D01*
X10339256Y-11647480D01*
X10353480Y-11633256D01*
X10365304Y-11616982D01*
X10374437Y-11599058D01*
X10380653Y-11579927D01*
X10381370Y-11575400D01*
X10299070Y-11575400D01*
X10302593Y-11569299D01*
X10306000Y-11556583D01*
X10306000Y-11543417D01*
X10305071Y-11539949D01*
X10407950Y-11539949D01*
X10407950Y-11560051D01*
X10409883Y-11569768D01*
X10411872Y-11579767D01*
X10411872Y-11579767D01*
X10419564Y-11598338D01*
X10419565Y-11598339D01*
X10430732Y-11615053D01*
X10444947Y-11629268D01*
X10461660Y-11640435D01*
X10461661Y-11640436D01*
X10480233Y-11648128D01*
X10480233Y-11648128D01*
X10480233Y-11648128D01*
X10499949Y-11652050D01*
X10499949Y-11652050D01*
X10520051Y-11652050D01*
X10520051Y-11652050D01*
X10539767Y-11648128D01*
X10539767Y-11648128D01*
X10539768Y-11648128D01*
X10552148Y-11643000D01*
X10558339Y-11640436D01*
X10575053Y-11629267D01*
X10589267Y-11615053D01*
X10600436Y-11598339D01*
X10605129Y-11587007D01*
X10608128Y-11579767D01*
X10608128Y-11579767D01*
X10608128Y-11579767D01*
X10608128Y-11579767D01*
X10612050Y-11560051D01*
X10612050Y-11539949D01*
X10661950Y-11539949D01*
X10661950Y-11560051D01*
X10663883Y-11569768D01*
X10665872Y-11579767D01*
X10665872Y-11579767D01*
X10673564Y-11598338D01*
X10673565Y-11598339D01*
X10684732Y-11615053D01*
X10698947Y-11629268D01*
X10715660Y-11640435D01*
X10715661Y-11640436D01*
X10734233Y-11648128D01*
X10734233Y-11648128D01*
X10734233Y-11648128D01*
X10753949Y-11652050D01*
X10753949Y-11652050D01*
X10774051Y-11652050D01*
X10774051Y-11652050D01*
X10793767Y-11648128D01*
X10793767Y-11648128D01*
X10793768Y-11648128D01*
X10806148Y-11643000D01*
X10812339Y-11640436D01*
X10829053Y-11629267D01*
X10843267Y-11615053D01*
X10854436Y-11598339D01*
X10859129Y-11587007D01*
X10862128Y-11579767D01*
X10862128Y-11579767D01*
X10862128Y-11579767D01*
X10862128Y-11579767D01*
X10866050Y-11560051D01*
X10866050Y-11539949D01*
X10862997Y-11524600D01*
X10892630Y-11524600D01*
X10974930Y-11524600D01*
X10971408Y-11530701D01*
X10968000Y-11543417D01*
X10968000Y-11556583D01*
X10971408Y-11569299D01*
X10974930Y-11575400D01*
X10892630Y-11575400D01*
X10893347Y-11579927D01*
X10899563Y-11599058D01*
X10908696Y-11616982D01*
X10920520Y-11633256D01*
X10934744Y-11647480D01*
X10951018Y-11659304D01*
X10968942Y-11668437D01*
X10988073Y-11674653D01*
X10992600Y-11675370D01*
X10992600Y-11593070D01*
X10998701Y-11596592D01*
X11011417Y-11600000D01*
X11024583Y-11600000D01*
X11037299Y-11596592D01*
X11043400Y-11593070D01*
X11043400Y-11675370D01*
X11047927Y-11674653D01*
X11067058Y-11668437D01*
X11084982Y-11659304D01*
X11101256Y-11647480D01*
X11115480Y-11633256D01*
X11127304Y-11616982D01*
X11136437Y-11599058D01*
X11142653Y-11579927D01*
X11143370Y-11575400D01*
X11061070Y-11575400D01*
X11064593Y-11569299D01*
X11068000Y-11556583D01*
X11068000Y-11543417D01*
X11067071Y-11539949D01*
X11169950Y-11539949D01*
X11169950Y-11560051D01*
X11171883Y-11569768D01*
X11173872Y-11579767D01*
X11173872Y-11579767D01*
X11181564Y-11598338D01*
X11181565Y-11598339D01*
X11192732Y-11615053D01*
X11206947Y-11629268D01*
X11223660Y-11640435D01*
X11223661Y-11640436D01*
X11242232Y-11648128D01*
X11242233Y-11648128D01*
X11242233Y-11648128D01*
X11261949Y-11652050D01*
X11261949Y-11652050D01*
X11282051Y-11652050D01*
X11282051Y-11652050D01*
X11301767Y-11648128D01*
X11301767Y-11648128D01*
X11301767Y-11648128D01*
X11314148Y-11643000D01*
X11320339Y-11640436D01*
X11337053Y-11629267D01*
X11351267Y-11615053D01*
X11362436Y-11598339D01*
X11367129Y-11587007D01*
X11370128Y-11579767D01*
X11370128Y-11579767D01*
X11370128Y-11579767D01*
X11370128Y-11579767D01*
X11374050Y-11560051D01*
X11374050Y-11539949D01*
X11423950Y-11539949D01*
X11423950Y-11560051D01*
X11425883Y-11569768D01*
X11427872Y-11579767D01*
X11427872Y-11579767D01*
X11435564Y-11598338D01*
X11435565Y-11598339D01*
X11446732Y-11615053D01*
X11460947Y-11629268D01*
X11477660Y-11640435D01*
X11477661Y-11640436D01*
X11496232Y-11648128D01*
X11496233Y-11648128D01*
X11496233Y-11648128D01*
X11515949Y-11652050D01*
X11515949Y-11652050D01*
X11536051Y-11652050D01*
X11536051Y-11652050D01*
X11555767Y-11648128D01*
X11555767Y-11648128D01*
X11555767Y-11648128D01*
X11568148Y-11643000D01*
X11574339Y-11640436D01*
X11591053Y-11629267D01*
X11605267Y-11615053D01*
X11616436Y-11598339D01*
X11621129Y-11587007D01*
X11624128Y-11579767D01*
X11624128Y-11579767D01*
X11624128Y-11579767D01*
X11624128Y-11579767D01*
X11628050Y-11560051D01*
X11628050Y-11539949D01*
X11677950Y-11539949D01*
X11677950Y-11560051D01*
X11679883Y-11569768D01*
X11681872Y-11579767D01*
X11681872Y-11579767D01*
X11689564Y-11598338D01*
X11689565Y-11598339D01*
X11700732Y-11615053D01*
X11714947Y-11629268D01*
X11731660Y-11640435D01*
X11731661Y-11640436D01*
X11750232Y-11648128D01*
X11750233Y-11648128D01*
X11750233Y-11648128D01*
X11769949Y-11652050D01*
X11769949Y-11652050D01*
X11790051Y-11652050D01*
X11790051Y-11652050D01*
X11809767Y-11648128D01*
X11809767Y-11648128D01*
X11809767Y-11648128D01*
X11822148Y-11643000D01*
X11828339Y-11640436D01*
X11845053Y-11629267D01*
X11859267Y-11615053D01*
X11870436Y-11598339D01*
X11875129Y-11587007D01*
X11878128Y-11579767D01*
X11878128Y-11579767D01*
X11878128Y-11579767D01*
X11878128Y-11579767D01*
X11882050Y-11560051D01*
X11882050Y-11539949D01*
X11931950Y-11539949D01*
X11931950Y-11560051D01*
X11933883Y-11569768D01*
X11935872Y-11579767D01*
X11935872Y-11579767D01*
X11943564Y-11598338D01*
X11943565Y-11598339D01*
X11954732Y-11615053D01*
X11968947Y-11629268D01*
X11985660Y-11640435D01*
X11985661Y-11640436D01*
X12004232Y-11648128D01*
X12004233Y-11648128D01*
X12004233Y-11648128D01*
X12023949Y-11652050D01*
X12023949Y-11652050D01*
X12044051Y-11652050D01*
X12044051Y-11652050D01*
X12063767Y-11648128D01*
X12063767Y-11648128D01*
X12063767Y-11648128D01*
X12076148Y-11643000D01*
X12082339Y-11640436D01*
X12099053Y-11629267D01*
X12113267Y-11615053D01*
X12124436Y-11598339D01*
X12129129Y-11587007D01*
X12132128Y-11579767D01*
X12132128Y-11579767D01*
X12132128Y-11579767D01*
X12132128Y-11579767D01*
X12136050Y-11560051D01*
X12136050Y-11539949D01*
X12132997Y-11524600D01*
X12162630Y-11524600D01*
X12244930Y-11524600D01*
X12241407Y-11530701D01*
X12238000Y-11543417D01*
X12238000Y-11556583D01*
X12241407Y-11569299D01*
X12244930Y-11575400D01*
X12162630Y-11575400D01*
X12163347Y-11579927D01*
X12169563Y-11599058D01*
X12178696Y-11616982D01*
X12190520Y-11633256D01*
X12204744Y-11647480D01*
X12221018Y-11659304D01*
X12238942Y-11668437D01*
X12258073Y-11674653D01*
X12262600Y-11675370D01*
X12262600Y-11593070D01*
X12268701Y-11596592D01*
X12281417Y-11600000D01*
X12294583Y-11600000D01*
X12307299Y-11596592D01*
X12313400Y-11593070D01*
X12313400Y-11675370D01*
X12317927Y-11674653D01*
X12337058Y-11668437D01*
X12354982Y-11659304D01*
X12371256Y-11647480D01*
X12385480Y-11633256D01*
X12397304Y-11616982D01*
X12406437Y-11599058D01*
X12412653Y-11579927D01*
X12413370Y-11575400D01*
X12331070Y-11575400D01*
X12334592Y-11569299D01*
X12338000Y-11556583D01*
X12338000Y-11543417D01*
X12337071Y-11539949D01*
X12439950Y-11539949D01*
X12439950Y-11560051D01*
X12441883Y-11569768D01*
X12443872Y-11579767D01*
X12443872Y-11579767D01*
X12451564Y-11598338D01*
X12451565Y-11598339D01*
X12462732Y-11615053D01*
X12476947Y-11629268D01*
X12493660Y-11640435D01*
X12493661Y-11640436D01*
X12512232Y-11648128D01*
X12512233Y-11648128D01*
X12512233Y-11648128D01*
X12531949Y-11652050D01*
X12531949Y-11652050D01*
X12552051Y-11652050D01*
X12552051Y-11652050D01*
X12571767Y-11648128D01*
X12571767Y-11648128D01*
X12571767Y-11648128D01*
X12584148Y-11643000D01*
X12590339Y-11640436D01*
X12607053Y-11629267D01*
X12621267Y-11615053D01*
X12632436Y-11598339D01*
X12637129Y-11587007D01*
X12640128Y-11579767D01*
X12640128Y-11579767D01*
X12640128Y-11579767D01*
X12640128Y-11579767D01*
X12644050Y-11560051D01*
X12644050Y-11539949D01*
X12693950Y-11539949D01*
X12693950Y-11560051D01*
X12695883Y-11569768D01*
X12697872Y-11579767D01*
X12697872Y-11579767D01*
X12705564Y-11598338D01*
X12705565Y-11598339D01*
X12716732Y-11615053D01*
X12730947Y-11629268D01*
X12747660Y-11640435D01*
X12747661Y-11640436D01*
X12766232Y-11648128D01*
X12766233Y-11648128D01*
X12766233Y-11648128D01*
X12785949Y-11652050D01*
X12785949Y-11652050D01*
X12806051Y-11652050D01*
X12806051Y-11652050D01*
X12825767Y-11648128D01*
X12825767Y-11648128D01*
X12825767Y-11648128D01*
X12838148Y-11643000D01*
X12844339Y-11640436D01*
X12861053Y-11629267D01*
X12875267Y-11615053D01*
X12886436Y-11598339D01*
X12891129Y-11587007D01*
X12894128Y-11579767D01*
X12894128Y-11579767D01*
X12894128Y-11579767D01*
X12894128Y-11579767D01*
X12898050Y-11560051D01*
X12898050Y-11539949D01*
X12894128Y-11520233D01*
X12894128Y-11520232D01*
X12894128Y-11520232D01*
X12886436Y-11501661D01*
X12886435Y-11501660D01*
X12875268Y-11484947D01*
X12861053Y-11470732D01*
X12858546Y-11469057D01*
X12858546Y-11469057D01*
X12844758Y-11459844D01*
X12922200Y-11459844D01*
X12922200Y-11524600D01*
X13006930Y-11524600D01*
X13003407Y-11530701D01*
X13000000Y-11543417D01*
X13000000Y-11556583D01*
X13003407Y-11569299D01*
X13006930Y-11575400D01*
X12922200Y-11575400D01*
X12922200Y-11640155D01*
X12922471Y-11643046D01*
X12926733Y-11655225D01*
X12926733Y-11655225D01*
X12934394Y-11665606D01*
X12934394Y-11665606D01*
X12944775Y-11673267D01*
X12956953Y-11677529D01*
X12959845Y-11677800D01*
X13024600Y-11677800D01*
X13024600Y-11593070D01*
X13030701Y-11596592D01*
X13043417Y-11600000D01*
X13056583Y-11600000D01*
X13069299Y-11596592D01*
X13075400Y-11593070D01*
X13075400Y-11677800D01*
X13133362Y-11677800D01*
X13139525Y-11679610D01*
X13143732Y-11684464D01*
X13144646Y-11690822D01*
X13143561Y-11693956D01*
X13143647Y-11693991D01*
X13143361Y-11694681D01*
X13143361Y-11694681D01*
X13139950Y-11707411D01*
X13139950Y-11720589D01*
X13139959Y-11720623D01*
X13143361Y-11733318D01*
X13149950Y-11744731D01*
X13149950Y-11744732D01*
X13159268Y-11754050D01*
X13159269Y-11754050D01*
X13170681Y-11760639D01*
X13183411Y-11764050D01*
X13183411Y-11764050D01*
X13196589Y-11764050D01*
X13196589Y-11764050D01*
X13209319Y-11760639D01*
X13220731Y-11754050D01*
X13230050Y-11744731D01*
X13236639Y-11733319D01*
X13240050Y-11720589D01*
X13240050Y-11707411D01*
X13236639Y-11694681D01*
X13230050Y-11683269D01*
X13230050Y-11683268D01*
X13220732Y-11673950D01*
X13220731Y-11673950D01*
X13209318Y-11667361D01*
X13202769Y-11665606D01*
X13196589Y-11663950D01*
X13186281Y-11663950D01*
X13180118Y-11662140D01*
X13175911Y-11657286D01*
X13174997Y-11650928D01*
X13175521Y-11648785D01*
X13177529Y-11643047D01*
X13177800Y-11640156D01*
X13177800Y-11640154D01*
X13177800Y-11575400D01*
X13093070Y-11575400D01*
X13096592Y-11569299D01*
X13100000Y-11556583D01*
X13100000Y-11543417D01*
X13096592Y-11530701D01*
X13093070Y-11524600D01*
X13177800Y-11524600D01*
X13177800Y-11459845D01*
X13177529Y-11456953D01*
X13173267Y-11444775D01*
X13173267Y-11444775D01*
X13165606Y-11434394D01*
X13165606Y-11434394D01*
X13155225Y-11426733D01*
X13143047Y-11422471D01*
X13140156Y-11422200D01*
X13075400Y-11422200D01*
X13075400Y-11506930D01*
X13069299Y-11503407D01*
X13056583Y-11500000D01*
X13043417Y-11500000D01*
X13030701Y-11503407D01*
X13024600Y-11506930D01*
X13024600Y-11422200D01*
X12959845Y-11422200D01*
X12956953Y-11422471D01*
X12944775Y-11426733D01*
X12944775Y-11426733D01*
X12934394Y-11434394D01*
X12934394Y-11434394D01*
X12926733Y-11444775D01*
X12926733Y-11444775D01*
X12922471Y-11456953D01*
X12922200Y-11459844D01*
X12844758Y-11459844D01*
X12844340Y-11459565D01*
X12844338Y-11459564D01*
X12825767Y-11451872D01*
X12825767Y-11451872D01*
X12806051Y-11447950D01*
X12785949Y-11447950D01*
X12771060Y-11450912D01*
X12766232Y-11451872D01*
X12766232Y-11451872D01*
X12747661Y-11459564D01*
X12747660Y-11459565D01*
X12730947Y-11470732D01*
X12716732Y-11484947D01*
X12705565Y-11501660D01*
X12705564Y-11501661D01*
X12697872Y-11520232D01*
X12697872Y-11520232D01*
X12697003Y-11524600D01*
X12693950Y-11539949D01*
X12644050Y-11539949D01*
X12640128Y-11520233D01*
X12640128Y-11520232D01*
X12640128Y-11520232D01*
X12632436Y-11501661D01*
X12632435Y-11501660D01*
X12621268Y-11484947D01*
X12607053Y-11470732D01*
X12590339Y-11459565D01*
X12590338Y-11459564D01*
X12571767Y-11451872D01*
X12571767Y-11451872D01*
X12552051Y-11447950D01*
X12531949Y-11447950D01*
X12517060Y-11450912D01*
X12512232Y-11451872D01*
X12512232Y-11451872D01*
X12493661Y-11459564D01*
X12493660Y-11459565D01*
X12476947Y-11470732D01*
X12462732Y-11484947D01*
X12451565Y-11501660D01*
X12451564Y-11501661D01*
X12443872Y-11520232D01*
X12443872Y-11520232D01*
X12443003Y-11524600D01*
X12439950Y-11539949D01*
X12337071Y-11539949D01*
X12334592Y-11530701D01*
X12331070Y-11524600D01*
X12413370Y-11524600D01*
X12412653Y-11520073D01*
X12406437Y-11500942D01*
X12397304Y-11483018D01*
X12385480Y-11466744D01*
X12371256Y-11452520D01*
X12354982Y-11440696D01*
X12337058Y-11431563D01*
X12317927Y-11425347D01*
X12317925Y-11425346D01*
X12313400Y-11424630D01*
X12313400Y-11506930D01*
X12307299Y-11503407D01*
X12294583Y-11500000D01*
X12281417Y-11500000D01*
X12268701Y-11503407D01*
X12262600Y-11506930D01*
X12262600Y-11424630D01*
X12262600Y-11424630D01*
X12258075Y-11425346D01*
X12258073Y-11425347D01*
X12238942Y-11431563D01*
X12221018Y-11440696D01*
X12204744Y-11452520D01*
X12190520Y-11466744D01*
X12178696Y-11483018D01*
X12169563Y-11500942D01*
X12163347Y-11520073D01*
X12162630Y-11524600D01*
X12132997Y-11524600D01*
X12132128Y-11520233D01*
X12132128Y-11520232D01*
X12132128Y-11520232D01*
X12124436Y-11501661D01*
X12124435Y-11501660D01*
X12113268Y-11484947D01*
X12099053Y-11470732D01*
X12082339Y-11459565D01*
X12082338Y-11459564D01*
X12063767Y-11451872D01*
X12063767Y-11451872D01*
X12044051Y-11447950D01*
X12023949Y-11447950D01*
X12009060Y-11450912D01*
X12004232Y-11451872D01*
X12004232Y-11451872D01*
X11985661Y-11459564D01*
X11985660Y-11459565D01*
X11968947Y-11470732D01*
X11954732Y-11484947D01*
X11943565Y-11501660D01*
X11943564Y-11501661D01*
X11935872Y-11520232D01*
X11935872Y-11520232D01*
X11935003Y-11524600D01*
X11931950Y-11539949D01*
X11882050Y-11539949D01*
X11878128Y-11520233D01*
X11878128Y-11520232D01*
X11878128Y-11520232D01*
X11870436Y-11501661D01*
X11870435Y-11501660D01*
X11859268Y-11484947D01*
X11845053Y-11470732D01*
X11828339Y-11459565D01*
X11828338Y-11459564D01*
X11809767Y-11451872D01*
X11809767Y-11451872D01*
X11790051Y-11447950D01*
X11769949Y-11447950D01*
X11755060Y-11450912D01*
X11750232Y-11451872D01*
X11750232Y-11451872D01*
X11731661Y-11459564D01*
X11731660Y-11459565D01*
X11714947Y-11470732D01*
X11700732Y-11484947D01*
X11689565Y-11501660D01*
X11689564Y-11501661D01*
X11681872Y-11520232D01*
X11681872Y-11520232D01*
X11681003Y-11524600D01*
X11677950Y-11539949D01*
X11628050Y-11539949D01*
X11624128Y-11520233D01*
X11624128Y-11520232D01*
X11624128Y-11520232D01*
X11616436Y-11501661D01*
X11616435Y-11501660D01*
X11605268Y-11484947D01*
X11591053Y-11470732D01*
X11574339Y-11459565D01*
X11574338Y-11459564D01*
X11555767Y-11451872D01*
X11555767Y-11451872D01*
X11536051Y-11447950D01*
X11515949Y-11447950D01*
X11501060Y-11450912D01*
X11496232Y-11451872D01*
X11496232Y-11451872D01*
X11477661Y-11459564D01*
X11477660Y-11459565D01*
X11460947Y-11470732D01*
X11446732Y-11484947D01*
X11435565Y-11501660D01*
X11435564Y-11501661D01*
X11427872Y-11520232D01*
X11427872Y-11520232D01*
X11427003Y-11524600D01*
X11423950Y-11539949D01*
X11374050Y-11539949D01*
X11370128Y-11520233D01*
X11370128Y-11520232D01*
X11370128Y-11520232D01*
X11362436Y-11501661D01*
X11362435Y-11501660D01*
X11351268Y-11484947D01*
X11337053Y-11470732D01*
X11320339Y-11459565D01*
X11320338Y-11459564D01*
X11301767Y-11451872D01*
X11301767Y-11451872D01*
X11282051Y-11447950D01*
X11261949Y-11447950D01*
X11247060Y-11450912D01*
X11242232Y-11451872D01*
X11242232Y-11451872D01*
X11223661Y-11459564D01*
X11223660Y-11459565D01*
X11206947Y-11470732D01*
X11192732Y-11484947D01*
X11181565Y-11501660D01*
X11181564Y-11501661D01*
X11173872Y-11520232D01*
X11173872Y-11520232D01*
X11173003Y-11524600D01*
X11169950Y-11539949D01*
X11067071Y-11539949D01*
X11064593Y-11530701D01*
X11061070Y-11524600D01*
X11143370Y-11524600D01*
X11142653Y-11520073D01*
X11136437Y-11500942D01*
X11127304Y-11483018D01*
X11115480Y-11466744D01*
X11101256Y-11452520D01*
X11084982Y-11440696D01*
X11067058Y-11431563D01*
X11047927Y-11425347D01*
X11047925Y-11425346D01*
X11043400Y-11424630D01*
X11043400Y-11506930D01*
X11037299Y-11503407D01*
X11024583Y-11500000D01*
X11011417Y-11500000D01*
X10998701Y-11503407D01*
X10992600Y-11506930D01*
X10992600Y-11424630D01*
X10992600Y-11424630D01*
X10988075Y-11425346D01*
X10988073Y-11425347D01*
X10968942Y-11431563D01*
X10951018Y-11440696D01*
X10934744Y-11452520D01*
X10920520Y-11466744D01*
X10908696Y-11483018D01*
X10899563Y-11500942D01*
X10893347Y-11520073D01*
X10892630Y-11524600D01*
X10862997Y-11524600D01*
X10862128Y-11520233D01*
X10862128Y-11520232D01*
X10862128Y-11520232D01*
X10854436Y-11501661D01*
X10854435Y-11501660D01*
X10843268Y-11484947D01*
X10829053Y-11470732D01*
X10812340Y-11459565D01*
X10812339Y-11459564D01*
X10793767Y-11451872D01*
X10793767Y-11451872D01*
X10774051Y-11447950D01*
X10753949Y-11447950D01*
X10739060Y-11450912D01*
X10734233Y-11451872D01*
X10734232Y-11451872D01*
X10715661Y-11459564D01*
X10715660Y-11459565D01*
X10698947Y-11470732D01*
X10684732Y-11484947D01*
X10673565Y-11501660D01*
X10673564Y-11501661D01*
X10665872Y-11520232D01*
X10665872Y-11520232D01*
X10665003Y-11524600D01*
X10661950Y-11539949D01*
X10612050Y-11539949D01*
X10608128Y-11520233D01*
X10608128Y-11520232D01*
X10608128Y-11520232D01*
X10600436Y-11501661D01*
X10600435Y-11501660D01*
X10589268Y-11484947D01*
X10575053Y-11470732D01*
X10558340Y-11459565D01*
X10558339Y-11459564D01*
X10539767Y-11451872D01*
X10539767Y-11451872D01*
X10520051Y-11447950D01*
X10499949Y-11447950D01*
X10485060Y-11450912D01*
X10480233Y-11451872D01*
X10480232Y-11451872D01*
X10461661Y-11459564D01*
X10461660Y-11459565D01*
X10444947Y-11470732D01*
X10430732Y-11484947D01*
X10419565Y-11501660D01*
X10419564Y-11501661D01*
X10411872Y-11520232D01*
X10411872Y-11520232D01*
X10411003Y-11524600D01*
X10407950Y-11539949D01*
X10305071Y-11539949D01*
X10302593Y-11530701D01*
X10299070Y-11524600D01*
X10381370Y-11524600D01*
X10380653Y-11520073D01*
X10374437Y-11500942D01*
X10365304Y-11483018D01*
X10353480Y-11466744D01*
X10339256Y-11452520D01*
X10322982Y-11440696D01*
X10305058Y-11431563D01*
X10285927Y-11425347D01*
X10285925Y-11425346D01*
X10281400Y-11424630D01*
X10281400Y-11506930D01*
X10275299Y-11503407D01*
X10262583Y-11500000D01*
X10249417Y-11500000D01*
X10236701Y-11503407D01*
X10230600Y-11506930D01*
X10230600Y-11424630D01*
X10230600Y-11424630D01*
X10226075Y-11425346D01*
X10226073Y-11425347D01*
X10206942Y-11431563D01*
X10189018Y-11440696D01*
X10172744Y-11452520D01*
X10158520Y-11466744D01*
X10146696Y-11483018D01*
X10137563Y-11500942D01*
X10131347Y-11520073D01*
X10130630Y-11524600D01*
X10100997Y-11524600D01*
X10100128Y-11520233D01*
X10100128Y-11520232D01*
X10100128Y-11520232D01*
X10092436Y-11501661D01*
X10092435Y-11501660D01*
X10081268Y-11484947D01*
X10067053Y-11470732D01*
X10050340Y-11459565D01*
X10050339Y-11459564D01*
X10031767Y-11451872D01*
X10031767Y-11451872D01*
X10012051Y-11447950D01*
X9991949Y-11447950D01*
X9977060Y-11450912D01*
X9972233Y-11451872D01*
X9972232Y-11451872D01*
X9953661Y-11459564D01*
X9953660Y-11459565D01*
X9936947Y-11470732D01*
X9922732Y-11484947D01*
X9911565Y-11501660D01*
X9911564Y-11501661D01*
X9903872Y-11520232D01*
X9903872Y-11520232D01*
X9903003Y-11524600D01*
X9899950Y-11539949D01*
X9850050Y-11539949D01*
X9846128Y-11520233D01*
X9846128Y-11520232D01*
X9846128Y-11520232D01*
X9838436Y-11501661D01*
X9838435Y-11501660D01*
X9827268Y-11484947D01*
X9813053Y-11470732D01*
X9796340Y-11459565D01*
X9796339Y-11459564D01*
X9777767Y-11451872D01*
X9777767Y-11451872D01*
X9758051Y-11447950D01*
X9737949Y-11447950D01*
X9723060Y-11450912D01*
X9718233Y-11451872D01*
X9718232Y-11451872D01*
X9699661Y-11459564D01*
X9699660Y-11459565D01*
X9682947Y-11470732D01*
X9668732Y-11484947D01*
X9657565Y-11501660D01*
X9657564Y-11501661D01*
X9649872Y-11520232D01*
X9649872Y-11520232D01*
X9649003Y-11524600D01*
X9645950Y-11539949D01*
X9596050Y-11539949D01*
X9592128Y-11520233D01*
X9592128Y-11520232D01*
X9592128Y-11520232D01*
X9584436Y-11501661D01*
X9584435Y-11501660D01*
X9573268Y-11484947D01*
X9559053Y-11470732D01*
X9542340Y-11459565D01*
X9542339Y-11459564D01*
X9523767Y-11451872D01*
X9523767Y-11451872D01*
X9504051Y-11447950D01*
X9483949Y-11447950D01*
X9469060Y-11450912D01*
X9464233Y-11451872D01*
X9464232Y-11451872D01*
X9445661Y-11459564D01*
X9445660Y-11459565D01*
X9428947Y-11470732D01*
X9414732Y-11484947D01*
X9403565Y-11501660D01*
X9403564Y-11501661D01*
X9395872Y-11520232D01*
X9395872Y-11520232D01*
X9395003Y-11524600D01*
X9391950Y-11539949D01*
X9342050Y-11539949D01*
X9338128Y-11520233D01*
X9338128Y-11520232D01*
X9338128Y-11520232D01*
X9330436Y-11501661D01*
X9330435Y-11501660D01*
X9319268Y-11484947D01*
X9305053Y-11470732D01*
X9288340Y-11459565D01*
X9288339Y-11459564D01*
X9269767Y-11451872D01*
X9269767Y-11451872D01*
X9250051Y-11447950D01*
X9229949Y-11447950D01*
X9215060Y-11450912D01*
X9210233Y-11451872D01*
X9210232Y-11451872D01*
X9191661Y-11459564D01*
X9191660Y-11459565D01*
X9174947Y-11470732D01*
X9160732Y-11484947D01*
X9149565Y-11501660D01*
X9149564Y-11501661D01*
X9141872Y-11520232D01*
X9141872Y-11520232D01*
X9141003Y-11524600D01*
X9137950Y-11539949D01*
X9043150Y-11539949D01*
X9043150Y-11322489D01*
X11142950Y-11322489D01*
X11142950Y-11337511D01*
X11146492Y-11350731D01*
X11146838Y-11352020D01*
X11154349Y-11365029D01*
X11154349Y-11365030D01*
X11164970Y-11375651D01*
X11164971Y-11375651D01*
X11177980Y-11383162D01*
X11192489Y-11387050D01*
X11192489Y-11387050D01*
X11207510Y-11387050D01*
X11207511Y-11387050D01*
X11222020Y-11383162D01*
X11235029Y-11375651D01*
X11245651Y-11365029D01*
X11253162Y-11352020D01*
X11257050Y-11337511D01*
X11257050Y-11322489D01*
X11292950Y-11322489D01*
X11292950Y-11337511D01*
X11296492Y-11350731D01*
X11296838Y-11352020D01*
X11304348Y-11365029D01*
X11304349Y-11365030D01*
X11314970Y-11375651D01*
X11314970Y-11375651D01*
X11327979Y-11383162D01*
X11342489Y-11387050D01*
X11342489Y-11387050D01*
X11357510Y-11387050D01*
X11357511Y-11387050D01*
X11372020Y-11383162D01*
X11385029Y-11375651D01*
X11395651Y-11365029D01*
X11403162Y-11352020D01*
X11407050Y-11337511D01*
X11407050Y-11322489D01*
X11404617Y-11313411D01*
X13219950Y-11313411D01*
X13219950Y-11326589D01*
X13221735Y-11333251D01*
X13223361Y-11339318D01*
X13229950Y-11350731D01*
X13229950Y-11350732D01*
X13239268Y-11360050D01*
X13239269Y-11360050D01*
X13250681Y-11366639D01*
X13263411Y-11370050D01*
X13263411Y-11370050D01*
X13276589Y-11370050D01*
X13276589Y-11370050D01*
X13289319Y-11366639D01*
X13300731Y-11360050D01*
X13310050Y-11350731D01*
X13316639Y-11339319D01*
X13320050Y-11326589D01*
X13320050Y-11313411D01*
X13316639Y-11300681D01*
X13310050Y-11289269D01*
X13310050Y-11289268D01*
X13300732Y-11279950D01*
X13300731Y-11279950D01*
X13289318Y-11273361D01*
X13283251Y-11271735D01*
X13276589Y-11269950D01*
X13263411Y-11269950D01*
X13257738Y-11271470D01*
X13250681Y-11273361D01*
X13239269Y-11279950D01*
X13239268Y-11279950D01*
X13229950Y-11289268D01*
X13229950Y-11289269D01*
X13223361Y-11300681D01*
X13221405Y-11307979D01*
X13219950Y-11313411D01*
X11404617Y-11313411D01*
X11403162Y-11307979D01*
X11395651Y-11294970D01*
X11395651Y-11294970D01*
X11385030Y-11284349D01*
X11385029Y-11284348D01*
X11372020Y-11276838D01*
X11357511Y-11272950D01*
X11342489Y-11272950D01*
X11331607Y-11275866D01*
X11327979Y-11276838D01*
X11314970Y-11284348D01*
X11314970Y-11284349D01*
X11304349Y-11294970D01*
X11304348Y-11294970D01*
X11296838Y-11307979D01*
X11296838Y-11307979D01*
X11292950Y-11322489D01*
X11257050Y-11322489D01*
X11253162Y-11307979D01*
X11245651Y-11294970D01*
X11245651Y-11294970D01*
X11235030Y-11284349D01*
X11235029Y-11284348D01*
X11222020Y-11276838D01*
X11207511Y-11272950D01*
X11192489Y-11272950D01*
X11181607Y-11275866D01*
X11177979Y-11276838D01*
X11164971Y-11284348D01*
X11164970Y-11284349D01*
X11154349Y-11294970D01*
X11154349Y-11294970D01*
X11146838Y-11307979D01*
X11146838Y-11307979D01*
X11142950Y-11322489D01*
X9043150Y-11322489D01*
X9043150Y-11260448D01*
X9043185Y-11259554D01*
X9043879Y-11250732D01*
X9044703Y-11240268D01*
X9044983Y-11238501D01*
X9049394Y-11220127D01*
X9049946Y-11218428D01*
X9052024Y-11213411D01*
X9099950Y-11213411D01*
X9099950Y-11226589D01*
X9101735Y-11233251D01*
X9103361Y-11239318D01*
X9109950Y-11250731D01*
X9109950Y-11250732D01*
X9119268Y-11260050D01*
X9119269Y-11260050D01*
X9130681Y-11266639D01*
X9143411Y-11270050D01*
X9143411Y-11270050D01*
X9156589Y-11270050D01*
X9156589Y-11270050D01*
X9169319Y-11266639D01*
X9180731Y-11260050D01*
X9190050Y-11250731D01*
X9196639Y-11239319D01*
X9200050Y-11226589D01*
X9200050Y-11213411D01*
X9196639Y-11200681D01*
X9190050Y-11189269D01*
X9190050Y-11189268D01*
X9180732Y-11179950D01*
X9180731Y-11179950D01*
X9169319Y-11173361D01*
X9163251Y-11171735D01*
X9156589Y-11169950D01*
X9143411Y-11169950D01*
X9137738Y-11171470D01*
X9130681Y-11173361D01*
X9119269Y-11179950D01*
X9119268Y-11179950D01*
X9109950Y-11189268D01*
X9109950Y-11189269D01*
X9103361Y-11200681D01*
X9101140Y-11208969D01*
X9099950Y-11213411D01*
X9052024Y-11213411D01*
X9057178Y-11200970D01*
X9057579Y-11200183D01*
X9057603Y-11200058D01*
X9057686Y-11199973D01*
X9057989Y-11199378D01*
X9067863Y-11183264D01*
X9068913Y-11181819D01*
X9081186Y-11167449D01*
X9082449Y-11166186D01*
X9096819Y-11153913D01*
X9098264Y-11152863D01*
X9114378Y-11142989D01*
X9115969Y-11142178D01*
X9133428Y-11134946D01*
X9135128Y-11134394D01*
X9152118Y-11130315D01*
X9154779Y-11130000D01*
X13148351Y-11130000D01*
X13150575Y-11130219D01*
G37*
%TD.AperFunction*%
%TD*%
M02*
