%TF.GenerationSoftware,KiCad,Pcbnew,7.0.1-2.fc38*%
%TF.CreationDate,2023-04-23T00:49:20-04:00*%
%TF.ProjectId,ext-con-breakout-board,6578742d-636f-46e2-9d62-7265616b6f75,v0.6*%
%TF.SameCoordinates,Original*%
%TF.FileFunction,Profile,NP*%
%FSLAX46Y46*%
G04 Gerber Fmt 4.6, Leading zero omitted, Abs format (unit mm)*
G04 Created by KiCad (PCBNEW 7.0.1-2.fc38) date 2023-04-23 00:49:20*
%MOMM*%
%LPD*%
G01*
G04 APERTURE LIST*
%TA.AperFunction,Profile*%
%ADD10C,0.100000*%
%TD*%
G04 APERTURE END LIST*
D10*
X121023900Y-86300004D02*
G75*
G03*
X117534221Y-88515701I-19200J-3825696D01*
G01*
X134750000Y-118100000D02*
X91750000Y-118100000D01*
X120250000Y-109100000D02*
G75*
G03*
X122250000Y-111100000I2000000J0D01*
G01*
X131200000Y-85000000D02*
X123900000Y-85000000D01*
X122250000Y-111100000D02*
X131242572Y-111100000D01*
X122000000Y-86300019D02*
G75*
G03*
X122949999Y-85650000I0J1019219D01*
G01*
X122950041Y-90349984D02*
G75*
G03*
X122000000Y-89700000I-950041J-369316D01*
G01*
X135664214Y-114693214D02*
X132656786Y-111685786D01*
X114750000Y-111100000D02*
G75*
G03*
X116750000Y-109100000I0J2000000D01*
G01*
X90250000Y-116600000D02*
X90250000Y-112600000D01*
X123900000Y-91000000D02*
X131200000Y-91000000D01*
X132200000Y-86000000D02*
G75*
G03*
X131200000Y-85000000I-1000000J0D01*
G01*
X136250022Y-116107428D02*
G75*
G03*
X135664214Y-114693214I-2000122J-72D01*
G01*
X122949959Y-90350016D02*
G75*
G03*
X123900000Y-91000000I950041J369316D01*
G01*
X136250000Y-116107428D02*
X136250000Y-116600000D01*
X120250000Y-91160000D02*
X120250000Y-109100000D01*
X117209865Y-89184685D02*
G75*
G03*
X116750001Y-91160000I4048135J-1983615D01*
G01*
X117209859Y-89184682D02*
X117534221Y-88515701D01*
X120350008Y-90730004D02*
G75*
G03*
X120250000Y-91160000I881292J-431596D01*
G01*
X116750000Y-91160000D02*
X116750000Y-109100000D01*
X122000000Y-86300000D02*
X121023900Y-86300000D01*
X121240000Y-89700000D02*
G75*
G03*
X120680000Y-90050000I0J-623000D01*
G01*
X132200000Y-86000000D02*
X132200000Y-90000000D01*
X134750000Y-118100000D02*
G75*
G03*
X136250000Y-116600000I0J1500000D01*
G01*
X91750000Y-111100000D02*
G75*
G03*
X90250000Y-112600000I0J-1500000D01*
G01*
X90250000Y-116600000D02*
G75*
G03*
X91750000Y-118100000I1500000J0D01*
G01*
X123900000Y-84999981D02*
G75*
G03*
X122950001Y-85650000I0J-1019219D01*
G01*
X122000000Y-89700000D02*
X121240000Y-89700000D01*
X120350000Y-90730000D02*
X120680000Y-90050000D01*
X91750000Y-111100000D02*
X114750000Y-111100000D01*
X132656779Y-111685793D02*
G75*
G03*
X131242572Y-111100000I-1414179J-1414107D01*
G01*
X131200000Y-91000000D02*
G75*
G03*
X132200000Y-90000000I0J1000000D01*
G01*
M02*
