%TF.GenerationSoftware,KiCad,Pcbnew,8.0.2-1.fc40*%
%TF.CreationDate,2024-05-25T13:03:00-04:00*%
%TF.ProjectId,ext-con-breakout-board,6578742d-636f-46e2-9d62-7265616b6f75,v0.6*%
%TF.SameCoordinates,Original*%
%TF.FileFunction,Copper,L1,Top*%
%TF.FilePolarity,Positive*%
%FSLAX46Y46*%
G04 Gerber Fmt 4.6, Leading zero omitted, Abs format (unit mm)*
G04 Created by KiCad (PCBNEW 8.0.2-1.fc40) date 2024-05-25 13:03:00*
%MOMM*%
%LPD*%
G01*
G04 APERTURE LIST*
G04 Aperture macros list*
%AMRoundRect*
0 Rectangle with rounded corners*
0 $1 Rounding radius*
0 $2 $3 $4 $5 $6 $7 $8 $9 X,Y pos of 4 corners*
0 Add a 4 corners polygon primitive as box body*
4,1,4,$2,$3,$4,$5,$6,$7,$8,$9,$2,$3,0*
0 Add four circle primitives for the rounded corners*
1,1,$1+$1,$2,$3*
1,1,$1+$1,$4,$5*
1,1,$1+$1,$6,$7*
1,1,$1+$1,$8,$9*
0 Add four rect primitives between the rounded corners*
20,1,$1+$1,$2,$3,$4,$5,0*
20,1,$1+$1,$4,$5,$6,$7,0*
20,1,$1+$1,$6,$7,$8,$9,0*
20,1,$1+$1,$8,$9,$2,$3,0*%
G04 Aperture macros list end*
%TA.AperFunction,SMDPad,CuDef*%
%ADD10C,0.500000*%
%TD*%
%TA.AperFunction,SMDPad,CuDef*%
%ADD11RoundRect,0.147500X0.147500X0.172500X-0.147500X0.172500X-0.147500X-0.172500X0.147500X-0.172500X0*%
%TD*%
%TA.AperFunction,ComponentPad*%
%ADD12R,1.700000X1.700000*%
%TD*%
%TA.AperFunction,ComponentPad*%
%ADD13O,1.700000X1.700000*%
%TD*%
%TA.AperFunction,ComponentPad*%
%ADD14C,2.800000*%
%TD*%
%TA.AperFunction,SMDPad,CuDef*%
%ADD15RoundRect,0.147500X-0.147500X-0.172500X0.147500X-0.172500X0.147500X0.172500X-0.147500X0.172500X0*%
%TD*%
%TA.AperFunction,SMDPad,CuDef*%
%ADD16RoundRect,0.140000X-0.140000X-0.170000X0.140000X-0.170000X0.140000X0.170000X-0.140000X0.170000X0*%
%TD*%
%TA.AperFunction,SMDPad,CuDef*%
%ADD17RoundRect,0.140000X0.140000X0.170000X-0.140000X0.170000X-0.140000X-0.170000X0.140000X-0.170000X0*%
%TD*%
%TA.AperFunction,ViaPad*%
%ADD18C,0.800000*%
%TD*%
%TA.AperFunction,Conductor*%
%ADD19C,0.560000*%
%TD*%
%TA.AperFunction,Conductor*%
%ADD20C,0.230000*%
%TD*%
%TA.AperFunction,Conductor*%
%ADD21C,0.620000*%
%TD*%
%TA.AperFunction,Conductor*%
%ADD22C,0.500000*%
%TD*%
G04 APERTURE END LIST*
D10*
%TO.P,FID3,*%
%TO.N,*%
X131900000Y-117140000D03*
%TD*%
D11*
%TO.P,FB2,1*%
%TO.N,+3V3*%
X106285000Y-113500000D03*
%TO.P,FB2,2*%
%TO.N,Net-(J2-Pin_11)*%
X105315000Y-113500000D03*
%TD*%
D12*
%TO.P,J2,1,Pin_1*%
%TO.N,GND*%
X130500000Y-115500000D03*
D13*
%TO.P,J2,2,Pin_2*%
%TO.N,/UART1_RXD*%
X127960000Y-115500000D03*
%TO.P,J2,3,Pin_3*%
%TO.N,/UART1_TXD*%
X125420000Y-115500000D03*
%TO.P,J2,4,Pin_4*%
%TO.N,GND*%
X122880000Y-115500000D03*
%TO.P,J2,5,Pin_5*%
%TO.N,/SPI_SS1*%
X120340000Y-115500000D03*
%TO.P,J2,6,Pin_6*%
%TO.N,/SPI_SCK*%
X117800000Y-115500000D03*
%TO.P,J2,7,Pin_7*%
%TO.N,/SPI_MOSI*%
X115260000Y-115500000D03*
%TO.P,J2,8,Pin_8*%
%TO.N,/SPI_MISO*%
X112720000Y-115500000D03*
%TO.P,J2,9,Pin_9*%
%TO.N,GND*%
X110180000Y-115500000D03*
%TO.P,J2,10,Pin_10*%
%TO.N,Net-(J2-Pin_10)*%
X107640000Y-115500000D03*
%TO.P,J2,11,Pin_11*%
%TO.N,Net-(J2-Pin_11)*%
X105100000Y-115500000D03*
%TO.P,J2,12,Pin_12*%
%TO.N,GND*%
X102560000Y-115500000D03*
%TO.P,J2,13,Pin_13*%
%TO.N,/GPIO4_IO11*%
X100020000Y-115500000D03*
%TO.P,J2,14,Pin_14*%
%TO.N,/GPIO4_IO28*%
X97480000Y-115500000D03*
%TO.P,J2,15,Pin_15*%
%TO.N,/I2C4_SCL*%
X94940000Y-115500000D03*
%TO.P,J2,16,Pin_16*%
%TO.N,/I2C4_SDA*%
X92400000Y-115500000D03*
%TD*%
D14*
%TO.P,H1,1,1*%
%TO.N,GND*%
X133671000Y-115500000D03*
%TD*%
D15*
%TO.P,FB1,1*%
%TO.N,+1V8*%
X107315000Y-113500000D03*
%TO.P,FB1,2*%
%TO.N,Net-(J2-Pin_10)*%
X108285000Y-113500000D03*
%TD*%
D10*
%TO.P,FID1,*%
%TO.N,*%
X91500000Y-112200000D03*
%TD*%
D16*
%TO.P,C1,1*%
%TO.N,Net-(J2-Pin_10)*%
X109220000Y-113500000D03*
%TO.P,C1,2*%
%TO.N,GND*%
X110180000Y-113500000D03*
%TD*%
D17*
%TO.P,C2,1*%
%TO.N,Net-(J2-Pin_11)*%
X104310000Y-113500000D03*
%TO.P,C2,2*%
%TO.N,GND*%
X103350000Y-113500000D03*
%TD*%
D10*
%TO.P,FID2,*%
%TO.N,*%
X132700000Y-113200000D03*
%TD*%
D18*
%TO.N,+1V8*%
X112000000Y-113300000D03*
%TO.N,+3V3*%
X113500000Y-113300000D03*
%TD*%
D19*
%TO.N,GND*%
X103350000Y-113500000D02*
X103350000Y-114710000D01*
X103350000Y-114710000D02*
X102560000Y-115500000D01*
D20*
%TO.N,+1V8*%
X110913604Y-112850000D02*
X107965000Y-112850000D01*
X107965000Y-112850000D02*
G75*
G03*
X107315000Y-113500000I0J-650000D01*
G01*
X112000000Y-113300000D02*
G75*
G03*
X110913604Y-112849998I-1086400J-1086400D01*
G01*
%TO.N,+3V3*%
X111447919Y-112450000D02*
X107335000Y-112450000D01*
X113500000Y-113300000D02*
G75*
G03*
X111447919Y-112449992I-2052100J-2052100D01*
G01*
X107335000Y-112450000D02*
G75*
G03*
X106285000Y-113500000I0J-1050000D01*
G01*
D21*
%TO.N,Net-(J2-Pin_10)*%
X108285000Y-113500000D02*
X108285000Y-113942833D01*
X108285000Y-113500000D02*
X109220000Y-113500000D01*
X108285000Y-113942833D02*
G75*
G02*
X107639991Y-115499991I-2202200J33D01*
G01*
%TO.N,Net-(J2-Pin_11)*%
X104310000Y-113500000D02*
X105315000Y-113500000D01*
X105315000Y-113500000D02*
X105315000Y-114980945D01*
D22*
X105100000Y-115500000D02*
X105100000Y-115400000D01*
D21*
X105315000Y-114980945D02*
G75*
G02*
X105099987Y-115499987I-734100J45D01*
G01*
%TD*%
%TA.AperFunction,Conductor*%
%TO.N,GND*%
G36*
X131505751Y-111302190D02*
G01*
X131705910Y-111342003D01*
X131720313Y-111345862D01*
X131931413Y-111417521D01*
X131945173Y-111423221D01*
X132145120Y-111521827D01*
X132158028Y-111529279D01*
X132343396Y-111653142D01*
X132355204Y-111662203D01*
X132525750Y-111811774D01*
X132531180Y-111816860D01*
X132553970Y-111839652D01*
X132563351Y-111849033D01*
X132563360Y-111849040D01*
X135533232Y-114818912D01*
X135538332Y-114824357D01*
X135687787Y-114994780D01*
X135696864Y-115006610D01*
X135820714Y-115191964D01*
X135828170Y-115204877D01*
X135926772Y-115404817D01*
X135932479Y-115418593D01*
X136004143Y-115629699D01*
X136008002Y-115644102D01*
X136051498Y-115862741D01*
X136053445Y-115877524D01*
X136068256Y-116103377D01*
X136068500Y-116110837D01*
X136068500Y-116595515D01*
X136068149Y-116604460D01*
X136052970Y-116797318D01*
X136050171Y-116814986D01*
X136006062Y-116998715D01*
X136000534Y-117015728D01*
X135928226Y-117190295D01*
X135920105Y-117206234D01*
X135821375Y-117367347D01*
X135810860Y-117381820D01*
X135688146Y-117525498D01*
X135675498Y-117538146D01*
X135531820Y-117660860D01*
X135517347Y-117671375D01*
X135356234Y-117770105D01*
X135340295Y-117778226D01*
X135165728Y-117850534D01*
X135148715Y-117856062D01*
X134964986Y-117900171D01*
X134947318Y-117902970D01*
X134777093Y-117916367D01*
X134754458Y-117918149D01*
X134745516Y-117918500D01*
X91754484Y-117918500D01*
X91745541Y-117918149D01*
X91720309Y-117916163D01*
X91552681Y-117902970D01*
X91535013Y-117900171D01*
X91351284Y-117856062D01*
X91334271Y-117850534D01*
X91159704Y-117778226D01*
X91143765Y-117770105D01*
X90982652Y-117671375D01*
X90968186Y-117660865D01*
X90824499Y-117538144D01*
X90811853Y-117525498D01*
X90689132Y-117381811D01*
X90678624Y-117367347D01*
X90579890Y-117206227D01*
X90571776Y-117190302D01*
X90499463Y-117015723D01*
X90493939Y-116998721D01*
X90449827Y-116814983D01*
X90447029Y-116797317D01*
X90443923Y-116757857D01*
X90431851Y-116604459D01*
X90431500Y-116595515D01*
X90431500Y-115499999D01*
X91374562Y-115499999D01*
X91374562Y-115500000D01*
X91394265Y-115700048D01*
X91394267Y-115700060D01*
X91452615Y-115892409D01*
X91452619Y-115892418D01*
X91547379Y-116069704D01*
X91581137Y-116110837D01*
X91674906Y-116225094D01*
X91769576Y-116302788D01*
X91830295Y-116352620D01*
X91830297Y-116352621D01*
X92007582Y-116447381D01*
X92007585Y-116447382D01*
X92007590Y-116447384D01*
X92199939Y-116505732D01*
X92199942Y-116505732D01*
X92199947Y-116505734D01*
X92359989Y-116521497D01*
X92399999Y-116525438D01*
X92400000Y-116525438D01*
X92400001Y-116525438D01*
X92433342Y-116522154D01*
X92600053Y-116505734D01*
X92659016Y-116487848D01*
X92792409Y-116447384D01*
X92792410Y-116447383D01*
X92792418Y-116447381D01*
X92969703Y-116352621D01*
X93125094Y-116225094D01*
X93252621Y-116069703D01*
X93347381Y-115892418D01*
X93356384Y-115862741D01*
X93405732Y-115700060D01*
X93405732Y-115700059D01*
X93405734Y-115700053D01*
X93425438Y-115500000D01*
X93425438Y-115499999D01*
X93914562Y-115499999D01*
X93914562Y-115500000D01*
X93934265Y-115700048D01*
X93934267Y-115700060D01*
X93992615Y-115892409D01*
X93992619Y-115892418D01*
X94087379Y-116069704D01*
X94121137Y-116110837D01*
X94214906Y-116225094D01*
X94309576Y-116302788D01*
X94370295Y-116352620D01*
X94370297Y-116352621D01*
X94547582Y-116447381D01*
X94547585Y-116447382D01*
X94547590Y-116447384D01*
X94739939Y-116505732D01*
X94739942Y-116505732D01*
X94739947Y-116505734D01*
X94899989Y-116521497D01*
X94939999Y-116525438D01*
X94940000Y-116525438D01*
X94940001Y-116525438D01*
X94973342Y-116522154D01*
X95140053Y-116505734D01*
X95199016Y-116487848D01*
X95332409Y-116447384D01*
X95332410Y-116447383D01*
X95332418Y-116447381D01*
X95509703Y-116352621D01*
X95665094Y-116225094D01*
X95792621Y-116069703D01*
X95887381Y-115892418D01*
X95896384Y-115862741D01*
X95945732Y-115700060D01*
X95945732Y-115700059D01*
X95945734Y-115700053D01*
X95965438Y-115500000D01*
X95965438Y-115499999D01*
X96454562Y-115499999D01*
X96454562Y-115500000D01*
X96474265Y-115700048D01*
X96474267Y-115700060D01*
X96532615Y-115892409D01*
X96532619Y-115892418D01*
X96627379Y-116069704D01*
X96661137Y-116110837D01*
X96754906Y-116225094D01*
X96849576Y-116302788D01*
X96910295Y-116352620D01*
X96910297Y-116352621D01*
X97087582Y-116447381D01*
X97087585Y-116447382D01*
X97087590Y-116447384D01*
X97279939Y-116505732D01*
X97279942Y-116505732D01*
X97279947Y-116505734D01*
X97439989Y-116521497D01*
X97479999Y-116525438D01*
X97480000Y-116525438D01*
X97480001Y-116525438D01*
X97513342Y-116522154D01*
X97680053Y-116505734D01*
X97739016Y-116487848D01*
X97872409Y-116447384D01*
X97872410Y-116447383D01*
X97872418Y-116447381D01*
X98049703Y-116352621D01*
X98205094Y-116225094D01*
X98332621Y-116069703D01*
X98427381Y-115892418D01*
X98436384Y-115862741D01*
X98485732Y-115700060D01*
X98485732Y-115700059D01*
X98485734Y-115700053D01*
X98505438Y-115500000D01*
X98505438Y-115499999D01*
X98994562Y-115499999D01*
X98994562Y-115500000D01*
X99014265Y-115700048D01*
X99014267Y-115700060D01*
X99072615Y-115892409D01*
X99072619Y-115892418D01*
X99167379Y-116069704D01*
X99201137Y-116110837D01*
X99294906Y-116225094D01*
X99389576Y-116302788D01*
X99450295Y-116352620D01*
X99450297Y-116352621D01*
X99627582Y-116447381D01*
X99627585Y-116447382D01*
X99627590Y-116447384D01*
X99819939Y-116505732D01*
X99819942Y-116505732D01*
X99819947Y-116505734D01*
X99979989Y-116521497D01*
X100019999Y-116525438D01*
X100020000Y-116525438D01*
X100020001Y-116525438D01*
X100053342Y-116522154D01*
X100220053Y-116505734D01*
X100279016Y-116487848D01*
X100412409Y-116447384D01*
X100412410Y-116447383D01*
X100412418Y-116447381D01*
X100589703Y-116352621D01*
X100745094Y-116225094D01*
X100872621Y-116069703D01*
X100967381Y-115892418D01*
X100976384Y-115862741D01*
X101025732Y-115700060D01*
X101025732Y-115700059D01*
X101025734Y-115700053D01*
X101045438Y-115500000D01*
X101025734Y-115299947D01*
X101025732Y-115299939D01*
X101009370Y-115246000D01*
X101304976Y-115246000D01*
X102129297Y-115246000D01*
X102094075Y-115307007D01*
X102060000Y-115434174D01*
X102060000Y-115565826D01*
X102094075Y-115692993D01*
X102129297Y-115754000D01*
X101304976Y-115754000D01*
X101354487Y-115938776D01*
X101448987Y-116141433D01*
X101448990Y-116141438D01*
X101577255Y-116324621D01*
X101577257Y-116324624D01*
X101735375Y-116482742D01*
X101735378Y-116482744D01*
X101918561Y-116611009D01*
X101918570Y-116611014D01*
X102121222Y-116705512D01*
X102306000Y-116755022D01*
X102306000Y-115930702D01*
X102367007Y-115965925D01*
X102494174Y-116000000D01*
X102625826Y-116000000D01*
X102752993Y-115965925D01*
X102814000Y-115930702D01*
X102814000Y-116755022D01*
X102998777Y-116705512D01*
X103201429Y-116611014D01*
X103201438Y-116611009D01*
X103384621Y-116482744D01*
X103384624Y-116482742D01*
X103542742Y-116324624D01*
X103542744Y-116324621D01*
X103671009Y-116141438D01*
X103671012Y-116141433D01*
X103765512Y-115938776D01*
X103815024Y-115754000D01*
X102990703Y-115754000D01*
X103025925Y-115692993D01*
X103060000Y-115565826D01*
X103060000Y-115434174D01*
X103025925Y-115307007D01*
X102990703Y-115246000D01*
X103815024Y-115246000D01*
X103765512Y-115061220D01*
X103672697Y-114862178D01*
X103663051Y-114798672D01*
X103689271Y-114740032D01*
X103743032Y-114704876D01*
X103776016Y-114700000D01*
X103800000Y-114700000D01*
X103800000Y-114295048D01*
X103775171Y-114249578D01*
X103779754Y-114185507D01*
X103817167Y-114134904D01*
X103895101Y-114075101D01*
X103947778Y-114006453D01*
X103999655Y-113968573D01*
X104063776Y-113964754D01*
X104084267Y-113971566D01*
X104097674Y-113977486D01*
X104097676Y-113977486D01*
X104097680Y-113977488D01*
X104123643Y-113980500D01*
X104233463Y-113980499D01*
X104233471Y-113980500D01*
X104246741Y-113980500D01*
X104694402Y-113980500D01*
X104756035Y-113998597D01*
X104798100Y-114047143D01*
X104807364Y-114109852D01*
X104806750Y-114114370D01*
X104804421Y-114126521D01*
X104800974Y-114140387D01*
X104800972Y-114140392D01*
X104780928Y-114221005D01*
X104776913Y-114233858D01*
X104746995Y-114312888D01*
X104741463Y-114325234D01*
X104705037Y-114395094D01*
X104698760Y-114405693D01*
X104654428Y-114472084D01*
X104648533Y-114480127D01*
X104594578Y-114547363D01*
X104590079Y-114552633D01*
X104525486Y-114623797D01*
X104522975Y-114626475D01*
X104448107Y-114703803D01*
X104447717Y-114704205D01*
X104397915Y-114755140D01*
X104388728Y-114763561D01*
X104374904Y-114774906D01*
X104247379Y-114930295D01*
X104152619Y-115107581D01*
X104152615Y-115107590D01*
X104094267Y-115299939D01*
X104094265Y-115299951D01*
X104074562Y-115499999D01*
X104074562Y-115500000D01*
X104094265Y-115700048D01*
X104094267Y-115700060D01*
X104152615Y-115892409D01*
X104152619Y-115892418D01*
X104247379Y-116069704D01*
X104281137Y-116110837D01*
X104374906Y-116225094D01*
X104469576Y-116302788D01*
X104530295Y-116352620D01*
X104530297Y-116352621D01*
X104707582Y-116447381D01*
X104707585Y-116447382D01*
X104707590Y-116447384D01*
X104899939Y-116505732D01*
X104899942Y-116505732D01*
X104899947Y-116505734D01*
X105059989Y-116521497D01*
X105099999Y-116525438D01*
X105100000Y-116525438D01*
X105100001Y-116525438D01*
X105133342Y-116522154D01*
X105300053Y-116505734D01*
X105359016Y-116487848D01*
X105492409Y-116447384D01*
X105492410Y-116447383D01*
X105492418Y-116447381D01*
X105669703Y-116352621D01*
X105825094Y-116225094D01*
X105952621Y-116069703D01*
X106047381Y-115892418D01*
X106056384Y-115862741D01*
X106105732Y-115700060D01*
X106105732Y-115700059D01*
X106105734Y-115700053D01*
X106125438Y-115500000D01*
X106105734Y-115299947D01*
X106105732Y-115299939D01*
X106047384Y-115107590D01*
X106047382Y-115107585D01*
X106047381Y-115107582D01*
X105952621Y-114930297D01*
X105952620Y-114930295D01*
X105952619Y-114930294D01*
X105948905Y-114925768D01*
X105932199Y-114898247D01*
X105904680Y-114833858D01*
X105904680Y-114833857D01*
X105902258Y-114828191D01*
X105899246Y-114820360D01*
X105870912Y-114737718D01*
X105868369Y-114729243D01*
X105846810Y-114645739D01*
X105845011Y-114637531D01*
X105836487Y-114590402D01*
X105828773Y-114547755D01*
X105827722Y-114540679D01*
X105815958Y-114439657D01*
X105815458Y-114434211D01*
X105807629Y-114317994D01*
X105807437Y-114314171D01*
X105807394Y-114312888D01*
X105802945Y-114179869D01*
X105802891Y-114177527D01*
X105802890Y-114177450D01*
X105801236Y-114046953D01*
X105818551Y-113985099D01*
X105866559Y-113942422D01*
X105930019Y-113932476D01*
X105963405Y-113942193D01*
X106006084Y-113962094D01*
X106053926Y-113984403D01*
X106100236Y-113990500D01*
X106100238Y-113990500D01*
X106469762Y-113990500D01*
X106469764Y-113990500D01*
X106516074Y-113984403D01*
X106617711Y-113937009D01*
X106697009Y-113857711D01*
X106702729Y-113849543D01*
X106703819Y-113850306D01*
X106739128Y-113810205D01*
X106800903Y-113792597D01*
X106862391Y-113811181D01*
X106896250Y-113850257D01*
X106897271Y-113849543D01*
X106902990Y-113857711D01*
X106982287Y-113937008D01*
X106982288Y-113937008D01*
X106982289Y-113937009D01*
X107083926Y-113984403D01*
X107130236Y-113990500D01*
X107130238Y-113990500D01*
X107499762Y-113990500D01*
X107499764Y-113990500D01*
X107546074Y-113984403D01*
X107628378Y-113946024D01*
X107691879Y-113936379D01*
X107750519Y-113962598D01*
X107785676Y-114016359D01*
X107790025Y-114060296D01*
X107787652Y-114084882D01*
X107783512Y-114106215D01*
X107762477Y-114177450D01*
X107753278Y-114199655D01*
X107725226Y-114251205D01*
X107712000Y-114270491D01*
X107674567Y-114314587D01*
X107660516Y-114328491D01*
X107608364Y-114371826D01*
X107596581Y-114380406D01*
X107526851Y-114424648D01*
X107518941Y-114429232D01*
X107432458Y-114474825D01*
X107428901Y-114476622D01*
X107329519Y-114524653D01*
X107328042Y-114525375D01*
X107321504Y-114528601D01*
X107304166Y-114535454D01*
X107247579Y-114552620D01*
X107070295Y-114647379D01*
X106914906Y-114774906D01*
X106787379Y-114930295D01*
X106692619Y-115107581D01*
X106692615Y-115107590D01*
X106634267Y-115299939D01*
X106634265Y-115299951D01*
X106614562Y-115499999D01*
X106614562Y-115500000D01*
X106634265Y-115700048D01*
X106634267Y-115700060D01*
X106692615Y-115892409D01*
X106692619Y-115892418D01*
X106787379Y-116069704D01*
X106821137Y-116110837D01*
X106914906Y-116225094D01*
X107009576Y-116302788D01*
X107070295Y-116352620D01*
X107070297Y-116352621D01*
X107247582Y-116447381D01*
X107247585Y-116447382D01*
X107247590Y-116447384D01*
X107439939Y-116505732D01*
X107439942Y-116505732D01*
X107439947Y-116505734D01*
X107599989Y-116521497D01*
X107639999Y-116525438D01*
X107640000Y-116525438D01*
X107640001Y-116525438D01*
X107673342Y-116522154D01*
X107840053Y-116505734D01*
X107899016Y-116487848D01*
X108032409Y-116447384D01*
X108032410Y-116447383D01*
X108032418Y-116447381D01*
X108209703Y-116352621D01*
X108365094Y-116225094D01*
X108492621Y-116069703D01*
X108587381Y-115892418D01*
X108596384Y-115862741D01*
X108645732Y-115700060D01*
X108645732Y-115700059D01*
X108645734Y-115700053D01*
X108665438Y-115500000D01*
X108645734Y-115299947D01*
X108614245Y-115196145D01*
X108609392Y-115166588D01*
X108606972Y-115088550D01*
X108607303Y-115075657D01*
X108614213Y-114992043D01*
X108615442Y-114982308D01*
X108631105Y-114890380D01*
X108632199Y-114884806D01*
X108641477Y-114843069D01*
X108655642Y-114779346D01*
X108655910Y-114778176D01*
X108656863Y-114774142D01*
X108656864Y-114774139D01*
X108684088Y-114658706D01*
X108684502Y-114656908D01*
X108684551Y-114656690D01*
X108684873Y-114655229D01*
X108686568Y-114647379D01*
X108703369Y-114569530D01*
X108713311Y-114523468D01*
X108714078Y-114519715D01*
X108714173Y-114519223D01*
X108714835Y-114515591D01*
X108738000Y-114380406D01*
X108739933Y-114369126D01*
X108740714Y-114364132D01*
X108740720Y-114364092D01*
X108740815Y-114363421D01*
X108741453Y-114358396D01*
X108760002Y-114193146D01*
X108760553Y-114187381D01*
X108760613Y-114186621D01*
X108760966Y-114180986D01*
X108764553Y-114104056D01*
X108765146Y-114096613D01*
X108765498Y-114093495D01*
X108765498Y-114093476D01*
X108765677Y-114090302D01*
X108765856Y-114090312D01*
X108765858Y-114090302D01*
X108766037Y-114090322D01*
X108766713Y-114090360D01*
X108783595Y-114032867D01*
X108832141Y-113990802D01*
X108879498Y-113980500D01*
X109296528Y-113980500D01*
X109296536Y-113980499D01*
X109406352Y-113980499D01*
X109406356Y-113980499D01*
X109432320Y-113977488D01*
X109445731Y-113971566D01*
X109509418Y-113963224D01*
X109567509Y-113990640D01*
X109582221Y-114006452D01*
X109634898Y-114075101D01*
X109703880Y-114128034D01*
X109741760Y-114179911D01*
X109745579Y-114244033D01*
X109714126Y-114300040D01*
X109682660Y-114321795D01*
X109538567Y-114388987D01*
X109538561Y-114388990D01*
X109355378Y-114517255D01*
X109355375Y-114517257D01*
X109197257Y-114675375D01*
X109197255Y-114675378D01*
X109068990Y-114858561D01*
X109068987Y-114858566D01*
X108974487Y-115061223D01*
X108924976Y-115246000D01*
X109749297Y-115246000D01*
X109714075Y-115307007D01*
X109680000Y-115434174D01*
X109680000Y-115565826D01*
X109714075Y-115692993D01*
X109749297Y-115754000D01*
X108924976Y-115754000D01*
X108974487Y-115938776D01*
X109068987Y-116141433D01*
X109068990Y-116141438D01*
X109197255Y-116324621D01*
X109197257Y-116324624D01*
X109355375Y-116482742D01*
X109355378Y-116482744D01*
X109538561Y-116611009D01*
X109538570Y-116611014D01*
X109741222Y-116705512D01*
X109926000Y-116755022D01*
X109926000Y-115930702D01*
X109987007Y-115965925D01*
X110114174Y-116000000D01*
X110245826Y-116000000D01*
X110372993Y-115965925D01*
X110434000Y-115930702D01*
X110434000Y-116755022D01*
X110618777Y-116705512D01*
X110821429Y-116611014D01*
X110821438Y-116611009D01*
X111004621Y-116482744D01*
X111004624Y-116482742D01*
X111162742Y-116324624D01*
X111162744Y-116324621D01*
X111291009Y-116141438D01*
X111291012Y-116141433D01*
X111385512Y-115938776D01*
X111435024Y-115754000D01*
X110610703Y-115754000D01*
X110645925Y-115692993D01*
X110680000Y-115565826D01*
X110680000Y-115499999D01*
X111694562Y-115499999D01*
X111694562Y-115500000D01*
X111714265Y-115700048D01*
X111714267Y-115700060D01*
X111772615Y-115892409D01*
X111772619Y-115892418D01*
X111867379Y-116069704D01*
X111901137Y-116110837D01*
X111994906Y-116225094D01*
X112089576Y-116302788D01*
X112150295Y-116352620D01*
X112150297Y-116352621D01*
X112327582Y-116447381D01*
X112327585Y-116447382D01*
X112327590Y-116447384D01*
X112519939Y-116505732D01*
X112519942Y-116505732D01*
X112519947Y-116505734D01*
X112679989Y-116521497D01*
X112719999Y-116525438D01*
X112720000Y-116525438D01*
X112720001Y-116525438D01*
X112753342Y-116522154D01*
X112920053Y-116505734D01*
X112979016Y-116487848D01*
X113112409Y-116447384D01*
X113112410Y-116447383D01*
X113112418Y-116447381D01*
X113289703Y-116352621D01*
X113445094Y-116225094D01*
X113572621Y-116069703D01*
X113667381Y-115892418D01*
X113676384Y-115862741D01*
X113725732Y-115700060D01*
X113725732Y-115700059D01*
X113725734Y-115700053D01*
X113745438Y-115500000D01*
X113745438Y-115499999D01*
X114234562Y-115499999D01*
X114234562Y-115500000D01*
X114254265Y-115700048D01*
X114254267Y-115700060D01*
X114312615Y-115892409D01*
X114312619Y-115892418D01*
X114407379Y-116069704D01*
X114441137Y-116110837D01*
X114534906Y-116225094D01*
X114629576Y-116302788D01*
X114690295Y-116352620D01*
X114690297Y-116352621D01*
X114867582Y-116447381D01*
X114867585Y-116447382D01*
X114867590Y-116447384D01*
X115059939Y-116505732D01*
X115059942Y-116505732D01*
X115059947Y-116505734D01*
X115219989Y-116521497D01*
X115259999Y-116525438D01*
X115260000Y-116525438D01*
X115260001Y-116525438D01*
X115293342Y-116522154D01*
X115460053Y-116505734D01*
X115519016Y-116487848D01*
X115652409Y-116447384D01*
X115652410Y-116447383D01*
X115652418Y-116447381D01*
X115829703Y-116352621D01*
X115985094Y-116225094D01*
X116112621Y-116069703D01*
X116207381Y-115892418D01*
X116216384Y-115862741D01*
X116265732Y-115700060D01*
X116265732Y-115700059D01*
X116265734Y-115700053D01*
X116285438Y-115500000D01*
X116285438Y-115499999D01*
X116774562Y-115499999D01*
X116774562Y-115500000D01*
X116794265Y-115700048D01*
X116794267Y-115700060D01*
X116852615Y-115892409D01*
X116852619Y-115892418D01*
X116947379Y-116069704D01*
X116981137Y-116110837D01*
X117074906Y-116225094D01*
X117169576Y-116302788D01*
X117230295Y-116352620D01*
X117230297Y-116352621D01*
X117407582Y-116447381D01*
X117407585Y-116447382D01*
X117407590Y-116447384D01*
X117599939Y-116505732D01*
X117599942Y-116505732D01*
X117599947Y-116505734D01*
X117759989Y-116521497D01*
X117799999Y-116525438D01*
X117800000Y-116525438D01*
X117800001Y-116525438D01*
X117833342Y-116522154D01*
X118000053Y-116505734D01*
X118059016Y-116487848D01*
X118192409Y-116447384D01*
X118192410Y-116447383D01*
X118192418Y-116447381D01*
X118369703Y-116352621D01*
X118525094Y-116225094D01*
X118652621Y-116069703D01*
X118747381Y-115892418D01*
X118756384Y-115862741D01*
X118805732Y-115700060D01*
X118805732Y-115700059D01*
X118805734Y-115700053D01*
X118825438Y-115500000D01*
X118825438Y-115499999D01*
X119314562Y-115499999D01*
X119314562Y-115500000D01*
X119334265Y-115700048D01*
X119334267Y-115700060D01*
X119392615Y-115892409D01*
X119392619Y-115892418D01*
X119487379Y-116069704D01*
X119521137Y-116110837D01*
X119614906Y-116225094D01*
X119709576Y-116302788D01*
X119770295Y-116352620D01*
X119770297Y-116352621D01*
X119947582Y-116447381D01*
X119947585Y-116447382D01*
X119947590Y-116447384D01*
X120139939Y-116505732D01*
X120139942Y-116505732D01*
X120139947Y-116505734D01*
X120299989Y-116521497D01*
X120339999Y-116525438D01*
X120340000Y-116525438D01*
X120340001Y-116525438D01*
X120373342Y-116522154D01*
X120540053Y-116505734D01*
X120599016Y-116487848D01*
X120732409Y-116447384D01*
X120732410Y-116447383D01*
X120732418Y-116447381D01*
X120909703Y-116352621D01*
X121065094Y-116225094D01*
X121192621Y-116069703D01*
X121287381Y-115892418D01*
X121296384Y-115862741D01*
X121345732Y-115700060D01*
X121345732Y-115700059D01*
X121345734Y-115700053D01*
X121365438Y-115500000D01*
X121345734Y-115299947D01*
X121345732Y-115299939D01*
X121329370Y-115246000D01*
X121624976Y-115246000D01*
X122449297Y-115246000D01*
X122414075Y-115307007D01*
X122380000Y-115434174D01*
X122380000Y-115565826D01*
X122414075Y-115692993D01*
X122449297Y-115754000D01*
X121624976Y-115754000D01*
X121674487Y-115938776D01*
X121768987Y-116141433D01*
X121768990Y-116141438D01*
X121897255Y-116324621D01*
X121897257Y-116324624D01*
X122055375Y-116482742D01*
X122055378Y-116482744D01*
X122238561Y-116611009D01*
X122238570Y-116611014D01*
X122441222Y-116705512D01*
X122626000Y-116755022D01*
X122626000Y-115930702D01*
X122687007Y-115965925D01*
X122814174Y-116000000D01*
X122945826Y-116000000D01*
X123072993Y-115965925D01*
X123134000Y-115930702D01*
X123134000Y-116755022D01*
X123318777Y-116705512D01*
X123521429Y-116611014D01*
X123521438Y-116611009D01*
X123704621Y-116482744D01*
X123704624Y-116482742D01*
X123862742Y-116324624D01*
X123862744Y-116324621D01*
X123991009Y-116141438D01*
X123991012Y-116141433D01*
X124085512Y-115938776D01*
X124135024Y-115754000D01*
X123310703Y-115754000D01*
X123345925Y-115692993D01*
X123380000Y-115565826D01*
X123380000Y-115499999D01*
X124394562Y-115499999D01*
X124394562Y-115500000D01*
X124414265Y-115700048D01*
X124414267Y-115700060D01*
X124472615Y-115892409D01*
X124472619Y-115892418D01*
X124567379Y-116069704D01*
X124601137Y-116110837D01*
X124694906Y-116225094D01*
X124789576Y-116302788D01*
X124850295Y-116352620D01*
X124850297Y-116352621D01*
X125027582Y-116447381D01*
X125027585Y-116447382D01*
X125027590Y-116447384D01*
X125219939Y-116505732D01*
X125219942Y-116505732D01*
X125219947Y-116505734D01*
X125379989Y-116521497D01*
X125419999Y-116525438D01*
X125420000Y-116525438D01*
X125420001Y-116525438D01*
X125453342Y-116522154D01*
X125620053Y-116505734D01*
X125679016Y-116487848D01*
X125812409Y-116447384D01*
X125812410Y-116447383D01*
X125812418Y-116447381D01*
X125989703Y-116352621D01*
X126145094Y-116225094D01*
X126272621Y-116069703D01*
X126367381Y-115892418D01*
X126376384Y-115862741D01*
X126425732Y-115700060D01*
X126425732Y-115700059D01*
X126425734Y-115700053D01*
X126445438Y-115500000D01*
X126445438Y-115499999D01*
X126934562Y-115499999D01*
X126934562Y-115500000D01*
X126954265Y-115700048D01*
X126954267Y-115700060D01*
X127012615Y-115892409D01*
X127012619Y-115892418D01*
X127107379Y-116069704D01*
X127141137Y-116110837D01*
X127234906Y-116225094D01*
X127329576Y-116302788D01*
X127390295Y-116352620D01*
X127390297Y-116352621D01*
X127567582Y-116447381D01*
X127567585Y-116447382D01*
X127567590Y-116447384D01*
X127759939Y-116505732D01*
X127759942Y-116505732D01*
X127759947Y-116505734D01*
X127919989Y-116521497D01*
X127959999Y-116525438D01*
X127960000Y-116525438D01*
X127960001Y-116525438D01*
X127993342Y-116522154D01*
X128160053Y-116505734D01*
X128219016Y-116487848D01*
X128352409Y-116447384D01*
X128352410Y-116447383D01*
X128352418Y-116447381D01*
X128529703Y-116352621D01*
X128685094Y-116225094D01*
X128812621Y-116069703D01*
X128907381Y-115892418D01*
X128916384Y-115862741D01*
X128965732Y-115700060D01*
X128965732Y-115700059D01*
X128965734Y-115700053D01*
X128985438Y-115500000D01*
X128965734Y-115299947D01*
X128965732Y-115299939D01*
X128907384Y-115107590D01*
X128907382Y-115107585D01*
X128907381Y-115107582D01*
X128812621Y-114930297D01*
X128812620Y-114930295D01*
X128728824Y-114828191D01*
X128685094Y-114774906D01*
X128598455Y-114703803D01*
X128529704Y-114647379D01*
X128438150Y-114598443D01*
X129222000Y-114598443D01*
X129222000Y-115246000D01*
X130069297Y-115246000D01*
X130034075Y-115307007D01*
X130000000Y-115434174D01*
X130000000Y-115565826D01*
X130034075Y-115692993D01*
X130069297Y-115754000D01*
X129222001Y-115754000D01*
X129222001Y-116401552D01*
X129224711Y-116430464D01*
X129267326Y-116552252D01*
X129267326Y-116552253D01*
X129343939Y-116656059D01*
X129343940Y-116656060D01*
X129447747Y-116732673D01*
X129569530Y-116775287D01*
X129598451Y-116777999D01*
X130246000Y-116777999D01*
X130246000Y-115930702D01*
X130307007Y-115965925D01*
X130434174Y-116000000D01*
X130565826Y-116000000D01*
X130692993Y-115965925D01*
X130754000Y-115930702D01*
X130754000Y-116777999D01*
X131337710Y-116777999D01*
X131399343Y-116796096D01*
X131441408Y-116844642D01*
X131450550Y-116908223D01*
X131441408Y-116939356D01*
X131414836Y-116997540D01*
X131414835Y-116997543D01*
X131394353Y-117140000D01*
X131414835Y-117282458D01*
X131474622Y-117413372D01*
X131474623Y-117413373D01*
X131568872Y-117522143D01*
X131568873Y-117522143D01*
X131568873Y-117522144D01*
X131593773Y-117538146D01*
X131689947Y-117599953D01*
X131828039Y-117640500D01*
X131971961Y-117640500D01*
X132110053Y-117599953D01*
X132231128Y-117522143D01*
X132325377Y-117413373D01*
X132385165Y-117282457D01*
X132405647Y-117140000D01*
X132385165Y-116997543D01*
X132325377Y-116866627D01*
X132231128Y-116757857D01*
X132231126Y-116757855D01*
X132110053Y-116680047D01*
X132110052Y-116680046D01*
X131971961Y-116639500D01*
X131862813Y-116639500D01*
X131801180Y-116621403D01*
X131759115Y-116572857D01*
X131749973Y-116509276D01*
X131755210Y-116487848D01*
X131775287Y-116430469D01*
X131777999Y-116401556D01*
X131778000Y-116401540D01*
X131778000Y-115754000D01*
X130930703Y-115754000D01*
X130965925Y-115692993D01*
X131000000Y-115565826D01*
X131000000Y-115434174D01*
X130965925Y-115307007D01*
X130930703Y-115246000D01*
X131777999Y-115246000D01*
X131777999Y-114598447D01*
X131775288Y-114569535D01*
X131732673Y-114447747D01*
X131732673Y-114447746D01*
X131656060Y-114343940D01*
X131656059Y-114343939D01*
X131552252Y-114267326D01*
X131430469Y-114224712D01*
X131401556Y-114222000D01*
X130754000Y-114222000D01*
X130754000Y-115069297D01*
X130692993Y-115034075D01*
X130565826Y-115000000D01*
X130434174Y-115000000D01*
X130307007Y-115034075D01*
X130246000Y-115069297D01*
X130246000Y-114222000D01*
X129598447Y-114222000D01*
X129569535Y-114224711D01*
X129447747Y-114267326D01*
X129447746Y-114267326D01*
X129343940Y-114343939D01*
X129343939Y-114343940D01*
X129267326Y-114447746D01*
X129267326Y-114447747D01*
X129224712Y-114569530D01*
X129222000Y-114598443D01*
X128438150Y-114598443D01*
X128352418Y-114552619D01*
X128352409Y-114552615D01*
X128160060Y-114494267D01*
X128160048Y-114494265D01*
X127960001Y-114474562D01*
X127959999Y-114474562D01*
X127759951Y-114494265D01*
X127759939Y-114494267D01*
X127567590Y-114552615D01*
X127567581Y-114552619D01*
X127390295Y-114647379D01*
X127234906Y-114774906D01*
X127107379Y-114930295D01*
X127012619Y-115107581D01*
X127012615Y-115107590D01*
X126954267Y-115299939D01*
X126954265Y-115299951D01*
X126934562Y-115499999D01*
X126445438Y-115499999D01*
X126425734Y-115299947D01*
X126425732Y-115299939D01*
X126367384Y-115107590D01*
X126367382Y-115107585D01*
X126367381Y-115107582D01*
X126272621Y-114930297D01*
X126272620Y-114930295D01*
X126188824Y-114828191D01*
X126145094Y-114774906D01*
X126058455Y-114703803D01*
X125989704Y-114647379D01*
X125812418Y-114552619D01*
X125812409Y-114552615D01*
X125620060Y-114494267D01*
X125620048Y-114494265D01*
X125420001Y-114474562D01*
X125419999Y-114474562D01*
X125219951Y-114494265D01*
X125219939Y-114494267D01*
X125027590Y-114552615D01*
X125027581Y-114552619D01*
X124850295Y-114647379D01*
X124694906Y-114774906D01*
X124567379Y-114930295D01*
X124472619Y-115107581D01*
X124472615Y-115107590D01*
X124414267Y-115299939D01*
X124414265Y-115299951D01*
X124394562Y-115499999D01*
X123380000Y-115499999D01*
X123380000Y-115434174D01*
X123345925Y-115307007D01*
X123310703Y-115246000D01*
X124135024Y-115246000D01*
X124085512Y-115061223D01*
X123991012Y-114858566D01*
X123991009Y-114858561D01*
X123862744Y-114675378D01*
X123862742Y-114675375D01*
X123704624Y-114517257D01*
X123704621Y-114517255D01*
X123521438Y-114388990D01*
X123521433Y-114388987D01*
X123318776Y-114294487D01*
X123134000Y-114244976D01*
X123134000Y-115069297D01*
X123072993Y-115034075D01*
X122945826Y-115000000D01*
X122814174Y-115000000D01*
X122687007Y-115034075D01*
X122626000Y-115069297D01*
X122626000Y-114244976D01*
X122441223Y-114294487D01*
X122238566Y-114388987D01*
X122238561Y-114388990D01*
X122055378Y-114517255D01*
X122055375Y-114517257D01*
X121897257Y-114675375D01*
X121897255Y-114675378D01*
X121768990Y-114858561D01*
X121768987Y-114858566D01*
X121674487Y-115061223D01*
X121624976Y-115246000D01*
X121329370Y-115246000D01*
X121287384Y-115107590D01*
X121287382Y-115107585D01*
X121287381Y-115107582D01*
X121192621Y-114930297D01*
X121192620Y-114930295D01*
X121108824Y-114828191D01*
X121065094Y-114774906D01*
X120978455Y-114703803D01*
X120909704Y-114647379D01*
X120732418Y-114552619D01*
X120732409Y-114552615D01*
X120540060Y-114494267D01*
X120540048Y-114494265D01*
X120340001Y-114474562D01*
X120339999Y-114474562D01*
X120139951Y-114494265D01*
X120139939Y-114494267D01*
X119947590Y-114552615D01*
X119947581Y-114552619D01*
X119770295Y-114647379D01*
X119614906Y-114774906D01*
X119487379Y-114930295D01*
X119392619Y-115107581D01*
X119392615Y-115107590D01*
X119334267Y-115299939D01*
X119334265Y-115299951D01*
X119314562Y-115499999D01*
X118825438Y-115499999D01*
X118805734Y-115299947D01*
X118805732Y-115299939D01*
X118747384Y-115107590D01*
X118747382Y-115107585D01*
X118747381Y-115107582D01*
X118652621Y-114930297D01*
X118652620Y-114930295D01*
X118568824Y-114828191D01*
X118525094Y-114774906D01*
X118438455Y-114703803D01*
X118369704Y-114647379D01*
X118192418Y-114552619D01*
X118192409Y-114552615D01*
X118000060Y-114494267D01*
X118000048Y-114494265D01*
X117800001Y-114474562D01*
X117799999Y-114474562D01*
X117599951Y-114494265D01*
X117599939Y-114494267D01*
X117407590Y-114552615D01*
X117407581Y-114552619D01*
X117230295Y-114647379D01*
X117074906Y-114774906D01*
X116947379Y-114930295D01*
X116852619Y-115107581D01*
X116852615Y-115107590D01*
X116794267Y-115299939D01*
X116794265Y-115299951D01*
X116774562Y-115499999D01*
X116285438Y-115499999D01*
X116265734Y-115299947D01*
X116265732Y-115299939D01*
X116207384Y-115107590D01*
X116207382Y-115107585D01*
X116207381Y-115107582D01*
X116112621Y-114930297D01*
X116112620Y-114930295D01*
X116028824Y-114828191D01*
X115985094Y-114774906D01*
X115898455Y-114703803D01*
X115829704Y-114647379D01*
X115652418Y-114552619D01*
X115652409Y-114552615D01*
X115460060Y-114494267D01*
X115460048Y-114494265D01*
X115260001Y-114474562D01*
X115259999Y-114474562D01*
X115059951Y-114494265D01*
X115059939Y-114494267D01*
X114867590Y-114552615D01*
X114867581Y-114552619D01*
X114690295Y-114647379D01*
X114534906Y-114774906D01*
X114407379Y-114930295D01*
X114312619Y-115107581D01*
X114312615Y-115107590D01*
X114254267Y-115299939D01*
X114254265Y-115299951D01*
X114234562Y-115499999D01*
X113745438Y-115499999D01*
X113725734Y-115299947D01*
X113725732Y-115299939D01*
X113667384Y-115107590D01*
X113667382Y-115107585D01*
X113667381Y-115107582D01*
X113572621Y-114930297D01*
X113572620Y-114930295D01*
X113488824Y-114828191D01*
X113445094Y-114774906D01*
X113358455Y-114703803D01*
X113289704Y-114647379D01*
X113112418Y-114552619D01*
X113112409Y-114552615D01*
X112920060Y-114494267D01*
X112920048Y-114494265D01*
X112720001Y-114474562D01*
X112719999Y-114474562D01*
X112519951Y-114494265D01*
X112519939Y-114494267D01*
X112327590Y-114552615D01*
X112327581Y-114552619D01*
X112150295Y-114647379D01*
X111994906Y-114774906D01*
X111867379Y-114930295D01*
X111772619Y-115107581D01*
X111772615Y-115107590D01*
X111714267Y-115299939D01*
X111714265Y-115299951D01*
X111694562Y-115499999D01*
X110680000Y-115499999D01*
X110680000Y-115434174D01*
X110645925Y-115307007D01*
X110610703Y-115246000D01*
X111435024Y-115246000D01*
X111385512Y-115061223D01*
X111291012Y-114858566D01*
X111291009Y-114858561D01*
X111162744Y-114675378D01*
X111162742Y-114675375D01*
X111004624Y-114517257D01*
X111004621Y-114517255D01*
X110821438Y-114388990D01*
X110821433Y-114388987D01*
X110677339Y-114321795D01*
X110629129Y-114279346D01*
X110611522Y-114217571D01*
X110630107Y-114156084D01*
X110656119Y-114128034D01*
X110725102Y-114075101D01*
X110816146Y-113956452D01*
X110816148Y-113956448D01*
X110873380Y-113818279D01*
X110881842Y-113754000D01*
X110434000Y-113754000D01*
X110434000Y-115069297D01*
X110372993Y-115034075D01*
X110245826Y-115000000D01*
X110114174Y-115000000D01*
X109987007Y-115034075D01*
X109926000Y-115069297D01*
X109926000Y-113360000D01*
X109944097Y-113298367D01*
X109992643Y-113256302D01*
X110040000Y-113246000D01*
X110881842Y-113246000D01*
X110890722Y-113235873D01*
X110895080Y-113207926D01*
X110937719Y-113159883D01*
X110999562Y-113142519D01*
X111007129Y-113142860D01*
X111100348Y-113150197D01*
X111118010Y-113152995D01*
X111165847Y-113164480D01*
X111210649Y-113175236D01*
X111226136Y-113180957D01*
X111226385Y-113180325D01*
X111252451Y-113190553D01*
X111252452Y-113190553D01*
X111275111Y-113199444D01*
X111289402Y-113206231D01*
X111310430Y-113218071D01*
X111325408Y-113228145D01*
X111333883Y-113234878D01*
X111335533Y-113236189D01*
X111349163Y-113248975D01*
X111355539Y-113256026D01*
X111366052Y-113269574D01*
X111372376Y-113279130D01*
X111373677Y-113281096D01*
X111380539Y-113292960D01*
X111391129Y-113314108D01*
X111394924Y-113322521D01*
X111406148Y-113350359D01*
X111406153Y-113350370D01*
X111406154Y-113350373D01*
X111408459Y-113356090D01*
X111410079Y-113360353D01*
X111426566Y-113406496D01*
X111426591Y-113406641D01*
X111426615Y-113406633D01*
X111445677Y-113460200D01*
X111446758Y-113463151D01*
X111446784Y-113463222D01*
X111446917Y-113463575D01*
X111447896Y-113466112D01*
X111450620Y-113473016D01*
X111465173Y-113509901D01*
X111465959Y-113511858D01*
X111466034Y-113512041D01*
X111470946Y-113519365D01*
X111481589Y-113539234D01*
X111491540Y-113563259D01*
X111501669Y-113587713D01*
X111593113Y-113706886D01*
X111712287Y-113798330D01*
X111712289Y-113798332D01*
X111846756Y-113854029D01*
X111851070Y-113855816D01*
X112000000Y-113875423D01*
X112148930Y-113855816D01*
X112256689Y-113811181D01*
X112287710Y-113798332D01*
X112287710Y-113798331D01*
X112287712Y-113798331D01*
X112406886Y-113706886D01*
X112498331Y-113587712D01*
X112555816Y-113448930D01*
X112575423Y-113300000D01*
X112561195Y-113191931D01*
X112571093Y-113128467D01*
X112613732Y-113080425D01*
X112675576Y-113063062D01*
X112736989Y-113081891D01*
X112738806Y-113083114D01*
X112764214Y-113100588D01*
X112772921Y-113107215D01*
X112802549Y-113132100D01*
X112804851Y-113134033D01*
X112814105Y-113142731D01*
X112834804Y-113164480D01*
X112843666Y-113174995D01*
X112852592Y-113186984D01*
X112857533Y-113193622D01*
X112864979Y-113204977D01*
X112876038Y-113224259D01*
X112881412Y-113234878D01*
X112892168Y-113259206D01*
X112895487Y-113267596D01*
X112900219Y-113281096D01*
X112906844Y-113300000D01*
X112907042Y-113300563D01*
X112908741Y-113305814D01*
X112921661Y-113349315D01*
X112922199Y-113351185D01*
X112930435Y-113380759D01*
X112936910Y-113404006D01*
X112937159Y-113404883D01*
X112940529Y-113421174D01*
X112944183Y-113448927D01*
X112944185Y-113448935D01*
X113001667Y-113587710D01*
X113001669Y-113587712D01*
X113093113Y-113706886D01*
X113212287Y-113798330D01*
X113212289Y-113798332D01*
X113346756Y-113854029D01*
X113351070Y-113855816D01*
X113500000Y-113875423D01*
X113648930Y-113855816D01*
X113756689Y-113811181D01*
X113787710Y-113798332D01*
X113787710Y-113798331D01*
X113787712Y-113798331D01*
X113906886Y-113706886D01*
X113998331Y-113587712D01*
X114055816Y-113448930D01*
X114075423Y-113300000D01*
X114062258Y-113200000D01*
X132194353Y-113200000D01*
X132214835Y-113342458D01*
X132274622Y-113473372D01*
X132274623Y-113473373D01*
X132368872Y-113582143D01*
X132368873Y-113582143D01*
X132368873Y-113582144D01*
X132377539Y-113587713D01*
X132489947Y-113659953D01*
X132628039Y-113700500D01*
X132771961Y-113700500D01*
X132910053Y-113659953D01*
X133031128Y-113582143D01*
X133125377Y-113473373D01*
X133185165Y-113342457D01*
X133205647Y-113200000D01*
X133185165Y-113057543D01*
X133125377Y-112926627D01*
X133031128Y-112817857D01*
X133031126Y-112817855D01*
X132910053Y-112740047D01*
X132910052Y-112740046D01*
X132771961Y-112699500D01*
X132628039Y-112699500D01*
X132489947Y-112740046D01*
X132489946Y-112740047D01*
X132368873Y-112817855D01*
X132368873Y-112817856D01*
X132274622Y-112926627D01*
X132214835Y-113057541D01*
X132194353Y-113200000D01*
X114062258Y-113200000D01*
X114055816Y-113151070D01*
X114049367Y-113135500D01*
X113998332Y-113012291D01*
X113998331Y-113012290D01*
X113998331Y-113012289D01*
X113906886Y-112893114D01*
X113906884Y-112893113D01*
X113906884Y-112893112D01*
X113787712Y-112801669D01*
X113787710Y-112801667D01*
X113648934Y-112744185D01*
X113648931Y-112744184D01*
X113648930Y-112744184D01*
X113562436Y-112732796D01*
X113499995Y-112724576D01*
X113493585Y-112724576D01*
X113487776Y-112724901D01*
X113449776Y-112724188D01*
X113446277Y-112724068D01*
X113401262Y-112721839D01*
X113395736Y-112721431D01*
X113359214Y-112717837D01*
X113351836Y-112716867D01*
X113321195Y-112711816D01*
X113312641Y-112710067D01*
X113284059Y-112703073D01*
X113275350Y-112700571D01*
X113244829Y-112690474D01*
X113236895Y-112687518D01*
X113200902Y-112672564D01*
X113194314Y-112669579D01*
X113150402Y-112647974D01*
X113145298Y-112645301D01*
X113135531Y-112639866D01*
X113135532Y-112639866D01*
X113091839Y-112615553D01*
X113088118Y-112613388D01*
X113030627Y-112578460D01*
X113030622Y-112578457D01*
X113006333Y-112569498D01*
X112992048Y-112563082D01*
X112839112Y-112481337D01*
X112812426Y-112467073D01*
X112812412Y-112467067D01*
X112523082Y-112347221D01*
X112523066Y-112347215D01*
X112223372Y-112256303D01*
X112223364Y-112256301D01*
X111916202Y-112195201D01*
X111916186Y-112195199D01*
X111604507Y-112164500D01*
X111485506Y-112164500D01*
X107385341Y-112164500D01*
X107335000Y-112164500D01*
X107229894Y-112164500D01*
X107052722Y-112192561D01*
X107022263Y-112197385D01*
X106822349Y-112262341D01*
X106635042Y-112357779D01*
X106464977Y-112481339D01*
X106316339Y-112629977D01*
X106192779Y-112800043D01*
X106169827Y-112845087D01*
X106164964Y-112853688D01*
X106151894Y-112874630D01*
X106150497Y-112876813D01*
X106130979Y-112906559D01*
X106129429Y-112908858D01*
X106110325Y-112936484D01*
X106108588Y-112938928D01*
X106090026Y-112964316D01*
X106088094Y-112966881D01*
X106070053Y-112990151D01*
X106067888Y-112992858D01*
X106062522Y-112999361D01*
X106022771Y-113030124D01*
X105952287Y-113062991D01*
X105880610Y-113134669D01*
X105824232Y-113165454D01*
X105760161Y-113160871D01*
X105719390Y-113134669D01*
X105647712Y-113062991D01*
X105554249Y-113019409D01*
X105546074Y-113015597D01*
X105499764Y-113009500D01*
X105130236Y-113009500D01*
X105083926Y-113015597D01*
X105083924Y-113015597D01*
X105075280Y-113016736D01*
X105075249Y-113016503D01*
X105054261Y-113019500D01*
X104123648Y-113019500D01*
X104123641Y-113019501D01*
X104097680Y-113022511D01*
X104097677Y-113022512D01*
X104084264Y-113028435D01*
X104020572Y-113036773D01*
X103962484Y-113009353D01*
X103947778Y-112993546D01*
X103895101Y-112924898D01*
X103776452Y-112833853D01*
X103776448Y-112833851D01*
X103638282Y-112776621D01*
X103604000Y-112772107D01*
X103604000Y-114227891D01*
X103617112Y-114239391D01*
X103634586Y-114242116D01*
X103682628Y-114284754D01*
X103700000Y-114345244D01*
X103700000Y-114557413D01*
X103681903Y-114619046D01*
X103633357Y-114661111D01*
X103569776Y-114670253D01*
X103511346Y-114643568D01*
X103505390Y-114638023D01*
X103384624Y-114517257D01*
X103384621Y-114517255D01*
X103201438Y-114388990D01*
X103201432Y-114388987D01*
X103161821Y-114370516D01*
X103113611Y-114328067D01*
X103096000Y-114267197D01*
X103096000Y-113754000D01*
X102648158Y-113754000D01*
X102656619Y-113818279D01*
X102713851Y-113956448D01*
X102713853Y-113956452D01*
X102804898Y-114075102D01*
X102810181Y-114080385D01*
X102808690Y-114081875D01*
X102840152Y-114124960D01*
X102843975Y-114189081D01*
X102814000Y-114242461D01*
X102814000Y-115069297D01*
X102752993Y-115034075D01*
X102625826Y-115000000D01*
X102494174Y-115000000D01*
X102367007Y-115034075D01*
X102306000Y-115069297D01*
X102306000Y-114244976D01*
X102121223Y-114294487D01*
X101918566Y-114388987D01*
X101918561Y-114388990D01*
X101735378Y-114517255D01*
X101735375Y-114517257D01*
X101577257Y-114675375D01*
X101577255Y-114675378D01*
X101448990Y-114858561D01*
X101448987Y-114858566D01*
X101354487Y-115061223D01*
X101304976Y-115246000D01*
X101009370Y-115246000D01*
X100967384Y-115107590D01*
X100967382Y-115107585D01*
X100967381Y-115107582D01*
X100872621Y-114930297D01*
X100872620Y-114930295D01*
X100788824Y-114828191D01*
X100745094Y-114774906D01*
X100658455Y-114703803D01*
X100589704Y-114647379D01*
X100412418Y-114552619D01*
X100412409Y-114552615D01*
X100220060Y-114494267D01*
X100220048Y-114494265D01*
X100020001Y-114474562D01*
X100019999Y-114474562D01*
X99819951Y-114494265D01*
X99819939Y-114494267D01*
X99627590Y-114552615D01*
X99627581Y-114552619D01*
X99450295Y-114647379D01*
X99294906Y-114774906D01*
X99167379Y-114930295D01*
X99072619Y-115107581D01*
X99072615Y-115107590D01*
X99014267Y-115299939D01*
X99014265Y-115299951D01*
X98994562Y-115499999D01*
X98505438Y-115499999D01*
X98485734Y-115299947D01*
X98485732Y-115299939D01*
X98427384Y-115107590D01*
X98427382Y-115107585D01*
X98427381Y-115107582D01*
X98332621Y-114930297D01*
X98332620Y-114930295D01*
X98248824Y-114828191D01*
X98205094Y-114774906D01*
X98118455Y-114703803D01*
X98049704Y-114647379D01*
X97872418Y-114552619D01*
X97872409Y-114552615D01*
X97680060Y-114494267D01*
X97680048Y-114494265D01*
X97480001Y-114474562D01*
X97479999Y-114474562D01*
X97279951Y-114494265D01*
X97279939Y-114494267D01*
X97087590Y-114552615D01*
X97087581Y-114552619D01*
X96910295Y-114647379D01*
X96754906Y-114774906D01*
X96627379Y-114930295D01*
X96532619Y-115107581D01*
X96532615Y-115107590D01*
X96474267Y-115299939D01*
X96474265Y-115299951D01*
X96454562Y-115499999D01*
X95965438Y-115499999D01*
X95945734Y-115299947D01*
X95945732Y-115299939D01*
X95887384Y-115107590D01*
X95887382Y-115107585D01*
X95887381Y-115107582D01*
X95792621Y-114930297D01*
X95792620Y-114930295D01*
X95708824Y-114828191D01*
X95665094Y-114774906D01*
X95578455Y-114703803D01*
X95509704Y-114647379D01*
X95332418Y-114552619D01*
X95332409Y-114552615D01*
X95140060Y-114494267D01*
X95140048Y-114494265D01*
X94940001Y-114474562D01*
X94939999Y-114474562D01*
X94739951Y-114494265D01*
X94739939Y-114494267D01*
X94547590Y-114552615D01*
X94547581Y-114552619D01*
X94370295Y-114647379D01*
X94214906Y-114774906D01*
X94087379Y-114930295D01*
X93992619Y-115107581D01*
X93992615Y-115107590D01*
X93934267Y-115299939D01*
X93934265Y-115299951D01*
X93914562Y-115499999D01*
X93425438Y-115499999D01*
X93405734Y-115299947D01*
X93405732Y-115299939D01*
X93347384Y-115107590D01*
X93347382Y-115107585D01*
X93347381Y-115107582D01*
X93252621Y-114930297D01*
X93252620Y-114930295D01*
X93168824Y-114828191D01*
X93125094Y-114774906D01*
X93038455Y-114703803D01*
X92969704Y-114647379D01*
X92792418Y-114552619D01*
X92792409Y-114552615D01*
X92600060Y-114494267D01*
X92600048Y-114494265D01*
X92400001Y-114474562D01*
X92399999Y-114474562D01*
X92199951Y-114494265D01*
X92199939Y-114494267D01*
X92007590Y-114552615D01*
X92007581Y-114552619D01*
X91830295Y-114647379D01*
X91674906Y-114774906D01*
X91547379Y-114930295D01*
X91452619Y-115107581D01*
X91452615Y-115107590D01*
X91394267Y-115299939D01*
X91394265Y-115299951D01*
X91374562Y-115499999D01*
X90431500Y-115499999D01*
X90431500Y-113246000D01*
X102648157Y-113246000D01*
X103096000Y-113246000D01*
X103096000Y-112772107D01*
X103061718Y-112776621D01*
X103061716Y-112776621D01*
X102923551Y-112833851D01*
X102923547Y-112833853D01*
X102804898Y-112924898D01*
X102713853Y-113043547D01*
X102713851Y-113043551D01*
X102656619Y-113181720D01*
X102648157Y-113246000D01*
X90431500Y-113246000D01*
X90431500Y-112604484D01*
X90431851Y-112595540D01*
X90434341Y-112563897D01*
X90447029Y-112402677D01*
X90449828Y-112385013D01*
X90493940Y-112201274D01*
X90494354Y-112200000D01*
X90994353Y-112200000D01*
X91014835Y-112342458D01*
X91074622Y-112473372D01*
X91085722Y-112486182D01*
X91168872Y-112582143D01*
X91168873Y-112582143D01*
X91168873Y-112582144D01*
X91189718Y-112595540D01*
X91289947Y-112659953D01*
X91428039Y-112700500D01*
X91571961Y-112700500D01*
X91710053Y-112659953D01*
X91831128Y-112582143D01*
X91925377Y-112473373D01*
X91985165Y-112342457D01*
X92005647Y-112200000D01*
X91985165Y-112057543D01*
X91925377Y-111926627D01*
X91831128Y-111817857D01*
X91831126Y-111817855D01*
X91710053Y-111740047D01*
X91710052Y-111740046D01*
X91571961Y-111699500D01*
X91428039Y-111699500D01*
X91289947Y-111740046D01*
X91289946Y-111740047D01*
X91168873Y-111817855D01*
X91168873Y-111817856D01*
X91074622Y-111926627D01*
X91014835Y-112057541D01*
X90994353Y-112200000D01*
X90494354Y-112200000D01*
X90499461Y-112184280D01*
X90571779Y-112009691D01*
X90579887Y-111993777D01*
X90678629Y-111832643D01*
X90689127Y-111818194D01*
X90811861Y-111674492D01*
X90824492Y-111661861D01*
X90968194Y-111539127D01*
X90982643Y-111528629D01*
X91143777Y-111429887D01*
X91159691Y-111421779D01*
X91334280Y-111349461D01*
X91351278Y-111343939D01*
X91521178Y-111303150D01*
X91547790Y-111300000D01*
X131483511Y-111300000D01*
X131505751Y-111302190D01*
G37*
%TD.AperFunction*%
%TD*%
%TA.AperFunction,Conductor*%
%TO.N,GND*%
G36*
X103622145Y-114310350D02*
G01*
X103601021Y-114469575D01*
X103570284Y-114609346D01*
X103533594Y-114734101D01*
X103494609Y-114848282D01*
X103456987Y-114956330D01*
X103424386Y-115062686D01*
X103400464Y-115171791D01*
X103388880Y-115288085D01*
X103393293Y-115416009D01*
X102560000Y-115501000D01*
X102223399Y-114722265D01*
X102327832Y-114684634D01*
X102439016Y-114654838D01*
X102552772Y-114628116D01*
X102664920Y-114599708D01*
X102771280Y-114564851D01*
X102867674Y-114518787D01*
X102949923Y-114456753D01*
X103013846Y-114373989D01*
X103055265Y-114265734D01*
X103070000Y-114127228D01*
X103630000Y-114127228D01*
X103622145Y-114310350D01*
G37*
%TD.AperFunction*%
%TD*%
%TA.AperFunction,Conductor*%
%TO.N,+1V8*%
G36*
X107532645Y-112883904D02*
G01*
X107534498Y-112885757D01*
X107665405Y-113049909D01*
X107667884Y-113058514D01*
X107667753Y-113059384D01*
X107662878Y-113085094D01*
X107658893Y-113107345D01*
X107656994Y-113117948D01*
X107651135Y-113152465D01*
X107645245Y-113188986D01*
X107639382Y-113227150D01*
X107639377Y-113227190D01*
X107633501Y-113267252D01*
X107627626Y-113309128D01*
X107621750Y-113352820D01*
X107615875Y-113398326D01*
X107615872Y-113398354D01*
X107611055Y-113437151D01*
X107606635Y-113444938D01*
X107601582Y-113447212D01*
X107324498Y-113498712D01*
X107315738Y-113496855D01*
X107311170Y-113490622D01*
X107218908Y-113187981D01*
X107219773Y-113179070D01*
X107223226Y-113175102D01*
X107247362Y-113157596D01*
X107278250Y-113133377D01*
X107309137Y-113107343D01*
X107340025Y-113079494D01*
X107370913Y-113049831D01*
X107401800Y-113018352D01*
X107432688Y-112985058D01*
X107463575Y-112949949D01*
X107494463Y-112913025D01*
X107516205Y-112885756D01*
X107524040Y-112881426D01*
X107532645Y-112883904D01*
G37*
%TD.AperFunction*%
%TD*%
%TA.AperFunction,Conductor*%
%TO.N,+1V8*%
G36*
X111438725Y-112823027D02*
G01*
X111438740Y-112823032D01*
X111510953Y-112846338D01*
X111511004Y-112846354D01*
X111511011Y-112846356D01*
X111575293Y-112866214D01*
X111633483Y-112882594D01*
X111687494Y-112895493D01*
X111739239Y-112904905D01*
X111790632Y-112910826D01*
X111843586Y-112913250D01*
X111899470Y-112912184D01*
X111900014Y-112912174D01*
X111912600Y-112911241D01*
X111950451Y-112908435D01*
X111958955Y-112911241D01*
X111962958Y-112918943D01*
X112000097Y-113291743D01*
X111997508Y-113300315D01*
X111993028Y-113303672D01*
X111643867Y-113451929D01*
X111634912Y-113452009D01*
X111628525Y-113445733D01*
X111628434Y-113445510D01*
X111611147Y-113401698D01*
X111611014Y-113401345D01*
X111591959Y-113347797D01*
X111591957Y-113347790D01*
X111573390Y-113295826D01*
X111568918Y-113284736D01*
X111553316Y-113246037D01*
X111553313Y-113246032D01*
X111553311Y-113246026D01*
X111529656Y-113198789D01*
X111529651Y-113198782D01*
X111529648Y-113198775D01*
X111500366Y-113154523D01*
X111500363Y-113154520D01*
X111500359Y-113154513D01*
X111463355Y-113113595D01*
X111416578Y-113076433D01*
X111357963Y-113043427D01*
X111316557Y-113027180D01*
X111295705Y-113018998D01*
X111289256Y-113012785D01*
X111288852Y-113004490D01*
X111352902Y-112807367D01*
X111358717Y-112800559D01*
X111367645Y-112799857D01*
X111438725Y-112823027D01*
G37*
%TD.AperFunction*%
%TD*%
%TA.AperFunction,Conductor*%
%TO.N,+3V3*%
G36*
X112939500Y-112728447D02*
G01*
X113001734Y-112766256D01*
X113050197Y-112793223D01*
X113066355Y-112802214D01*
X113125065Y-112831100D01*
X113125071Y-112831103D01*
X113125076Y-112831105D01*
X113125080Y-112831107D01*
X113179496Y-112853716D01*
X113231174Y-112870812D01*
X113281692Y-112883172D01*
X113332625Y-112891569D01*
X113385550Y-112896778D01*
X113442043Y-112899574D01*
X113492119Y-112900514D01*
X113500325Y-112904096D01*
X113503598Y-112912295D01*
X113500907Y-113291919D01*
X113497421Y-113300168D01*
X113492604Y-113303032D01*
X113134243Y-113411770D01*
X113125331Y-113410893D01*
X113119650Y-113403971D01*
X113105976Y-113356922D01*
X113090600Y-113301711D01*
X113074982Y-113249127D01*
X113057317Y-113198726D01*
X113035801Y-113150062D01*
X113008629Y-113102689D01*
X112973995Y-113056164D01*
X112973995Y-113056163D01*
X112930095Y-113010037D01*
X112915421Y-112997712D01*
X112875127Y-112963869D01*
X112816531Y-112923570D01*
X112811656Y-112916059D01*
X112813253Y-112907708D01*
X112923520Y-112732221D01*
X112930823Y-112727040D01*
X112939500Y-112728447D01*
G37*
%TD.AperFunction*%
%TD*%
%TA.AperFunction,Conductor*%
%TO.N,+3V3*%
G36*
X106378496Y-112859735D02*
G01*
X106379208Y-112860174D01*
X106429906Y-112894050D01*
X106555083Y-112977691D01*
X106560058Y-112985136D01*
X106560270Y-112986873D01*
X106561154Y-113005790D01*
X106561995Y-113023793D01*
X106563995Y-113064798D01*
X106565996Y-113103988D01*
X106567996Y-113141363D01*
X106569997Y-113176924D01*
X106569998Y-113176942D01*
X106569997Y-113176942D01*
X106571997Y-113210650D01*
X106573996Y-113242577D01*
X106575997Y-113272689D01*
X106577997Y-113300986D01*
X106579450Y-113320220D01*
X106576656Y-113328727D01*
X106573702Y-113331193D01*
X106295573Y-113494304D01*
X106286703Y-113495534D01*
X106279562Y-113490131D01*
X106279038Y-113489130D01*
X106139631Y-113187434D01*
X106139273Y-113178487D01*
X106141757Y-113174482D01*
X106159551Y-113155700D01*
X106159560Y-113155688D01*
X106159573Y-113155676D01*
X106167336Y-113146873D01*
X106182796Y-113129348D01*
X106206041Y-113101181D01*
X106229286Y-113071199D01*
X106252532Y-113039402D01*
X106275777Y-113005790D01*
X106299022Y-112970363D01*
X106322267Y-112933121D01*
X106345512Y-112894064D01*
X106362542Y-112864120D01*
X106369611Y-112858624D01*
X106378496Y-112859735D01*
G37*
%TD.AperFunction*%
%TD*%
%TA.AperFunction,Conductor*%
%TO.N,Net-(J2-Pin_10)*%
G36*
X108582362Y-113984146D02*
G01*
X108590587Y-113987688D01*
X108593898Y-113996008D01*
X108593886Y-113996390D01*
X108585657Y-114172809D01*
X108585597Y-114173569D01*
X108567048Y-114338819D01*
X108566953Y-114339490D01*
X108541856Y-114485950D01*
X108541761Y-114486442D01*
X108513323Y-114618203D01*
X108513274Y-114618421D01*
X108486050Y-114733854D01*
X108484695Y-114739599D01*
X108459311Y-114853787D01*
X108440339Y-114965141D01*
X108440337Y-114965162D01*
X108431048Y-115077570D01*
X108431048Y-115077574D01*
X108434691Y-115195053D01*
X108434692Y-115195064D01*
X108452816Y-115310754D01*
X108450711Y-115319458D01*
X108443773Y-115323991D01*
X107648116Y-115499208D01*
X107639300Y-115497641D01*
X107635630Y-115493904D01*
X107531297Y-115323991D01*
X107209381Y-114799727D01*
X107207972Y-114790884D01*
X107213229Y-114783635D01*
X107213606Y-114783413D01*
X107302200Y-114733840D01*
X107302687Y-114733584D01*
X107405820Y-114682700D01*
X107509808Y-114632445D01*
X107611067Y-114579060D01*
X107706262Y-114518663D01*
X107792056Y-114447373D01*
X107865115Y-114361309D01*
X107922101Y-114256589D01*
X107959678Y-114129332D01*
X107973476Y-113986380D01*
X107977682Y-113978476D01*
X107985283Y-113975807D01*
X108582362Y-113984146D01*
G37*
%TD.AperFunction*%
%TD*%
%TA.AperFunction,Conductor*%
%TO.N,Net-(J2-Pin_11)*%
G36*
X105621600Y-113846193D02*
G01*
X105625027Y-113854439D01*
X105625421Y-114023068D01*
X105627444Y-114182737D01*
X105632200Y-114324928D01*
X105640828Y-114453007D01*
X105654453Y-114570016D01*
X105654456Y-114570037D01*
X105674212Y-114679265D01*
X105674216Y-114679283D01*
X105674218Y-114679293D01*
X105701251Y-114783997D01*
X105736688Y-114887356D01*
X105743303Y-114902834D01*
X105781668Y-114992598D01*
X105832183Y-115092738D01*
X105832850Y-115101667D01*
X105827296Y-115108302D01*
X105107540Y-115496928D01*
X105098632Y-115497843D01*
X105093843Y-115495039D01*
X104499227Y-114919378D01*
X104495667Y-114911161D01*
X104498959Y-114902834D01*
X104498965Y-114902827D01*
X104573555Y-114826540D01*
X104652313Y-114745195D01*
X104725945Y-114664071D01*
X104793347Y-114580078D01*
X104853412Y-114490125D01*
X104905035Y-114391121D01*
X104947111Y-114279974D01*
X104971288Y-114182737D01*
X104978534Y-114153594D01*
X104978535Y-114153586D01*
X104998196Y-114008909D01*
X104998195Y-114008909D01*
X104998199Y-114008887D01*
X105004541Y-113853987D01*
X105008303Y-113845861D01*
X105016231Y-113842766D01*
X105613327Y-113842766D01*
X105621600Y-113846193D01*
G37*
%TD.AperFunction*%
%TD*%
M02*
