%TF.GenerationSoftware,KiCad,Pcbnew,6.0.6-1.fc36*%
%TF.CreationDate,2022-07-20T16:56:09-04:00*%
%TF.ProjectId,ext-con-breakout-board,6578742d-636f-46e2-9d62-7265616b6f75,v0.5*%
%TF.SameCoordinates,Original*%
%TF.FileFunction,Legend,Bot*%
%TF.FilePolarity,Positive*%
%FSLAX46Y46*%
G04 Gerber Fmt 4.6, Leading zero omitted, Abs format (unit mm)*
G04 Created by KiCad (PCBNEW 6.0.6-1.fc36) date 2022-07-20 16:56:09*
%MOMM*%
%LPD*%
G01*
G04 APERTURE LIST*
%ADD10C,0.150000*%
%ADD11C,0.120000*%
G04 APERTURE END LIST*
D10*
X119866666Y-115528571D02*
X119533333Y-115528571D01*
X119390476Y-116052380D02*
X119866666Y-116052380D01*
X119866666Y-115052380D01*
X119390476Y-115052380D01*
X119057142Y-115052380D02*
X118390476Y-116052380D01*
X118390476Y-115052380D02*
X119057142Y-116052380D01*
X118152380Y-115052380D02*
X117580952Y-115052380D01*
X117866666Y-116052380D02*
X117866666Y-115052380D01*
X115914285Y-115957142D02*
X115961904Y-116004761D01*
X116104761Y-116052380D01*
X116200000Y-116052380D01*
X116342857Y-116004761D01*
X116438095Y-115909523D01*
X116485714Y-115814285D01*
X116533333Y-115623809D01*
X116533333Y-115480952D01*
X116485714Y-115290476D01*
X116438095Y-115195238D01*
X116342857Y-115100000D01*
X116200000Y-115052380D01*
X116104761Y-115052380D01*
X115961904Y-115100000D01*
X115914285Y-115147619D01*
X115295238Y-115052380D02*
X115104761Y-115052380D01*
X115009523Y-115100000D01*
X114914285Y-115195238D01*
X114866666Y-115385714D01*
X114866666Y-115719047D01*
X114914285Y-115909523D01*
X115009523Y-116004761D01*
X115104761Y-116052380D01*
X115295238Y-116052380D01*
X115390476Y-116004761D01*
X115485714Y-115909523D01*
X115533333Y-115719047D01*
X115533333Y-115385714D01*
X115485714Y-115195238D01*
X115390476Y-115100000D01*
X115295238Y-115052380D01*
X114438095Y-116052380D02*
X114438095Y-115052380D01*
X113866666Y-116052380D01*
X113866666Y-115052380D01*
X112295238Y-115528571D02*
X112152380Y-115576190D01*
X112104761Y-115623809D01*
X112057142Y-115719047D01*
X112057142Y-115861904D01*
X112104761Y-115957142D01*
X112152380Y-116004761D01*
X112247619Y-116052380D01*
X112628571Y-116052380D01*
X112628571Y-115052380D01*
X112295238Y-115052380D01*
X112200000Y-115100000D01*
X112152380Y-115147619D01*
X112104761Y-115242857D01*
X112104761Y-115338095D01*
X112152380Y-115433333D01*
X112200000Y-115480952D01*
X112295238Y-115528571D01*
X112628571Y-115528571D01*
X111628571Y-116052380D02*
X111628571Y-115385714D01*
X111628571Y-115576190D02*
X111580952Y-115480952D01*
X111533333Y-115433333D01*
X111438095Y-115385714D01*
X111342857Y-115385714D01*
X110628571Y-116004761D02*
X110723809Y-116052380D01*
X110914285Y-116052380D01*
X111009523Y-116004761D01*
X111057142Y-115909523D01*
X111057142Y-115528571D01*
X111009523Y-115433333D01*
X110914285Y-115385714D01*
X110723809Y-115385714D01*
X110628571Y-115433333D01*
X110580952Y-115528571D01*
X110580952Y-115623809D01*
X111057142Y-115719047D01*
X109723809Y-116052380D02*
X109723809Y-115528571D01*
X109771428Y-115433333D01*
X109866666Y-115385714D01*
X110057142Y-115385714D01*
X110152380Y-115433333D01*
X109723809Y-116004761D02*
X109819047Y-116052380D01*
X110057142Y-116052380D01*
X110152380Y-116004761D01*
X110200000Y-115909523D01*
X110200000Y-115814285D01*
X110152380Y-115719047D01*
X110057142Y-115671428D01*
X109819047Y-115671428D01*
X109723809Y-115623809D01*
X109247619Y-116052380D02*
X109247619Y-115052380D01*
X109152380Y-115671428D02*
X108866666Y-116052380D01*
X108866666Y-115385714D02*
X109247619Y-115766666D01*
X108295238Y-116052380D02*
X108390476Y-116004761D01*
X108438095Y-115957142D01*
X108485714Y-115861904D01*
X108485714Y-115576190D01*
X108438095Y-115480952D01*
X108390476Y-115433333D01*
X108295238Y-115385714D01*
X108152380Y-115385714D01*
X108057142Y-115433333D01*
X108009523Y-115480952D01*
X107961904Y-115576190D01*
X107961904Y-115861904D01*
X108009523Y-115957142D01*
X108057142Y-116004761D01*
X108152380Y-116052380D01*
X108295238Y-116052380D01*
X107104761Y-115385714D02*
X107104761Y-116052380D01*
X107533333Y-115385714D02*
X107533333Y-115909523D01*
X107485714Y-116004761D01*
X107390476Y-116052380D01*
X107247619Y-116052380D01*
X107152380Y-116004761D01*
X107104761Y-115957142D01*
X106771428Y-115385714D02*
X106390476Y-115385714D01*
X106628571Y-115052380D02*
X106628571Y-115909523D01*
X106580952Y-116004761D01*
X106485714Y-116052380D01*
X106390476Y-116052380D01*
X104961904Y-115528571D02*
X104819047Y-115576190D01*
X104771428Y-115623809D01*
X104723809Y-115719047D01*
X104723809Y-115861904D01*
X104771428Y-115957142D01*
X104819047Y-116004761D01*
X104914285Y-116052380D01*
X105295238Y-116052380D01*
X105295238Y-115052380D01*
X104961904Y-115052380D01*
X104866666Y-115100000D01*
X104819047Y-115147619D01*
X104771428Y-115242857D01*
X104771428Y-115338095D01*
X104819047Y-115433333D01*
X104866666Y-115480952D01*
X104961904Y-115528571D01*
X105295238Y-115528571D01*
X104152380Y-116052380D02*
X104247619Y-116004761D01*
X104295238Y-115957142D01*
X104342857Y-115861904D01*
X104342857Y-115576190D01*
X104295238Y-115480952D01*
X104247619Y-115433333D01*
X104152380Y-115385714D01*
X104009523Y-115385714D01*
X103914285Y-115433333D01*
X103866666Y-115480952D01*
X103819047Y-115576190D01*
X103819047Y-115861904D01*
X103866666Y-115957142D01*
X103914285Y-116004761D01*
X104009523Y-116052380D01*
X104152380Y-116052380D01*
X102961904Y-116052380D02*
X102961904Y-115528571D01*
X103009523Y-115433333D01*
X103104761Y-115385714D01*
X103295238Y-115385714D01*
X103390476Y-115433333D01*
X102961904Y-116004761D02*
X103057142Y-116052380D01*
X103295238Y-116052380D01*
X103390476Y-116004761D01*
X103438095Y-115909523D01*
X103438095Y-115814285D01*
X103390476Y-115719047D01*
X103295238Y-115671428D01*
X103057142Y-115671428D01*
X102961904Y-115623809D01*
X102485714Y-116052380D02*
X102485714Y-115385714D01*
X102485714Y-115576190D02*
X102438095Y-115480952D01*
X102390476Y-115433333D01*
X102295238Y-115385714D01*
X102200000Y-115385714D01*
X101438095Y-116052380D02*
X101438095Y-115052380D01*
X101438095Y-116004761D02*
X101533333Y-116052380D01*
X101723809Y-116052380D01*
X101819047Y-116004761D01*
X101866666Y-115957142D01*
X101914285Y-115861904D01*
X101914285Y-115576190D01*
X101866666Y-115480952D01*
X101819047Y-115433333D01*
X101723809Y-115385714D01*
X101533333Y-115385714D01*
X101438095Y-115433333D01*
X100295238Y-115385714D02*
X100057142Y-116052380D01*
X99819047Y-115385714D01*
X99247619Y-115052380D02*
X99152380Y-115052380D01*
X99057142Y-115100000D01*
X99009523Y-115147619D01*
X98961904Y-115242857D01*
X98914285Y-115433333D01*
X98914285Y-115671428D01*
X98961904Y-115861904D01*
X99009523Y-115957142D01*
X99057142Y-116004761D01*
X99152380Y-116052380D01*
X99247619Y-116052380D01*
X99342857Y-116004761D01*
X99390476Y-115957142D01*
X99438095Y-115861904D01*
X99485714Y-115671428D01*
X99485714Y-115433333D01*
X99438095Y-115242857D01*
X99390476Y-115147619D01*
X99342857Y-115100000D01*
X99247619Y-115052380D01*
X98485714Y-115957142D02*
X98438095Y-116004761D01*
X98485714Y-116052380D01*
X98533333Y-116004761D01*
X98485714Y-115957142D01*
X98485714Y-116052380D01*
X97533333Y-115052380D02*
X98009523Y-115052380D01*
X98057142Y-115528571D01*
X98009523Y-115480952D01*
X97914285Y-115433333D01*
X97676190Y-115433333D01*
X97580952Y-115480952D01*
X97533333Y-115528571D01*
X97485714Y-115623809D01*
X97485714Y-115861904D01*
X97533333Y-115957142D01*
X97580952Y-116004761D01*
X97676190Y-116052380D01*
X97914285Y-116052380D01*
X98009523Y-116004761D01*
X98057142Y-115957142D01*
X115452380Y-117452380D02*
X115452380Y-116452380D01*
X115071428Y-116452380D01*
X114976190Y-116500000D01*
X114928571Y-116547619D01*
X114880952Y-116642857D01*
X114880952Y-116785714D01*
X114928571Y-116880952D01*
X114976190Y-116928571D01*
X115071428Y-116976190D01*
X115452380Y-116976190D01*
X114023809Y-116785714D02*
X114023809Y-117452380D01*
X114452380Y-116785714D02*
X114452380Y-117309523D01*
X114404761Y-117404761D01*
X114309523Y-117452380D01*
X114166666Y-117452380D01*
X114071428Y-117404761D01*
X114023809Y-117357142D01*
X113547619Y-117452380D02*
X113547619Y-116785714D01*
X113547619Y-116976190D02*
X113500000Y-116880952D01*
X113452380Y-116833333D01*
X113357142Y-116785714D01*
X113261904Y-116785714D01*
X112928571Y-117452380D02*
X112928571Y-116785714D01*
X112928571Y-116452380D02*
X112976190Y-116500000D01*
X112928571Y-116547619D01*
X112880952Y-116500000D01*
X112928571Y-116452380D01*
X112928571Y-116547619D01*
X112500000Y-117404761D02*
X112404761Y-117452380D01*
X112214285Y-117452380D01*
X112119047Y-117404761D01*
X112071428Y-117309523D01*
X112071428Y-117261904D01*
X112119047Y-117166666D01*
X112214285Y-117119047D01*
X112357142Y-117119047D01*
X112452380Y-117071428D01*
X112500000Y-116976190D01*
X112500000Y-116928571D01*
X112452380Y-116833333D01*
X112357142Y-116785714D01*
X112214285Y-116785714D01*
X112119047Y-116833333D01*
X111642857Y-117452380D02*
X111642857Y-116785714D01*
X111642857Y-116880952D02*
X111595238Y-116833333D01*
X111500000Y-116785714D01*
X111357142Y-116785714D01*
X111261904Y-116833333D01*
X111214285Y-116928571D01*
X111214285Y-117452380D01*
X111214285Y-116928571D02*
X111166666Y-116833333D01*
X111071428Y-116785714D01*
X110928571Y-116785714D01*
X110833333Y-116833333D01*
X110785714Y-116928571D01*
X110785714Y-117452380D01*
X109595238Y-117404761D02*
X109452380Y-117452380D01*
X109214285Y-117452380D01*
X109119047Y-117404761D01*
X109071428Y-117357142D01*
X109023809Y-117261904D01*
X109023809Y-117166666D01*
X109071428Y-117071428D01*
X109119047Y-117023809D01*
X109214285Y-116976190D01*
X109404761Y-116928571D01*
X109500000Y-116880952D01*
X109547619Y-116833333D01*
X109595238Y-116738095D01*
X109595238Y-116642857D01*
X109547619Y-116547619D01*
X109500000Y-116500000D01*
X109404761Y-116452380D01*
X109166666Y-116452380D01*
X109023809Y-116500000D01*
X108595238Y-117452380D02*
X108595238Y-116452380D01*
X108214285Y-116452380D01*
X108119047Y-116500000D01*
X108071428Y-116547619D01*
X108023809Y-116642857D01*
X108023809Y-116785714D01*
X108071428Y-116880952D01*
X108119047Y-116928571D01*
X108214285Y-116976190D01*
X108595238Y-116976190D01*
X107023809Y-117357142D02*
X107071428Y-117404761D01*
X107214285Y-117452380D01*
X107309523Y-117452380D01*
X107452380Y-117404761D01*
X107547619Y-117309523D01*
X107595238Y-117214285D01*
X107642857Y-117023809D01*
X107642857Y-116880952D01*
X107595238Y-116690476D01*
X107547619Y-116595238D01*
X107452380Y-116500000D01*
X107309523Y-116452380D01*
X107214285Y-116452380D01*
X107071428Y-116500000D01*
X107023809Y-116547619D01*
X105309523Y-116500000D02*
X105404761Y-116452380D01*
X105547619Y-116452380D01*
X105690476Y-116500000D01*
X105785714Y-116595238D01*
X105833333Y-116690476D01*
X105880952Y-116880952D01*
X105880952Y-117023809D01*
X105833333Y-117214285D01*
X105785714Y-117309523D01*
X105690476Y-117404761D01*
X105547619Y-117452380D01*
X105452380Y-117452380D01*
X105309523Y-117404761D01*
X105261904Y-117357142D01*
X105261904Y-117023809D01*
X105452380Y-117023809D01*
X104833333Y-117452380D02*
X104833333Y-116452380D01*
X104452380Y-116452380D01*
X104357142Y-116500000D01*
X104309523Y-116547619D01*
X104261904Y-116642857D01*
X104261904Y-116785714D01*
X104309523Y-116880952D01*
X104357142Y-116928571D01*
X104452380Y-116976190D01*
X104833333Y-116976190D01*
X103357142Y-117452380D02*
X103833333Y-117452380D01*
X103833333Y-116452380D01*
X103119047Y-116785714D02*
X102880952Y-117452380D01*
X102642857Y-116785714D01*
X102357142Y-116452380D02*
X101738095Y-116452380D01*
X102071428Y-116833333D01*
X101928571Y-116833333D01*
X101833333Y-116880952D01*
X101785714Y-116928571D01*
X101738095Y-117023809D01*
X101738095Y-117261904D01*
X101785714Y-117357142D01*
X101833333Y-117404761D01*
X101928571Y-117452380D01*
X102214285Y-117452380D01*
X102309523Y-117404761D01*
X102357142Y-117357142D01*
X101309523Y-117071428D02*
X100547619Y-117071428D01*
X100928571Y-117452380D02*
X100928571Y-116690476D01*
D11*
%TO.C,J1*%
X136600000Y-86200000D02*
X129400000Y-86200000D01*
X136600000Y-89800000D02*
X129400000Y-89800000D01*
X135050000Y-90100000D02*
X135350000Y-90100000D01*
X129400000Y-86200000D02*
X129400000Y-89800000D01*
X136600000Y-86200000D02*
X136600000Y-89800000D01*
X135350000Y-90100000D02*
X135200000Y-89887868D01*
X135200000Y-89887868D02*
X135050000Y-90100000D01*
%TD*%
M02*
