%TF.GenerationSoftware,KiCad,Pcbnew,6.0.6-1.fc36*%
%TF.CreationDate,2022-07-25T13:06:59-04:00*%
%TF.ProjectId,ext-con-breakout-board,6578742d-636f-46e2-9d62-7265616b6f75,v0.5*%
%TF.SameCoordinates,Original*%
%TF.FileFunction,Profile,NP*%
%FSLAX46Y46*%
G04 Gerber Fmt 4.6, Leading zero omitted, Abs format (unit mm)*
G04 Created by KiCad (PCBNEW 6.0.6-1.fc36) date 2022-07-25 13:06:59*
%MOMM*%
%LPD*%
G01*
G04 APERTURE LIST*
%TA.AperFunction,Profile*%
%ADD10C,0.100000*%
%TD*%
G04 APERTURE END LIST*
D10*
X121023900Y-86300003D02*
G75*
G03*
X117534221Y-88515701I-19200J-3825697D01*
G01*
X134750000Y-121600000D02*
X91750000Y-121600000D01*
X120250000Y-112600000D02*
G75*
G03*
X122250000Y-114600000I2000000J0D01*
G01*
X131200000Y-85000000D02*
X123900000Y-85000000D01*
X122250000Y-114600000D02*
X131242572Y-114600000D01*
X122000000Y-86300020D02*
G75*
G03*
X122950000Y-85650000I0J1019220D01*
G01*
X122949982Y-90350007D02*
G75*
G03*
X122000000Y-89700000I-949982J-369193D01*
G01*
X135664214Y-118193214D02*
X132656786Y-115185786D01*
X114750000Y-114600000D02*
G75*
G03*
X116750000Y-112600000I0J2000000D01*
G01*
X90250000Y-120100000D02*
X90250000Y-116100000D01*
X123900000Y-91000000D02*
X131200000Y-91000000D01*
X132200000Y-86000000D02*
G75*
G03*
X131200000Y-85000000I-1000000J0D01*
G01*
X136250022Y-119607428D02*
G75*
G03*
X135664214Y-118193214I-2000122J-72D01*
G01*
X122950018Y-90349993D02*
G75*
G03*
X123900000Y-91000000I949982J369193D01*
G01*
X136250000Y-119607428D02*
X136250000Y-120100000D01*
X120250000Y-91160000D02*
X120250000Y-112600000D01*
X117209855Y-89184680D02*
G75*
G03*
X116750000Y-91160000I4048245J-1983620D01*
G01*
X117209859Y-89184682D02*
X117534221Y-88515701D01*
X120349989Y-90729995D02*
G75*
G03*
X120250000Y-91160000I881511J-431605D01*
G01*
X116750000Y-91160000D02*
X116750000Y-112600000D01*
X122000000Y-86300000D02*
X121023900Y-86300000D01*
X121240000Y-89700000D02*
G75*
G03*
X120680000Y-90050000I0J-623000D01*
G01*
X132200000Y-86000000D02*
X132200000Y-90000000D01*
X134750000Y-121600000D02*
G75*
G03*
X136250000Y-120100000I0J1500000D01*
G01*
X91750000Y-114600000D02*
G75*
G03*
X90250000Y-116100000I0J-1500000D01*
G01*
X90250000Y-120100000D02*
G75*
G03*
X91750000Y-121600000I1500000J0D01*
G01*
X123900000Y-84999980D02*
G75*
G03*
X122950000Y-85650000I0J-1019220D01*
G01*
X122000000Y-89700000D02*
X121240000Y-89700000D01*
X120350000Y-90730000D02*
X120680000Y-90050000D01*
X91750000Y-114600000D02*
X114750000Y-114600000D01*
X132656779Y-115185793D02*
G75*
G03*
X131242572Y-114600000I-1414179J-1414107D01*
G01*
X131200000Y-91000000D02*
G75*
G03*
X132200000Y-90000000I0J1000000D01*
G01*
M02*
