%TF.GenerationSoftware,KiCad,Pcbnew,9.0.0-1.fc42*%
%TF.CreationDate,2025-03-01T14:54:56-05:00*%
%TF.ProjectId,ext-con-breakout-board,6578742d-636f-46e2-9d62-7265616b6f75,v0.6*%
%TF.SameCoordinates,Original*%
%TF.FileFunction,Copper,L1,Top*%
%TF.FilePolarity,Positive*%
%FSLAX45Y45*%
G04 Gerber Fmt 4.5, Leading zero omitted, Abs format (unit mm)*
G04 Created by KiCad (PCBNEW 9.0.0-1.fc42) date 2025-03-01 14:54:56*
%MOMM*%
%LPD*%
G01*
G04 APERTURE LIST*
G04 Aperture macros list*
%AMRoundRect*
0 Rectangle with rounded corners*
0 $1 Rounding radius*
0 $2 $3 $4 $5 $6 $7 $8 $9 X,Y pos of 4 corners*
0 Add a 4 corners polygon primitive as box body*
4,1,4,$2,$3,$4,$5,$6,$7,$8,$9,$2,$3,0*
0 Add four circle primitives for the rounded corners*
1,1,$1+$1,$2,$3*
1,1,$1+$1,$4,$5*
1,1,$1+$1,$6,$7*
1,1,$1+$1,$8,$9*
0 Add four rect primitives between the rounded corners*
20,1,$1+$1,$2,$3,$4,$5,0*
20,1,$1+$1,$4,$5,$6,$7,0*
20,1,$1+$1,$6,$7,$8,$9,0*
20,1,$1+$1,$8,$9,$2,$3,0*%
G04 Aperture macros list end*
%TA.AperFunction,SMDPad,CuDef*%
%ADD10C,0.500000*%
%TD*%
%TA.AperFunction,SMDPad,CuDef*%
%ADD11RoundRect,0.147500X0.147500X0.172500X-0.147500X0.172500X-0.147500X-0.172500X0.147500X-0.172500X0*%
%TD*%
%TA.AperFunction,ComponentPad*%
%ADD12R,1.700000X1.700000*%
%TD*%
%TA.AperFunction,ComponentPad*%
%ADD13O,1.700000X1.700000*%
%TD*%
%TA.AperFunction,ComponentPad*%
%ADD14C,2.800000*%
%TD*%
%TA.AperFunction,SMDPad,CuDef*%
%ADD15RoundRect,0.147500X-0.147500X-0.172500X0.147500X-0.172500X0.147500X0.172500X-0.147500X0.172500X0*%
%TD*%
%TA.AperFunction,SMDPad,CuDef*%
%ADD16RoundRect,0.140000X-0.140000X-0.170000X0.140000X-0.170000X0.140000X0.170000X-0.140000X0.170000X0*%
%TD*%
%TA.AperFunction,SMDPad,CuDef*%
%ADD17RoundRect,0.140000X0.140000X0.170000X-0.140000X0.170000X-0.140000X-0.170000X0.140000X-0.170000X0*%
%TD*%
%TA.AperFunction,ViaPad*%
%ADD18C,0.800000*%
%TD*%
%TA.AperFunction,Conductor*%
%ADD19C,0.560000*%
%TD*%
%TA.AperFunction,Conductor*%
%ADD20C,0.230000*%
%TD*%
%TA.AperFunction,Conductor*%
%ADD21C,0.620000*%
%TD*%
%TA.AperFunction,Conductor*%
%ADD22C,0.500000*%
%TD*%
G04 APERTURE END LIST*
D10*
%TO.P,FID3,*%
%TO.N,*%
X13190000Y-11714000D03*
%TD*%
D11*
%TO.P,FB2,1*%
%TO.N,+3V3*%
X10628500Y-11350000D03*
%TO.P,FB2,2*%
%TO.N,Net-(J2-Pin_11)*%
X10531500Y-11350000D03*
%TD*%
D12*
%TO.P,J2,1,Pin_1*%
%TO.N,GND*%
X13050000Y-11550000D03*
D13*
%TO.P,J2,2,Pin_2*%
%TO.N,/UART1_RXD*%
X12796000Y-11550000D03*
%TO.P,J2,3,Pin_3*%
%TO.N,/UART1_TXD*%
X12542000Y-11550000D03*
%TO.P,J2,4,Pin_4*%
%TO.N,GND*%
X12288000Y-11550000D03*
%TO.P,J2,5,Pin_5*%
%TO.N,/SPI_SS1*%
X12034000Y-11550000D03*
%TO.P,J2,6,Pin_6*%
%TO.N,/SPI_SCK*%
X11780000Y-11550000D03*
%TO.P,J2,7,Pin_7*%
%TO.N,/SPI_MOSI*%
X11526000Y-11550000D03*
%TO.P,J2,8,Pin_8*%
%TO.N,/SPI_MISO*%
X11272000Y-11550000D03*
%TO.P,J2,9,Pin_9*%
%TO.N,GND*%
X11018000Y-11550000D03*
%TO.P,J2,10,Pin_10*%
%TO.N,Net-(J2-Pin_10)*%
X10764000Y-11550000D03*
%TO.P,J2,11,Pin_11*%
%TO.N,Net-(J2-Pin_11)*%
X10510000Y-11550000D03*
%TO.P,J2,12,Pin_12*%
%TO.N,GND*%
X10256000Y-11550000D03*
%TO.P,J2,13,Pin_13*%
%TO.N,/GPIO4_IO11*%
X10002000Y-11550000D03*
%TO.P,J2,14,Pin_14*%
%TO.N,/GPIO4_IO28*%
X9748000Y-11550000D03*
%TO.P,J2,15,Pin_15*%
%TO.N,/I2C4_SCL*%
X9494000Y-11550000D03*
%TO.P,J2,16,Pin_16*%
%TO.N,/I2C4_SDA*%
X9240000Y-11550000D03*
%TD*%
D14*
%TO.P,H1,1,1*%
%TO.N,GND*%
X13367100Y-11550000D03*
%TD*%
D15*
%TO.P,FB1,1*%
%TO.N,+1V8*%
X10731500Y-11350000D03*
%TO.P,FB1,2*%
%TO.N,Net-(J2-Pin_10)*%
X10828500Y-11350000D03*
%TD*%
D10*
%TO.P,FID1,*%
%TO.N,*%
X9150000Y-11220000D03*
%TD*%
D16*
%TO.P,C1,1*%
%TO.N,Net-(J2-Pin_10)*%
X10922000Y-11350000D03*
%TO.P,C1,2*%
%TO.N,GND*%
X11018000Y-11350000D03*
%TD*%
D17*
%TO.P,C2,1*%
%TO.N,Net-(J2-Pin_11)*%
X10431000Y-11350000D03*
%TO.P,C2,2*%
%TO.N,GND*%
X10335000Y-11350000D03*
%TD*%
D10*
%TO.P,FID2,*%
%TO.N,*%
X13270000Y-11320000D03*
%TD*%
D18*
%TO.N,+1V8*%
X11200000Y-11330000D03*
%TO.N,+3V3*%
X11350000Y-11330000D03*
%TD*%
D19*
%TO.N,GND*%
X10335000Y-11350000D02*
X10335000Y-11471000D01*
X10335000Y-11471000D02*
X10256000Y-11550000D01*
D20*
%TO.N,+1V8*%
X11091360Y-11285000D02*
X10796500Y-11285000D01*
X10796500Y-11285000D02*
G75*
G03*
X10731500Y-11350000I0J-65000D01*
G01*
X11200000Y-11330000D02*
G75*
G03*
X11091360Y-11285000I-108640J-108640D01*
G01*
%TO.N,+3V3*%
X11144792Y-11245000D02*
X10733500Y-11245000D01*
X11350000Y-11330000D02*
G75*
G03*
X11144792Y-11244999I-205210J-205210D01*
G01*
X10733500Y-11245000D02*
G75*
G03*
X10628500Y-11350000I0J-105000D01*
G01*
D21*
%TO.N,Net-(J2-Pin_10)*%
X10828500Y-11350000D02*
X10828500Y-11394283D01*
X10828500Y-11350000D02*
X10922000Y-11350000D01*
X10828500Y-11394283D02*
G75*
G02*
X10763999Y-11549999I-220220J3D01*
G01*
%TO.N,Net-(J2-Pin_11)*%
X10431000Y-11350000D02*
X10531500Y-11350000D01*
X10531500Y-11350000D02*
X10531500Y-11498094D01*
D22*
X10510000Y-11550000D02*
X10510000Y-11540000D01*
D21*
X10531500Y-11498094D02*
G75*
G02*
X10509999Y-11549999I-73410J5D01*
G01*
%TD*%
%TA.AperFunction,Conductor*%
%TO.N,+1V8*%
G36*
X10753264Y-11288387D02*
G01*
X10753442Y-11288565D01*
X10766271Y-11304653D01*
X10766519Y-11305513D01*
X10766243Y-11306145D01*
X10765679Y-11306801D01*
X10759478Y-11317103D01*
X10756548Y-11327545D01*
X10757072Y-11336685D01*
X10760308Y-11343176D01*
X10760370Y-11344069D01*
X10759783Y-11344745D01*
X10759474Y-11344848D01*
X10732450Y-11349871D01*
X10731574Y-11349685D01*
X10731117Y-11349062D01*
X10721967Y-11319049D01*
X10722054Y-11318158D01*
X10722674Y-11317613D01*
X10727212Y-11315903D01*
X10733389Y-11310562D01*
X10745689Y-11295859D01*
X10751619Y-11288557D01*
X10752406Y-11288131D01*
X10753264Y-11288387D01*
G37*
%TD.AperFunction*%
%TD*%
%TA.AperFunction,Conductor*%
%TO.N,GND*%
G36*
X10361732Y-11437337D02*
G01*
X10358447Y-11456574D01*
X10353922Y-11473020D01*
X10348934Y-11487625D01*
X10343028Y-11505456D01*
X10339420Y-11523441D01*
X10339367Y-11542043D01*
X10256000Y-11550100D01*
X10221604Y-11474012D01*
X10235838Y-11469001D01*
X10251195Y-11465205D01*
X10264471Y-11461978D01*
X10280843Y-11456400D01*
X10292139Y-11449670D01*
X10300041Y-11441105D01*
X10302933Y-11435856D01*
X10305104Y-11429793D01*
X10306513Y-11422594D01*
X10307000Y-11414356D01*
X10363000Y-11414356D01*
X10361732Y-11437337D01*
G37*
%TD.AperFunction*%
%TD*%
%TA.AperFunction,Conductor*%
%TO.N,Net-(J2-Pin_11)*%
G36*
X10562175Y-11384013D02*
G01*
X10562517Y-11384823D01*
X10563241Y-11433084D01*
X10566032Y-11460758D01*
X10566032Y-11460758D01*
X10566032Y-11460759D01*
X10567117Y-11465933D01*
X10568477Y-11472410D01*
X10570297Y-11478504D01*
X10571847Y-11483694D01*
X10573887Y-11488813D01*
X10576985Y-11496588D01*
X10583224Y-11509133D01*
X10583285Y-11510026D01*
X10582733Y-11510682D01*
X10510738Y-11549700D01*
X10509847Y-11549793D01*
X10509385Y-11549529D01*
X10449632Y-11494134D01*
X10449258Y-11493320D01*
X10449569Y-11492480D01*
X10449570Y-11492480D01*
X10456470Y-11485132D01*
X10473792Y-11465933D01*
X10485365Y-11449423D01*
X10493439Y-11431837D01*
X10496390Y-11421854D01*
X10498594Y-11410747D01*
X10500012Y-11397981D01*
X10500461Y-11384823D01*
X10500462Y-11384800D01*
X10500832Y-11383985D01*
X10501631Y-11383670D01*
X10561347Y-11383670D01*
X10562175Y-11384013D01*
G37*
%TD.AperFunction*%
%TD*%
%TA.AperFunction,Conductor*%
%TO.N,+1V8*%
G36*
X11141143Y-11281413D02*
G01*
X11141146Y-11281414D01*
X11141146Y-11281414D01*
X11149744Y-11284161D01*
X11156509Y-11286322D01*
X11156510Y-11286322D01*
X11156510Y-11286322D01*
X11162953Y-11287829D01*
X11175067Y-11290663D01*
X11184962Y-11291341D01*
X11195057Y-11290825D01*
X11195900Y-11291125D01*
X11196281Y-11291877D01*
X11200011Y-11329195D01*
X11199753Y-11330052D01*
X11199330Y-11330377D01*
X11165385Y-11345745D01*
X11164490Y-11345774D01*
X11163836Y-11345162D01*
X11163815Y-11345111D01*
X11159828Y-11335080D01*
X11159825Y-11335074D01*
X11157990Y-11330377D01*
X11156275Y-11325990D01*
X11150304Y-11315651D01*
X11150304Y-11315651D01*
X11141779Y-11307746D01*
X11141778Y-11307746D01*
X11135761Y-11304348D01*
X11135760Y-11304348D01*
X11129344Y-11301827D01*
X11128700Y-11301205D01*
X11128659Y-11300377D01*
X11135065Y-11280663D01*
X11135646Y-11279983D01*
X11136539Y-11279912D01*
X11141143Y-11281413D01*
G37*
%TD.AperFunction*%
%TD*%
%TA.AperFunction,Conductor*%
%TO.N,+3V3*%
G36*
X11294115Y-11272916D02*
G01*
X11308813Y-11281344D01*
X11319722Y-11286062D01*
X11329701Y-11288804D01*
X11339856Y-11290173D01*
X11350148Y-11290709D01*
X11350956Y-11291094D01*
X11351256Y-11291913D01*
X11350110Y-11329214D01*
X11349742Y-11330030D01*
X11349281Y-11330297D01*
X11313449Y-11341184D01*
X11312558Y-11341096D01*
X11311989Y-11340404D01*
X11311988Y-11340401D01*
X11309929Y-11333217D01*
X11307974Y-11326356D01*
X11302882Y-11313586D01*
X11294936Y-11302853D01*
X11294935Y-11302853D01*
X11294935Y-11302852D01*
X11288808Y-11297369D01*
X11281815Y-11292470D01*
X11281334Y-11291715D01*
X11281496Y-11290889D01*
X11281572Y-11290769D01*
X11292543Y-11273308D01*
X11293273Y-11272790D01*
X11294115Y-11272916D01*
G37*
%TD.AperFunction*%
%TD*%
%TA.AperFunction,Conductor*%
%TO.N,+3V3*%
G36*
X10637854Y-11285989D02*
G01*
X10638008Y-11286076D01*
X10655246Y-11297594D01*
X10655744Y-11298338D01*
X10655701Y-11298952D01*
X10651721Y-11310352D01*
X10650907Y-11320334D01*
X10650907Y-11320334D01*
X10653002Y-11327651D01*
X10653002Y-11327651D01*
X10656951Y-11331680D01*
X10657285Y-11332510D01*
X10656935Y-11333334D01*
X10656707Y-11333508D01*
X10629557Y-11349430D01*
X10628670Y-11349553D01*
X10627956Y-11349013D01*
X10627904Y-11348913D01*
X10614228Y-11319317D01*
X10614193Y-11318423D01*
X10614800Y-11317764D01*
X10615016Y-11317689D01*
X10616692Y-11317285D01*
X10619667Y-11315252D01*
X10625263Y-11308362D01*
X10634360Y-11290698D01*
X10636299Y-11286553D01*
X10636960Y-11285949D01*
X10637854Y-11285989D01*
G37*
%TD.AperFunction*%
%TD*%
%TA.AperFunction,Conductor*%
%TO.N,Net-(J2-Pin_10)*%
G36*
X10858253Y-11396776D02*
G01*
X10859075Y-11397130D01*
X10859406Y-11397963D01*
X10859405Y-11398007D01*
X10858361Y-11418070D01*
X10858353Y-11418157D01*
X10856019Y-11436465D01*
X10856003Y-11436557D01*
X10849613Y-11466950D01*
X10844359Y-11492345D01*
X10844359Y-11492346D01*
X10843321Y-11510955D01*
X10844156Y-11520296D01*
X10845848Y-11529161D01*
X10845667Y-11530038D01*
X10844974Y-11530518D01*
X10764835Y-11549898D01*
X10763950Y-11549759D01*
X10763556Y-11549362D01*
X10746126Y-11520296D01*
X10721246Y-11478806D01*
X10721115Y-11477920D01*
X10721648Y-11477201D01*
X10721709Y-11477167D01*
X10742083Y-11466596D01*
X10742094Y-11466590D01*
X10753492Y-11460995D01*
X10770016Y-11451226D01*
X10781647Y-11441055D01*
X10789940Y-11429222D01*
X10792993Y-11422351D01*
X10795314Y-11414624D01*
X10796848Y-11405805D01*
X10797404Y-11397033D01*
X10797798Y-11396229D01*
X10798587Y-11395937D01*
X10858253Y-11396776D01*
G37*
%TD.AperFunction*%
%TD*%
%TA.AperFunction,Conductor*%
%TO.N,GND*%
G36*
X13150575Y-11130219D02*
G01*
X13170591Y-11134200D01*
X13172031Y-11134586D01*
X13193141Y-11141752D01*
X13194517Y-11142322D01*
X13214512Y-11152183D01*
X13215803Y-11152928D01*
X13234340Y-11165314D01*
X13235520Y-11166220D01*
X13252575Y-11181177D01*
X13253118Y-11181686D01*
X13253118Y-11181686D01*
X13255397Y-11183965D01*
X13255397Y-11183965D01*
X13256336Y-11184904D01*
X13553323Y-11481891D01*
X13553833Y-11482436D01*
X13563881Y-11493893D01*
X13568779Y-11499478D01*
X13569686Y-11500661D01*
X13582071Y-11519196D01*
X13582817Y-11520488D01*
X13592677Y-11540482D01*
X13593248Y-11541859D01*
X13600414Y-11562970D01*
X13600800Y-11564410D01*
X13605150Y-11586274D01*
X13605344Y-11587752D01*
X13606826Y-11610338D01*
X13606850Y-11611084D01*
X13606850Y-11659551D01*
X13606815Y-11660446D01*
X13605297Y-11679732D01*
X13605017Y-11681499D01*
X13600606Y-11699871D01*
X13600053Y-11701573D01*
X13592823Y-11719029D01*
X13592010Y-11720623D01*
X13582137Y-11736735D01*
X13581086Y-11738182D01*
X13568815Y-11752550D01*
X13567550Y-11753815D01*
X13553182Y-11766086D01*
X13551735Y-11767137D01*
X13535623Y-11777010D01*
X13534029Y-11777823D01*
X13516573Y-11785053D01*
X13514871Y-11785606D01*
X13496499Y-11790017D01*
X13494732Y-11790297D01*
X13477709Y-11791637D01*
X13475446Y-11791815D01*
X13474552Y-11791850D01*
X9175448Y-11791850D01*
X9174554Y-11791815D01*
X9172031Y-11791616D01*
X9155268Y-11790297D01*
X9153501Y-11790017D01*
X9135128Y-11785606D01*
X9133427Y-11785053D01*
X9115970Y-11777823D01*
X9114377Y-11777010D01*
X9098265Y-11767137D01*
X9096819Y-11766086D01*
X9082450Y-11753814D01*
X9081185Y-11752550D01*
X9068913Y-11738181D01*
X9067862Y-11736735D01*
X9057989Y-11720623D01*
X9057178Y-11719030D01*
X9049946Y-11701572D01*
X9049394Y-11699872D01*
X9044983Y-11681498D01*
X9044703Y-11679732D01*
X9044360Y-11675370D01*
X9043185Y-11660446D01*
X9043150Y-11659551D01*
X9043150Y-11539949D01*
X9137950Y-11539949D01*
X9137950Y-11560051D01*
X9139883Y-11569768D01*
X9141872Y-11579767D01*
X9141872Y-11579767D01*
X9149564Y-11598338D01*
X9149565Y-11598339D01*
X9160732Y-11615053D01*
X9174947Y-11629268D01*
X9191660Y-11640435D01*
X9191661Y-11640436D01*
X9210233Y-11648128D01*
X9210233Y-11648128D01*
X9210233Y-11648128D01*
X9229949Y-11652050D01*
X9229949Y-11652050D01*
X9250051Y-11652050D01*
X9250051Y-11652050D01*
X9269767Y-11648128D01*
X9269767Y-11648128D01*
X9269768Y-11648128D01*
X9282148Y-11643000D01*
X9288339Y-11640436D01*
X9305053Y-11629267D01*
X9319267Y-11615053D01*
X9330436Y-11598339D01*
X9335129Y-11587007D01*
X9338128Y-11579767D01*
X9338128Y-11579767D01*
X9338128Y-11579767D01*
X9338128Y-11579767D01*
X9342050Y-11560051D01*
X9342050Y-11539949D01*
X9391950Y-11539949D01*
X9391950Y-11560051D01*
X9393883Y-11569768D01*
X9395872Y-11579767D01*
X9395872Y-11579767D01*
X9403564Y-11598338D01*
X9403565Y-11598339D01*
X9414732Y-11615053D01*
X9428947Y-11629268D01*
X9445660Y-11640435D01*
X9445661Y-11640436D01*
X9464233Y-11648128D01*
X9464233Y-11648128D01*
X9464233Y-11648128D01*
X9483949Y-11652050D01*
X9483949Y-11652050D01*
X9504051Y-11652050D01*
X9504051Y-11652050D01*
X9523767Y-11648128D01*
X9523767Y-11648128D01*
X9523768Y-11648128D01*
X9536148Y-11643000D01*
X9542339Y-11640436D01*
X9559053Y-11629267D01*
X9573267Y-11615053D01*
X9584436Y-11598339D01*
X9589129Y-11587007D01*
X9592128Y-11579767D01*
X9592128Y-11579767D01*
X9592128Y-11579767D01*
X9592128Y-11579767D01*
X9596050Y-11560051D01*
X9596050Y-11539949D01*
X9645950Y-11539949D01*
X9645950Y-11560051D01*
X9647883Y-11569768D01*
X9649872Y-11579767D01*
X9649872Y-11579767D01*
X9657564Y-11598338D01*
X9657565Y-11598339D01*
X9668732Y-11615053D01*
X9682947Y-11629268D01*
X9699660Y-11640435D01*
X9699661Y-11640436D01*
X9718233Y-11648128D01*
X9718233Y-11648128D01*
X9718233Y-11648128D01*
X9737949Y-11652050D01*
X9737949Y-11652050D01*
X9758051Y-11652050D01*
X9758051Y-11652050D01*
X9777767Y-11648128D01*
X9777767Y-11648128D01*
X9777768Y-11648128D01*
X9790148Y-11643000D01*
X9796339Y-11640436D01*
X9813053Y-11629267D01*
X9827267Y-11615053D01*
X9838436Y-11598339D01*
X9843129Y-11587007D01*
X9846128Y-11579767D01*
X9846128Y-11579767D01*
X9846128Y-11579767D01*
X9846128Y-11579767D01*
X9850050Y-11560051D01*
X9850050Y-11539949D01*
X9899950Y-11539949D01*
X9899950Y-11560051D01*
X9901883Y-11569768D01*
X9903872Y-11579767D01*
X9903872Y-11579767D01*
X9911564Y-11598338D01*
X9911565Y-11598339D01*
X9922732Y-11615053D01*
X9936947Y-11629268D01*
X9953660Y-11640435D01*
X9953661Y-11640436D01*
X9972233Y-11648128D01*
X9972233Y-11648128D01*
X9972233Y-11648128D01*
X9991949Y-11652050D01*
X9991949Y-11652050D01*
X10012051Y-11652050D01*
X10012051Y-11652050D01*
X10031767Y-11648128D01*
X10031767Y-11648128D01*
X10031768Y-11648128D01*
X10044148Y-11643000D01*
X10050339Y-11640436D01*
X10067053Y-11629267D01*
X10081267Y-11615053D01*
X10092436Y-11598339D01*
X10097129Y-11587007D01*
X10100128Y-11579767D01*
X10100128Y-11579767D01*
X10100128Y-11579767D01*
X10100128Y-11579767D01*
X10104050Y-11560051D01*
X10104050Y-11539949D01*
X10100997Y-11524600D01*
X10130630Y-11524600D01*
X10212930Y-11524600D01*
X10209408Y-11530701D01*
X10206000Y-11543417D01*
X10206000Y-11556583D01*
X10209408Y-11569299D01*
X10212930Y-11575400D01*
X10130630Y-11575400D01*
X10131347Y-11579927D01*
X10137563Y-11599058D01*
X10146696Y-11616982D01*
X10158520Y-11633256D01*
X10172744Y-11647480D01*
X10189018Y-11659304D01*
X10206942Y-11668437D01*
X10226073Y-11674653D01*
X10230600Y-11675370D01*
X10230600Y-11593070D01*
X10236701Y-11596592D01*
X10249417Y-11600000D01*
X10262583Y-11600000D01*
X10275299Y-11596592D01*
X10281400Y-11593070D01*
X10281400Y-11675370D01*
X10285927Y-11674653D01*
X10305058Y-11668437D01*
X10322982Y-11659304D01*
X10339256Y-11647480D01*
X10353480Y-11633256D01*
X10365304Y-11616982D01*
X10374437Y-11599058D01*
X10380653Y-11579927D01*
X10381370Y-11575400D01*
X10299070Y-11575400D01*
X10302593Y-11569299D01*
X10306000Y-11556583D01*
X10306000Y-11543417D01*
X10302593Y-11530701D01*
X10299070Y-11524600D01*
X10381370Y-11524600D01*
X10380653Y-11520073D01*
X10374437Y-11500942D01*
X10367117Y-11486575D01*
X10365931Y-11480262D01*
X10368347Y-11474310D01*
X10373597Y-11470609D01*
X10377274Y-11470000D01*
X10380000Y-11470000D01*
X10380000Y-11429694D01*
X10379482Y-11429301D01*
X10378663Y-11427055D01*
X10377517Y-11424958D01*
X10377579Y-11424087D01*
X10377280Y-11423266D01*
X10377805Y-11420934D01*
X10377975Y-11418551D01*
X10378536Y-11417685D01*
X10378691Y-11416999D01*
X10379854Y-11415650D01*
X10380654Y-11414416D01*
X10395819Y-11399467D01*
X10397982Y-11398305D01*
X10399966Y-11396857D01*
X10400769Y-11396809D01*
X10401479Y-11396429D01*
X10403927Y-11396621D01*
X10406378Y-11396475D01*
X10407713Y-11396919D01*
X10407882Y-11396933D01*
X10407983Y-11397009D01*
X10408427Y-11397157D01*
X10409767Y-11397749D01*
X10409768Y-11397749D01*
X10409768Y-11397749D01*
X10412364Y-11398050D01*
X10423346Y-11398050D01*
X10423347Y-11398050D01*
X10424674Y-11398050D01*
X10469337Y-11398050D01*
X10471193Y-11398595D01*
X10473124Y-11398697D01*
X10474213Y-11399482D01*
X10475500Y-11399860D01*
X10476767Y-11401321D01*
X10478336Y-11402452D01*
X10478828Y-11403700D01*
X10479707Y-11404714D01*
X10479982Y-11406629D01*
X10480691Y-11408428D01*
X10480570Y-11410715D01*
X10480621Y-11411072D01*
X10480519Y-11411669D01*
X10479434Y-11417137D01*
X10479184Y-11418150D01*
X10477197Y-11424874D01*
X10476625Y-11426398D01*
X10470511Y-11439713D01*
X10469486Y-11441500D01*
X10466812Y-11445316D01*
X10460442Y-11454403D01*
X10459570Y-11455497D01*
X10448105Y-11468204D01*
X10445976Y-11470045D01*
X10444947Y-11470732D01*
X10444947Y-11470732D01*
X10430732Y-11484947D01*
X10419565Y-11501660D01*
X10419564Y-11501661D01*
X10411872Y-11520232D01*
X10411872Y-11520232D01*
X10411003Y-11524600D01*
X10407950Y-11539949D01*
X10407950Y-11560051D01*
X10409883Y-11569768D01*
X10411872Y-11579767D01*
X10411872Y-11579767D01*
X10419564Y-11598338D01*
X10419565Y-11598339D01*
X10430732Y-11615053D01*
X10444947Y-11629268D01*
X10461660Y-11640435D01*
X10461661Y-11640436D01*
X10480233Y-11648128D01*
X10480233Y-11648128D01*
X10480233Y-11648128D01*
X10499949Y-11652050D01*
X10499949Y-11652050D01*
X10520051Y-11652050D01*
X10520051Y-11652050D01*
X10539767Y-11648128D01*
X10539767Y-11648128D01*
X10539768Y-11648128D01*
X10552148Y-11643000D01*
X10558339Y-11640436D01*
X10575053Y-11629267D01*
X10589267Y-11615053D01*
X10600436Y-11598339D01*
X10605129Y-11587007D01*
X10608128Y-11579767D01*
X10608128Y-11579767D01*
X10608128Y-11579767D01*
X10608128Y-11579767D01*
X10612050Y-11560051D01*
X10612050Y-11539949D01*
X10608128Y-11520233D01*
X10608128Y-11520232D01*
X10608128Y-11520232D01*
X10600436Y-11501661D01*
X10600435Y-11501661D01*
X10595734Y-11494625D01*
X10595649Y-11494498D01*
X10594921Y-11493241D01*
X10594880Y-11493159D01*
X10593229Y-11489840D01*
X10592848Y-11488986D01*
X10588626Y-11478392D01*
X10588293Y-11477436D01*
X10585638Y-11468546D01*
X10585405Y-11467624D01*
X10585279Y-11467025D01*
X10583524Y-11458661D01*
X10583338Y-11457464D01*
X10583088Y-11454977D01*
X10580826Y-11432553D01*
X10580770Y-11431584D01*
X10580369Y-11404836D01*
X10582086Y-11398647D01*
X10586877Y-11394368D01*
X10593221Y-11393358D01*
X10596586Y-11394333D01*
X10605393Y-11398440D01*
X10610024Y-11399050D01*
X10610024Y-11399050D01*
X10646976Y-11399050D01*
X10646976Y-11399050D01*
X10651607Y-11398440D01*
X10661771Y-11393701D01*
X10669701Y-11385771D01*
X10670273Y-11384954D01*
X10670382Y-11385031D01*
X10673913Y-11381020D01*
X10680090Y-11379260D01*
X10686239Y-11381118D01*
X10689625Y-11385026D01*
X10689727Y-11384954D01*
X10690299Y-11385771D01*
X10698229Y-11393701D01*
X10698229Y-11393701D01*
X10698229Y-11393701D01*
X10708393Y-11398440D01*
X10713024Y-11399050D01*
X10713024Y-11399050D01*
X10749976Y-11399050D01*
X10749976Y-11399050D01*
X10754607Y-11398440D01*
X10762794Y-11394623D01*
X10763827Y-11394466D01*
X10764722Y-11393927D01*
X10766945Y-11393992D01*
X10769144Y-11393658D01*
X10770098Y-11394085D01*
X10771143Y-11394116D01*
X10772978Y-11395373D01*
X10775008Y-11396280D01*
X10775580Y-11397155D01*
X10776442Y-11397746D01*
X10777306Y-11399795D01*
X10778524Y-11401656D01*
X10778596Y-11402855D01*
X10778938Y-11403665D01*
X10778843Y-11406908D01*
X10778321Y-11409909D01*
X10778007Y-11411235D01*
X10776712Y-11415549D01*
X10776211Y-11416898D01*
X10775041Y-11419532D01*
X10773959Y-11421446D01*
X10769287Y-11428112D01*
X10767456Y-11430151D01*
X10760481Y-11436251D01*
X10758778Y-11437483D01*
X10745528Y-11445316D01*
X10744750Y-11445736D01*
X10734362Y-11450836D01*
X10734133Y-11450950D01*
X10733988Y-11451024D01*
X10725354Y-11455504D01*
X10724467Y-11455917D01*
X10715661Y-11459564D01*
X10715660Y-11459565D01*
X10698947Y-11470732D01*
X10684732Y-11484947D01*
X10673565Y-11501660D01*
X10673564Y-11501661D01*
X10665872Y-11520232D01*
X10665872Y-11520232D01*
X10665003Y-11524600D01*
X10661950Y-11539949D01*
X10661950Y-11560051D01*
X10663883Y-11569768D01*
X10665872Y-11579767D01*
X10665872Y-11579767D01*
X10673564Y-11598338D01*
X10673565Y-11598339D01*
X10684732Y-11615053D01*
X10698947Y-11629268D01*
X10715660Y-11640435D01*
X10715661Y-11640436D01*
X10734233Y-11648128D01*
X10734233Y-11648128D01*
X10734233Y-11648128D01*
X10753949Y-11652050D01*
X10753949Y-11652050D01*
X10774051Y-11652050D01*
X10774051Y-11652050D01*
X10793767Y-11648128D01*
X10793767Y-11648128D01*
X10793768Y-11648128D01*
X10806148Y-11643000D01*
X10812339Y-11640436D01*
X10829053Y-11629267D01*
X10843267Y-11615053D01*
X10854436Y-11598339D01*
X10859129Y-11587007D01*
X10862128Y-11579767D01*
X10862128Y-11579767D01*
X10862128Y-11579767D01*
X10862128Y-11579767D01*
X10866050Y-11560051D01*
X10866050Y-11539949D01*
X10862128Y-11520233D01*
X10862128Y-11520232D01*
X10862128Y-11520232D01*
X10861987Y-11519768D01*
X10861700Y-11518602D01*
X10861666Y-11518424D01*
X10861509Y-11517301D01*
X10860988Y-11511483D01*
X10860961Y-11509835D01*
X10861762Y-11495470D01*
X10861981Y-11493796D01*
X10862886Y-11489421D01*
X10866794Y-11470531D01*
X10873178Y-11440168D01*
X10873178Y-11440165D01*
X10873310Y-11439471D01*
X10873325Y-11439381D01*
X10873325Y-11439377D01*
X10873428Y-11438685D01*
X10875762Y-11420377D01*
X10875833Y-11419721D01*
X10875841Y-11419634D01*
X10875887Y-11418982D01*
X10876232Y-11412354D01*
X10876268Y-11411865D01*
X10876277Y-11411771D01*
X10876550Y-11409349D01*
X10876550Y-11408908D01*
X10876601Y-11408368D01*
X10877601Y-11405869D01*
X10878360Y-11403287D01*
X10878781Y-11402922D01*
X10878988Y-11402405D01*
X10881180Y-11400843D01*
X10883214Y-11399080D01*
X10883848Y-11398942D01*
X10884219Y-11398678D01*
X10885302Y-11398626D01*
X10887950Y-11398050D01*
X10929653Y-11398050D01*
X10929654Y-11398050D01*
X10940635Y-11398050D01*
X10940636Y-11398050D01*
X10943232Y-11397749D01*
X10944573Y-11397157D01*
X10950942Y-11396322D01*
X10956751Y-11399064D01*
X10958222Y-11400645D01*
X10963490Y-11407510D01*
X10970169Y-11412635D01*
X10973957Y-11417823D01*
X10974339Y-11424235D01*
X10971193Y-11429836D01*
X10968404Y-11431837D01*
X10951018Y-11440696D01*
X10934744Y-11452520D01*
X10920520Y-11466744D01*
X10908696Y-11483018D01*
X10899563Y-11500942D01*
X10893347Y-11520073D01*
X10892630Y-11524600D01*
X10974930Y-11524600D01*
X10971408Y-11530701D01*
X10968000Y-11543417D01*
X10968000Y-11556583D01*
X10971408Y-11569299D01*
X10974930Y-11575400D01*
X10892630Y-11575400D01*
X10893347Y-11579927D01*
X10899563Y-11599058D01*
X10908696Y-11616982D01*
X10920520Y-11633256D01*
X10934744Y-11647480D01*
X10951018Y-11659304D01*
X10968942Y-11668437D01*
X10988073Y-11674653D01*
X10992600Y-11675370D01*
X10992600Y-11593070D01*
X10998701Y-11596592D01*
X11011417Y-11600000D01*
X11024583Y-11600000D01*
X11037299Y-11596592D01*
X11043400Y-11593070D01*
X11043400Y-11675370D01*
X11047927Y-11674653D01*
X11067058Y-11668437D01*
X11084982Y-11659304D01*
X11101256Y-11647480D01*
X11115480Y-11633256D01*
X11127304Y-11616982D01*
X11136437Y-11599058D01*
X11142653Y-11579927D01*
X11143370Y-11575400D01*
X11061070Y-11575400D01*
X11064593Y-11569299D01*
X11068000Y-11556583D01*
X11068000Y-11543417D01*
X11067071Y-11539949D01*
X11169950Y-11539949D01*
X11169950Y-11560051D01*
X11171883Y-11569768D01*
X11173872Y-11579767D01*
X11173872Y-11579767D01*
X11181564Y-11598338D01*
X11181565Y-11598339D01*
X11192732Y-11615053D01*
X11206947Y-11629268D01*
X11223660Y-11640435D01*
X11223661Y-11640436D01*
X11242232Y-11648128D01*
X11242233Y-11648128D01*
X11242233Y-11648128D01*
X11261949Y-11652050D01*
X11261949Y-11652050D01*
X11282051Y-11652050D01*
X11282051Y-11652050D01*
X11301767Y-11648128D01*
X11301767Y-11648128D01*
X11301767Y-11648128D01*
X11314148Y-11643000D01*
X11320339Y-11640436D01*
X11337053Y-11629267D01*
X11351267Y-11615053D01*
X11362436Y-11598339D01*
X11367129Y-11587007D01*
X11370128Y-11579767D01*
X11370128Y-11579767D01*
X11370128Y-11579767D01*
X11370128Y-11579767D01*
X11374050Y-11560051D01*
X11374050Y-11539949D01*
X11423950Y-11539949D01*
X11423950Y-11560051D01*
X11425883Y-11569768D01*
X11427872Y-11579767D01*
X11427872Y-11579767D01*
X11435564Y-11598338D01*
X11435565Y-11598339D01*
X11446732Y-11615053D01*
X11460947Y-11629268D01*
X11477660Y-11640435D01*
X11477661Y-11640436D01*
X11496232Y-11648128D01*
X11496233Y-11648128D01*
X11496233Y-11648128D01*
X11515949Y-11652050D01*
X11515949Y-11652050D01*
X11536051Y-11652050D01*
X11536051Y-11652050D01*
X11555767Y-11648128D01*
X11555767Y-11648128D01*
X11555767Y-11648128D01*
X11568148Y-11643000D01*
X11574339Y-11640436D01*
X11591053Y-11629267D01*
X11605267Y-11615053D01*
X11616436Y-11598339D01*
X11621129Y-11587007D01*
X11624128Y-11579767D01*
X11624128Y-11579767D01*
X11624128Y-11579767D01*
X11624128Y-11579767D01*
X11628050Y-11560051D01*
X11628050Y-11539949D01*
X11677950Y-11539949D01*
X11677950Y-11560051D01*
X11679883Y-11569768D01*
X11681872Y-11579767D01*
X11681872Y-11579767D01*
X11689564Y-11598338D01*
X11689565Y-11598339D01*
X11700732Y-11615053D01*
X11714947Y-11629268D01*
X11731660Y-11640435D01*
X11731661Y-11640436D01*
X11750232Y-11648128D01*
X11750233Y-11648128D01*
X11750233Y-11648128D01*
X11769949Y-11652050D01*
X11769949Y-11652050D01*
X11790051Y-11652050D01*
X11790051Y-11652050D01*
X11809767Y-11648128D01*
X11809767Y-11648128D01*
X11809767Y-11648128D01*
X11822148Y-11643000D01*
X11828339Y-11640436D01*
X11845053Y-11629267D01*
X11859267Y-11615053D01*
X11870436Y-11598339D01*
X11875129Y-11587007D01*
X11878128Y-11579767D01*
X11878128Y-11579767D01*
X11878128Y-11579767D01*
X11878128Y-11579767D01*
X11882050Y-11560051D01*
X11882050Y-11539949D01*
X11931950Y-11539949D01*
X11931950Y-11560051D01*
X11933883Y-11569768D01*
X11935872Y-11579767D01*
X11935872Y-11579767D01*
X11943564Y-11598338D01*
X11943565Y-11598339D01*
X11954732Y-11615053D01*
X11968947Y-11629268D01*
X11985660Y-11640435D01*
X11985661Y-11640436D01*
X12004232Y-11648128D01*
X12004233Y-11648128D01*
X12004233Y-11648128D01*
X12023949Y-11652050D01*
X12023949Y-11652050D01*
X12044051Y-11652050D01*
X12044051Y-11652050D01*
X12063767Y-11648128D01*
X12063767Y-11648128D01*
X12063767Y-11648128D01*
X12076148Y-11643000D01*
X12082339Y-11640436D01*
X12099053Y-11629267D01*
X12113267Y-11615053D01*
X12124436Y-11598339D01*
X12129129Y-11587007D01*
X12132128Y-11579767D01*
X12132128Y-11579767D01*
X12132128Y-11579767D01*
X12132128Y-11579767D01*
X12136050Y-11560051D01*
X12136050Y-11539949D01*
X12132997Y-11524600D01*
X12162630Y-11524600D01*
X12244930Y-11524600D01*
X12241407Y-11530701D01*
X12238000Y-11543417D01*
X12238000Y-11556583D01*
X12241407Y-11569299D01*
X12244930Y-11575400D01*
X12162630Y-11575400D01*
X12163347Y-11579927D01*
X12169563Y-11599058D01*
X12178696Y-11616982D01*
X12190520Y-11633256D01*
X12204744Y-11647480D01*
X12221018Y-11659304D01*
X12238942Y-11668437D01*
X12258073Y-11674653D01*
X12262600Y-11675370D01*
X12262600Y-11593070D01*
X12268701Y-11596592D01*
X12281417Y-11600000D01*
X12294583Y-11600000D01*
X12307299Y-11596592D01*
X12313400Y-11593070D01*
X12313400Y-11675370D01*
X12317927Y-11674653D01*
X12337058Y-11668437D01*
X12354982Y-11659304D01*
X12371256Y-11647480D01*
X12385480Y-11633256D01*
X12397304Y-11616982D01*
X12406437Y-11599058D01*
X12412653Y-11579927D01*
X12413370Y-11575400D01*
X12331070Y-11575400D01*
X12334592Y-11569299D01*
X12338000Y-11556583D01*
X12338000Y-11543417D01*
X12337071Y-11539949D01*
X12439950Y-11539949D01*
X12439950Y-11560051D01*
X12441883Y-11569768D01*
X12443872Y-11579767D01*
X12443872Y-11579767D01*
X12451564Y-11598338D01*
X12451565Y-11598339D01*
X12462732Y-11615053D01*
X12476947Y-11629268D01*
X12493660Y-11640435D01*
X12493661Y-11640436D01*
X12512232Y-11648128D01*
X12512233Y-11648128D01*
X12512233Y-11648128D01*
X12531949Y-11652050D01*
X12531949Y-11652050D01*
X12552051Y-11652050D01*
X12552051Y-11652050D01*
X12571767Y-11648128D01*
X12571767Y-11648128D01*
X12571767Y-11648128D01*
X12584148Y-11643000D01*
X12590339Y-11640436D01*
X12607053Y-11629267D01*
X12621267Y-11615053D01*
X12632436Y-11598339D01*
X12637129Y-11587007D01*
X12640128Y-11579767D01*
X12640128Y-11579767D01*
X12640128Y-11579767D01*
X12640128Y-11579767D01*
X12644050Y-11560051D01*
X12644050Y-11539949D01*
X12693950Y-11539949D01*
X12693950Y-11560051D01*
X12695883Y-11569768D01*
X12697872Y-11579767D01*
X12697872Y-11579767D01*
X12705564Y-11598338D01*
X12705565Y-11598339D01*
X12716732Y-11615053D01*
X12730947Y-11629268D01*
X12747660Y-11640435D01*
X12747661Y-11640436D01*
X12766232Y-11648128D01*
X12766233Y-11648128D01*
X12766233Y-11648128D01*
X12785949Y-11652050D01*
X12785949Y-11652050D01*
X12806051Y-11652050D01*
X12806051Y-11652050D01*
X12825767Y-11648128D01*
X12825767Y-11648128D01*
X12825767Y-11648128D01*
X12838148Y-11643000D01*
X12844339Y-11640436D01*
X12861053Y-11629267D01*
X12875267Y-11615053D01*
X12886436Y-11598339D01*
X12891129Y-11587007D01*
X12894128Y-11579767D01*
X12894128Y-11579767D01*
X12894128Y-11579767D01*
X12894128Y-11579767D01*
X12898050Y-11560051D01*
X12898050Y-11539949D01*
X12894128Y-11520233D01*
X12894128Y-11520232D01*
X12894128Y-11520232D01*
X12886436Y-11501661D01*
X12886435Y-11501660D01*
X12875268Y-11484947D01*
X12861053Y-11470732D01*
X12858546Y-11469057D01*
X12858546Y-11469057D01*
X12844758Y-11459844D01*
X12922200Y-11459844D01*
X12922200Y-11524600D01*
X13006930Y-11524600D01*
X13003407Y-11530701D01*
X13000000Y-11543417D01*
X13000000Y-11556583D01*
X13003407Y-11569299D01*
X13006930Y-11575400D01*
X12922200Y-11575400D01*
X12922200Y-11640155D01*
X12922471Y-11643046D01*
X12926733Y-11655225D01*
X12926733Y-11655225D01*
X12934394Y-11665606D01*
X12934394Y-11665606D01*
X12944775Y-11673267D01*
X12956953Y-11677529D01*
X12959845Y-11677800D01*
X13024600Y-11677800D01*
X13024600Y-11593070D01*
X13030701Y-11596592D01*
X13043417Y-11600000D01*
X13056583Y-11600000D01*
X13069299Y-11596592D01*
X13075400Y-11593070D01*
X13075400Y-11677800D01*
X13133362Y-11677800D01*
X13139525Y-11679610D01*
X13143732Y-11684464D01*
X13144646Y-11690822D01*
X13143561Y-11693956D01*
X13143647Y-11693991D01*
X13143361Y-11694681D01*
X13143361Y-11694681D01*
X13139950Y-11707411D01*
X13139950Y-11720589D01*
X13139959Y-11720623D01*
X13143361Y-11733318D01*
X13149950Y-11744731D01*
X13149950Y-11744732D01*
X13159268Y-11754050D01*
X13159269Y-11754050D01*
X13170681Y-11760639D01*
X13183411Y-11764050D01*
X13183411Y-11764050D01*
X13196589Y-11764050D01*
X13196589Y-11764050D01*
X13209319Y-11760639D01*
X13220731Y-11754050D01*
X13230050Y-11744731D01*
X13236639Y-11733319D01*
X13240050Y-11720589D01*
X13240050Y-11707411D01*
X13236639Y-11694681D01*
X13230050Y-11683269D01*
X13230050Y-11683268D01*
X13220732Y-11673950D01*
X13220731Y-11673950D01*
X13209318Y-11667361D01*
X13202769Y-11665606D01*
X13196589Y-11663950D01*
X13186281Y-11663950D01*
X13180118Y-11662140D01*
X13175911Y-11657286D01*
X13174997Y-11650928D01*
X13175521Y-11648785D01*
X13177529Y-11643047D01*
X13177800Y-11640156D01*
X13177800Y-11640154D01*
X13177800Y-11575400D01*
X13093070Y-11575400D01*
X13096592Y-11569299D01*
X13100000Y-11556583D01*
X13100000Y-11543417D01*
X13096592Y-11530701D01*
X13093070Y-11524600D01*
X13177800Y-11524600D01*
X13177800Y-11459845D01*
X13177529Y-11456953D01*
X13173267Y-11444775D01*
X13173267Y-11444775D01*
X13165606Y-11434394D01*
X13165606Y-11434394D01*
X13155225Y-11426733D01*
X13143047Y-11422471D01*
X13140156Y-11422200D01*
X13075400Y-11422200D01*
X13075400Y-11506930D01*
X13069299Y-11503407D01*
X13056583Y-11500000D01*
X13043417Y-11500000D01*
X13030701Y-11503407D01*
X13024600Y-11506930D01*
X13024600Y-11422200D01*
X12959845Y-11422200D01*
X12956953Y-11422471D01*
X12944775Y-11426733D01*
X12944775Y-11426733D01*
X12934394Y-11434394D01*
X12934394Y-11434394D01*
X12926733Y-11444775D01*
X12926733Y-11444775D01*
X12922471Y-11456953D01*
X12922200Y-11459844D01*
X12844758Y-11459844D01*
X12844340Y-11459565D01*
X12844338Y-11459564D01*
X12825767Y-11451872D01*
X12825767Y-11451872D01*
X12806051Y-11447950D01*
X12785949Y-11447950D01*
X12771437Y-11450836D01*
X12766232Y-11451872D01*
X12766232Y-11451872D01*
X12747661Y-11459564D01*
X12747660Y-11459565D01*
X12730947Y-11470732D01*
X12716732Y-11484947D01*
X12705565Y-11501660D01*
X12705564Y-11501661D01*
X12697872Y-11520232D01*
X12697872Y-11520232D01*
X12697003Y-11524600D01*
X12693950Y-11539949D01*
X12644050Y-11539949D01*
X12640128Y-11520233D01*
X12640128Y-11520232D01*
X12640128Y-11520232D01*
X12632436Y-11501661D01*
X12632435Y-11501660D01*
X12621268Y-11484947D01*
X12607053Y-11470732D01*
X12590339Y-11459565D01*
X12590338Y-11459564D01*
X12571767Y-11451872D01*
X12571767Y-11451872D01*
X12552051Y-11447950D01*
X12531949Y-11447950D01*
X12517437Y-11450836D01*
X12512232Y-11451872D01*
X12512232Y-11451872D01*
X12493661Y-11459564D01*
X12493660Y-11459565D01*
X12476947Y-11470732D01*
X12462732Y-11484947D01*
X12451565Y-11501660D01*
X12451564Y-11501661D01*
X12443872Y-11520232D01*
X12443872Y-11520232D01*
X12443003Y-11524600D01*
X12439950Y-11539949D01*
X12337071Y-11539949D01*
X12334592Y-11530701D01*
X12331070Y-11524600D01*
X12413370Y-11524600D01*
X12412653Y-11520073D01*
X12406437Y-11500942D01*
X12397304Y-11483018D01*
X12385480Y-11466744D01*
X12371256Y-11452520D01*
X12354982Y-11440696D01*
X12337058Y-11431563D01*
X12317927Y-11425347D01*
X12317925Y-11425346D01*
X12313400Y-11424630D01*
X12313400Y-11506930D01*
X12307299Y-11503407D01*
X12294583Y-11500000D01*
X12281417Y-11500000D01*
X12268701Y-11503407D01*
X12262600Y-11506930D01*
X12262600Y-11424630D01*
X12262600Y-11424630D01*
X12258075Y-11425346D01*
X12258073Y-11425347D01*
X12238942Y-11431563D01*
X12221018Y-11440696D01*
X12204744Y-11452520D01*
X12190520Y-11466744D01*
X12178696Y-11483018D01*
X12169563Y-11500942D01*
X12163347Y-11520073D01*
X12162630Y-11524600D01*
X12132997Y-11524600D01*
X12132128Y-11520233D01*
X12132128Y-11520232D01*
X12132128Y-11520232D01*
X12124436Y-11501661D01*
X12124435Y-11501660D01*
X12113268Y-11484947D01*
X12099053Y-11470732D01*
X12082339Y-11459565D01*
X12082338Y-11459564D01*
X12063767Y-11451872D01*
X12063767Y-11451872D01*
X12044051Y-11447950D01*
X12023949Y-11447950D01*
X12009437Y-11450836D01*
X12004232Y-11451872D01*
X12004232Y-11451872D01*
X11985661Y-11459564D01*
X11985660Y-11459565D01*
X11968947Y-11470732D01*
X11954732Y-11484947D01*
X11943565Y-11501660D01*
X11943564Y-11501661D01*
X11935872Y-11520232D01*
X11935872Y-11520232D01*
X11935003Y-11524600D01*
X11931950Y-11539949D01*
X11882050Y-11539949D01*
X11878128Y-11520233D01*
X11878128Y-11520232D01*
X11878128Y-11520232D01*
X11870436Y-11501661D01*
X11870435Y-11501660D01*
X11859268Y-11484947D01*
X11845053Y-11470732D01*
X11828339Y-11459565D01*
X11828338Y-11459564D01*
X11809767Y-11451872D01*
X11809767Y-11451872D01*
X11790051Y-11447950D01*
X11769949Y-11447950D01*
X11755437Y-11450836D01*
X11750232Y-11451872D01*
X11750232Y-11451872D01*
X11731661Y-11459564D01*
X11731660Y-11459565D01*
X11714947Y-11470732D01*
X11700732Y-11484947D01*
X11689565Y-11501660D01*
X11689564Y-11501661D01*
X11681872Y-11520232D01*
X11681872Y-11520232D01*
X11681003Y-11524600D01*
X11677950Y-11539949D01*
X11628050Y-11539949D01*
X11624128Y-11520233D01*
X11624128Y-11520232D01*
X11624128Y-11520232D01*
X11616436Y-11501661D01*
X11616435Y-11501660D01*
X11605268Y-11484947D01*
X11591053Y-11470732D01*
X11574339Y-11459565D01*
X11574338Y-11459564D01*
X11555767Y-11451872D01*
X11555767Y-11451872D01*
X11536051Y-11447950D01*
X11515949Y-11447950D01*
X11501437Y-11450836D01*
X11496232Y-11451872D01*
X11496232Y-11451872D01*
X11477661Y-11459564D01*
X11477660Y-11459565D01*
X11460947Y-11470732D01*
X11446732Y-11484947D01*
X11435565Y-11501660D01*
X11435564Y-11501661D01*
X11427872Y-11520232D01*
X11427872Y-11520232D01*
X11427003Y-11524600D01*
X11423950Y-11539949D01*
X11374050Y-11539949D01*
X11370128Y-11520233D01*
X11370128Y-11520232D01*
X11370128Y-11520232D01*
X11362436Y-11501661D01*
X11362435Y-11501660D01*
X11351268Y-11484947D01*
X11337053Y-11470732D01*
X11320339Y-11459565D01*
X11320338Y-11459564D01*
X11301767Y-11451872D01*
X11301767Y-11451872D01*
X11282051Y-11447950D01*
X11261949Y-11447950D01*
X11247437Y-11450836D01*
X11242232Y-11451872D01*
X11242232Y-11451872D01*
X11223661Y-11459564D01*
X11223660Y-11459565D01*
X11206947Y-11470732D01*
X11192732Y-11484947D01*
X11181565Y-11501660D01*
X11181564Y-11501661D01*
X11173872Y-11520232D01*
X11173872Y-11520232D01*
X11173003Y-11524600D01*
X11169950Y-11539949D01*
X11067071Y-11539949D01*
X11064593Y-11530701D01*
X11061070Y-11524600D01*
X11143370Y-11524600D01*
X11142653Y-11520073D01*
X11136437Y-11500942D01*
X11127304Y-11483018D01*
X11115480Y-11466744D01*
X11101256Y-11452520D01*
X11084982Y-11440696D01*
X11067596Y-11431837D01*
X11062926Y-11427426D01*
X11061382Y-11421191D01*
X11063454Y-11415111D01*
X11065831Y-11412635D01*
X11072510Y-11407510D01*
X11081615Y-11395645D01*
X11081615Y-11395645D01*
X11087338Y-11381828D01*
X11088184Y-11375400D01*
X11043400Y-11375400D01*
X11043400Y-11506930D01*
X11037299Y-11503407D01*
X11024583Y-11500000D01*
X11011417Y-11500000D01*
X10998701Y-11503407D01*
X10992600Y-11506930D01*
X10992600Y-11361400D01*
X10994410Y-11355237D01*
X10999264Y-11351030D01*
X11004000Y-11350000D01*
X11018000Y-11350000D01*
X11018000Y-11336000D01*
X11019810Y-11329837D01*
X11024664Y-11325630D01*
X11029400Y-11324600D01*
X11088184Y-11324600D01*
X11088751Y-11323954D01*
X11088699Y-11323148D01*
X11089313Y-11322042D01*
X11089508Y-11320793D01*
X11090842Y-11319289D01*
X11091818Y-11317533D01*
X11092932Y-11316934D01*
X11093772Y-11315988D01*
X11095707Y-11315445D01*
X11097477Y-11314495D01*
X11099572Y-11314360D01*
X11099956Y-11314252D01*
X11100713Y-11314286D01*
X11110035Y-11315020D01*
X11111801Y-11315299D01*
X11113347Y-11315671D01*
X11120908Y-11317486D01*
X11122416Y-11317961D01*
X11123443Y-11318364D01*
X11127459Y-11319942D01*
X11128893Y-11320625D01*
X11129236Y-11320819D01*
X11130191Y-11321358D01*
X11132337Y-11322925D01*
X11135170Y-11325551D01*
X11137290Y-11328209D01*
X11139981Y-11332869D01*
X11140727Y-11334420D01*
X11143476Y-11341452D01*
X11143519Y-11341562D01*
X11144859Y-11344935D01*
X11145277Y-11346194D01*
X11146838Y-11352020D01*
X11154349Y-11365029D01*
X11154349Y-11365030D01*
X11164970Y-11375651D01*
X11164971Y-11375651D01*
X11177980Y-11383162D01*
X11192489Y-11387050D01*
X11192489Y-11387050D01*
X11207510Y-11387050D01*
X11207511Y-11387050D01*
X11222020Y-11383162D01*
X11235029Y-11375651D01*
X11245651Y-11365029D01*
X11253162Y-11352020D01*
X11257050Y-11337511D01*
X11257050Y-11322489D01*
X11256602Y-11320819D01*
X11256662Y-11318302D01*
X11256404Y-11315797D01*
X11256737Y-11315137D01*
X11256755Y-11314397D01*
X11258166Y-11312312D01*
X11259303Y-11310065D01*
X11259941Y-11309690D01*
X11260356Y-11309077D01*
X11262670Y-11308086D01*
X11264841Y-11306811D01*
X11265580Y-11306840D01*
X11266260Y-11306549D01*
X11268743Y-11306966D01*
X11271259Y-11307067D01*
X11272215Y-11307550D01*
X11272595Y-11307614D01*
X11274154Y-11308531D01*
X11277327Y-11310753D01*
X11278388Y-11311595D01*
X11281030Y-11313959D01*
X11282589Y-11315670D01*
X11286544Y-11321012D01*
X11287971Y-11323573D01*
X11291126Y-11331486D01*
X11291499Y-11332580D01*
X11293051Y-11338027D01*
X11293059Y-11338052D01*
X11293587Y-11339895D01*
X11293593Y-11339915D01*
X11293593Y-11339916D01*
X11293642Y-11340093D01*
X11296838Y-11352020D01*
X11304348Y-11365029D01*
X11304349Y-11365030D01*
X11314970Y-11375651D01*
X11314970Y-11375651D01*
X11327979Y-11383162D01*
X11342489Y-11387050D01*
X11342489Y-11387050D01*
X11357510Y-11387050D01*
X11357511Y-11387050D01*
X11372020Y-11383162D01*
X11385029Y-11375651D01*
X11395651Y-11365029D01*
X11403162Y-11352020D01*
X11407050Y-11337511D01*
X11407050Y-11322489D01*
X11404617Y-11313411D01*
X13219950Y-11313411D01*
X13219950Y-11326589D01*
X13221407Y-11332026D01*
X13223361Y-11339318D01*
X13229950Y-11350731D01*
X13229950Y-11350732D01*
X13239268Y-11360050D01*
X13239269Y-11360050D01*
X13250681Y-11366639D01*
X13263411Y-11370050D01*
X13263411Y-11370050D01*
X13276589Y-11370050D01*
X13276589Y-11370050D01*
X13289319Y-11366639D01*
X13300731Y-11360050D01*
X13310050Y-11350731D01*
X13316639Y-11339319D01*
X13320050Y-11326589D01*
X13320050Y-11313411D01*
X13316639Y-11300681D01*
X13310050Y-11289269D01*
X13310050Y-11289268D01*
X13300732Y-11279950D01*
X13300731Y-11279950D01*
X13289318Y-11273361D01*
X13282631Y-11271569D01*
X13276589Y-11269950D01*
X13263411Y-11269950D01*
X13258127Y-11271366D01*
X13250681Y-11273361D01*
X13239269Y-11279950D01*
X13239268Y-11279950D01*
X13229950Y-11289268D01*
X13229950Y-11289269D01*
X13223361Y-11300681D01*
X13221789Y-11306549D01*
X13219950Y-11313411D01*
X11404617Y-11313411D01*
X11403162Y-11307979D01*
X11395651Y-11294970D01*
X11395651Y-11294970D01*
X11385030Y-11284349D01*
X11385029Y-11284348D01*
X11372020Y-11276838D01*
X11357511Y-11272950D01*
X11357510Y-11272950D01*
X11346891Y-11272950D01*
X11346297Y-11272934D01*
X11341954Y-11272708D01*
X11341024Y-11272621D01*
X11333974Y-11271671D01*
X11332475Y-11271366D01*
X11326330Y-11269677D01*
X11324826Y-11269148D01*
X11317275Y-11265882D01*
X11316129Y-11265308D01*
X11302845Y-11257691D01*
X11302845Y-11257691D01*
X11300679Y-11256938D01*
X11299046Y-11256224D01*
X11285502Y-11248984D01*
X11281243Y-11246707D01*
X11281241Y-11246707D01*
X11252308Y-11234722D01*
X11252307Y-11234721D01*
X11222337Y-11225630D01*
X11222336Y-11225630D01*
X11191620Y-11219520D01*
X11191619Y-11219520D01*
X11160451Y-11216450D01*
X11148551Y-11216450D01*
X10738534Y-11216450D01*
X10733500Y-11216450D01*
X10722989Y-11216450D01*
X10705272Y-11219256D01*
X10702226Y-11219738D01*
X10682235Y-11226234D01*
X10663504Y-11235778D01*
X10646498Y-11248134D01*
X10631634Y-11262998D01*
X10619278Y-11280004D01*
X10619278Y-11280005D01*
X10610981Y-11296287D01*
X10606571Y-11300957D01*
X10605642Y-11301443D01*
X10595229Y-11306299D01*
X10588061Y-11313467D01*
X10582423Y-11316545D01*
X10576016Y-11316087D01*
X10571939Y-11313467D01*
X10564771Y-11306299D01*
X10555444Y-11301950D01*
X10554607Y-11301560D01*
X10549976Y-11300950D01*
X10513024Y-11300950D01*
X10508393Y-11301560D01*
X10508392Y-11301560D01*
X10507528Y-11301674D01*
X10507525Y-11301650D01*
X10505426Y-11301950D01*
X10412365Y-11301950D01*
X10412364Y-11301950D01*
X10409768Y-11302251D01*
X10409768Y-11302251D01*
X10408426Y-11302843D01*
X10402057Y-11303677D01*
X10396248Y-11300935D01*
X10394778Y-11299355D01*
X10389510Y-11292490D01*
X10377645Y-11283385D01*
X10377645Y-11283385D01*
X10363828Y-11277662D01*
X10360400Y-11277211D01*
X10360400Y-11422789D01*
X10361667Y-11423900D01*
X10361774Y-11423949D01*
X10363459Y-11424212D01*
X10364635Y-11425255D01*
X10366065Y-11425909D01*
X10366987Y-11427343D01*
X10368263Y-11428475D01*
X10368706Y-11430017D01*
X10369538Y-11431313D01*
X10370000Y-11434524D01*
X10370000Y-11455741D01*
X10368190Y-11461905D01*
X10363336Y-11466111D01*
X10356978Y-11467025D01*
X10351135Y-11464357D01*
X10350539Y-11463802D01*
X10339256Y-11452520D01*
X10322982Y-11440696D01*
X10315825Y-11437049D01*
X10311155Y-11432638D01*
X10309600Y-11426891D01*
X10309600Y-11375400D01*
X10264816Y-11375400D01*
X10265662Y-11381828D01*
X10271385Y-11395645D01*
X10271385Y-11395645D01*
X10280490Y-11407510D01*
X10281018Y-11408038D01*
X10280902Y-11408154D01*
X10284147Y-11412597D01*
X10284529Y-11419010D01*
X10281400Y-11424581D01*
X10281400Y-11506930D01*
X10275299Y-11503407D01*
X10262583Y-11500000D01*
X10249417Y-11500000D01*
X10236701Y-11503407D01*
X10230600Y-11506930D01*
X10230600Y-11424630D01*
X10230600Y-11424630D01*
X10226075Y-11425346D01*
X10226073Y-11425347D01*
X10206942Y-11431563D01*
X10189018Y-11440696D01*
X10172744Y-11452520D01*
X10158520Y-11466744D01*
X10146696Y-11483018D01*
X10137563Y-11500942D01*
X10131347Y-11520073D01*
X10130630Y-11524600D01*
X10100997Y-11524600D01*
X10100128Y-11520233D01*
X10100128Y-11520232D01*
X10100128Y-11520232D01*
X10092436Y-11501661D01*
X10092435Y-11501660D01*
X10081268Y-11484947D01*
X10067053Y-11470732D01*
X10050340Y-11459565D01*
X10050339Y-11459564D01*
X10031767Y-11451872D01*
X10031767Y-11451872D01*
X10012051Y-11447950D01*
X9991949Y-11447950D01*
X9977437Y-11450836D01*
X9972233Y-11451872D01*
X9972232Y-11451872D01*
X9953661Y-11459564D01*
X9953660Y-11459565D01*
X9936947Y-11470732D01*
X9922732Y-11484947D01*
X9911565Y-11501660D01*
X9911564Y-11501661D01*
X9903872Y-11520232D01*
X9903872Y-11520232D01*
X9903003Y-11524600D01*
X9899950Y-11539949D01*
X9850050Y-11539949D01*
X9846128Y-11520233D01*
X9846128Y-11520232D01*
X9846128Y-11520232D01*
X9838436Y-11501661D01*
X9838435Y-11501660D01*
X9827268Y-11484947D01*
X9813053Y-11470732D01*
X9796340Y-11459565D01*
X9796339Y-11459564D01*
X9777767Y-11451872D01*
X9777767Y-11451872D01*
X9758051Y-11447950D01*
X9737949Y-11447950D01*
X9723437Y-11450836D01*
X9718233Y-11451872D01*
X9718232Y-11451872D01*
X9699661Y-11459564D01*
X9699660Y-11459565D01*
X9682947Y-11470732D01*
X9668732Y-11484947D01*
X9657565Y-11501660D01*
X9657564Y-11501661D01*
X9649872Y-11520232D01*
X9649872Y-11520232D01*
X9649003Y-11524600D01*
X9645950Y-11539949D01*
X9596050Y-11539949D01*
X9592128Y-11520233D01*
X9592128Y-11520232D01*
X9592128Y-11520232D01*
X9584436Y-11501661D01*
X9584435Y-11501660D01*
X9573268Y-11484947D01*
X9559053Y-11470732D01*
X9542340Y-11459565D01*
X9542339Y-11459564D01*
X9523767Y-11451872D01*
X9523767Y-11451872D01*
X9504051Y-11447950D01*
X9483949Y-11447950D01*
X9469437Y-11450836D01*
X9464233Y-11451872D01*
X9464232Y-11451872D01*
X9445661Y-11459564D01*
X9445660Y-11459565D01*
X9428947Y-11470732D01*
X9414732Y-11484947D01*
X9403565Y-11501660D01*
X9403564Y-11501661D01*
X9395872Y-11520232D01*
X9395872Y-11520232D01*
X9395003Y-11524600D01*
X9391950Y-11539949D01*
X9342050Y-11539949D01*
X9338128Y-11520233D01*
X9338128Y-11520232D01*
X9338128Y-11520232D01*
X9330436Y-11501661D01*
X9330435Y-11501660D01*
X9319268Y-11484947D01*
X9305053Y-11470732D01*
X9288340Y-11459565D01*
X9288339Y-11459564D01*
X9269767Y-11451872D01*
X9269767Y-11451872D01*
X9250051Y-11447950D01*
X9229949Y-11447950D01*
X9215437Y-11450836D01*
X9210233Y-11451872D01*
X9210232Y-11451872D01*
X9191661Y-11459564D01*
X9191660Y-11459565D01*
X9174947Y-11470732D01*
X9160732Y-11484947D01*
X9149565Y-11501660D01*
X9149564Y-11501661D01*
X9141872Y-11520232D01*
X9141872Y-11520232D01*
X9141003Y-11524600D01*
X9137950Y-11539949D01*
X9043150Y-11539949D01*
X9043150Y-11324600D01*
X10264816Y-11324600D01*
X10309600Y-11324600D01*
X10309600Y-11277211D01*
X10306172Y-11277662D01*
X10306172Y-11277662D01*
X10292355Y-11283385D01*
X10292355Y-11283385D01*
X10280490Y-11292490D01*
X10271385Y-11304355D01*
X10271385Y-11304355D01*
X10265662Y-11318172D01*
X10264816Y-11324600D01*
X9043150Y-11324600D01*
X9043150Y-11260448D01*
X9043185Y-11259554D01*
X9043879Y-11250732D01*
X9044703Y-11240268D01*
X9044983Y-11238501D01*
X9049394Y-11220127D01*
X9049946Y-11218428D01*
X9052024Y-11213411D01*
X9099950Y-11213411D01*
X9099950Y-11226589D01*
X9101735Y-11233251D01*
X9103361Y-11239318D01*
X9109950Y-11250731D01*
X9109950Y-11250732D01*
X9119268Y-11260050D01*
X9119269Y-11260050D01*
X9130681Y-11266639D01*
X9143411Y-11270050D01*
X9143411Y-11270050D01*
X9156589Y-11270050D01*
X9156589Y-11270050D01*
X9169319Y-11266639D01*
X9180731Y-11260050D01*
X9190050Y-11250731D01*
X9196639Y-11239319D01*
X9200050Y-11226589D01*
X9200050Y-11213411D01*
X9196639Y-11200681D01*
X9190050Y-11189269D01*
X9190050Y-11189268D01*
X9180732Y-11179950D01*
X9180731Y-11179950D01*
X9169319Y-11173361D01*
X9163251Y-11171735D01*
X9156589Y-11169950D01*
X9143411Y-11169950D01*
X9137738Y-11171470D01*
X9130681Y-11173361D01*
X9119269Y-11179950D01*
X9119268Y-11179950D01*
X9109950Y-11189268D01*
X9109950Y-11189269D01*
X9103361Y-11200681D01*
X9101140Y-11208969D01*
X9099950Y-11213411D01*
X9052024Y-11213411D01*
X9057178Y-11200970D01*
X9057579Y-11200183D01*
X9057603Y-11200058D01*
X9057686Y-11199973D01*
X9057989Y-11199378D01*
X9067863Y-11183264D01*
X9068913Y-11181819D01*
X9081186Y-11167449D01*
X9082449Y-11166186D01*
X9096819Y-11153913D01*
X9098264Y-11152863D01*
X9114378Y-11142989D01*
X9115969Y-11142178D01*
X9133428Y-11134946D01*
X9135128Y-11134394D01*
X9152118Y-11130315D01*
X9154779Y-11130000D01*
X13148351Y-11130000D01*
X13150575Y-11130219D01*
G37*
%TD.AperFunction*%
%TD*%
M02*
