%TF.GenerationSoftware,KiCad,Pcbnew,6.0.10-1.fc37*%
%TF.CreationDate,2023-01-04T19:13:09-05:00*%
%TF.ProjectId,ext-con-breakout-board,6578742d-636f-46e2-9d62-7265616b6f75,v0.6*%
%TF.SameCoordinates,Original*%
%TF.FileFunction,Legend,Top*%
%TF.FilePolarity,Positive*%
%FSLAX46Y46*%
G04 Gerber Fmt 4.6, Leading zero omitted, Abs format (unit mm)*
G04 Created by KiCad (PCBNEW 6.0.10-1.fc37) date 2023-01-04 19:13:09*
%MOMM*%
%LPD*%
G01*
G04 APERTURE LIST*
%ADD10C,0.200000*%
%ADD11C,0.120000*%
G04 APERTURE END LIST*
D10*
X97019339Y-113103553D02*
X96918324Y-113137225D01*
X96817309Y-113238240D01*
X96749965Y-113372927D01*
X96749965Y-113507614D01*
X96783637Y-113608629D01*
X96884652Y-113776988D01*
X96985668Y-113878003D01*
X97154026Y-113979018D01*
X97255042Y-114012690D01*
X97389729Y-114012690D01*
X97524416Y-113945347D01*
X97591759Y-113878003D01*
X97659103Y-113743316D01*
X97659103Y-113675973D01*
X97423400Y-113440270D01*
X97288713Y-113574957D01*
X98029492Y-113440270D02*
X97322385Y-112733164D01*
X97591759Y-112463790D01*
X97692774Y-112430118D01*
X97760118Y-112430118D01*
X97861133Y-112463790D01*
X97962148Y-112564805D01*
X97995820Y-112665820D01*
X97995820Y-112733164D01*
X97962148Y-112834179D01*
X97692774Y-113103553D01*
X98736599Y-112733164D02*
X98029492Y-112026057D01*
X98500896Y-111554652D02*
X98635583Y-111419965D01*
X98736599Y-111386294D01*
X98871286Y-111386294D01*
X99039644Y-111487309D01*
X99275347Y-111723011D01*
X99376362Y-111891370D01*
X99376362Y-112026057D01*
X99342690Y-112127072D01*
X99208003Y-112261759D01*
X99106988Y-112295431D01*
X98972301Y-112295431D01*
X98803942Y-112194416D01*
X98568240Y-111958713D01*
X98467225Y-111790355D01*
X98467225Y-111655668D01*
X98500896Y-111554652D01*
X103661904Y-111702380D02*
X104280952Y-111702380D01*
X103947619Y-112083333D01*
X104090476Y-112083333D01*
X104185714Y-112130952D01*
X104233333Y-112178571D01*
X104280952Y-112273809D01*
X104280952Y-112511904D01*
X104233333Y-112607142D01*
X104185714Y-112654761D01*
X104090476Y-112702380D01*
X103804761Y-112702380D01*
X103709523Y-112654761D01*
X103661904Y-112607142D01*
X104566666Y-111702380D02*
X104900000Y-112702380D01*
X105233333Y-111702380D01*
X105471428Y-111702380D02*
X106090476Y-111702380D01*
X105757142Y-112083333D01*
X105900000Y-112083333D01*
X105995238Y-112130952D01*
X106042857Y-112178571D01*
X106090476Y-112273809D01*
X106090476Y-112511904D01*
X106042857Y-112607142D01*
X105995238Y-112654761D01*
X105900000Y-112702380D01*
X105614285Y-112702380D01*
X105519047Y-112654761D01*
X105471428Y-112607142D01*
X92427580Y-113894839D02*
X92562267Y-113827496D01*
X92730625Y-113659137D01*
X92764297Y-113558122D01*
X92764297Y-113490778D01*
X92730625Y-113389763D01*
X92663282Y-113322419D01*
X92562267Y-113288748D01*
X92494923Y-113288748D01*
X92393908Y-113322419D01*
X92225549Y-113423435D01*
X92124534Y-113457106D01*
X92057190Y-113457106D01*
X91956175Y-113423435D01*
X91888832Y-113356091D01*
X91855160Y-113255076D01*
X91855160Y-113187732D01*
X91888832Y-113086717D01*
X92057190Y-112918358D01*
X92191877Y-112851015D01*
X93168358Y-113221404D02*
X92461251Y-112514297D01*
X92629610Y-112345938D01*
X92764297Y-112278595D01*
X92898984Y-112278595D01*
X93000000Y-112312267D01*
X93168358Y-112413282D01*
X93269374Y-112514297D01*
X93370389Y-112682656D01*
X93404061Y-112783671D01*
X93404061Y-112918358D01*
X93336717Y-113053045D01*
X93168358Y-113221404D01*
X93639763Y-112345938D02*
X93976480Y-112009221D01*
X93774450Y-112615312D02*
X93303045Y-111672503D01*
X94245854Y-112143908D01*
X99189339Y-113103553D02*
X99088324Y-113137225D01*
X98987309Y-113238240D01*
X98919965Y-113372927D01*
X98919965Y-113507614D01*
X98953637Y-113608629D01*
X99054652Y-113776988D01*
X99155668Y-113878003D01*
X99324026Y-113979018D01*
X99425042Y-114012690D01*
X99559729Y-114012690D01*
X99694416Y-113945347D01*
X99761759Y-113878003D01*
X99829103Y-113743316D01*
X99829103Y-113675973D01*
X99593400Y-113440270D01*
X99458713Y-113574957D01*
X100199492Y-113440270D02*
X99492385Y-112733164D01*
X99761759Y-112463790D01*
X99862774Y-112430118D01*
X99930118Y-112430118D01*
X100031133Y-112463790D01*
X100132148Y-112564805D01*
X100165820Y-112665820D01*
X100165820Y-112733164D01*
X100132148Y-112834179D01*
X99862774Y-113103553D01*
X100906599Y-112733164D02*
X100199492Y-112026057D01*
X100670896Y-111554652D02*
X100805583Y-111419965D01*
X100906599Y-111386294D01*
X101041286Y-111386294D01*
X101209644Y-111487309D01*
X101445347Y-111723011D01*
X101546362Y-111891370D01*
X101546362Y-112026057D01*
X101512690Y-112127072D01*
X101378003Y-112261759D01*
X101276988Y-112295431D01*
X101142301Y-112295431D01*
X100973942Y-112194416D01*
X100738240Y-111958713D01*
X100637225Y-111790355D01*
X100637225Y-111655668D01*
X100670896Y-111554652D01*
X101950000Y-113411904D02*
X101902380Y-113507142D01*
X101902380Y-113650000D01*
X101950000Y-113792857D01*
X102045238Y-113888095D01*
X102140476Y-113935714D01*
X102330952Y-113983333D01*
X102473809Y-113983333D01*
X102664285Y-113935714D01*
X102759523Y-113888095D01*
X102854761Y-113792857D01*
X102902380Y-113650000D01*
X102902380Y-113554761D01*
X102854761Y-113411904D01*
X102807142Y-113364285D01*
X102473809Y-113364285D01*
X102473809Y-113554761D01*
X102902380Y-112935714D02*
X101902380Y-112935714D01*
X102902380Y-112364285D01*
X101902380Y-112364285D01*
X102902380Y-111888095D02*
X101902380Y-111888095D01*
X101902380Y-111650000D01*
X101950000Y-111507142D01*
X102045238Y-111411904D01*
X102140476Y-111364285D01*
X102330952Y-111316666D01*
X102473809Y-111316666D01*
X102664285Y-111364285D01*
X102759523Y-111411904D01*
X102854761Y-111507142D01*
X102902380Y-111650000D01*
X102902380Y-111888095D01*
X128762030Y-113187732D02*
X128189610Y-113086717D01*
X128357969Y-113591793D02*
X127650862Y-112884687D01*
X127920236Y-112615312D01*
X128021251Y-112581641D01*
X128088595Y-112581641D01*
X128189610Y-112615312D01*
X128290625Y-112716328D01*
X128324297Y-112817343D01*
X128324297Y-112884687D01*
X128290625Y-112985702D01*
X128021251Y-113255076D01*
X128290625Y-112244923D02*
X129469137Y-112480625D01*
X128762030Y-111773519D02*
X128997732Y-112952030D01*
X115068713Y-114181049D02*
X114361607Y-113473942D01*
X115102385Y-113743316D01*
X114833011Y-113002538D01*
X115540118Y-113709644D01*
X115304416Y-112531133D02*
X115439103Y-112396446D01*
X115540118Y-112362774D01*
X115674805Y-112362774D01*
X115843164Y-112463790D01*
X116078866Y-112699492D01*
X116179881Y-112867851D01*
X116179881Y-113002538D01*
X116146209Y-113103553D01*
X116011522Y-113238240D01*
X115910507Y-113271912D01*
X115775820Y-113271912D01*
X115607461Y-113170896D01*
X115371759Y-112935194D01*
X115270744Y-112766835D01*
X115270744Y-112632148D01*
X115304416Y-112531133D01*
X116550270Y-112632148D02*
X116684957Y-112564805D01*
X116853316Y-112396446D01*
X116886988Y-112295431D01*
X116886988Y-112228087D01*
X116853316Y-112127072D01*
X116785973Y-112059729D01*
X116684957Y-112026057D01*
X116617614Y-112026057D01*
X116516599Y-112059729D01*
X116348240Y-112160744D01*
X116247225Y-112194416D01*
X116179881Y-112194416D01*
X116078866Y-112160744D01*
X116011522Y-112093400D01*
X115977851Y-111992385D01*
X115977851Y-111925042D01*
X116011522Y-111824026D01*
X116179881Y-111655668D01*
X116314568Y-111588324D01*
X117291049Y-111958713D02*
X116583942Y-111251607D01*
X111928571Y-112502380D02*
X111928571Y-111502380D01*
X112261904Y-112216666D01*
X112595238Y-111502380D01*
X112595238Y-112502380D01*
X113071428Y-112502380D02*
X113071428Y-111502380D01*
X113500000Y-112454761D02*
X113642857Y-112502380D01*
X113880952Y-112502380D01*
X113976190Y-112454761D01*
X114023809Y-112407142D01*
X114071428Y-112311904D01*
X114071428Y-112216666D01*
X114023809Y-112121428D01*
X113976190Y-112073809D01*
X113880952Y-112026190D01*
X113690476Y-111978571D01*
X113595238Y-111930952D01*
X113547619Y-111883333D01*
X113500000Y-111788095D01*
X113500000Y-111692857D01*
X113547619Y-111597619D01*
X113595238Y-111550000D01*
X113690476Y-111502380D01*
X113928571Y-111502380D01*
X114071428Y-111550000D01*
X114690476Y-111502380D02*
X114880952Y-111502380D01*
X114976190Y-111550000D01*
X115071428Y-111645238D01*
X115119047Y-111835714D01*
X115119047Y-112169047D01*
X115071428Y-112359523D01*
X114976190Y-112454761D01*
X114880952Y-112502380D01*
X114690476Y-112502380D01*
X114595238Y-112454761D01*
X114500000Y-112359523D01*
X114452380Y-112169047D01*
X114452380Y-111835714D01*
X114500000Y-111645238D01*
X114595238Y-111550000D01*
X114690476Y-111502380D01*
X120350744Y-113911675D02*
X120485431Y-113844331D01*
X120653790Y-113675973D01*
X120687461Y-113574957D01*
X120687461Y-113507614D01*
X120653790Y-113406599D01*
X120586446Y-113339255D01*
X120485431Y-113305583D01*
X120418087Y-113305583D01*
X120317072Y-113339255D01*
X120148713Y-113440270D01*
X120047698Y-113473942D01*
X119980355Y-113473942D01*
X119879339Y-113440270D01*
X119811996Y-113372927D01*
X119778324Y-113271912D01*
X119778324Y-113204568D01*
X119811996Y-113103553D01*
X119980355Y-112935194D01*
X120115042Y-112867851D01*
X121024179Y-113238240D02*
X121158866Y-113170896D01*
X121327225Y-113002538D01*
X121360896Y-112901522D01*
X121360896Y-112834179D01*
X121327225Y-112733164D01*
X121259881Y-112665820D01*
X121158866Y-112632148D01*
X121091522Y-112632148D01*
X120990507Y-112665820D01*
X120822148Y-112766835D01*
X120721133Y-112800507D01*
X120653790Y-112800507D01*
X120552774Y-112766835D01*
X120485431Y-112699492D01*
X120451759Y-112598477D01*
X120451759Y-112531133D01*
X120485431Y-112430118D01*
X120653790Y-112261759D01*
X120788477Y-112194416D01*
X122135347Y-112194416D02*
X121731286Y-112598477D01*
X121933316Y-112396446D02*
X121226209Y-111689339D01*
X121259881Y-111857698D01*
X121259881Y-111992385D01*
X121226209Y-112093400D01*
X94984416Y-113878003D02*
X95119103Y-113810660D01*
X95287461Y-113642301D01*
X95321133Y-113541286D01*
X95321133Y-113473942D01*
X95287461Y-113372927D01*
X95220118Y-113305583D01*
X95119103Y-113271912D01*
X95051759Y-113271912D01*
X94950744Y-113305583D01*
X94782385Y-113406599D01*
X94681370Y-113440270D01*
X94614026Y-113440270D01*
X94513011Y-113406599D01*
X94445668Y-113339255D01*
X94411996Y-113238240D01*
X94411996Y-113170896D01*
X94445668Y-113069881D01*
X94614026Y-112901522D01*
X94748713Y-112834179D01*
X96061912Y-112733164D02*
X96061912Y-112800507D01*
X95994568Y-112935194D01*
X95927225Y-113002538D01*
X95792538Y-113069881D01*
X95657851Y-113069881D01*
X95556835Y-113036209D01*
X95388477Y-112935194D01*
X95287461Y-112834179D01*
X95186446Y-112665820D01*
X95152774Y-112564805D01*
X95152774Y-112430118D01*
X95220118Y-112295431D01*
X95287461Y-112228087D01*
X95422148Y-112160744D01*
X95489492Y-112160744D01*
X96769018Y-112160744D02*
X96432301Y-112497461D01*
X95725194Y-111790355D01*
X117777072Y-113945347D02*
X117911759Y-113878003D01*
X118080118Y-113709644D01*
X118113790Y-113608629D01*
X118113790Y-113541286D01*
X118080118Y-113440270D01*
X118012774Y-113372927D01*
X117911759Y-113339255D01*
X117844416Y-113339255D01*
X117743400Y-113372927D01*
X117575042Y-113473942D01*
X117474026Y-113507614D01*
X117406683Y-113507614D01*
X117305668Y-113473942D01*
X117238324Y-113406599D01*
X117204652Y-113305583D01*
X117204652Y-113238240D01*
X117238324Y-113137225D01*
X117406683Y-112968866D01*
X117541370Y-112901522D01*
X118854568Y-112800507D02*
X118854568Y-112867851D01*
X118787225Y-113002538D01*
X118719881Y-113069881D01*
X118585194Y-113137225D01*
X118450507Y-113137225D01*
X118349492Y-113103553D01*
X118181133Y-113002538D01*
X118080118Y-112901522D01*
X117979103Y-112733164D01*
X117945431Y-112632148D01*
X117945431Y-112497461D01*
X118012774Y-112362774D01*
X118080118Y-112295431D01*
X118214805Y-112228087D01*
X118282148Y-112228087D01*
X119224957Y-112564805D02*
X118517851Y-111857698D01*
X119629018Y-112160744D02*
X118921912Y-112059729D01*
X118921912Y-111453637D02*
X118921912Y-112261759D01*
X125094026Y-112901522D02*
X125498087Y-112497461D01*
X126003164Y-113406599D02*
X125296057Y-112699492D01*
X125666446Y-112329103D02*
X126844957Y-112564805D01*
X126137851Y-111857698D02*
X126373553Y-113036209D01*
X122587698Y-112935194D02*
X122486683Y-112968866D01*
X122385668Y-113069881D01*
X122318324Y-113204568D01*
X122318324Y-113339255D01*
X122351996Y-113440270D01*
X122453011Y-113608629D01*
X122554026Y-113709644D01*
X122722385Y-113810660D01*
X122823400Y-113844331D01*
X122958087Y-113844331D01*
X123092774Y-113776988D01*
X123160118Y-113709644D01*
X123227461Y-113574957D01*
X123227461Y-113507614D01*
X122991759Y-113271912D01*
X122857072Y-113406599D01*
X123597851Y-113271912D02*
X122890744Y-112564805D01*
X124001912Y-112867851D01*
X123294805Y-112160744D01*
X124338629Y-112531133D02*
X123631522Y-111824026D01*
X123799881Y-111655668D01*
X123934568Y-111588324D01*
X124069255Y-111588324D01*
X124170270Y-111621996D01*
X124338629Y-111723011D01*
X124439644Y-111824026D01*
X124540660Y-111992385D01*
X124574331Y-112093400D01*
X124574331Y-112228087D01*
X124506988Y-112362774D01*
X124338629Y-112531133D01*
X130207698Y-112935194D02*
X130106683Y-112968866D01*
X130005668Y-113069881D01*
X129938324Y-113204568D01*
X129938324Y-113339255D01*
X129971996Y-113440270D01*
X130073011Y-113608629D01*
X130174026Y-113709644D01*
X130342385Y-113810660D01*
X130443400Y-113844331D01*
X130578087Y-113844331D01*
X130712774Y-113776988D01*
X130780118Y-113709644D01*
X130847461Y-113574957D01*
X130847461Y-113507614D01*
X130611759Y-113271912D01*
X130477072Y-113406599D01*
X131217851Y-113271912D02*
X130510744Y-112564805D01*
X131621912Y-112867851D01*
X130914805Y-112160744D01*
X131958629Y-112531133D02*
X131251522Y-111824026D01*
X131419881Y-111655668D01*
X131554568Y-111588324D01*
X131689255Y-111588324D01*
X131790270Y-111621996D01*
X131958629Y-111723011D01*
X132059644Y-111824026D01*
X132160660Y-111992385D01*
X132194331Y-112093400D01*
X132194331Y-112228087D01*
X132126988Y-112362774D01*
X131958629Y-112531133D01*
X107220952Y-112702380D02*
X106649523Y-112702380D01*
X106935238Y-112702380D02*
X106935238Y-111702380D01*
X106840000Y-111845238D01*
X106744761Y-111940476D01*
X106649523Y-111988095D01*
X107506666Y-111702380D02*
X107840000Y-112702380D01*
X108173333Y-111702380D01*
X108649523Y-112130952D02*
X108554285Y-112083333D01*
X108506666Y-112035714D01*
X108459047Y-111940476D01*
X108459047Y-111892857D01*
X108506666Y-111797619D01*
X108554285Y-111750000D01*
X108649523Y-111702380D01*
X108840000Y-111702380D01*
X108935238Y-111750000D01*
X108982857Y-111797619D01*
X109030476Y-111892857D01*
X109030476Y-111940476D01*
X108982857Y-112035714D01*
X108935238Y-112083333D01*
X108840000Y-112130952D01*
X108649523Y-112130952D01*
X108554285Y-112178571D01*
X108506666Y-112226190D01*
X108459047Y-112321428D01*
X108459047Y-112511904D01*
X108506666Y-112607142D01*
X108554285Y-112654761D01*
X108649523Y-112702380D01*
X108840000Y-112702380D01*
X108935238Y-112654761D01*
X108982857Y-112607142D01*
X109030476Y-112511904D01*
X109030476Y-112321428D01*
X108982857Y-112226190D01*
X108935238Y-112178571D01*
X108840000Y-112130952D01*
X110650000Y-113411904D02*
X110602380Y-113507142D01*
X110602380Y-113650000D01*
X110650000Y-113792857D01*
X110745238Y-113888095D01*
X110840476Y-113935714D01*
X111030952Y-113983333D01*
X111173809Y-113983333D01*
X111364285Y-113935714D01*
X111459523Y-113888095D01*
X111554761Y-113792857D01*
X111602380Y-113650000D01*
X111602380Y-113554761D01*
X111554761Y-113411904D01*
X111507142Y-113364285D01*
X111173809Y-113364285D01*
X111173809Y-113554761D01*
X111602380Y-112935714D02*
X110602380Y-112935714D01*
X111602380Y-112364285D01*
X110602380Y-112364285D01*
X111602380Y-111888095D02*
X110602380Y-111888095D01*
X110602380Y-111650000D01*
X110650000Y-111507142D01*
X110745238Y-111411904D01*
X110840476Y-111364285D01*
X111030952Y-111316666D01*
X111173809Y-111316666D01*
X111364285Y-111364285D01*
X111459523Y-111411904D01*
X111554761Y-111507142D01*
X111602380Y-111650000D01*
X111602380Y-111888095D01*
D11*
%TO.C,J2*%
X131830000Y-114170000D02*
X131830000Y-115500000D01*
X129230000Y-116830000D02*
X91070000Y-116830000D01*
X91070000Y-114170000D02*
X91070000Y-116830000D01*
X129230000Y-114170000D02*
X91070000Y-114170000D01*
X129230000Y-114170000D02*
X129230000Y-116830000D01*
X130500000Y-114170000D02*
X131830000Y-114170000D01*
%TO.C,C1*%
X109592164Y-113860000D02*
X109807836Y-113860000D01*
X109592164Y-113140000D02*
X109807836Y-113140000D01*
%TO.C,C2*%
X103937836Y-113140000D02*
X103722164Y-113140000D01*
X103937836Y-113860000D02*
X103722164Y-113860000D01*
%TD*%
M02*
