%TF.GenerationSoftware,KiCad,Pcbnew,6.0.6-1.fc36*%
%TF.CreationDate,2022-07-20T16:56:09-04:00*%
%TF.ProjectId,ext-con-breakout-board,6578742d-636f-46e2-9d62-7265616b6f75,v0.5*%
%TF.SameCoordinates,Original*%
%TF.FileFunction,Soldermask,Bot*%
%TF.FilePolarity,Negative*%
%FSLAX46Y46*%
G04 Gerber Fmt 4.6, Leading zero omitted, Abs format (unit mm)*
G04 Created by KiCad (PCBNEW 6.0.6-1.fc36) date 2022-07-20 16:56:09*
%MOMM*%
%LPD*%
G01*
G04 APERTURE LIST*
%ADD10R,1.700000X1.700000*%
%ADD11O,1.700000X1.700000*%
%ADD12C,2.800000*%
%ADD13C,1.000000*%
%ADD14R,0.230000X0.750000*%
%ADD15R,0.450000X0.655000*%
G04 APERTURE END LIST*
D10*
%TO.C,J2*%
X135500000Y-119000000D03*
D11*
X132960000Y-119000000D03*
X130420000Y-119000000D03*
X127880000Y-119000000D03*
X125340000Y-119000000D03*
X122800000Y-119000000D03*
X120260000Y-119000000D03*
X117720000Y-119000000D03*
X115180000Y-119000000D03*
X112640000Y-119000000D03*
X110100000Y-119000000D03*
X107560000Y-119000000D03*
X105020000Y-119000000D03*
X102480000Y-119000000D03*
X99940000Y-119000000D03*
X97400000Y-119000000D03*
%TD*%
D12*
%TO.C,H1*%
X138671000Y-119000000D03*
%TD*%
D13*
%TO.C,FID1*%
X96500000Y-115700000D03*
%TD*%
D14*
%TO.C,J1*%
X135200000Y-89225000D03*
X135200000Y-86775000D03*
X134800000Y-89225000D03*
X134800000Y-86775000D03*
X134400000Y-89225000D03*
X134400000Y-86775000D03*
X134000000Y-89225000D03*
X134000000Y-86775000D03*
X133600000Y-89225000D03*
X133600000Y-86775000D03*
X133200000Y-89225000D03*
X133200000Y-86775000D03*
X132800000Y-89225000D03*
X132800000Y-86775000D03*
X132400000Y-89225000D03*
X132400000Y-86775000D03*
X132000000Y-89225000D03*
X132000000Y-86775000D03*
X131600000Y-89225000D03*
X131600000Y-86775000D03*
X131200000Y-89225000D03*
X131200000Y-86775000D03*
X130800000Y-89225000D03*
X130800000Y-86775000D03*
D15*
X135995000Y-88702500D03*
X130005000Y-88702500D03*
X130005000Y-87297500D03*
X135995000Y-87297500D03*
%TD*%
D13*
%TO.C,FID2*%
X137700000Y-116700000D03*
%TD*%
M02*
