%TF.GenerationSoftware,KiCad,Pcbnew,6.0.6-1.fc36*%
%TF.CreationDate,2022-07-25T12:02:54-04:00*%
%TF.ProjectId,ext-con-breakout-board,6578742d-636f-46e2-9d62-7265616b6f75,v0.5*%
%TF.SameCoordinates,Original*%
%TF.FileFunction,Profile,NP*%
%FSLAX46Y46*%
G04 Gerber Fmt 4.6, Leading zero omitted, Abs format (unit mm)*
G04 Created by KiCad (PCBNEW 6.0.6-1.fc36) date 2022-07-25 12:02:54*
%MOMM*%
%LPD*%
G01*
G04 APERTURE LIST*
%TA.AperFunction,Profile*%
%ADD10C,0.100000*%
%TD*%
G04 APERTURE END LIST*
D10*
X126023900Y-86300003D02*
G75*
G03*
X122534221Y-88515701I-19200J-3825697D01*
G01*
X139750000Y-121600000D02*
X96750000Y-121600000D01*
X125250000Y-112600000D02*
G75*
G03*
X127250000Y-114600000I2000000J0D01*
G01*
X136200000Y-85000000D02*
X128900000Y-85000000D01*
X127250000Y-114600000D02*
X136242572Y-114600000D01*
X127000000Y-86300020D02*
G75*
G03*
X127950000Y-85650000I0J1019220D01*
G01*
X127949982Y-90350007D02*
G75*
G03*
X127000000Y-89700000I-949982J-369193D01*
G01*
X140664214Y-118193214D02*
X137656786Y-115185786D01*
X119750000Y-114600000D02*
G75*
G03*
X121750000Y-112600000I0J2000000D01*
G01*
X95250000Y-120100000D02*
X95250000Y-116100000D01*
X128900000Y-91000000D02*
X136200000Y-91000000D01*
X137200000Y-86000000D02*
G75*
G03*
X136200000Y-85000000I-1000000J0D01*
G01*
X141250022Y-119607428D02*
G75*
G03*
X140664214Y-118193214I-2000122J-72D01*
G01*
X127950018Y-90349993D02*
G75*
G03*
X128900000Y-91000000I949982J369193D01*
G01*
X141250000Y-119607428D02*
X141250000Y-120100000D01*
X125250000Y-91160000D02*
X125250000Y-112600000D01*
X122209855Y-89184680D02*
G75*
G03*
X121750000Y-91160000I4048245J-1983620D01*
G01*
X122209859Y-89184682D02*
X122534221Y-88515701D01*
X125349989Y-90729995D02*
G75*
G03*
X125250000Y-91160000I881511J-431605D01*
G01*
X121750000Y-91160000D02*
X121750000Y-112600000D01*
X127000000Y-86300000D02*
X126023900Y-86300000D01*
X126240000Y-89700000D02*
G75*
G03*
X125680000Y-90050000I0J-623000D01*
G01*
X137200000Y-86000000D02*
X137200000Y-90000000D01*
X139750000Y-121600000D02*
G75*
G03*
X141250000Y-120100000I0J1500000D01*
G01*
X96750000Y-114600000D02*
G75*
G03*
X95250000Y-116100000I0J-1500000D01*
G01*
X95250000Y-120100000D02*
G75*
G03*
X96750000Y-121600000I1500000J0D01*
G01*
X128900000Y-84999980D02*
G75*
G03*
X127950000Y-85650000I0J-1019220D01*
G01*
X127000000Y-89700000D02*
X126240000Y-89700000D01*
X125350000Y-90730000D02*
X125680000Y-90050000D01*
X96750000Y-114600000D02*
X119750000Y-114600000D01*
X137656779Y-115185793D02*
G75*
G03*
X136242572Y-114600000I-1414179J-1414107D01*
G01*
X136200000Y-91000000D02*
G75*
G03*
X137200000Y-90000000I0J1000000D01*
G01*
M02*
