%TF.GenerationSoftware,KiCad,Pcbnew,9.0.0-1.fc42*%
%TF.CreationDate,2025-03-01T14:54:56-05:00*%
%TF.ProjectId,ext-con-breakout-board,6578742d-636f-46e2-9d62-7265616b6f75,v0.6*%
%TF.SameCoordinates,Original*%
%TF.FileFunction,Legend,Top*%
%TF.FilePolarity,Positive*%
%FSLAX45Y45*%
G04 Gerber Fmt 4.5, Leading zero omitted, Abs format (unit mm)*
G04 Created by KiCad (PCBNEW 9.0.0-1.fc42) date 2025-03-01 14:54:56*
%MOMM*%
%LPD*%
G01*
G04 APERTURE LIST*
%ADD10C,0.150000*%
%ADD11C,0.200000*%
%ADD12C,0.120000*%
G04 APERTURE END LIST*
D10*
X11272000Y-11397000D02*
X11294000Y-11375000D01*
X11272000Y-11397000D02*
X11250000Y-11375000D01*
X11272000Y-11280000D02*
X11272000Y-11397000D01*
D11*
X9701923Y-11310344D02*
X9691821Y-11313711D01*
X9691821Y-11313711D02*
X9681720Y-11323812D01*
X9681720Y-11323812D02*
X9674985Y-11337281D01*
X9674985Y-11337281D02*
X9674985Y-11350750D01*
X9674985Y-11350750D02*
X9678352Y-11360851D01*
X9678352Y-11360851D02*
X9688454Y-11377687D01*
X9688454Y-11377687D02*
X9698555Y-11387789D01*
X9698555Y-11387789D02*
X9715391Y-11397890D01*
X9715391Y-11397890D02*
X9725493Y-11401257D01*
X9725493Y-11401257D02*
X9738962Y-11401257D01*
X9738962Y-11401257D02*
X9752430Y-11394523D01*
X9752430Y-11394523D02*
X9759165Y-11387789D01*
X9759165Y-11387789D02*
X9765899Y-11374320D01*
X9765899Y-11374320D02*
X9765899Y-11367586D01*
X9765899Y-11367586D02*
X9742329Y-11344015D01*
X9742329Y-11344015D02*
X9728860Y-11357484D01*
X9802938Y-11344015D02*
X9732227Y-11273305D01*
X9732227Y-11273305D02*
X9759165Y-11246367D01*
X9759165Y-11246367D02*
X9769266Y-11243000D01*
X9769266Y-11243000D02*
X9776000Y-11243000D01*
X9776000Y-11243000D02*
X9786102Y-11246367D01*
X9786102Y-11246367D02*
X9796203Y-11256469D01*
X9796203Y-11256469D02*
X9799571Y-11266570D01*
X9799571Y-11266570D02*
X9799571Y-11273305D01*
X9799571Y-11273305D02*
X9796203Y-11283406D01*
X9796203Y-11283406D02*
X9769266Y-11310344D01*
X9873649Y-11273305D02*
X9802938Y-11202594D01*
X9850078Y-11155454D02*
X9863547Y-11141985D01*
X9863547Y-11141985D02*
X9873648Y-11138618D01*
X9873648Y-11138618D02*
X9887117Y-11138618D01*
X9887117Y-11138618D02*
X9903953Y-11148719D01*
X9903953Y-11148719D02*
X9927523Y-11172290D01*
X9927523Y-11172290D02*
X9937625Y-11189125D01*
X9937625Y-11189125D02*
X9937625Y-11202594D01*
X9937625Y-11202594D02*
X9934258Y-11212696D01*
X9934258Y-11212696D02*
X9920789Y-11226164D01*
X9920789Y-11226164D02*
X9910687Y-11229532D01*
X9910687Y-11229532D02*
X9897219Y-11229532D01*
X9897219Y-11229532D02*
X9880383Y-11219430D01*
X9880383Y-11219430D02*
X9856813Y-11195860D01*
X9856813Y-11195860D02*
X9846711Y-11179024D01*
X9846711Y-11179024D02*
X9846711Y-11165555D01*
X9846711Y-11165555D02*
X9850078Y-11155454D01*
X10366191Y-11170222D02*
X10428095Y-11170222D01*
X10428095Y-11170222D02*
X10394762Y-11208317D01*
X10394762Y-11208317D02*
X10409048Y-11208317D01*
X10409048Y-11208317D02*
X10418571Y-11213079D01*
X10418571Y-11213079D02*
X10423333Y-11217841D01*
X10423333Y-11217841D02*
X10428095Y-11227365D01*
X10428095Y-11227365D02*
X10428095Y-11251174D01*
X10428095Y-11251174D02*
X10423333Y-11260698D01*
X10423333Y-11260698D02*
X10418571Y-11265460D01*
X10418571Y-11265460D02*
X10409048Y-11270222D01*
X10409048Y-11270222D02*
X10380476Y-11270222D01*
X10380476Y-11270222D02*
X10370952Y-11265460D01*
X10370952Y-11265460D02*
X10366191Y-11260698D01*
X10456667Y-11170222D02*
X10490000Y-11270222D01*
X10490000Y-11270222D02*
X10523333Y-11170222D01*
X10547143Y-11170222D02*
X10609048Y-11170222D01*
X10609048Y-11170222D02*
X10575714Y-11208317D01*
X10575714Y-11208317D02*
X10590000Y-11208317D01*
X10590000Y-11208317D02*
X10599524Y-11213079D01*
X10599524Y-11213079D02*
X10604286Y-11217841D01*
X10604286Y-11217841D02*
X10609048Y-11227365D01*
X10609048Y-11227365D02*
X10609048Y-11251174D01*
X10609048Y-11251174D02*
X10604286Y-11260698D01*
X10604286Y-11260698D02*
X10599524Y-11265460D01*
X10599524Y-11265460D02*
X10590000Y-11270222D01*
X10590000Y-11270222D02*
X10561429Y-11270222D01*
X10561429Y-11270222D02*
X10551905Y-11265460D01*
X10551905Y-11265460D02*
X10547143Y-11260698D01*
X9242747Y-11389472D02*
X9256215Y-11382738D01*
X9256215Y-11382738D02*
X9273051Y-11365902D01*
X9273051Y-11365902D02*
X9276418Y-11355801D01*
X9276418Y-11355801D02*
X9276418Y-11349066D01*
X9276418Y-11349066D02*
X9273051Y-11338965D01*
X9273051Y-11338965D02*
X9266317Y-11332230D01*
X9266317Y-11332230D02*
X9256215Y-11328863D01*
X9256215Y-11328863D02*
X9249481Y-11328863D01*
X9249481Y-11328863D02*
X9239379Y-11332230D01*
X9239379Y-11332230D02*
X9222544Y-11342332D01*
X9222544Y-11342332D02*
X9212442Y-11345699D01*
X9212442Y-11345699D02*
X9205708Y-11345699D01*
X9205708Y-11345699D02*
X9195606Y-11342332D01*
X9195606Y-11342332D02*
X9188872Y-11335598D01*
X9188872Y-11335598D02*
X9185505Y-11325496D01*
X9185505Y-11325496D02*
X9185505Y-11318762D01*
X9185505Y-11318762D02*
X9188872Y-11308660D01*
X9188872Y-11308660D02*
X9205708Y-11291824D01*
X9205708Y-11291824D02*
X9219176Y-11285090D01*
X9316824Y-11322129D02*
X9246114Y-11251418D01*
X9246114Y-11251418D02*
X9262950Y-11234582D01*
X9262950Y-11234582D02*
X9276418Y-11227848D01*
X9276418Y-11227848D02*
X9289887Y-11227848D01*
X9289887Y-11227848D02*
X9299989Y-11231215D01*
X9299989Y-11231215D02*
X9316824Y-11241317D01*
X9316824Y-11241317D02*
X9326926Y-11251418D01*
X9326926Y-11251418D02*
X9337027Y-11268254D01*
X9337027Y-11268254D02*
X9340395Y-11278356D01*
X9340395Y-11278356D02*
X9340395Y-11291824D01*
X9340395Y-11291824D02*
X9333660Y-11305293D01*
X9333660Y-11305293D02*
X9316824Y-11322129D01*
X9363965Y-11234582D02*
X9397637Y-11200911D01*
X9377434Y-11261520D02*
X9330293Y-11167239D01*
X9330293Y-11167239D02*
X9424574Y-11214379D01*
X9918923Y-11310344D02*
X9908821Y-11313711D01*
X9908821Y-11313711D02*
X9898720Y-11323812D01*
X9898720Y-11323812D02*
X9891985Y-11337281D01*
X9891985Y-11337281D02*
X9891985Y-11350750D01*
X9891985Y-11350750D02*
X9895352Y-11360851D01*
X9895352Y-11360851D02*
X9905454Y-11377687D01*
X9905454Y-11377687D02*
X9915555Y-11387789D01*
X9915555Y-11387789D02*
X9932391Y-11397890D01*
X9932391Y-11397890D02*
X9942493Y-11401257D01*
X9942493Y-11401257D02*
X9955962Y-11401257D01*
X9955962Y-11401257D02*
X9969430Y-11394523D01*
X9969430Y-11394523D02*
X9976165Y-11387789D01*
X9976165Y-11387789D02*
X9982899Y-11374320D01*
X9982899Y-11374320D02*
X9982899Y-11367586D01*
X9982899Y-11367586D02*
X9959329Y-11344015D01*
X9959329Y-11344015D02*
X9945860Y-11357484D01*
X10019938Y-11344015D02*
X9949227Y-11273305D01*
X9949227Y-11273305D02*
X9976165Y-11246367D01*
X9976165Y-11246367D02*
X9986266Y-11243000D01*
X9986266Y-11243000D02*
X9993000Y-11243000D01*
X9993000Y-11243000D02*
X10003102Y-11246367D01*
X10003102Y-11246367D02*
X10013203Y-11256469D01*
X10013203Y-11256469D02*
X10016571Y-11266570D01*
X10016571Y-11266570D02*
X10016571Y-11273305D01*
X10016571Y-11273305D02*
X10013203Y-11283406D01*
X10013203Y-11283406D02*
X9986266Y-11310344D01*
X10090649Y-11273305D02*
X10019938Y-11202594D01*
X10067078Y-11155454D02*
X10080547Y-11141985D01*
X10080547Y-11141985D02*
X10090648Y-11138618D01*
X10090648Y-11138618D02*
X10104117Y-11138618D01*
X10104117Y-11138618D02*
X10120953Y-11148719D01*
X10120953Y-11148719D02*
X10144523Y-11172290D01*
X10144523Y-11172290D02*
X10154625Y-11189125D01*
X10154625Y-11189125D02*
X10154625Y-11202594D01*
X10154625Y-11202594D02*
X10151258Y-11212696D01*
X10151258Y-11212696D02*
X10137789Y-11226164D01*
X10137789Y-11226164D02*
X10127687Y-11229532D01*
X10127687Y-11229532D02*
X10114219Y-11229532D01*
X10114219Y-11229532D02*
X10097383Y-11219430D01*
X10097383Y-11219430D02*
X10073813Y-11195860D01*
X10073813Y-11195860D02*
X10063711Y-11179024D01*
X10063711Y-11179024D02*
X10063711Y-11165555D01*
X10063711Y-11165555D02*
X10067078Y-11155454D01*
X10194984Y-11341190D02*
X10190222Y-11350714D01*
X10190222Y-11350714D02*
X10190222Y-11365000D01*
X10190222Y-11365000D02*
X10194984Y-11379286D01*
X10194984Y-11379286D02*
X10204508Y-11388809D01*
X10204508Y-11388809D02*
X10214031Y-11393571D01*
X10214031Y-11393571D02*
X10233079Y-11398333D01*
X10233079Y-11398333D02*
X10247365Y-11398333D01*
X10247365Y-11398333D02*
X10266412Y-11393571D01*
X10266412Y-11393571D02*
X10275936Y-11388809D01*
X10275936Y-11388809D02*
X10285460Y-11379286D01*
X10285460Y-11379286D02*
X10290222Y-11365000D01*
X10290222Y-11365000D02*
X10290222Y-11355476D01*
X10290222Y-11355476D02*
X10285460Y-11341190D01*
X10285460Y-11341190D02*
X10280698Y-11336428D01*
X10280698Y-11336428D02*
X10247365Y-11336428D01*
X10247365Y-11336428D02*
X10247365Y-11355476D01*
X10290222Y-11293571D02*
X10190222Y-11293571D01*
X10190222Y-11293571D02*
X10290222Y-11236428D01*
X10290222Y-11236428D02*
X10190222Y-11236428D01*
X10290222Y-11188809D02*
X10190222Y-11188809D01*
X10190222Y-11188809D02*
X10190222Y-11165000D01*
X10190222Y-11165000D02*
X10194984Y-11150714D01*
X10194984Y-11150714D02*
X10204508Y-11141190D01*
X10204508Y-11141190D02*
X10214031Y-11136429D01*
X10214031Y-11136429D02*
X10233079Y-11131667D01*
X10233079Y-11131667D02*
X10247365Y-11131667D01*
X10247365Y-11131667D02*
X10266412Y-11136429D01*
X10266412Y-11136429D02*
X10275936Y-11141190D01*
X10275936Y-11141190D02*
X10285460Y-11150714D01*
X10285460Y-11150714D02*
X10290222Y-11165000D01*
X10290222Y-11165000D02*
X10290222Y-11188809D01*
X12876192Y-11318762D02*
X12818950Y-11308660D01*
X12835785Y-11359168D02*
X12765075Y-11288457D01*
X12765075Y-11288457D02*
X12792012Y-11261520D01*
X12792012Y-11261520D02*
X12802114Y-11258153D01*
X12802114Y-11258153D02*
X12808848Y-11258153D01*
X12808848Y-11258153D02*
X12818950Y-11261520D01*
X12818950Y-11261520D02*
X12829051Y-11271621D01*
X12829051Y-11271621D02*
X12832418Y-11281723D01*
X12832418Y-11281723D02*
X12832418Y-11288457D01*
X12832418Y-11288457D02*
X12829051Y-11298559D01*
X12829051Y-11298559D02*
X12802114Y-11325496D01*
X12829051Y-11224481D02*
X12946902Y-11248051D01*
X12876192Y-11177340D02*
X12899762Y-11295191D01*
X11506860Y-11418093D02*
X11436149Y-11347383D01*
X11436149Y-11347383D02*
X11510227Y-11374320D01*
X11510227Y-11374320D02*
X11483290Y-11300242D01*
X11483290Y-11300242D02*
X11554000Y-11370953D01*
X11530430Y-11253102D02*
X11543899Y-11239633D01*
X11543899Y-11239633D02*
X11554000Y-11236266D01*
X11554000Y-11236266D02*
X11567469Y-11236266D01*
X11567469Y-11236266D02*
X11584305Y-11246367D01*
X11584305Y-11246367D02*
X11607875Y-11269938D01*
X11607875Y-11269938D02*
X11617977Y-11286774D01*
X11617977Y-11286774D02*
X11617977Y-11300242D01*
X11617977Y-11300242D02*
X11614609Y-11310344D01*
X11614609Y-11310344D02*
X11601141Y-11323812D01*
X11601141Y-11323812D02*
X11591039Y-11327180D01*
X11591039Y-11327180D02*
X11577571Y-11327180D01*
X11577571Y-11327180D02*
X11560735Y-11317078D01*
X11560735Y-11317078D02*
X11537164Y-11293508D01*
X11537164Y-11293508D02*
X11527063Y-11276672D01*
X11527063Y-11276672D02*
X11527063Y-11263203D01*
X11527063Y-11263203D02*
X11530430Y-11253102D01*
X11655016Y-11263203D02*
X11668484Y-11256469D01*
X11668484Y-11256469D02*
X11685320Y-11239633D01*
X11685320Y-11239633D02*
X11688687Y-11229532D01*
X11688687Y-11229532D02*
X11688687Y-11222797D01*
X11688687Y-11222797D02*
X11685320Y-11212696D01*
X11685320Y-11212696D02*
X11678586Y-11205961D01*
X11678586Y-11205961D02*
X11668484Y-11202594D01*
X11668484Y-11202594D02*
X11661750Y-11202594D01*
X11661750Y-11202594D02*
X11651648Y-11205961D01*
X11651648Y-11205961D02*
X11634813Y-11216063D01*
X11634813Y-11216063D02*
X11624711Y-11219430D01*
X11624711Y-11219430D02*
X11617977Y-11219430D01*
X11617977Y-11219430D02*
X11607875Y-11216063D01*
X11607875Y-11216063D02*
X11601141Y-11209328D01*
X11601141Y-11209328D02*
X11597774Y-11199227D01*
X11597774Y-11199227D02*
X11597774Y-11192493D01*
X11597774Y-11192493D02*
X11601141Y-11182391D01*
X11601141Y-11182391D02*
X11617977Y-11165555D01*
X11617977Y-11165555D02*
X11631445Y-11158821D01*
X11729093Y-11195860D02*
X11658383Y-11125149D01*
X11192857Y-11250222D02*
X11192857Y-11150222D01*
X11192857Y-11150222D02*
X11226190Y-11221650D01*
X11226190Y-11221650D02*
X11259524Y-11150222D01*
X11259524Y-11150222D02*
X11259524Y-11250222D01*
X11307143Y-11250222D02*
X11307143Y-11150222D01*
X11350000Y-11245460D02*
X11364286Y-11250222D01*
X11364286Y-11250222D02*
X11388095Y-11250222D01*
X11388095Y-11250222D02*
X11397619Y-11245460D01*
X11397619Y-11245460D02*
X11402381Y-11240698D01*
X11402381Y-11240698D02*
X11407143Y-11231174D01*
X11407143Y-11231174D02*
X11407143Y-11221650D01*
X11407143Y-11221650D02*
X11402381Y-11212127D01*
X11402381Y-11212127D02*
X11397619Y-11207365D01*
X11397619Y-11207365D02*
X11388095Y-11202603D01*
X11388095Y-11202603D02*
X11369048Y-11197841D01*
X11369048Y-11197841D02*
X11359524Y-11193079D01*
X11359524Y-11193079D02*
X11354762Y-11188317D01*
X11354762Y-11188317D02*
X11350000Y-11178793D01*
X11350000Y-11178793D02*
X11350000Y-11169270D01*
X11350000Y-11169270D02*
X11354762Y-11159746D01*
X11354762Y-11159746D02*
X11359524Y-11154984D01*
X11359524Y-11154984D02*
X11369048Y-11150222D01*
X11369048Y-11150222D02*
X11392857Y-11150222D01*
X11392857Y-11150222D02*
X11407143Y-11154984D01*
X11469048Y-11150222D02*
X11488095Y-11150222D01*
X11488095Y-11150222D02*
X11497619Y-11154984D01*
X11497619Y-11154984D02*
X11507143Y-11164508D01*
X11507143Y-11164508D02*
X11511905Y-11183555D01*
X11511905Y-11183555D02*
X11511905Y-11216888D01*
X11511905Y-11216888D02*
X11507143Y-11235936D01*
X11507143Y-11235936D02*
X11497619Y-11245460D01*
X11497619Y-11245460D02*
X11488095Y-11250222D01*
X11488095Y-11250222D02*
X11469048Y-11250222D01*
X11469048Y-11250222D02*
X11459524Y-11245460D01*
X11459524Y-11245460D02*
X11450000Y-11235936D01*
X11450000Y-11235936D02*
X11445238Y-11216888D01*
X11445238Y-11216888D02*
X11445238Y-11183555D01*
X11445238Y-11183555D02*
X11450000Y-11164508D01*
X11450000Y-11164508D02*
X11459524Y-11154984D01*
X11459524Y-11154984D02*
X11469048Y-11150222D01*
X12035063Y-11391156D02*
X12048532Y-11384422D01*
X12048532Y-11384422D02*
X12065367Y-11367586D01*
X12065367Y-11367586D02*
X12068735Y-11357484D01*
X12068735Y-11357484D02*
X12068735Y-11350750D01*
X12068735Y-11350750D02*
X12065367Y-11340648D01*
X12065367Y-11340648D02*
X12058633Y-11333914D01*
X12058633Y-11333914D02*
X12048532Y-11330547D01*
X12048532Y-11330547D02*
X12041797Y-11330547D01*
X12041797Y-11330547D02*
X12031696Y-11333914D01*
X12031696Y-11333914D02*
X12014860Y-11344016D01*
X12014860Y-11344016D02*
X12004758Y-11347383D01*
X12004758Y-11347383D02*
X11998024Y-11347383D01*
X11998024Y-11347383D02*
X11987922Y-11344016D01*
X11987922Y-11344016D02*
X11981188Y-11337281D01*
X11981188Y-11337281D02*
X11977821Y-11327180D01*
X11977821Y-11327180D02*
X11977821Y-11320445D01*
X11977821Y-11320445D02*
X11981188Y-11310344D01*
X11981188Y-11310344D02*
X11998024Y-11293508D01*
X11998024Y-11293508D02*
X12011493Y-11286774D01*
X12102406Y-11323812D02*
X12115875Y-11317078D01*
X12115875Y-11317078D02*
X12132711Y-11300242D01*
X12132711Y-11300242D02*
X12136078Y-11290141D01*
X12136078Y-11290141D02*
X12136078Y-11283406D01*
X12136078Y-11283406D02*
X12132711Y-11273305D01*
X12132711Y-11273305D02*
X12125977Y-11266570D01*
X12125977Y-11266570D02*
X12115875Y-11263203D01*
X12115875Y-11263203D02*
X12109141Y-11263203D01*
X12109141Y-11263203D02*
X12099039Y-11266570D01*
X12099039Y-11266570D02*
X12082203Y-11276672D01*
X12082203Y-11276672D02*
X12072102Y-11280039D01*
X12072102Y-11280039D02*
X12065367Y-11280039D01*
X12065367Y-11280039D02*
X12055266Y-11276672D01*
X12055266Y-11276672D02*
X12048532Y-11269938D01*
X12048532Y-11269938D02*
X12045164Y-11259836D01*
X12045164Y-11259836D02*
X12045164Y-11253102D01*
X12045164Y-11253102D02*
X12048532Y-11243000D01*
X12048532Y-11243000D02*
X12065367Y-11226164D01*
X12065367Y-11226164D02*
X12078836Y-11219430D01*
X12213523Y-11219430D02*
X12173117Y-11259836D01*
X12193320Y-11239633D02*
X12122609Y-11168922D01*
X12122609Y-11168922D02*
X12125977Y-11185758D01*
X12125977Y-11185758D02*
X12125977Y-11199227D01*
X12125977Y-11199227D02*
X12122609Y-11209328D01*
X9498430Y-11387789D02*
X9511899Y-11381054D01*
X9511899Y-11381054D02*
X9528735Y-11364219D01*
X9528735Y-11364219D02*
X9532102Y-11354117D01*
X9532102Y-11354117D02*
X9532102Y-11347383D01*
X9532102Y-11347383D02*
X9528735Y-11337281D01*
X9528735Y-11337281D02*
X9522000Y-11330547D01*
X9522000Y-11330547D02*
X9511899Y-11327180D01*
X9511899Y-11327180D02*
X9505165Y-11327180D01*
X9505165Y-11327180D02*
X9495063Y-11330547D01*
X9495063Y-11330547D02*
X9478227Y-11340648D01*
X9478227Y-11340648D02*
X9468126Y-11344016D01*
X9468126Y-11344016D02*
X9461391Y-11344016D01*
X9461391Y-11344016D02*
X9451290Y-11340648D01*
X9451290Y-11340648D02*
X9444555Y-11333914D01*
X9444555Y-11333914D02*
X9441188Y-11323812D01*
X9441188Y-11323812D02*
X9441188Y-11317078D01*
X9441188Y-11317078D02*
X9444555Y-11306977D01*
X9444555Y-11306977D02*
X9461391Y-11290141D01*
X9461391Y-11290141D02*
X9474860Y-11283406D01*
X9606180Y-11273305D02*
X9606180Y-11280039D01*
X9606180Y-11280039D02*
X9599445Y-11293508D01*
X9599445Y-11293508D02*
X9592711Y-11300242D01*
X9592711Y-11300242D02*
X9579242Y-11306977D01*
X9579242Y-11306977D02*
X9565774Y-11306977D01*
X9565774Y-11306977D02*
X9555672Y-11303609D01*
X9555672Y-11303609D02*
X9538836Y-11293508D01*
X9538836Y-11293508D02*
X9528735Y-11283406D01*
X9528735Y-11283406D02*
X9518633Y-11266570D01*
X9518633Y-11266570D02*
X9515266Y-11256469D01*
X9515266Y-11256469D02*
X9515266Y-11243000D01*
X9515266Y-11243000D02*
X9522000Y-11229532D01*
X9522000Y-11229532D02*
X9528735Y-11222797D01*
X9528735Y-11222797D02*
X9542203Y-11216063D01*
X9542203Y-11216063D02*
X9548938Y-11216063D01*
X9676890Y-11216063D02*
X9643219Y-11249735D01*
X9643219Y-11249735D02*
X9572508Y-11179024D01*
X11777696Y-11394523D02*
X11791164Y-11387789D01*
X11791164Y-11387789D02*
X11808000Y-11370953D01*
X11808000Y-11370953D02*
X11811367Y-11360851D01*
X11811367Y-11360851D02*
X11811367Y-11354117D01*
X11811367Y-11354117D02*
X11808000Y-11344016D01*
X11808000Y-11344016D02*
X11801266Y-11337281D01*
X11801266Y-11337281D02*
X11791164Y-11333914D01*
X11791164Y-11333914D02*
X11784430Y-11333914D01*
X11784430Y-11333914D02*
X11774329Y-11337281D01*
X11774329Y-11337281D02*
X11757493Y-11347383D01*
X11757493Y-11347383D02*
X11747391Y-11350750D01*
X11747391Y-11350750D02*
X11740657Y-11350750D01*
X11740657Y-11350750D02*
X11730555Y-11347383D01*
X11730555Y-11347383D02*
X11723821Y-11340648D01*
X11723821Y-11340648D02*
X11720454Y-11330547D01*
X11720454Y-11330547D02*
X11720454Y-11323812D01*
X11720454Y-11323812D02*
X11723821Y-11313711D01*
X11723821Y-11313711D02*
X11740657Y-11296875D01*
X11740657Y-11296875D02*
X11754126Y-11290141D01*
X11885445Y-11280039D02*
X11885445Y-11286774D01*
X11885445Y-11286774D02*
X11878711Y-11300242D01*
X11878711Y-11300242D02*
X11871977Y-11306977D01*
X11871977Y-11306977D02*
X11858508Y-11313711D01*
X11858508Y-11313711D02*
X11845039Y-11313711D01*
X11845039Y-11313711D02*
X11834938Y-11310344D01*
X11834938Y-11310344D02*
X11818102Y-11300242D01*
X11818102Y-11300242D02*
X11808000Y-11290141D01*
X11808000Y-11290141D02*
X11797899Y-11273305D01*
X11797899Y-11273305D02*
X11794532Y-11263203D01*
X11794532Y-11263203D02*
X11794532Y-11249735D01*
X11794532Y-11249735D02*
X11801266Y-11236266D01*
X11801266Y-11236266D02*
X11808000Y-11229532D01*
X11808000Y-11229532D02*
X11821469Y-11222797D01*
X11821469Y-11222797D02*
X11828203Y-11222797D01*
X11922484Y-11256469D02*
X11851774Y-11185758D01*
X11962890Y-11216063D02*
X11892180Y-11205961D01*
X11892180Y-11145352D02*
X11892180Y-11226164D01*
X12509391Y-11290141D02*
X12549797Y-11249735D01*
X12600305Y-11340648D02*
X12529594Y-11269938D01*
X12566633Y-11232899D02*
X12684484Y-11256469D01*
X12613774Y-11185758D02*
X12637344Y-11303609D01*
X12258758Y-11293508D02*
X12248657Y-11296875D01*
X12248657Y-11296875D02*
X12238555Y-11306977D01*
X12238555Y-11306977D02*
X12231821Y-11320445D01*
X12231821Y-11320445D02*
X12231821Y-11333914D01*
X12231821Y-11333914D02*
X12235188Y-11344016D01*
X12235188Y-11344016D02*
X12245290Y-11360851D01*
X12245290Y-11360851D02*
X12255391Y-11370953D01*
X12255391Y-11370953D02*
X12272227Y-11381054D01*
X12272227Y-11381054D02*
X12282329Y-11384422D01*
X12282329Y-11384422D02*
X12295797Y-11384422D01*
X12295797Y-11384422D02*
X12309266Y-11377687D01*
X12309266Y-11377687D02*
X12316000Y-11370953D01*
X12316000Y-11370953D02*
X12322735Y-11357484D01*
X12322735Y-11357484D02*
X12322735Y-11350750D01*
X12322735Y-11350750D02*
X12299164Y-11327180D01*
X12299164Y-11327180D02*
X12285696Y-11340648D01*
X12359774Y-11327180D02*
X12289063Y-11256469D01*
X12289063Y-11256469D02*
X12400180Y-11286774D01*
X12400180Y-11286774D02*
X12329469Y-11216063D01*
X12433851Y-11253102D02*
X12363141Y-11182391D01*
X12363141Y-11182391D02*
X12379977Y-11165555D01*
X12379977Y-11165555D02*
X12393445Y-11158821D01*
X12393445Y-11158821D02*
X12406914Y-11158821D01*
X12406914Y-11158821D02*
X12417016Y-11162188D01*
X12417016Y-11162188D02*
X12433851Y-11172290D01*
X12433851Y-11172290D02*
X12443953Y-11182391D01*
X12443953Y-11182391D02*
X12454055Y-11199227D01*
X12454055Y-11199227D02*
X12457422Y-11209329D01*
X12457422Y-11209329D02*
X12457422Y-11222797D01*
X12457422Y-11222797D02*
X12450687Y-11236266D01*
X12450687Y-11236266D02*
X12433851Y-11253102D01*
X13020758Y-11293508D02*
X13010657Y-11296875D01*
X13010657Y-11296875D02*
X13000555Y-11306977D01*
X13000555Y-11306977D02*
X12993821Y-11320445D01*
X12993821Y-11320445D02*
X12993821Y-11333914D01*
X12993821Y-11333914D02*
X12997188Y-11344016D01*
X12997188Y-11344016D02*
X13007290Y-11360851D01*
X13007290Y-11360851D02*
X13017391Y-11370953D01*
X13017391Y-11370953D02*
X13034227Y-11381054D01*
X13034227Y-11381054D02*
X13044329Y-11384422D01*
X13044329Y-11384422D02*
X13057797Y-11384422D01*
X13057797Y-11384422D02*
X13071266Y-11377687D01*
X13071266Y-11377687D02*
X13078000Y-11370953D01*
X13078000Y-11370953D02*
X13084735Y-11357484D01*
X13084735Y-11357484D02*
X13084735Y-11350750D01*
X13084735Y-11350750D02*
X13061164Y-11327180D01*
X13061164Y-11327180D02*
X13047696Y-11340648D01*
X13121774Y-11327180D02*
X13051063Y-11256469D01*
X13051063Y-11256469D02*
X13162180Y-11286774D01*
X13162180Y-11286774D02*
X13091469Y-11216063D01*
X13195851Y-11253102D02*
X13125141Y-11182391D01*
X13125141Y-11182391D02*
X13141977Y-11165555D01*
X13141977Y-11165555D02*
X13155445Y-11158821D01*
X13155445Y-11158821D02*
X13168914Y-11158821D01*
X13168914Y-11158821D02*
X13179016Y-11162188D01*
X13179016Y-11162188D02*
X13195851Y-11172290D01*
X13195851Y-11172290D02*
X13205953Y-11182391D01*
X13205953Y-11182391D02*
X13216055Y-11199227D01*
X13216055Y-11199227D02*
X13219422Y-11209329D01*
X13219422Y-11209329D02*
X13219422Y-11222797D01*
X13219422Y-11222797D02*
X13212687Y-11236266D01*
X13212687Y-11236266D02*
X13195851Y-11253102D01*
X10722095Y-11270222D02*
X10664952Y-11270222D01*
X10693524Y-11270222D02*
X10693524Y-11170222D01*
X10693524Y-11170222D02*
X10684000Y-11184508D01*
X10684000Y-11184508D02*
X10674476Y-11194031D01*
X10674476Y-11194031D02*
X10664952Y-11198793D01*
X10750667Y-11170222D02*
X10784000Y-11270222D01*
X10784000Y-11270222D02*
X10817333Y-11170222D01*
X10864952Y-11213079D02*
X10855429Y-11208317D01*
X10855429Y-11208317D02*
X10850667Y-11203555D01*
X10850667Y-11203555D02*
X10845905Y-11194031D01*
X10845905Y-11194031D02*
X10845905Y-11189269D01*
X10845905Y-11189269D02*
X10850667Y-11179746D01*
X10850667Y-11179746D02*
X10855429Y-11174984D01*
X10855429Y-11174984D02*
X10864952Y-11170222D01*
X10864952Y-11170222D02*
X10884000Y-11170222D01*
X10884000Y-11170222D02*
X10893524Y-11174984D01*
X10893524Y-11174984D02*
X10898286Y-11179746D01*
X10898286Y-11179746D02*
X10903048Y-11189269D01*
X10903048Y-11189269D02*
X10903048Y-11194031D01*
X10903048Y-11194031D02*
X10898286Y-11203555D01*
X10898286Y-11203555D02*
X10893524Y-11208317D01*
X10893524Y-11208317D02*
X10884000Y-11213079D01*
X10884000Y-11213079D02*
X10864952Y-11213079D01*
X10864952Y-11213079D02*
X10855429Y-11217841D01*
X10855429Y-11217841D02*
X10850667Y-11222603D01*
X10850667Y-11222603D02*
X10845905Y-11232127D01*
X10845905Y-11232127D02*
X10845905Y-11251174D01*
X10845905Y-11251174D02*
X10850667Y-11260698D01*
X10850667Y-11260698D02*
X10855429Y-11265460D01*
X10855429Y-11265460D02*
X10864952Y-11270222D01*
X10864952Y-11270222D02*
X10884000Y-11270222D01*
X10884000Y-11270222D02*
X10893524Y-11265460D01*
X10893524Y-11265460D02*
X10898286Y-11260698D01*
X10898286Y-11260698D02*
X10903048Y-11251174D01*
X10903048Y-11251174D02*
X10903048Y-11232127D01*
X10903048Y-11232127D02*
X10898286Y-11222603D01*
X10898286Y-11222603D02*
X10893524Y-11217841D01*
X10893524Y-11217841D02*
X10884000Y-11213079D01*
X11064984Y-11341190D02*
X11060222Y-11350714D01*
X11060222Y-11350714D02*
X11060222Y-11365000D01*
X11060222Y-11365000D02*
X11064984Y-11379286D01*
X11064984Y-11379286D02*
X11074508Y-11388809D01*
X11074508Y-11388809D02*
X11084031Y-11393571D01*
X11084031Y-11393571D02*
X11103079Y-11398333D01*
X11103079Y-11398333D02*
X11117365Y-11398333D01*
X11117365Y-11398333D02*
X11136412Y-11393571D01*
X11136412Y-11393571D02*
X11145936Y-11388809D01*
X11145936Y-11388809D02*
X11155460Y-11379286D01*
X11155460Y-11379286D02*
X11160222Y-11365000D01*
X11160222Y-11365000D02*
X11160222Y-11355476D01*
X11160222Y-11355476D02*
X11155460Y-11341190D01*
X11155460Y-11341190D02*
X11150698Y-11336428D01*
X11150698Y-11336428D02*
X11117365Y-11336428D01*
X11117365Y-11336428D02*
X11117365Y-11355476D01*
X11160222Y-11293571D02*
X11060222Y-11293571D01*
X11060222Y-11293571D02*
X11160222Y-11236428D01*
X11160222Y-11236428D02*
X11060222Y-11236428D01*
X11160222Y-11188809D02*
X11060222Y-11188809D01*
X11060222Y-11188809D02*
X11060222Y-11165000D01*
X11060222Y-11165000D02*
X11064984Y-11150714D01*
X11064984Y-11150714D02*
X11074508Y-11141190D01*
X11074508Y-11141190D02*
X11084031Y-11136429D01*
X11084031Y-11136429D02*
X11103079Y-11131667D01*
X11103079Y-11131667D02*
X11117365Y-11131667D01*
X11117365Y-11131667D02*
X11136412Y-11136429D01*
X11136412Y-11136429D02*
X11145936Y-11141190D01*
X11145936Y-11141190D02*
X11155460Y-11150714D01*
X11155460Y-11150714D02*
X11160222Y-11165000D01*
X11160222Y-11165000D02*
X11160222Y-11188809D01*
D12*
%TO.C,J2*%
X9107000Y-11417000D02*
X9107000Y-11683000D01*
X12923000Y-11417000D02*
X9107000Y-11417000D01*
X12923000Y-11417000D02*
X12923000Y-11683000D01*
X12923000Y-11683000D02*
X9107000Y-11683000D01*
X13050000Y-11417000D02*
X13183000Y-11417000D01*
X13183000Y-11417000D02*
X13183000Y-11550000D01*
%TO.C,C1*%
X10959216Y-11314000D02*
X10980784Y-11314000D01*
X10959216Y-11386000D02*
X10980784Y-11386000D01*
%TO.C,C2*%
X10393784Y-11314000D02*
X10372216Y-11314000D01*
X10393784Y-11386000D02*
X10372216Y-11386000D01*
%TD*%
M02*
