%TF.GenerationSoftware,KiCad,Pcbnew,6.0.6-1.fc36*%
%TF.CreationDate,2022-07-20T16:56:09-04:00*%
%TF.ProjectId,ext-con-breakout-board,6578742d-636f-46e2-9d62-7265616b6f75,v0.5*%
%TF.SameCoordinates,Original*%
%TF.FileFunction,Copper,L2,Inr*%
%TF.FilePolarity,Positive*%
%FSLAX46Y46*%
G04 Gerber Fmt 4.6, Leading zero omitted, Abs format (unit mm)*
G04 Created by KiCad (PCBNEW 6.0.6-1.fc36) date 2022-07-20 16:56:09*
%MOMM*%
%LPD*%
G01*
G04 APERTURE LIST*
%TA.AperFunction,ComponentPad*%
%ADD10R,1.700000X1.700000*%
%TD*%
%TA.AperFunction,ComponentPad*%
%ADD11O,1.700000X1.700000*%
%TD*%
%TA.AperFunction,ComponentPad*%
%ADD12C,2.800000*%
%TD*%
%TA.AperFunction,ViaPad*%
%ADD13C,0.800000*%
%TD*%
%TA.AperFunction,Conductor*%
%ADD14C,0.230000*%
%TD*%
G04 APERTURE END LIST*
D10*
%TO.N,GND*%
%TO.C,J2*%
X135500000Y-119000000D03*
D11*
%TO.N,/UART1_RXD*%
X132960000Y-119000000D03*
%TO.N,/UART1_TXD*%
X130420000Y-119000000D03*
%TO.N,GND*%
X127880000Y-119000000D03*
%TO.N,/SPI_SS1*%
X125340000Y-119000000D03*
%TO.N,/SPI_SCK*%
X122800000Y-119000000D03*
%TO.N,/SPI_MOSI*%
X120260000Y-119000000D03*
%TO.N,/SPI_MISO*%
X117720000Y-119000000D03*
%TO.N,GND*%
X115180000Y-119000000D03*
%TO.N,Net-(C1-Pad1)*%
X112640000Y-119000000D03*
%TO.N,Net-(C2-Pad1)*%
X110100000Y-119000000D03*
%TO.N,GND*%
X107560000Y-119000000D03*
%TO.N,/GPIO4_IO11*%
X105020000Y-119000000D03*
%TO.N,/GPIO4_IO28*%
X102480000Y-119000000D03*
%TO.N,/I2C4_SCL*%
X99940000Y-119000000D03*
%TO.N,/I2C4_SDA*%
X97400000Y-119000000D03*
%TD*%
D12*
%TO.N,GND*%
%TO.C,H1*%
X138671000Y-119000000D03*
%TD*%
D13*
%TO.N,/I2C4_SDA*%
X135200000Y-90400000D03*
%TO.N,/I2C4_SCL*%
X135100000Y-88000000D03*
%TO.N,GND*%
X132000000Y-88000000D03*
%TO.N,/UART1_RXD*%
X134000000Y-90400000D03*
%TO.N,/UART1_TXD*%
X133700000Y-88200000D03*
%TO.N,+1V8*%
X117000000Y-116800000D03*
%TO.N,+3V3*%
X118500000Y-116800000D03*
%TD*%
D14*
%TO.N,/I2C4_SDA*%
X136200000Y-89400000D02*
X136200000Y-88131263D01*
X122843000Y-88691000D02*
X122508789Y-89379678D01*
X121666003Y-115150000D02*
X109650000Y-115150000D01*
X109647328Y-115147328D02*
X106701172Y-115147328D01*
X122100000Y-91158335D02*
X122100000Y-114716003D01*
X134668737Y-86600000D02*
X125988355Y-86600000D01*
X109650000Y-115150000D02*
X109647328Y-115147328D01*
X97400008Y-119000008D02*
G75*
G02*
X106701172Y-115147328I9301192J-9301192D01*
G01*
X122100016Y-91158335D02*
G75*
G02*
X122508789Y-89379678I4073884J35D01*
G01*
X134668737Y-86600000D02*
G75*
G02*
X136200000Y-88131263I-37J-1531300D01*
G01*
X122843000Y-88691000D02*
G75*
G02*
X125988355Y-86600000I3134800J-1304300D01*
G01*
X121666003Y-115150000D02*
G75*
G03*
X122100000Y-114716003I-3J434000D01*
G01*
X136200000Y-89400000D02*
G75*
G02*
X135200000Y-90400000I-1000000J0D01*
G01*
%TO.N,/I2C4_SCL*%
X132685787Y-87000000D02*
X126008650Y-87000000D01*
X122500000Y-91159875D02*
X122500000Y-114894836D01*
X123203246Y-88866390D02*
X122868652Y-89555857D01*
X121844836Y-115550000D02*
X108269036Y-115550000D01*
X123203246Y-88866390D02*
G75*
G02*
X126008650Y-87000000I2806254J-1176510D01*
G01*
X121844836Y-115550000D02*
G75*
G03*
X122500000Y-114894836I-36J655200D01*
G01*
X132685787Y-87000006D02*
G75*
G02*
X135100000Y-88000000I13J-3414194D01*
G01*
X122499990Y-91159875D02*
G75*
G02*
X122868652Y-89555857I3673910J-25D01*
G01*
X99939989Y-118999989D02*
G75*
G02*
X108269036Y-115550000I8329011J-8329011D01*
G01*
%TO.N,/UART1_RXD*%
X131827559Y-117867559D02*
X132960000Y-119000000D01*
X126286714Y-116220000D02*
X127850000Y-116220000D01*
X124900000Y-91167525D02*
X124900000Y-114833286D01*
X131585787Y-89400000D02*
X126190000Y-89400000D01*
X125360362Y-89918489D02*
X125031159Y-90596848D01*
X131827555Y-117867563D02*
G75*
G03*
X127850000Y-116220000I-3977555J-3977537D01*
G01*
X131585787Y-89400006D02*
G75*
G02*
X134000000Y-90400000I13J-3414194D01*
G01*
X125360342Y-89918479D02*
G75*
G02*
X126190000Y-89400000I831258J-407121D01*
G01*
X126286714Y-116220000D02*
G75*
G02*
X124900000Y-114833286I-14J1386700D01*
G01*
X124900012Y-91167525D02*
G75*
G02*
X125031160Y-90596848I1307088J25D01*
G01*
%TO.N,/UART1_TXD*%
X126864993Y-116625000D02*
X126145393Y-116625000D01*
X124672340Y-90420058D02*
X125000844Y-89743140D01*
X126163259Y-89000000D02*
X131768630Y-89000000D01*
X130420000Y-119000000D02*
X128879393Y-117459392D01*
X124500000Y-114979607D02*
X124500000Y-91169915D01*
X124672334Y-90420055D02*
G75*
G03*
X124500000Y-91169915I1545166J-749845D01*
G01*
X126864993Y-116625008D02*
G75*
G02*
X128879393Y-117459392I7J-2848792D01*
G01*
X133699991Y-88199991D02*
G75*
G02*
X131768630Y-89000000I-1931391J1931391D01*
G01*
X126163259Y-89000014D02*
G75*
G03*
X125000844Y-89743140I5041J-1288586D01*
G01*
X124500000Y-114979607D02*
G75*
G03*
X126145393Y-116625000I1645400J7D01*
G01*
%TD*%
%TA.AperFunction,Conductor*%
%TO.N,Net-(C2-Pad1)*%
G36*
X110621855Y-117324372D02*
G01*
X110625279Y-117332359D01*
X110630196Y-117533622D01*
X110630209Y-117533786D01*
X110630210Y-117533798D01*
X110638933Y-117640813D01*
X110644848Y-117713390D01*
X110667547Y-117867472D01*
X110667590Y-117867670D01*
X110667592Y-117867682D01*
X110689557Y-117969215D01*
X110696885Y-118003087D01*
X110731455Y-118127457D01*
X110769850Y-118247805D01*
X110799245Y-118336792D01*
X110810650Y-118371320D01*
X110810708Y-118371504D01*
X110852416Y-118505113D01*
X110852534Y-118505516D01*
X110893824Y-118656652D01*
X110893954Y-118657172D01*
X110931681Y-118825241D01*
X110930149Y-118834064D01*
X110926393Y-118837770D01*
X110505557Y-119096484D01*
X110003678Y-119405019D01*
X109994836Y-119406433D01*
X109987352Y-119400785D01*
X109668779Y-118834064D01*
X109456562Y-118456542D01*
X109455495Y-118447653D01*
X109457966Y-118443095D01*
X109551229Y-118336792D01*
X109551371Y-118336633D01*
X109641598Y-118237493D01*
X109641642Y-118237445D01*
X109723068Y-118146506D01*
X109795121Y-118058866D01*
X109795243Y-118058691D01*
X109795252Y-118058679D01*
X109857162Y-117969764D01*
X109857165Y-117969759D01*
X109857344Y-117969502D01*
X109909280Y-117873388D01*
X109950471Y-117765500D01*
X109980460Y-117640813D01*
X109998788Y-117494303D01*
X110004596Y-117332226D01*
X110008316Y-117324081D01*
X110016288Y-117320945D01*
X110613582Y-117320945D01*
X110621855Y-117324372D01*
G37*
%TD.AperFunction*%
%TD*%
%TA.AperFunction,Conductor*%
%TO.N,/I2C4_SCL*%
G36*
X101162397Y-117805452D02*
G01*
X101242278Y-117912500D01*
X101286667Y-117971986D01*
X101288868Y-117980666D01*
X101284815Y-117987942D01*
X101143512Y-118106637D01*
X101143235Y-118106946D01*
X101143234Y-118106947D01*
X101063342Y-118196074D01*
X101035397Y-118227249D01*
X100961115Y-118345194D01*
X100960929Y-118345649D01*
X100960926Y-118345654D01*
X100913014Y-118462599D01*
X100912854Y-118462990D01*
X100882805Y-118583156D01*
X100863155Y-118708213D01*
X100863146Y-118708284D01*
X100846115Y-118840525D01*
X100846070Y-118840840D01*
X100823876Y-118982673D01*
X100823724Y-118983466D01*
X100788620Y-119137378D01*
X100788321Y-119138450D01*
X100738308Y-119289684D01*
X100735040Y-119299565D01*
X100729189Y-119306343D01*
X100723740Y-119307589D01*
X100114200Y-119297509D01*
X99641000Y-119289684D01*
X99632784Y-119286121D01*
X99629511Y-119277335D01*
X99645876Y-118983466D01*
X99668181Y-118582910D01*
X99689722Y-118196074D01*
X99693604Y-118188005D01*
X99698478Y-118185397D01*
X99870084Y-118141070D01*
X99871116Y-118140852D01*
X100030007Y-118114791D01*
X100030862Y-118114683D01*
X100130481Y-118105803D01*
X100174366Y-118101892D01*
X100174820Y-118101861D01*
X100307952Y-118095369D01*
X100435428Y-118088191D01*
X100497578Y-118080884D01*
X100561602Y-118073356D01*
X100561607Y-118073355D01*
X100561906Y-118073320D01*
X100692281Y-118043735D01*
X100692633Y-118043605D01*
X100692637Y-118043604D01*
X100831082Y-117992551D01*
X100831084Y-117992550D01*
X100831445Y-117992417D01*
X100984293Y-117912347D01*
X101146470Y-117802755D01*
X101155243Y-117800962D01*
X101162397Y-117805452D01*
G37*
%TD.AperFunction*%
%TD*%
%TA.AperFunction,Conductor*%
%TO.N,/UART1_TXD*%
G36*
X129314557Y-117731095D02*
G01*
X129455084Y-117857535D01*
X129496695Y-117886308D01*
X129591493Y-117951860D01*
X129591497Y-117951862D01*
X129591858Y-117952112D01*
X129720339Y-118014926D01*
X129844235Y-118053497D01*
X129844591Y-118053560D01*
X129844590Y-118053560D01*
X129967030Y-118075309D01*
X129967041Y-118075310D01*
X129967252Y-118075348D01*
X130093100Y-118088002D01*
X130225308Y-118098964D01*
X130225684Y-118099003D01*
X130360748Y-118114934D01*
X130367693Y-118115753D01*
X130368538Y-118115884D01*
X130524170Y-118145891D01*
X130525225Y-118146147D01*
X130614275Y-118172253D01*
X130690710Y-118194661D01*
X130697685Y-118200276D01*
X130699117Y-118205659D01*
X130720282Y-119288355D01*
X130717017Y-119296694D01*
X130708355Y-119300282D01*
X130199064Y-119290326D01*
X129625658Y-119279117D01*
X129617455Y-119275529D01*
X129614661Y-119270710D01*
X129596284Y-119208024D01*
X129566147Y-119105225D01*
X129565889Y-119104160D01*
X129535884Y-118948537D01*
X129535753Y-118947693D01*
X129519004Y-118805699D01*
X129518963Y-118805295D01*
X129508006Y-118673148D01*
X129508006Y-118673146D01*
X129508002Y-118673100D01*
X129495349Y-118547252D01*
X129473497Y-118424235D01*
X129434926Y-118300340D01*
X129434733Y-118299946D01*
X129434731Y-118299940D01*
X129372306Y-118172253D01*
X129372113Y-118171858D01*
X129354337Y-118146150D01*
X129290268Y-118053497D01*
X129277536Y-118035084D01*
X129259518Y-118015058D01*
X129203055Y-117952305D01*
X129151096Y-117894557D01*
X129148111Y-117886117D01*
X129151522Y-117878460D01*
X129298460Y-117731521D01*
X129306733Y-117728094D01*
X129314557Y-117731095D01*
G37*
%TD.AperFunction*%
%TD*%
%TA.AperFunction,Conductor*%
%TO.N,/UART1_TXD*%
G36*
X133839240Y-88068651D02*
G01*
X133847316Y-88072517D01*
X133850261Y-88081418D01*
X133804050Y-88578113D01*
X133799871Y-88586033D01*
X133795149Y-88588401D01*
X133720657Y-88606407D01*
X133720125Y-88606523D01*
X133648133Y-88620418D01*
X133647722Y-88620490D01*
X133583191Y-88630570D01*
X133583019Y-88630595D01*
X133554204Y-88634659D01*
X133523306Y-88639017D01*
X133523280Y-88639021D01*
X133523266Y-88639023D01*
X133502965Y-88642173D01*
X133465670Y-88647960D01*
X133465569Y-88647980D01*
X133465553Y-88647983D01*
X133407675Y-88659555D01*
X133407490Y-88659592D01*
X133407319Y-88659638D01*
X133407310Y-88659640D01*
X133362780Y-88671598D01*
X133346025Y-88676098D01*
X133345825Y-88676168D01*
X133345818Y-88676170D01*
X133278726Y-88699595D01*
X133278719Y-88699598D01*
X133278532Y-88699663D01*
X133243385Y-88714784D01*
X133202424Y-88732406D01*
X133202416Y-88732410D01*
X133202269Y-88732473D01*
X133124674Y-88771581D01*
X133115745Y-88772244D01*
X133109100Y-88766665D01*
X133011000Y-88583851D01*
X133010107Y-88574942D01*
X133015265Y-88568302D01*
X133078623Y-88530075D01*
X133078933Y-88529888D01*
X133135265Y-88485593D01*
X133177684Y-88440455D01*
X133209140Y-88393767D01*
X133232580Y-88344820D01*
X133250955Y-88292907D01*
X133267212Y-88237320D01*
X133284248Y-88177540D01*
X133284356Y-88177181D01*
X133305063Y-88112631D01*
X133305302Y-88111958D01*
X133329697Y-88049330D01*
X133335893Y-88042865D01*
X133341225Y-88041894D01*
X133839240Y-88068651D01*
G37*
%TD.AperFunction*%
%TD*%
%TA.AperFunction,Conductor*%
%TO.N,GND*%
G36*
X124162133Y-114618097D02*
G01*
X124204198Y-114666643D01*
X124214500Y-114714000D01*
X124214500Y-114944659D01*
X124212768Y-114964454D01*
X124210096Y-114979608D01*
X124210511Y-114981964D01*
X124211147Y-114991669D01*
X124211147Y-114991670D01*
X124215273Y-115054609D01*
X124226912Y-115232181D01*
X124276293Y-115480431D01*
X124277491Y-115483960D01*
X124277492Y-115483964D01*
X124355408Y-115713493D01*
X124357655Y-115720113D01*
X124359305Y-115723458D01*
X124359305Y-115723459D01*
X124372758Y-115750739D01*
X124469605Y-115947124D01*
X124471676Y-115950223D01*
X124471678Y-115950227D01*
X124608157Y-116154482D01*
X124610228Y-116157581D01*
X124612681Y-116160378D01*
X124612684Y-116160382D01*
X124738999Y-116304416D01*
X124777118Y-116347882D01*
X124779914Y-116350334D01*
X124964588Y-116512289D01*
X124967419Y-116514772D01*
X124970515Y-116516841D01*
X124970518Y-116516843D01*
X125174773Y-116653322D01*
X125174777Y-116653324D01*
X125177876Y-116655395D01*
X125181228Y-116657048D01*
X125392522Y-116761247D01*
X125404887Y-116767345D01*
X125408413Y-116768542D01*
X125408418Y-116768544D01*
X125641036Y-116847508D01*
X125641040Y-116847509D01*
X125644569Y-116848707D01*
X125732747Y-116866247D01*
X125889157Y-116897360D01*
X125889163Y-116897361D01*
X125892819Y-116898088D01*
X125896540Y-116898332D01*
X125896541Y-116898332D01*
X126132311Y-116913786D01*
X126143036Y-116914489D01*
X126145392Y-116914904D01*
X126160546Y-116912232D01*
X126180341Y-116910500D01*
X126830045Y-116910500D01*
X126849840Y-116912232D01*
X126864994Y-116914904D01*
X126874817Y-116913172D01*
X126882547Y-116913172D01*
X126897082Y-116912310D01*
X127145614Y-116926267D01*
X127158301Y-116927697D01*
X127429067Y-116973701D01*
X127441518Y-116976542D01*
X127670393Y-117042479D01*
X127705450Y-117052579D01*
X127717517Y-117056802D01*
X127971242Y-117161898D01*
X127982755Y-117167440D01*
X128223158Y-117300306D01*
X128233956Y-117307091D01*
X128457960Y-117466029D01*
X128467949Y-117473995D01*
X128591356Y-117584277D01*
X128625254Y-117638840D01*
X128624271Y-117703068D01*
X128588721Y-117756568D01*
X128529889Y-117782356D01*
X128466455Y-117772243D01*
X128460298Y-117769084D01*
X128442676Y-117759356D01*
X128434170Y-117755533D01*
X128232495Y-117684116D01*
X128223476Y-117681733D01*
X128150139Y-117668670D01*
X128138108Y-117669990D01*
X128134000Y-117683160D01*
X128134000Y-120320243D01*
X128137677Y-120332766D01*
X128149813Y-120334606D01*
X128158671Y-120333471D01*
X128167793Y-120331533D01*
X128372716Y-120270052D01*
X128381407Y-120266646D01*
X128573537Y-120172523D01*
X128581545Y-120167749D01*
X128755725Y-120043509D01*
X128762852Y-120037486D01*
X128914398Y-119886466D01*
X128920444Y-119879362D01*
X129045285Y-119705628D01*
X129050100Y-119697614D01*
X129144890Y-119505823D01*
X129148324Y-119497150D01*
X129210520Y-119292440D01*
X129212416Y-119283671D01*
X129243131Y-119227256D01*
X129299471Y-119196401D01*
X129363548Y-119200904D01*
X129415018Y-119239335D01*
X129433237Y-119275697D01*
X129446249Y-119320082D01*
X129447600Y-119323230D01*
X129447600Y-119323231D01*
X129455056Y-119340608D01*
X129459876Y-119354138D01*
X129466572Y-119377489D01*
X129469122Y-119382450D01*
X129469122Y-119382451D01*
X129489415Y-119421936D01*
X129558051Y-119555488D01*
X129682362Y-119712329D01*
X129834769Y-119842038D01*
X129881790Y-119868317D01*
X130004596Y-119936951D01*
X130004598Y-119936952D01*
X130009467Y-119939673D01*
X130014776Y-119941398D01*
X130194498Y-119999794D01*
X130194502Y-119999795D01*
X130199802Y-120001517D01*
X130257190Y-120008360D01*
X130392988Y-120024553D01*
X130392990Y-120024553D01*
X130398525Y-120025213D01*
X130598065Y-120009859D01*
X130603430Y-120008361D01*
X130603436Y-120008360D01*
X130785460Y-119957538D01*
X130785463Y-119957537D01*
X130790824Y-119956040D01*
X130969457Y-119865806D01*
X131127162Y-119742593D01*
X131157053Y-119707964D01*
X131254288Y-119595317D01*
X131254290Y-119595314D01*
X131257931Y-119591096D01*
X131275676Y-119559860D01*
X131332530Y-119459777D01*
X131356784Y-119417083D01*
X131358543Y-119411796D01*
X131358545Y-119411791D01*
X131418196Y-119232472D01*
X131418196Y-119232471D01*
X131419955Y-119227184D01*
X131422590Y-119206330D01*
X131438474Y-119080594D01*
X131445038Y-119028632D01*
X131445275Y-119011676D01*
X131445394Y-119003182D01*
X131445394Y-119003174D01*
X131445438Y-119000000D01*
X131436105Y-118904817D01*
X131426454Y-118806378D01*
X131426453Y-118806373D01*
X131425909Y-118800825D01*
X131421676Y-118786802D01*
X131369678Y-118614578D01*
X131369677Y-118614577D01*
X131368065Y-118609236D01*
X131363871Y-118601347D01*
X131286730Y-118456267D01*
X131274109Y-118432531D01*
X131147621Y-118277441D01*
X131135427Y-118267353D01*
X130997718Y-118153430D01*
X130997716Y-118153429D01*
X130993418Y-118149873D01*
X130817373Y-118054686D01*
X130812053Y-118053039D01*
X130812050Y-118053038D01*
X130786767Y-118045212D01*
X130771167Y-118040383D01*
X130752086Y-118032521D01*
X130746254Y-118029474D01*
X130745045Y-118028842D01*
X130745043Y-118028841D01*
X130740082Y-118026249D01*
X130625729Y-117992725D01*
X130575208Y-117977914D01*
X130575199Y-117977911D01*
X130574597Y-117977735D01*
X130570618Y-117976669D01*
X130567302Y-117975781D01*
X130567277Y-117975775D01*
X130566610Y-117975596D01*
X130565555Y-117975340D01*
X130564875Y-117975192D01*
X130564840Y-117975184D01*
X130558088Y-117973715D01*
X130558045Y-117973706D01*
X130557396Y-117973565D01*
X130556720Y-117973435D01*
X130556707Y-117973432D01*
X130402315Y-117943664D01*
X130402290Y-117943659D01*
X130401764Y-117943558D01*
X130401242Y-117943467D01*
X130401197Y-117943459D01*
X130395978Y-117942552D01*
X130395964Y-117942550D01*
X130395425Y-117942456D01*
X130394580Y-117942325D01*
X130388251Y-117941461D01*
X130387792Y-117941407D01*
X130387754Y-117941402D01*
X130246403Y-117924730D01*
X130246406Y-117924730D01*
X130246242Y-117924711D01*
X130243790Y-117924440D01*
X130243414Y-117924401D01*
X130241431Y-117924216D01*
X130240144Y-117924095D01*
X130240101Y-117924091D01*
X130239810Y-117924064D01*
X130239503Y-117924039D01*
X130239440Y-117924033D01*
X130110095Y-117913309D01*
X130108109Y-117913127D01*
X129995703Y-117901824D01*
X129987171Y-117900639D01*
X129892913Y-117883896D01*
X129878972Y-117880503D01*
X129793669Y-117853946D01*
X129777505Y-117847523D01*
X129688509Y-117804013D01*
X129673748Y-117795367D01*
X129664139Y-117788722D01*
X129570127Y-117723715D01*
X129558716Y-117714696D01*
X129557346Y-117713463D01*
X129431943Y-117600631D01*
X129427482Y-117597899D01*
X129423975Y-117595751D01*
X129402902Y-117579143D01*
X129105985Y-117282226D01*
X129093216Y-117267010D01*
X129084385Y-117254398D01*
X129080302Y-117251539D01*
X128855763Y-117048030D01*
X128757526Y-116975173D01*
X128610655Y-116866247D01*
X128610652Y-116866245D01*
X128608411Y-116864583D01*
X128557585Y-116834119D01*
X128436004Y-116761247D01*
X128392443Y-116714039D01*
X128381320Y-116650775D01*
X128406166Y-116591539D01*
X128459093Y-116555140D01*
X128508010Y-116550256D01*
X128680854Y-116570714D01*
X128689685Y-116572112D01*
X129051930Y-116644167D01*
X129092119Y-116652161D01*
X129100823Y-116654251D01*
X129112907Y-116657659D01*
X129495725Y-116765625D01*
X129504229Y-116768388D01*
X129889190Y-116910408D01*
X129897449Y-116913830D01*
X130202257Y-117054349D01*
X130270056Y-117085605D01*
X130278032Y-117089668D01*
X130590685Y-117264762D01*
X130636043Y-117290164D01*
X130643675Y-117294842D01*
X130984816Y-117522787D01*
X130992047Y-117528040D01*
X130993279Y-117529011D01*
X131009563Y-117544700D01*
X131015214Y-117551347D01*
X131129488Y-117641853D01*
X131226731Y-117718871D01*
X131234380Y-117725502D01*
X131308082Y-117795367D01*
X131392211Y-117875116D01*
X131392623Y-117875507D01*
X131401400Y-117884817D01*
X131515907Y-118020813D01*
X131524573Y-118032555D01*
X131607799Y-118161921D01*
X131614767Y-118174413D01*
X131636523Y-118219921D01*
X131678543Y-118307816D01*
X131682977Y-118318437D01*
X131736395Y-118467103D01*
X131738571Y-118473803D01*
X131788676Y-118646009D01*
X131789315Y-118648293D01*
X131842678Y-118847020D01*
X131843212Y-118848957D01*
X131843244Y-118849074D01*
X131843284Y-118849219D01*
X131891119Y-119018537D01*
X131906707Y-119073715D01*
X131907601Y-119076772D01*
X131907724Y-119077179D01*
X131908674Y-119080223D01*
X131987470Y-119324816D01*
X131988807Y-119327769D01*
X131988808Y-119327771D01*
X131994933Y-119341298D01*
X132000667Y-119356897D01*
X132006572Y-119377489D01*
X132009122Y-119382450D01*
X132009122Y-119382451D01*
X132029415Y-119421936D01*
X132098051Y-119555488D01*
X132222362Y-119712329D01*
X132374769Y-119842038D01*
X132421790Y-119868317D01*
X132544596Y-119936951D01*
X132544598Y-119936952D01*
X132549467Y-119939673D01*
X132554776Y-119941398D01*
X132734498Y-119999794D01*
X132734502Y-119999795D01*
X132739802Y-120001517D01*
X132797190Y-120008360D01*
X132932988Y-120024553D01*
X132932990Y-120024553D01*
X132938525Y-120025213D01*
X133138065Y-120009859D01*
X133143430Y-120008361D01*
X133143436Y-120008360D01*
X133325460Y-119957538D01*
X133325463Y-119957537D01*
X133330824Y-119956040D01*
X133509457Y-119865806D01*
X133667162Y-119742593D01*
X133697053Y-119707964D01*
X133794288Y-119595317D01*
X133794290Y-119595314D01*
X133797931Y-119591096D01*
X133815676Y-119559860D01*
X133872530Y-119459777D01*
X133896784Y-119417083D01*
X133898544Y-119411792D01*
X133898545Y-119411790D01*
X133919829Y-119347808D01*
X133956456Y-119295038D01*
X134015797Y-119270447D01*
X134079014Y-119281842D01*
X134126034Y-119325606D01*
X134142001Y-119383792D01*
X134142001Y-119895002D01*
X134142335Y-119901160D01*
X134147976Y-119953098D01*
X134151257Y-119966900D01*
X134196978Y-120088861D01*
X134204697Y-120102958D01*
X134282226Y-120206406D01*
X134293594Y-120217774D01*
X134397042Y-120295303D01*
X134411139Y-120303022D01*
X134533105Y-120348745D01*
X134546896Y-120352024D01*
X134598843Y-120357667D01*
X134604995Y-120358000D01*
X135229611Y-120358000D01*
X135243397Y-120353952D01*
X135244488Y-120352693D01*
X135246000Y-120345742D01*
X135246000Y-120341610D01*
X135754000Y-120341610D01*
X135758048Y-120355396D01*
X135759307Y-120356487D01*
X135766258Y-120357999D01*
X136395002Y-120357999D01*
X136401160Y-120357665D01*
X136453098Y-120352024D01*
X136466900Y-120348743D01*
X136588861Y-120303022D01*
X136602958Y-120295303D01*
X136706406Y-120217774D01*
X136717774Y-120206406D01*
X136795303Y-120102958D01*
X136803022Y-120088861D01*
X136848745Y-119966895D01*
X136852024Y-119953104D01*
X136857667Y-119901157D01*
X136858000Y-119895005D01*
X136858000Y-119270389D01*
X136853952Y-119256603D01*
X136852693Y-119255512D01*
X136845742Y-119254000D01*
X135770389Y-119254000D01*
X135756603Y-119258048D01*
X135755512Y-119259307D01*
X135754000Y-119266258D01*
X135754000Y-120341610D01*
X135246000Y-120341610D01*
X135246000Y-118729611D01*
X135754000Y-118729611D01*
X135758048Y-118743397D01*
X135759307Y-118744488D01*
X135766258Y-118746000D01*
X136841610Y-118746000D01*
X136855396Y-118741952D01*
X136856487Y-118740693D01*
X136857999Y-118733742D01*
X136857999Y-118104998D01*
X136857665Y-118098840D01*
X136852024Y-118046902D01*
X136848743Y-118033100D01*
X136803022Y-117911139D01*
X136795303Y-117897042D01*
X136717774Y-117793594D01*
X136706406Y-117782226D01*
X136602958Y-117704697D01*
X136588861Y-117696978D01*
X136466895Y-117651255D01*
X136453104Y-117647976D01*
X136401157Y-117642333D01*
X136395005Y-117642000D01*
X135770389Y-117642000D01*
X135756603Y-117646048D01*
X135755512Y-117647307D01*
X135754000Y-117654258D01*
X135754000Y-118729611D01*
X135246000Y-118729611D01*
X135246000Y-117658390D01*
X135241952Y-117644604D01*
X135240693Y-117643513D01*
X135233742Y-117642001D01*
X134604998Y-117642001D01*
X134598840Y-117642335D01*
X134546902Y-117647976D01*
X134533100Y-117651257D01*
X134411139Y-117696978D01*
X134397042Y-117704697D01*
X134293594Y-117782226D01*
X134282226Y-117793594D01*
X134204697Y-117897042D01*
X134196978Y-117911139D01*
X134151255Y-118033105D01*
X134147976Y-118046896D01*
X134142333Y-118098843D01*
X134142000Y-118104995D01*
X134142000Y-118612062D01*
X134123903Y-118673695D01*
X134075357Y-118715760D01*
X134011776Y-118724902D01*
X133953346Y-118698217D01*
X133918866Y-118645012D01*
X133908065Y-118609236D01*
X133903871Y-118601347D01*
X133826730Y-118456267D01*
X133814109Y-118432531D01*
X133687621Y-118277441D01*
X133675427Y-118267353D01*
X133537718Y-118153430D01*
X133537716Y-118153429D01*
X133533418Y-118149873D01*
X133439034Y-118098840D01*
X133362280Y-118057339D01*
X133362278Y-118057338D01*
X133357373Y-118054686D01*
X133318209Y-118042562D01*
X133294698Y-118032258D01*
X133288005Y-118028373D01*
X133039480Y-117943353D01*
X133038770Y-117943112D01*
X132819942Y-117869294D01*
X132819229Y-117869050D01*
X132631046Y-117803928D01*
X132628477Y-117803003D01*
X132572828Y-117782226D01*
X132463704Y-117741484D01*
X132459351Y-117739755D01*
X132308092Y-117676051D01*
X132302573Y-117673552D01*
X132153940Y-117601409D01*
X132148311Y-117598480D01*
X132051648Y-117544703D01*
X131990887Y-117510899D01*
X131986051Y-117508049D01*
X131809489Y-117398027D01*
X131805787Y-117395619D01*
X131781565Y-117379186D01*
X131600821Y-117256567D01*
X131598225Y-117254752D01*
X131597733Y-117254398D01*
X131363550Y-117085826D01*
X131358528Y-117083522D01*
X131353748Y-117080740D01*
X131353755Y-117080728D01*
X131341685Y-117073840D01*
X131195583Y-116972399D01*
X131047557Y-116869622D01*
X130987720Y-116834119D01*
X130686190Y-116655213D01*
X130686184Y-116655210D01*
X130684462Y-116654188D01*
X130306924Y-116465205D01*
X129916865Y-116303637D01*
X129914941Y-116302997D01*
X129914934Y-116302994D01*
X129717567Y-116237304D01*
X129516275Y-116170307D01*
X129514313Y-116169806D01*
X129514302Y-116169803D01*
X129109149Y-116066394D01*
X129109143Y-116066393D01*
X129107193Y-116065895D01*
X128976865Y-116042381D01*
X128693702Y-115991292D01*
X128693694Y-115991291D01*
X128691705Y-115990932D01*
X128481816Y-115968367D01*
X128273947Y-115946018D01*
X128273942Y-115946018D01*
X128271927Y-115945801D01*
X128269897Y-115945729D01*
X128269890Y-115945728D01*
X128127595Y-115940646D01*
X127854523Y-115930894D01*
X127850000Y-115930096D01*
X127840177Y-115931828D01*
X127840175Y-115931828D01*
X127834846Y-115932768D01*
X127815051Y-115934500D01*
X127314000Y-115934500D01*
X127252367Y-115916403D01*
X127210302Y-115867857D01*
X127200000Y-115820500D01*
X127200000Y-114895500D01*
X127218097Y-114833867D01*
X127266643Y-114791802D01*
X127314000Y-114781500D01*
X136209011Y-114781500D01*
X136224718Y-114783283D01*
X136229740Y-114783292D01*
X136242250Y-114786168D01*
X136254769Y-114783335D01*
X136267368Y-114783357D01*
X136274623Y-114783601D01*
X136431360Y-114793872D01*
X136472477Y-114796566D01*
X136487258Y-114798512D01*
X136698841Y-114840597D01*
X136705910Y-114842003D01*
X136720314Y-114845863D01*
X136931404Y-114917519D01*
X136945182Y-114923226D01*
X137145117Y-115021826D01*
X137158031Y-115029282D01*
X137343388Y-115153137D01*
X137355219Y-115162216D01*
X137505369Y-115293900D01*
X137510955Y-115299140D01*
X137518097Y-115306308D01*
X137524912Y-115317193D01*
X137535773Y-115324046D01*
X137538848Y-115327132D01*
X137551807Y-115337486D01*
X140512138Y-118297818D01*
X140521988Y-118310189D01*
X140525530Y-118313744D01*
X140532342Y-118324624D01*
X140543197Y-118331473D01*
X140552098Y-118340406D01*
X140557056Y-118345709D01*
X140687788Y-118494781D01*
X140696865Y-118506611D01*
X140820715Y-118691965D01*
X140828171Y-118704878D01*
X140926772Y-118904817D01*
X140932478Y-118918593D01*
X141004143Y-119129699D01*
X141008002Y-119144097D01*
X141049893Y-119354668D01*
X141051499Y-119362741D01*
X141053446Y-119377525D01*
X141066483Y-119576339D01*
X141066727Y-119583993D01*
X141066709Y-119594598D01*
X141063832Y-119607110D01*
X141066666Y-119619634D01*
X141066659Y-119623998D01*
X141068500Y-119640476D01*
X141068500Y-120066438D01*
X141066718Y-120082140D01*
X141066709Y-120087163D01*
X141063832Y-120099675D01*
X141066664Y-120112194D01*
X141066652Y-120119191D01*
X141066301Y-120127932D01*
X141053130Y-120295303D01*
X141052971Y-120297318D01*
X141050173Y-120314982D01*
X141039845Y-120358000D01*
X141006062Y-120498716D01*
X141000534Y-120515729D01*
X140928226Y-120690295D01*
X140920105Y-120706233D01*
X140821376Y-120867346D01*
X140810861Y-120881819D01*
X140688147Y-121025498D01*
X140675501Y-121038144D01*
X140531819Y-121160861D01*
X140517346Y-121171376D01*
X140356233Y-121270105D01*
X140340295Y-121278226D01*
X140165729Y-121350534D01*
X140148716Y-121356062D01*
X140087003Y-121370878D01*
X139964982Y-121400173D01*
X139947322Y-121402970D01*
X139887317Y-121407693D01*
X139777099Y-121416367D01*
X139767956Y-121416718D01*
X139762836Y-121416709D01*
X139750325Y-121413832D01*
X139737803Y-121416666D01*
X139733446Y-121416658D01*
X139716958Y-121418500D01*
X96783562Y-121418500D01*
X96767860Y-121416718D01*
X96762837Y-121416709D01*
X96750325Y-121413832D01*
X96737806Y-121416664D01*
X96730809Y-121416652D01*
X96722068Y-121416301D01*
X96634602Y-121409418D01*
X96552678Y-121402970D01*
X96535018Y-121400173D01*
X96412997Y-121370878D01*
X96351284Y-121356062D01*
X96334271Y-121350534D01*
X96159705Y-121278226D01*
X96143767Y-121270105D01*
X95982654Y-121171376D01*
X95968181Y-121160861D01*
X95824499Y-121038144D01*
X95811853Y-121025498D01*
X95689139Y-120881819D01*
X95678624Y-120867346D01*
X95579895Y-120706233D01*
X95571774Y-120690295D01*
X95499466Y-120515729D01*
X95493938Y-120498716D01*
X95455813Y-120339914D01*
X95449828Y-120314984D01*
X95447029Y-120297317D01*
X95433994Y-120131686D01*
X95434392Y-120109700D01*
X95434711Y-120106932D01*
X95436167Y-120100650D01*
X95436168Y-120100000D01*
X95434355Y-120092052D01*
X95431500Y-120066699D01*
X95431500Y-116133825D01*
X95434444Y-116108085D01*
X95434709Y-116106942D01*
X95434709Y-116106939D01*
X95436167Y-116100650D01*
X95436168Y-116100000D01*
X95434735Y-116093718D01*
X95434333Y-116090123D01*
X95433978Y-116068509D01*
X95443287Y-115950227D01*
X95447030Y-115902678D01*
X95449828Y-115885013D01*
X95453118Y-115871312D01*
X95491228Y-115712573D01*
X95493938Y-115701284D01*
X95499466Y-115684271D01*
X95571774Y-115509705D01*
X95579895Y-115493767D01*
X95678624Y-115332654D01*
X95689139Y-115318181D01*
X95691222Y-115315742D01*
X95811856Y-115174499D01*
X95824499Y-115161856D01*
X95968183Y-115039137D01*
X95982654Y-115028624D01*
X96143767Y-114929895D01*
X96159705Y-114921774D01*
X96334271Y-114849466D01*
X96351284Y-114843938D01*
X96446806Y-114821005D01*
X96535018Y-114799827D01*
X96552678Y-114797030D01*
X96619100Y-114791802D01*
X96722901Y-114783633D01*
X96732044Y-114783282D01*
X96737164Y-114783291D01*
X96749675Y-114786168D01*
X96762197Y-114783334D01*
X96766554Y-114783342D01*
X96783042Y-114781500D01*
X104691184Y-114781500D01*
X104752817Y-114799597D01*
X104794882Y-114848143D01*
X104804024Y-114911724D01*
X104777339Y-114970154D01*
X104723302Y-115004882D01*
X104706064Y-115008525D01*
X104599569Y-115022545D01*
X104599553Y-115022548D01*
X104598076Y-115022742D01*
X104596606Y-115023015D01*
X104596590Y-115023017D01*
X103907474Y-115150739D01*
X103907462Y-115150742D01*
X103906019Y-115151009D01*
X103221624Y-115315318D01*
X102966615Y-115390855D01*
X102548217Y-115514791D01*
X102548210Y-115514793D01*
X102546766Y-115515221D01*
X101883295Y-115750170D01*
X101233029Y-116019519D01*
X100597751Y-116322532D01*
X100596449Y-116323239D01*
X100596441Y-116323243D01*
X99980524Y-116657659D01*
X99979202Y-116658377D01*
X99379078Y-117026135D01*
X98799023Y-117424796D01*
X98527924Y-117632818D01*
X98504225Y-117646814D01*
X98496640Y-117650133D01*
X98492043Y-117653338D01*
X98492039Y-117653340D01*
X98432365Y-117694941D01*
X98360347Y-117745147D01*
X98349990Y-117752367D01*
X98339005Y-117759135D01*
X98218843Y-117824088D01*
X98205248Y-117830322D01*
X98102799Y-117869384D01*
X98088381Y-117873813D01*
X97992508Y-117896449D01*
X97980381Y-117898628D01*
X97931526Y-117904703D01*
X97878711Y-117911269D01*
X97871626Y-117911926D01*
X97754445Y-117919114D01*
X97753459Y-117919170D01*
X97674367Y-117923334D01*
X97621668Y-117926109D01*
X97617987Y-117926341D01*
X97617526Y-117926375D01*
X97614294Y-117926644D01*
X97470903Y-117939888D01*
X97470479Y-117939935D01*
X97470438Y-117939939D01*
X97467307Y-117940286D01*
X97464598Y-117940585D01*
X97463745Y-117940695D01*
X97457258Y-117941655D01*
X97446465Y-117943459D01*
X97299252Y-117968065D01*
X97299236Y-117968068D01*
X97298607Y-117968173D01*
X97294155Y-117969022D01*
X97291365Y-117969554D01*
X97291354Y-117969556D01*
X97290768Y-117969668D01*
X97289732Y-117969890D01*
X97289085Y-117970044D01*
X97289067Y-117970048D01*
X97285533Y-117970889D01*
X97282028Y-117971723D01*
X97110935Y-118016545D01*
X97107767Y-118017794D01*
X97107764Y-118017795D01*
X97072065Y-118031870D01*
X97072015Y-118031742D01*
X97060415Y-118036118D01*
X97015864Y-118049230D01*
X96838508Y-118141950D01*
X96828654Y-118149873D01*
X96710163Y-118245143D01*
X96682539Y-118267353D01*
X96553897Y-118420661D01*
X96457484Y-118596037D01*
X96455801Y-118601343D01*
X96455800Y-118601345D01*
X96413496Y-118734703D01*
X96396970Y-118786799D01*
X96374662Y-118985683D01*
X96391408Y-119185111D01*
X96403472Y-119227184D01*
X96441424Y-119359535D01*
X96446572Y-119377489D01*
X96449122Y-119382450D01*
X96449122Y-119382451D01*
X96469415Y-119421936D01*
X96538051Y-119555488D01*
X96662362Y-119712329D01*
X96814769Y-119842038D01*
X96861790Y-119868317D01*
X96984596Y-119936951D01*
X96984598Y-119936952D01*
X96989467Y-119939673D01*
X96994776Y-119941398D01*
X97174498Y-119999794D01*
X97174502Y-119999795D01*
X97179802Y-120001517D01*
X97237190Y-120008360D01*
X97372988Y-120024553D01*
X97372990Y-120024553D01*
X97378525Y-120025213D01*
X97578065Y-120009859D01*
X97583430Y-120008361D01*
X97583436Y-120008360D01*
X97765460Y-119957538D01*
X97765463Y-119957537D01*
X97770824Y-119956040D01*
X97949457Y-119865806D01*
X98107162Y-119742593D01*
X98137053Y-119707964D01*
X98234288Y-119595317D01*
X98234290Y-119595314D01*
X98237931Y-119591096D01*
X98255676Y-119559860D01*
X98291300Y-119497150D01*
X98336784Y-119417083D01*
X98349145Y-119379925D01*
X98357945Y-119360042D01*
X98360241Y-119355959D01*
X98362983Y-119351082D01*
X98366181Y-119341298D01*
X98415593Y-119190098D01*
X98415602Y-119190069D01*
X98415824Y-119189390D01*
X98418201Y-119181494D01*
X98418495Y-119180427D01*
X98418715Y-119179549D01*
X98420368Y-119172932D01*
X98420371Y-119172919D01*
X98420538Y-119172251D01*
X98420690Y-119171575D01*
X98455048Y-119018537D01*
X98455055Y-119018505D01*
X98455155Y-119018059D01*
X98456389Y-119012075D01*
X98456539Y-119011278D01*
X98457557Y-119005306D01*
X98462244Y-118974611D01*
X98471876Y-118911522D01*
X98479226Y-118863381D01*
X98479547Y-118861183D01*
X98479592Y-118860861D01*
X98479940Y-118858226D01*
X98481309Y-118847221D01*
X98491896Y-118762068D01*
X98495913Y-118729755D01*
X98496330Y-118726740D01*
X98512840Y-118617863D01*
X98514774Y-118608037D01*
X98536198Y-118519865D01*
X98541120Y-118504466D01*
X98571652Y-118428089D01*
X98580394Y-118410698D01*
X98627996Y-118333274D01*
X98639246Y-118317991D01*
X98716940Y-118229032D01*
X98728220Y-118217805D01*
X98815907Y-118141950D01*
X98852935Y-118109918D01*
X98853221Y-118109560D01*
X98861643Y-118102034D01*
X99071930Y-117940675D01*
X99134998Y-117892282D01*
X99139822Y-117888777D01*
X99690122Y-117510566D01*
X99695096Y-117507335D01*
X100264469Y-117158423D01*
X100269634Y-117155441D01*
X100286210Y-117146441D01*
X100856456Y-116836822D01*
X100861749Y-116834125D01*
X101464466Y-116546642D01*
X101469914Y-116544217D01*
X101536001Y-116516843D01*
X102086822Y-116288685D01*
X102092379Y-116286552D01*
X102721832Y-116063650D01*
X102727505Y-116061807D01*
X102868092Y-116020163D01*
X103367745Y-115872159D01*
X103373492Y-115870618D01*
X104022798Y-115714732D01*
X104028621Y-115713495D01*
X104254737Y-115671586D01*
X104495489Y-115626965D01*
X104559388Y-115633527D01*
X104609595Y-115673594D01*
X104630171Y-115734445D01*
X104614581Y-115796759D01*
X104567777Y-115840754D01*
X104548639Y-115848362D01*
X104541045Y-115850611D01*
X104541009Y-115850623D01*
X104539607Y-115851038D01*
X104538211Y-115851532D01*
X104538209Y-115851533D01*
X104484320Y-115870616D01*
X103944006Y-116061951D01*
X103551389Y-116224577D01*
X103372176Y-116298809D01*
X103360259Y-116303745D01*
X102789967Y-116575760D01*
X102234693Y-116877248D01*
X102233419Y-116878028D01*
X102233415Y-116878031D01*
X102074894Y-116975173D01*
X101695958Y-117207385D01*
X101175240Y-117565264D01*
X101075426Y-117641854D01*
X101058003Y-117651972D01*
X101058293Y-117652508D01*
X101053365Y-117655175D01*
X101048207Y-117657343D01*
X101043577Y-117660472D01*
X101043571Y-117660475D01*
X100899443Y-117757871D01*
X100888514Y-117764398D01*
X100879569Y-117769084D01*
X100766591Y-117828268D01*
X100753149Y-117834237D01*
X100649260Y-117872547D01*
X100635051Y-117876759D01*
X100574761Y-117890441D01*
X100538055Y-117898771D01*
X100526147Y-117900816D01*
X100423664Y-117912865D01*
X100416794Y-117913463D01*
X100316436Y-117919114D01*
X100299263Y-117920081D01*
X100298406Y-117920126D01*
X100166451Y-117926560D01*
X100166398Y-117926563D01*
X100166272Y-117926569D01*
X100166140Y-117926577D01*
X100166061Y-117926581D01*
X100163170Y-117926751D01*
X100163160Y-117926752D01*
X100162864Y-117926769D01*
X100162410Y-117926800D01*
X100158785Y-117927085D01*
X100158545Y-117927106D01*
X100158477Y-117927112D01*
X100015762Y-117939833D01*
X100015748Y-117939834D01*
X100015281Y-117939876D01*
X100014813Y-117939926D01*
X100014797Y-117939928D01*
X100013322Y-117940087D01*
X100008868Y-117940567D01*
X100008013Y-117940675D01*
X100007419Y-117940761D01*
X100007398Y-117940764D01*
X100002124Y-117941529D01*
X100002118Y-117941530D01*
X100001601Y-117941605D01*
X100001125Y-117941683D01*
X100001119Y-117941684D01*
X99843318Y-117967566D01*
X99843295Y-117967570D01*
X99842710Y-117967666D01*
X99838784Y-117968402D01*
X99835477Y-117969022D01*
X99835451Y-117969027D01*
X99834844Y-117969141D01*
X99833812Y-117969359D01*
X99826192Y-117971147D01*
X99825575Y-117971306D01*
X99825544Y-117971314D01*
X99657887Y-118014621D01*
X99657882Y-118014623D01*
X99654586Y-118015474D01*
X99651416Y-118016711D01*
X99651410Y-118016713D01*
X99618838Y-118029424D01*
X99618835Y-118029426D01*
X99618230Y-118029661D01*
X99618226Y-118029663D01*
X99615766Y-118030623D01*
X99615679Y-118030657D01*
X99615666Y-118030623D01*
X99603236Y-118035286D01*
X99561220Y-118047653D01*
X99561215Y-118047655D01*
X99555864Y-118049230D01*
X99378508Y-118141950D01*
X99368654Y-118149873D01*
X99250163Y-118245143D01*
X99222539Y-118267353D01*
X99093897Y-118420661D01*
X98997484Y-118596037D01*
X98995801Y-118601343D01*
X98995800Y-118601345D01*
X98953496Y-118734703D01*
X98936970Y-118786799D01*
X98914662Y-118985683D01*
X98931408Y-119185111D01*
X98943472Y-119227184D01*
X98981424Y-119359535D01*
X98986572Y-119377489D01*
X98989122Y-119382450D01*
X98989122Y-119382451D01*
X99009415Y-119421936D01*
X99078051Y-119555488D01*
X99202362Y-119712329D01*
X99354769Y-119842038D01*
X99401790Y-119868317D01*
X99524596Y-119936951D01*
X99524598Y-119936952D01*
X99529467Y-119939673D01*
X99534776Y-119941398D01*
X99714498Y-119999794D01*
X99714502Y-119999795D01*
X99719802Y-120001517D01*
X99777190Y-120008360D01*
X99912988Y-120024553D01*
X99912990Y-120024553D01*
X99918525Y-120025213D01*
X100118065Y-120009859D01*
X100123430Y-120008361D01*
X100123436Y-120008360D01*
X100305460Y-119957538D01*
X100305463Y-119957537D01*
X100310824Y-119956040D01*
X100489457Y-119865806D01*
X100647162Y-119742593D01*
X100677053Y-119707964D01*
X100774288Y-119595317D01*
X100774290Y-119595314D01*
X100777931Y-119591096D01*
X100795676Y-119559860D01*
X100852530Y-119459777D01*
X100876784Y-119417083D01*
X100878544Y-119411793D01*
X100878546Y-119411788D01*
X100888187Y-119382804D01*
X100897185Y-119362570D01*
X100901665Y-119354668D01*
X100940612Y-119236898D01*
X100954725Y-119194222D01*
X100954731Y-119194204D01*
X100954946Y-119193553D01*
X100957163Y-119186278D01*
X100957175Y-119186236D01*
X100957369Y-119185600D01*
X100957668Y-119184528D01*
X100959726Y-119176404D01*
X100960518Y-119172932D01*
X100994734Y-119022915D01*
X100994745Y-119022867D01*
X100994830Y-119022492D01*
X100996086Y-119016504D01*
X100996238Y-119015711D01*
X100997266Y-119009805D01*
X101001041Y-118985683D01*
X101454662Y-118985683D01*
X101471408Y-119185111D01*
X101483472Y-119227184D01*
X101521424Y-119359535D01*
X101526572Y-119377489D01*
X101529122Y-119382450D01*
X101529122Y-119382451D01*
X101549415Y-119421936D01*
X101618051Y-119555488D01*
X101742362Y-119712329D01*
X101894769Y-119842038D01*
X101941790Y-119868317D01*
X102064596Y-119936951D01*
X102064598Y-119936952D01*
X102069467Y-119939673D01*
X102074776Y-119941398D01*
X102254498Y-119999794D01*
X102254502Y-119999795D01*
X102259802Y-120001517D01*
X102317190Y-120008360D01*
X102452988Y-120024553D01*
X102452990Y-120024553D01*
X102458525Y-120025213D01*
X102658065Y-120009859D01*
X102663430Y-120008361D01*
X102663436Y-120008360D01*
X102845460Y-119957538D01*
X102845463Y-119957537D01*
X102850824Y-119956040D01*
X103029457Y-119865806D01*
X103187162Y-119742593D01*
X103217053Y-119707964D01*
X103314288Y-119595317D01*
X103314290Y-119595314D01*
X103317931Y-119591096D01*
X103335676Y-119559860D01*
X103392530Y-119459777D01*
X103416784Y-119417083D01*
X103418543Y-119411796D01*
X103418545Y-119411791D01*
X103478196Y-119232472D01*
X103478196Y-119232471D01*
X103479955Y-119227184D01*
X103482590Y-119206330D01*
X103498474Y-119080594D01*
X103505038Y-119028632D01*
X103505275Y-119011676D01*
X103505394Y-119003182D01*
X103505394Y-119003174D01*
X103505438Y-119000000D01*
X103504034Y-118985683D01*
X103994662Y-118985683D01*
X104011408Y-119185111D01*
X104023472Y-119227184D01*
X104061424Y-119359535D01*
X104066572Y-119377489D01*
X104069122Y-119382450D01*
X104069122Y-119382451D01*
X104089415Y-119421936D01*
X104158051Y-119555488D01*
X104282362Y-119712329D01*
X104434769Y-119842038D01*
X104481790Y-119868317D01*
X104604596Y-119936951D01*
X104604598Y-119936952D01*
X104609467Y-119939673D01*
X104614776Y-119941398D01*
X104794498Y-119999794D01*
X104794502Y-119999795D01*
X104799802Y-120001517D01*
X104857190Y-120008360D01*
X104992988Y-120024553D01*
X104992990Y-120024553D01*
X104998525Y-120025213D01*
X105198065Y-120009859D01*
X105203430Y-120008361D01*
X105203436Y-120008360D01*
X105385460Y-119957538D01*
X105385463Y-119957537D01*
X105390824Y-119956040D01*
X105569457Y-119865806D01*
X105727162Y-119742593D01*
X105757053Y-119707964D01*
X105854288Y-119595317D01*
X105854290Y-119595314D01*
X105857931Y-119591096D01*
X105875676Y-119559860D01*
X105932530Y-119459777D01*
X105956784Y-119417083D01*
X105958543Y-119411796D01*
X105958545Y-119411791D01*
X106009338Y-119259100D01*
X106045964Y-119206330D01*
X106105306Y-119181739D01*
X106168522Y-119193134D01*
X106215542Y-119236898D01*
X106228721Y-119270021D01*
X106258673Y-119402930D01*
X106261461Y-119411823D01*
X106341954Y-119610055D01*
X106346157Y-119618377D01*
X106457951Y-119800807D01*
X106463451Y-119808322D01*
X106603538Y-119970043D01*
X106610199Y-119976566D01*
X106774818Y-120113236D01*
X106782453Y-120118581D01*
X106967178Y-120226526D01*
X106975588Y-120230555D01*
X107175452Y-120306875D01*
X107184427Y-120309483D01*
X107289935Y-120330949D01*
X107302652Y-120329867D01*
X107306000Y-120320507D01*
X107306000Y-120320243D01*
X107814000Y-120320243D01*
X107817677Y-120332766D01*
X107829813Y-120334606D01*
X107838671Y-120333471D01*
X107847793Y-120331533D01*
X108052716Y-120270052D01*
X108061407Y-120266646D01*
X108253537Y-120172523D01*
X108261545Y-120167749D01*
X108435725Y-120043509D01*
X108442852Y-120037486D01*
X108594398Y-119886466D01*
X108600444Y-119879362D01*
X108725285Y-119705628D01*
X108730100Y-119697614D01*
X108824890Y-119505823D01*
X108828324Y-119497150D01*
X108890522Y-119292432D01*
X108893480Y-119278752D01*
X108894607Y-119278996D01*
X108918397Y-119225228D01*
X108972019Y-119189863D01*
X109036250Y-119189102D01*
X109090695Y-119223188D01*
X109115014Y-119267434D01*
X109141424Y-119359535D01*
X109146572Y-119377489D01*
X109149122Y-119382450D01*
X109149122Y-119382451D01*
X109169415Y-119421936D01*
X109238051Y-119555488D01*
X109362362Y-119712329D01*
X109514769Y-119842038D01*
X109561790Y-119868317D01*
X109684596Y-119936951D01*
X109684598Y-119936952D01*
X109689467Y-119939673D01*
X109694776Y-119941398D01*
X109874498Y-119999794D01*
X109874502Y-119999795D01*
X109879802Y-120001517D01*
X109937190Y-120008360D01*
X110072988Y-120024553D01*
X110072990Y-120024553D01*
X110078525Y-120025213D01*
X110278065Y-120009859D01*
X110283430Y-120008361D01*
X110283436Y-120008360D01*
X110465460Y-119957538D01*
X110465463Y-119957537D01*
X110470824Y-119956040D01*
X110649457Y-119865806D01*
X110807162Y-119742593D01*
X110837053Y-119707964D01*
X110934288Y-119595317D01*
X110934290Y-119595314D01*
X110937931Y-119591096D01*
X110955676Y-119559860D01*
X111012530Y-119459777D01*
X111036784Y-119417083D01*
X111038543Y-119411796D01*
X111038545Y-119411791D01*
X111098196Y-119232472D01*
X111098196Y-119232471D01*
X111099955Y-119227184D01*
X111102590Y-119206330D01*
X111118474Y-119080594D01*
X111125038Y-119028632D01*
X111125275Y-119011676D01*
X111125394Y-119003182D01*
X111125394Y-119003174D01*
X111125438Y-119000000D01*
X111124034Y-118985683D01*
X111614662Y-118985683D01*
X111631408Y-119185111D01*
X111643472Y-119227184D01*
X111681424Y-119359535D01*
X111686572Y-119377489D01*
X111689122Y-119382450D01*
X111689122Y-119382451D01*
X111709415Y-119421936D01*
X111778051Y-119555488D01*
X111902362Y-119712329D01*
X112054769Y-119842038D01*
X112101790Y-119868317D01*
X112224596Y-119936951D01*
X112224598Y-119936952D01*
X112229467Y-119939673D01*
X112234776Y-119941398D01*
X112414498Y-119999794D01*
X112414502Y-119999795D01*
X112419802Y-120001517D01*
X112477190Y-120008360D01*
X112612988Y-120024553D01*
X112612990Y-120024553D01*
X112618525Y-120025213D01*
X112818065Y-120009859D01*
X112823430Y-120008361D01*
X112823436Y-120008360D01*
X113005460Y-119957538D01*
X113005463Y-119957537D01*
X113010824Y-119956040D01*
X113189457Y-119865806D01*
X113347162Y-119742593D01*
X113377053Y-119707964D01*
X113474288Y-119595317D01*
X113474290Y-119595314D01*
X113477931Y-119591096D01*
X113495676Y-119559860D01*
X113552530Y-119459777D01*
X113576784Y-119417083D01*
X113578543Y-119411796D01*
X113578545Y-119411791D01*
X113629338Y-119259100D01*
X113665964Y-119206330D01*
X113725306Y-119181739D01*
X113788522Y-119193134D01*
X113835542Y-119236898D01*
X113848721Y-119270021D01*
X113878673Y-119402930D01*
X113881461Y-119411823D01*
X113961954Y-119610055D01*
X113966157Y-119618377D01*
X114077951Y-119800807D01*
X114083451Y-119808322D01*
X114223538Y-119970043D01*
X114230199Y-119976566D01*
X114394818Y-120113236D01*
X114402453Y-120118581D01*
X114587178Y-120226526D01*
X114595588Y-120230555D01*
X114795452Y-120306875D01*
X114804427Y-120309483D01*
X114909935Y-120330949D01*
X114922652Y-120329867D01*
X114926000Y-120320507D01*
X114926000Y-120320243D01*
X115434000Y-120320243D01*
X115437677Y-120332766D01*
X115449813Y-120334606D01*
X115458671Y-120333471D01*
X115467793Y-120331533D01*
X115672716Y-120270052D01*
X115681407Y-120266646D01*
X115873537Y-120172523D01*
X115881545Y-120167749D01*
X116055725Y-120043509D01*
X116062852Y-120037486D01*
X116214398Y-119886466D01*
X116220444Y-119879362D01*
X116345285Y-119705628D01*
X116350100Y-119697614D01*
X116444890Y-119505823D01*
X116448324Y-119497150D01*
X116510522Y-119292432D01*
X116513480Y-119278752D01*
X116514607Y-119278996D01*
X116538397Y-119225228D01*
X116592019Y-119189863D01*
X116656250Y-119189102D01*
X116710695Y-119223188D01*
X116735014Y-119267434D01*
X116761424Y-119359535D01*
X116766572Y-119377489D01*
X116769122Y-119382450D01*
X116769122Y-119382451D01*
X116789415Y-119421936D01*
X116858051Y-119555488D01*
X116982362Y-119712329D01*
X117134769Y-119842038D01*
X117181790Y-119868317D01*
X117304596Y-119936951D01*
X117304598Y-119936952D01*
X117309467Y-119939673D01*
X117314776Y-119941398D01*
X117494498Y-119999794D01*
X117494502Y-119999795D01*
X117499802Y-120001517D01*
X117557190Y-120008360D01*
X117692988Y-120024553D01*
X117692990Y-120024553D01*
X117698525Y-120025213D01*
X117898065Y-120009859D01*
X117903430Y-120008361D01*
X117903436Y-120008360D01*
X118085460Y-119957538D01*
X118085463Y-119957537D01*
X118090824Y-119956040D01*
X118269457Y-119865806D01*
X118427162Y-119742593D01*
X118457053Y-119707964D01*
X118554288Y-119595317D01*
X118554290Y-119595314D01*
X118557931Y-119591096D01*
X118575676Y-119559860D01*
X118632530Y-119459777D01*
X118656784Y-119417083D01*
X118658543Y-119411796D01*
X118658545Y-119411791D01*
X118718196Y-119232472D01*
X118718196Y-119232471D01*
X118719955Y-119227184D01*
X118722590Y-119206330D01*
X118738474Y-119080594D01*
X118745038Y-119028632D01*
X118745275Y-119011676D01*
X118745394Y-119003182D01*
X118745394Y-119003174D01*
X118745438Y-119000000D01*
X118744034Y-118985683D01*
X119234662Y-118985683D01*
X119251408Y-119185111D01*
X119263472Y-119227184D01*
X119301424Y-119359535D01*
X119306572Y-119377489D01*
X119309122Y-119382450D01*
X119309122Y-119382451D01*
X119329415Y-119421936D01*
X119398051Y-119555488D01*
X119522362Y-119712329D01*
X119674769Y-119842038D01*
X119721790Y-119868317D01*
X119844596Y-119936951D01*
X119844598Y-119936952D01*
X119849467Y-119939673D01*
X119854776Y-119941398D01*
X120034498Y-119999794D01*
X120034502Y-119999795D01*
X120039802Y-120001517D01*
X120097190Y-120008360D01*
X120232988Y-120024553D01*
X120232990Y-120024553D01*
X120238525Y-120025213D01*
X120438065Y-120009859D01*
X120443430Y-120008361D01*
X120443436Y-120008360D01*
X120625460Y-119957538D01*
X120625463Y-119957537D01*
X120630824Y-119956040D01*
X120809457Y-119865806D01*
X120967162Y-119742593D01*
X120997053Y-119707964D01*
X121094288Y-119595317D01*
X121094290Y-119595314D01*
X121097931Y-119591096D01*
X121115676Y-119559860D01*
X121172530Y-119459777D01*
X121196784Y-119417083D01*
X121198543Y-119411796D01*
X121198545Y-119411791D01*
X121258196Y-119232472D01*
X121258196Y-119232471D01*
X121259955Y-119227184D01*
X121262590Y-119206330D01*
X121278474Y-119080594D01*
X121285038Y-119028632D01*
X121285275Y-119011676D01*
X121285394Y-119003182D01*
X121285394Y-119003174D01*
X121285438Y-119000000D01*
X121284034Y-118985683D01*
X121774662Y-118985683D01*
X121791408Y-119185111D01*
X121803472Y-119227184D01*
X121841424Y-119359535D01*
X121846572Y-119377489D01*
X121849122Y-119382450D01*
X121849122Y-119382451D01*
X121869415Y-119421936D01*
X121938051Y-119555488D01*
X122062362Y-119712329D01*
X122214769Y-119842038D01*
X122261790Y-119868317D01*
X122384596Y-119936951D01*
X122384598Y-119936952D01*
X122389467Y-119939673D01*
X122394776Y-119941398D01*
X122574498Y-119999794D01*
X122574502Y-119999795D01*
X122579802Y-120001517D01*
X122637190Y-120008360D01*
X122772988Y-120024553D01*
X122772990Y-120024553D01*
X122778525Y-120025213D01*
X122978065Y-120009859D01*
X122983430Y-120008361D01*
X122983436Y-120008360D01*
X123165460Y-119957538D01*
X123165463Y-119957537D01*
X123170824Y-119956040D01*
X123349457Y-119865806D01*
X123507162Y-119742593D01*
X123537053Y-119707964D01*
X123634288Y-119595317D01*
X123634290Y-119595314D01*
X123637931Y-119591096D01*
X123655676Y-119559860D01*
X123712530Y-119459777D01*
X123736784Y-119417083D01*
X123738543Y-119411796D01*
X123738545Y-119411791D01*
X123798196Y-119232472D01*
X123798196Y-119232471D01*
X123799955Y-119227184D01*
X123802590Y-119206330D01*
X123818474Y-119080594D01*
X123825038Y-119028632D01*
X123825275Y-119011676D01*
X123825394Y-119003182D01*
X123825394Y-119003174D01*
X123825438Y-119000000D01*
X123824034Y-118985683D01*
X124314662Y-118985683D01*
X124331408Y-119185111D01*
X124343472Y-119227184D01*
X124381424Y-119359535D01*
X124386572Y-119377489D01*
X124389122Y-119382450D01*
X124389122Y-119382451D01*
X124409415Y-119421936D01*
X124478051Y-119555488D01*
X124602362Y-119712329D01*
X124754769Y-119842038D01*
X124801790Y-119868317D01*
X124924596Y-119936951D01*
X124924598Y-119936952D01*
X124929467Y-119939673D01*
X124934776Y-119941398D01*
X125114498Y-119999794D01*
X125114502Y-119999795D01*
X125119802Y-120001517D01*
X125177190Y-120008360D01*
X125312988Y-120024553D01*
X125312990Y-120024553D01*
X125318525Y-120025213D01*
X125518065Y-120009859D01*
X125523430Y-120008361D01*
X125523436Y-120008360D01*
X125705460Y-119957538D01*
X125705463Y-119957537D01*
X125710824Y-119956040D01*
X125889457Y-119865806D01*
X126047162Y-119742593D01*
X126077053Y-119707964D01*
X126174288Y-119595317D01*
X126174290Y-119595314D01*
X126177931Y-119591096D01*
X126195676Y-119559860D01*
X126252530Y-119459777D01*
X126276784Y-119417083D01*
X126278543Y-119411796D01*
X126278545Y-119411791D01*
X126329338Y-119259100D01*
X126365964Y-119206330D01*
X126425306Y-119181739D01*
X126488522Y-119193134D01*
X126535542Y-119236898D01*
X126548721Y-119270021D01*
X126578673Y-119402930D01*
X126581461Y-119411823D01*
X126661954Y-119610055D01*
X126666157Y-119618377D01*
X126777951Y-119800807D01*
X126783451Y-119808322D01*
X126923538Y-119970043D01*
X126930199Y-119976566D01*
X127094818Y-120113236D01*
X127102453Y-120118581D01*
X127287178Y-120226526D01*
X127295588Y-120230555D01*
X127495452Y-120306875D01*
X127504427Y-120309483D01*
X127609935Y-120330949D01*
X127622652Y-120329867D01*
X127626000Y-120320507D01*
X127626000Y-117681376D01*
X127622455Y-117669304D01*
X127609537Y-117667506D01*
X127568835Y-117673735D01*
X127559760Y-117675897D01*
X127356396Y-117742366D01*
X127347798Y-117745980D01*
X127158025Y-117844770D01*
X127150134Y-117849739D01*
X126979035Y-117978204D01*
X126972070Y-117984388D01*
X126824251Y-118139072D01*
X126818382Y-118146319D01*
X126697816Y-118323062D01*
X126693209Y-118331172D01*
X126603130Y-118525232D01*
X126599908Y-118533988D01*
X126544934Y-118732218D01*
X126511024Y-118786774D01*
X126453003Y-118814335D01*
X126389291Y-118806153D01*
X126340117Y-118764824D01*
X126325946Y-118734703D01*
X126289678Y-118614578D01*
X126289677Y-118614577D01*
X126288065Y-118609236D01*
X126283871Y-118601347D01*
X126206730Y-118456267D01*
X126194109Y-118432531D01*
X126067621Y-118277441D01*
X126055427Y-118267353D01*
X125917718Y-118153430D01*
X125917716Y-118153429D01*
X125913418Y-118149873D01*
X125804172Y-118090804D01*
X125742278Y-118057338D01*
X125742276Y-118057337D01*
X125737373Y-118054686D01*
X125546193Y-117995506D01*
X125534709Y-117994299D01*
X125352697Y-117975169D01*
X125352696Y-117975169D01*
X125347159Y-117974587D01*
X125147852Y-117992725D01*
X124955864Y-118049230D01*
X124778508Y-118141950D01*
X124768654Y-118149873D01*
X124650163Y-118245143D01*
X124622539Y-118267353D01*
X124493897Y-118420661D01*
X124397484Y-118596037D01*
X124395801Y-118601343D01*
X124395800Y-118601345D01*
X124353496Y-118734703D01*
X124336970Y-118786799D01*
X124314662Y-118985683D01*
X123824034Y-118985683D01*
X123816105Y-118904817D01*
X123806454Y-118806378D01*
X123806453Y-118806373D01*
X123805909Y-118800825D01*
X123801676Y-118786802D01*
X123749678Y-118614578D01*
X123749677Y-118614577D01*
X123748065Y-118609236D01*
X123743871Y-118601347D01*
X123666730Y-118456267D01*
X123654109Y-118432531D01*
X123527621Y-118277441D01*
X123515427Y-118267353D01*
X123377718Y-118153430D01*
X123377716Y-118153429D01*
X123373418Y-118149873D01*
X123264172Y-118090804D01*
X123202278Y-118057338D01*
X123202276Y-118057337D01*
X123197373Y-118054686D01*
X123006193Y-117995506D01*
X122994709Y-117994299D01*
X122812697Y-117975169D01*
X122812696Y-117975169D01*
X122807159Y-117974587D01*
X122607852Y-117992725D01*
X122415864Y-118049230D01*
X122238508Y-118141950D01*
X122228654Y-118149873D01*
X122110163Y-118245143D01*
X122082539Y-118267353D01*
X121953897Y-118420661D01*
X121857484Y-118596037D01*
X121855801Y-118601343D01*
X121855800Y-118601345D01*
X121813496Y-118734703D01*
X121796970Y-118786799D01*
X121774662Y-118985683D01*
X121284034Y-118985683D01*
X121276105Y-118904817D01*
X121266454Y-118806378D01*
X121266453Y-118806373D01*
X121265909Y-118800825D01*
X121261676Y-118786802D01*
X121209678Y-118614578D01*
X121209677Y-118614577D01*
X121208065Y-118609236D01*
X121203871Y-118601347D01*
X121126730Y-118456267D01*
X121114109Y-118432531D01*
X120987621Y-118277441D01*
X120975427Y-118267353D01*
X120837718Y-118153430D01*
X120837716Y-118153429D01*
X120833418Y-118149873D01*
X120724172Y-118090804D01*
X120662278Y-118057338D01*
X120662276Y-118057337D01*
X120657373Y-118054686D01*
X120466193Y-117995506D01*
X120454709Y-117994299D01*
X120272697Y-117975169D01*
X120272696Y-117975169D01*
X120267159Y-117974587D01*
X120067852Y-117992725D01*
X119875864Y-118049230D01*
X119698508Y-118141950D01*
X119688654Y-118149873D01*
X119570163Y-118245143D01*
X119542539Y-118267353D01*
X119413897Y-118420661D01*
X119317484Y-118596037D01*
X119315801Y-118601343D01*
X119315800Y-118601345D01*
X119273496Y-118734703D01*
X119256970Y-118786799D01*
X119234662Y-118985683D01*
X118744034Y-118985683D01*
X118736105Y-118904817D01*
X118726454Y-118806378D01*
X118726453Y-118806373D01*
X118725909Y-118800825D01*
X118721676Y-118786802D01*
X118669678Y-118614578D01*
X118669677Y-118614577D01*
X118668065Y-118609236D01*
X118663871Y-118601347D01*
X118586730Y-118456267D01*
X118574109Y-118432531D01*
X118447621Y-118277441D01*
X118435427Y-118267353D01*
X118297718Y-118153430D01*
X118297716Y-118153429D01*
X118293418Y-118149873D01*
X118184172Y-118090804D01*
X118122278Y-118057338D01*
X118122276Y-118057337D01*
X118117373Y-118054686D01*
X117926193Y-117995506D01*
X117914709Y-117994299D01*
X117732697Y-117975169D01*
X117732696Y-117975169D01*
X117727159Y-117974587D01*
X117527852Y-117992725D01*
X117335864Y-118049230D01*
X117158508Y-118141950D01*
X117148654Y-118149873D01*
X117030163Y-118245143D01*
X117002539Y-118267353D01*
X116873897Y-118420661D01*
X116777484Y-118596037D01*
X116775801Y-118601342D01*
X116775799Y-118601347D01*
X116732197Y-118738798D01*
X116696311Y-118792074D01*
X116637318Y-118817491D01*
X116573949Y-118806980D01*
X116526322Y-118763877D01*
X116512968Y-118732101D01*
X116471095Y-118565400D01*
X116468090Y-118556574D01*
X116382779Y-118360371D01*
X116378370Y-118352147D01*
X116262153Y-118172504D01*
X116256474Y-118165129D01*
X116112469Y-118006870D01*
X116105662Y-118000523D01*
X115937751Y-117867915D01*
X115929984Y-117862755D01*
X115742681Y-117759358D01*
X115734170Y-117755533D01*
X115532495Y-117684116D01*
X115523476Y-117681733D01*
X115450139Y-117668670D01*
X115438108Y-117669990D01*
X115434000Y-117683160D01*
X115434000Y-120320243D01*
X114926000Y-120320243D01*
X114926000Y-117681376D01*
X114922455Y-117669304D01*
X114909537Y-117667506D01*
X114868835Y-117673735D01*
X114859760Y-117675897D01*
X114656396Y-117742366D01*
X114647798Y-117745980D01*
X114458025Y-117844770D01*
X114450134Y-117849739D01*
X114279035Y-117978204D01*
X114272070Y-117984388D01*
X114124251Y-118139072D01*
X114118382Y-118146319D01*
X113997816Y-118323062D01*
X113993209Y-118331172D01*
X113918914Y-118491227D01*
X113876549Y-118539511D01*
X113814806Y-118557227D01*
X113753286Y-118538749D01*
X113711522Y-118489944D01*
X113702251Y-118430257D01*
X113702500Y-118428089D01*
X113716097Y-118309368D01*
X113716154Y-118308868D01*
X113716272Y-118307816D01*
X113726273Y-118218218D01*
X113730324Y-118181933D01*
X113730593Y-118179346D01*
X113743729Y-118043433D01*
X113743873Y-118041940D01*
X113743904Y-118041607D01*
X113744067Y-118039793D01*
X113744097Y-118039464D01*
X113744116Y-118039236D01*
X113744242Y-118037632D01*
X113755742Y-117882447D01*
X113755892Y-117880238D01*
X113755910Y-117879945D01*
X113756030Y-117877760D01*
X113764842Y-117697648D01*
X113764944Y-117695226D01*
X113764954Y-117694941D01*
X113764960Y-117694746D01*
X113765005Y-117693245D01*
X113765009Y-117693095D01*
X113765230Y-117684116D01*
X113769790Y-117498374D01*
X113769790Y-117498372D01*
X113769929Y-117492704D01*
X113757874Y-117424339D01*
X113754562Y-117415891D01*
X113727486Y-117369413D01*
X113660504Y-117318724D01*
X113652277Y-117315186D01*
X113603859Y-117304877D01*
X113590779Y-117302092D01*
X113590778Y-117302092D01*
X113585302Y-117300926D01*
X112988114Y-117292898D01*
X112983072Y-117293742D01*
X112983069Y-117293742D01*
X112963425Y-117297030D01*
X112926392Y-117303227D01*
X112918666Y-117306004D01*
X112877076Y-117327602D01*
X112821925Y-117390961D01*
X112817833Y-117398926D01*
X112816295Y-117404312D01*
X112816293Y-117404316D01*
X112800562Y-117459389D01*
X112800561Y-117459395D01*
X112799025Y-117464772D01*
X112798567Y-117470351D01*
X112798567Y-117470352D01*
X112796733Y-117492704D01*
X112789641Y-117579143D01*
X112789610Y-117579517D01*
X112786430Y-117598468D01*
X112768592Y-117668146D01*
X112760533Y-117690018D01*
X112738980Y-117734022D01*
X112725818Y-117754843D01*
X112703931Y-117782356D01*
X112698867Y-117788722D01*
X112683702Y-117804427D01*
X112642978Y-117839215D01*
X112630017Y-117848788D01*
X112568472Y-117887835D01*
X112560041Y-117892692D01*
X112493906Y-117927112D01*
X112476123Y-117936367D01*
X112472577Y-117938135D01*
X112369550Y-117987276D01*
X112368312Y-117987873D01*
X112368172Y-117987941D01*
X112313345Y-118014621D01*
X112254433Y-118043289D01*
X112251353Y-118044825D01*
X112250903Y-118045055D01*
X112247240Y-118046981D01*
X112247047Y-118047085D01*
X112246984Y-118047119D01*
X112139005Y-118105560D01*
X112136108Y-118107128D01*
X112115849Y-118121343D01*
X112103193Y-118129045D01*
X112078508Y-118141950D01*
X112074164Y-118145443D01*
X112074162Y-118145444D01*
X111950163Y-118245143D01*
X111922539Y-118267353D01*
X111793897Y-118420661D01*
X111697484Y-118596037D01*
X111695801Y-118601343D01*
X111695800Y-118601345D01*
X111653496Y-118734703D01*
X111636970Y-118786799D01*
X111614662Y-118985683D01*
X111124034Y-118985683D01*
X111105909Y-118800825D01*
X111104298Y-118795489D01*
X111103215Y-118790017D01*
X111103539Y-118789953D01*
X111102926Y-118787045D01*
X111102920Y-118786802D01*
X111092853Y-118741952D01*
X111065261Y-118619036D01*
X111065193Y-118618733D01*
X111064214Y-118614607D01*
X111064084Y-118614087D01*
X111063120Y-118610401D01*
X111030562Y-118491227D01*
X111021909Y-118459553D01*
X111021894Y-118459499D01*
X111021830Y-118459265D01*
X111020962Y-118456199D01*
X111020844Y-118455796D01*
X111019943Y-118452816D01*
X110978177Y-118319023D01*
X110978134Y-118318888D01*
X110978104Y-118318794D01*
X110977380Y-118316542D01*
X110977294Y-118316274D01*
X110936959Y-118194165D01*
X110936599Y-118193058D01*
X110900311Y-118079315D01*
X110899082Y-118075196D01*
X110890704Y-118045055D01*
X110868223Y-117964179D01*
X110866639Y-117957760D01*
X110863175Y-117941745D01*
X110841125Y-117839824D01*
X110839764Y-117832333D01*
X110819844Y-117697110D01*
X110819004Y-117689757D01*
X110805786Y-117527585D01*
X110805443Y-117521108D01*
X110800860Y-117333501D01*
X110800860Y-117333497D01*
X110800727Y-117328073D01*
X110799546Y-117322654D01*
X110789191Y-117275173D01*
X110786582Y-117263209D01*
X110783158Y-117255222D01*
X110780901Y-117251539D01*
X110762450Y-117221438D01*
X110756676Y-117212018D01*
X110732100Y-117193934D01*
X110694577Y-117166322D01*
X110694572Y-117166319D01*
X110689019Y-117162233D01*
X110680746Y-117158806D01*
X110646937Y-117152080D01*
X110619078Y-117146538D01*
X110619075Y-117146538D01*
X110613582Y-117145445D01*
X110016288Y-117145445D01*
X110011037Y-117146441D01*
X110011033Y-117146441D01*
X109967424Y-117154710D01*
X109952042Y-117157627D01*
X109944070Y-117160763D01*
X109940556Y-117162760D01*
X109940549Y-117162764D01*
X109910386Y-117179912D01*
X109900847Y-117185335D01*
X109894033Y-117193934D01*
X109882706Y-117208229D01*
X109848678Y-117251171D01*
X109844958Y-117259316D01*
X109829209Y-117325941D01*
X109829009Y-117331534D01*
X109829008Y-117331538D01*
X109823861Y-117475184D01*
X109823052Y-117485250D01*
X109818566Y-117521108D01*
X109808323Y-117602989D01*
X109806044Y-117615496D01*
X109784591Y-117704697D01*
X109784201Y-117706317D01*
X109779866Y-117720316D01*
X109752077Y-117793100D01*
X109745869Y-117806633D01*
X109710711Y-117871697D01*
X109703980Y-117882629D01*
X109661483Y-117943664D01*
X109657709Y-117949084D01*
X109652217Y-117956336D01*
X109591933Y-118029663D01*
X109591385Y-118030329D01*
X109588254Y-118033978D01*
X109511654Y-118119526D01*
X109511036Y-118120211D01*
X109454863Y-118181933D01*
X109421577Y-118218507D01*
X109421463Y-118218633D01*
X109421136Y-118218997D01*
X109420474Y-118219731D01*
X109420332Y-118219890D01*
X109419304Y-118221050D01*
X109326041Y-118327353D01*
X109324220Y-118329968D01*
X109324217Y-118329971D01*
X109313254Y-118345709D01*
X109303680Y-118359453D01*
X109303341Y-118360079D01*
X109294756Y-118371967D01*
X109253897Y-118420661D01*
X109157484Y-118596037D01*
X109155801Y-118601342D01*
X109155799Y-118601347D01*
X109112197Y-118738798D01*
X109076311Y-118792074D01*
X109017318Y-118817491D01*
X108953949Y-118806980D01*
X108906322Y-118763877D01*
X108892968Y-118732101D01*
X108851095Y-118565400D01*
X108848090Y-118556574D01*
X108762779Y-118360371D01*
X108758370Y-118352147D01*
X108642153Y-118172504D01*
X108636474Y-118165129D01*
X108492469Y-118006870D01*
X108485662Y-118000523D01*
X108317751Y-117867915D01*
X108309984Y-117862755D01*
X108122681Y-117759358D01*
X108114170Y-117755533D01*
X107912495Y-117684116D01*
X107903476Y-117681733D01*
X107830139Y-117668670D01*
X107818108Y-117669990D01*
X107814000Y-117683160D01*
X107814000Y-120320243D01*
X107306000Y-120320243D01*
X107306000Y-117681376D01*
X107302455Y-117669304D01*
X107289537Y-117667506D01*
X107248835Y-117673735D01*
X107239760Y-117675897D01*
X107036396Y-117742366D01*
X107027798Y-117745980D01*
X106838025Y-117844770D01*
X106830134Y-117849739D01*
X106659035Y-117978204D01*
X106652070Y-117984388D01*
X106504251Y-118139072D01*
X106498382Y-118146319D01*
X106377816Y-118323062D01*
X106373209Y-118331172D01*
X106283130Y-118525232D01*
X106279908Y-118533988D01*
X106224934Y-118732218D01*
X106191024Y-118786774D01*
X106133003Y-118814335D01*
X106069291Y-118806153D01*
X106020117Y-118764824D01*
X106005946Y-118734703D01*
X105969678Y-118614578D01*
X105969677Y-118614577D01*
X105968065Y-118609236D01*
X105963871Y-118601347D01*
X105886730Y-118456267D01*
X105874109Y-118432531D01*
X105747621Y-118277441D01*
X105735427Y-118267353D01*
X105597718Y-118153430D01*
X105597716Y-118153429D01*
X105593418Y-118149873D01*
X105484172Y-118090804D01*
X105422278Y-118057338D01*
X105422276Y-118057337D01*
X105417373Y-118054686D01*
X105226193Y-117995506D01*
X105214709Y-117994299D01*
X105032697Y-117975169D01*
X105032696Y-117975169D01*
X105027159Y-117974587D01*
X104827852Y-117992725D01*
X104635864Y-118049230D01*
X104458508Y-118141950D01*
X104448654Y-118149873D01*
X104330163Y-118245143D01*
X104302539Y-118267353D01*
X104173897Y-118420661D01*
X104077484Y-118596037D01*
X104075801Y-118601343D01*
X104075800Y-118601345D01*
X104033496Y-118734703D01*
X104016970Y-118786799D01*
X103994662Y-118985683D01*
X103504034Y-118985683D01*
X103496105Y-118904817D01*
X103486454Y-118806378D01*
X103486453Y-118806373D01*
X103485909Y-118800825D01*
X103481676Y-118786802D01*
X103429678Y-118614578D01*
X103429677Y-118614577D01*
X103428065Y-118609236D01*
X103423871Y-118601347D01*
X103346730Y-118456267D01*
X103334109Y-118432531D01*
X103207621Y-118277441D01*
X103195427Y-118267353D01*
X103057718Y-118153430D01*
X103057716Y-118153429D01*
X103053418Y-118149873D01*
X102944172Y-118090804D01*
X102882278Y-118057338D01*
X102882276Y-118057337D01*
X102877373Y-118054686D01*
X102686193Y-117995506D01*
X102674709Y-117994299D01*
X102492697Y-117975169D01*
X102492696Y-117975169D01*
X102487159Y-117974587D01*
X102287852Y-117992725D01*
X102095864Y-118049230D01*
X101918508Y-118141950D01*
X101908654Y-118149873D01*
X101790163Y-118245143D01*
X101762539Y-118267353D01*
X101633897Y-118420661D01*
X101537484Y-118596037D01*
X101535801Y-118601343D01*
X101535800Y-118601345D01*
X101493496Y-118734703D01*
X101476970Y-118786799D01*
X101454662Y-118985683D01*
X101001041Y-118985683D01*
X101019460Y-118867972D01*
X101019806Y-118865659D01*
X101019851Y-118865344D01*
X101020177Y-118862942D01*
X101020377Y-118861395D01*
X101036702Y-118734632D01*
X101037150Y-118731499D01*
X101054171Y-118623171D01*
X101056195Y-118613210D01*
X101078056Y-118525790D01*
X101083160Y-118510227D01*
X101113987Y-118434984D01*
X101123014Y-118417451D01*
X101170849Y-118341498D01*
X101182424Y-118326158D01*
X101198865Y-118307816D01*
X101260524Y-118239030D01*
X101272080Y-118227840D01*
X101397695Y-118122323D01*
X101398081Y-118121855D01*
X101406139Y-118114825D01*
X101413859Y-118109015D01*
X101615491Y-117957271D01*
X101620698Y-117953576D01*
X102151453Y-117598938D01*
X102156850Y-117595546D01*
X102362911Y-117473995D01*
X102706631Y-117271241D01*
X102712227Y-117268148D01*
X103003117Y-117117870D01*
X103279352Y-116975164D01*
X103285096Y-116972399D01*
X103337545Y-116948930D01*
X103670371Y-116800000D01*
X116424577Y-116800000D01*
X116444184Y-116948930D01*
X116447042Y-116955831D01*
X116447043Y-116955833D01*
X116498808Y-117080804D01*
X116501669Y-117087711D01*
X116506218Y-117093640D01*
X116506219Y-117093641D01*
X116583176Y-117193934D01*
X116593114Y-117206886D01*
X116599041Y-117211434D01*
X116705208Y-117292898D01*
X116712288Y-117298331D01*
X116733463Y-117307102D01*
X116844167Y-117352957D01*
X116844169Y-117352958D01*
X116851070Y-117355816D01*
X116858476Y-117356791D01*
X116954350Y-117369413D01*
X117000000Y-117375423D01*
X117045651Y-117369413D01*
X117141524Y-117356791D01*
X117148930Y-117355816D01*
X117155831Y-117352958D01*
X117155833Y-117352957D01*
X117266537Y-117307102D01*
X117287712Y-117298331D01*
X117294793Y-117292898D01*
X117400959Y-117211434D01*
X117406886Y-117206886D01*
X117416824Y-117193934D01*
X117493781Y-117093641D01*
X117493782Y-117093640D01*
X117498331Y-117087711D01*
X117501192Y-117080804D01*
X117552957Y-116955833D01*
X117552958Y-116955831D01*
X117555816Y-116948930D01*
X117575423Y-116800000D01*
X117924577Y-116800000D01*
X117944184Y-116948930D01*
X117947042Y-116955831D01*
X117947043Y-116955833D01*
X117998808Y-117080804D01*
X118001669Y-117087711D01*
X118006218Y-117093640D01*
X118006219Y-117093641D01*
X118083176Y-117193934D01*
X118093114Y-117206886D01*
X118099041Y-117211434D01*
X118205208Y-117292898D01*
X118212288Y-117298331D01*
X118233463Y-117307102D01*
X118344167Y-117352957D01*
X118344169Y-117352958D01*
X118351070Y-117355816D01*
X118358476Y-117356791D01*
X118454350Y-117369413D01*
X118500000Y-117375423D01*
X118545651Y-117369413D01*
X118641524Y-117356791D01*
X118648930Y-117355816D01*
X118655831Y-117352958D01*
X118655833Y-117352957D01*
X118766537Y-117307102D01*
X118787712Y-117298331D01*
X118794793Y-117292898D01*
X118900959Y-117211434D01*
X118906886Y-117206886D01*
X118916824Y-117193934D01*
X118993781Y-117093641D01*
X118993782Y-117093640D01*
X118998331Y-117087711D01*
X119001192Y-117080804D01*
X119052957Y-116955833D01*
X119052958Y-116955831D01*
X119055816Y-116948930D01*
X119075423Y-116800000D01*
X119055816Y-116651070D01*
X119031158Y-116591539D01*
X119001192Y-116519196D01*
X118998331Y-116512289D01*
X118974791Y-116481610D01*
X118911434Y-116399041D01*
X118906886Y-116393114D01*
X118847938Y-116347882D01*
X118793642Y-116306219D01*
X118793641Y-116306218D01*
X118787712Y-116301669D01*
X118743702Y-116283440D01*
X118655833Y-116247043D01*
X118655831Y-116247042D01*
X118648930Y-116244184D01*
X118500000Y-116224577D01*
X118351070Y-116244184D01*
X118344169Y-116247042D01*
X118344167Y-116247043D01*
X118248792Y-116286549D01*
X118212289Y-116301669D01*
X118093114Y-116393114D01*
X118088566Y-116399041D01*
X118025210Y-116481610D01*
X118001669Y-116512289D01*
X117998808Y-116519196D01*
X117968843Y-116591539D01*
X117944184Y-116651070D01*
X117924577Y-116800000D01*
X117575423Y-116800000D01*
X117555816Y-116651070D01*
X117531158Y-116591539D01*
X117501192Y-116519196D01*
X117498331Y-116512289D01*
X117474791Y-116481610D01*
X117411434Y-116399041D01*
X117406886Y-116393114D01*
X117347938Y-116347882D01*
X117293642Y-116306219D01*
X117293641Y-116306218D01*
X117287712Y-116301669D01*
X117243702Y-116283440D01*
X117155833Y-116247043D01*
X117155831Y-116247042D01*
X117148930Y-116244184D01*
X117000000Y-116224577D01*
X116851070Y-116244184D01*
X116844169Y-116247042D01*
X116844167Y-116247043D01*
X116748792Y-116286549D01*
X116712289Y-116301669D01*
X116593114Y-116393114D01*
X116588566Y-116399041D01*
X116525210Y-116481610D01*
X116501669Y-116512289D01*
X116498808Y-116519196D01*
X116468843Y-116591539D01*
X116444184Y-116651070D01*
X116424577Y-116800000D01*
X103670371Y-116800000D01*
X103741013Y-116768390D01*
X103867728Y-116711689D01*
X103873626Y-116709246D01*
X104469976Y-116481608D01*
X104475999Y-116479500D01*
X105084153Y-116285666D01*
X105090299Y-116283895D01*
X105708381Y-116124460D01*
X105714615Y-116123037D01*
X106340658Y-115998511D01*
X106346962Y-115997440D01*
X106816456Y-115931159D01*
X106979003Y-115908212D01*
X106985350Y-115907496D01*
X107621411Y-115853848D01*
X107627791Y-115853490D01*
X108173773Y-115838173D01*
X108235903Y-115836430D01*
X108258893Y-115838116D01*
X108259215Y-115838173D01*
X108259217Y-115838173D01*
X108269035Y-115839904D01*
X108284189Y-115837232D01*
X108303984Y-115835500D01*
X121809898Y-115835500D01*
X121829688Y-115837231D01*
X121844852Y-115839904D01*
X121853981Y-115838294D01*
X121855385Y-115838171D01*
X121856574Y-115838171D01*
X121858931Y-115837861D01*
X121948883Y-115829986D01*
X122008814Y-115824740D01*
X122167794Y-115782135D01*
X122316961Y-115712573D01*
X122451784Y-115618167D01*
X122568167Y-115501784D01*
X122662573Y-115366961D01*
X122732135Y-115217794D01*
X122774740Y-115058814D01*
X122783630Y-114957254D01*
X122784410Y-114952513D01*
X122784914Y-114951250D01*
X122785500Y-114945273D01*
X122785500Y-114940881D01*
X122785934Y-114930937D01*
X122787861Y-114908929D01*
X122788171Y-114906573D01*
X122788171Y-114905385D01*
X122788294Y-114903981D01*
X122789904Y-114894852D01*
X122787231Y-114879688D01*
X122785500Y-114859898D01*
X122785500Y-114714000D01*
X122803597Y-114652367D01*
X122852143Y-114610302D01*
X122899500Y-114600000D01*
X124100500Y-114600000D01*
X124162133Y-114618097D01*
G37*
%TD.AperFunction*%
%TD*%
%TA.AperFunction,Conductor*%
%TO.N,Net-(C1-Pad1)*%
G36*
X113582943Y-117476410D02*
G01*
X113591170Y-117479948D01*
X113594482Y-117488396D01*
X113589562Y-117688787D01*
X113589552Y-117689072D01*
X113580740Y-117869184D01*
X113580722Y-117869477D01*
X113569222Y-118024662D01*
X113569203Y-118024890D01*
X113555907Y-118162463D01*
X113541737Y-118289398D01*
X113527615Y-118412701D01*
X113514458Y-118539463D01*
X113503180Y-118676777D01*
X113494696Y-118831734D01*
X113494694Y-118831808D01*
X113494694Y-118831809D01*
X113490145Y-119003075D01*
X113486500Y-119011254D01*
X113481952Y-119013927D01*
X112415422Y-119348586D01*
X112406502Y-119347794D01*
X112400756Y-119340926D01*
X112400395Y-119339442D01*
X112342896Y-119011254D01*
X112213688Y-118273782D01*
X112215635Y-118265042D01*
X112219643Y-118261473D01*
X112330775Y-118201326D01*
X112331225Y-118201096D01*
X112445022Y-118145720D01*
X112445104Y-118145680D01*
X112469657Y-118133969D01*
X112552679Y-118094370D01*
X112552754Y-118094331D01*
X112651838Y-118042763D01*
X112651843Y-118042760D01*
X112652043Y-118042656D01*
X112741368Y-117985983D01*
X112818867Y-117919780D01*
X112882750Y-117839475D01*
X112931230Y-117740498D01*
X112944427Y-117688949D01*
X112962396Y-117618755D01*
X112962396Y-117618753D01*
X112962519Y-117618274D01*
X112973937Y-117479124D01*
X112978029Y-117471159D01*
X112985755Y-117468382D01*
X113582943Y-117476410D01*
G37*
%TD.AperFunction*%
%TD*%
%TA.AperFunction,Conductor*%
%TO.N,/UART1_RXD*%
G36*
X131261021Y-117228262D02*
G01*
X131498967Y-117399542D01*
X131499018Y-117399576D01*
X131499020Y-117399578D01*
X131711811Y-117543940D01*
X131711833Y-117543954D01*
X131711918Y-117544012D01*
X131712002Y-117544065D01*
X131712023Y-117544078D01*
X131784568Y-117589283D01*
X131899323Y-117660791D01*
X132000213Y-117716920D01*
X132069870Y-117755673D01*
X132069883Y-117755680D01*
X132070029Y-117755761D01*
X132070175Y-117755832D01*
X132070181Y-117755835D01*
X132077388Y-117759333D01*
X132232881Y-117834806D01*
X132396726Y-117903810D01*
X132396816Y-117903843D01*
X132396822Y-117903846D01*
X132445387Y-117921978D01*
X132570409Y-117968656D01*
X132762776Y-118035226D01*
X132982674Y-118109405D01*
X133231199Y-118194425D01*
X133237917Y-118200344D01*
X133239109Y-118205265D01*
X133260282Y-119288355D01*
X133257017Y-119296694D01*
X133248355Y-119300282D01*
X132165423Y-119279112D01*
X132157219Y-119275524D01*
X132154516Y-119271002D01*
X132075720Y-119026409D01*
X132075597Y-119026002D01*
X132012215Y-118801653D01*
X132012174Y-118801506D01*
X131958046Y-118599930D01*
X131958035Y-118599889D01*
X131904581Y-118416174D01*
X131843194Y-118245329D01*
X131843068Y-118245065D01*
X131765408Y-118082621D01*
X131765406Y-118082617D01*
X131765248Y-118082287D01*
X131662115Y-117921978D01*
X131525169Y-117759333D01*
X131345781Y-117589283D01*
X131288705Y-117544078D01*
X131124177Y-117413770D01*
X131119819Y-117405947D01*
X131122017Y-117397665D01*
X131244762Y-117230825D01*
X131252425Y-117226191D01*
X131261021Y-117228262D01*
G37*
%TD.AperFunction*%
%TD*%
%TA.AperFunction,Conductor*%
%TO.N,/UART1_RXD*%
G36*
X131261021Y-117228262D02*
G01*
X131498967Y-117399542D01*
X131499018Y-117399576D01*
X131499020Y-117399578D01*
X131711811Y-117543940D01*
X131711833Y-117543954D01*
X131711918Y-117544012D01*
X131712002Y-117544065D01*
X131712023Y-117544078D01*
X131784568Y-117589283D01*
X131899323Y-117660791D01*
X132000213Y-117716920D01*
X132069870Y-117755673D01*
X132069883Y-117755680D01*
X132070029Y-117755761D01*
X132070175Y-117755832D01*
X132070181Y-117755835D01*
X132077388Y-117759333D01*
X132232881Y-117834806D01*
X132396726Y-117903810D01*
X132396816Y-117903843D01*
X132396822Y-117903846D01*
X132445387Y-117921978D01*
X132570409Y-117968656D01*
X132762776Y-118035226D01*
X132982674Y-118109405D01*
X133231199Y-118194425D01*
X133237917Y-118200344D01*
X133239109Y-118205265D01*
X133260282Y-119288355D01*
X133257017Y-119296694D01*
X133248355Y-119300282D01*
X132165423Y-119279112D01*
X132157219Y-119275524D01*
X132154516Y-119271002D01*
X132075720Y-119026409D01*
X132075597Y-119026002D01*
X132012215Y-118801653D01*
X132012174Y-118801506D01*
X131958046Y-118599930D01*
X131958035Y-118599889D01*
X131904581Y-118416174D01*
X131843194Y-118245329D01*
X131843068Y-118245065D01*
X131765408Y-118082621D01*
X131765406Y-118082617D01*
X131765248Y-118082287D01*
X131662115Y-117921978D01*
X131525169Y-117759333D01*
X131345781Y-117589283D01*
X131288705Y-117544078D01*
X131124177Y-117413770D01*
X131119819Y-117405947D01*
X131122017Y-117397665D01*
X131244762Y-117230825D01*
X131252425Y-117226191D01*
X131261021Y-117228262D01*
G37*
%TD.AperFunction*%
%TD*%
%TA.AperFunction,Conductor*%
%TO.N,/I2C4_SCL*%
G36*
X134543579Y-87413153D02*
G01*
X134617684Y-87455889D01*
X134617698Y-87455896D01*
X134617862Y-87455991D01*
X134691448Y-87492144D01*
X134691662Y-87492229D01*
X134756837Y-87518168D01*
X134756849Y-87518172D01*
X134757052Y-87518253D01*
X134817247Y-87536643D01*
X134817427Y-87536684D01*
X134817439Y-87536687D01*
X134844231Y-87542757D01*
X134874607Y-87549640D01*
X134874754Y-87549666D01*
X134874766Y-87549668D01*
X134900166Y-87554085D01*
X134931704Y-87559569D01*
X134991088Y-87568753D01*
X134991233Y-87568777D01*
X135055177Y-87579489D01*
X135055589Y-87579565D01*
X135097531Y-87588145D01*
X135126895Y-87594152D01*
X135127419Y-87594273D01*
X135158219Y-87602150D01*
X135200811Y-87613043D01*
X135207977Y-87618413D01*
X135209576Y-87623465D01*
X135248508Y-88120770D01*
X135245738Y-88129285D01*
X135237302Y-88133374D01*
X134738941Y-88152836D01*
X134730540Y-88149735D01*
X134727525Y-88145241D01*
X134703645Y-88081351D01*
X134703418Y-88080683D01*
X134683400Y-88015367D01*
X134683291Y-88014990D01*
X134667004Y-87954687D01*
X134651613Y-87898788D01*
X134651610Y-87898779D01*
X134651572Y-87898640D01*
X134651528Y-87898506D01*
X134651522Y-87898488D01*
X134634197Y-87846381D01*
X134634195Y-87846377D01*
X134634103Y-87846099D01*
X134611658Y-87796133D01*
X134581294Y-87747812D01*
X134540073Y-87700206D01*
X134485052Y-87652385D01*
X134484771Y-87652193D01*
X134422507Y-87609706D01*
X134417605Y-87602213D01*
X134419134Y-87593916D01*
X134527766Y-87417162D01*
X134535018Y-87411908D01*
X134543579Y-87413153D01*
G37*
%TD.AperFunction*%
%TD*%
%TA.AperFunction,Conductor*%
%TO.N,/I2C4_SDA*%
G36*
X135307503Y-90014974D02*
G01*
X135363171Y-90031633D01*
X135363827Y-90031851D01*
X135422617Y-90053301D01*
X135422857Y-90053391D01*
X135478059Y-90074914D01*
X135478082Y-90074923D01*
X135478096Y-90074928D01*
X135530450Y-90093980D01*
X135580765Y-90108031D01*
X135581163Y-90108084D01*
X135581167Y-90108085D01*
X135629403Y-90114526D01*
X135629404Y-90114526D01*
X135629988Y-90114604D01*
X135664241Y-90112244D01*
X135678369Y-90111271D01*
X135678370Y-90111271D01*
X135679064Y-90111223D01*
X135728938Y-90095410D01*
X135731341Y-90093980D01*
X135780085Y-90064970D01*
X135780087Y-90064969D01*
X135780555Y-90064690D01*
X135793311Y-90053391D01*
X135826737Y-90023782D01*
X135835202Y-90020861D01*
X135842647Y-90024147D01*
X135991414Y-90168633D01*
X135994961Y-90176855D01*
X135991613Y-90185221D01*
X135930607Y-90247388D01*
X135930513Y-90247483D01*
X135871177Y-90306584D01*
X135871078Y-90306680D01*
X135819450Y-90356903D01*
X135819438Y-90356915D01*
X135773206Y-90400946D01*
X135730239Y-90441301D01*
X135688325Y-90480571D01*
X135645251Y-90521351D01*
X135598804Y-90566234D01*
X135598762Y-90566276D01*
X135546772Y-90617813D01*
X135492881Y-90672640D01*
X135484638Y-90676138D01*
X135479349Y-90674925D01*
X135016123Y-90445737D01*
X135010227Y-90438996D01*
X135010824Y-90430062D01*
X135011687Y-90428596D01*
X135095983Y-90306680D01*
X135228842Y-90114526D01*
X135294525Y-90019529D01*
X135302049Y-90014673D01*
X135307503Y-90014974D01*
G37*
%TD.AperFunction*%
%TD*%
%TA.AperFunction,Conductor*%
%TO.N,GND*%
G36*
X132661820Y-87285678D02*
G01*
X132685788Y-87289904D01*
X132704004Y-87286692D01*
X132706603Y-87286528D01*
X132991885Y-87300542D01*
X132993028Y-87300655D01*
X133190017Y-87329875D01*
X133197698Y-87334478D01*
X133200000Y-87341448D01*
X133200000Y-87900000D01*
X133200964Y-87900000D01*
X133202063Y-87902652D01*
X133202064Y-87911607D01*
X133201833Y-87912076D01*
X133201669Y-87912289D01*
X133181175Y-87961767D01*
X133180231Y-87963581D01*
X133166165Y-87985631D01*
X133165956Y-87986168D01*
X133145468Y-88038766D01*
X133141770Y-88048259D01*
X133139921Y-88053227D01*
X133139682Y-88053900D01*
X133137951Y-88059023D01*
X133117244Y-88123573D01*
X133116296Y-88126623D01*
X133116188Y-88126982D01*
X133115468Y-88129441D01*
X133098600Y-88188630D01*
X133095053Y-88200760D01*
X133083970Y-88238655D01*
X133083772Y-88239266D01*
X133080173Y-88249434D01*
X133070464Y-88276862D01*
X133069992Y-88278002D01*
X133056770Y-88305612D01*
X133055928Y-88307082D01*
X133040603Y-88329828D01*
X133039426Y-88331303D01*
X133017013Y-88355152D01*
X133015719Y-88356337D01*
X132979557Y-88384772D01*
X132978370Y-88385592D01*
X132924601Y-88418034D01*
X132924199Y-88418391D01*
X132924198Y-88418392D01*
X132920006Y-88422118D01*
X132917893Y-88423613D01*
X132830417Y-88471960D01*
X132829234Y-88472529D01*
X132577057Y-88576985D01*
X132575819Y-88577419D01*
X132473540Y-88606886D01*
X132342977Y-88644502D01*
X132313515Y-88652990D01*
X132312237Y-88653282D01*
X132043123Y-88699008D01*
X132041824Y-88699155D01*
X131922538Y-88705855D01*
X131788920Y-88713360D01*
X131786232Y-88713200D01*
X131769637Y-88710274D01*
X131768627Y-88710096D01*
X131767618Y-88710274D01*
X131744661Y-88714322D01*
X131742629Y-88714500D01*
X126188675Y-88714500D01*
X126186688Y-88714330D01*
X126180130Y-88713200D01*
X126162125Y-88710098D01*
X126158978Y-88710666D01*
X126158972Y-88710667D01*
X126157765Y-88710821D01*
X125940060Y-88727075D01*
X125722538Y-88774748D01*
X125722147Y-88774894D01*
X125722143Y-88774895D01*
X125599050Y-88820803D01*
X125513891Y-88852563D01*
X125494118Y-88863319D01*
X125318640Y-88958773D01*
X125318635Y-88958776D01*
X125318275Y-88958972D01*
X125317948Y-88959215D01*
X125317942Y-88959219D01*
X125275591Y-88990714D01*
X125139584Y-89091856D01*
X124981377Y-89248568D01*
X124846802Y-89425989D01*
X124846598Y-89426356D01*
X124740605Y-89616877D01*
X124739959Y-89617907D01*
X124738194Y-89620424D01*
X124737929Y-89621411D01*
X124732450Y-89641797D01*
X124731677Y-89643868D01*
X124426837Y-90272022D01*
X124425790Y-90273772D01*
X124422383Y-90278481D01*
X124411525Y-90293489D01*
X124411245Y-90294474D01*
X124408838Y-90302931D01*
X124408383Y-90304234D01*
X124401230Y-90321376D01*
X124325420Y-90503044D01*
X124325330Y-90503353D01*
X124325330Y-90503354D01*
X124270710Y-90691619D01*
X124262314Y-90720557D01*
X124262260Y-90720875D01*
X124262258Y-90720882D01*
X124242219Y-90838030D01*
X124224126Y-90943796D01*
X124224108Y-90944120D01*
X124224107Y-90944126D01*
X124211972Y-91158807D01*
X124211813Y-91160178D01*
X124210096Y-91169918D01*
X124211926Y-91180295D01*
X124214322Y-91193884D01*
X124214500Y-91195916D01*
X124214500Y-114700000D01*
X122785500Y-114700000D01*
X122785500Y-114426736D01*
X122953500Y-114426736D01*
X122981059Y-114454295D01*
X123102682Y-114332672D01*
X123340269Y-114332672D01*
X123461892Y-114454295D01*
X123583515Y-114332672D01*
X123821102Y-114332672D01*
X123942725Y-114454295D01*
X124046500Y-114350519D01*
X124046500Y-114314825D01*
X123942725Y-114211050D01*
X123821102Y-114332672D01*
X123583515Y-114332672D01*
X123461892Y-114211050D01*
X123340269Y-114332672D01*
X123102682Y-114332672D01*
X122981059Y-114211050D01*
X122953500Y-114238609D01*
X122953500Y-114426736D01*
X122785500Y-114426736D01*
X122785500Y-114092256D01*
X123099853Y-114092256D01*
X123221476Y-114213879D01*
X123343098Y-114092256D01*
X123580686Y-114092256D01*
X123702308Y-114213879D01*
X123823931Y-114092256D01*
X123702308Y-113970633D01*
X123580686Y-114092256D01*
X123343098Y-114092256D01*
X123221476Y-113970633D01*
X123099853Y-114092256D01*
X122785500Y-114092256D01*
X122785500Y-113945904D01*
X122953500Y-113945904D01*
X122981059Y-113973463D01*
X123102682Y-113851840D01*
X123340269Y-113851840D01*
X123461892Y-113973463D01*
X123583515Y-113851840D01*
X123821102Y-113851840D01*
X123942725Y-113973463D01*
X124046500Y-113869687D01*
X124046500Y-113833993D01*
X123942725Y-113730217D01*
X123821102Y-113851840D01*
X123583515Y-113851840D01*
X123461892Y-113730217D01*
X123340269Y-113851840D01*
X123102682Y-113851840D01*
X122981059Y-113730217D01*
X122953500Y-113757776D01*
X122953500Y-113945904D01*
X122785500Y-113945904D01*
X122785500Y-113611424D01*
X123099853Y-113611424D01*
X123221476Y-113733046D01*
X123343098Y-113611424D01*
X123580686Y-113611424D01*
X123702308Y-113733046D01*
X123823931Y-113611424D01*
X123702308Y-113489801D01*
X123580686Y-113611424D01*
X123343098Y-113611424D01*
X123221476Y-113489801D01*
X123099853Y-113611424D01*
X122785500Y-113611424D01*
X122785500Y-113465071D01*
X122953500Y-113465071D01*
X122981059Y-113492630D01*
X123102682Y-113371007D01*
X123340269Y-113371007D01*
X123461892Y-113492630D01*
X123583515Y-113371007D01*
X123821102Y-113371007D01*
X123942725Y-113492630D01*
X124046500Y-113388854D01*
X124046500Y-113353160D01*
X123942725Y-113249385D01*
X123821102Y-113371007D01*
X123583515Y-113371007D01*
X123461892Y-113249385D01*
X123340269Y-113371007D01*
X123102682Y-113371007D01*
X122981059Y-113249385D01*
X122953500Y-113276944D01*
X122953500Y-113465071D01*
X122785500Y-113465071D01*
X122785500Y-113130591D01*
X123099853Y-113130591D01*
X123221476Y-113252214D01*
X123343098Y-113130591D01*
X123580686Y-113130591D01*
X123702308Y-113252214D01*
X123823931Y-113130591D01*
X123702308Y-113008968D01*
X123580686Y-113130591D01*
X123343098Y-113130591D01*
X123221476Y-113008968D01*
X123099853Y-113130591D01*
X122785500Y-113130591D01*
X122785500Y-112984238D01*
X122953500Y-112984238D01*
X122981059Y-113011797D01*
X123102682Y-112890175D01*
X123340269Y-112890175D01*
X123461892Y-113011797D01*
X123583515Y-112890175D01*
X123821102Y-112890175D01*
X123942725Y-113011797D01*
X124046500Y-112908022D01*
X124046500Y-112872328D01*
X123942725Y-112768552D01*
X123821102Y-112890175D01*
X123583515Y-112890175D01*
X123461892Y-112768552D01*
X123340269Y-112890175D01*
X123102682Y-112890175D01*
X122981059Y-112768552D01*
X122953500Y-112796111D01*
X122953500Y-112984238D01*
X122785500Y-112984238D01*
X122785500Y-112649758D01*
X123099853Y-112649758D01*
X123221476Y-112771381D01*
X123343098Y-112649758D01*
X123580686Y-112649758D01*
X123702308Y-112771381D01*
X123823931Y-112649758D01*
X123702308Y-112528136D01*
X123580686Y-112649758D01*
X123343098Y-112649758D01*
X123221476Y-112528136D01*
X123099853Y-112649758D01*
X122785500Y-112649758D01*
X122785500Y-112503406D01*
X122953500Y-112503406D01*
X122981059Y-112530965D01*
X123102682Y-112409342D01*
X123340269Y-112409342D01*
X123461892Y-112530965D01*
X123583515Y-112409342D01*
X123821102Y-112409342D01*
X123942725Y-112530965D01*
X124046500Y-112427189D01*
X124046500Y-112391495D01*
X123942725Y-112287719D01*
X123821102Y-112409342D01*
X123583515Y-112409342D01*
X123461892Y-112287719D01*
X123340269Y-112409342D01*
X123102682Y-112409342D01*
X122981059Y-112287719D01*
X122953500Y-112315278D01*
X122953500Y-112503406D01*
X122785500Y-112503406D01*
X122785500Y-112168926D01*
X123099853Y-112168926D01*
X123221476Y-112290548D01*
X123343098Y-112168926D01*
X123580686Y-112168926D01*
X123702308Y-112290548D01*
X123823931Y-112168926D01*
X123702308Y-112047303D01*
X123580686Y-112168926D01*
X123343098Y-112168926D01*
X123221476Y-112047303D01*
X123099853Y-112168926D01*
X122785500Y-112168926D01*
X122785500Y-112022573D01*
X122953500Y-112022573D01*
X122981059Y-112050132D01*
X123102682Y-111928509D01*
X123340269Y-111928509D01*
X123461892Y-112050132D01*
X123583515Y-111928509D01*
X123821102Y-111928509D01*
X123942725Y-112050132D01*
X124046500Y-111946356D01*
X124046500Y-111910662D01*
X123942725Y-111806887D01*
X123821102Y-111928509D01*
X123583515Y-111928509D01*
X123461892Y-111806887D01*
X123340269Y-111928509D01*
X123102682Y-111928509D01*
X122981059Y-111806887D01*
X122953500Y-111834446D01*
X122953500Y-112022573D01*
X122785500Y-112022573D01*
X122785500Y-111688093D01*
X123099853Y-111688093D01*
X123221476Y-111809716D01*
X123343098Y-111688093D01*
X123580686Y-111688093D01*
X123702308Y-111809716D01*
X123823931Y-111688093D01*
X123702308Y-111566470D01*
X123580686Y-111688093D01*
X123343098Y-111688093D01*
X123221476Y-111566470D01*
X123099853Y-111688093D01*
X122785500Y-111688093D01*
X122785500Y-111541740D01*
X122953500Y-111541740D01*
X122981059Y-111569299D01*
X123102682Y-111447677D01*
X123340269Y-111447677D01*
X123461892Y-111569299D01*
X123583515Y-111447677D01*
X123821102Y-111447677D01*
X123942725Y-111569299D01*
X124046500Y-111465524D01*
X124046500Y-111429830D01*
X123942725Y-111326054D01*
X123821102Y-111447677D01*
X123583515Y-111447677D01*
X123461892Y-111326054D01*
X123340269Y-111447677D01*
X123102682Y-111447677D01*
X122981059Y-111326054D01*
X122953500Y-111353613D01*
X122953500Y-111541740D01*
X122785500Y-111541740D01*
X122785500Y-111207260D01*
X123099853Y-111207260D01*
X123221476Y-111328883D01*
X123343098Y-111207260D01*
X123580686Y-111207260D01*
X123702308Y-111328883D01*
X123823931Y-111207260D01*
X123702308Y-111085638D01*
X123580686Y-111207260D01*
X123343098Y-111207260D01*
X123221476Y-111085638D01*
X123099853Y-111207260D01*
X122785500Y-111207260D01*
X122785500Y-111060908D01*
X122953500Y-111060908D01*
X122981059Y-111088467D01*
X123102682Y-110966844D01*
X123340269Y-110966844D01*
X123461892Y-111088467D01*
X123583515Y-110966844D01*
X123821102Y-110966844D01*
X123942725Y-111088467D01*
X124046500Y-110984691D01*
X124046500Y-110948997D01*
X123942725Y-110845222D01*
X123821102Y-110966844D01*
X123583515Y-110966844D01*
X123461892Y-110845222D01*
X123340269Y-110966844D01*
X123102682Y-110966844D01*
X122981059Y-110845222D01*
X122953500Y-110872781D01*
X122953500Y-111060908D01*
X122785500Y-111060908D01*
X122785500Y-110726428D01*
X123099853Y-110726428D01*
X123221476Y-110848051D01*
X123343098Y-110726428D01*
X123580686Y-110726428D01*
X123702308Y-110848051D01*
X123823931Y-110726428D01*
X123702308Y-110604805D01*
X123580686Y-110726428D01*
X123343098Y-110726428D01*
X123221476Y-110604805D01*
X123099853Y-110726428D01*
X122785500Y-110726428D01*
X122785500Y-110580075D01*
X122953500Y-110580075D01*
X122981059Y-110607634D01*
X123102682Y-110486012D01*
X123340269Y-110486012D01*
X123461892Y-110607634D01*
X123583515Y-110486012D01*
X123821102Y-110486012D01*
X123942725Y-110607634D01*
X124046500Y-110503859D01*
X124046500Y-110468165D01*
X123942725Y-110364389D01*
X123821102Y-110486012D01*
X123583515Y-110486012D01*
X123461892Y-110364389D01*
X123340269Y-110486012D01*
X123102682Y-110486012D01*
X122981059Y-110364389D01*
X122953500Y-110391948D01*
X122953500Y-110580075D01*
X122785500Y-110580075D01*
X122785500Y-110245595D01*
X123099853Y-110245595D01*
X123221476Y-110367218D01*
X123343098Y-110245595D01*
X123580686Y-110245595D01*
X123702308Y-110367218D01*
X123823931Y-110245595D01*
X123702308Y-110123973D01*
X123580686Y-110245595D01*
X123343098Y-110245595D01*
X123221476Y-110123973D01*
X123099853Y-110245595D01*
X122785500Y-110245595D01*
X122785500Y-110099243D01*
X122953500Y-110099243D01*
X122981059Y-110126802D01*
X123102682Y-110005179D01*
X123340269Y-110005179D01*
X123461892Y-110126802D01*
X123583515Y-110005179D01*
X123821102Y-110005179D01*
X123942725Y-110126802D01*
X124046500Y-110023026D01*
X124046500Y-109987332D01*
X123942725Y-109883556D01*
X123821102Y-110005179D01*
X123583515Y-110005179D01*
X123461892Y-109883556D01*
X123340269Y-110005179D01*
X123102682Y-110005179D01*
X122981059Y-109883556D01*
X122953500Y-109911115D01*
X122953500Y-110099243D01*
X122785500Y-110099243D01*
X122785500Y-109764763D01*
X123099853Y-109764763D01*
X123221476Y-109886385D01*
X123343098Y-109764763D01*
X123580686Y-109764763D01*
X123702308Y-109886385D01*
X123823931Y-109764763D01*
X123702308Y-109643140D01*
X123580686Y-109764763D01*
X123343098Y-109764763D01*
X123221476Y-109643140D01*
X123099853Y-109764763D01*
X122785500Y-109764763D01*
X122785500Y-109618410D01*
X122953500Y-109618410D01*
X122981059Y-109645969D01*
X123102682Y-109524346D01*
X123340269Y-109524346D01*
X123461892Y-109645969D01*
X123583515Y-109524346D01*
X123821102Y-109524346D01*
X123942725Y-109645969D01*
X124046500Y-109542193D01*
X124046500Y-109506499D01*
X123942725Y-109402724D01*
X123821102Y-109524346D01*
X123583515Y-109524346D01*
X123461892Y-109402724D01*
X123340269Y-109524346D01*
X123102682Y-109524346D01*
X122981059Y-109402724D01*
X122953500Y-109430283D01*
X122953500Y-109618410D01*
X122785500Y-109618410D01*
X122785500Y-109283930D01*
X123099853Y-109283930D01*
X123221476Y-109405553D01*
X123343098Y-109283930D01*
X123580686Y-109283930D01*
X123702308Y-109405553D01*
X123823931Y-109283930D01*
X123702308Y-109162307D01*
X123580686Y-109283930D01*
X123343098Y-109283930D01*
X123221476Y-109162307D01*
X123099853Y-109283930D01*
X122785500Y-109283930D01*
X122785500Y-109137577D01*
X122953500Y-109137577D01*
X122981059Y-109165136D01*
X123102682Y-109043514D01*
X123340269Y-109043514D01*
X123461892Y-109165136D01*
X123583515Y-109043514D01*
X123821102Y-109043514D01*
X123942725Y-109165136D01*
X124046500Y-109061361D01*
X124046500Y-109025667D01*
X123942725Y-108921891D01*
X123821102Y-109043514D01*
X123583515Y-109043514D01*
X123461892Y-108921891D01*
X123340269Y-109043514D01*
X123102682Y-109043514D01*
X122981059Y-108921891D01*
X122953500Y-108949450D01*
X122953500Y-109137577D01*
X122785500Y-109137577D01*
X122785500Y-108803097D01*
X123099853Y-108803097D01*
X123221476Y-108924720D01*
X123343098Y-108803097D01*
X123580686Y-108803097D01*
X123702308Y-108924720D01*
X123823931Y-108803097D01*
X123702308Y-108681475D01*
X123580686Y-108803097D01*
X123343098Y-108803097D01*
X123221476Y-108681475D01*
X123099853Y-108803097D01*
X122785500Y-108803097D01*
X122785500Y-108656745D01*
X122953500Y-108656745D01*
X122981059Y-108684304D01*
X123102682Y-108562681D01*
X123340269Y-108562681D01*
X123461892Y-108684304D01*
X123583515Y-108562681D01*
X123821102Y-108562681D01*
X123942725Y-108684304D01*
X124046500Y-108580528D01*
X124046500Y-108544834D01*
X123942725Y-108441058D01*
X123821102Y-108562681D01*
X123583515Y-108562681D01*
X123461892Y-108441058D01*
X123340269Y-108562681D01*
X123102682Y-108562681D01*
X122981059Y-108441058D01*
X122953500Y-108468617D01*
X122953500Y-108656745D01*
X122785500Y-108656745D01*
X122785500Y-108322265D01*
X123099853Y-108322265D01*
X123221476Y-108443887D01*
X123343098Y-108322265D01*
X123580686Y-108322265D01*
X123702308Y-108443887D01*
X123823931Y-108322265D01*
X123702308Y-108200642D01*
X123580686Y-108322265D01*
X123343098Y-108322265D01*
X123221476Y-108200642D01*
X123099853Y-108322265D01*
X122785500Y-108322265D01*
X122785500Y-108175912D01*
X122953500Y-108175912D01*
X122981059Y-108203471D01*
X123102682Y-108081849D01*
X123340269Y-108081849D01*
X123461892Y-108203471D01*
X123583515Y-108081849D01*
X123821102Y-108081849D01*
X123942725Y-108203471D01*
X124046500Y-108099696D01*
X124046500Y-108064002D01*
X123942725Y-107960226D01*
X123821102Y-108081849D01*
X123583515Y-108081849D01*
X123461892Y-107960226D01*
X123340269Y-108081849D01*
X123102682Y-108081849D01*
X122981059Y-107960226D01*
X122953500Y-107987785D01*
X122953500Y-108175912D01*
X122785500Y-108175912D01*
X122785500Y-107841432D01*
X123099853Y-107841432D01*
X123221476Y-107963055D01*
X123343098Y-107841432D01*
X123580686Y-107841432D01*
X123702308Y-107963055D01*
X123823931Y-107841432D01*
X123702308Y-107719810D01*
X123580686Y-107841432D01*
X123343098Y-107841432D01*
X123221476Y-107719810D01*
X123099853Y-107841432D01*
X122785500Y-107841432D01*
X122785500Y-107695080D01*
X122953500Y-107695080D01*
X122981059Y-107722639D01*
X123102682Y-107601016D01*
X123340269Y-107601016D01*
X123461892Y-107722639D01*
X123583515Y-107601016D01*
X123821102Y-107601016D01*
X123942725Y-107722639D01*
X124046500Y-107618863D01*
X124046500Y-107583169D01*
X123942725Y-107479393D01*
X123821102Y-107601016D01*
X123583515Y-107601016D01*
X123461892Y-107479393D01*
X123340269Y-107601016D01*
X123102682Y-107601016D01*
X122981059Y-107479393D01*
X122953500Y-107506952D01*
X122953500Y-107695080D01*
X122785500Y-107695080D01*
X122785500Y-107360600D01*
X123099853Y-107360600D01*
X123221476Y-107482222D01*
X123343098Y-107360600D01*
X123580686Y-107360600D01*
X123702308Y-107482222D01*
X123823931Y-107360600D01*
X123702308Y-107238977D01*
X123580686Y-107360600D01*
X123343098Y-107360600D01*
X123221476Y-107238977D01*
X123099853Y-107360600D01*
X122785500Y-107360600D01*
X122785500Y-107214247D01*
X122953500Y-107214247D01*
X122981059Y-107241806D01*
X123102682Y-107120183D01*
X123340269Y-107120183D01*
X123461892Y-107241806D01*
X123583515Y-107120183D01*
X123821102Y-107120183D01*
X123942725Y-107241806D01*
X124046500Y-107138030D01*
X124046500Y-107102336D01*
X123942725Y-106998561D01*
X123821102Y-107120183D01*
X123583515Y-107120183D01*
X123461892Y-106998561D01*
X123340269Y-107120183D01*
X123102682Y-107120183D01*
X122981059Y-106998561D01*
X122953500Y-107026120D01*
X122953500Y-107214247D01*
X122785500Y-107214247D01*
X122785500Y-106879767D01*
X123099853Y-106879767D01*
X123221476Y-107001390D01*
X123343098Y-106879767D01*
X123580686Y-106879767D01*
X123702308Y-107001390D01*
X123823931Y-106879767D01*
X123702308Y-106758144D01*
X123580686Y-106879767D01*
X123343098Y-106879767D01*
X123221476Y-106758144D01*
X123099853Y-106879767D01*
X122785500Y-106879767D01*
X122785500Y-106733414D01*
X122953500Y-106733414D01*
X122981059Y-106760973D01*
X123102682Y-106639351D01*
X123340269Y-106639351D01*
X123461892Y-106760973D01*
X123583515Y-106639351D01*
X123821102Y-106639351D01*
X123942725Y-106760973D01*
X124046500Y-106657198D01*
X124046500Y-106621504D01*
X123942725Y-106517728D01*
X123821102Y-106639351D01*
X123583515Y-106639351D01*
X123461892Y-106517728D01*
X123340269Y-106639351D01*
X123102682Y-106639351D01*
X122981059Y-106517728D01*
X122953500Y-106545287D01*
X122953500Y-106733414D01*
X122785500Y-106733414D01*
X122785500Y-106398934D01*
X123099853Y-106398934D01*
X123221476Y-106520557D01*
X123343098Y-106398934D01*
X123580686Y-106398934D01*
X123702308Y-106520557D01*
X123823931Y-106398934D01*
X123702308Y-106277312D01*
X123580686Y-106398934D01*
X123343098Y-106398934D01*
X123221476Y-106277312D01*
X123099853Y-106398934D01*
X122785500Y-106398934D01*
X122785500Y-106252582D01*
X122953500Y-106252582D01*
X122981059Y-106280141D01*
X123102682Y-106158518D01*
X123340269Y-106158518D01*
X123461892Y-106280141D01*
X123583515Y-106158518D01*
X123821102Y-106158518D01*
X123942725Y-106280141D01*
X124046500Y-106176365D01*
X124046500Y-106140671D01*
X123942725Y-106036895D01*
X123821102Y-106158518D01*
X123583515Y-106158518D01*
X123461892Y-106036895D01*
X123340269Y-106158518D01*
X123102682Y-106158518D01*
X122981059Y-106036895D01*
X122953500Y-106064454D01*
X122953500Y-106252582D01*
X122785500Y-106252582D01*
X122785500Y-105918102D01*
X123099853Y-105918102D01*
X123221476Y-106039724D01*
X123343098Y-105918102D01*
X123580686Y-105918102D01*
X123702308Y-106039724D01*
X123823931Y-105918102D01*
X123702308Y-105796479D01*
X123580686Y-105918102D01*
X123343098Y-105918102D01*
X123221476Y-105796479D01*
X123099853Y-105918102D01*
X122785500Y-105918102D01*
X122785500Y-105771749D01*
X122953500Y-105771749D01*
X122981059Y-105799308D01*
X123102682Y-105677685D01*
X123340269Y-105677685D01*
X123461892Y-105799308D01*
X123583515Y-105677685D01*
X123821102Y-105677685D01*
X123942725Y-105799308D01*
X124046500Y-105695532D01*
X124046500Y-105659838D01*
X123942725Y-105556063D01*
X123821102Y-105677685D01*
X123583515Y-105677685D01*
X123461892Y-105556063D01*
X123340269Y-105677685D01*
X123102682Y-105677685D01*
X122981059Y-105556063D01*
X122953500Y-105583622D01*
X122953500Y-105771749D01*
X122785500Y-105771749D01*
X122785500Y-105437269D01*
X123099853Y-105437269D01*
X123221476Y-105558892D01*
X123343098Y-105437269D01*
X123580686Y-105437269D01*
X123702308Y-105558892D01*
X123823931Y-105437269D01*
X123702308Y-105315646D01*
X123580686Y-105437269D01*
X123343098Y-105437269D01*
X123221476Y-105315646D01*
X123099853Y-105437269D01*
X122785500Y-105437269D01*
X122785500Y-105290917D01*
X122953500Y-105290917D01*
X122981059Y-105318476D01*
X123102682Y-105196853D01*
X123340269Y-105196853D01*
X123461892Y-105318476D01*
X123583515Y-105196853D01*
X123821102Y-105196853D01*
X123942725Y-105318476D01*
X124046500Y-105214700D01*
X124046500Y-105179006D01*
X123942725Y-105075230D01*
X123821102Y-105196853D01*
X123583515Y-105196853D01*
X123461892Y-105075230D01*
X123340269Y-105196853D01*
X123102682Y-105196853D01*
X122981059Y-105075230D01*
X122953500Y-105102789D01*
X122953500Y-105290917D01*
X122785500Y-105290917D01*
X122785500Y-104956437D01*
X123099853Y-104956437D01*
X123221476Y-105078059D01*
X123343098Y-104956437D01*
X123580686Y-104956437D01*
X123702308Y-105078059D01*
X123823931Y-104956437D01*
X123702308Y-104834814D01*
X123580686Y-104956437D01*
X123343098Y-104956437D01*
X123221476Y-104834814D01*
X123099853Y-104956437D01*
X122785500Y-104956437D01*
X122785500Y-104810084D01*
X122953500Y-104810084D01*
X122981059Y-104837643D01*
X123102682Y-104716020D01*
X123340269Y-104716020D01*
X123461892Y-104837643D01*
X123583515Y-104716020D01*
X123821102Y-104716020D01*
X123942725Y-104837643D01*
X124046500Y-104733867D01*
X124046500Y-104698173D01*
X123942725Y-104594398D01*
X123821102Y-104716020D01*
X123583515Y-104716020D01*
X123461892Y-104594398D01*
X123340269Y-104716020D01*
X123102682Y-104716020D01*
X122981059Y-104594398D01*
X122953500Y-104621957D01*
X122953500Y-104810084D01*
X122785500Y-104810084D01*
X122785500Y-104475604D01*
X123099853Y-104475604D01*
X123221476Y-104597227D01*
X123343098Y-104475604D01*
X123580686Y-104475604D01*
X123702308Y-104597227D01*
X123823931Y-104475604D01*
X123702308Y-104353981D01*
X123580686Y-104475604D01*
X123343098Y-104475604D01*
X123221476Y-104353981D01*
X123099853Y-104475604D01*
X122785500Y-104475604D01*
X122785500Y-104329251D01*
X122953500Y-104329251D01*
X122981059Y-104356810D01*
X123102682Y-104235188D01*
X123340269Y-104235188D01*
X123461892Y-104356810D01*
X123583515Y-104235188D01*
X123821102Y-104235188D01*
X123942725Y-104356810D01*
X124046500Y-104253035D01*
X124046500Y-104217341D01*
X123942725Y-104113565D01*
X123821102Y-104235188D01*
X123583515Y-104235188D01*
X123461892Y-104113565D01*
X123340269Y-104235188D01*
X123102682Y-104235188D01*
X122981059Y-104113565D01*
X122953500Y-104141124D01*
X122953500Y-104329251D01*
X122785500Y-104329251D01*
X122785500Y-103994771D01*
X123099853Y-103994771D01*
X123221476Y-104116394D01*
X123343098Y-103994771D01*
X123580686Y-103994771D01*
X123702308Y-104116394D01*
X123823931Y-103994771D01*
X123702308Y-103873149D01*
X123580686Y-103994771D01*
X123343098Y-103994771D01*
X123221476Y-103873149D01*
X123099853Y-103994771D01*
X122785500Y-103994771D01*
X122785500Y-103848419D01*
X122953500Y-103848419D01*
X122981059Y-103875978D01*
X123102682Y-103754355D01*
X123340269Y-103754355D01*
X123461892Y-103875978D01*
X123583515Y-103754355D01*
X123821102Y-103754355D01*
X123942725Y-103875978D01*
X124046500Y-103772202D01*
X124046500Y-103736508D01*
X123942725Y-103632732D01*
X123821102Y-103754355D01*
X123583515Y-103754355D01*
X123461892Y-103632732D01*
X123340269Y-103754355D01*
X123102682Y-103754355D01*
X122981059Y-103632732D01*
X122953500Y-103660291D01*
X122953500Y-103848419D01*
X122785500Y-103848419D01*
X122785500Y-103513939D01*
X123099853Y-103513939D01*
X123221476Y-103635561D01*
X123343098Y-103513939D01*
X123580686Y-103513939D01*
X123702308Y-103635561D01*
X123823931Y-103513939D01*
X123702308Y-103392316D01*
X123580686Y-103513939D01*
X123343098Y-103513939D01*
X123221476Y-103392316D01*
X123099853Y-103513939D01*
X122785500Y-103513939D01*
X122785500Y-103367586D01*
X122953500Y-103367586D01*
X122981059Y-103395145D01*
X123102682Y-103273522D01*
X123340269Y-103273522D01*
X123461892Y-103395145D01*
X123583515Y-103273522D01*
X123821102Y-103273522D01*
X123942725Y-103395145D01*
X124046500Y-103291369D01*
X124046500Y-103255675D01*
X123942725Y-103151900D01*
X123821102Y-103273522D01*
X123583515Y-103273522D01*
X123461892Y-103151900D01*
X123340269Y-103273522D01*
X123102682Y-103273522D01*
X122981059Y-103151900D01*
X122953500Y-103179459D01*
X122953500Y-103367586D01*
X122785500Y-103367586D01*
X122785500Y-103033106D01*
X123099853Y-103033106D01*
X123221476Y-103154729D01*
X123343098Y-103033106D01*
X123580686Y-103033106D01*
X123702308Y-103154729D01*
X123823931Y-103033106D01*
X123702308Y-102911483D01*
X123580686Y-103033106D01*
X123343098Y-103033106D01*
X123221476Y-102911483D01*
X123099853Y-103033106D01*
X122785500Y-103033106D01*
X122785500Y-102886753D01*
X122953500Y-102886753D01*
X122981059Y-102914312D01*
X123102682Y-102792690D01*
X123340269Y-102792690D01*
X123461892Y-102914312D01*
X123583515Y-102792690D01*
X123821102Y-102792690D01*
X123942725Y-102914312D01*
X124046500Y-102810537D01*
X124046500Y-102774843D01*
X123942725Y-102671067D01*
X123821102Y-102792690D01*
X123583515Y-102792690D01*
X123461892Y-102671067D01*
X123340269Y-102792690D01*
X123102682Y-102792690D01*
X122981059Y-102671067D01*
X122953500Y-102698626D01*
X122953500Y-102886753D01*
X122785500Y-102886753D01*
X122785500Y-102552273D01*
X123099853Y-102552273D01*
X123221476Y-102673896D01*
X123343098Y-102552273D01*
X123580686Y-102552273D01*
X123702308Y-102673896D01*
X123823931Y-102552273D01*
X123702308Y-102430651D01*
X123580686Y-102552273D01*
X123343098Y-102552273D01*
X123221476Y-102430651D01*
X123099853Y-102552273D01*
X122785500Y-102552273D01*
X122785500Y-102405921D01*
X122953500Y-102405921D01*
X122981059Y-102433480D01*
X123102682Y-102311857D01*
X123340269Y-102311857D01*
X123461892Y-102433480D01*
X123583515Y-102311857D01*
X123821102Y-102311857D01*
X123942725Y-102433480D01*
X124046500Y-102329704D01*
X124046500Y-102294010D01*
X123942725Y-102190235D01*
X123821102Y-102311857D01*
X123583515Y-102311857D01*
X123461892Y-102190235D01*
X123340269Y-102311857D01*
X123102682Y-102311857D01*
X122981059Y-102190235D01*
X122953500Y-102217794D01*
X122953500Y-102405921D01*
X122785500Y-102405921D01*
X122785500Y-102071441D01*
X123099853Y-102071441D01*
X123221476Y-102193064D01*
X123343098Y-102071441D01*
X123580686Y-102071441D01*
X123702308Y-102193064D01*
X123823931Y-102071441D01*
X123702308Y-101949818D01*
X123580686Y-102071441D01*
X123343098Y-102071441D01*
X123221476Y-101949818D01*
X123099853Y-102071441D01*
X122785500Y-102071441D01*
X122785500Y-101925088D01*
X122953500Y-101925088D01*
X122981059Y-101952647D01*
X123102682Y-101831025D01*
X123340269Y-101831025D01*
X123461892Y-101952647D01*
X123583515Y-101831025D01*
X123821102Y-101831025D01*
X123942725Y-101952647D01*
X124046500Y-101848872D01*
X124046500Y-101813178D01*
X123942725Y-101709402D01*
X123821102Y-101831025D01*
X123583515Y-101831025D01*
X123461892Y-101709402D01*
X123340269Y-101831025D01*
X123102682Y-101831025D01*
X122981059Y-101709402D01*
X122953500Y-101736961D01*
X122953500Y-101925088D01*
X122785500Y-101925088D01*
X122785500Y-101590608D01*
X123099853Y-101590608D01*
X123221476Y-101712231D01*
X123343098Y-101590608D01*
X123580686Y-101590608D01*
X123702308Y-101712231D01*
X123823931Y-101590608D01*
X123702308Y-101468986D01*
X123580686Y-101590608D01*
X123343098Y-101590608D01*
X123221476Y-101468986D01*
X123099853Y-101590608D01*
X122785500Y-101590608D01*
X122785500Y-101444256D01*
X122953500Y-101444256D01*
X122981059Y-101471815D01*
X123102682Y-101350192D01*
X123340269Y-101350192D01*
X123461892Y-101471815D01*
X123583515Y-101350192D01*
X123821102Y-101350192D01*
X123942725Y-101471815D01*
X124046500Y-101368039D01*
X124046500Y-101332345D01*
X123942725Y-101228569D01*
X123821102Y-101350192D01*
X123583515Y-101350192D01*
X123461892Y-101228569D01*
X123340269Y-101350192D01*
X123102682Y-101350192D01*
X122981059Y-101228569D01*
X122953500Y-101256128D01*
X122953500Y-101444256D01*
X122785500Y-101444256D01*
X122785500Y-101109776D01*
X123099853Y-101109776D01*
X123221476Y-101231398D01*
X123343098Y-101109776D01*
X123580686Y-101109776D01*
X123702308Y-101231398D01*
X123823931Y-101109776D01*
X123702308Y-100988153D01*
X123580686Y-101109776D01*
X123343098Y-101109776D01*
X123221476Y-100988153D01*
X123099853Y-101109776D01*
X122785500Y-101109776D01*
X122785500Y-100963423D01*
X122953500Y-100963423D01*
X122981059Y-100990982D01*
X123102682Y-100869359D01*
X123340269Y-100869359D01*
X123461892Y-100990982D01*
X123583515Y-100869359D01*
X123821102Y-100869359D01*
X123942725Y-100990982D01*
X124046500Y-100887206D01*
X124046500Y-100851512D01*
X123942725Y-100747737D01*
X123821102Y-100869359D01*
X123583515Y-100869359D01*
X123461892Y-100747737D01*
X123340269Y-100869359D01*
X123102682Y-100869359D01*
X122981059Y-100747737D01*
X122953500Y-100775296D01*
X122953500Y-100963423D01*
X122785500Y-100963423D01*
X122785500Y-100628943D01*
X123099853Y-100628943D01*
X123221476Y-100750566D01*
X123343098Y-100628943D01*
X123580686Y-100628943D01*
X123702308Y-100750566D01*
X123823931Y-100628943D01*
X123702308Y-100507320D01*
X123580686Y-100628943D01*
X123343098Y-100628943D01*
X123221476Y-100507320D01*
X123099853Y-100628943D01*
X122785500Y-100628943D01*
X122785500Y-100482590D01*
X122953500Y-100482590D01*
X122981059Y-100510149D01*
X123102682Y-100388527D01*
X123340269Y-100388527D01*
X123461892Y-100510149D01*
X123583515Y-100388527D01*
X123821102Y-100388527D01*
X123942725Y-100510149D01*
X124046500Y-100406374D01*
X124046500Y-100370680D01*
X123942725Y-100266904D01*
X123821102Y-100388527D01*
X123583515Y-100388527D01*
X123461892Y-100266904D01*
X123340269Y-100388527D01*
X123102682Y-100388527D01*
X122981059Y-100266904D01*
X122953500Y-100294463D01*
X122953500Y-100482590D01*
X122785500Y-100482590D01*
X122785500Y-100148110D01*
X123099853Y-100148110D01*
X123221476Y-100269733D01*
X123343098Y-100148110D01*
X123580686Y-100148110D01*
X123702308Y-100269733D01*
X123823931Y-100148110D01*
X123702308Y-100026488D01*
X123580686Y-100148110D01*
X123343098Y-100148110D01*
X123221476Y-100026488D01*
X123099853Y-100148110D01*
X122785500Y-100148110D01*
X122785500Y-100001758D01*
X122953500Y-100001758D01*
X122981059Y-100029317D01*
X123102682Y-99907694D01*
X123340269Y-99907694D01*
X123461892Y-100029317D01*
X123583515Y-99907694D01*
X123821102Y-99907694D01*
X123942725Y-100029317D01*
X124046500Y-99925541D01*
X124046500Y-99889847D01*
X123942725Y-99786071D01*
X123821102Y-99907694D01*
X123583515Y-99907694D01*
X123461892Y-99786071D01*
X123340269Y-99907694D01*
X123102682Y-99907694D01*
X122981059Y-99786071D01*
X122953500Y-99813630D01*
X122953500Y-100001758D01*
X122785500Y-100001758D01*
X122785500Y-99667278D01*
X123099853Y-99667278D01*
X123221476Y-99788900D01*
X123343098Y-99667278D01*
X123580686Y-99667278D01*
X123702308Y-99788900D01*
X123823931Y-99667278D01*
X123702308Y-99545655D01*
X123580686Y-99667278D01*
X123343098Y-99667278D01*
X123221476Y-99545655D01*
X123099853Y-99667278D01*
X122785500Y-99667278D01*
X122785500Y-99520925D01*
X122953500Y-99520925D01*
X122981059Y-99548484D01*
X123102682Y-99426862D01*
X123340269Y-99426862D01*
X123461892Y-99548484D01*
X123583515Y-99426862D01*
X123821102Y-99426862D01*
X123942725Y-99548484D01*
X124046500Y-99444709D01*
X124046500Y-99409015D01*
X123942725Y-99305239D01*
X123821102Y-99426862D01*
X123583515Y-99426862D01*
X123461892Y-99305239D01*
X123340269Y-99426862D01*
X123102682Y-99426862D01*
X122981059Y-99305239D01*
X122953500Y-99332798D01*
X122953500Y-99520925D01*
X122785500Y-99520925D01*
X122785500Y-99186445D01*
X123099853Y-99186445D01*
X123221476Y-99308068D01*
X123343098Y-99186445D01*
X123580686Y-99186445D01*
X123702308Y-99308068D01*
X123823931Y-99186445D01*
X123702308Y-99064823D01*
X123580686Y-99186445D01*
X123343098Y-99186445D01*
X123221476Y-99064823D01*
X123099853Y-99186445D01*
X122785500Y-99186445D01*
X122785500Y-99040093D01*
X122953500Y-99040093D01*
X122981059Y-99067652D01*
X123102682Y-98946029D01*
X123340269Y-98946029D01*
X123461892Y-99067652D01*
X123583515Y-98946029D01*
X123821102Y-98946029D01*
X123942725Y-99067652D01*
X124046500Y-98963876D01*
X124046500Y-98928182D01*
X123942725Y-98824406D01*
X123821102Y-98946029D01*
X123583515Y-98946029D01*
X123461892Y-98824406D01*
X123340269Y-98946029D01*
X123102682Y-98946029D01*
X122981059Y-98824406D01*
X122953500Y-98851965D01*
X122953500Y-99040093D01*
X122785500Y-99040093D01*
X122785500Y-98705613D01*
X123099853Y-98705613D01*
X123221476Y-98827235D01*
X123343098Y-98705613D01*
X123580686Y-98705613D01*
X123702308Y-98827235D01*
X123823931Y-98705613D01*
X123702308Y-98583990D01*
X123580686Y-98705613D01*
X123343098Y-98705613D01*
X123221476Y-98583990D01*
X123099853Y-98705613D01*
X122785500Y-98705613D01*
X122785500Y-98559260D01*
X122953500Y-98559260D01*
X122981059Y-98586819D01*
X123102682Y-98465196D01*
X123340269Y-98465196D01*
X123461892Y-98586819D01*
X123583515Y-98465196D01*
X123821102Y-98465196D01*
X123942725Y-98586819D01*
X124046500Y-98483043D01*
X124046500Y-98447349D01*
X123942725Y-98343574D01*
X123821102Y-98465196D01*
X123583515Y-98465196D01*
X123461892Y-98343574D01*
X123340269Y-98465196D01*
X123102682Y-98465196D01*
X122981059Y-98343574D01*
X122953500Y-98371133D01*
X122953500Y-98559260D01*
X122785500Y-98559260D01*
X122785500Y-98224780D01*
X123099853Y-98224780D01*
X123221476Y-98346403D01*
X123343098Y-98224780D01*
X123580686Y-98224780D01*
X123702308Y-98346403D01*
X123823931Y-98224780D01*
X123702308Y-98103157D01*
X123580686Y-98224780D01*
X123343098Y-98224780D01*
X123221476Y-98103157D01*
X123099853Y-98224780D01*
X122785500Y-98224780D01*
X122785500Y-98078427D01*
X122953500Y-98078427D01*
X122981059Y-98105986D01*
X123102682Y-97984364D01*
X123340269Y-97984364D01*
X123461892Y-98105986D01*
X123583515Y-97984364D01*
X123821102Y-97984364D01*
X123942725Y-98105986D01*
X124046500Y-98002211D01*
X124046500Y-97966517D01*
X123942725Y-97862741D01*
X123821102Y-97984364D01*
X123583515Y-97984364D01*
X123461892Y-97862741D01*
X123340269Y-97984364D01*
X123102682Y-97984364D01*
X122981059Y-97862741D01*
X122953500Y-97890300D01*
X122953500Y-98078427D01*
X122785500Y-98078427D01*
X122785500Y-97743947D01*
X123099853Y-97743947D01*
X123221476Y-97865570D01*
X123343098Y-97743947D01*
X123580686Y-97743947D01*
X123702308Y-97865570D01*
X123823931Y-97743947D01*
X123702308Y-97622325D01*
X123580686Y-97743947D01*
X123343098Y-97743947D01*
X123221476Y-97622325D01*
X123099853Y-97743947D01*
X122785500Y-97743947D01*
X122785500Y-97597595D01*
X122953500Y-97597595D01*
X122981059Y-97625154D01*
X123102682Y-97503531D01*
X123340269Y-97503531D01*
X123461892Y-97625154D01*
X123583515Y-97503531D01*
X123821102Y-97503531D01*
X123942725Y-97625154D01*
X124046500Y-97521378D01*
X124046500Y-97485684D01*
X123942725Y-97381908D01*
X123821102Y-97503531D01*
X123583515Y-97503531D01*
X123461892Y-97381908D01*
X123340269Y-97503531D01*
X123102682Y-97503531D01*
X122981059Y-97381908D01*
X122953500Y-97409467D01*
X122953500Y-97597595D01*
X122785500Y-97597595D01*
X122785500Y-97263115D01*
X123099853Y-97263115D01*
X123221476Y-97384737D01*
X123343098Y-97263115D01*
X123580686Y-97263115D01*
X123702308Y-97384737D01*
X123823931Y-97263115D01*
X123702308Y-97141492D01*
X123580686Y-97263115D01*
X123343098Y-97263115D01*
X123221476Y-97141492D01*
X123099853Y-97263115D01*
X122785500Y-97263115D01*
X122785500Y-97116762D01*
X122953500Y-97116762D01*
X122981059Y-97144321D01*
X123102682Y-97022698D01*
X123340269Y-97022698D01*
X123461892Y-97144321D01*
X123583515Y-97022698D01*
X123821102Y-97022698D01*
X123942725Y-97144321D01*
X124046500Y-97040545D01*
X124046500Y-97004851D01*
X123942725Y-96901076D01*
X123821102Y-97022698D01*
X123583515Y-97022698D01*
X123461892Y-96901076D01*
X123340269Y-97022698D01*
X123102682Y-97022698D01*
X122981059Y-96901076D01*
X122953500Y-96928635D01*
X122953500Y-97116762D01*
X122785500Y-97116762D01*
X122785500Y-96782282D01*
X123099853Y-96782282D01*
X123221476Y-96903905D01*
X123343098Y-96782282D01*
X123580686Y-96782282D01*
X123702308Y-96903905D01*
X123823931Y-96782282D01*
X123702308Y-96660659D01*
X123580686Y-96782282D01*
X123343098Y-96782282D01*
X123221476Y-96660659D01*
X123099853Y-96782282D01*
X122785500Y-96782282D01*
X122785500Y-96635929D01*
X122953500Y-96635929D01*
X122981059Y-96663488D01*
X123102682Y-96541866D01*
X123340269Y-96541866D01*
X123461892Y-96663488D01*
X123583515Y-96541866D01*
X123821102Y-96541866D01*
X123942725Y-96663488D01*
X124046500Y-96559713D01*
X124046500Y-96524019D01*
X123942725Y-96420243D01*
X123821102Y-96541866D01*
X123583515Y-96541866D01*
X123461892Y-96420243D01*
X123340269Y-96541866D01*
X123102682Y-96541866D01*
X122981059Y-96420243D01*
X122953500Y-96447802D01*
X122953500Y-96635929D01*
X122785500Y-96635929D01*
X122785500Y-96301450D01*
X123099853Y-96301450D01*
X123221476Y-96423072D01*
X123343098Y-96301450D01*
X123580686Y-96301450D01*
X123702308Y-96423072D01*
X123823931Y-96301450D01*
X123702308Y-96179827D01*
X123580686Y-96301450D01*
X123343098Y-96301450D01*
X123221476Y-96179827D01*
X123099853Y-96301450D01*
X122785500Y-96301450D01*
X122785500Y-96155097D01*
X122953500Y-96155097D01*
X122981059Y-96182656D01*
X123102682Y-96061033D01*
X123340269Y-96061033D01*
X123461892Y-96182656D01*
X123583515Y-96061033D01*
X123821102Y-96061033D01*
X123942725Y-96182656D01*
X124046500Y-96078880D01*
X124046500Y-96043186D01*
X123942725Y-95939411D01*
X123821102Y-96061033D01*
X123583515Y-96061033D01*
X123461892Y-95939411D01*
X123340269Y-96061033D01*
X123102682Y-96061033D01*
X122981059Y-95939411D01*
X122953500Y-95966970D01*
X122953500Y-96155097D01*
X122785500Y-96155097D01*
X122785500Y-95820617D01*
X123099853Y-95820617D01*
X123221476Y-95942240D01*
X123343098Y-95820617D01*
X123580686Y-95820617D01*
X123702308Y-95942240D01*
X123823931Y-95820617D01*
X123702308Y-95698994D01*
X123580686Y-95820617D01*
X123343098Y-95820617D01*
X123221476Y-95698994D01*
X123099853Y-95820617D01*
X122785500Y-95820617D01*
X122785500Y-95674264D01*
X122953500Y-95674264D01*
X122981059Y-95701823D01*
X123102682Y-95580201D01*
X123340269Y-95580201D01*
X123461892Y-95701823D01*
X123583515Y-95580201D01*
X123821102Y-95580201D01*
X123942725Y-95701823D01*
X124046500Y-95598048D01*
X124046500Y-95562354D01*
X123942725Y-95458578D01*
X123821102Y-95580201D01*
X123583515Y-95580201D01*
X123461892Y-95458578D01*
X123340269Y-95580201D01*
X123102682Y-95580201D01*
X122981059Y-95458578D01*
X122953500Y-95486137D01*
X122953500Y-95674264D01*
X122785500Y-95674264D01*
X122785500Y-95339784D01*
X123099853Y-95339784D01*
X123221476Y-95461407D01*
X123343098Y-95339784D01*
X123580686Y-95339784D01*
X123702308Y-95461407D01*
X123823931Y-95339784D01*
X123702308Y-95218162D01*
X123580686Y-95339784D01*
X123343098Y-95339784D01*
X123221476Y-95218162D01*
X123099853Y-95339784D01*
X122785500Y-95339784D01*
X122785500Y-95193432D01*
X122953500Y-95193432D01*
X122981059Y-95220991D01*
X123102682Y-95099368D01*
X123340269Y-95099368D01*
X123461892Y-95220991D01*
X123583515Y-95099368D01*
X123821102Y-95099368D01*
X123942725Y-95220991D01*
X124046500Y-95117215D01*
X124046500Y-95081521D01*
X123942725Y-94977745D01*
X123821102Y-95099368D01*
X123583515Y-95099368D01*
X123461892Y-94977745D01*
X123340269Y-95099368D01*
X123102682Y-95099368D01*
X122981059Y-94977745D01*
X122953500Y-95005304D01*
X122953500Y-95193432D01*
X122785500Y-95193432D01*
X122785500Y-94858952D01*
X123099853Y-94858952D01*
X123221476Y-94980574D01*
X123343098Y-94858952D01*
X123580686Y-94858952D01*
X123702308Y-94980574D01*
X123823931Y-94858952D01*
X123702308Y-94737329D01*
X123580686Y-94858952D01*
X123343098Y-94858952D01*
X123221476Y-94737329D01*
X123099853Y-94858952D01*
X122785500Y-94858952D01*
X122785500Y-94712599D01*
X122953500Y-94712599D01*
X122981059Y-94740158D01*
X123102682Y-94618535D01*
X123340269Y-94618535D01*
X123461892Y-94740158D01*
X123583515Y-94618535D01*
X123821102Y-94618535D01*
X123942725Y-94740158D01*
X124046500Y-94636382D01*
X124046500Y-94600688D01*
X123942725Y-94496913D01*
X123821102Y-94618535D01*
X123583515Y-94618535D01*
X123461892Y-94496913D01*
X123340269Y-94618535D01*
X123102682Y-94618535D01*
X122981059Y-94496913D01*
X122953500Y-94524472D01*
X122953500Y-94712599D01*
X122785500Y-94712599D01*
X122785500Y-94378119D01*
X123099853Y-94378119D01*
X123221476Y-94499742D01*
X123343098Y-94378119D01*
X123580686Y-94378119D01*
X123702308Y-94499742D01*
X123823931Y-94378119D01*
X123702308Y-94256496D01*
X123580686Y-94378119D01*
X123343098Y-94378119D01*
X123221476Y-94256496D01*
X123099853Y-94378119D01*
X122785500Y-94378119D01*
X122785500Y-94231766D01*
X122953500Y-94231766D01*
X122981059Y-94259325D01*
X123102682Y-94137703D01*
X123340269Y-94137703D01*
X123461892Y-94259325D01*
X123583515Y-94137703D01*
X123821102Y-94137703D01*
X123942725Y-94259325D01*
X124046500Y-94155550D01*
X124046500Y-94119856D01*
X123942725Y-94016080D01*
X123821102Y-94137703D01*
X123583515Y-94137703D01*
X123461892Y-94016080D01*
X123340269Y-94137703D01*
X123102682Y-94137703D01*
X122981059Y-94016080D01*
X122953500Y-94043639D01*
X122953500Y-94231766D01*
X122785500Y-94231766D01*
X122785500Y-93897286D01*
X123099853Y-93897286D01*
X123221476Y-94018909D01*
X123343098Y-93897286D01*
X123580686Y-93897286D01*
X123702308Y-94018909D01*
X123823931Y-93897286D01*
X123702308Y-93775664D01*
X123580686Y-93897286D01*
X123343098Y-93897286D01*
X123221476Y-93775664D01*
X123099853Y-93897286D01*
X122785500Y-93897286D01*
X122785500Y-93750934D01*
X122953500Y-93750934D01*
X122981059Y-93778493D01*
X123102682Y-93656870D01*
X123340269Y-93656870D01*
X123461892Y-93778493D01*
X123583515Y-93656870D01*
X123821102Y-93656870D01*
X123942725Y-93778493D01*
X124046500Y-93674717D01*
X124046500Y-93639023D01*
X123942725Y-93535248D01*
X123821102Y-93656870D01*
X123583515Y-93656870D01*
X123461892Y-93535248D01*
X123340269Y-93656870D01*
X123102682Y-93656870D01*
X122981059Y-93535248D01*
X122953500Y-93562807D01*
X122953500Y-93750934D01*
X122785500Y-93750934D01*
X122785500Y-93416454D01*
X123099853Y-93416454D01*
X123221476Y-93538077D01*
X123343098Y-93416454D01*
X123580686Y-93416454D01*
X123702308Y-93538077D01*
X123823931Y-93416454D01*
X123702308Y-93294831D01*
X123580686Y-93416454D01*
X123343098Y-93416454D01*
X123221476Y-93294831D01*
X123099853Y-93416454D01*
X122785500Y-93416454D01*
X122785500Y-93270101D01*
X122953500Y-93270101D01*
X122981059Y-93297660D01*
X123102682Y-93176038D01*
X123340269Y-93176038D01*
X123461892Y-93297660D01*
X123583515Y-93176038D01*
X123821102Y-93176038D01*
X123942725Y-93297660D01*
X124046500Y-93193885D01*
X124046500Y-93158191D01*
X123942725Y-93054415D01*
X123821102Y-93176038D01*
X123583515Y-93176038D01*
X123461892Y-93054415D01*
X123340269Y-93176038D01*
X123102682Y-93176038D01*
X122981059Y-93054415D01*
X122953500Y-93081974D01*
X122953500Y-93270101D01*
X122785500Y-93270101D01*
X122785500Y-92935621D01*
X123099853Y-92935621D01*
X123221476Y-93057244D01*
X123343098Y-92935621D01*
X123580686Y-92935621D01*
X123702308Y-93057244D01*
X123823931Y-92935621D01*
X123702308Y-92813999D01*
X123580686Y-92935621D01*
X123343098Y-92935621D01*
X123221476Y-92813999D01*
X123099853Y-92935621D01*
X122785500Y-92935621D01*
X122785500Y-92789269D01*
X122953500Y-92789269D01*
X122981059Y-92816828D01*
X123102682Y-92695205D01*
X123340269Y-92695205D01*
X123461892Y-92816828D01*
X123583515Y-92695205D01*
X123821102Y-92695205D01*
X123942725Y-92816828D01*
X124046500Y-92713052D01*
X124046500Y-92677358D01*
X123942725Y-92573582D01*
X123821102Y-92695205D01*
X123583515Y-92695205D01*
X123461892Y-92573582D01*
X123340269Y-92695205D01*
X123102682Y-92695205D01*
X122981059Y-92573582D01*
X122953500Y-92601141D01*
X122953500Y-92789269D01*
X122785500Y-92789269D01*
X122785500Y-92454789D01*
X123099853Y-92454789D01*
X123221476Y-92576411D01*
X123343098Y-92454789D01*
X123580686Y-92454789D01*
X123702308Y-92576411D01*
X123823931Y-92454789D01*
X123702308Y-92333166D01*
X123580686Y-92454789D01*
X123343098Y-92454789D01*
X123221476Y-92333166D01*
X123099853Y-92454789D01*
X122785500Y-92454789D01*
X122785500Y-92308436D01*
X122953500Y-92308436D01*
X122981059Y-92335995D01*
X123102682Y-92214372D01*
X123340269Y-92214372D01*
X123461892Y-92335995D01*
X123583515Y-92214372D01*
X123821102Y-92214372D01*
X123942725Y-92335995D01*
X124046500Y-92232219D01*
X124046500Y-92196525D01*
X123942725Y-92092750D01*
X123821102Y-92214372D01*
X123583515Y-92214372D01*
X123461892Y-92092750D01*
X123340269Y-92214372D01*
X123102682Y-92214372D01*
X122981059Y-92092750D01*
X122953500Y-92120309D01*
X122953500Y-92308436D01*
X122785500Y-92308436D01*
X122785500Y-91973956D01*
X123099853Y-91973956D01*
X123221476Y-92095579D01*
X123343098Y-91973956D01*
X123580686Y-91973956D01*
X123702308Y-92095579D01*
X123823931Y-91973956D01*
X123702308Y-91852333D01*
X123580686Y-91973956D01*
X123343098Y-91973956D01*
X123221476Y-91852333D01*
X123099853Y-91973956D01*
X122785500Y-91973956D01*
X122785500Y-91827603D01*
X122953500Y-91827603D01*
X122981059Y-91855162D01*
X123102682Y-91733540D01*
X123340269Y-91733540D01*
X123461892Y-91855162D01*
X123583515Y-91733540D01*
X123821102Y-91733540D01*
X123942725Y-91855162D01*
X124046500Y-91751387D01*
X124046500Y-91715693D01*
X123942725Y-91611917D01*
X123821102Y-91733540D01*
X123583515Y-91733540D01*
X123461892Y-91611917D01*
X123340269Y-91733540D01*
X123102682Y-91733540D01*
X122981059Y-91611917D01*
X122953500Y-91639476D01*
X122953500Y-91827603D01*
X122785500Y-91827603D01*
X122785500Y-91493123D01*
X123099853Y-91493123D01*
X123221476Y-91614746D01*
X123343098Y-91493123D01*
X123580686Y-91493123D01*
X123702308Y-91614746D01*
X123823931Y-91493123D01*
X123702308Y-91371501D01*
X123580686Y-91493123D01*
X123343098Y-91493123D01*
X123221476Y-91371501D01*
X123099853Y-91493123D01*
X122785500Y-91493123D01*
X122785500Y-91346771D01*
X122953500Y-91346771D01*
X122981059Y-91374330D01*
X123102682Y-91252707D01*
X123340269Y-91252707D01*
X123461892Y-91374330D01*
X123583515Y-91252707D01*
X123821102Y-91252707D01*
X123942725Y-91374330D01*
X124046500Y-91270554D01*
X124046500Y-91234860D01*
X123942725Y-91131084D01*
X123821102Y-91252707D01*
X123583515Y-91252707D01*
X123461892Y-91131084D01*
X123340269Y-91252707D01*
X123102682Y-91252707D01*
X122981059Y-91131084D01*
X122957491Y-91154652D01*
X122957681Y-91156825D01*
X122957726Y-91157845D01*
X122957726Y-91161909D01*
X122957681Y-91162929D01*
X122955484Y-91188039D01*
X122955351Y-91189051D01*
X122953500Y-91199549D01*
X122953500Y-91346771D01*
X122785500Y-91346771D01*
X122785500Y-91185875D01*
X122785678Y-91183843D01*
X122789726Y-91160886D01*
X122789904Y-91159877D01*
X122786615Y-91141222D01*
X122786449Y-91138663D01*
X122789782Y-91064973D01*
X122792164Y-91012291D01*
X123099853Y-91012291D01*
X123221476Y-91133913D01*
X123343098Y-91012291D01*
X123580686Y-91012291D01*
X123702308Y-91133913D01*
X123823931Y-91012291D01*
X123702308Y-90890668D01*
X123580686Y-91012291D01*
X123343098Y-91012291D01*
X123221476Y-90890668D01*
X123099853Y-91012291D01*
X122792164Y-91012291D01*
X122798200Y-90878809D01*
X122966371Y-90878809D01*
X122981059Y-90893497D01*
X123102682Y-90771875D01*
X123340269Y-90771875D01*
X123461892Y-90893497D01*
X123583515Y-90771875D01*
X123821102Y-90771875D01*
X123942725Y-90893497D01*
X124064347Y-90771875D01*
X123942725Y-90650252D01*
X123821102Y-90771875D01*
X123583515Y-90771875D01*
X123461892Y-90650252D01*
X123340269Y-90771875D01*
X123102682Y-90771875D01*
X122994802Y-90663995D01*
X122966801Y-90869301D01*
X122966371Y-90878809D01*
X122798200Y-90878809D01*
X122799293Y-90854640D01*
X122799388Y-90853588D01*
X122822108Y-90686998D01*
X122840609Y-90551350D01*
X122840797Y-90550319D01*
X122840848Y-90550100D01*
X122845133Y-90531458D01*
X123099853Y-90531458D01*
X123221476Y-90653081D01*
X123343098Y-90531458D01*
X123580686Y-90531458D01*
X123702308Y-90653081D01*
X123823931Y-90531458D01*
X124061518Y-90531458D01*
X124124094Y-90594034D01*
X124164073Y-90456233D01*
X124164169Y-90455918D01*
X124166659Y-90448158D01*
X124166765Y-90447845D01*
X124167204Y-90446599D01*
X124167318Y-90446288D01*
X124170254Y-90438652D01*
X124170377Y-90438345D01*
X124181652Y-90411325D01*
X124061518Y-90531458D01*
X123823931Y-90531458D01*
X123702308Y-90409836D01*
X123580686Y-90531458D01*
X123343098Y-90531458D01*
X123221476Y-90409836D01*
X123099853Y-90531458D01*
X122845133Y-90531458D01*
X122896053Y-90309907D01*
X122900389Y-90291042D01*
X123340269Y-90291042D01*
X123461892Y-90412665D01*
X123583515Y-90291042D01*
X123821102Y-90291042D01*
X123942725Y-90412665D01*
X124064347Y-90291042D01*
X123942725Y-90169419D01*
X123821102Y-90291042D01*
X123583515Y-90291042D01*
X123461892Y-90169419D01*
X123340269Y-90291042D01*
X122900389Y-90291042D01*
X122909122Y-90253045D01*
X122909405Y-90252027D01*
X122962437Y-90089979D01*
X123139206Y-90089979D01*
X123221476Y-90172248D01*
X123343098Y-90050626D01*
X123580686Y-90050626D01*
X123702308Y-90172248D01*
X123823931Y-90050626D01*
X124061518Y-90050626D01*
X124183141Y-90172248D01*
X124304764Y-90050626D01*
X124183141Y-89929003D01*
X124061518Y-90050626D01*
X123823931Y-90050626D01*
X123702308Y-89929003D01*
X123580686Y-90050626D01*
X123343098Y-90050626D01*
X123221476Y-89929003D01*
X123186231Y-89964248D01*
X123161747Y-90021103D01*
X123139206Y-90089979D01*
X122962437Y-90089979D01*
X123004277Y-89962132D01*
X123004651Y-89961143D01*
X123069650Y-89810209D01*
X123340269Y-89810209D01*
X123461892Y-89931832D01*
X123583515Y-89810209D01*
X123821102Y-89810209D01*
X123942725Y-89931832D01*
X124064347Y-89810209D01*
X124301934Y-89810209D01*
X124411192Y-89919467D01*
X124490669Y-89755698D01*
X124423557Y-89688587D01*
X124301934Y-89810209D01*
X124064347Y-89810209D01*
X123942725Y-89688587D01*
X123821102Y-89810209D01*
X123583515Y-89810209D01*
X123461892Y-89688587D01*
X123340269Y-89810209D01*
X123069650Y-89810209D01*
X123117127Y-89699962D01*
X123118394Y-89697732D01*
X123128863Y-89683262D01*
X123129465Y-89682430D01*
X123135530Y-89661122D01*
X123136128Y-89659021D01*
X123136855Y-89657116D01*
X123179232Y-89569793D01*
X123580686Y-89569793D01*
X123702308Y-89691416D01*
X123823931Y-89569793D01*
X124061518Y-89569793D01*
X124183141Y-89691416D01*
X124304764Y-89569793D01*
X124183141Y-89448170D01*
X124061518Y-89569793D01*
X123823931Y-89569793D01*
X123702308Y-89448170D01*
X123580686Y-89569793D01*
X123179232Y-89569793D01*
X123249387Y-89425232D01*
X123436125Y-89425232D01*
X123461892Y-89450999D01*
X123583515Y-89329377D01*
X123821102Y-89329377D01*
X123942725Y-89450999D01*
X124064347Y-89329377D01*
X124301934Y-89329377D01*
X124423557Y-89450999D01*
X124545180Y-89329377D01*
X124423557Y-89207754D01*
X124301934Y-89329377D01*
X124064347Y-89329377D01*
X123942725Y-89207754D01*
X123821102Y-89329377D01*
X123583515Y-89329377D01*
X123515601Y-89261463D01*
X123436125Y-89425232D01*
X123249387Y-89425232D01*
X123406491Y-89101502D01*
X123593228Y-89101502D01*
X123702308Y-89210583D01*
X123823931Y-89088960D01*
X124061518Y-89088960D01*
X124183141Y-89210583D01*
X124304764Y-89088960D01*
X124542351Y-89088960D01*
X124663973Y-89210583D01*
X124785596Y-89088960D01*
X124663973Y-88967338D01*
X124542351Y-89088960D01*
X124304764Y-89088960D01*
X124183141Y-88967338D01*
X124061518Y-89088960D01*
X123823931Y-89088960D01*
X123702308Y-88967338D01*
X123624722Y-89044924D01*
X123624588Y-89045243D01*
X123624153Y-89046166D01*
X123612419Y-89068472D01*
X123611905Y-89069354D01*
X123599373Y-89088840D01*
X123593228Y-89101502D01*
X123406491Y-89101502D01*
X123452323Y-89007060D01*
X123453008Y-89005839D01*
X123470052Y-88979338D01*
X123470053Y-88979336D01*
X123470604Y-88978479D01*
X123472484Y-88970167D01*
X123474605Y-88960795D01*
X123475483Y-88958284D01*
X123528538Y-88848544D01*
X123821102Y-88848544D01*
X123942725Y-88970167D01*
X124064347Y-88848544D01*
X124301934Y-88848544D01*
X124423557Y-88970167D01*
X124545180Y-88848544D01*
X124782767Y-88848544D01*
X124904390Y-88970167D01*
X125026012Y-88848544D01*
X124904390Y-88726921D01*
X124782767Y-88848544D01*
X124545180Y-88848544D01*
X124423557Y-88726921D01*
X124301934Y-88848544D01*
X124064347Y-88848544D01*
X123942725Y-88726921D01*
X123821102Y-88848544D01*
X123528538Y-88848544D01*
X123594256Y-88712610D01*
X123594859Y-88711518D01*
X123659250Y-88608128D01*
X124061518Y-88608128D01*
X124183141Y-88729750D01*
X124304764Y-88608128D01*
X124542351Y-88608128D01*
X124663973Y-88729750D01*
X124785596Y-88608128D01*
X125023183Y-88608128D01*
X125144806Y-88729750D01*
X125266429Y-88608128D01*
X125504016Y-88608128D01*
X125554139Y-88658251D01*
X125663833Y-88617340D01*
X125664219Y-88617203D01*
X125673833Y-88613996D01*
X125674224Y-88613873D01*
X125675807Y-88613406D01*
X125676208Y-88613296D01*
X125686167Y-88610739D01*
X125686572Y-88610642D01*
X125738414Y-88599281D01*
X125625639Y-88486505D01*
X125504016Y-88608128D01*
X125266429Y-88608128D01*
X125144806Y-88486505D01*
X125023183Y-88608128D01*
X124785596Y-88608128D01*
X124663973Y-88486505D01*
X124542351Y-88608128D01*
X124304764Y-88608128D01*
X124183141Y-88486505D01*
X124061518Y-88608128D01*
X123659250Y-88608128D01*
X123678375Y-88577419D01*
X123749636Y-88462999D01*
X123750347Y-88461982D01*
X123754758Y-88456342D01*
X123824072Y-88367711D01*
X124301934Y-88367711D01*
X124423557Y-88489334D01*
X124545180Y-88367711D01*
X124782767Y-88367711D01*
X124904390Y-88489334D01*
X125026012Y-88367711D01*
X125263600Y-88367711D01*
X125385222Y-88489334D01*
X125506845Y-88367711D01*
X125744432Y-88367711D01*
X125866055Y-88489334D01*
X125987678Y-88367711D01*
X126225265Y-88367711D01*
X126346888Y-88489334D01*
X126468510Y-88367711D01*
X126706098Y-88367711D01*
X126827720Y-88489334D01*
X126949343Y-88367711D01*
X127186930Y-88367711D01*
X127308553Y-88489334D01*
X127430175Y-88367711D01*
X127667763Y-88367711D01*
X127789385Y-88489334D01*
X127911008Y-88367711D01*
X128148595Y-88367711D01*
X128270218Y-88489334D01*
X128391841Y-88367711D01*
X128629428Y-88367711D01*
X128751051Y-88489334D01*
X128872673Y-88367711D01*
X129110261Y-88367711D01*
X129231883Y-88489334D01*
X129353506Y-88367711D01*
X129591093Y-88367711D01*
X129712716Y-88489334D01*
X129834339Y-88367711D01*
X130071926Y-88367711D01*
X130193548Y-88489334D01*
X130315171Y-88367711D01*
X130552758Y-88367711D01*
X130674381Y-88489334D01*
X130796004Y-88367711D01*
X131033591Y-88367711D01*
X131155214Y-88489334D01*
X131276836Y-88367711D01*
X131514424Y-88367711D01*
X131636046Y-88489334D01*
X131757669Y-88367711D01*
X131995256Y-88367711D01*
X132116879Y-88489334D01*
X132238502Y-88367711D01*
X132476089Y-88367711D01*
X132525060Y-88416682D01*
X132697060Y-88345437D01*
X132597712Y-88246089D01*
X132476089Y-88367711D01*
X132238502Y-88367711D01*
X132126792Y-88256002D01*
X132112473Y-88265570D01*
X132108255Y-88267317D01*
X132092521Y-88270447D01*
X131995256Y-88367711D01*
X131757669Y-88367711D01*
X131636046Y-88246089D01*
X131514424Y-88367711D01*
X131276836Y-88367711D01*
X131155214Y-88246089D01*
X131033591Y-88367711D01*
X130796004Y-88367711D01*
X130674381Y-88246089D01*
X130552758Y-88367711D01*
X130315171Y-88367711D01*
X130193548Y-88246089D01*
X130071926Y-88367711D01*
X129834339Y-88367711D01*
X129712716Y-88246089D01*
X129591093Y-88367711D01*
X129353506Y-88367711D01*
X129231883Y-88246089D01*
X129110261Y-88367711D01*
X128872673Y-88367711D01*
X128751051Y-88246089D01*
X128629428Y-88367711D01*
X128391841Y-88367711D01*
X128270218Y-88246089D01*
X128148595Y-88367711D01*
X127911008Y-88367711D01*
X127789385Y-88246089D01*
X127667763Y-88367711D01*
X127430175Y-88367711D01*
X127308553Y-88246089D01*
X127186930Y-88367711D01*
X126949343Y-88367711D01*
X126827720Y-88246089D01*
X126706098Y-88367711D01*
X126468510Y-88367711D01*
X126346888Y-88246089D01*
X126225265Y-88367711D01*
X125987678Y-88367711D01*
X125866055Y-88246089D01*
X125744432Y-88367711D01*
X125506845Y-88367711D01*
X125385222Y-88246089D01*
X125263600Y-88367711D01*
X125026012Y-88367711D01*
X124904390Y-88246089D01*
X124782767Y-88367711D01*
X124545180Y-88367711D01*
X124423557Y-88246089D01*
X124301934Y-88367711D01*
X123824072Y-88367711D01*
X123930722Y-88231339D01*
X123931530Y-88230412D01*
X124031595Y-88127295D01*
X124542351Y-88127295D01*
X124663973Y-88248918D01*
X124785596Y-88127295D01*
X125023183Y-88127295D01*
X125144806Y-88248918D01*
X125266429Y-88127295D01*
X125504016Y-88127295D01*
X125625639Y-88248918D01*
X125747261Y-88127295D01*
X125984849Y-88127295D01*
X126106471Y-88248918D01*
X126228094Y-88127295D01*
X126465681Y-88127295D01*
X126587304Y-88248918D01*
X126708927Y-88127295D01*
X126946514Y-88127295D01*
X127068137Y-88248918D01*
X127189759Y-88127295D01*
X127427346Y-88127295D01*
X127548969Y-88248918D01*
X127670592Y-88127295D01*
X127908179Y-88127295D01*
X128029802Y-88248918D01*
X128151424Y-88127295D01*
X128389012Y-88127295D01*
X128510634Y-88248918D01*
X128632257Y-88127295D01*
X128869844Y-88127295D01*
X128991467Y-88248918D01*
X129113090Y-88127295D01*
X129350677Y-88127295D01*
X129472300Y-88248918D01*
X129593922Y-88127295D01*
X129831510Y-88127295D01*
X129953132Y-88248918D01*
X130074755Y-88127295D01*
X130312342Y-88127295D01*
X130433965Y-88248918D01*
X130555587Y-88127295D01*
X130793175Y-88127295D01*
X130914797Y-88248918D01*
X131036420Y-88127295D01*
X131274007Y-88127295D01*
X131395630Y-88248918D01*
X131505268Y-88139280D01*
X132247658Y-88139280D01*
X132357295Y-88248918D01*
X132478918Y-88127295D01*
X132716505Y-88127295D01*
X132838128Y-88248918D01*
X132933955Y-88153091D01*
X132937236Y-88141873D01*
X132945463Y-88113007D01*
X132838128Y-88005672D01*
X132716505Y-88127295D01*
X132478918Y-88127295D01*
X132357295Y-88005672D01*
X132270447Y-88092521D01*
X132267317Y-88108255D01*
X132265570Y-88112473D01*
X132247658Y-88139280D01*
X131505268Y-88139280D01*
X131517253Y-88127295D01*
X131395630Y-88005672D01*
X131274007Y-88127295D01*
X131036420Y-88127295D01*
X130914797Y-88005672D01*
X130793175Y-88127295D01*
X130555587Y-88127295D01*
X130433965Y-88005672D01*
X130312342Y-88127295D01*
X130074755Y-88127295D01*
X129953132Y-88005672D01*
X129831510Y-88127295D01*
X129593922Y-88127295D01*
X129472300Y-88005672D01*
X129350677Y-88127295D01*
X129113090Y-88127295D01*
X128991467Y-88005672D01*
X128869844Y-88127295D01*
X128632257Y-88127295D01*
X128510634Y-88005672D01*
X128389012Y-88127295D01*
X128151424Y-88127295D01*
X128029802Y-88005672D01*
X127908179Y-88127295D01*
X127670592Y-88127295D01*
X127548969Y-88005672D01*
X127427346Y-88127295D01*
X127189759Y-88127295D01*
X127068137Y-88005672D01*
X126946514Y-88127295D01*
X126708927Y-88127295D01*
X126587304Y-88005672D01*
X126465681Y-88127295D01*
X126228094Y-88127295D01*
X126106471Y-88005672D01*
X125984849Y-88127295D01*
X125747261Y-88127295D01*
X125625639Y-88005672D01*
X125504016Y-88127295D01*
X125266429Y-88127295D01*
X125144806Y-88005672D01*
X125023183Y-88127295D01*
X124785596Y-88127295D01*
X124663973Y-88005672D01*
X124542351Y-88127295D01*
X124031595Y-88127295D01*
X124135431Y-88020293D01*
X124136343Y-88019448D01*
X124149507Y-88008501D01*
X124264364Y-87912983D01*
X124295753Y-87886879D01*
X124782767Y-87886879D01*
X124904390Y-88008501D01*
X125026012Y-87886879D01*
X125263600Y-87886879D01*
X125385222Y-88008501D01*
X125506845Y-87886879D01*
X125744432Y-87886879D01*
X125866055Y-88008501D01*
X125987678Y-87886879D01*
X126225265Y-87886879D01*
X126346888Y-88008501D01*
X126468510Y-87886879D01*
X126706098Y-87886879D01*
X126827720Y-88008501D01*
X126949343Y-87886879D01*
X127186930Y-87886879D01*
X127308553Y-88008501D01*
X127430175Y-87886879D01*
X127667763Y-87886879D01*
X127789385Y-88008501D01*
X127911008Y-87886879D01*
X128148595Y-87886879D01*
X128270218Y-88008501D01*
X128391841Y-87886879D01*
X128629428Y-87886879D01*
X128751051Y-88008501D01*
X128872673Y-87886879D01*
X129110261Y-87886879D01*
X129231883Y-88008501D01*
X129353506Y-87886879D01*
X129591093Y-87886879D01*
X129712716Y-88008501D01*
X129834339Y-87886879D01*
X130071926Y-87886879D01*
X130193548Y-88008501D01*
X130315171Y-87886879D01*
X130552758Y-87886879D01*
X130674381Y-88008501D01*
X130796004Y-87886879D01*
X131033591Y-87886879D01*
X131155214Y-88008501D01*
X131276836Y-87886879D01*
X131514424Y-87886879D01*
X131636046Y-88008501D01*
X131727687Y-87916860D01*
X131732683Y-87891745D01*
X131734430Y-87887527D01*
X131734863Y-87886879D01*
X132476089Y-87886879D01*
X132597712Y-88008501D01*
X132719334Y-87886879D01*
X132597712Y-87765256D01*
X132476089Y-87886879D01*
X131734863Y-87886879D01*
X131743998Y-87873208D01*
X131636046Y-87765256D01*
X131514424Y-87886879D01*
X131276836Y-87886879D01*
X131155214Y-87765256D01*
X131033591Y-87886879D01*
X130796004Y-87886879D01*
X130674381Y-87765256D01*
X130552758Y-87886879D01*
X130315171Y-87886879D01*
X130193548Y-87765256D01*
X130071926Y-87886879D01*
X129834339Y-87886879D01*
X129712716Y-87765256D01*
X129591093Y-87886879D01*
X129353506Y-87886879D01*
X129231883Y-87765256D01*
X129110261Y-87886879D01*
X128872673Y-87886879D01*
X128751051Y-87765256D01*
X128629428Y-87886879D01*
X128391841Y-87886879D01*
X128270218Y-87765256D01*
X128148595Y-87886879D01*
X127911008Y-87886879D01*
X127789385Y-87765256D01*
X127667763Y-87886879D01*
X127430175Y-87886879D01*
X127308553Y-87765256D01*
X127186930Y-87886879D01*
X126949343Y-87886879D01*
X126827720Y-87765256D01*
X126706098Y-87886879D01*
X126468510Y-87886879D01*
X126346888Y-87765256D01*
X126225265Y-87886879D01*
X125987678Y-87886879D01*
X125866055Y-87765256D01*
X125744432Y-87886879D01*
X125506845Y-87886879D01*
X125385222Y-87765256D01*
X125263600Y-87886879D01*
X125026012Y-87886879D01*
X124904390Y-87765256D01*
X124782767Y-87886879D01*
X124295753Y-87886879D01*
X124361459Y-87832237D01*
X124362459Y-87831492D01*
X124606221Y-87669321D01*
X124607295Y-87668686D01*
X124641607Y-87650807D01*
X125027527Y-87650807D01*
X125144806Y-87768085D01*
X125266429Y-87646463D01*
X125504016Y-87646463D01*
X125625639Y-87768085D01*
X125747261Y-87646463D01*
X125984849Y-87646463D01*
X126106471Y-87768085D01*
X126228094Y-87646463D01*
X126465681Y-87646463D01*
X126587304Y-87768085D01*
X126708927Y-87646463D01*
X126946514Y-87646463D01*
X127068137Y-87768085D01*
X127189759Y-87646463D01*
X127427346Y-87646463D01*
X127548969Y-87768085D01*
X127670592Y-87646463D01*
X127908179Y-87646463D01*
X128029802Y-87768085D01*
X128151424Y-87646463D01*
X128389012Y-87646463D01*
X128510634Y-87768085D01*
X128632257Y-87646463D01*
X128869844Y-87646463D01*
X128991467Y-87768085D01*
X129113090Y-87646463D01*
X129350677Y-87646463D01*
X129472300Y-87768085D01*
X129593922Y-87646463D01*
X129831510Y-87646463D01*
X129953132Y-87768085D01*
X130074755Y-87646463D01*
X130312342Y-87646463D01*
X130433965Y-87768085D01*
X130555587Y-87646463D01*
X130793175Y-87646463D01*
X130914797Y-87768085D01*
X131036420Y-87646463D01*
X131274007Y-87646463D01*
X131395630Y-87768085D01*
X131517253Y-87646463D01*
X131754840Y-87646463D01*
X131860720Y-87752342D01*
X131887527Y-87734430D01*
X131891745Y-87732683D01*
X131916861Y-87727687D01*
X131998085Y-87646463D01*
X132235673Y-87646463D01*
X132357295Y-87768085D01*
X132478918Y-87646463D01*
X132716505Y-87646463D01*
X132838128Y-87768085D01*
X132959751Y-87646463D01*
X132838128Y-87524840D01*
X132716505Y-87646463D01*
X132478918Y-87646463D01*
X132357295Y-87524840D01*
X132235673Y-87646463D01*
X131998085Y-87646463D01*
X131876463Y-87524840D01*
X131754840Y-87646463D01*
X131517253Y-87646463D01*
X131395630Y-87524840D01*
X131274007Y-87646463D01*
X131036420Y-87646463D01*
X130914797Y-87524840D01*
X130793175Y-87646463D01*
X130555587Y-87646463D01*
X130433965Y-87524840D01*
X130312342Y-87646463D01*
X130074755Y-87646463D01*
X129953132Y-87524840D01*
X129831510Y-87646463D01*
X129593922Y-87646463D01*
X129472300Y-87524840D01*
X129350677Y-87646463D01*
X129113090Y-87646463D01*
X128991467Y-87524840D01*
X128869844Y-87646463D01*
X128632257Y-87646463D01*
X128510634Y-87524840D01*
X128389012Y-87646463D01*
X128151424Y-87646463D01*
X128029802Y-87524840D01*
X127908179Y-87646463D01*
X127670592Y-87646463D01*
X127548969Y-87524840D01*
X127427346Y-87646463D01*
X127189759Y-87646463D01*
X127068137Y-87524840D01*
X126946514Y-87646463D01*
X126708927Y-87646463D01*
X126587304Y-87524840D01*
X126465681Y-87646463D01*
X126228094Y-87646463D01*
X126106471Y-87524840D01*
X125984849Y-87646463D01*
X125747261Y-87646463D01*
X125625639Y-87524840D01*
X125504016Y-87646463D01*
X125266429Y-87646463D01*
X125203009Y-87583043D01*
X125194221Y-87585447D01*
X125027527Y-87650807D01*
X124641607Y-87650807D01*
X124701987Y-87619345D01*
X124866948Y-87533389D01*
X124868081Y-87532873D01*
X125140674Y-87425990D01*
X125141844Y-87425602D01*
X125424250Y-87348359D01*
X125425469Y-87348094D01*
X125466571Y-87341448D01*
X125714513Y-87301357D01*
X125715739Y-87301226D01*
X125902097Y-87291223D01*
X125988220Y-87286601D01*
X125990875Y-87286761D01*
X126007724Y-87289727D01*
X126007725Y-87289727D01*
X126008731Y-87289904D01*
X126032659Y-87285678D01*
X126034694Y-87285500D01*
X132659789Y-87285500D01*
X132661820Y-87285678D01*
G37*
%TD.AperFunction*%
%TD*%
%TA.AperFunction,Conductor*%
%TO.N,/UART1_TXD*%
G36*
X129314557Y-117731095D02*
G01*
X129455084Y-117857535D01*
X129496695Y-117886308D01*
X129591493Y-117951860D01*
X129591497Y-117951862D01*
X129591858Y-117952112D01*
X129720339Y-118014926D01*
X129844235Y-118053497D01*
X129844591Y-118053560D01*
X129844590Y-118053560D01*
X129967030Y-118075309D01*
X129967041Y-118075310D01*
X129967252Y-118075348D01*
X130093100Y-118088002D01*
X130225308Y-118098964D01*
X130225684Y-118099003D01*
X130360748Y-118114934D01*
X130367693Y-118115753D01*
X130368538Y-118115884D01*
X130524170Y-118145891D01*
X130525225Y-118146147D01*
X130614275Y-118172253D01*
X130690710Y-118194661D01*
X130697685Y-118200276D01*
X130699117Y-118205659D01*
X130720282Y-119288355D01*
X130717017Y-119296694D01*
X130708355Y-119300282D01*
X130199064Y-119290326D01*
X129625658Y-119279117D01*
X129617455Y-119275529D01*
X129614661Y-119270710D01*
X129596284Y-119208024D01*
X129566147Y-119105225D01*
X129565889Y-119104160D01*
X129535884Y-118948537D01*
X129535753Y-118947693D01*
X129519004Y-118805699D01*
X129518963Y-118805295D01*
X129508006Y-118673148D01*
X129508006Y-118673146D01*
X129508002Y-118673100D01*
X129495349Y-118547252D01*
X129473497Y-118424235D01*
X129434926Y-118300340D01*
X129434733Y-118299946D01*
X129434731Y-118299940D01*
X129372306Y-118172253D01*
X129372113Y-118171858D01*
X129354337Y-118146150D01*
X129290268Y-118053497D01*
X129277536Y-118035084D01*
X129259518Y-118015058D01*
X129203055Y-117952305D01*
X129151096Y-117894557D01*
X129148111Y-117886117D01*
X129151522Y-117878460D01*
X129298460Y-117731521D01*
X129306733Y-117728094D01*
X129314557Y-117731095D01*
G37*
%TD.AperFunction*%
%TD*%
%TA.AperFunction,Conductor*%
%TO.N,/UART1_RXD*%
G36*
X133443579Y-89813153D02*
G01*
X133517684Y-89855889D01*
X133517698Y-89855896D01*
X133517862Y-89855991D01*
X133591448Y-89892144D01*
X133591662Y-89892229D01*
X133656837Y-89918168D01*
X133656849Y-89918172D01*
X133657052Y-89918253D01*
X133717247Y-89936643D01*
X133717427Y-89936684D01*
X133717439Y-89936687D01*
X133744231Y-89942757D01*
X133774607Y-89949640D01*
X133774754Y-89949666D01*
X133774766Y-89949668D01*
X133800166Y-89954085D01*
X133831704Y-89959569D01*
X133891088Y-89968753D01*
X133891233Y-89968777D01*
X133955177Y-89979489D01*
X133955589Y-89979565D01*
X133997531Y-89988145D01*
X134026895Y-89994152D01*
X134027419Y-89994273D01*
X134058219Y-90002150D01*
X134100811Y-90013043D01*
X134107977Y-90018413D01*
X134109576Y-90023465D01*
X134148508Y-90520770D01*
X134145738Y-90529285D01*
X134137302Y-90533374D01*
X133638941Y-90552836D01*
X133630540Y-90549735D01*
X133627525Y-90545241D01*
X133603645Y-90481351D01*
X133603418Y-90480683D01*
X133583400Y-90415367D01*
X133583291Y-90414990D01*
X133567004Y-90354687D01*
X133551613Y-90298788D01*
X133551610Y-90298779D01*
X133551572Y-90298640D01*
X133551528Y-90298506D01*
X133551522Y-90298488D01*
X133534197Y-90246381D01*
X133534195Y-90246377D01*
X133534103Y-90246099D01*
X133511658Y-90196133D01*
X133481294Y-90147812D01*
X133440073Y-90100206D01*
X133385052Y-90052385D01*
X133384771Y-90052193D01*
X133322507Y-90009706D01*
X133317605Y-90002213D01*
X133319134Y-89993916D01*
X133427766Y-89817162D01*
X133435018Y-89811908D01*
X133443579Y-89813153D01*
G37*
%TD.AperFunction*%
%TD*%
%TA.AperFunction,Conductor*%
%TO.N,/I2C4_SDA*%
G36*
X98612965Y-117796562D02*
G01*
X98739731Y-117961202D01*
X98742063Y-117969848D01*
X98738116Y-117977189D01*
X98665266Y-118040209D01*
X98598085Y-118098325D01*
X98491155Y-118220759D01*
X98417896Y-118339912D01*
X98370518Y-118458433D01*
X98341229Y-118578975D01*
X98322241Y-118704186D01*
X98322235Y-118704238D01*
X98305781Y-118836571D01*
X98305736Y-118836893D01*
X98284067Y-118978818D01*
X98283917Y-118979615D01*
X98249300Y-119133807D01*
X98249006Y-119134874D01*
X98198097Y-119290655D01*
X98196165Y-119296566D01*
X98190338Y-119303366D01*
X98184895Y-119304631D01*
X97102095Y-119290810D01*
X97093866Y-119287278D01*
X97090560Y-119278505D01*
X97146692Y-118197028D01*
X97150543Y-118188943D01*
X97155411Y-118186316D01*
X97326504Y-118141494D01*
X97327540Y-118141272D01*
X97486191Y-118114754D01*
X97487044Y-118114644D01*
X97630435Y-118101400D01*
X97630896Y-118101366D01*
X97764015Y-118094357D01*
X97891203Y-118086556D01*
X97891218Y-118086555D01*
X97891391Y-118086544D01*
X97891565Y-118086522D01*
X97891569Y-118086522D01*
X98017277Y-118070893D01*
X98017285Y-118070892D01*
X98017587Y-118070854D01*
X98147383Y-118040209D01*
X98147739Y-118040073D01*
X98147743Y-118040072D01*
X98285201Y-117987661D01*
X98285558Y-117987525D01*
X98285883Y-117987349D01*
X98285888Y-117987347D01*
X98436602Y-117905878D01*
X98436889Y-117905723D01*
X98597005Y-117794102D01*
X98605751Y-117792182D01*
X98612965Y-117796562D01*
G37*
%TD.AperFunction*%
%TD*%
%TA.AperFunction,Conductor*%
%TO.N,/I2C4_SCL*%
G36*
X101162397Y-117805452D02*
G01*
X101242278Y-117912500D01*
X101286667Y-117971986D01*
X101288868Y-117980666D01*
X101284815Y-117987942D01*
X101143512Y-118106637D01*
X101143235Y-118106946D01*
X101143234Y-118106947D01*
X101063342Y-118196074D01*
X101035397Y-118227249D01*
X100961115Y-118345194D01*
X100960929Y-118345649D01*
X100960926Y-118345654D01*
X100913014Y-118462599D01*
X100912854Y-118462990D01*
X100882805Y-118583156D01*
X100863155Y-118708213D01*
X100863146Y-118708284D01*
X100846115Y-118840525D01*
X100846070Y-118840840D01*
X100823876Y-118982673D01*
X100823724Y-118983466D01*
X100788620Y-119137378D01*
X100788321Y-119138450D01*
X100738308Y-119289684D01*
X100735040Y-119299565D01*
X100729189Y-119306343D01*
X100723740Y-119307589D01*
X100114200Y-119297509D01*
X99641000Y-119289684D01*
X99632784Y-119286121D01*
X99629511Y-119277335D01*
X99645876Y-118983466D01*
X99668181Y-118582910D01*
X99689722Y-118196074D01*
X99693604Y-118188005D01*
X99698478Y-118185397D01*
X99870084Y-118141070D01*
X99871116Y-118140852D01*
X100030007Y-118114791D01*
X100030862Y-118114683D01*
X100130481Y-118105803D01*
X100174366Y-118101892D01*
X100174820Y-118101861D01*
X100307952Y-118095369D01*
X100435428Y-118088191D01*
X100497578Y-118080884D01*
X100561602Y-118073356D01*
X100561607Y-118073355D01*
X100561906Y-118073320D01*
X100692281Y-118043735D01*
X100692633Y-118043605D01*
X100692637Y-118043604D01*
X100831082Y-117992551D01*
X100831084Y-117992550D01*
X100831445Y-117992417D01*
X100984293Y-117912347D01*
X101146470Y-117802755D01*
X101155243Y-117800962D01*
X101162397Y-117805452D01*
G37*
%TD.AperFunction*%
%TD*%
%TA.AperFunction,Conductor*%
%TO.N,GND*%
G36*
X132671666Y-87287414D02*
G01*
X132685788Y-87289904D01*
X132696642Y-87287990D01*
X132706184Y-87287990D01*
X132719427Y-87287158D01*
X132986278Y-87300267D01*
X132998573Y-87301478D01*
X133092489Y-87315408D01*
X133156936Y-87345189D01*
X133195053Y-87405085D01*
X133200000Y-87440044D01*
X133200000Y-87891257D01*
X133190408Y-87939476D01*
X133185014Y-87952498D01*
X133174834Y-87972040D01*
X133166165Y-87985631D01*
X133163919Y-87991397D01*
X133163918Y-87991399D01*
X133155485Y-88013048D01*
X133141770Y-88048259D01*
X133139921Y-88053227D01*
X133139682Y-88053900D01*
X133137951Y-88059023D01*
X133137807Y-88059471D01*
X133137802Y-88059487D01*
X133119383Y-88116906D01*
X133117244Y-88123573D01*
X133116296Y-88126623D01*
X133116188Y-88126982D01*
X133115468Y-88129441D01*
X133110924Y-88145386D01*
X133098722Y-88188202D01*
X133098512Y-88188932D01*
X133084860Y-88235612D01*
X133082722Y-88242231D01*
X133072492Y-88271133D01*
X133067361Y-88283495D01*
X133065343Y-88287711D01*
X133060396Y-88298041D01*
X133051246Y-88314030D01*
X133045764Y-88322166D01*
X133033096Y-88338039D01*
X133022893Y-88348896D01*
X133008963Y-88361649D01*
X132985103Y-88380410D01*
X132972320Y-88389243D01*
X132924601Y-88418034D01*
X132921940Y-88420399D01*
X132910836Y-88427513D01*
X132836042Y-88468850D01*
X132823313Y-88474981D01*
X132582974Y-88574534D01*
X132569637Y-88579200D01*
X132319689Y-88651211D01*
X132305914Y-88654356D01*
X132186214Y-88674695D01*
X132049449Y-88697933D01*
X132035413Y-88699515D01*
X131802137Y-88712618D01*
X131790506Y-88711928D01*
X131790506Y-88712010D01*
X131779482Y-88712010D01*
X131768627Y-88710096D01*
X131757773Y-88712010D01*
X131757772Y-88712010D01*
X131754505Y-88712586D01*
X131732625Y-88714500D01*
X127950000Y-88714500D01*
X127950000Y-87285500D01*
X132649787Y-87285500D01*
X132671666Y-87287414D01*
G37*
%TD.AperFunction*%
%TD*%
%TA.AperFunction,Conductor*%
%TO.N,/I2C4_SDA*%
G36*
X98612965Y-117796562D02*
G01*
X98739731Y-117961202D01*
X98742063Y-117969848D01*
X98738116Y-117977189D01*
X98665266Y-118040209D01*
X98598085Y-118098325D01*
X98491155Y-118220759D01*
X98417896Y-118339912D01*
X98370518Y-118458433D01*
X98341229Y-118578975D01*
X98322241Y-118704186D01*
X98322235Y-118704238D01*
X98305781Y-118836571D01*
X98305736Y-118836893D01*
X98284067Y-118978818D01*
X98283917Y-118979615D01*
X98249300Y-119133807D01*
X98249006Y-119134874D01*
X98198097Y-119290655D01*
X98196165Y-119296566D01*
X98190338Y-119303366D01*
X98184895Y-119304631D01*
X97102095Y-119290810D01*
X97093866Y-119287278D01*
X97090560Y-119278505D01*
X97146692Y-118197028D01*
X97150543Y-118188943D01*
X97155411Y-118186316D01*
X97326504Y-118141494D01*
X97327540Y-118141272D01*
X97486191Y-118114754D01*
X97487044Y-118114644D01*
X97630435Y-118101400D01*
X97630896Y-118101366D01*
X97764015Y-118094357D01*
X97891203Y-118086556D01*
X97891218Y-118086555D01*
X97891391Y-118086544D01*
X97891565Y-118086522D01*
X97891569Y-118086522D01*
X98017277Y-118070893D01*
X98017285Y-118070892D01*
X98017587Y-118070854D01*
X98147383Y-118040209D01*
X98147739Y-118040073D01*
X98147743Y-118040072D01*
X98285201Y-117987661D01*
X98285558Y-117987525D01*
X98285883Y-117987349D01*
X98285888Y-117987347D01*
X98436602Y-117905878D01*
X98436889Y-117905723D01*
X98597005Y-117794102D01*
X98605751Y-117792182D01*
X98612965Y-117796562D01*
G37*
%TD.AperFunction*%
%TD*%
M02*
