%TF.GenerationSoftware,KiCad,Pcbnew,9.0.0-1.fc42*%
%TF.CreationDate,2025-03-01T14:54:56-05:00*%
%TF.ProjectId,ext-con-breakout-board,6578742d-636f-46e2-9d62-7265616b6f75,v0.6*%
%TF.SameCoordinates,Original*%
%TF.FileFunction,Copper,L2,Inr*%
%TF.FilePolarity,Positive*%
%FSLAX45Y45*%
G04 Gerber Fmt 4.5, Leading zero omitted, Abs format (unit mm)*
G04 Created by KiCad (PCBNEW 9.0.0-1.fc42) date 2025-03-01 14:54:56*
%MOMM*%
%LPD*%
G01*
G04 APERTURE LIST*
%TA.AperFunction,ComponentPad*%
%ADD10R,1.700000X1.700000*%
%TD*%
%TA.AperFunction,ComponentPad*%
%ADD11O,1.700000X1.700000*%
%TD*%
%TA.AperFunction,ComponentPad*%
%ADD12C,2.800000*%
%TD*%
%TA.AperFunction,ViaPad*%
%ADD13C,0.800000*%
%TD*%
%TA.AperFunction,Conductor*%
%ADD14C,0.230000*%
%TD*%
G04 APERTURE END LIST*
D10*
%TO.N,GND*%
%TO.C,J2*%
X13050000Y-11550000D03*
D11*
%TO.N,/UART1_RXD*%
X12796000Y-11550000D03*
%TO.N,/UART1_TXD*%
X12542000Y-11550000D03*
%TO.N,GND*%
X12288000Y-11550000D03*
%TO.N,/SPI_SS1*%
X12034000Y-11550000D03*
%TO.N,/SPI_SCK*%
X11780000Y-11550000D03*
%TO.N,/SPI_MOSI*%
X11526000Y-11550000D03*
%TO.N,/SPI_MISO*%
X11272000Y-11550000D03*
%TO.N,GND*%
X11018000Y-11550000D03*
%TO.N,Net-(J2-Pin_10)*%
X10764000Y-11550000D03*
%TO.N,Net-(J2-Pin_11)*%
X10510000Y-11550000D03*
%TO.N,GND*%
X10256000Y-11550000D03*
%TO.N,/GPIO4_IO11*%
X10002000Y-11550000D03*
%TO.N,/GPIO4_IO28*%
X9748000Y-11550000D03*
%TO.N,/I2C4_SCL*%
X9494000Y-11550000D03*
%TO.N,/I2C4_SDA*%
X9240000Y-11550000D03*
%TD*%
D12*
%TO.N,GND*%
%TO.C,H1*%
X13367100Y-11550000D03*
%TD*%
D13*
%TO.N,/I2C4_SDA*%
X13020000Y-9040000D03*
%TO.N,/I2C4_SCL*%
X13010000Y-8800000D03*
%TO.N,GND*%
X12700000Y-8800000D03*
%TO.N,/UART1_RXD*%
X12900000Y-9040000D03*
%TO.N,/UART1_TXD*%
X12870000Y-8820000D03*
%TO.N,+1V8*%
X11200000Y-11330000D03*
%TO.N,+3V3*%
X11350000Y-11330000D03*
%TD*%
D14*
%TO.N,/I2C4_SDA*%
X13120000Y-8940000D02*
X13120000Y-8813126D01*
X11784300Y-8869100D02*
X11750879Y-8937968D01*
X11666600Y-11165000D02*
X10465000Y-11165000D01*
X10464733Y-11164733D02*
X10170117Y-11164733D01*
X11710000Y-9115834D02*
X11710000Y-11121600D01*
X12966874Y-8660000D02*
X12098835Y-8660000D01*
X10465000Y-11165000D02*
X10464733Y-11164733D01*
X10170117Y-11164733D02*
G75*
G03*
X9240001Y-11550001I3J-1315387D01*
G01*
X11750879Y-8937968D02*
G75*
G03*
X11710002Y-9115834I366511J-177862D01*
G01*
X13120000Y-8813126D02*
G75*
G03*
X12966874Y-8660000I-153130J-4D01*
G01*
X12098835Y-8660000D02*
G75*
G03*
X11784300Y-8869100I-1056J-339530D01*
G01*
X11710000Y-11121600D02*
G75*
G02*
X11666600Y-11165000I-43400J0D01*
G01*
X13020000Y-9040000D02*
G75*
G03*
X13120000Y-8940000I0J100000D01*
G01*
%TO.N,/I2C4_SCL*%
X12768579Y-8700000D02*
X12100865Y-8700000D01*
X11750000Y-9115988D02*
X11750000Y-11139484D01*
X11820325Y-8886639D02*
X11786865Y-8955586D01*
X11684484Y-11205000D02*
X10326904Y-11205000D01*
X12100865Y-8700000D02*
G75*
G03*
X11820324Y-8886639I85J-304290D01*
G01*
X11750000Y-11139484D02*
G75*
G02*
X11684484Y-11205000I-65520J4D01*
G01*
X13010000Y-8800000D02*
G75*
G03*
X12768579Y-8700001I-241420J-241420D01*
G01*
X11786865Y-8955586D02*
G75*
G03*
X11749999Y-9115988I330525J-160404D01*
G01*
X10326904Y-11205000D02*
G75*
G03*
X9493999Y-11549999I-4J-1177900D01*
G01*
%TO.N,/UART1_RXD*%
X12682756Y-11436756D02*
X12796000Y-11550000D01*
X12128671Y-11272000D02*
X12285000Y-11272000D01*
X11990000Y-9116753D02*
X11990000Y-11133329D01*
X12658579Y-8940000D02*
X12119000Y-8940000D01*
X12036036Y-8991849D02*
X12003116Y-9059685D01*
X12285000Y-11272000D02*
G75*
G02*
X12682755Y-11436756I0J-562510D01*
G01*
X12900000Y-9040000D02*
G75*
G03*
X12658579Y-8940001I-241420J-241420D01*
G01*
X12119000Y-8940000D02*
G75*
G03*
X12036034Y-8991848I160J-92560D01*
G01*
X11990000Y-11133329D02*
G75*
G03*
X12128671Y-11272000I138670J-1D01*
G01*
X12003116Y-9059685D02*
G75*
G03*
X11990001Y-9116753I117594J-57065D01*
G01*
%TO.N,/UART1_TXD*%
X12186499Y-11312500D02*
X12114539Y-11312500D01*
X11967234Y-9042006D02*
X12000084Y-8974314D01*
X12116326Y-8900000D02*
X12676863Y-8900000D01*
X12542000Y-11550000D02*
X12387939Y-11395939D01*
X11950000Y-11147961D02*
X11950000Y-9116992D01*
X11950000Y-9116992D02*
G75*
G02*
X11967233Y-9042006I171750J2D01*
G01*
X12387939Y-11395939D02*
G75*
G03*
X12186499Y-11312501I-201439J-201441D01*
G01*
X12676863Y-8900000D02*
G75*
G03*
X12869999Y-8819999I-3J273140D01*
G01*
X12000084Y-8974314D02*
G75*
G02*
X12116326Y-8900001I116746J-54546D01*
G01*
X12114539Y-11312500D02*
G75*
G02*
X11950000Y-11147961I1J164540D01*
G01*
%TD*%
%TA.AperFunction,Conductor*%
%TO.N,/I2C4_SDA*%
G36*
X9359983Y-11430809D02*
G01*
X9372920Y-11447031D01*
X9373168Y-11447892D01*
X9372776Y-11448641D01*
X9360674Y-11459253D01*
X9360674Y-11459253D01*
X9350651Y-11470201D01*
X9343123Y-11480892D01*
X9343122Y-11480893D01*
X9337657Y-11491477D01*
X9337657Y-11491479D01*
X9333829Y-11502102D01*
X9333828Y-11502104D01*
X9331207Y-11512917D01*
X9331207Y-11512918D01*
X9327877Y-11535692D01*
X9327875Y-11535702D01*
X9323109Y-11566441D01*
X9322643Y-11567206D01*
X9321773Y-11567418D01*
X9321710Y-11567406D01*
X9291490Y-11560998D01*
X9240761Y-11550240D01*
X9240023Y-11549733D01*
X9239839Y-11549209D01*
X9231975Y-11467839D01*
X9232237Y-11466983D01*
X9233027Y-11466562D01*
X9233062Y-11466559D01*
X9260839Y-11464847D01*
X9260854Y-11464847D01*
X9272858Y-11464297D01*
X9295225Y-11461886D01*
X9314620Y-11456613D01*
X9324554Y-11452398D01*
X9335023Y-11446824D01*
X9346680Y-11439342D01*
X9346682Y-11439341D01*
X9346683Y-11439341D01*
X9358367Y-11430602D01*
X9359235Y-11430380D01*
X9359983Y-11430809D01*
G37*
%TD.AperFunction*%
%TD*%
%TA.AperFunction,Conductor*%
%TO.N,/I2C4_SCL*%
G36*
X12954357Y-8741316D02*
G01*
X12955391Y-8741912D01*
X12961784Y-8745599D01*
X12961785Y-8745599D01*
X12961785Y-8745599D01*
X12961786Y-8745600D01*
X12966245Y-8747790D01*
X12969143Y-8749214D01*
X12969145Y-8749215D01*
X12975704Y-8751825D01*
X12975705Y-8751826D01*
X12981724Y-8753665D01*
X12987460Y-8754964D01*
X12993170Y-8755957D01*
X12999111Y-8756876D01*
X13005520Y-8757949D01*
X13005557Y-8757956D01*
X13012688Y-8759415D01*
X13012743Y-8759428D01*
X13020081Y-8761304D01*
X13020798Y-8761841D01*
X13020958Y-8762346D01*
X13024851Y-8812077D01*
X13024574Y-8812928D01*
X13023776Y-8813335D01*
X13023730Y-8813337D01*
X12973894Y-8815284D01*
X12973054Y-8814973D01*
X12972752Y-8814524D01*
X12970364Y-8808133D01*
X12970342Y-8808070D01*
X12968339Y-8801535D01*
X12968329Y-8801499D01*
X12966701Y-8795472D01*
X12965157Y-8789866D01*
X12965157Y-8789863D01*
X12963410Y-8784611D01*
X12963410Y-8784611D01*
X12963410Y-8784610D01*
X12961165Y-8779614D01*
X12958129Y-8774782D01*
X12954007Y-8770021D01*
X12948505Y-8765239D01*
X12948504Y-8765239D01*
X12942250Y-8760971D01*
X12941760Y-8760222D01*
X12941913Y-8759392D01*
X12952776Y-8741716D01*
X12953501Y-8741191D01*
X12954357Y-8741316D01*
G37*
%TD.AperFunction*%
%TD*%
%TA.AperFunction,Conductor*%
%TO.N,/UART1_RXD*%
G36*
X12691636Y-11429288D02*
G01*
X12702788Y-11439294D01*
X12714048Y-11447495D01*
X12724764Y-11453511D01*
X12735118Y-11457711D01*
X12739392Y-11458868D01*
X12745288Y-11460465D01*
X12745289Y-11460465D01*
X12745290Y-11460465D01*
X12755462Y-11462141D01*
X12776530Y-11463736D01*
X12782626Y-11464068D01*
X12782668Y-11464071D01*
X12807572Y-11466513D01*
X12808362Y-11466934D01*
X12808622Y-11467791D01*
X12808615Y-11467854D01*
X12796201Y-11549219D01*
X12795738Y-11549986D01*
X12795221Y-11550200D01*
X12713838Y-11562615D01*
X12712968Y-11562401D01*
X12712505Y-11561635D01*
X12712499Y-11561588D01*
X12711218Y-11550070D01*
X12710727Y-11545654D01*
X12710722Y-11545595D01*
X12709863Y-11529882D01*
X12709863Y-11529881D01*
X12709863Y-11529881D01*
X12709124Y-11516163D01*
X12709124Y-11516162D01*
X12706461Y-11497004D01*
X12700907Y-11480394D01*
X12699792Y-11478245D01*
X12696622Y-11472136D01*
X12696622Y-11472135D01*
X12691336Y-11464069D01*
X12691046Y-11463626D01*
X12683760Y-11454518D01*
X12675485Y-11445790D01*
X12675164Y-11444954D01*
X12675498Y-11444166D01*
X12690019Y-11429340D01*
X12690843Y-11428989D01*
X12691636Y-11429288D01*
G37*
%TD.AperFunction*%
%TD*%
%TA.AperFunction,Conductor*%
%TO.N,/I2C4_SDA*%
G36*
X13030750Y-9001497D02*
G01*
X13036318Y-9003164D01*
X13036381Y-9003185D01*
X13042270Y-9005333D01*
X13042280Y-9005337D01*
X13047810Y-9007493D01*
X13053045Y-9009398D01*
X13058076Y-9010803D01*
X13062999Y-9011460D01*
X13062999Y-9011460D01*
X13062999Y-9011460D01*
X13064256Y-9011374D01*
X13067906Y-9011122D01*
X13072894Y-9009541D01*
X13078055Y-9006469D01*
X13082674Y-9002378D01*
X13083520Y-9002086D01*
X13084265Y-9002415D01*
X13099141Y-9016863D01*
X13099496Y-9017686D01*
X13099165Y-9018518D01*
X13099161Y-9018522D01*
X13093061Y-9024739D01*
X13093051Y-9024748D01*
X13087118Y-9030658D01*
X13087108Y-9030668D01*
X13081945Y-9035690D01*
X13081936Y-9035699D01*
X13077923Y-9039521D01*
X13077321Y-9040095D01*
X13073191Y-9043973D01*
X13073025Y-9044129D01*
X13073024Y-9044130D01*
X13068835Y-9048055D01*
X13068835Y-9048055D01*
X13064526Y-9052134D01*
X13059879Y-9056624D01*
X13054679Y-9061780D01*
X13049288Y-9067264D01*
X13048464Y-9067614D01*
X13047935Y-9067493D01*
X13001612Y-9044574D01*
X13001023Y-9043900D01*
X13001082Y-9043006D01*
X13001169Y-9042860D01*
X13003080Y-9040095D01*
X13029453Y-9001953D01*
X13030205Y-9001467D01*
X13030750Y-9001497D01*
G37*
%TD.AperFunction*%
%TD*%
%TA.AperFunction,Conductor*%
%TO.N,GND*%
G36*
X11921450Y-11160616D02*
G01*
X11924432Y-11183265D01*
X11924754Y-11185711D01*
X11927577Y-11196246D01*
X11931305Y-11210160D01*
X11931305Y-11210161D01*
X11937106Y-11224166D01*
X11940991Y-11233545D01*
X11940995Y-11233552D01*
X11953647Y-11255465D01*
X11953647Y-11255466D01*
X11969055Y-11275546D01*
X11969055Y-11275546D01*
X11969056Y-11275546D01*
X11986954Y-11293444D01*
X11986954Y-11293444D01*
X11986954Y-11293445D01*
X11998359Y-11302196D01*
X12007035Y-11308853D01*
X12007035Y-11308853D01*
X12007035Y-11308853D01*
X12010629Y-11310928D01*
X12028955Y-11321509D01*
X12052340Y-11331195D01*
X12076789Y-11337746D01*
X12101883Y-11341050D01*
X12109453Y-11341050D01*
X12109454Y-11341050D01*
X12110781Y-11341050D01*
X12114539Y-11341050D01*
X12119573Y-11341050D01*
X12181465Y-11341050D01*
X12186179Y-11341050D01*
X12186818Y-11341068D01*
X12214561Y-11342626D01*
X12215830Y-11342769D01*
X12242907Y-11347369D01*
X12244152Y-11347653D01*
X12259311Y-11352020D01*
X12270545Y-11355257D01*
X12271752Y-11355679D01*
X12278707Y-11358560D01*
X12295910Y-11365686D01*
X12297125Y-11366189D01*
X12298277Y-11366744D01*
X12320877Y-11379235D01*
X12322314Y-11380029D01*
X12323397Y-11380709D01*
X12345796Y-11396602D01*
X12346796Y-11397399D01*
X12367504Y-11415905D01*
X12367968Y-11416344D01*
X12400616Y-11448992D01*
X12401087Y-11449492D01*
X12401730Y-11450217D01*
X12402769Y-11451891D01*
X12411285Y-11460999D01*
X12411387Y-11461114D01*
X12411399Y-11461140D01*
X12411754Y-11461550D01*
X12418334Y-11469766D01*
X12418916Y-11470562D01*
X12423648Y-11477652D01*
X12424197Y-11478564D01*
X12427297Y-11484307D01*
X12427380Y-11484461D01*
X12428058Y-11485970D01*
X12432944Y-11499370D01*
X12433460Y-11501291D01*
X12436391Y-11517872D01*
X12436518Y-11518824D01*
X12437876Y-11533761D01*
X12437904Y-11534044D01*
X12439885Y-11552547D01*
X12439950Y-11553761D01*
X12439950Y-11560051D01*
X12442004Y-11570376D01*
X12443872Y-11579767D01*
X12443872Y-11579767D01*
X12451564Y-11598338D01*
X12451565Y-11598339D01*
X12462732Y-11615053D01*
X12476947Y-11629268D01*
X12493660Y-11640435D01*
X12493661Y-11640436D01*
X12512232Y-11648128D01*
X12512233Y-11648128D01*
X12512233Y-11648128D01*
X12531949Y-11652050D01*
X12531949Y-11652050D01*
X12552051Y-11652050D01*
X12552051Y-11652050D01*
X12571767Y-11648128D01*
X12571767Y-11648128D01*
X12571767Y-11648128D01*
X12584148Y-11643000D01*
X12590339Y-11640436D01*
X12607053Y-11629267D01*
X12621267Y-11615053D01*
X12632436Y-11598339D01*
X12637129Y-11587007D01*
X12640128Y-11579767D01*
X12640128Y-11579767D01*
X12640128Y-11579767D01*
X12640128Y-11579767D01*
X12644050Y-11560051D01*
X12644050Y-11539949D01*
X12640128Y-11520233D01*
X12640128Y-11520232D01*
X12640128Y-11520232D01*
X12632436Y-11501661D01*
X12632435Y-11501660D01*
X12621268Y-11484947D01*
X12607053Y-11470732D01*
X12590339Y-11459565D01*
X12590338Y-11459564D01*
X12571767Y-11451872D01*
X12571767Y-11451872D01*
X12552051Y-11447950D01*
X12552051Y-11447950D01*
X12545761Y-11447950D01*
X12544547Y-11447885D01*
X12543499Y-11447773D01*
X12526472Y-11445950D01*
X12526433Y-11445944D01*
X12526035Y-11445903D01*
X12525991Y-11445898D01*
X12525906Y-11445889D01*
X12525871Y-11445886D01*
X12504075Y-11443646D01*
X12503098Y-11443503D01*
X12494700Y-11441895D01*
X12493593Y-11441626D01*
X12489438Y-11440390D01*
X12485635Y-11439258D01*
X12484357Y-11438793D01*
X12480205Y-11436997D01*
X12480205Y-11436996D01*
X12480205Y-11436996D01*
X12476412Y-11435354D01*
X12475158Y-11434717D01*
X12466568Y-11429662D01*
X12465486Y-11428939D01*
X12455766Y-11421608D01*
X12454914Y-11420898D01*
X12443787Y-11410660D01*
X12442893Y-11410102D01*
X12440867Y-11408492D01*
X12411683Y-11379307D01*
X12411681Y-11379304D01*
X12408128Y-11375751D01*
X12397240Y-11364863D01*
X12383857Y-11353880D01*
X12373434Y-11345326D01*
X12347829Y-11328218D01*
X12347828Y-11328217D01*
X12344527Y-11326452D01*
X12343708Y-11325648D01*
X12342653Y-11325198D01*
X12341460Y-11323440D01*
X12339944Y-11321951D01*
X12339690Y-11320832D01*
X12339046Y-11319883D01*
X12338993Y-11317759D01*
X12338523Y-11315687D01*
X12338914Y-11314608D01*
X12338886Y-11313461D01*
X12339989Y-11311646D01*
X12340714Y-11309649D01*
X12341626Y-11308953D01*
X12342222Y-11307972D01*
X12344132Y-11307042D01*
X12345822Y-11305753D01*
X12347105Y-11305593D01*
X12347997Y-11305159D01*
X12351240Y-11305078D01*
X12368085Y-11307071D01*
X12368969Y-11307211D01*
X12409212Y-11315216D01*
X12410082Y-11315425D01*
X12449572Y-11326562D01*
X12450423Y-11326839D01*
X12464937Y-11332193D01*
X12488919Y-11341041D01*
X12489745Y-11341383D01*
X12520756Y-11355679D01*
X12527006Y-11358560D01*
X12527803Y-11358967D01*
X12563604Y-11379016D01*
X12564367Y-11379484D01*
X12598483Y-11402279D01*
X12599205Y-11402804D01*
X12626959Y-11424684D01*
X12631428Y-11428206D01*
X12632108Y-11428788D01*
X12660508Y-11455040D01*
X12661236Y-11455778D01*
X12661892Y-11456505D01*
X12662749Y-11457864D01*
X12670284Y-11465813D01*
X12670380Y-11465918D01*
X12670393Y-11465947D01*
X12670815Y-11466431D01*
X12676485Y-11473519D01*
X12677117Y-11474391D01*
X12681138Y-11480526D01*
X12681722Y-11481524D01*
X12684134Y-11486173D01*
X12684135Y-11486175D01*
X12684289Y-11486472D01*
X12684289Y-11486473D01*
X12684980Y-11488105D01*
X12688967Y-11500029D01*
X12689447Y-11502075D01*
X12691573Y-11517368D01*
X12691665Y-11518325D01*
X12692304Y-11530183D01*
X12692304Y-11530183D01*
X12692336Y-11530792D01*
X12692364Y-11531309D01*
X12692365Y-11531319D01*
X12693198Y-11546553D01*
X12693233Y-11547060D01*
X12693239Y-11547125D01*
X12693284Y-11547590D01*
X12693880Y-11552952D01*
X12693950Y-11554212D01*
X12693950Y-11560051D01*
X12696004Y-11570376D01*
X12697872Y-11579767D01*
X12697872Y-11579767D01*
X12705564Y-11598338D01*
X12705565Y-11598339D01*
X12716732Y-11615053D01*
X12730947Y-11629268D01*
X12747660Y-11640435D01*
X12747661Y-11640436D01*
X12766232Y-11648128D01*
X12766233Y-11648128D01*
X12766233Y-11648128D01*
X12785949Y-11652050D01*
X12785949Y-11652050D01*
X12806051Y-11652050D01*
X12806051Y-11652050D01*
X12825767Y-11648128D01*
X12825767Y-11648128D01*
X12825767Y-11648128D01*
X12838148Y-11643000D01*
X12844339Y-11640436D01*
X12861053Y-11629267D01*
X12875267Y-11615053D01*
X12886436Y-11598339D01*
X12891129Y-11587007D01*
X12894128Y-11579767D01*
X12894128Y-11579767D01*
X12894128Y-11579767D01*
X12894128Y-11579767D01*
X12898050Y-11560051D01*
X12898050Y-11539949D01*
X12894128Y-11520233D01*
X12894128Y-11520232D01*
X12894128Y-11520232D01*
X12886436Y-11501661D01*
X12886435Y-11501660D01*
X12875268Y-11484947D01*
X12861053Y-11470732D01*
X12847763Y-11461852D01*
X12925000Y-11461852D01*
X12925000Y-11524600D01*
X13006930Y-11524600D01*
X13003407Y-11530701D01*
X13000000Y-11543417D01*
X13000000Y-11556583D01*
X13003407Y-11569299D01*
X13006930Y-11575400D01*
X12925000Y-11575400D01*
X12925000Y-11638148D01*
X12926483Y-11647515D01*
X12926484Y-11647515D01*
X12932235Y-11658804D01*
X12932236Y-11658805D01*
X12941195Y-11667764D01*
X12941196Y-11667764D01*
X12952485Y-11673516D01*
X12952485Y-11673516D01*
X12961852Y-11675000D01*
X13024600Y-11675000D01*
X13024600Y-11593070D01*
X13030701Y-11596592D01*
X13043417Y-11600000D01*
X13056583Y-11600000D01*
X13069299Y-11596592D01*
X13075400Y-11593070D01*
X13075400Y-11675000D01*
X13138148Y-11675000D01*
X13147515Y-11673516D01*
X13147515Y-11673516D01*
X13158804Y-11667764D01*
X13158805Y-11667764D01*
X13167764Y-11658805D01*
X13167764Y-11658804D01*
X13173516Y-11647515D01*
X13175000Y-11638148D01*
X13175000Y-11575400D01*
X13093070Y-11575400D01*
X13096592Y-11569299D01*
X13100000Y-11556583D01*
X13100000Y-11543417D01*
X13096592Y-11530701D01*
X13093070Y-11524600D01*
X13175000Y-11524600D01*
X13175000Y-11461852D01*
X13173516Y-11452485D01*
X13173516Y-11452485D01*
X13167764Y-11441196D01*
X13167764Y-11441195D01*
X13158805Y-11432236D01*
X13158804Y-11432236D01*
X13147515Y-11426483D01*
X13147515Y-11426483D01*
X13138148Y-11425000D01*
X13075400Y-11425000D01*
X13075400Y-11506930D01*
X13069299Y-11503407D01*
X13056583Y-11500000D01*
X13043417Y-11500000D01*
X13030701Y-11503407D01*
X13024600Y-11506930D01*
X13024600Y-11425000D01*
X12961852Y-11425000D01*
X12952485Y-11426483D01*
X12952485Y-11426484D01*
X12941196Y-11432235D01*
X12941195Y-11432236D01*
X12932236Y-11441195D01*
X12932236Y-11441196D01*
X12926483Y-11452485D01*
X12925000Y-11461852D01*
X12847763Y-11461852D01*
X12844339Y-11459565D01*
X12844338Y-11459564D01*
X12825767Y-11451872D01*
X12825767Y-11451872D01*
X12806051Y-11447950D01*
X12806051Y-11447950D01*
X12798656Y-11447950D01*
X12797700Y-11447910D01*
X12797623Y-11447903D01*
X12784380Y-11446605D01*
X12783995Y-11446572D01*
X12783953Y-11446568D01*
X12783582Y-11446544D01*
X12777673Y-11446222D01*
X12777519Y-11446210D01*
X12777503Y-11446209D01*
X12758053Y-11444737D01*
X12757060Y-11444618D01*
X12749587Y-11443387D01*
X12748461Y-11443142D01*
X12743874Y-11441900D01*
X12743869Y-11441899D01*
X12741397Y-11441230D01*
X12740091Y-11440790D01*
X12733056Y-11437936D01*
X12731762Y-11437313D01*
X12724129Y-11433028D01*
X12722999Y-11432302D01*
X12717375Y-11428206D01*
X12714313Y-11425976D01*
X12713411Y-11425247D01*
X12713136Y-11425000D01*
X12703357Y-11416225D01*
X12703357Y-11416225D01*
X12703356Y-11416225D01*
X12702605Y-11415768D01*
X12700466Y-11414090D01*
X12700286Y-11413910D01*
X12700285Y-11413910D01*
X12699775Y-11413400D01*
X12699774Y-11413399D01*
X12699771Y-11413396D01*
X12688017Y-11401641D01*
X12688015Y-11401640D01*
X12656111Y-11373995D01*
X12656109Y-11373993D01*
X12622311Y-11348692D01*
X12622310Y-11348692D01*
X12622310Y-11348692D01*
X12595085Y-11331195D01*
X12586793Y-11325866D01*
X12586394Y-11325648D01*
X12549738Y-11305632D01*
X12549737Y-11305632D01*
X12523048Y-11293444D01*
X12511334Y-11288094D01*
X12511333Y-11288094D01*
X12511332Y-11288093D01*
X12477690Y-11275546D01*
X12471776Y-11273340D01*
X12471776Y-11273339D01*
X12471775Y-11273339D01*
X12431268Y-11261445D01*
X12403776Y-11255465D01*
X12390012Y-11252470D01*
X12348222Y-11246462D01*
X12309624Y-11243701D01*
X12306110Y-11243450D01*
X12306109Y-11243450D01*
X12288759Y-11243450D01*
X12231400Y-11243450D01*
X12225237Y-11241640D01*
X12221030Y-11236786D01*
X12220000Y-11232050D01*
X12220000Y-11139550D01*
X12221810Y-11133387D01*
X12226664Y-11129180D01*
X12231400Y-11128150D01*
X13120647Y-11128150D01*
X13120647Y-11128150D01*
X13123885Y-11128150D01*
X13124630Y-11128174D01*
X13147248Y-11129657D01*
X13148726Y-11129851D01*
X13170591Y-11134200D01*
X13172031Y-11134586D01*
X13193141Y-11141752D01*
X13194517Y-11142322D01*
X13214512Y-11152183D01*
X13215803Y-11152928D01*
X13234340Y-11165314D01*
X13235520Y-11166220D01*
X13252575Y-11181177D01*
X13253118Y-11181686D01*
X13253118Y-11181686D01*
X13255397Y-11183965D01*
X13255397Y-11183965D01*
X13256336Y-11184904D01*
X13553323Y-11481891D01*
X13553833Y-11482436D01*
X13568684Y-11499370D01*
X13568779Y-11499478D01*
X13569686Y-11500661D01*
X13582071Y-11519196D01*
X13582817Y-11520488D01*
X13592677Y-11540482D01*
X13593248Y-11541859D01*
X13600414Y-11562970D01*
X13600800Y-11564410D01*
X13605150Y-11586274D01*
X13605344Y-11587752D01*
X13606826Y-11610338D01*
X13606850Y-11611084D01*
X13606850Y-11659551D01*
X13606815Y-11660446D01*
X13605297Y-11679732D01*
X13605017Y-11681499D01*
X13600606Y-11699871D01*
X13600053Y-11701573D01*
X13592823Y-11719029D01*
X13592010Y-11720623D01*
X13582137Y-11736735D01*
X13581086Y-11738182D01*
X13568815Y-11752550D01*
X13567550Y-11753815D01*
X13553182Y-11766086D01*
X13551735Y-11767137D01*
X13535623Y-11777010D01*
X13534029Y-11777823D01*
X13516573Y-11785053D01*
X13514871Y-11785606D01*
X13496499Y-11790017D01*
X13494732Y-11790297D01*
X13477709Y-11791637D01*
X13475446Y-11791815D01*
X13474552Y-11791850D01*
X9175448Y-11791850D01*
X9174554Y-11791815D01*
X9172031Y-11791616D01*
X9155268Y-11790297D01*
X9153501Y-11790017D01*
X9135128Y-11785606D01*
X9133427Y-11785053D01*
X9115970Y-11777823D01*
X9114377Y-11777010D01*
X9098265Y-11767137D01*
X9096819Y-11766086D01*
X9082450Y-11753814D01*
X9081185Y-11752550D01*
X9068913Y-11738181D01*
X9067862Y-11736735D01*
X9057989Y-11720623D01*
X9057178Y-11719030D01*
X9049946Y-11701572D01*
X9049394Y-11699872D01*
X9044983Y-11681498D01*
X9044703Y-11679732D01*
X9044214Y-11673516D01*
X9043185Y-11660446D01*
X9043150Y-11659551D01*
X9043150Y-11260448D01*
X9043185Y-11259554D01*
X9043451Y-11256180D01*
X9044703Y-11240268D01*
X9044983Y-11238501D01*
X9049394Y-11220127D01*
X9049946Y-11218428D01*
X9057178Y-11200969D01*
X9057989Y-11199378D01*
X9067863Y-11183264D01*
X9068913Y-11181819D01*
X9081186Y-11167449D01*
X9082449Y-11166186D01*
X9096819Y-11153913D01*
X9098264Y-11152863D01*
X9114378Y-11142989D01*
X9115969Y-11142178D01*
X9133428Y-11134946D01*
X9135127Y-11134394D01*
X9153502Y-11129983D01*
X9155268Y-11129703D01*
X9174554Y-11128185D01*
X9175448Y-11128150D01*
X9970209Y-11128150D01*
X9976372Y-11129960D01*
X9980579Y-11134814D01*
X9981493Y-11141172D01*
X9978824Y-11147015D01*
X9973421Y-11150488D01*
X9971992Y-11150810D01*
X9925124Y-11158233D01*
X9925120Y-11158234D01*
X9856275Y-11172867D01*
X9856272Y-11172868D01*
X9788287Y-11191084D01*
X9788287Y-11191085D01*
X9721349Y-11212834D01*
X9721348Y-11212835D01*
X9655641Y-11238057D01*
X9655637Y-11238059D01*
X9591341Y-11266685D01*
X9591340Y-11266686D01*
X9591340Y-11266686D01*
X9578282Y-11273339D01*
X9528627Y-11298640D01*
X9467674Y-11333831D01*
X9467671Y-11333833D01*
X9408646Y-11372164D01*
X9408645Y-11372165D01*
X9386447Y-11388293D01*
X9351890Y-11413400D01*
X9351700Y-11413538D01*
X9348965Y-11415753D01*
X9348596Y-11416039D01*
X9348014Y-11416472D01*
X9347856Y-11416547D01*
X9337040Y-11424637D01*
X9336977Y-11424684D01*
X9336973Y-11424685D01*
X9336330Y-11425131D01*
X9326534Y-11431419D01*
X9325734Y-11431888D01*
X9317431Y-11436309D01*
X9316526Y-11436740D01*
X9309579Y-11439688D01*
X9308117Y-11440194D01*
X9292833Y-11444349D01*
X9291065Y-11444682D01*
X9271865Y-11446752D01*
X9271165Y-11446806D01*
X9260050Y-11447315D01*
X9259884Y-11447323D01*
X9259878Y-11447324D01*
X9259747Y-11447331D01*
X9250761Y-11447885D01*
X9250060Y-11447928D01*
X9249359Y-11447950D01*
X9229949Y-11447950D01*
X9215060Y-11450912D01*
X9210233Y-11451872D01*
X9210232Y-11451872D01*
X9191661Y-11459564D01*
X9191660Y-11459565D01*
X9174947Y-11470732D01*
X9160732Y-11484947D01*
X9149565Y-11501660D01*
X9149564Y-11501661D01*
X9141872Y-11520232D01*
X9141872Y-11520232D01*
X9141773Y-11520731D01*
X9137950Y-11539949D01*
X9137950Y-11560051D01*
X9140004Y-11570376D01*
X9141872Y-11579767D01*
X9141872Y-11579767D01*
X9149564Y-11598338D01*
X9149565Y-11598339D01*
X9160732Y-11615053D01*
X9174947Y-11629268D01*
X9191660Y-11640435D01*
X9191661Y-11640436D01*
X9210233Y-11648128D01*
X9210233Y-11648128D01*
X9210233Y-11648128D01*
X9229949Y-11652050D01*
X9229949Y-11652050D01*
X9250051Y-11652050D01*
X9250051Y-11652050D01*
X9269767Y-11648128D01*
X9269767Y-11648128D01*
X9269768Y-11648128D01*
X9282148Y-11643000D01*
X9288339Y-11640436D01*
X9305053Y-11629267D01*
X9319267Y-11615053D01*
X9330436Y-11598339D01*
X9335129Y-11587007D01*
X9338128Y-11579767D01*
X9338128Y-11579767D01*
X9338128Y-11579767D01*
X9338128Y-11579767D01*
X9339996Y-11570376D01*
X9340451Y-11569130D01*
X9341184Y-11564405D01*
X9342050Y-11560051D01*
X9342050Y-11559699D01*
X9342185Y-11557952D01*
X9342397Y-11556583D01*
X9345218Y-11538392D01*
X9345240Y-11538242D01*
X9348379Y-11516783D01*
X9348579Y-11515749D01*
X9350516Y-11507758D01*
X9350869Y-11506582D01*
X9353526Y-11499209D01*
X9354121Y-11497845D01*
X9357806Y-11490708D01*
X9358613Y-11489375D01*
X9363934Y-11481819D01*
X9364845Y-11480686D01*
X9364993Y-11480526D01*
X9371021Y-11473941D01*
X9372546Y-11472275D01*
X9373437Y-11471403D01*
X9384347Y-11461836D01*
X9384348Y-11461835D01*
X9384559Y-11461612D01*
X9385893Y-11460410D01*
X9413504Y-11439223D01*
X9413979Y-11438879D01*
X9469012Y-11401056D01*
X9469509Y-11400732D01*
X9526449Y-11365839D01*
X9526960Y-11365545D01*
X9585645Y-11333681D01*
X9586174Y-11333411D01*
X9646446Y-11304663D01*
X9646991Y-11304421D01*
X9652362Y-11302196D01*
X9708682Y-11278867D01*
X9709237Y-11278654D01*
X9772186Y-11256363D01*
X9772746Y-11256181D01*
X9836774Y-11237215D01*
X9837349Y-11237061D01*
X9902280Y-11221472D01*
X9902861Y-11221348D01*
X9952469Y-11212154D01*
X9958859Y-11212810D01*
X9963880Y-11216817D01*
X9965938Y-11222902D01*
X9964379Y-11229133D01*
X9959698Y-11233533D01*
X9958070Y-11234205D01*
X9924043Y-11245261D01*
X9924042Y-11245261D01*
X9865056Y-11267904D01*
X9807335Y-11293603D01*
X9764506Y-11315425D01*
X9751036Y-11322288D01*
X9743634Y-11326562D01*
X9696319Y-11353879D01*
X9696318Y-11353880D01*
X9696317Y-11353880D01*
X9651227Y-11383162D01*
X9643326Y-11388293D01*
X9607106Y-11414608D01*
X9606516Y-11415010D01*
X9605680Y-11415540D01*
X9603771Y-11416331D01*
X9590998Y-11424862D01*
X9590880Y-11424937D01*
X9590860Y-11424943D01*
X9590460Y-11425191D01*
X9579154Y-11431704D01*
X9578384Y-11432109D01*
X9569027Y-11436587D01*
X9568159Y-11436959D01*
X9560262Y-11439962D01*
X9558880Y-11440390D01*
X9541799Y-11444506D01*
X9540230Y-11444770D01*
X9517737Y-11446956D01*
X9517356Y-11446986D01*
X9517326Y-11446988D01*
X9510995Y-11447346D01*
X9510782Y-11447359D01*
X9502544Y-11447925D01*
X9502517Y-11447927D01*
X9502509Y-11447925D01*
X9501795Y-11447950D01*
X9483949Y-11447950D01*
X9469060Y-11450912D01*
X9464233Y-11451872D01*
X9464232Y-11451872D01*
X9445661Y-11459564D01*
X9445660Y-11459565D01*
X9428947Y-11470732D01*
X9414732Y-11484947D01*
X9403565Y-11501660D01*
X9403564Y-11501661D01*
X9395872Y-11520232D01*
X9395872Y-11520232D01*
X9395773Y-11520731D01*
X9391950Y-11539949D01*
X9391950Y-11560051D01*
X9394004Y-11570376D01*
X9395872Y-11579767D01*
X9395872Y-11579767D01*
X9403564Y-11598338D01*
X9403565Y-11598339D01*
X9414732Y-11615053D01*
X9428947Y-11629268D01*
X9445660Y-11640435D01*
X9445661Y-11640436D01*
X9464233Y-11648128D01*
X9464233Y-11648128D01*
X9464233Y-11648128D01*
X9483949Y-11652050D01*
X9483949Y-11652050D01*
X9504051Y-11652050D01*
X9504051Y-11652050D01*
X9523767Y-11648128D01*
X9523767Y-11648128D01*
X9523768Y-11648128D01*
X9536148Y-11643000D01*
X9542339Y-11640436D01*
X9559053Y-11629267D01*
X9573267Y-11615053D01*
X9584436Y-11598339D01*
X9592128Y-11579767D01*
X9593998Y-11570366D01*
X9594182Y-11569874D01*
X9594558Y-11567550D01*
X9596050Y-11560051D01*
X9596050Y-11559262D01*
X9596197Y-11557439D01*
X9596822Y-11553580D01*
X9598114Y-11545606D01*
X9598174Y-11545211D01*
X9598181Y-11545155D01*
X9598182Y-11545153D01*
X9598183Y-11545146D01*
X9598236Y-11544723D01*
X9598237Y-11544718D01*
X9598776Y-11539949D01*
X9645950Y-11539949D01*
X9645950Y-11560051D01*
X9648004Y-11570376D01*
X9649872Y-11579767D01*
X9649872Y-11579767D01*
X9657564Y-11598338D01*
X9657565Y-11598339D01*
X9668732Y-11615053D01*
X9682947Y-11629268D01*
X9699660Y-11640435D01*
X9699661Y-11640436D01*
X9718233Y-11648128D01*
X9718233Y-11648128D01*
X9718233Y-11648128D01*
X9737949Y-11652050D01*
X9737949Y-11652050D01*
X9758051Y-11652050D01*
X9758051Y-11652050D01*
X9777767Y-11648128D01*
X9777767Y-11648128D01*
X9777768Y-11648128D01*
X9790148Y-11643000D01*
X9796339Y-11640436D01*
X9813053Y-11629267D01*
X9827267Y-11615053D01*
X9838436Y-11598339D01*
X9843129Y-11587007D01*
X9846128Y-11579767D01*
X9846128Y-11579767D01*
X9846128Y-11579767D01*
X9846128Y-11579767D01*
X9850050Y-11560051D01*
X9850050Y-11539949D01*
X9899950Y-11539949D01*
X9899950Y-11560051D01*
X9902004Y-11570376D01*
X9903872Y-11579767D01*
X9903872Y-11579767D01*
X9911564Y-11598338D01*
X9911565Y-11598339D01*
X9922732Y-11615053D01*
X9936947Y-11629268D01*
X9953660Y-11640435D01*
X9953661Y-11640436D01*
X9972233Y-11648128D01*
X9972233Y-11648128D01*
X9972233Y-11648128D01*
X9991949Y-11652050D01*
X9991949Y-11652050D01*
X10012051Y-11652050D01*
X10012051Y-11652050D01*
X10031767Y-11648128D01*
X10031767Y-11648128D01*
X10031768Y-11648128D01*
X10044148Y-11643000D01*
X10050339Y-11640436D01*
X10067053Y-11629267D01*
X10081267Y-11615053D01*
X10092436Y-11598339D01*
X10097129Y-11587007D01*
X10100128Y-11579767D01*
X10100128Y-11579767D01*
X10100128Y-11579767D01*
X10100128Y-11579767D01*
X10104050Y-11560051D01*
X10104050Y-11539949D01*
X10100997Y-11524600D01*
X10133465Y-11524600D01*
X10133465Y-11524600D01*
X10212930Y-11524600D01*
X10209408Y-11530701D01*
X10206000Y-11543417D01*
X10206000Y-11556583D01*
X10209408Y-11569299D01*
X10212930Y-11575400D01*
X10133465Y-11575400D01*
X10134078Y-11579269D01*
X10134078Y-11579271D01*
X10140158Y-11597983D01*
X10149091Y-11615515D01*
X10149091Y-11615515D01*
X10160655Y-11631432D01*
X10174568Y-11645345D01*
X10190485Y-11656909D01*
X10190485Y-11656909D01*
X10208017Y-11665842D01*
X10226728Y-11671922D01*
X10226729Y-11671922D01*
X10230600Y-11672535D01*
X10230600Y-11593070D01*
X10236701Y-11596592D01*
X10249417Y-11600000D01*
X10262583Y-11600000D01*
X10275299Y-11596592D01*
X10281400Y-11593070D01*
X10281400Y-11672535D01*
X10285271Y-11671922D01*
X10285272Y-11671922D01*
X10303983Y-11665842D01*
X10321515Y-11656909D01*
X10321515Y-11656909D01*
X10337432Y-11645345D01*
X10337432Y-11645345D01*
X10351345Y-11631432D01*
X10351345Y-11631432D01*
X10362909Y-11615515D01*
X10362909Y-11615515D01*
X10371842Y-11597983D01*
X10377922Y-11579271D01*
X10377922Y-11579269D01*
X10378535Y-11575400D01*
X10299070Y-11575400D01*
X10302593Y-11569299D01*
X10306000Y-11556583D01*
X10306000Y-11543417D01*
X10305071Y-11539949D01*
X10407950Y-11539949D01*
X10407950Y-11560051D01*
X10410004Y-11570376D01*
X10411872Y-11579767D01*
X10411872Y-11579767D01*
X10419564Y-11598338D01*
X10419565Y-11598339D01*
X10430732Y-11615053D01*
X10444947Y-11629268D01*
X10461660Y-11640435D01*
X10461661Y-11640436D01*
X10480233Y-11648128D01*
X10480233Y-11648128D01*
X10480233Y-11648128D01*
X10499949Y-11652050D01*
X10499949Y-11652050D01*
X10520051Y-11652050D01*
X10520051Y-11652050D01*
X10539767Y-11648128D01*
X10539767Y-11648128D01*
X10539768Y-11648128D01*
X10552148Y-11643000D01*
X10558339Y-11640436D01*
X10575053Y-11629267D01*
X10589267Y-11615053D01*
X10600436Y-11598339D01*
X10605129Y-11587007D01*
X10608128Y-11579767D01*
X10608128Y-11579767D01*
X10608128Y-11579767D01*
X10608128Y-11579767D01*
X10612050Y-11560051D01*
X10612050Y-11539949D01*
X10661950Y-11539949D01*
X10661950Y-11560051D01*
X10664004Y-11570376D01*
X10665872Y-11579767D01*
X10665872Y-11579767D01*
X10673564Y-11598338D01*
X10673565Y-11598339D01*
X10684732Y-11615053D01*
X10698947Y-11629268D01*
X10715660Y-11640435D01*
X10715661Y-11640436D01*
X10734233Y-11648128D01*
X10734233Y-11648128D01*
X10734233Y-11648128D01*
X10753949Y-11652050D01*
X10753949Y-11652050D01*
X10774051Y-11652050D01*
X10774051Y-11652050D01*
X10793767Y-11648128D01*
X10793767Y-11648128D01*
X10793768Y-11648128D01*
X10806148Y-11643000D01*
X10812339Y-11640436D01*
X10829053Y-11629267D01*
X10843267Y-11615053D01*
X10854436Y-11598339D01*
X10859129Y-11587007D01*
X10862128Y-11579767D01*
X10862128Y-11579767D01*
X10862128Y-11579767D01*
X10862128Y-11579767D01*
X10866050Y-11560051D01*
X10866050Y-11539949D01*
X10862997Y-11524600D01*
X10895465Y-11524600D01*
X10895465Y-11524600D01*
X10974930Y-11524600D01*
X10971408Y-11530701D01*
X10968000Y-11543417D01*
X10968000Y-11556583D01*
X10971408Y-11569299D01*
X10974930Y-11575400D01*
X10895465Y-11575400D01*
X10896078Y-11579269D01*
X10896078Y-11579271D01*
X10902158Y-11597983D01*
X10911091Y-11615515D01*
X10911091Y-11615515D01*
X10922655Y-11631432D01*
X10936568Y-11645345D01*
X10952485Y-11656909D01*
X10952485Y-11656909D01*
X10970017Y-11665842D01*
X10988728Y-11671922D01*
X10988729Y-11671922D01*
X10992600Y-11672535D01*
X10992600Y-11672535D01*
X10992600Y-11593070D01*
X10998701Y-11596592D01*
X11011417Y-11600000D01*
X11024583Y-11600000D01*
X11037299Y-11596592D01*
X11043400Y-11593070D01*
X11043400Y-11672535D01*
X11047271Y-11671922D01*
X11047272Y-11671922D01*
X11065983Y-11665842D01*
X11083515Y-11656909D01*
X11083515Y-11656909D01*
X11099432Y-11645345D01*
X11099432Y-11645345D01*
X11113345Y-11631432D01*
X11113345Y-11631432D01*
X11124909Y-11615515D01*
X11124909Y-11615515D01*
X11133842Y-11597983D01*
X11139922Y-11579271D01*
X11139922Y-11579269D01*
X11140535Y-11575400D01*
X11061070Y-11575400D01*
X11064593Y-11569299D01*
X11068000Y-11556583D01*
X11068000Y-11543417D01*
X11067071Y-11539949D01*
X11169950Y-11539949D01*
X11169950Y-11560051D01*
X11172004Y-11570376D01*
X11173872Y-11579767D01*
X11173872Y-11579767D01*
X11181564Y-11598338D01*
X11181565Y-11598339D01*
X11192732Y-11615053D01*
X11206947Y-11629268D01*
X11223660Y-11640435D01*
X11223661Y-11640436D01*
X11242232Y-11648128D01*
X11242233Y-11648128D01*
X11242233Y-11648128D01*
X11261949Y-11652050D01*
X11261949Y-11652050D01*
X11282051Y-11652050D01*
X11282051Y-11652050D01*
X11301767Y-11648128D01*
X11301767Y-11648128D01*
X11301767Y-11648128D01*
X11314148Y-11643000D01*
X11320339Y-11640436D01*
X11337053Y-11629267D01*
X11351267Y-11615053D01*
X11362436Y-11598339D01*
X11367129Y-11587007D01*
X11370128Y-11579767D01*
X11370128Y-11579767D01*
X11370128Y-11579767D01*
X11370128Y-11579767D01*
X11374050Y-11560051D01*
X11374050Y-11539949D01*
X11423950Y-11539949D01*
X11423950Y-11560051D01*
X11426004Y-11570376D01*
X11427872Y-11579767D01*
X11427872Y-11579767D01*
X11435564Y-11598338D01*
X11435565Y-11598339D01*
X11446732Y-11615053D01*
X11460947Y-11629268D01*
X11477660Y-11640435D01*
X11477661Y-11640436D01*
X11496232Y-11648128D01*
X11496233Y-11648128D01*
X11496233Y-11648128D01*
X11515949Y-11652050D01*
X11515949Y-11652050D01*
X11536051Y-11652050D01*
X11536051Y-11652050D01*
X11555767Y-11648128D01*
X11555767Y-11648128D01*
X11555767Y-11648128D01*
X11568148Y-11643000D01*
X11574339Y-11640436D01*
X11591053Y-11629267D01*
X11605267Y-11615053D01*
X11616436Y-11598339D01*
X11621129Y-11587007D01*
X11624128Y-11579767D01*
X11624128Y-11579767D01*
X11624128Y-11579767D01*
X11624128Y-11579767D01*
X11628050Y-11560051D01*
X11628050Y-11539949D01*
X11677950Y-11539949D01*
X11677950Y-11560051D01*
X11680004Y-11570376D01*
X11681872Y-11579767D01*
X11681872Y-11579767D01*
X11689564Y-11598338D01*
X11689565Y-11598339D01*
X11700732Y-11615053D01*
X11714947Y-11629268D01*
X11731660Y-11640435D01*
X11731661Y-11640436D01*
X11750232Y-11648128D01*
X11750233Y-11648128D01*
X11750233Y-11648128D01*
X11769949Y-11652050D01*
X11769949Y-11652050D01*
X11790051Y-11652050D01*
X11790051Y-11652050D01*
X11809767Y-11648128D01*
X11809767Y-11648128D01*
X11809767Y-11648128D01*
X11822148Y-11643000D01*
X11828339Y-11640436D01*
X11845053Y-11629267D01*
X11859267Y-11615053D01*
X11870436Y-11598339D01*
X11875129Y-11587007D01*
X11878128Y-11579767D01*
X11878128Y-11579767D01*
X11878128Y-11579767D01*
X11878128Y-11579767D01*
X11882050Y-11560051D01*
X11882050Y-11539949D01*
X11931950Y-11539949D01*
X11931950Y-11560051D01*
X11934004Y-11570376D01*
X11935872Y-11579767D01*
X11935872Y-11579767D01*
X11943564Y-11598338D01*
X11943565Y-11598339D01*
X11954732Y-11615053D01*
X11968947Y-11629268D01*
X11985660Y-11640435D01*
X11985661Y-11640436D01*
X12004232Y-11648128D01*
X12004233Y-11648128D01*
X12004233Y-11648128D01*
X12023949Y-11652050D01*
X12023949Y-11652050D01*
X12044051Y-11652050D01*
X12044051Y-11652050D01*
X12063767Y-11648128D01*
X12063767Y-11648128D01*
X12063767Y-11648128D01*
X12076148Y-11643000D01*
X12082339Y-11640436D01*
X12099053Y-11629267D01*
X12113267Y-11615053D01*
X12124436Y-11598339D01*
X12129129Y-11587007D01*
X12132128Y-11579767D01*
X12132128Y-11579767D01*
X12132128Y-11579767D01*
X12132128Y-11579767D01*
X12136050Y-11560051D01*
X12136050Y-11539949D01*
X12132997Y-11524600D01*
X12165465Y-11524600D01*
X12165465Y-11524600D01*
X12244930Y-11524600D01*
X12241407Y-11530701D01*
X12238000Y-11543417D01*
X12238000Y-11556583D01*
X12241407Y-11569299D01*
X12244930Y-11575400D01*
X12165465Y-11575400D01*
X12166077Y-11579269D01*
X12166078Y-11579271D01*
X12172158Y-11597983D01*
X12181091Y-11615515D01*
X12181091Y-11615515D01*
X12192655Y-11631432D01*
X12206568Y-11645345D01*
X12222485Y-11656909D01*
X12222485Y-11656909D01*
X12240017Y-11665842D01*
X12258728Y-11671922D01*
X12258729Y-11671922D01*
X12262600Y-11672535D01*
X12262600Y-11672535D01*
X12262600Y-11593070D01*
X12268701Y-11596592D01*
X12281417Y-11600000D01*
X12294583Y-11600000D01*
X12307299Y-11596592D01*
X12313400Y-11593070D01*
X12313400Y-11672535D01*
X12317271Y-11671922D01*
X12317271Y-11671922D01*
X12335983Y-11665842D01*
X12353515Y-11656909D01*
X12353515Y-11656909D01*
X12369432Y-11645345D01*
X12369432Y-11645345D01*
X12383345Y-11631432D01*
X12383345Y-11631432D01*
X12394909Y-11615515D01*
X12394909Y-11615515D01*
X12403842Y-11597983D01*
X12409922Y-11579271D01*
X12409922Y-11579269D01*
X12410535Y-11575400D01*
X12331070Y-11575400D01*
X12334592Y-11569299D01*
X12338000Y-11556583D01*
X12338000Y-11543417D01*
X12334592Y-11530701D01*
X12331070Y-11524600D01*
X12410535Y-11524600D01*
X12410535Y-11524600D01*
X12409922Y-11520731D01*
X12409922Y-11520728D01*
X12403842Y-11502017D01*
X12394909Y-11484485D01*
X12394909Y-11484485D01*
X12383345Y-11468568D01*
X12369432Y-11454655D01*
X12353515Y-11443091D01*
X12353515Y-11443091D01*
X12335983Y-11434158D01*
X12317271Y-11428078D01*
X12317269Y-11428077D01*
X12313400Y-11427465D01*
X12313400Y-11506930D01*
X12307299Y-11503407D01*
X12294583Y-11500000D01*
X12281417Y-11500000D01*
X12268701Y-11503407D01*
X12262600Y-11506930D01*
X12262600Y-11427465D01*
X12258731Y-11428077D01*
X12258728Y-11428078D01*
X12240017Y-11434158D01*
X12222485Y-11443091D01*
X12222485Y-11443091D01*
X12206568Y-11454655D01*
X12206568Y-11454655D01*
X12192655Y-11468568D01*
X12192655Y-11468568D01*
X12181091Y-11484485D01*
X12181091Y-11484485D01*
X12172158Y-11502017D01*
X12166078Y-11520728D01*
X12166077Y-11520731D01*
X12165465Y-11524600D01*
X12132997Y-11524600D01*
X12132128Y-11520233D01*
X12132128Y-11520232D01*
X12132128Y-11520232D01*
X12124436Y-11501661D01*
X12124435Y-11501660D01*
X12113268Y-11484947D01*
X12099053Y-11470732D01*
X12082339Y-11459565D01*
X12082338Y-11459564D01*
X12063767Y-11451872D01*
X12063767Y-11451872D01*
X12044051Y-11447950D01*
X12023949Y-11447950D01*
X12009060Y-11450912D01*
X12004232Y-11451872D01*
X12004232Y-11451872D01*
X11985661Y-11459564D01*
X11985660Y-11459565D01*
X11968947Y-11470732D01*
X11954732Y-11484947D01*
X11943565Y-11501660D01*
X11943564Y-11501661D01*
X11935872Y-11520232D01*
X11935872Y-11520232D01*
X11935773Y-11520731D01*
X11931950Y-11539949D01*
X11882050Y-11539949D01*
X11878128Y-11520233D01*
X11878128Y-11520232D01*
X11878128Y-11520232D01*
X11870436Y-11501661D01*
X11870435Y-11501660D01*
X11859268Y-11484947D01*
X11845053Y-11470732D01*
X11828339Y-11459565D01*
X11828338Y-11459564D01*
X11809767Y-11451872D01*
X11809767Y-11451872D01*
X11790051Y-11447950D01*
X11769949Y-11447950D01*
X11755060Y-11450912D01*
X11750232Y-11451872D01*
X11750232Y-11451872D01*
X11731661Y-11459564D01*
X11731660Y-11459565D01*
X11714947Y-11470732D01*
X11700732Y-11484947D01*
X11689565Y-11501660D01*
X11689564Y-11501661D01*
X11681872Y-11520232D01*
X11681872Y-11520232D01*
X11681773Y-11520731D01*
X11677950Y-11539949D01*
X11628050Y-11539949D01*
X11624128Y-11520233D01*
X11624128Y-11520232D01*
X11624128Y-11520232D01*
X11616436Y-11501661D01*
X11616435Y-11501660D01*
X11605268Y-11484947D01*
X11591053Y-11470732D01*
X11574339Y-11459565D01*
X11574338Y-11459564D01*
X11555767Y-11451872D01*
X11555767Y-11451872D01*
X11536051Y-11447950D01*
X11515949Y-11447950D01*
X11501060Y-11450912D01*
X11496232Y-11451872D01*
X11496232Y-11451872D01*
X11477661Y-11459564D01*
X11477660Y-11459565D01*
X11460947Y-11470732D01*
X11446732Y-11484947D01*
X11435565Y-11501660D01*
X11435564Y-11501661D01*
X11427872Y-11520232D01*
X11427872Y-11520232D01*
X11427773Y-11520731D01*
X11423950Y-11539949D01*
X11374050Y-11539949D01*
X11370128Y-11520233D01*
X11370128Y-11520232D01*
X11370128Y-11520232D01*
X11362436Y-11501661D01*
X11362435Y-11501660D01*
X11351268Y-11484947D01*
X11337053Y-11470732D01*
X11320339Y-11459565D01*
X11320338Y-11459564D01*
X11301767Y-11451872D01*
X11301767Y-11451872D01*
X11282051Y-11447950D01*
X11261949Y-11447950D01*
X11247060Y-11450912D01*
X11242232Y-11451872D01*
X11242232Y-11451872D01*
X11223661Y-11459564D01*
X11223660Y-11459565D01*
X11206947Y-11470732D01*
X11192732Y-11484947D01*
X11181565Y-11501660D01*
X11181564Y-11501661D01*
X11173872Y-11520232D01*
X11173872Y-11520232D01*
X11173773Y-11520731D01*
X11169950Y-11539949D01*
X11067071Y-11539949D01*
X11064593Y-11530701D01*
X11061070Y-11524600D01*
X11140535Y-11524600D01*
X11140535Y-11524600D01*
X11139922Y-11520731D01*
X11139922Y-11520728D01*
X11133842Y-11502017D01*
X11124909Y-11484485D01*
X11124909Y-11484485D01*
X11113345Y-11468568D01*
X11099432Y-11454655D01*
X11083515Y-11443091D01*
X11083515Y-11443091D01*
X11065983Y-11434158D01*
X11047271Y-11428078D01*
X11047269Y-11428077D01*
X11043400Y-11427465D01*
X11043400Y-11506930D01*
X11037299Y-11503407D01*
X11024583Y-11500000D01*
X11011417Y-11500000D01*
X10998701Y-11503407D01*
X10992600Y-11506930D01*
X10992600Y-11427465D01*
X10992600Y-11427465D01*
X10988731Y-11428077D01*
X10988729Y-11428078D01*
X10970017Y-11434158D01*
X10952485Y-11443091D01*
X10952485Y-11443091D01*
X10936568Y-11454655D01*
X10936568Y-11454655D01*
X10922655Y-11468568D01*
X10922655Y-11468568D01*
X10911091Y-11484485D01*
X10911091Y-11484485D01*
X10902158Y-11502017D01*
X10896078Y-11520728D01*
X10896078Y-11520731D01*
X10895465Y-11524600D01*
X10862997Y-11524600D01*
X10862128Y-11520233D01*
X10862128Y-11520232D01*
X10862128Y-11520232D01*
X10854436Y-11501661D01*
X10854435Y-11501660D01*
X10843268Y-11484947D01*
X10829053Y-11470732D01*
X10812340Y-11459565D01*
X10812339Y-11459564D01*
X10793767Y-11451872D01*
X10793767Y-11451872D01*
X10774051Y-11447950D01*
X10753949Y-11447950D01*
X10739060Y-11450912D01*
X10734233Y-11451872D01*
X10734232Y-11451872D01*
X10715661Y-11459564D01*
X10715660Y-11459565D01*
X10698947Y-11470732D01*
X10684732Y-11484947D01*
X10673565Y-11501660D01*
X10673564Y-11501661D01*
X10665872Y-11520232D01*
X10665872Y-11520232D01*
X10665773Y-11520731D01*
X10661950Y-11539949D01*
X10612050Y-11539949D01*
X10608128Y-11520233D01*
X10608128Y-11520232D01*
X10608128Y-11520232D01*
X10600436Y-11501661D01*
X10600435Y-11501660D01*
X10589268Y-11484947D01*
X10575053Y-11470732D01*
X10558340Y-11459565D01*
X10558339Y-11459564D01*
X10539767Y-11451872D01*
X10539767Y-11451872D01*
X10520051Y-11447950D01*
X10499949Y-11447950D01*
X10485060Y-11450912D01*
X10480233Y-11451872D01*
X10480232Y-11451872D01*
X10461661Y-11459564D01*
X10461660Y-11459565D01*
X10444947Y-11470732D01*
X10430732Y-11484947D01*
X10419565Y-11501660D01*
X10419564Y-11501661D01*
X10411872Y-11520232D01*
X10411872Y-11520232D01*
X10411773Y-11520731D01*
X10407950Y-11539949D01*
X10305071Y-11539949D01*
X10302593Y-11530701D01*
X10299070Y-11524600D01*
X10378535Y-11524600D01*
X10378535Y-11524600D01*
X10377922Y-11520731D01*
X10377922Y-11520728D01*
X10371842Y-11502017D01*
X10362909Y-11484485D01*
X10362909Y-11484485D01*
X10351345Y-11468568D01*
X10337432Y-11454655D01*
X10321515Y-11443091D01*
X10321515Y-11443091D01*
X10303983Y-11434158D01*
X10285271Y-11428078D01*
X10285269Y-11428077D01*
X10281400Y-11427465D01*
X10281400Y-11506930D01*
X10275299Y-11503407D01*
X10262583Y-11500000D01*
X10249417Y-11500000D01*
X10236701Y-11503407D01*
X10230600Y-11506930D01*
X10230600Y-11427465D01*
X10226731Y-11428077D01*
X10226729Y-11428078D01*
X10208017Y-11434158D01*
X10190485Y-11443091D01*
X10190485Y-11443091D01*
X10174568Y-11454655D01*
X10174568Y-11454655D01*
X10160655Y-11468568D01*
X10160655Y-11468568D01*
X10149091Y-11484485D01*
X10149091Y-11484485D01*
X10140158Y-11502017D01*
X10134078Y-11520728D01*
X10134078Y-11520731D01*
X10133465Y-11524600D01*
X10100997Y-11524600D01*
X10100128Y-11520233D01*
X10100128Y-11520232D01*
X10100128Y-11520232D01*
X10092436Y-11501661D01*
X10092435Y-11501660D01*
X10081268Y-11484947D01*
X10067053Y-11470732D01*
X10050340Y-11459565D01*
X10050339Y-11459564D01*
X10031767Y-11451872D01*
X10031767Y-11451872D01*
X10012051Y-11447950D01*
X9991949Y-11447950D01*
X9977060Y-11450912D01*
X9972233Y-11451872D01*
X9972232Y-11451872D01*
X9953661Y-11459564D01*
X9953660Y-11459565D01*
X9936947Y-11470732D01*
X9922732Y-11484947D01*
X9911565Y-11501660D01*
X9911564Y-11501661D01*
X9903872Y-11520232D01*
X9903872Y-11520232D01*
X9903773Y-11520731D01*
X9899950Y-11539949D01*
X9850050Y-11539949D01*
X9846128Y-11520233D01*
X9846128Y-11520232D01*
X9846128Y-11520232D01*
X9838436Y-11501661D01*
X9838435Y-11501660D01*
X9827268Y-11484947D01*
X9813053Y-11470732D01*
X9796340Y-11459565D01*
X9796339Y-11459564D01*
X9777767Y-11451872D01*
X9777767Y-11451872D01*
X9758051Y-11447950D01*
X9737949Y-11447950D01*
X9723060Y-11450912D01*
X9718233Y-11451872D01*
X9718232Y-11451872D01*
X9699661Y-11459564D01*
X9699660Y-11459565D01*
X9682947Y-11470732D01*
X9668732Y-11484947D01*
X9657565Y-11501660D01*
X9657564Y-11501661D01*
X9649872Y-11520232D01*
X9649872Y-11520232D01*
X9649773Y-11520731D01*
X9645950Y-11539949D01*
X9598776Y-11539949D01*
X9599126Y-11536860D01*
X9599156Y-11536619D01*
X9599506Y-11534039D01*
X9602007Y-11515599D01*
X9602208Y-11514512D01*
X9604051Y-11506715D01*
X9604424Y-11505464D01*
X9606970Y-11498425D01*
X9607622Y-11496957D01*
X9610941Y-11490708D01*
X9611149Y-11490317D01*
X9612060Y-11488873D01*
X9617187Y-11481961D01*
X9618235Y-11480740D01*
X9625773Y-11473116D01*
X9626807Y-11472190D01*
X9634941Y-11465757D01*
X9635146Y-11465599D01*
X9661552Y-11445727D01*
X9662071Y-11445359D01*
X9715146Y-11409895D01*
X9715684Y-11409557D01*
X9770668Y-11377123D01*
X9771221Y-11376817D01*
X9827936Y-11347518D01*
X9828508Y-11347242D01*
X9883826Y-11322489D01*
X11142950Y-11322489D01*
X11142950Y-11337511D01*
X11145946Y-11348692D01*
X11146838Y-11352020D01*
X11154349Y-11365029D01*
X11154349Y-11365030D01*
X11164970Y-11375651D01*
X11164971Y-11375651D01*
X11177980Y-11383162D01*
X11192489Y-11387050D01*
X11192489Y-11387050D01*
X11207510Y-11387050D01*
X11207511Y-11387050D01*
X11222020Y-11383162D01*
X11235029Y-11375651D01*
X11245651Y-11365029D01*
X11253162Y-11352020D01*
X11257050Y-11337511D01*
X11257050Y-11322489D01*
X11292950Y-11322489D01*
X11292950Y-11337511D01*
X11295946Y-11348692D01*
X11296838Y-11352020D01*
X11304348Y-11365029D01*
X11304349Y-11365030D01*
X11314970Y-11375651D01*
X11314970Y-11375651D01*
X11327979Y-11383162D01*
X11342489Y-11387050D01*
X11342489Y-11387050D01*
X11357510Y-11387050D01*
X11357511Y-11387050D01*
X11372020Y-11383162D01*
X11385029Y-11375651D01*
X11395651Y-11365029D01*
X11403162Y-11352020D01*
X11407050Y-11337511D01*
X11407050Y-11322489D01*
X11403162Y-11307979D01*
X11395651Y-11294970D01*
X11395651Y-11294970D01*
X11385030Y-11284349D01*
X11385029Y-11284348D01*
X11372020Y-11276838D01*
X11357511Y-11272950D01*
X11342489Y-11272950D01*
X11332798Y-11275547D01*
X11327979Y-11276838D01*
X11314970Y-11284348D01*
X11314970Y-11284349D01*
X11304349Y-11294970D01*
X11304348Y-11294970D01*
X11296838Y-11307979D01*
X11296838Y-11307979D01*
X11292950Y-11322489D01*
X11257050Y-11322489D01*
X11253162Y-11307979D01*
X11245651Y-11294970D01*
X11245651Y-11294970D01*
X11235030Y-11284349D01*
X11235029Y-11284348D01*
X11222020Y-11276838D01*
X11207511Y-11272950D01*
X11192489Y-11272950D01*
X11182798Y-11275547D01*
X11177979Y-11276838D01*
X11164971Y-11284348D01*
X11164970Y-11284349D01*
X11154349Y-11294970D01*
X11154349Y-11294970D01*
X11146838Y-11307979D01*
X11146838Y-11307979D01*
X11142950Y-11322489D01*
X9883826Y-11322489D01*
X9886777Y-11321169D01*
X9887360Y-11320927D01*
X9946999Y-11298162D01*
X9947599Y-11297952D01*
X10008419Y-11278567D01*
X10009027Y-11278392D01*
X10070841Y-11262447D01*
X10071460Y-11262306D01*
X10134069Y-11249852D01*
X10134694Y-11249746D01*
X10197901Y-11240823D01*
X10198535Y-11240751D01*
X10262141Y-11235386D01*
X10262779Y-11235351D01*
X10303693Y-11234203D01*
X10326800Y-11233554D01*
X10327120Y-11233550D01*
X10331938Y-11233550D01*
X11679450Y-11233550D01*
X11679451Y-11233550D01*
X11684485Y-11233550D01*
X11688242Y-11233550D01*
X11689160Y-11233550D01*
X11689162Y-11233550D01*
X11692715Y-11233550D01*
X11701708Y-11231963D01*
X11708922Y-11230691D01*
X11708922Y-11230691D01*
X11708923Y-11230691D01*
X11724390Y-11225061D01*
X11738643Y-11216831D01*
X11751252Y-11206252D01*
X11761831Y-11193643D01*
X11770061Y-11179390D01*
X11775691Y-11163923D01*
X11778550Y-11147715D01*
X11778550Y-11143243D01*
X11778550Y-11143242D01*
X11778550Y-11138396D01*
X11778550Y-11134451D01*
X11778550Y-11134451D01*
X11778550Y-11133534D01*
X11778550Y-11133531D01*
X11778550Y-11110000D01*
X11921450Y-11110000D01*
X11921450Y-11160616D01*
G37*
%TD.AperFunction*%
%TD*%
%TA.AperFunction,Conductor*%
%TO.N,/I2C4_SCL*%
G36*
X12956310Y-8742854D02*
G01*
X12976843Y-8753911D01*
X12985344Y-8757029D01*
X12993576Y-8758992D01*
X13011885Y-8760769D01*
X13010085Y-8800053D01*
X12972028Y-8810844D01*
X12969712Y-8802054D01*
X12967797Y-8794735D01*
X12963003Y-8782183D01*
X12955305Y-8771601D01*
X12949354Y-8766231D01*
X12942227Y-8761223D01*
X12941818Y-8760602D01*
X12953909Y-8741359D01*
X12956310Y-8742854D01*
G37*
%TD.AperFunction*%
%TD*%
%TA.AperFunction,Conductor*%
%TO.N,/UART1_TXD*%
G36*
X12431904Y-11423575D02*
G01*
X12444070Y-11434769D01*
X12444071Y-11434770D01*
X12456238Y-11443946D01*
X12456239Y-11443947D01*
X12463234Y-11448063D01*
X12467799Y-11450750D01*
X12467800Y-11450750D01*
X12467800Y-11450751D01*
X12472764Y-11452899D01*
X12478972Y-11455587D01*
X12478973Y-11455587D01*
X12478973Y-11455587D01*
X12478973Y-11455587D01*
X12488068Y-11458292D01*
X12489978Y-11458860D01*
X12501033Y-11460976D01*
X12524166Y-11463353D01*
X12524170Y-11463356D01*
X12524171Y-11463354D01*
X12553583Y-11466503D01*
X12554369Y-11466932D01*
X12554622Y-11467791D01*
X12554615Y-11467843D01*
X12542200Y-11549220D01*
X12541737Y-11549986D01*
X12541220Y-11550200D01*
X12459843Y-11562615D01*
X12458973Y-11562401D01*
X12458510Y-11561635D01*
X12458503Y-11561583D01*
X12457270Y-11550071D01*
X12455354Y-11532171D01*
X12453885Y-11516020D01*
X12450301Y-11495740D01*
X12443825Y-11477980D01*
X12438998Y-11469036D01*
X12438167Y-11467791D01*
X12435205Y-11463353D01*
X12432818Y-11459776D01*
X12424760Y-11449714D01*
X12415588Y-11439905D01*
X12415273Y-11439066D01*
X12415615Y-11438278D01*
X12430285Y-11423608D01*
X12431112Y-11423266D01*
X12431904Y-11423575D01*
G37*
%TD.AperFunction*%
%TD*%
%TA.AperFunction,Conductor*%
%TO.N,/I2C4_SCL*%
G36*
X9615123Y-11431221D02*
G01*
X9627131Y-11448145D01*
X9627331Y-11449018D01*
X9626903Y-11449740D01*
X9614535Y-11459521D01*
X9604314Y-11469859D01*
X9596669Y-11480164D01*
X9591163Y-11490531D01*
X9591163Y-11490532D01*
X9587355Y-11501058D01*
X9587355Y-11501060D01*
X9584805Y-11511844D01*
X9584805Y-11511845D01*
X9581723Y-11534577D01*
X9580798Y-11542743D01*
X9580790Y-11542799D01*
X9576858Y-11567067D01*
X9576387Y-11567829D01*
X9575516Y-11568035D01*
X9575451Y-11568023D01*
X9494754Y-11550242D01*
X9494020Y-11549729D01*
X9493841Y-11549206D01*
X9486410Y-11467824D01*
X9486676Y-11466970D01*
X9487469Y-11466553D01*
X9487487Y-11466552D01*
X9511985Y-11464868D01*
X9518853Y-11464480D01*
X9535918Y-11462822D01*
X9543941Y-11462042D01*
X9543942Y-11462042D01*
X9543942Y-11462042D01*
X9564782Y-11457020D01*
X9575520Y-11452936D01*
X9586957Y-11447463D01*
X9600052Y-11439920D01*
X9613519Y-11430925D01*
X9614397Y-11430750D01*
X9615123Y-11431221D01*
G37*
%TD.AperFunction*%
%TD*%
%TA.AperFunction,Conductor*%
%TO.N,/UART1_RXD*%
G36*
X12844357Y-8981316D02*
G01*
X12845391Y-8981912D01*
X12851784Y-8985599D01*
X12851785Y-8985599D01*
X12851785Y-8985599D01*
X12851786Y-8985600D01*
X12856245Y-8987790D01*
X12859143Y-8989214D01*
X12859145Y-8989215D01*
X12865704Y-8991825D01*
X12865705Y-8991826D01*
X12871724Y-8993665D01*
X12877460Y-8994964D01*
X12883170Y-8995957D01*
X12889111Y-8996876D01*
X12895520Y-8997949D01*
X12895557Y-8997956D01*
X12902688Y-8999415D01*
X12902743Y-8999428D01*
X12910081Y-9001304D01*
X12910798Y-9001841D01*
X12910958Y-9002346D01*
X12914851Y-9052077D01*
X12914574Y-9052928D01*
X12913776Y-9053335D01*
X12913730Y-9053337D01*
X12863894Y-9055284D01*
X12863054Y-9054973D01*
X12862752Y-9054524D01*
X12860364Y-9048133D01*
X12860342Y-9048070D01*
X12858339Y-9041535D01*
X12858329Y-9041499D01*
X12856701Y-9035472D01*
X12855157Y-9029866D01*
X12855157Y-9029863D01*
X12853410Y-9024611D01*
X12853410Y-9024611D01*
X12853410Y-9024610D01*
X12851165Y-9019614D01*
X12848129Y-9014782D01*
X12844007Y-9010021D01*
X12838505Y-9005239D01*
X12838504Y-9005239D01*
X12832250Y-9000971D01*
X12831760Y-9000222D01*
X12831913Y-8999392D01*
X12842776Y-8981716D01*
X12843501Y-8981191D01*
X12844357Y-8981316D01*
G37*
%TD.AperFunction*%
%TD*%
%TA.AperFunction,Conductor*%
%TO.N,/UART1_RXD*%
G36*
X12846310Y-8982854D02*
G01*
X12866843Y-8993911D01*
X12875344Y-8997029D01*
X12883576Y-8998992D01*
X12901885Y-9000769D01*
X12900085Y-9040053D01*
X12862028Y-9050844D01*
X12859712Y-9042054D01*
X12857797Y-9034735D01*
X12853003Y-9022183D01*
X12845305Y-9011601D01*
X12839354Y-9006231D01*
X12832227Y-9001223D01*
X12831818Y-9000602D01*
X12843909Y-8981359D01*
X12846310Y-8982854D01*
G37*
%TD.AperFunction*%
%TD*%
%TA.AperFunction,Conductor*%
%TO.N,/I2C4_SDA*%
G36*
X13042512Y-9005736D02*
G01*
X13054444Y-9009742D01*
X13064532Y-9010830D01*
X13073825Y-9008408D01*
X13078694Y-9005481D01*
X13082855Y-9001889D01*
X13083705Y-9001607D01*
X13084447Y-9001947D01*
X13099263Y-9016763D01*
X13099606Y-9017591D01*
X13099504Y-9017839D01*
X13087188Y-9029034D01*
X13076560Y-9037271D01*
X13063343Y-9048178D01*
X13058603Y-9053571D01*
X13054068Y-9060268D01*
X13019929Y-9040071D01*
X13028885Y-9002395D01*
X13028966Y-9002282D01*
X13028976Y-9002144D01*
X13029220Y-9001932D01*
X13029409Y-9001669D01*
X13029651Y-9001556D01*
X13029749Y-9001523D01*
X13042512Y-9005736D01*
G37*
%TD.AperFunction*%
%TD*%
%TA.AperFunction,Conductor*%
%TO.N,/UART1_TXD*%
G36*
X12870090Y-8819957D02*
G01*
X12870956Y-8859231D01*
X12856364Y-8860443D01*
X12843546Y-8863598D01*
X12829588Y-8869183D01*
X12828149Y-8869862D01*
X12828149Y-8869862D01*
X12812484Y-8877254D01*
X12811589Y-8877297D01*
X12811253Y-8877007D01*
X12801598Y-8856959D01*
X12808665Y-8853043D01*
X12814280Y-8848877D01*
X12822010Y-8839831D01*
X12826498Y-8829900D01*
X12829456Y-8819162D01*
X12832466Y-8808098D01*
X12870090Y-8819957D01*
G37*
%TD.AperFunction*%
%TD*%
%TA.AperFunction,Conductor*%
%TO.N,GND*%
G36*
X12768888Y-8728565D02*
G01*
X12798628Y-8730026D01*
X12799857Y-8730147D01*
X12809249Y-8731540D01*
X12815694Y-8734518D01*
X12819505Y-8740508D01*
X12820000Y-8744004D01*
X12820000Y-8789126D01*
X12819672Y-8790476D01*
X12819771Y-8791518D01*
X12818764Y-8794215D01*
X12818596Y-8794906D01*
X12818460Y-8795170D01*
X12816838Y-8797980D01*
X12816729Y-8798387D01*
X12816616Y-8798563D01*
X12816334Y-8799289D01*
X12816334Y-8799289D01*
X12814175Y-8804830D01*
X12813988Y-8805334D01*
X12813965Y-8805398D01*
X12813797Y-8805895D01*
X12811722Y-8812363D01*
X12811683Y-8812489D01*
X12811645Y-8812611D01*
X12811634Y-8812645D01*
X12811566Y-8812877D01*
X12811547Y-8812944D01*
X12809872Y-8818819D01*
X12809848Y-8818903D01*
X12808486Y-8823558D01*
X12808271Y-8824226D01*
X12807249Y-8827112D01*
X12806735Y-8828350D01*
X12806039Y-8829803D01*
X12805126Y-8831400D01*
X12804576Y-8832215D01*
X12803308Y-8833804D01*
X12802289Y-8834888D01*
X12800895Y-8836164D01*
X12798510Y-8838040D01*
X12797232Y-8838923D01*
X12792459Y-8841803D01*
X12792084Y-8842079D01*
X12790709Y-8842960D01*
X12783605Y-8846886D01*
X12782332Y-8847499D01*
X12758298Y-8857454D01*
X12756964Y-8857921D01*
X12731969Y-8865122D01*
X12730591Y-8865437D01*
X12704945Y-8869794D01*
X12703541Y-8869953D01*
X12678711Y-8871347D01*
X12677236Y-8871430D01*
X12676530Y-8871450D01*
X12295000Y-8871450D01*
X12295000Y-8728550D01*
X12763545Y-8728550D01*
X12768270Y-8728550D01*
X12768888Y-8728565D01*
G37*
%TD.AperFunction*%
%TD*%
%TA.AperFunction,Conductor*%
%TO.N,GND*%
G36*
X12768607Y-8728551D02*
G01*
X12799189Y-8730054D01*
X12799303Y-8730065D01*
X12819002Y-8732987D01*
X12819770Y-8733447D01*
X12820000Y-8734144D01*
X12820000Y-8790000D01*
X12820281Y-8790281D01*
X12820624Y-8791108D01*
X12820467Y-8791693D01*
X12816838Y-8797980D01*
X12816775Y-8798213D01*
X12816632Y-8798538D01*
X12816616Y-8798562D01*
X12816616Y-8798563D01*
X12814175Y-8804831D01*
X12813988Y-8805333D01*
X12813965Y-8805399D01*
X12813797Y-8805896D01*
X12812707Y-8809295D01*
X12811724Y-8812356D01*
X12811723Y-8812361D01*
X12811646Y-8812608D01*
X12811645Y-8812611D01*
X12811634Y-8812645D01*
X12811633Y-8812651D01*
X12811546Y-8812946D01*
X12809863Y-8818853D01*
X12809860Y-8818860D01*
X12808397Y-8823865D01*
X12808377Y-8823927D01*
X12807046Y-8827685D01*
X12806998Y-8827800D01*
X12805678Y-8830558D01*
X12805593Y-8830706D01*
X12804059Y-8832983D01*
X12803941Y-8833130D01*
X12801701Y-8835514D01*
X12801572Y-8835633D01*
X12797955Y-8838476D01*
X12797836Y-8838559D01*
X12792459Y-8841802D01*
X12792459Y-8841803D01*
X12791991Y-8842218D01*
X12791780Y-8842368D01*
X12783042Y-8847197D01*
X12782924Y-8847254D01*
X12757706Y-8857700D01*
X12757582Y-8857743D01*
X12731352Y-8865300D01*
X12731224Y-8865329D01*
X12704313Y-8869902D01*
X12704182Y-8869917D01*
X12676916Y-8871448D01*
X12676850Y-8871450D01*
X12121461Y-8871450D01*
X12121262Y-8871433D01*
X12121248Y-8871431D01*
X12116266Y-8871450D01*
X12112566Y-8871450D01*
X12112539Y-8871454D01*
X12112391Y-8871463D01*
X12105080Y-8871486D01*
X12083046Y-8874707D01*
X12083046Y-8874707D01*
X12083046Y-8874707D01*
X12075003Y-8877075D01*
X12061684Y-8880997D01*
X12052450Y-8885205D01*
X12041420Y-8890231D01*
X12035859Y-8893787D01*
X12022658Y-8902226D01*
X12005771Y-8916742D01*
X12005771Y-8916742D01*
X11991095Y-8933491D01*
X11991095Y-8933491D01*
X11978924Y-8952137D01*
X11978923Y-8952138D01*
X11974309Y-8962035D01*
X11974301Y-8962051D01*
X11943750Y-9025005D01*
X11943750Y-9025006D01*
X11941762Y-9029101D01*
X11941761Y-9029102D01*
X11940708Y-9031273D01*
X11940708Y-9031274D01*
X11939882Y-9032976D01*
X11939877Y-9032987D01*
X11936608Y-9039730D01*
X11929079Y-9061091D01*
X11924007Y-9083164D01*
X11924007Y-9083164D01*
X11921454Y-9105667D01*
X11921451Y-9113152D01*
X11921450Y-9113174D01*
X11921450Y-11125000D01*
X11778550Y-11125000D01*
X11778550Y-11103141D01*
X11827570Y-11103141D01*
X11831259Y-11106830D01*
X11848206Y-11106830D01*
X11851895Y-11103141D01*
X11875654Y-11103141D01*
X11879343Y-11106830D01*
X11896289Y-11106830D01*
X11899978Y-11103141D01*
X11887816Y-11090979D01*
X11875654Y-11103141D01*
X11851895Y-11103141D01*
X11839733Y-11090979D01*
X11827570Y-11103141D01*
X11778550Y-11103141D01*
X11778550Y-11079100D01*
X11803529Y-11079100D01*
X11815691Y-11091262D01*
X11827853Y-11079100D01*
X11851612Y-11079100D01*
X11863774Y-11091262D01*
X11875937Y-11079100D01*
X11863774Y-11066937D01*
X11851612Y-11079100D01*
X11827853Y-11079100D01*
X11815691Y-11066937D01*
X11803529Y-11079100D01*
X11778550Y-11079100D01*
X11778550Y-11063520D01*
X11795350Y-11063520D01*
X11803812Y-11055058D01*
X11827570Y-11055058D01*
X11839733Y-11067220D01*
X11851895Y-11055058D01*
X11875654Y-11055058D01*
X11887816Y-11067220D01*
X11899978Y-11055058D01*
X11887816Y-11042896D01*
X11875654Y-11055058D01*
X11851895Y-11055058D01*
X11839733Y-11042896D01*
X11827570Y-11055058D01*
X11803812Y-11055058D01*
X11803812Y-11055058D01*
X11795350Y-11046596D01*
X11795350Y-11063520D01*
X11778550Y-11063520D01*
X11778550Y-11031016D01*
X11803529Y-11031016D01*
X11815691Y-11043179D01*
X11827853Y-11031016D01*
X11851612Y-11031016D01*
X11863774Y-11043179D01*
X11875937Y-11031016D01*
X11863774Y-11018854D01*
X11851612Y-11031016D01*
X11827853Y-11031016D01*
X11815691Y-11018854D01*
X11803529Y-11031016D01*
X11778550Y-11031016D01*
X11778550Y-11015436D01*
X11795350Y-11015436D01*
X11803812Y-11006975D01*
X11827570Y-11006975D01*
X11839733Y-11019137D01*
X11851895Y-11006975D01*
X11875654Y-11006975D01*
X11887816Y-11019137D01*
X11899978Y-11006975D01*
X11887816Y-10994812D01*
X11875654Y-11006975D01*
X11851895Y-11006975D01*
X11839733Y-10994812D01*
X11827570Y-11006975D01*
X11803812Y-11006975D01*
X11795350Y-10998513D01*
X11795350Y-11015436D01*
X11778550Y-11015436D01*
X11778550Y-10982933D01*
X11803529Y-10982933D01*
X11815691Y-10995095D01*
X11827853Y-10982933D01*
X11851612Y-10982933D01*
X11863774Y-10995095D01*
X11875937Y-10982933D01*
X11863774Y-10970771D01*
X11851612Y-10982933D01*
X11827853Y-10982933D01*
X11815691Y-10970771D01*
X11803529Y-10982933D01*
X11778550Y-10982933D01*
X11778550Y-10967353D01*
X11795350Y-10967353D01*
X11803812Y-10958891D01*
X11827570Y-10958891D01*
X11839733Y-10971054D01*
X11851895Y-10958891D01*
X11875654Y-10958891D01*
X11887816Y-10971054D01*
X11899978Y-10958891D01*
X11887816Y-10946729D01*
X11875654Y-10958891D01*
X11851895Y-10958891D01*
X11839733Y-10946729D01*
X11827570Y-10958891D01*
X11803812Y-10958891D01*
X11795350Y-10950430D01*
X11795350Y-10967353D01*
X11778550Y-10967353D01*
X11778550Y-10934850D01*
X11803529Y-10934850D01*
X11815691Y-10947012D01*
X11827853Y-10934850D01*
X11851612Y-10934850D01*
X11863774Y-10947012D01*
X11875937Y-10934850D01*
X11863774Y-10922687D01*
X11851612Y-10934850D01*
X11827853Y-10934850D01*
X11815691Y-10922687D01*
X11803529Y-10934850D01*
X11778550Y-10934850D01*
X11778550Y-10919270D01*
X11795350Y-10919270D01*
X11803812Y-10910808D01*
X11827570Y-10910808D01*
X11839733Y-10922970D01*
X11851895Y-10910808D01*
X11875654Y-10910808D01*
X11887816Y-10922970D01*
X11899978Y-10910808D01*
X11887816Y-10898646D01*
X11875654Y-10910808D01*
X11851895Y-10910808D01*
X11839733Y-10898646D01*
X11827570Y-10910808D01*
X11803812Y-10910808D01*
X11803812Y-10910808D01*
X11795350Y-10902346D01*
X11795350Y-10919270D01*
X11778550Y-10919270D01*
X11778550Y-10886766D01*
X11803529Y-10886766D01*
X11815691Y-10898929D01*
X11827853Y-10886766D01*
X11851612Y-10886766D01*
X11863774Y-10898929D01*
X11875937Y-10886766D01*
X11863774Y-10874604D01*
X11851612Y-10886766D01*
X11827853Y-10886766D01*
X11815691Y-10874604D01*
X11803529Y-10886766D01*
X11778550Y-10886766D01*
X11778550Y-10871187D01*
X11795350Y-10871187D01*
X11803812Y-10862725D01*
X11827570Y-10862725D01*
X11839733Y-10874887D01*
X11851895Y-10862725D01*
X11875654Y-10862725D01*
X11887816Y-10874887D01*
X11899978Y-10862725D01*
X11887816Y-10850563D01*
X11875654Y-10862725D01*
X11851895Y-10862725D01*
X11839733Y-10850563D01*
X11827570Y-10862725D01*
X11803812Y-10862725D01*
X11795350Y-10854263D01*
X11795350Y-10871187D01*
X11778550Y-10871187D01*
X11778550Y-10838683D01*
X11803529Y-10838683D01*
X11815691Y-10850846D01*
X11827853Y-10838683D01*
X11851612Y-10838683D01*
X11863774Y-10850845D01*
X11875937Y-10838683D01*
X11863774Y-10826521D01*
X11851612Y-10838683D01*
X11827853Y-10838683D01*
X11815691Y-10826521D01*
X11803529Y-10838683D01*
X11778550Y-10838683D01*
X11778550Y-10823103D01*
X11795350Y-10823103D01*
X11803812Y-10814642D01*
X11827570Y-10814642D01*
X11839733Y-10826804D01*
X11851895Y-10814642D01*
X11875654Y-10814642D01*
X11887816Y-10826804D01*
X11899978Y-10814642D01*
X11887816Y-10802479D01*
X11875654Y-10814642D01*
X11851895Y-10814642D01*
X11839733Y-10802479D01*
X11827570Y-10814642D01*
X11803812Y-10814642D01*
X11803812Y-10814642D01*
X11795350Y-10806180D01*
X11795350Y-10823103D01*
X11778550Y-10823103D01*
X11778550Y-10790600D01*
X11803529Y-10790600D01*
X11815691Y-10802762D01*
X11827853Y-10790600D01*
X11851612Y-10790600D01*
X11863774Y-10802762D01*
X11875937Y-10790600D01*
X11863774Y-10778438D01*
X11851612Y-10790600D01*
X11827853Y-10790600D01*
X11815691Y-10778438D01*
X11803529Y-10790600D01*
X11778550Y-10790600D01*
X11778550Y-10775020D01*
X11795350Y-10775020D01*
X11803812Y-10766558D01*
X11827570Y-10766558D01*
X11839733Y-10778721D01*
X11851895Y-10766558D01*
X11875654Y-10766558D01*
X11887816Y-10778721D01*
X11899978Y-10766558D01*
X11887816Y-10754396D01*
X11875654Y-10766558D01*
X11851895Y-10766558D01*
X11839733Y-10754396D01*
X11827570Y-10766558D01*
X11803812Y-10766558D01*
X11795350Y-10758097D01*
X11795350Y-10775020D01*
X11778550Y-10775020D01*
X11778550Y-10742517D01*
X11803529Y-10742517D01*
X11815691Y-10754679D01*
X11827853Y-10742517D01*
X11851612Y-10742517D01*
X11863774Y-10754679D01*
X11875937Y-10742517D01*
X11863774Y-10730354D01*
X11851612Y-10742517D01*
X11827853Y-10742517D01*
X11815691Y-10730354D01*
X11803529Y-10742517D01*
X11778550Y-10742517D01*
X11778550Y-10726937D01*
X11795350Y-10726937D01*
X11803812Y-10718475D01*
X11827570Y-10718475D01*
X11839733Y-10730637D01*
X11851895Y-10718475D01*
X11875654Y-10718475D01*
X11887816Y-10730637D01*
X11899978Y-10718475D01*
X11887816Y-10706313D01*
X11875654Y-10718475D01*
X11851895Y-10718475D01*
X11839733Y-10706313D01*
X11827570Y-10718475D01*
X11803812Y-10718475D01*
X11795350Y-10710013D01*
X11795350Y-10726937D01*
X11778550Y-10726937D01*
X11778550Y-10694433D01*
X11803529Y-10694433D01*
X11815691Y-10706596D01*
X11827853Y-10694433D01*
X11851612Y-10694433D01*
X11863774Y-10706596D01*
X11875937Y-10694433D01*
X11863774Y-10682271D01*
X11851612Y-10694433D01*
X11827853Y-10694433D01*
X11815691Y-10682271D01*
X11803529Y-10694433D01*
X11778550Y-10694433D01*
X11778550Y-10678854D01*
X11795350Y-10678854D01*
X11803812Y-10670392D01*
X11827570Y-10670392D01*
X11839733Y-10682554D01*
X11851895Y-10670392D01*
X11875654Y-10670392D01*
X11887816Y-10682554D01*
X11899978Y-10670392D01*
X11887816Y-10658230D01*
X11875654Y-10670392D01*
X11851895Y-10670392D01*
X11839733Y-10658230D01*
X11827570Y-10670392D01*
X11803812Y-10670392D01*
X11803812Y-10670392D01*
X11795350Y-10661930D01*
X11795350Y-10678854D01*
X11778550Y-10678854D01*
X11778550Y-10646350D01*
X11803529Y-10646350D01*
X11815691Y-10658512D01*
X11827853Y-10646350D01*
X11851612Y-10646350D01*
X11863774Y-10658512D01*
X11875937Y-10646350D01*
X11863774Y-10634188D01*
X11851612Y-10646350D01*
X11827853Y-10646350D01*
X11815691Y-10634188D01*
X11803529Y-10646350D01*
X11778550Y-10646350D01*
X11778550Y-10630770D01*
X11795350Y-10630770D01*
X11803812Y-10622309D01*
X11827570Y-10622309D01*
X11839733Y-10634471D01*
X11851895Y-10622309D01*
X11875654Y-10622309D01*
X11887816Y-10634471D01*
X11899978Y-10622309D01*
X11887816Y-10610146D01*
X11875654Y-10622309D01*
X11851895Y-10622309D01*
X11839733Y-10610146D01*
X11827570Y-10622309D01*
X11803812Y-10622309D01*
X11795350Y-10613847D01*
X11795350Y-10630770D01*
X11778550Y-10630770D01*
X11778550Y-10598267D01*
X11803529Y-10598267D01*
X11815691Y-10610429D01*
X11827853Y-10598267D01*
X11851612Y-10598267D01*
X11863774Y-10610429D01*
X11875937Y-10598267D01*
X11863774Y-10586105D01*
X11851612Y-10598267D01*
X11827853Y-10598267D01*
X11815691Y-10586105D01*
X11803529Y-10598267D01*
X11778550Y-10598267D01*
X11778550Y-10582687D01*
X11795350Y-10582687D01*
X11803812Y-10574225D01*
X11827570Y-10574225D01*
X11839733Y-10586388D01*
X11851895Y-10574225D01*
X11875654Y-10574225D01*
X11887816Y-10586388D01*
X11899978Y-10574225D01*
X11887816Y-10562063D01*
X11875654Y-10574225D01*
X11851895Y-10574225D01*
X11839733Y-10562063D01*
X11827570Y-10574225D01*
X11803812Y-10574225D01*
X11795350Y-10565764D01*
X11795350Y-10582687D01*
X11778550Y-10582687D01*
X11778550Y-10550184D01*
X11803529Y-10550184D01*
X11815691Y-10562346D01*
X11827853Y-10550184D01*
X11851612Y-10550184D01*
X11863774Y-10562346D01*
X11875937Y-10550184D01*
X11863774Y-10538021D01*
X11851612Y-10550184D01*
X11827853Y-10550184D01*
X11815691Y-10538021D01*
X11803529Y-10550184D01*
X11778550Y-10550184D01*
X11778550Y-10534604D01*
X11795350Y-10534604D01*
X11803812Y-10526142D01*
X11827570Y-10526142D01*
X11839733Y-10538304D01*
X11851895Y-10526142D01*
X11875654Y-10526142D01*
X11887816Y-10538304D01*
X11899978Y-10526142D01*
X11887816Y-10513980D01*
X11875654Y-10526142D01*
X11851895Y-10526142D01*
X11839733Y-10513980D01*
X11827570Y-10526142D01*
X11803812Y-10526142D01*
X11795350Y-10517680D01*
X11795350Y-10534604D01*
X11778550Y-10534604D01*
X11778550Y-10502100D01*
X11803529Y-10502100D01*
X11815691Y-10514263D01*
X11827853Y-10502100D01*
X11851612Y-10502100D01*
X11863774Y-10514263D01*
X11875937Y-10502100D01*
X11863774Y-10489938D01*
X11851612Y-10502100D01*
X11827853Y-10502100D01*
X11815691Y-10489938D01*
X11803529Y-10502100D01*
X11778550Y-10502100D01*
X11778550Y-10486521D01*
X11795350Y-10486521D01*
X11803812Y-10478059D01*
X11827570Y-10478059D01*
X11839733Y-10490221D01*
X11851895Y-10478059D01*
X11875654Y-10478059D01*
X11887816Y-10490221D01*
X11899978Y-10478059D01*
X11887816Y-10465897D01*
X11875654Y-10478059D01*
X11851895Y-10478059D01*
X11839733Y-10465897D01*
X11827570Y-10478059D01*
X11803812Y-10478059D01*
X11795350Y-10469597D01*
X11795350Y-10486521D01*
X11778550Y-10486521D01*
X11778550Y-10454017D01*
X11803529Y-10454017D01*
X11815691Y-10466179D01*
X11827853Y-10454017D01*
X11851612Y-10454017D01*
X11863774Y-10466179D01*
X11875937Y-10454017D01*
X11863774Y-10441855D01*
X11851612Y-10454017D01*
X11827853Y-10454017D01*
X11815691Y-10441855D01*
X11803529Y-10454017D01*
X11778550Y-10454017D01*
X11778550Y-10438437D01*
X11795350Y-10438437D01*
X11803812Y-10429976D01*
X11827570Y-10429976D01*
X11839733Y-10442138D01*
X11851895Y-10429976D01*
X11875654Y-10429976D01*
X11887816Y-10442138D01*
X11899978Y-10429976D01*
X11887816Y-10417813D01*
X11875654Y-10429976D01*
X11851895Y-10429976D01*
X11839733Y-10417813D01*
X11827570Y-10429976D01*
X11803812Y-10429976D01*
X11803812Y-10429975D01*
X11795350Y-10421514D01*
X11795350Y-10438437D01*
X11778550Y-10438437D01*
X11778550Y-10405934D01*
X11803529Y-10405934D01*
X11815691Y-10418096D01*
X11827853Y-10405934D01*
X11851612Y-10405934D01*
X11863774Y-10418096D01*
X11875937Y-10405934D01*
X11863774Y-10393772D01*
X11851612Y-10405934D01*
X11827853Y-10405934D01*
X11815691Y-10393772D01*
X11803529Y-10405934D01*
X11778550Y-10405934D01*
X11778550Y-10390354D01*
X11795350Y-10390354D01*
X11803812Y-10381892D01*
X11827570Y-10381892D01*
X11839733Y-10394054D01*
X11851895Y-10381892D01*
X11875654Y-10381892D01*
X11887816Y-10394055D01*
X11899978Y-10381892D01*
X11887816Y-10369730D01*
X11875654Y-10381892D01*
X11851895Y-10381892D01*
X11839733Y-10369730D01*
X11827570Y-10381892D01*
X11803812Y-10381892D01*
X11795350Y-10373431D01*
X11795350Y-10390354D01*
X11778550Y-10390354D01*
X11778550Y-10357851D01*
X11803529Y-10357851D01*
X11815691Y-10370013D01*
X11827853Y-10357851D01*
X11851612Y-10357851D01*
X11863774Y-10370013D01*
X11875937Y-10357851D01*
X11863774Y-10345688D01*
X11851612Y-10357851D01*
X11827853Y-10357851D01*
X11815691Y-10345688D01*
X11803529Y-10357851D01*
X11778550Y-10357851D01*
X11778550Y-10342271D01*
X11795350Y-10342271D01*
X11803812Y-10333809D01*
X11827570Y-10333809D01*
X11839733Y-10345971D01*
X11851895Y-10333809D01*
X11875654Y-10333809D01*
X11887816Y-10345971D01*
X11899978Y-10333809D01*
X11887816Y-10321647D01*
X11875654Y-10333809D01*
X11851895Y-10333809D01*
X11839733Y-10321647D01*
X11827570Y-10333809D01*
X11803812Y-10333809D01*
X11795350Y-10325347D01*
X11795350Y-10342271D01*
X11778550Y-10342271D01*
X11778550Y-10309767D01*
X11803529Y-10309767D01*
X11815691Y-10321930D01*
X11827853Y-10309767D01*
X11851612Y-10309767D01*
X11863774Y-10321930D01*
X11875937Y-10309767D01*
X11863774Y-10297605D01*
X11851612Y-10309767D01*
X11827853Y-10309767D01*
X11815691Y-10297605D01*
X11803529Y-10309767D01*
X11778550Y-10309767D01*
X11778550Y-10294187D01*
X11795350Y-10294187D01*
X11803812Y-10285726D01*
X11827570Y-10285726D01*
X11839733Y-10297888D01*
X11851895Y-10285726D01*
X11875654Y-10285726D01*
X11887816Y-10297888D01*
X11899978Y-10285726D01*
X11887816Y-10273563D01*
X11875654Y-10285726D01*
X11851895Y-10285726D01*
X11839733Y-10273563D01*
X11827570Y-10285726D01*
X11803812Y-10285726D01*
X11803812Y-10285726D01*
X11795350Y-10277264D01*
X11795350Y-10294187D01*
X11778550Y-10294187D01*
X11778550Y-10261684D01*
X11803529Y-10261684D01*
X11815691Y-10273846D01*
X11827853Y-10261684D01*
X11851612Y-10261684D01*
X11863774Y-10273846D01*
X11875937Y-10261684D01*
X11863774Y-10249522D01*
X11851612Y-10261684D01*
X11827853Y-10261684D01*
X11815691Y-10249522D01*
X11803529Y-10261684D01*
X11778550Y-10261684D01*
X11778550Y-10246104D01*
X11795350Y-10246104D01*
X11803812Y-10237642D01*
X11827570Y-10237642D01*
X11839733Y-10249805D01*
X11851895Y-10237642D01*
X11875654Y-10237642D01*
X11887816Y-10249805D01*
X11899978Y-10237642D01*
X11887816Y-10225480D01*
X11875654Y-10237642D01*
X11851895Y-10237642D01*
X11839733Y-10225480D01*
X11827570Y-10237642D01*
X11803812Y-10237642D01*
X11795350Y-10229181D01*
X11795350Y-10246104D01*
X11778550Y-10246104D01*
X11778550Y-10213601D01*
X11803529Y-10213601D01*
X11815691Y-10225763D01*
X11827853Y-10213601D01*
X11851612Y-10213601D01*
X11863774Y-10225763D01*
X11875937Y-10213601D01*
X11863774Y-10201439D01*
X11851612Y-10213601D01*
X11827853Y-10213601D01*
X11815691Y-10201439D01*
X11803529Y-10213601D01*
X11778550Y-10213601D01*
X11778550Y-10198021D01*
X11795350Y-10198021D01*
X11803812Y-10189559D01*
X11827570Y-10189559D01*
X11839733Y-10201721D01*
X11851895Y-10189559D01*
X11875654Y-10189559D01*
X11887816Y-10201722D01*
X11899978Y-10189559D01*
X11887816Y-10177397D01*
X11875654Y-10189559D01*
X11851895Y-10189559D01*
X11839733Y-10177397D01*
X11827570Y-10189559D01*
X11803812Y-10189559D01*
X11803812Y-10189559D01*
X11795350Y-10181097D01*
X11795350Y-10198021D01*
X11778550Y-10198021D01*
X11778550Y-10165518D01*
X11803529Y-10165518D01*
X11815691Y-10177680D01*
X11827853Y-10165518D01*
X11851612Y-10165518D01*
X11863774Y-10177680D01*
X11875937Y-10165518D01*
X11863774Y-10153355D01*
X11851612Y-10165518D01*
X11827853Y-10165518D01*
X11815691Y-10153355D01*
X11803529Y-10165518D01*
X11778550Y-10165518D01*
X11778550Y-10149938D01*
X11795350Y-10149938D01*
X11803812Y-10141476D01*
X11827570Y-10141476D01*
X11839733Y-10153638D01*
X11851895Y-10141476D01*
X11875654Y-10141476D01*
X11887816Y-10153638D01*
X11899978Y-10141476D01*
X11887816Y-10129314D01*
X11875654Y-10141476D01*
X11851895Y-10141476D01*
X11839733Y-10129314D01*
X11827570Y-10141476D01*
X11803812Y-10141476D01*
X11795350Y-10133014D01*
X11795350Y-10149938D01*
X11778550Y-10149938D01*
X11778550Y-10117434D01*
X11803529Y-10117434D01*
X11815691Y-10129597D01*
X11827853Y-10117434D01*
X11851612Y-10117434D01*
X11863774Y-10129597D01*
X11875937Y-10117434D01*
X11863774Y-10105272D01*
X11851612Y-10117434D01*
X11827853Y-10117434D01*
X11815691Y-10105272D01*
X11803529Y-10117434D01*
X11778550Y-10117434D01*
X11778550Y-10101854D01*
X11795350Y-10101854D01*
X11803812Y-10093393D01*
X11827570Y-10093393D01*
X11839733Y-10105555D01*
X11851895Y-10093393D01*
X11875654Y-10093393D01*
X11887816Y-10105555D01*
X11899978Y-10093393D01*
X11887816Y-10081230D01*
X11875654Y-10093393D01*
X11851895Y-10093393D01*
X11839733Y-10081230D01*
X11827570Y-10093393D01*
X11803812Y-10093393D01*
X11795350Y-10084931D01*
X11795350Y-10101854D01*
X11778550Y-10101854D01*
X11778550Y-10069351D01*
X11803529Y-10069351D01*
X11815691Y-10081513D01*
X11827853Y-10069351D01*
X11851612Y-10069351D01*
X11863774Y-10081513D01*
X11875937Y-10069351D01*
X11863774Y-10057189D01*
X11851612Y-10069351D01*
X11827853Y-10069351D01*
X11815691Y-10057189D01*
X11803529Y-10069351D01*
X11778550Y-10069351D01*
X11778550Y-10053771D01*
X11795350Y-10053771D01*
X11803812Y-10045309D01*
X11827570Y-10045309D01*
X11839733Y-10057472D01*
X11851895Y-10045309D01*
X11875654Y-10045309D01*
X11887816Y-10057472D01*
X11899978Y-10045309D01*
X11887816Y-10033147D01*
X11875654Y-10045309D01*
X11851895Y-10045309D01*
X11839733Y-10033147D01*
X11827570Y-10045309D01*
X11803812Y-10045309D01*
X11803812Y-10045309D01*
X11795350Y-10036848D01*
X11795350Y-10053771D01*
X11778550Y-10053771D01*
X11778550Y-10021268D01*
X11803529Y-10021268D01*
X11815691Y-10033430D01*
X11827853Y-10021268D01*
X11851612Y-10021268D01*
X11863774Y-10033430D01*
X11875937Y-10021268D01*
X11863774Y-10009106D01*
X11851612Y-10021268D01*
X11827853Y-10021268D01*
X11815691Y-10009106D01*
X11803529Y-10021268D01*
X11778550Y-10021268D01*
X11778550Y-10005688D01*
X11795350Y-10005688D01*
X11803812Y-9997226D01*
X11827570Y-9997226D01*
X11839733Y-10009388D01*
X11851895Y-9997226D01*
X11875654Y-9997226D01*
X11887816Y-10009388D01*
X11899978Y-9997226D01*
X11887816Y-9985064D01*
X11875654Y-9997226D01*
X11851895Y-9997226D01*
X11839733Y-9985064D01*
X11827570Y-9997226D01*
X11803812Y-9997226D01*
X11795350Y-9988764D01*
X11795350Y-10005688D01*
X11778550Y-10005688D01*
X11778550Y-9973185D01*
X11803529Y-9973185D01*
X11815691Y-9985347D01*
X11827853Y-9973185D01*
X11851612Y-9973185D01*
X11863774Y-9985347D01*
X11875937Y-9973185D01*
X11863774Y-9961022D01*
X11851612Y-9973185D01*
X11827853Y-9973185D01*
X11815691Y-9961022D01*
X11803529Y-9973185D01*
X11778550Y-9973185D01*
X11778550Y-9957605D01*
X11795350Y-9957605D01*
X11803812Y-9949143D01*
X11827570Y-9949143D01*
X11839733Y-9961305D01*
X11851895Y-9949143D01*
X11875654Y-9949143D01*
X11887816Y-9961305D01*
X11899978Y-9949143D01*
X11887816Y-9936981D01*
X11875654Y-9949143D01*
X11851895Y-9949143D01*
X11839733Y-9936981D01*
X11827570Y-9949143D01*
X11803812Y-9949143D01*
X11803812Y-9949143D01*
X11795350Y-9940681D01*
X11795350Y-9957605D01*
X11778550Y-9957605D01*
X11778550Y-9925101D01*
X11803529Y-9925101D01*
X11815691Y-9937264D01*
X11827853Y-9925101D01*
X11851612Y-9925101D01*
X11863774Y-9937264D01*
X11875937Y-9925101D01*
X11863774Y-9912939D01*
X11851612Y-9925101D01*
X11827853Y-9925101D01*
X11815691Y-9912939D01*
X11803529Y-9925101D01*
X11778550Y-9925101D01*
X11778550Y-9909521D01*
X11795350Y-9909521D01*
X11803812Y-9901060D01*
X11827570Y-9901060D01*
X11839733Y-9913222D01*
X11851895Y-9901060D01*
X11875654Y-9901060D01*
X11887816Y-9913222D01*
X11899978Y-9901060D01*
X11887816Y-9888897D01*
X11875654Y-9901060D01*
X11851895Y-9901060D01*
X11839733Y-9888897D01*
X11827570Y-9901060D01*
X11803812Y-9901060D01*
X11795350Y-9892598D01*
X11795350Y-9909521D01*
X11778550Y-9909521D01*
X11778550Y-9877018D01*
X11803529Y-9877018D01*
X11815691Y-9889180D01*
X11827853Y-9877018D01*
X11851612Y-9877018D01*
X11863774Y-9889180D01*
X11875937Y-9877018D01*
X11863774Y-9864856D01*
X11851612Y-9877018D01*
X11827853Y-9877018D01*
X11815691Y-9864856D01*
X11803529Y-9877018D01*
X11778550Y-9877018D01*
X11778550Y-9861438D01*
X11795350Y-9861438D01*
X11803812Y-9852976D01*
X11827570Y-9852976D01*
X11839733Y-9865139D01*
X11851895Y-9852976D01*
X11875654Y-9852976D01*
X11887816Y-9865139D01*
X11899978Y-9852976D01*
X11887816Y-9840814D01*
X11875654Y-9852976D01*
X11851895Y-9852976D01*
X11839733Y-9840814D01*
X11827570Y-9852976D01*
X11803812Y-9852976D01*
X11795350Y-9844515D01*
X11795350Y-9861438D01*
X11778550Y-9861438D01*
X11778550Y-9828935D01*
X11803529Y-9828935D01*
X11815691Y-9841097D01*
X11827853Y-9828935D01*
X11851612Y-9828935D01*
X11863774Y-9841097D01*
X11875937Y-9828935D01*
X11863774Y-9816772D01*
X11851612Y-9828935D01*
X11827853Y-9828935D01*
X11815691Y-9816772D01*
X11803529Y-9828935D01*
X11778550Y-9828935D01*
X11778550Y-9813355D01*
X11795350Y-9813355D01*
X11803812Y-9804893D01*
X11827570Y-9804893D01*
X11839733Y-9817055D01*
X11851895Y-9804893D01*
X11875654Y-9804893D01*
X11887816Y-9817055D01*
X11899978Y-9804893D01*
X11887816Y-9792731D01*
X11875654Y-9804893D01*
X11851895Y-9804893D01*
X11839733Y-9792731D01*
X11827570Y-9804893D01*
X11803812Y-9804893D01*
X11803812Y-9804893D01*
X11795350Y-9796431D01*
X11795350Y-9813355D01*
X11778550Y-9813355D01*
X11778550Y-9780851D01*
X11803529Y-9780851D01*
X11815691Y-9793014D01*
X11827853Y-9780851D01*
X11851612Y-9780851D01*
X11863774Y-9793014D01*
X11875937Y-9780851D01*
X11863774Y-9768689D01*
X11851612Y-9780851D01*
X11827853Y-9780851D01*
X11815691Y-9768689D01*
X11803529Y-9780851D01*
X11778550Y-9780851D01*
X11778550Y-9765272D01*
X11795350Y-9765272D01*
X11803812Y-9756810D01*
X11827570Y-9756810D01*
X11839733Y-9768972D01*
X11851895Y-9756810D01*
X11875654Y-9756810D01*
X11887816Y-9768972D01*
X11899978Y-9756810D01*
X11887816Y-9744648D01*
X11875654Y-9756810D01*
X11851895Y-9756810D01*
X11839733Y-9744648D01*
X11827570Y-9756810D01*
X11803812Y-9756810D01*
X11795350Y-9748348D01*
X11795350Y-9765272D01*
X11778550Y-9765272D01*
X11778550Y-9732768D01*
X11803529Y-9732768D01*
X11815691Y-9744931D01*
X11827853Y-9732768D01*
X11851612Y-9732768D01*
X11863774Y-9744930D01*
X11875937Y-9732768D01*
X11863774Y-9720606D01*
X11851612Y-9732768D01*
X11827853Y-9732768D01*
X11815691Y-9720606D01*
X11803529Y-9732768D01*
X11778550Y-9732768D01*
X11778550Y-9717188D01*
X11795350Y-9717188D01*
X11803812Y-9708727D01*
X11827570Y-9708727D01*
X11839733Y-9720889D01*
X11851895Y-9708727D01*
X11875654Y-9708727D01*
X11887816Y-9720889D01*
X11899978Y-9708727D01*
X11887816Y-9696564D01*
X11875654Y-9708727D01*
X11851895Y-9708727D01*
X11839733Y-9696564D01*
X11827570Y-9708727D01*
X11803812Y-9708727D01*
X11795350Y-9700265D01*
X11795350Y-9717188D01*
X11778550Y-9717188D01*
X11778550Y-9684685D01*
X11803529Y-9684685D01*
X11815691Y-9696847D01*
X11827853Y-9684685D01*
X11851612Y-9684685D01*
X11863774Y-9696847D01*
X11875937Y-9684685D01*
X11863774Y-9672523D01*
X11851612Y-9684685D01*
X11827853Y-9684685D01*
X11815691Y-9672523D01*
X11803529Y-9684685D01*
X11778550Y-9684685D01*
X11778550Y-9669105D01*
X11795350Y-9669105D01*
X11803812Y-9660643D01*
X11827570Y-9660643D01*
X11839733Y-9672806D01*
X11851895Y-9660643D01*
X11875654Y-9660643D01*
X11887816Y-9672806D01*
X11899978Y-9660643D01*
X11887816Y-9648481D01*
X11875654Y-9660643D01*
X11851895Y-9660643D01*
X11839733Y-9648481D01*
X11827570Y-9660643D01*
X11803812Y-9660643D01*
X11795350Y-9652182D01*
X11795350Y-9669105D01*
X11778550Y-9669105D01*
X11778550Y-9636602D01*
X11803529Y-9636602D01*
X11815691Y-9648764D01*
X11827853Y-9636602D01*
X11851612Y-9636602D01*
X11863774Y-9648764D01*
X11875937Y-9636602D01*
X11863774Y-9624439D01*
X11851612Y-9636602D01*
X11827853Y-9636602D01*
X11815691Y-9624439D01*
X11803529Y-9636602D01*
X11778550Y-9636602D01*
X11778550Y-9621022D01*
X11795350Y-9621022D01*
X11803812Y-9612560D01*
X11827570Y-9612560D01*
X11839733Y-9624722D01*
X11851895Y-9612560D01*
X11875654Y-9612560D01*
X11887816Y-9624722D01*
X11899978Y-9612560D01*
X11887816Y-9600398D01*
X11875654Y-9612560D01*
X11851895Y-9612560D01*
X11839733Y-9600398D01*
X11827570Y-9612560D01*
X11803812Y-9612560D01*
X11795350Y-9604098D01*
X11795350Y-9621022D01*
X11778550Y-9621022D01*
X11778550Y-9588518D01*
X11803529Y-9588518D01*
X11815691Y-9600681D01*
X11827853Y-9588518D01*
X11851612Y-9588518D01*
X11863774Y-9600681D01*
X11875937Y-9588518D01*
X11863774Y-9576356D01*
X11851612Y-9588518D01*
X11827853Y-9588518D01*
X11815691Y-9576356D01*
X11803529Y-9588518D01*
X11778550Y-9588518D01*
X11778550Y-9572939D01*
X11795350Y-9572939D01*
X11803812Y-9564477D01*
X11827570Y-9564477D01*
X11839733Y-9576639D01*
X11851895Y-9564477D01*
X11875654Y-9564477D01*
X11887816Y-9576639D01*
X11899978Y-9564477D01*
X11887816Y-9552315D01*
X11875654Y-9564477D01*
X11851895Y-9564477D01*
X11839733Y-9552315D01*
X11827570Y-9564477D01*
X11803812Y-9564477D01*
X11803812Y-9564477D01*
X11795350Y-9556015D01*
X11795350Y-9572939D01*
X11778550Y-9572939D01*
X11778550Y-9540435D01*
X11803529Y-9540435D01*
X11815691Y-9552597D01*
X11827853Y-9540435D01*
X11851612Y-9540435D01*
X11863774Y-9552597D01*
X11875937Y-9540435D01*
X11863774Y-9528273D01*
X11851612Y-9540435D01*
X11827853Y-9540435D01*
X11815691Y-9528273D01*
X11803529Y-9540435D01*
X11778550Y-9540435D01*
X11778550Y-9524855D01*
X11795350Y-9524855D01*
X11803812Y-9516394D01*
X11827570Y-9516394D01*
X11839733Y-9528556D01*
X11851895Y-9516394D01*
X11875654Y-9516394D01*
X11887816Y-9528556D01*
X11899978Y-9516394D01*
X11887816Y-9504231D01*
X11875654Y-9516394D01*
X11851895Y-9516394D01*
X11839733Y-9504231D01*
X11827570Y-9516394D01*
X11803812Y-9516394D01*
X11795350Y-9507932D01*
X11795350Y-9524855D01*
X11778550Y-9524855D01*
X11778550Y-9492352D01*
X11803529Y-9492352D01*
X11815691Y-9504514D01*
X11827853Y-9492352D01*
X11851612Y-9492352D01*
X11863774Y-9504514D01*
X11875937Y-9492352D01*
X11863774Y-9480190D01*
X11851612Y-9492352D01*
X11827853Y-9492352D01*
X11815691Y-9480190D01*
X11803529Y-9492352D01*
X11778550Y-9492352D01*
X11778550Y-9476772D01*
X11795350Y-9476772D01*
X11803812Y-9468310D01*
X11827570Y-9468310D01*
X11839733Y-9480473D01*
X11851895Y-9468310D01*
X11875654Y-9468310D01*
X11887816Y-9480473D01*
X11899978Y-9468310D01*
X11887816Y-9456148D01*
X11875654Y-9468310D01*
X11851895Y-9468310D01*
X11839733Y-9456148D01*
X11827570Y-9468310D01*
X11803812Y-9468310D01*
X11795350Y-9459849D01*
X11795350Y-9476772D01*
X11778550Y-9476772D01*
X11778550Y-9444269D01*
X11803529Y-9444269D01*
X11815691Y-9456431D01*
X11827853Y-9444269D01*
X11851612Y-9444269D01*
X11863774Y-9456431D01*
X11875937Y-9444269D01*
X11863774Y-9432106D01*
X11851612Y-9444269D01*
X11827853Y-9444269D01*
X11815691Y-9432106D01*
X11803529Y-9444269D01*
X11778550Y-9444269D01*
X11778550Y-9428689D01*
X11795350Y-9428689D01*
X11803812Y-9420227D01*
X11827570Y-9420227D01*
X11839733Y-9432389D01*
X11851895Y-9420227D01*
X11875654Y-9420227D01*
X11887816Y-9432389D01*
X11899978Y-9420227D01*
X11887816Y-9408065D01*
X11875654Y-9420227D01*
X11851895Y-9420227D01*
X11839733Y-9408065D01*
X11827570Y-9420227D01*
X11803812Y-9420227D01*
X11803812Y-9420227D01*
X11795350Y-9411765D01*
X11795350Y-9428689D01*
X11778550Y-9428689D01*
X11778550Y-9396185D01*
X11803529Y-9396185D01*
X11815691Y-9408348D01*
X11827853Y-9396185D01*
X11851612Y-9396185D01*
X11863774Y-9408348D01*
X11875937Y-9396185D01*
X11863774Y-9384023D01*
X11851612Y-9396185D01*
X11827853Y-9396185D01*
X11815691Y-9384023D01*
X11803529Y-9396185D01*
X11778550Y-9396185D01*
X11778550Y-9380606D01*
X11795350Y-9380606D01*
X11803812Y-9372144D01*
X11827570Y-9372144D01*
X11839733Y-9384306D01*
X11851895Y-9372144D01*
X11875654Y-9372144D01*
X11887816Y-9384306D01*
X11899978Y-9372144D01*
X11887816Y-9359982D01*
X11875654Y-9372144D01*
X11851895Y-9372144D01*
X11839733Y-9359982D01*
X11827570Y-9372144D01*
X11803812Y-9372144D01*
X11795350Y-9363682D01*
X11795350Y-9380606D01*
X11778550Y-9380606D01*
X11778550Y-9348102D01*
X11803529Y-9348102D01*
X11815691Y-9360264D01*
X11827853Y-9348102D01*
X11851612Y-9348102D01*
X11863774Y-9360264D01*
X11875937Y-9348102D01*
X11863774Y-9335940D01*
X11851612Y-9348102D01*
X11827853Y-9348102D01*
X11815691Y-9335940D01*
X11803529Y-9348102D01*
X11778550Y-9348102D01*
X11778550Y-9332522D01*
X11795350Y-9332522D01*
X11803812Y-9324061D01*
X11827570Y-9324061D01*
X11839733Y-9336223D01*
X11851895Y-9324061D01*
X11875654Y-9324061D01*
X11887816Y-9336223D01*
X11899978Y-9324061D01*
X11887816Y-9311898D01*
X11875654Y-9324061D01*
X11851895Y-9324061D01*
X11839733Y-9311898D01*
X11827570Y-9324061D01*
X11803812Y-9324061D01*
X11803812Y-9324060D01*
X11795350Y-9315599D01*
X11795350Y-9332522D01*
X11778550Y-9332522D01*
X11778550Y-9300019D01*
X11803529Y-9300019D01*
X11815691Y-9312181D01*
X11827853Y-9300019D01*
X11851612Y-9300019D01*
X11863774Y-9312181D01*
X11875937Y-9300019D01*
X11863774Y-9287857D01*
X11851612Y-9300019D01*
X11827853Y-9300019D01*
X11815691Y-9287857D01*
X11803529Y-9300019D01*
X11778550Y-9300019D01*
X11778550Y-9284439D01*
X11795350Y-9284439D01*
X11803812Y-9275977D01*
X11827570Y-9275977D01*
X11839733Y-9288139D01*
X11851895Y-9275977D01*
X11875654Y-9275977D01*
X11887816Y-9288140D01*
X11899978Y-9275977D01*
X11887816Y-9263815D01*
X11875654Y-9275977D01*
X11851895Y-9275977D01*
X11839733Y-9263815D01*
X11827570Y-9275977D01*
X11803812Y-9275977D01*
X11795350Y-9267516D01*
X11795350Y-9284439D01*
X11778550Y-9284439D01*
X11778550Y-9251936D01*
X11803529Y-9251936D01*
X11815691Y-9264098D01*
X11827853Y-9251936D01*
X11851612Y-9251936D01*
X11863774Y-9264098D01*
X11875937Y-9251936D01*
X11863774Y-9239773D01*
X11851612Y-9251936D01*
X11827853Y-9251936D01*
X11815691Y-9239773D01*
X11803529Y-9251936D01*
X11778550Y-9251936D01*
X11778550Y-9236356D01*
X11795350Y-9236356D01*
X11803812Y-9227894D01*
X11827570Y-9227894D01*
X11839733Y-9240056D01*
X11851895Y-9227894D01*
X11875654Y-9227894D01*
X11887816Y-9240056D01*
X11899978Y-9227894D01*
X11887816Y-9215732D01*
X11875654Y-9227894D01*
X11851895Y-9227894D01*
X11839733Y-9215732D01*
X11827570Y-9227894D01*
X11803812Y-9227894D01*
X11795350Y-9219432D01*
X11795350Y-9236356D01*
X11778550Y-9236356D01*
X11778550Y-9203852D01*
X11803529Y-9203852D01*
X11815691Y-9216015D01*
X11827853Y-9203852D01*
X11851612Y-9203852D01*
X11863774Y-9216015D01*
X11875937Y-9203852D01*
X11863774Y-9191690D01*
X11851612Y-9203852D01*
X11827853Y-9203852D01*
X11815691Y-9191690D01*
X11803529Y-9203852D01*
X11778550Y-9203852D01*
X11778550Y-9188272D01*
X11795350Y-9188272D01*
X11803812Y-9179811D01*
X11827570Y-9179811D01*
X11839733Y-9191973D01*
X11851895Y-9179811D01*
X11875654Y-9179811D01*
X11887816Y-9191973D01*
X11899978Y-9179811D01*
X11887816Y-9167648D01*
X11875654Y-9179811D01*
X11851895Y-9179811D01*
X11839733Y-9167648D01*
X11827570Y-9179811D01*
X11803812Y-9179811D01*
X11803812Y-9179811D01*
X11795350Y-9171349D01*
X11795350Y-9188272D01*
X11778550Y-9188272D01*
X11778550Y-9155769D01*
X11803529Y-9155769D01*
X11815691Y-9167931D01*
X11827853Y-9155769D01*
X11851612Y-9155769D01*
X11863774Y-9167931D01*
X11875937Y-9155769D01*
X11863774Y-9143607D01*
X11851612Y-9155769D01*
X11827853Y-9155769D01*
X11815691Y-9143607D01*
X11803529Y-9155769D01*
X11778550Y-9155769D01*
X11778550Y-9140189D01*
X11795350Y-9140189D01*
X11803812Y-9131727D01*
X11827570Y-9131727D01*
X11839733Y-9143890D01*
X11851895Y-9131727D01*
X11875654Y-9131727D01*
X11887816Y-9143890D01*
X11899978Y-9131727D01*
X11887816Y-9119565D01*
X11875654Y-9131727D01*
X11851895Y-9131727D01*
X11839733Y-9119565D01*
X11827570Y-9131727D01*
X11803812Y-9131727D01*
X11795350Y-9123266D01*
X11795350Y-9140189D01*
X11778550Y-9140189D01*
X11778550Y-9116014D01*
X11778551Y-9115961D01*
X11778925Y-9107686D01*
X11803529Y-9107686D01*
X11815691Y-9119848D01*
X11827853Y-9107686D01*
X11851612Y-9107686D01*
X11863774Y-9119848D01*
X11875937Y-9107686D01*
X11863774Y-9095524D01*
X11851612Y-9107686D01*
X11827853Y-9107686D01*
X11815691Y-9095524D01*
X11803529Y-9107686D01*
X11778925Y-9107686D01*
X11779930Y-9085462D01*
X11779939Y-9085361D01*
X11780174Y-9083644D01*
X11827570Y-9083644D01*
X11839733Y-9095806D01*
X11851895Y-9083644D01*
X11875654Y-9083644D01*
X11887816Y-9095806D01*
X11899978Y-9083644D01*
X11887816Y-9071482D01*
X11875654Y-9083644D01*
X11851895Y-9083644D01*
X11839733Y-9071482D01*
X11827570Y-9083644D01*
X11780174Y-9083644D01*
X11783453Y-9059603D01*
X11803529Y-9059603D01*
X11815691Y-9071765D01*
X11827853Y-9059603D01*
X11851612Y-9059603D01*
X11863774Y-9071765D01*
X11875937Y-9059603D01*
X11899695Y-9059603D01*
X11909850Y-9069757D01*
X11912759Y-9057096D01*
X11912767Y-9057064D01*
X11912870Y-9056669D01*
X11912879Y-9056637D01*
X11913011Y-9056181D01*
X11913021Y-9056149D01*
X11913146Y-9055761D01*
X11913156Y-9055730D01*
X11914978Y-9050561D01*
X11911858Y-9047440D01*
X11899695Y-9059603D01*
X11875937Y-9059603D01*
X11863774Y-9047440D01*
X11851612Y-9059603D01*
X11827853Y-9059603D01*
X11815691Y-9047440D01*
X11803529Y-9059603D01*
X11783453Y-9059603D01*
X11784062Y-9055135D01*
X11784080Y-9055033D01*
X11788556Y-9035561D01*
X11827570Y-9035561D01*
X11839733Y-9047723D01*
X11851895Y-9035561D01*
X11875654Y-9035561D01*
X11887816Y-9047723D01*
X11899978Y-9035561D01*
X11887816Y-9023399D01*
X11875654Y-9035561D01*
X11851895Y-9035561D01*
X11839733Y-9023399D01*
X11827570Y-9035561D01*
X11788556Y-9035561D01*
X11790913Y-9025303D01*
X11790941Y-9025205D01*
X11793060Y-9018728D01*
X11810737Y-9018728D01*
X11815691Y-9023682D01*
X11827853Y-9011519D01*
X11851612Y-9011519D01*
X11863774Y-9023682D01*
X11875937Y-9011519D01*
X11899695Y-9011519D01*
X11911858Y-9023682D01*
X11924020Y-9011519D01*
X11911858Y-8999357D01*
X11899695Y-9011519D01*
X11875937Y-9011519D01*
X11863774Y-8999357D01*
X11851612Y-9011519D01*
X11827853Y-9011519D01*
X11816858Y-9000524D01*
X11816175Y-9002110D01*
X11810737Y-9018728D01*
X11793060Y-9018728D01*
X11800429Y-8996212D01*
X11800465Y-8996116D01*
X11804185Y-8987478D01*
X11827570Y-8987478D01*
X11839733Y-8999640D01*
X11851895Y-8987478D01*
X11875654Y-8987478D01*
X11887816Y-8999640D01*
X11899978Y-8987478D01*
X11923737Y-8987478D01*
X11935899Y-8999640D01*
X11938787Y-8996752D01*
X11944847Y-8984264D01*
X11935899Y-8975315D01*
X11923737Y-8987478D01*
X11899978Y-8987478D01*
X11887816Y-8975315D01*
X11875654Y-8987478D01*
X11851895Y-8987478D01*
X11839733Y-8975315D01*
X11827570Y-8987478D01*
X11804185Y-8987478D01*
X11812551Y-8968051D01*
X11812551Y-8968051D01*
X11812571Y-8968009D01*
X11814790Y-8963436D01*
X11851612Y-8963436D01*
X11863774Y-8975598D01*
X11875937Y-8963436D01*
X11899695Y-8963436D01*
X11911858Y-8975598D01*
X11924020Y-8963436D01*
X11947779Y-8963436D01*
X11952610Y-8968268D01*
X11959132Y-8954829D01*
X11960520Y-8951853D01*
X11959941Y-8951274D01*
X11947779Y-8963436D01*
X11924020Y-8963436D01*
X11911858Y-8951274D01*
X11899695Y-8963436D01*
X11875937Y-8963436D01*
X11863774Y-8951274D01*
X11851612Y-8963436D01*
X11814790Y-8963436D01*
X11820719Y-8951217D01*
X11839393Y-8951217D01*
X11839733Y-8951557D01*
X11851895Y-8939394D01*
X11875654Y-8939394D01*
X11887816Y-8951557D01*
X11899978Y-8939394D01*
X11923737Y-8939394D01*
X11935899Y-8951557D01*
X11948061Y-8939394D01*
X11935899Y-8927232D01*
X11923737Y-8939394D01*
X11899978Y-8939394D01*
X11887816Y-8927232D01*
X11875654Y-8939394D01*
X11851895Y-8939394D01*
X11847341Y-8934840D01*
X11839393Y-8951217D01*
X11820719Y-8951217D01*
X11836430Y-8918844D01*
X11855103Y-8918844D01*
X11863774Y-8927515D01*
X11875937Y-8915353D01*
X11899695Y-8915353D01*
X11911858Y-8927515D01*
X11924020Y-8915353D01*
X11947779Y-8915353D01*
X11959941Y-8927515D01*
X11972103Y-8915353D01*
X11959941Y-8903191D01*
X11947779Y-8915353D01*
X11924020Y-8915353D01*
X11911858Y-8903191D01*
X11899695Y-8915353D01*
X11875937Y-8915353D01*
X11863774Y-8903190D01*
X11861687Y-8905277D01*
X11861667Y-8905320D01*
X11859918Y-8909492D01*
X11859874Y-8909584D01*
X11859287Y-8910700D01*
X11859236Y-8910789D01*
X11858442Y-8912023D01*
X11858383Y-8912107D01*
X11858356Y-8912141D01*
X11855103Y-8918844D01*
X11836430Y-8918844D01*
X11844087Y-8903066D01*
X11844280Y-8902783D01*
X11844707Y-8902321D01*
X11844707Y-8902321D01*
X11844708Y-8902320D01*
X11846340Y-8898427D01*
X11846364Y-8898375D01*
X11847651Y-8895722D01*
X11847655Y-8895698D01*
X11847751Y-8895409D01*
X11849732Y-8891311D01*
X11875654Y-8891311D01*
X11887816Y-8903473D01*
X11899978Y-8891311D01*
X11923737Y-8891311D01*
X11935899Y-8903473D01*
X11948061Y-8891311D01*
X11971820Y-8891311D01*
X11983982Y-8903473D01*
X11996145Y-8891311D01*
X11983982Y-8879149D01*
X11971820Y-8891311D01*
X11948061Y-8891311D01*
X11935899Y-8879149D01*
X11923737Y-8891311D01*
X11899978Y-8891311D01*
X11887816Y-8879149D01*
X11875654Y-8891311D01*
X11849732Y-8891311D01*
X11859426Y-8871260D01*
X11859485Y-8871153D01*
X11861904Y-8867270D01*
X11899695Y-8867270D01*
X11911858Y-8879432D01*
X11924020Y-8867270D01*
X11947779Y-8867270D01*
X11959941Y-8879432D01*
X11972103Y-8867270D01*
X11995862Y-8867270D01*
X12008024Y-8879432D01*
X12020186Y-8867270D01*
X12043945Y-8867270D01*
X12046246Y-8869570D01*
X12054987Y-8865586D01*
X12055025Y-8865570D01*
X12055497Y-8865375D01*
X12055536Y-8865360D01*
X12056092Y-8865152D01*
X12056131Y-8865139D01*
X12056615Y-8864977D01*
X12056654Y-8864965D01*
X12063847Y-8862847D01*
X12056107Y-8855107D01*
X12043945Y-8867270D01*
X12020186Y-8867270D01*
X12008024Y-8855107D01*
X11995862Y-8867270D01*
X11972103Y-8867270D01*
X11959941Y-8855107D01*
X11947779Y-8867270D01*
X11924020Y-8867270D01*
X11911858Y-8855107D01*
X11899695Y-8867270D01*
X11861904Y-8867270D01*
X11874964Y-8846299D01*
X11875034Y-8846200D01*
X11877358Y-8843228D01*
X11923737Y-8843228D01*
X11935899Y-8855390D01*
X11948061Y-8843228D01*
X11971820Y-8843228D01*
X11983982Y-8855390D01*
X11996145Y-8843228D01*
X12019903Y-8843228D01*
X12032066Y-8855390D01*
X12044228Y-8843228D01*
X12067987Y-8843228D01*
X12080149Y-8855390D01*
X12092311Y-8843228D01*
X12116070Y-8843228D01*
X12127492Y-8854650D01*
X12128972Y-8854650D01*
X12140394Y-8843228D01*
X12164153Y-8843228D01*
X12175575Y-8854650D01*
X12177056Y-8854650D01*
X12188478Y-8843228D01*
X12212236Y-8843228D01*
X12223659Y-8854650D01*
X12225139Y-8854650D01*
X12236561Y-8843228D01*
X12260320Y-8843228D01*
X12271742Y-8854650D01*
X12273222Y-8854650D01*
X12284644Y-8843228D01*
X12308403Y-8843228D01*
X12319825Y-8854650D01*
X12321305Y-8854650D01*
X12332727Y-8843228D01*
X12356486Y-8843228D01*
X12367908Y-8854650D01*
X12369389Y-8854650D01*
X12380811Y-8843228D01*
X12404570Y-8843228D01*
X12415992Y-8854650D01*
X12417472Y-8854650D01*
X12428894Y-8843228D01*
X12452653Y-8843228D01*
X12464075Y-8854650D01*
X12465555Y-8854650D01*
X12476977Y-8843228D01*
X12500736Y-8843228D01*
X12512158Y-8854650D01*
X12513638Y-8854650D01*
X12525061Y-8843228D01*
X12548819Y-8843228D01*
X12560241Y-8854650D01*
X12561722Y-8854650D01*
X12573144Y-8843228D01*
X12596903Y-8843228D01*
X12608325Y-8854650D01*
X12609805Y-8854650D01*
X12621227Y-8843228D01*
X12644986Y-8843228D01*
X12656408Y-8854650D01*
X12657888Y-8854650D01*
X12669310Y-8843228D01*
X12693069Y-8843228D01*
X12702936Y-8853095D01*
X12708466Y-8852155D01*
X12717393Y-8843228D01*
X12741152Y-8843228D01*
X12742523Y-8844598D01*
X12752088Y-8841843D01*
X12760576Y-8838327D01*
X12753315Y-8831066D01*
X12741152Y-8843228D01*
X12717393Y-8843228D01*
X12717394Y-8843228D01*
X12705231Y-8831066D01*
X12693069Y-8843228D01*
X12669310Y-8843228D01*
X12657148Y-8831066D01*
X12644986Y-8843228D01*
X12621227Y-8843228D01*
X12609065Y-8831066D01*
X12596903Y-8843228D01*
X12573144Y-8843228D01*
X12560982Y-8831066D01*
X12548819Y-8843228D01*
X12525061Y-8843228D01*
X12512898Y-8831066D01*
X12500736Y-8843228D01*
X12476977Y-8843228D01*
X12464815Y-8831066D01*
X12452653Y-8843228D01*
X12428894Y-8843228D01*
X12416732Y-8831066D01*
X12404570Y-8843228D01*
X12380811Y-8843228D01*
X12368649Y-8831066D01*
X12356486Y-8843228D01*
X12332727Y-8843228D01*
X12320565Y-8831066D01*
X12308403Y-8843228D01*
X12284644Y-8843228D01*
X12272482Y-8831066D01*
X12260320Y-8843228D01*
X12236561Y-8843228D01*
X12224399Y-8831066D01*
X12212236Y-8843228D01*
X12188478Y-8843228D01*
X12176315Y-8831066D01*
X12164153Y-8843228D01*
X12140394Y-8843228D01*
X12128232Y-8831066D01*
X12116070Y-8843228D01*
X12092311Y-8843228D01*
X12080149Y-8831066D01*
X12067987Y-8843228D01*
X12044228Y-8843228D01*
X12032066Y-8831066D01*
X12019903Y-8843228D01*
X11996145Y-8843228D01*
X11983982Y-8831066D01*
X11971820Y-8843228D01*
X11948061Y-8843228D01*
X11935899Y-8831066D01*
X11923737Y-8843228D01*
X11877358Y-8843228D01*
X11893072Y-8823134D01*
X11893153Y-8823041D01*
X11896894Y-8819186D01*
X11947779Y-8819186D01*
X11959941Y-8831348D01*
X11972103Y-8819186D01*
X11995862Y-8819186D01*
X12008024Y-8831348D01*
X12020186Y-8819186D01*
X12043945Y-8819186D01*
X12056107Y-8831349D01*
X12068270Y-8819186D01*
X12092028Y-8819186D01*
X12104191Y-8831348D01*
X12116353Y-8819186D01*
X12140112Y-8819186D01*
X12152274Y-8831348D01*
X12164436Y-8819186D01*
X12188195Y-8819186D01*
X12200357Y-8831349D01*
X12212519Y-8819186D01*
X12236278Y-8819186D01*
X12248440Y-8831348D01*
X12260603Y-8819186D01*
X12284361Y-8819186D01*
X12296524Y-8831349D01*
X12308686Y-8819186D01*
X12332445Y-8819186D01*
X12344607Y-8831348D01*
X12356769Y-8819186D01*
X12380528Y-8819186D01*
X12392690Y-8831348D01*
X12404852Y-8819186D01*
X12428611Y-8819186D01*
X12440773Y-8831349D01*
X12452936Y-8819186D01*
X12476694Y-8819186D01*
X12488857Y-8831348D01*
X12501019Y-8819186D01*
X12524778Y-8819186D01*
X12536940Y-8831349D01*
X12549102Y-8819186D01*
X12572861Y-8819186D01*
X12585023Y-8831348D01*
X12597185Y-8819186D01*
X12620944Y-8819186D01*
X12633106Y-8831348D01*
X12645269Y-8819186D01*
X12669027Y-8819186D01*
X12681190Y-8831348D01*
X12687183Y-8825355D01*
X12684167Y-8824106D01*
X12683788Y-8823852D01*
X12681005Y-8821070D01*
X12718995Y-8821070D01*
X12729273Y-8831348D01*
X12741435Y-8819186D01*
X12765194Y-8819186D01*
X12777225Y-8831217D01*
X12777813Y-8830892D01*
X12789518Y-8819186D01*
X12777356Y-8807024D01*
X12765194Y-8819186D01*
X12741435Y-8819186D01*
X12729273Y-8807024D01*
X12726681Y-8809616D01*
X12724106Y-8815833D01*
X12723852Y-8816212D01*
X12718995Y-8821070D01*
X12681005Y-8821070D01*
X12676148Y-8816212D01*
X12675894Y-8815833D01*
X12674865Y-8813349D01*
X12669027Y-8819186D01*
X12645269Y-8819186D01*
X12633106Y-8807024D01*
X12620944Y-8819186D01*
X12597185Y-8819186D01*
X12585023Y-8807024D01*
X12572861Y-8819186D01*
X12549102Y-8819186D01*
X12536940Y-8807024D01*
X12524778Y-8819186D01*
X12501019Y-8819186D01*
X12488857Y-8807024D01*
X12476694Y-8819186D01*
X12452936Y-8819186D01*
X12440773Y-8807024D01*
X12428611Y-8819186D01*
X12404852Y-8819186D01*
X12392690Y-8807024D01*
X12380528Y-8819186D01*
X12356769Y-8819186D01*
X12344607Y-8807024D01*
X12332445Y-8819186D01*
X12308686Y-8819186D01*
X12296524Y-8807024D01*
X12284361Y-8819186D01*
X12260603Y-8819186D01*
X12248440Y-8807024D01*
X12236278Y-8819186D01*
X12212519Y-8819186D01*
X12200357Y-8807024D01*
X12188195Y-8819186D01*
X12164436Y-8819186D01*
X12152274Y-8807024D01*
X12140112Y-8819186D01*
X12116353Y-8819186D01*
X12104191Y-8807024D01*
X12092028Y-8819186D01*
X12068270Y-8819186D01*
X12056107Y-8807024D01*
X12043945Y-8819186D01*
X12020186Y-8819186D01*
X12008024Y-8807024D01*
X11995862Y-8819186D01*
X11972103Y-8819186D01*
X11959941Y-8807024D01*
X11947779Y-8819186D01*
X11896894Y-8819186D01*
X11913543Y-8802029D01*
X11913634Y-8801945D01*
X11915207Y-8800637D01*
X11921811Y-8795145D01*
X11971820Y-8795145D01*
X11983982Y-8807307D01*
X11996145Y-8795145D01*
X12019903Y-8795145D01*
X12032066Y-8807307D01*
X12044228Y-8795145D01*
X12067987Y-8795145D01*
X12080149Y-8807307D01*
X12092311Y-8795145D01*
X12116070Y-8795145D01*
X12128232Y-8807307D01*
X12140394Y-8795145D01*
X12164153Y-8795145D01*
X12176315Y-8807307D01*
X12188478Y-8795145D01*
X12212236Y-8795145D01*
X12224399Y-8807307D01*
X12236561Y-8795145D01*
X12260320Y-8795145D01*
X12272482Y-8807307D01*
X12284644Y-8795145D01*
X12308403Y-8795145D01*
X12320565Y-8807307D01*
X12332727Y-8795145D01*
X12356486Y-8795145D01*
X12368649Y-8807307D01*
X12380811Y-8795145D01*
X12404570Y-8795145D01*
X12416732Y-8807307D01*
X12428894Y-8795145D01*
X12452653Y-8795145D01*
X12464815Y-8807307D01*
X12476977Y-8795145D01*
X12500736Y-8795145D01*
X12512898Y-8807307D01*
X12525061Y-8795145D01*
X12548819Y-8795145D01*
X12560982Y-8807307D01*
X12573144Y-8795145D01*
X12596903Y-8795145D01*
X12609065Y-8807307D01*
X12621227Y-8795145D01*
X12644986Y-8795145D01*
X12657148Y-8807307D01*
X12669310Y-8795145D01*
X12741152Y-8795145D01*
X12753315Y-8807307D01*
X12765477Y-8795145D01*
X12789236Y-8795145D01*
X12797085Y-8802994D01*
X12797835Y-8800654D01*
X12797841Y-8800637D01*
X12798085Y-8799913D01*
X12798091Y-8799897D01*
X12798191Y-8799613D01*
X12798198Y-8799596D01*
X12798471Y-8798861D01*
X12798477Y-8798844D01*
X12800988Y-8792398D01*
X12801081Y-8792126D01*
X12801108Y-8792055D01*
X12801529Y-8791039D01*
X12801560Y-8790970D01*
X12801978Y-8790122D01*
X12802014Y-8790055D01*
X12803200Y-8788001D01*
X12803200Y-8784784D01*
X12801398Y-8782982D01*
X12789236Y-8795145D01*
X12765477Y-8795145D01*
X12753315Y-8782982D01*
X12741152Y-8795145D01*
X12669310Y-8795145D01*
X12657148Y-8782982D01*
X12644986Y-8795145D01*
X12621227Y-8795145D01*
X12609065Y-8782982D01*
X12596903Y-8795145D01*
X12573144Y-8795145D01*
X12560982Y-8782982D01*
X12548819Y-8795145D01*
X12525061Y-8795145D01*
X12512898Y-8782982D01*
X12500736Y-8795145D01*
X12476977Y-8795145D01*
X12464815Y-8782982D01*
X12452653Y-8795145D01*
X12428894Y-8795145D01*
X12416732Y-8782982D01*
X12404570Y-8795145D01*
X12380811Y-8795145D01*
X12368649Y-8782982D01*
X12356486Y-8795145D01*
X12332727Y-8795145D01*
X12320565Y-8782982D01*
X12308403Y-8795145D01*
X12284644Y-8795145D01*
X12272482Y-8782982D01*
X12260320Y-8795145D01*
X12236561Y-8795145D01*
X12224399Y-8782982D01*
X12212236Y-8795145D01*
X12188478Y-8795145D01*
X12176315Y-8782982D01*
X12164153Y-8795145D01*
X12140394Y-8795145D01*
X12128232Y-8782982D01*
X12116070Y-8795145D01*
X12092311Y-8795145D01*
X12080149Y-8782982D01*
X12067987Y-8795145D01*
X12044228Y-8795145D01*
X12032066Y-8782982D01*
X12019903Y-8795145D01*
X11996145Y-8795145D01*
X11983982Y-8782982D01*
X11971820Y-8795145D01*
X11921811Y-8795145D01*
X11936147Y-8783223D01*
X11936244Y-8783150D01*
X11954353Y-8771103D01*
X11995862Y-8771103D01*
X12008024Y-8783265D01*
X12020186Y-8771103D01*
X12043945Y-8771103D01*
X12056107Y-8783265D01*
X12068270Y-8771103D01*
X12092028Y-8771103D01*
X12104191Y-8783265D01*
X12116353Y-8771103D01*
X12140112Y-8771103D01*
X12152274Y-8783265D01*
X12164436Y-8771103D01*
X12188195Y-8771103D01*
X12200357Y-8783265D01*
X12212519Y-8771103D01*
X12236278Y-8771103D01*
X12248440Y-8783265D01*
X12260603Y-8771103D01*
X12284361Y-8771103D01*
X12296524Y-8783265D01*
X12308686Y-8771103D01*
X12332445Y-8771103D01*
X12344607Y-8783265D01*
X12356769Y-8771103D01*
X12380528Y-8771103D01*
X12392690Y-8783265D01*
X12404852Y-8771103D01*
X12428611Y-8771103D01*
X12440773Y-8783265D01*
X12452936Y-8771103D01*
X12476694Y-8771103D01*
X12488857Y-8783265D01*
X12501019Y-8771103D01*
X12524778Y-8771103D01*
X12536940Y-8783265D01*
X12549102Y-8771103D01*
X12572861Y-8771103D01*
X12585023Y-8783265D01*
X12597185Y-8771103D01*
X12620944Y-8771103D01*
X12633106Y-8783265D01*
X12645269Y-8771103D01*
X12669027Y-8771103D01*
X12678930Y-8781005D01*
X12683788Y-8776148D01*
X12684167Y-8775894D01*
X12691668Y-8772787D01*
X12693352Y-8771103D01*
X12717111Y-8771103D01*
X12729273Y-8783265D01*
X12741435Y-8771103D01*
X12765194Y-8771103D01*
X12777356Y-8783265D01*
X12789519Y-8771103D01*
X12777356Y-8758941D01*
X12765194Y-8771103D01*
X12741435Y-8771103D01*
X12729273Y-8758941D01*
X12717111Y-8771103D01*
X12693352Y-8771103D01*
X12693352Y-8771103D01*
X12681190Y-8758941D01*
X12669027Y-8771103D01*
X12645269Y-8771103D01*
X12633106Y-8758941D01*
X12620944Y-8771103D01*
X12597185Y-8771103D01*
X12585023Y-8758941D01*
X12572861Y-8771103D01*
X12549102Y-8771103D01*
X12536940Y-8758941D01*
X12524778Y-8771103D01*
X12501019Y-8771103D01*
X12488857Y-8758941D01*
X12476694Y-8771103D01*
X12452936Y-8771103D01*
X12440773Y-8758941D01*
X12428611Y-8771103D01*
X12404852Y-8771103D01*
X12392690Y-8758941D01*
X12380528Y-8771103D01*
X12356769Y-8771103D01*
X12344607Y-8758941D01*
X12332445Y-8771103D01*
X12308686Y-8771103D01*
X12296524Y-8758941D01*
X12284361Y-8771103D01*
X12260603Y-8771103D01*
X12248440Y-8758941D01*
X12236278Y-8771103D01*
X12212519Y-8771103D01*
X12200357Y-8758941D01*
X12188195Y-8771103D01*
X12164436Y-8771103D01*
X12152274Y-8758941D01*
X12140112Y-8771103D01*
X12116353Y-8771103D01*
X12104191Y-8758941D01*
X12092028Y-8771103D01*
X12068270Y-8771103D01*
X12056107Y-8758941D01*
X12043945Y-8771103D01*
X12020186Y-8771103D01*
X12010950Y-8761867D01*
X12001324Y-8765641D01*
X11995862Y-8771103D01*
X11954353Y-8771103D01*
X11960623Y-8766931D01*
X11960728Y-8766869D01*
X11986695Y-8753339D01*
X11986808Y-8753287D01*
X12001254Y-8747623D01*
X12068549Y-8747623D01*
X12080149Y-8759224D01*
X12092311Y-8747061D01*
X12116070Y-8747061D01*
X12128232Y-8759224D01*
X12140394Y-8747061D01*
X12164153Y-8747061D01*
X12176315Y-8759224D01*
X12188478Y-8747061D01*
X12212237Y-8747061D01*
X12224399Y-8759224D01*
X12236561Y-8747061D01*
X12260320Y-8747061D01*
X12272482Y-8759224D01*
X12284644Y-8747061D01*
X12308403Y-8747061D01*
X12320565Y-8759224D01*
X12332727Y-8747061D01*
X12356486Y-8747061D01*
X12368649Y-8759224D01*
X12380811Y-8747061D01*
X12404570Y-8747061D01*
X12416732Y-8759224D01*
X12428894Y-8747061D01*
X12452653Y-8747061D01*
X12464815Y-8759224D01*
X12476977Y-8747061D01*
X12500736Y-8747061D01*
X12512898Y-8759224D01*
X12525060Y-8747061D01*
X12548819Y-8747061D01*
X12560982Y-8759224D01*
X12573144Y-8747061D01*
X12596903Y-8747061D01*
X12609065Y-8759224D01*
X12621227Y-8747061D01*
X12644986Y-8747061D01*
X12657148Y-8759224D01*
X12669310Y-8747061D01*
X12693069Y-8747061D01*
X12705231Y-8759224D01*
X12717394Y-8747061D01*
X12741152Y-8747061D01*
X12753315Y-8759224D01*
X12765477Y-8747061D01*
X12789236Y-8747061D01*
X12801398Y-8759224D01*
X12803200Y-8757422D01*
X12803200Y-8747627D01*
X12797598Y-8746796D01*
X12789880Y-8746417D01*
X12789236Y-8747061D01*
X12765477Y-8747061D01*
X12763766Y-8745350D01*
X12742864Y-8745350D01*
X12741152Y-8747061D01*
X12717394Y-8747061D01*
X12715682Y-8745350D01*
X12694781Y-8745350D01*
X12693069Y-8747061D01*
X12669310Y-8747061D01*
X12667599Y-8745350D01*
X12646697Y-8745350D01*
X12644986Y-8747061D01*
X12621227Y-8747061D01*
X12619516Y-8745350D01*
X12598614Y-8745350D01*
X12596903Y-8747061D01*
X12573144Y-8747061D01*
X12571432Y-8745350D01*
X12550531Y-8745350D01*
X12548819Y-8747061D01*
X12525060Y-8747061D01*
X12525061Y-8747061D01*
X12523349Y-8745350D01*
X12502447Y-8745350D01*
X12500736Y-8747061D01*
X12476977Y-8747061D01*
X12475266Y-8745350D01*
X12454364Y-8745350D01*
X12452653Y-8747061D01*
X12428894Y-8747061D01*
X12427183Y-8745350D01*
X12406281Y-8745350D01*
X12404570Y-8747061D01*
X12380811Y-8747061D01*
X12379099Y-8745350D01*
X12358198Y-8745350D01*
X12356486Y-8747061D01*
X12332727Y-8747061D01*
X12331016Y-8745350D01*
X12310114Y-8745350D01*
X12308403Y-8747061D01*
X12284644Y-8747061D01*
X12282933Y-8745350D01*
X12262031Y-8745350D01*
X12260320Y-8747061D01*
X12236561Y-8747061D01*
X12234850Y-8745350D01*
X12213948Y-8745350D01*
X12212237Y-8747061D01*
X12188478Y-8747061D01*
X12186766Y-8745350D01*
X12165865Y-8745350D01*
X12164153Y-8747061D01*
X12140394Y-8747061D01*
X12138683Y-8745350D01*
X12117781Y-8745350D01*
X12116070Y-8747061D01*
X12092311Y-8747061D01*
X12091146Y-8745896D01*
X12073309Y-8746854D01*
X12068549Y-8747623D01*
X12001254Y-8747623D01*
X12014067Y-8742599D01*
X12014184Y-8742560D01*
X12042425Y-8734836D01*
X12042546Y-8734810D01*
X12071451Y-8730136D01*
X12071574Y-8730123D01*
X12100843Y-8728552D01*
X12100906Y-8728550D01*
X12763545Y-8728550D01*
X12768550Y-8728550D01*
X12768607Y-8728551D01*
G37*
%TD.AperFunction*%
%TD*%
%TA.AperFunction,Conductor*%
%TO.N,/UART1_TXD*%
G36*
X12883924Y-8806865D02*
G01*
X12884731Y-8807252D01*
X12885029Y-8808096D01*
X12885026Y-8808142D01*
X12880405Y-8857811D01*
X12879987Y-8858603D01*
X12879515Y-8858840D01*
X12872217Y-8860604D01*
X12872066Y-8860641D01*
X12872012Y-8860652D01*
X12864813Y-8862042D01*
X12864772Y-8862049D01*
X12858319Y-8863057D01*
X12858302Y-8863059D01*
X12852334Y-8863901D01*
X12846566Y-8864796D01*
X12840749Y-8865958D01*
X12834602Y-8867609D01*
X12827852Y-8869966D01*
X12820226Y-8873247D01*
X12820224Y-8873247D01*
X12812466Y-8877157D01*
X12811573Y-8877223D01*
X12810909Y-8876666D01*
X12801099Y-8858384D01*
X12801010Y-8857493D01*
X12801525Y-8856829D01*
X12807892Y-8852988D01*
X12813526Y-8848559D01*
X12817768Y-8844045D01*
X12820913Y-8839376D01*
X12823258Y-8834482D01*
X12825095Y-8829290D01*
X12826721Y-8823732D01*
X12828425Y-8817751D01*
X12828436Y-8817717D01*
X12830507Y-8811259D01*
X12830529Y-8811199D01*
X12832970Y-8804933D01*
X12833589Y-8804287D01*
X12834122Y-8804189D01*
X12883924Y-8806865D01*
G37*
%TD.AperFunction*%
%TD*%
M02*
