%TF.GenerationSoftware,KiCad,Pcbnew,6.0.6-1.fc36*%
%TF.CreationDate,2022-07-25T13:06:58-04:00*%
%TF.ProjectId,ext-con-breakout-board,6578742d-636f-46e2-9d62-7265616b6f75,v0.5*%
%TF.SameCoordinates,Original*%
%TF.FileFunction,Copper,L3,Inr*%
%TF.FilePolarity,Positive*%
%FSLAX46Y46*%
G04 Gerber Fmt 4.6, Leading zero omitted, Abs format (unit mm)*
G04 Created by KiCad (PCBNEW 6.0.6-1.fc36) date 2022-07-25 13:06:58*
%MOMM*%
%LPD*%
G01*
G04 APERTURE LIST*
%TA.AperFunction,ComponentPad*%
%ADD10R,1.700000X1.700000*%
%TD*%
%TA.AperFunction,ComponentPad*%
%ADD11O,1.700000X1.700000*%
%TD*%
%TA.AperFunction,ComponentPad*%
%ADD12C,2.800000*%
%TD*%
%TA.AperFunction,Conductor*%
%ADD13R,0.230000X0.750000*%
%TD*%
%TA.AperFunction,Conductor*%
%ADD14R,0.450000X0.655000*%
%TD*%
%TA.AperFunction,ViaPad*%
%ADD15C,0.800000*%
%TD*%
%TA.AperFunction,Conductor*%
%ADD16C,0.230000*%
%TD*%
G04 APERTURE END LIST*
D10*
%TO.N,GND*%
%TO.C,J2*%
X130500000Y-119000000D03*
D11*
%TO.N,/UART1_RXD*%
X127960000Y-119000000D03*
%TO.N,/UART1_TXD*%
X125420000Y-119000000D03*
%TO.N,GND*%
X122880000Y-119000000D03*
%TO.N,/SPI_SS1*%
X120340000Y-119000000D03*
%TO.N,/SPI_SCK*%
X117800000Y-119000000D03*
%TO.N,/SPI_MOSI*%
X115260000Y-119000000D03*
%TO.N,/SPI_MISO*%
X112720000Y-119000000D03*
%TO.N,GND*%
X110180000Y-119000000D03*
%TO.N,Net-(C1-Pad1)*%
X107640000Y-119000000D03*
%TO.N,Net-(C2-Pad1)*%
X105100000Y-119000000D03*
%TO.N,GND*%
X102560000Y-119000000D03*
%TO.N,/GPIO4_IO11*%
X100020000Y-119000000D03*
%TO.N,/GPIO4_IO28*%
X97480000Y-119000000D03*
%TO.N,/I2C4_SCL*%
X94940000Y-119000000D03*
%TO.N,/I2C4_SDA*%
X92400000Y-119000000D03*
%TD*%
D12*
%TO.N,GND*%
%TO.C,H1*%
X133671000Y-119000000D03*
%TD*%
D13*
%TO.N,/I2C4_SDA*%
%TO.C,J1*%
X130200000Y-89225000D03*
%TO.N,unconnected-(J1-Pad2)*%
X130200000Y-86775000D03*
%TO.N,/I2C4_SCL*%
X129800000Y-89225000D03*
%TO.N,unconnected-(J1-Pad4)*%
X129800000Y-86775000D03*
%TO.N,GND*%
X129400000Y-89225000D03*
%TO.N,/GPIO4_IO28*%
X129400000Y-86775000D03*
%TO.N,/UART1_RXD*%
X129000000Y-89225000D03*
%TO.N,unconnected-(J1-Pad8)*%
X129000000Y-86775000D03*
%TO.N,/UART1_TXD*%
X128600000Y-89225000D03*
%TO.N,unconnected-(J1-Pad10)*%
X128600000Y-86775000D03*
%TO.N,GND*%
X128200000Y-89225000D03*
%TO.N,unconnected-(J1-Pad12)*%
X128200000Y-86775000D03*
%TO.N,/SPI_SS1*%
X127800000Y-89225000D03*
%TO.N,/GPIO4_IO11*%
X127800000Y-86775000D03*
%TO.N,/SPI_SCK*%
X127400000Y-89225000D03*
%TO.N,unconnected-(J1-Pad16)*%
X127400000Y-86775000D03*
%TO.N,GND*%
X127000000Y-89225000D03*
%TO.N,+1V8*%
X127000000Y-86775000D03*
%TO.N,/SPI_MOSI*%
X126600000Y-89225000D03*
%TO.N,unconnected-(J1-Pad20)*%
X126600000Y-86775000D03*
%TO.N,GND*%
X126200000Y-89225000D03*
%TO.N,+3V3*%
X126200000Y-86775000D03*
%TO.N,/SPI_MISO*%
X125800000Y-89225000D03*
%TO.N,unconnected-(J1-Pad24)*%
X125800000Y-86775000D03*
D14*
%TO.N,N/C*%
X130995000Y-88702500D03*
X125005000Y-88702500D03*
X125005000Y-87297500D03*
X130995000Y-87297500D03*
%TD*%
D15*
%TO.N,/I2C4_SDA*%
X130200000Y-90400000D03*
%TO.N,/I2C4_SCL*%
X130100000Y-88000000D03*
%TO.N,GND*%
X127000000Y-88000000D03*
%TO.N,/UART1_RXD*%
X129000000Y-90400000D03*
%TO.N,/UART1_TXD*%
X128700000Y-88200000D03*
%TO.N,+1V8*%
X112000000Y-116800000D03*
%TO.N,+3V3*%
X113500000Y-116800000D03*
%TD*%
D16*
%TO.N,/I2C4_SDA*%
X130200000Y-89225000D02*
X130200000Y-90400000D01*
%TO.N,/I2C4_SCL*%
X129800000Y-89225000D02*
X129800000Y-88724264D01*
X130100011Y-88000011D02*
G75*
G03*
X129800000Y-88724264I724289J-724289D01*
G01*
%TO.N,GND*%
X128717158Y-87500000D02*
X128207106Y-87500000D01*
X128200000Y-89225000D02*
X128200000Y-88844390D01*
X126200000Y-88565000D02*
X126200000Y-89225000D01*
X127000000Y-89225000D02*
X127000000Y-88000000D01*
X129400000Y-89225000D02*
X129400000Y-88182842D01*
X128097901Y-88597901D02*
X127853553Y-88353553D01*
X127000000Y-88000000D02*
X126765000Y-88000000D01*
X127000000Y-87999999D02*
G75*
G02*
X127853552Y-88353554I0J-1207101D01*
G01*
X128717158Y-87500018D02*
G75*
G02*
X129200000Y-87700000I42J-682782D01*
G01*
X129200013Y-87699987D02*
G75*
G02*
X129400000Y-88182842I-482813J-482813D01*
G01*
X126999998Y-87999998D02*
G75*
G02*
X128207106Y-87500000I1207102J-1207102D01*
G01*
X128097898Y-88597904D02*
G75*
G02*
X128200000Y-88844390I-246498J-246496D01*
G01*
X126200000Y-88565000D02*
G75*
G02*
X126765000Y-88000000I565000J0D01*
G01*
%TO.N,/GPIO4_IO28*%
X121910051Y-86600000D02*
X120988355Y-86600000D01*
X117843000Y-88691000D02*
X117508789Y-89379678D01*
X129400000Y-86775000D02*
X129400000Y-86408317D01*
X117100000Y-91158335D02*
X117100000Y-114718184D01*
X128306683Y-85315000D02*
X125012269Y-85315000D01*
X116593184Y-115225000D02*
X106593656Y-115225000D01*
X117100016Y-91158335D02*
G75*
G02*
X117508789Y-89379678I4073884J35D01*
G01*
X128306683Y-85315000D02*
G75*
G02*
X129400000Y-86408317I17J-1093300D01*
G01*
X121910051Y-86599979D02*
G75*
G03*
X123600000Y-85900000I49J2389879D01*
G01*
X117843000Y-88691000D02*
G75*
G02*
X120988355Y-86600000I3134800J-1304300D01*
G01*
X123600016Y-85900016D02*
G75*
G02*
X125012269Y-85315000I1412284J-1412184D01*
G01*
X116593184Y-115225000D02*
G75*
G03*
X117100000Y-114718184I16J506800D01*
G01*
X97480013Y-119000013D02*
G75*
G02*
X106593656Y-115225000I9113687J-9113687D01*
G01*
%TO.N,/UART1_RXD*%
X129000000Y-89225000D02*
X129000000Y-90400000D01*
%TO.N,/UART1_TXD*%
X128600000Y-89225000D02*
X128600000Y-88441421D01*
X128699994Y-88199994D02*
G75*
G03*
X128600000Y-88441421I241406J-241406D01*
G01*
%TO.N,/SPI_SS1*%
X119900000Y-91167525D02*
X119900000Y-117937747D01*
X121992894Y-89400000D02*
X121190000Y-89400000D01*
X126735074Y-90685000D02*
X125095101Y-90685000D01*
X127800000Y-89225000D02*
X127800000Y-89620074D01*
X120360362Y-89918489D02*
X120031159Y-90596848D01*
X121992894Y-89400003D02*
G75*
G02*
X123200000Y-89900000I6J-1707097D01*
G01*
X119900012Y-91167525D02*
G75*
G02*
X120031160Y-90596848I1307088J25D01*
G01*
X126735074Y-90685000D02*
G75*
G03*
X127800000Y-89620074I26J1064900D01*
G01*
X120360342Y-89918479D02*
G75*
G02*
X121190000Y-89400000I831258J-407121D01*
G01*
X123200004Y-89899996D02*
G75*
G03*
X125095101Y-90685000I1895096J1894996D01*
G01*
X120340013Y-118999987D02*
G75*
G02*
X119900000Y-117937747I1062287J1062287D01*
G01*
%TO.N,/GPIO4_IO11*%
X118203246Y-88866390D02*
X117868652Y-89555857D01*
X116594544Y-115650000D02*
X108107615Y-115650000D01*
X122110051Y-87000000D02*
X121008650Y-87000000D01*
X117500000Y-91159875D02*
X117500000Y-114744544D01*
X127800000Y-86775000D02*
X127800000Y-86408054D01*
X127106946Y-85715000D02*
X125212292Y-85715000D01*
X116594544Y-115650000D02*
G75*
G03*
X117500000Y-114744544I-44J905500D01*
G01*
X100019995Y-118999995D02*
G75*
G02*
X108107615Y-115650000I8087605J-8087605D01*
G01*
X122110051Y-86999979D02*
G75*
G03*
X123800000Y-86300000I49J2389879D01*
G01*
X123799996Y-86299996D02*
G75*
G02*
X125212292Y-85715000I1412304J-1412304D01*
G01*
X127106946Y-85715000D02*
G75*
G02*
X127800000Y-86408054I-46J-693100D01*
G01*
X117499990Y-91159875D02*
G75*
G02*
X117868652Y-89555857I3673910J-25D01*
G01*
X118203246Y-88866390D02*
G75*
G02*
X121008650Y-87000000I2806254J-1176510D01*
G01*
%TO.N,/SPI_SCK*%
X119500000Y-91169915D02*
X119500000Y-115026629D01*
X117829859Y-118970140D02*
X117849950Y-118950048D01*
X117817840Y-118982160D02*
X117829859Y-118970140D01*
X120000844Y-89743140D02*
X119672340Y-90420058D01*
X117849950Y-118950048D02*
X117872680Y-118927317D01*
X122051472Y-89000000D02*
X121163259Y-89000000D01*
X117817840Y-118982160D02*
X117800000Y-119000000D01*
X126710366Y-90285000D02*
X125153730Y-90285000D01*
X127400000Y-89225000D02*
X127400000Y-89595366D01*
X117872680Y-118927317D02*
X117892517Y-118907480D01*
X119500007Y-91169915D02*
G75*
G02*
X119672340Y-90420058I1717493J15D01*
G01*
X122051472Y-89000012D02*
G75*
G02*
X123500000Y-89600000I28J-2048488D01*
G01*
X117892503Y-118907466D02*
G75*
G03*
X119500000Y-115026629I-3880903J3880866D01*
G01*
X120000832Y-89743135D02*
G75*
G02*
X121163259Y-89000001I1167468J-545465D01*
G01*
X126710366Y-90285000D02*
G75*
G03*
X127400000Y-89595366I34J689600D01*
G01*
X123499989Y-89600011D02*
G75*
G03*
X125153730Y-90285000I1653711J1653711D01*
G01*
%TO.N,+1V8*%
X112000000Y-116800000D02*
X112063604Y-116736396D01*
X122551472Y-87400000D02*
X121051370Y-87400000D01*
X126715548Y-86115000D02*
X125653670Y-86115000D01*
X127000000Y-86775000D02*
X127000000Y-86399452D01*
X113600000Y-116100000D02*
X116587827Y-116100000D01*
X117900000Y-91159902D02*
X117900000Y-114787827D01*
X118562774Y-89041746D02*
X118228514Y-89730524D01*
X126715548Y-86115000D02*
G75*
G02*
X127000000Y-86399452I-48J-284500D01*
G01*
X117900000Y-114787827D02*
G75*
G02*
X116587827Y-116100000I-1312200J27D01*
G01*
X117900002Y-91159902D02*
G75*
G02*
X118228515Y-89730524I3273898J2D01*
G01*
X113600000Y-116100003D02*
G75*
G03*
X112063605Y-116736397I0J-2172797D01*
G01*
X124000010Y-86800010D02*
G75*
G02*
X125653670Y-86115000I1653690J-1653590D01*
G01*
X122551472Y-87399988D02*
G75*
G03*
X124000000Y-86800000I28J2048488D01*
G01*
X118562742Y-89041732D02*
G75*
G02*
X121051370Y-87400000I2481658J-1054768D01*
G01*
%TO.N,/SPI_MOSI*%
X118287621Y-117012380D02*
X117903556Y-117396445D01*
X119100000Y-91159898D02*
X119100000Y-115051122D01*
X119641327Y-89567792D02*
X119308102Y-90254437D01*
X126600000Y-89225000D02*
X126600000Y-89600882D01*
X116128163Y-118131838D02*
X115260000Y-119000000D01*
X126315882Y-89885000D02*
X125212340Y-89885000D01*
X122110051Y-88600000D02*
X121138822Y-88600000D01*
X118287602Y-117012361D02*
G75*
G03*
X119100000Y-115051122I-1961202J1961261D01*
G01*
X122110051Y-88600044D02*
G75*
G02*
X123970711Y-89370711I49J-2631356D01*
G01*
X123970681Y-89370741D02*
G75*
G03*
X125212340Y-89885000I1241619J1241741D01*
G01*
X126315882Y-89885000D02*
G75*
G03*
X126600000Y-89600882I18J284100D01*
G01*
X117050000Y-117750002D02*
G75*
G03*
X117903556Y-117396445I0J1207102D01*
G01*
X119099999Y-91159898D02*
G75*
G02*
X119308102Y-90254437I2073901J-2D01*
G01*
X119641341Y-89567798D02*
G75*
G02*
X121138822Y-88600000I1498559J-676302D01*
G01*
X116128157Y-118131832D02*
G75*
G02*
X117050000Y-117750000I921843J-921868D01*
G01*
%TO.N,+3V3*%
X124068758Y-87931242D02*
X123614569Y-87885431D01*
X124339732Y-87960268D02*
X124068758Y-87931242D01*
X122875734Y-87824266D02*
X122400000Y-87800000D01*
X126200000Y-86775000D02*
X126200000Y-87200000D01*
X124684837Y-87984837D02*
X124339732Y-87960268D01*
X118300000Y-91159900D02*
X118300000Y-114826857D01*
X125400000Y-88000000D02*
X125000000Y-88000000D01*
X116326857Y-116800000D02*
X113500000Y-116800000D01*
X123614569Y-87885431D02*
X123251870Y-87851870D01*
X123251870Y-87851870D02*
X122875734Y-87824266D01*
X122400000Y-87800000D02*
X121089949Y-87800000D01*
X125000000Y-88000000D02*
X124684837Y-87984837D01*
X118922291Y-89217095D02*
X118588377Y-89905161D01*
X125400000Y-88000000D02*
G75*
G03*
X126200000Y-87200000I0J800000D01*
G01*
X118300001Y-91159900D02*
G75*
G02*
X118588378Y-89905161I2873899J0D01*
G01*
X118922293Y-89217096D02*
G75*
G02*
X121089949Y-87800001I2160907J-939004D01*
G01*
X116326857Y-116800000D02*
G75*
G03*
X118300000Y-114826857I43J1973100D01*
G01*
%TO.N,/SPI_MISO*%
X125710000Y-89315000D02*
X124783298Y-89315000D01*
X119281809Y-89392443D02*
X118948240Y-90079798D01*
X124295602Y-89095599D02*
X124266208Y-89066207D01*
X113019928Y-118700071D02*
X112720000Y-119000000D01*
X118700000Y-91159898D02*
X118700000Y-115000000D01*
X122175000Y-88200000D02*
X121124386Y-88200000D01*
X124325291Y-89125288D02*
X124295602Y-89095599D01*
X116400000Y-117300000D02*
G75*
G03*
X118700000Y-115000000I0J2300000D01*
G01*
X124325296Y-89125283D02*
G75*
G03*
X124783298Y-89315000I458004J457983D01*
G01*
X113019937Y-118700080D02*
G75*
G02*
X116400000Y-117300000I3380063J-3380020D01*
G01*
X125710000Y-89315000D02*
G75*
G03*
X125800000Y-89225000I0J90000D01*
G01*
X118700000Y-91159898D02*
G75*
G02*
X118948240Y-90079798I2473900J-2D01*
G01*
X122175000Y-88199996D02*
G75*
G02*
X124266208Y-89066207I0J-2957404D01*
G01*
X119281781Y-89392430D02*
G75*
G02*
X121124386Y-88200001I1844119J-829770D01*
G01*
%TD*%
%TA.AperFunction,Conductor*%
%TO.N,GND*%
G36*
X105112144Y-114818097D02*
G01*
X105154209Y-114866643D01*
X105163351Y-114930224D01*
X105136666Y-114988654D01*
X105082629Y-115023382D01*
X105065391Y-115027025D01*
X105048301Y-115029275D01*
X104533552Y-115097044D01*
X104533536Y-115097047D01*
X104532059Y-115097241D01*
X104530589Y-115097514D01*
X104530573Y-115097516D01*
X103855114Y-115222707D01*
X103855102Y-115222710D01*
X103853659Y-115222977D01*
X103182768Y-115384046D01*
X102933561Y-115457865D01*
X102522678Y-115579575D01*
X102522671Y-115579577D01*
X102521227Y-115580005D01*
X101870848Y-115810317D01*
X101233414Y-116074352D01*
X100610672Y-116371386D01*
X100609370Y-116372093D01*
X100609362Y-116372097D01*
X100005651Y-116699887D01*
X100004329Y-116700605D01*
X100003056Y-116701385D01*
X100003051Y-116701388D01*
X99854217Y-116792594D01*
X99416047Y-117061105D01*
X98847438Y-117451900D01*
X98611101Y-117633249D01*
X98609985Y-117634105D01*
X98586013Y-117648221D01*
X98583828Y-117649170D01*
X98583825Y-117649172D01*
X98578692Y-117651402D01*
X98447493Y-117742366D01*
X98431669Y-117753337D01*
X98420698Y-117760060D01*
X98300219Y-117824829D01*
X98286657Y-117831012D01*
X98250362Y-117844770D01*
X98183942Y-117869946D01*
X98169561Y-117874337D01*
X98112133Y-117887803D01*
X98073494Y-117896863D01*
X98061411Y-117899017D01*
X98019626Y-117904162D01*
X97959570Y-117911556D01*
X97952517Y-117912202D01*
X97874863Y-117916896D01*
X97835387Y-117919282D01*
X97834532Y-117919330D01*
X97702500Y-117926190D01*
X97699103Y-117926400D01*
X97698641Y-117926433D01*
X97695104Y-117926722D01*
X97694911Y-117926740D01*
X97694861Y-117926744D01*
X97609148Y-117934612D01*
X97551662Y-117939888D01*
X97548059Y-117940283D01*
X97545915Y-117940518D01*
X97545892Y-117940521D01*
X97545470Y-117940567D01*
X97544640Y-117940673D01*
X97541014Y-117941207D01*
X97538583Y-117941564D01*
X97538561Y-117941567D01*
X97538034Y-117941645D01*
X97537464Y-117941740D01*
X97537451Y-117941742D01*
X97509293Y-117946433D01*
X97379334Y-117968083D01*
X97376612Y-117968600D01*
X97372187Y-117969440D01*
X97372163Y-117969445D01*
X97371525Y-117969566D01*
X97370490Y-117969787D01*
X97369864Y-117969936D01*
X97369831Y-117969943D01*
X97363418Y-117971465D01*
X97363395Y-117971471D01*
X97362766Y-117971620D01*
X97362146Y-117971782D01*
X97362126Y-117971787D01*
X97194878Y-118015493D01*
X97194876Y-118015494D01*
X97191580Y-118016355D01*
X97188415Y-118017601D01*
X97188411Y-118017602D01*
X97152693Y-118031660D01*
X97152649Y-118031548D01*
X97140916Y-118035970D01*
X97095864Y-118049230D01*
X96918508Y-118141950D01*
X96904230Y-118153430D01*
X96778953Y-118254156D01*
X96762539Y-118267353D01*
X96633897Y-118420661D01*
X96537484Y-118596037D01*
X96535801Y-118601343D01*
X96535800Y-118601345D01*
X96490073Y-118745494D01*
X96476970Y-118786799D01*
X96467422Y-118871925D01*
X96463678Y-118905306D01*
X96454662Y-118985683D01*
X96471408Y-119185111D01*
X96483472Y-119227184D01*
X96523790Y-119367786D01*
X96526572Y-119377489D01*
X96529122Y-119382450D01*
X96529122Y-119382451D01*
X96549415Y-119421936D01*
X96618051Y-119555488D01*
X96742362Y-119712329D01*
X96894769Y-119842038D01*
X96941790Y-119868317D01*
X97064596Y-119936951D01*
X97064598Y-119936952D01*
X97069467Y-119939673D01*
X97074776Y-119941398D01*
X97254498Y-119999794D01*
X97254502Y-119999795D01*
X97259802Y-120001517D01*
X97317190Y-120008360D01*
X97452988Y-120024553D01*
X97452990Y-120024553D01*
X97458525Y-120025213D01*
X97658065Y-120009859D01*
X97663430Y-120008361D01*
X97663436Y-120008360D01*
X97845460Y-119957538D01*
X97845463Y-119957537D01*
X97850824Y-119956040D01*
X98029457Y-119865806D01*
X98187162Y-119742593D01*
X98217053Y-119707964D01*
X98314288Y-119595317D01*
X98314290Y-119595314D01*
X98317931Y-119591096D01*
X98321622Y-119584600D01*
X98414027Y-119421936D01*
X98416784Y-119417083D01*
X98418544Y-119411792D01*
X98418545Y-119411790D01*
X98428974Y-119380439D01*
X98437811Y-119360490D01*
X98440003Y-119356597D01*
X98440005Y-119356593D01*
X98442752Y-119351714D01*
X98445048Y-119344702D01*
X98495462Y-119190760D01*
X98495467Y-119190743D01*
X98495673Y-119190115D01*
X98495979Y-119189102D01*
X98497888Y-119182768D01*
X98498073Y-119182156D01*
X98498367Y-119181090D01*
X98500397Y-119172978D01*
X98512174Y-119120672D01*
X98534992Y-119019321D01*
X98534993Y-119019316D01*
X98535098Y-119018850D01*
X98536317Y-119012971D01*
X98536468Y-119012174D01*
X98537507Y-119006106D01*
X98551065Y-118917695D01*
X98559274Y-118864159D01*
X98559290Y-118864046D01*
X98559630Y-118861711D01*
X98559666Y-118861464D01*
X98559710Y-118861144D01*
X98559988Y-118859029D01*
X98571894Y-118763877D01*
X98576063Y-118730563D01*
X98576486Y-118727518D01*
X98592952Y-118619630D01*
X98593079Y-118618802D01*
X98595025Y-118608971D01*
X98616532Y-118520912D01*
X98621484Y-118505491D01*
X98643123Y-118451597D01*
X98652072Y-118429309D01*
X98660860Y-118411900D01*
X98708512Y-118334727D01*
X98719817Y-118319437D01*
X98723091Y-118315706D01*
X98797596Y-118230789D01*
X98808918Y-118219575D01*
X98929854Y-118115499D01*
X98929855Y-118115498D01*
X98933793Y-118112109D01*
X98934310Y-118111467D01*
X98942789Y-118103908D01*
X98954043Y-118095273D01*
X99183366Y-117919307D01*
X99188184Y-117915807D01*
X99193430Y-117912202D01*
X99539621Y-117674271D01*
X99727027Y-117545470D01*
X99732032Y-117542219D01*
X100085608Y-117325547D01*
X100289551Y-117200571D01*
X100294716Y-117197589D01*
X100364714Y-117159583D01*
X100869336Y-116885594D01*
X100874628Y-116882897D01*
X101464814Y-116601392D01*
X101470262Y-116598967D01*
X101563506Y-116560344D01*
X102074344Y-116348747D01*
X102079901Y-116346614D01*
X102430212Y-116222561D01*
X102696263Y-116128347D01*
X102701939Y-116126503D01*
X103015398Y-116033651D01*
X103328866Y-115940798D01*
X103334613Y-115939257D01*
X103970420Y-115786613D01*
X103976243Y-115785375D01*
X104298047Y-115725731D01*
X104549632Y-115679102D01*
X104613531Y-115685664D01*
X104663738Y-115725731D01*
X104684314Y-115786582D01*
X104668725Y-115848896D01*
X104621920Y-115892891D01*
X104605030Y-115899807D01*
X104234190Y-116018004D01*
X104232705Y-116018571D01*
X104232696Y-116018574D01*
X103700351Y-116221781D01*
X103619606Y-116252603D01*
X103618163Y-116253249D01*
X103618155Y-116253252D01*
X103046176Y-116509196D01*
X103019142Y-116521293D01*
X102434689Y-116823228D01*
X102433325Y-116824033D01*
X102433308Y-116824042D01*
X101869455Y-117156650D01*
X101868084Y-117157459D01*
X101637553Y-117311495D01*
X101325807Y-117519797D01*
X101321112Y-117522934D01*
X101161367Y-117643154D01*
X101141533Y-117654497D01*
X101141613Y-117654646D01*
X101136681Y-117657289D01*
X101131510Y-117659438D01*
X100982316Y-117759358D01*
X100982147Y-117759471D01*
X100971233Y-117765930D01*
X100848824Y-117829474D01*
X100835407Y-117835378D01*
X100770781Y-117858979D01*
X100733434Y-117872618D01*
X100731117Y-117873464D01*
X100716972Y-117877614D01*
X100619644Y-117899444D01*
X100607796Y-117901451D01*
X100536594Y-117909685D01*
X100505103Y-117913326D01*
X100498261Y-117913910D01*
X100380480Y-117920372D01*
X100379813Y-117920406D01*
X100264457Y-117925902D01*
X100247900Y-117926691D01*
X100247892Y-117926691D01*
X100247586Y-117926706D01*
X100247304Y-117926722D01*
X100247291Y-117926723D01*
X100244250Y-117926899D01*
X100244043Y-117926911D01*
X100243572Y-117926943D01*
X100240048Y-117927218D01*
X100176412Y-117932831D01*
X100097092Y-117939827D01*
X100097049Y-117939831D01*
X100096530Y-117939877D01*
X100089982Y-117940578D01*
X100089126Y-117940686D01*
X100082840Y-117941595D01*
X100082340Y-117941677D01*
X100082311Y-117941681D01*
X100017635Y-117952231D01*
X99923895Y-117967522D01*
X99916162Y-117968962D01*
X99915131Y-117969178D01*
X99907393Y-117970983D01*
X99906763Y-117971145D01*
X99906747Y-117971149D01*
X99738924Y-118014323D01*
X99738919Y-118014325D01*
X99735629Y-118015171D01*
X99696730Y-118030303D01*
X99696728Y-118030298D01*
X99684036Y-118035051D01*
X99641216Y-118047654D01*
X99641209Y-118047657D01*
X99635864Y-118049230D01*
X99458508Y-118141950D01*
X99444230Y-118153430D01*
X99318953Y-118254156D01*
X99302539Y-118267353D01*
X99173897Y-118420661D01*
X99077484Y-118596037D01*
X99075801Y-118601343D01*
X99075800Y-118601345D01*
X99030073Y-118745494D01*
X99016970Y-118786799D01*
X99007422Y-118871925D01*
X99003678Y-118905306D01*
X98994662Y-118985683D01*
X99011408Y-119185111D01*
X99023472Y-119227184D01*
X99063790Y-119367786D01*
X99066572Y-119377489D01*
X99069122Y-119382450D01*
X99069122Y-119382451D01*
X99089415Y-119421936D01*
X99158051Y-119555488D01*
X99282362Y-119712329D01*
X99434769Y-119842038D01*
X99481790Y-119868317D01*
X99604596Y-119936951D01*
X99604598Y-119936952D01*
X99609467Y-119939673D01*
X99614776Y-119941398D01*
X99794498Y-119999794D01*
X99794502Y-119999795D01*
X99799802Y-120001517D01*
X99857190Y-120008360D01*
X99992988Y-120024553D01*
X99992990Y-120024553D01*
X99998525Y-120025213D01*
X100198065Y-120009859D01*
X100203430Y-120008361D01*
X100203436Y-120008360D01*
X100385460Y-119957538D01*
X100385463Y-119957537D01*
X100390824Y-119956040D01*
X100569457Y-119865806D01*
X100727162Y-119742593D01*
X100757053Y-119707964D01*
X100854288Y-119595317D01*
X100854290Y-119595314D01*
X100857931Y-119591096D01*
X100861622Y-119584600D01*
X100954027Y-119421936D01*
X100956784Y-119417083D01*
X100958544Y-119411793D01*
X100958546Y-119411788D01*
X100966373Y-119388257D01*
X100967916Y-119383621D01*
X100976974Y-119363279D01*
X100977249Y-119362796D01*
X100981285Y-119355693D01*
X101010931Y-119266354D01*
X101047515Y-119213561D01*
X101106839Y-119188926D01*
X101170063Y-119200274D01*
X101217116Y-119244003D01*
X101230338Y-119277199D01*
X101258673Y-119402929D01*
X101261461Y-119411823D01*
X101341954Y-119610055D01*
X101346157Y-119618377D01*
X101457951Y-119800807D01*
X101463451Y-119808322D01*
X101603538Y-119970043D01*
X101610199Y-119976566D01*
X101774818Y-120113236D01*
X101782453Y-120118581D01*
X101967178Y-120226526D01*
X101975588Y-120230555D01*
X102175452Y-120306875D01*
X102184427Y-120309483D01*
X102289935Y-120330949D01*
X102302652Y-120329867D01*
X102306000Y-120320507D01*
X102306000Y-120320243D01*
X102814000Y-120320243D01*
X102817677Y-120332766D01*
X102829813Y-120334606D01*
X102838671Y-120333471D01*
X102847793Y-120331533D01*
X103052716Y-120270052D01*
X103061407Y-120266646D01*
X103253537Y-120172523D01*
X103261545Y-120167749D01*
X103435725Y-120043509D01*
X103442852Y-120037486D01*
X103594398Y-119886466D01*
X103600444Y-119879362D01*
X103725285Y-119705628D01*
X103730100Y-119697614D01*
X103824890Y-119505823D01*
X103828324Y-119497150D01*
X103890522Y-119292432D01*
X103893480Y-119278752D01*
X103894607Y-119278996D01*
X103918397Y-119225228D01*
X103972019Y-119189863D01*
X104036250Y-119189102D01*
X104090695Y-119223188D01*
X104115014Y-119267434D01*
X104117773Y-119277056D01*
X104143790Y-119367786D01*
X104146572Y-119377489D01*
X104149122Y-119382450D01*
X104149122Y-119382451D01*
X104169415Y-119421936D01*
X104238051Y-119555488D01*
X104362362Y-119712329D01*
X104514769Y-119842038D01*
X104561790Y-119868317D01*
X104684596Y-119936951D01*
X104684598Y-119936952D01*
X104689467Y-119939673D01*
X104694776Y-119941398D01*
X104874498Y-119999794D01*
X104874502Y-119999795D01*
X104879802Y-120001517D01*
X104937190Y-120008360D01*
X105072988Y-120024553D01*
X105072990Y-120024553D01*
X105078525Y-120025213D01*
X105278065Y-120009859D01*
X105283430Y-120008361D01*
X105283436Y-120008360D01*
X105465460Y-119957538D01*
X105465463Y-119957537D01*
X105470824Y-119956040D01*
X105649457Y-119865806D01*
X105807162Y-119742593D01*
X105837053Y-119707964D01*
X105934288Y-119595317D01*
X105934290Y-119595314D01*
X105937931Y-119591096D01*
X105941622Y-119584600D01*
X106034027Y-119421936D01*
X106036784Y-119417083D01*
X106038544Y-119411793D01*
X106038545Y-119411791D01*
X106098196Y-119232472D01*
X106098196Y-119232471D01*
X106099955Y-119227184D01*
X106101342Y-119216211D01*
X106119165Y-119075122D01*
X106125038Y-119028632D01*
X106125283Y-119011087D01*
X106125394Y-119003182D01*
X106125394Y-119003174D01*
X106125438Y-119000000D01*
X106124034Y-118985683D01*
X106614662Y-118985683D01*
X106631408Y-119185111D01*
X106643472Y-119227184D01*
X106683790Y-119367786D01*
X106686572Y-119377489D01*
X106689122Y-119382450D01*
X106689122Y-119382451D01*
X106709415Y-119421936D01*
X106778051Y-119555488D01*
X106902362Y-119712329D01*
X107054769Y-119842038D01*
X107101790Y-119868317D01*
X107224596Y-119936951D01*
X107224598Y-119936952D01*
X107229467Y-119939673D01*
X107234776Y-119941398D01*
X107414498Y-119999794D01*
X107414502Y-119999795D01*
X107419802Y-120001517D01*
X107477190Y-120008360D01*
X107612988Y-120024553D01*
X107612990Y-120024553D01*
X107618525Y-120025213D01*
X107818065Y-120009859D01*
X107823430Y-120008361D01*
X107823436Y-120008360D01*
X108005460Y-119957538D01*
X108005463Y-119957537D01*
X108010824Y-119956040D01*
X108189457Y-119865806D01*
X108347162Y-119742593D01*
X108377053Y-119707964D01*
X108474288Y-119595317D01*
X108474290Y-119595314D01*
X108477931Y-119591096D01*
X108481622Y-119584600D01*
X108574027Y-119421936D01*
X108576784Y-119417083D01*
X108578544Y-119411793D01*
X108578545Y-119411791D01*
X108629338Y-119259100D01*
X108665964Y-119206330D01*
X108725306Y-119181739D01*
X108788522Y-119193134D01*
X108835542Y-119236898D01*
X108848721Y-119270021D01*
X108878673Y-119402930D01*
X108881461Y-119411823D01*
X108961954Y-119610055D01*
X108966157Y-119618377D01*
X109077951Y-119800807D01*
X109083451Y-119808322D01*
X109223538Y-119970043D01*
X109230199Y-119976566D01*
X109394818Y-120113236D01*
X109402453Y-120118581D01*
X109587178Y-120226526D01*
X109595588Y-120230555D01*
X109795452Y-120306875D01*
X109804427Y-120309483D01*
X109909935Y-120330949D01*
X109922652Y-120329867D01*
X109926000Y-120320507D01*
X109926000Y-117681376D01*
X109922455Y-117669304D01*
X109909537Y-117667506D01*
X109868835Y-117673735D01*
X109859760Y-117675897D01*
X109656396Y-117742366D01*
X109647798Y-117745980D01*
X109458025Y-117844770D01*
X109450134Y-117849739D01*
X109279035Y-117978204D01*
X109272070Y-117984388D01*
X109124251Y-118139072D01*
X109118382Y-118146319D01*
X108997816Y-118323062D01*
X108993209Y-118331172D01*
X108903130Y-118525232D01*
X108899908Y-118533988D01*
X108844934Y-118732218D01*
X108811024Y-118786774D01*
X108753003Y-118814335D01*
X108689291Y-118806153D01*
X108640117Y-118764824D01*
X108625946Y-118734703D01*
X108589678Y-118614578D01*
X108589677Y-118614577D01*
X108588065Y-118609236D01*
X108583871Y-118601347D01*
X108507032Y-118456835D01*
X108494109Y-118432531D01*
X108367621Y-118277441D01*
X108351212Y-118263866D01*
X108217718Y-118153430D01*
X108217716Y-118153429D01*
X108213418Y-118149873D01*
X108077765Y-118076526D01*
X108042278Y-118057338D01*
X108042277Y-118057338D01*
X108037373Y-118054686D01*
X107846193Y-117995506D01*
X107820076Y-117992761D01*
X107652697Y-117975169D01*
X107652696Y-117975169D01*
X107647159Y-117974587D01*
X107447852Y-117992725D01*
X107255864Y-118049230D01*
X107078508Y-118141950D01*
X107064230Y-118153430D01*
X106938953Y-118254156D01*
X106922539Y-118267353D01*
X106793897Y-118420661D01*
X106697484Y-118596037D01*
X106695801Y-118601343D01*
X106695800Y-118601345D01*
X106650073Y-118745494D01*
X106636970Y-118786799D01*
X106627422Y-118871925D01*
X106623678Y-118905306D01*
X106614662Y-118985683D01*
X106124034Y-118985683D01*
X106112906Y-118872183D01*
X106106454Y-118806378D01*
X106106453Y-118806373D01*
X106105909Y-118800825D01*
X106101960Y-118787743D01*
X106049678Y-118614578D01*
X106049677Y-118614577D01*
X106048065Y-118609236D01*
X106043871Y-118601347D01*
X105967032Y-118456835D01*
X105954109Y-118432531D01*
X105827621Y-118277441D01*
X105811212Y-118263866D01*
X105677718Y-118153430D01*
X105677716Y-118153429D01*
X105673418Y-118149873D01*
X105537765Y-118076526D01*
X105502278Y-118057338D01*
X105502277Y-118057338D01*
X105497373Y-118054686D01*
X105306193Y-117995506D01*
X105280076Y-117992761D01*
X105112697Y-117975169D01*
X105112696Y-117975169D01*
X105107159Y-117974587D01*
X104907852Y-117992725D01*
X104715864Y-118049230D01*
X104538508Y-118141950D01*
X104524230Y-118153430D01*
X104398953Y-118254156D01*
X104382539Y-118267353D01*
X104253897Y-118420661D01*
X104157484Y-118596037D01*
X104155801Y-118601342D01*
X104155799Y-118601347D01*
X104112197Y-118738798D01*
X104076311Y-118792074D01*
X104017318Y-118817491D01*
X103953949Y-118806980D01*
X103906322Y-118763877D01*
X103892968Y-118732101D01*
X103851095Y-118565400D01*
X103848090Y-118556574D01*
X103762779Y-118360371D01*
X103758370Y-118352147D01*
X103642153Y-118172504D01*
X103636474Y-118165129D01*
X103492472Y-118006873D01*
X103485662Y-118000523D01*
X103317751Y-117867915D01*
X103309984Y-117862755D01*
X103122681Y-117759358D01*
X103114170Y-117755533D01*
X102912495Y-117684116D01*
X102903476Y-117681733D01*
X102830139Y-117668670D01*
X102818108Y-117669990D01*
X102814000Y-117683160D01*
X102814000Y-120320243D01*
X102306000Y-120320243D01*
X102306000Y-117681378D01*
X102302433Y-117669230D01*
X102302433Y-117604995D01*
X102337160Y-117550957D01*
X102353894Y-117538922D01*
X102710378Y-117328637D01*
X102715970Y-117325547D01*
X102723982Y-117321408D01*
X103266072Y-117041358D01*
X103271797Y-117038601D01*
X103836974Y-116785702D01*
X103842865Y-116783262D01*
X104421322Y-116562454D01*
X104427346Y-116560346D01*
X105017253Y-116372326D01*
X105023398Y-116370555D01*
X105116221Y-116346611D01*
X105622948Y-116215900D01*
X105629155Y-116214483D01*
X106062194Y-116128347D01*
X106236429Y-116093690D01*
X106242733Y-116092619D01*
X106549269Y-116049344D01*
X106855814Y-116006067D01*
X106862150Y-116005353D01*
X107479132Y-115953312D01*
X107485518Y-115952954D01*
X108074483Y-115936430D01*
X108097473Y-115938116D01*
X108097795Y-115938173D01*
X108097797Y-115938173D01*
X108107615Y-115939904D01*
X108122769Y-115937232D01*
X108142564Y-115935500D01*
X112229901Y-115935500D01*
X112291534Y-115953597D01*
X112333599Y-116002143D01*
X112342741Y-116065724D01*
X112316056Y-116124154D01*
X112260354Y-116159357D01*
X112258149Y-116159969D01*
X112256262Y-116160492D01*
X112250421Y-116161946D01*
X112204275Y-116172149D01*
X112200232Y-116172966D01*
X112149211Y-116182325D01*
X112147796Y-116182575D01*
X112089797Y-116192460D01*
X112089559Y-116192502D01*
X112089428Y-116192524D01*
X112089323Y-116192542D01*
X112087727Y-116192823D01*
X112087574Y-116192850D01*
X112054080Y-116198929D01*
X112022653Y-116204632D01*
X112022597Y-116204642D01*
X112022434Y-116204672D01*
X112020326Y-116205068D01*
X112020053Y-116205121D01*
X112017395Y-116205658D01*
X112017339Y-116205670D01*
X112017279Y-116205682D01*
X111944600Y-116220961D01*
X111944570Y-116220967D01*
X111944439Y-116220995D01*
X111944289Y-116221028D01*
X111944261Y-116221034D01*
X111943388Y-116221226D01*
X111941250Y-116221696D01*
X111940880Y-116221781D01*
X111940665Y-116221833D01*
X111940650Y-116221836D01*
X111937993Y-116222472D01*
X111937945Y-116222484D01*
X111937831Y-116222511D01*
X111937726Y-116222537D01*
X111937628Y-116222561D01*
X111885797Y-116235447D01*
X111861926Y-116241382D01*
X111858928Y-116242497D01*
X111858926Y-116242498D01*
X111858295Y-116242733D01*
X111855631Y-116243583D01*
X111851070Y-116244184D01*
X111712289Y-116301669D01*
X111706360Y-116306218D01*
X111706359Y-116306219D01*
X111603037Y-116385500D01*
X111593114Y-116393114D01*
X111588566Y-116399041D01*
X111513150Y-116497327D01*
X111501669Y-116512289D01*
X111498808Y-116519196D01*
X111447459Y-116643164D01*
X111444184Y-116651070D01*
X111424577Y-116800000D01*
X111444184Y-116948930D01*
X111447042Y-116955831D01*
X111447043Y-116955833D01*
X111489914Y-117059333D01*
X111501669Y-117087711D01*
X111506218Y-117093640D01*
X111506219Y-117093641D01*
X111562596Y-117167114D01*
X111593114Y-117206886D01*
X111599041Y-117211434D01*
X111682705Y-117275631D01*
X111712288Y-117298331D01*
X111719194Y-117301191D01*
X111719193Y-117301191D01*
X111844167Y-117352957D01*
X111844169Y-117352958D01*
X111851070Y-117355816D01*
X112000000Y-117375423D01*
X112148930Y-117355816D01*
X112155831Y-117352958D01*
X112155833Y-117352957D01*
X112280807Y-117301191D01*
X112280806Y-117301191D01*
X112287712Y-117298331D01*
X112317296Y-117275631D01*
X112400959Y-117211434D01*
X112406886Y-117206886D01*
X112437404Y-117167114D01*
X112493781Y-117093641D01*
X112493782Y-117093640D01*
X112498331Y-117087711D01*
X112509002Y-117061949D01*
X112515800Y-117045537D01*
X112524777Y-117028224D01*
X112531274Y-117017952D01*
X112531276Y-117017948D01*
X112534269Y-117013216D01*
X112558627Y-116949974D01*
X112560544Y-116944749D01*
X112560794Y-116944033D01*
X112562621Y-116938510D01*
X112583100Y-116872954D01*
X112584020Y-116869912D01*
X112584135Y-116869519D01*
X112584943Y-116866668D01*
X112601465Y-116806454D01*
X112601656Y-116805768D01*
X112615135Y-116757819D01*
X112617063Y-116751638D01*
X112627397Y-116721552D01*
X112632127Y-116709916D01*
X112639221Y-116694898D01*
X112647915Y-116679658D01*
X112653115Y-116671982D01*
X112665489Y-116656736D01*
X112665807Y-116656407D01*
X112674948Y-116646942D01*
X112688756Y-116634784D01*
X112712039Y-116617406D01*
X112724751Y-116609173D01*
X112769408Y-116584300D01*
X112832060Y-116570121D01*
X112892431Y-116592065D01*
X112931354Y-116643164D01*
X112937904Y-116698774D01*
X112924577Y-116800000D01*
X112944184Y-116948930D01*
X112947042Y-116955831D01*
X112947043Y-116955833D01*
X112989914Y-117059333D01*
X113001669Y-117087711D01*
X113006218Y-117093640D01*
X113006219Y-117093641D01*
X113062596Y-117167114D01*
X113093114Y-117206886D01*
X113099041Y-117211434D01*
X113182705Y-117275631D01*
X113212288Y-117298331D01*
X113219194Y-117301191D01*
X113219193Y-117301191D01*
X113344167Y-117352957D01*
X113344169Y-117352958D01*
X113351070Y-117355816D01*
X113500000Y-117375423D01*
X113648930Y-117355816D01*
X113655831Y-117352958D01*
X113655833Y-117352957D01*
X113714539Y-117328640D01*
X113732003Y-117321406D01*
X113743360Y-117317392D01*
X113763353Y-117311495D01*
X113826166Y-117278542D01*
X113828416Y-117277320D01*
X113830213Y-117276344D01*
X113830252Y-117276323D01*
X113830586Y-117276141D01*
X113831161Y-117275818D01*
X113831483Y-117275631D01*
X113835261Y-117273435D01*
X113835322Y-117273399D01*
X113835652Y-117273207D01*
X113895278Y-117237351D01*
X113895486Y-117237223D01*
X113898263Y-117235514D01*
X113898292Y-117235496D01*
X113898417Y-117235419D01*
X113898793Y-117235182D01*
X113901302Y-117233571D01*
X113925751Y-117217574D01*
X113953792Y-117199226D01*
X113953835Y-117199292D01*
X113954735Y-117198758D01*
X113954664Y-117198651D01*
X113998973Y-117169304D01*
X114002412Y-117167114D01*
X114036080Y-117146508D01*
X114043797Y-117142187D01*
X114069706Y-117128977D01*
X114080997Y-117123971D01*
X114105490Y-117114668D01*
X114118468Y-117110608D01*
X114149966Y-117102786D01*
X114162454Y-117100415D01*
X114208868Y-117094260D01*
X114219452Y-117093356D01*
X114251213Y-117092129D01*
X114285526Y-117090803D01*
X114296090Y-117088382D01*
X114321557Y-117085500D01*
X114664565Y-117085500D01*
X114726198Y-117103597D01*
X114768263Y-117152143D01*
X114777405Y-117215724D01*
X114750720Y-117274154D01*
X114704022Y-117306454D01*
X114462065Y-117395717D01*
X114462057Y-117395720D01*
X114459968Y-117396491D01*
X114457951Y-117397421D01*
X114457941Y-117397425D01*
X114339778Y-117451900D01*
X114098474Y-117563144D01*
X114011492Y-117611857D01*
X113920000Y-117663095D01*
X113896240Y-117673064D01*
X113893941Y-117673735D01*
X113886729Y-117675840D01*
X113720715Y-117762323D01*
X113711666Y-117766542D01*
X113663183Y-117786616D01*
X113573298Y-117823831D01*
X113562598Y-117827649D01*
X113537107Y-117835335D01*
X113444714Y-117863192D01*
X113433757Y-117865910D01*
X113325955Y-117887029D01*
X113316938Y-117888422D01*
X113267728Y-117894018D01*
X113207748Y-117900838D01*
X113202833Y-117901289D01*
X113110273Y-117907753D01*
X113082602Y-117909685D01*
X113082587Y-117909686D01*
X113082484Y-117909694D01*
X112951207Y-117918951D01*
X112951193Y-117918952D01*
X112950896Y-117918973D01*
X112950600Y-117918997D01*
X112950545Y-117919001D01*
X112949290Y-117919102D01*
X112947420Y-117919253D01*
X112947323Y-117919262D01*
X112947272Y-117919266D01*
X112947200Y-117919273D01*
X112946956Y-117919295D01*
X112946652Y-117919325D01*
X112946647Y-117919326D01*
X112946512Y-117919340D01*
X112943470Y-117919645D01*
X112943206Y-117919674D01*
X112943189Y-117919676D01*
X112801611Y-117935346D01*
X112801107Y-117935402D01*
X112800624Y-117935463D01*
X112800584Y-117935468D01*
X112796597Y-117935974D01*
X112795563Y-117936105D01*
X112794801Y-117936214D01*
X112794323Y-117936291D01*
X112794321Y-117936291D01*
X112789389Y-117937082D01*
X112789345Y-117937089D01*
X112788949Y-117937153D01*
X112743988Y-117945142D01*
X112630340Y-117965335D01*
X112630294Y-117965344D01*
X112629780Y-117965435D01*
X112623185Y-117966737D01*
X112622316Y-117966926D01*
X112619807Y-117967522D01*
X112616365Y-117968339D01*
X112616321Y-117968350D01*
X112615828Y-117968467D01*
X112441679Y-118013335D01*
X112403409Y-118028150D01*
X112402705Y-118028522D01*
X112389556Y-118033428D01*
X112335864Y-118049230D01*
X112158508Y-118141950D01*
X112144230Y-118153430D01*
X112018953Y-118254156D01*
X112002539Y-118267353D01*
X111873897Y-118420661D01*
X111777484Y-118596037D01*
X111775801Y-118601342D01*
X111775799Y-118601347D01*
X111732197Y-118738798D01*
X111696311Y-118792074D01*
X111637318Y-118817491D01*
X111573949Y-118806980D01*
X111526322Y-118763877D01*
X111512968Y-118732101D01*
X111471095Y-118565400D01*
X111468090Y-118556574D01*
X111382779Y-118360371D01*
X111378370Y-118352147D01*
X111262153Y-118172504D01*
X111256474Y-118165129D01*
X111112472Y-118006873D01*
X111105662Y-118000523D01*
X110937751Y-117867915D01*
X110929984Y-117862755D01*
X110742681Y-117759358D01*
X110734170Y-117755533D01*
X110532495Y-117684116D01*
X110523476Y-117681733D01*
X110450139Y-117668670D01*
X110438108Y-117669990D01*
X110434000Y-117683160D01*
X110434000Y-120320243D01*
X110437677Y-120332766D01*
X110449813Y-120334606D01*
X110458671Y-120333471D01*
X110467793Y-120331533D01*
X110672716Y-120270052D01*
X110681407Y-120266646D01*
X110873537Y-120172523D01*
X110881545Y-120167749D01*
X111055725Y-120043509D01*
X111062852Y-120037486D01*
X111214398Y-119886466D01*
X111220444Y-119879362D01*
X111345285Y-119705628D01*
X111350100Y-119697614D01*
X111444890Y-119505823D01*
X111448324Y-119497150D01*
X111510522Y-119292432D01*
X111513480Y-119278752D01*
X111514607Y-119278996D01*
X111538397Y-119225228D01*
X111592019Y-119189863D01*
X111656250Y-119189102D01*
X111710695Y-119223188D01*
X111735014Y-119267434D01*
X111737773Y-119277056D01*
X111763790Y-119367786D01*
X111766572Y-119377489D01*
X111769122Y-119382450D01*
X111769122Y-119382451D01*
X111789415Y-119421936D01*
X111858051Y-119555488D01*
X111982362Y-119712329D01*
X112134769Y-119842038D01*
X112181790Y-119868317D01*
X112304596Y-119936951D01*
X112304598Y-119936952D01*
X112309467Y-119939673D01*
X112314776Y-119941398D01*
X112494498Y-119999794D01*
X112494502Y-119999795D01*
X112499802Y-120001517D01*
X112557190Y-120008360D01*
X112692988Y-120024553D01*
X112692990Y-120024553D01*
X112698525Y-120025213D01*
X112898065Y-120009859D01*
X112903430Y-120008361D01*
X112903436Y-120008360D01*
X113085460Y-119957538D01*
X113085463Y-119957537D01*
X113090824Y-119956040D01*
X113269457Y-119865806D01*
X113427162Y-119742593D01*
X113457053Y-119707964D01*
X113554288Y-119595317D01*
X113554290Y-119595314D01*
X113557931Y-119591096D01*
X113561622Y-119584600D01*
X113654027Y-119421936D01*
X113656784Y-119417083D01*
X113658545Y-119411789D01*
X113658546Y-119411787D01*
X113666374Y-119388257D01*
X113675506Y-119367786D01*
X113676093Y-119366756D01*
X113678867Y-119361891D01*
X113707105Y-119277199D01*
X113731638Y-119203619D01*
X113731647Y-119203592D01*
X113731869Y-119202925D01*
X113734534Y-119194177D01*
X113734858Y-119193005D01*
X113735417Y-119190760D01*
X113736676Y-119185697D01*
X113737053Y-119184181D01*
X113771297Y-119029520D01*
X113771385Y-119029086D01*
X113771396Y-119029034D01*
X113772441Y-119023875D01*
X113772442Y-119023868D01*
X113772553Y-119023322D01*
X113772706Y-119022490D01*
X113773230Y-119019321D01*
X113773657Y-119016737D01*
X113773663Y-119016696D01*
X113773744Y-119016208D01*
X113794898Y-118871925D01*
X113795159Y-118870076D01*
X113795200Y-118869774D01*
X113795544Y-118867083D01*
X113801498Y-118817491D01*
X113811211Y-118736582D01*
X113811715Y-118732890D01*
X113828308Y-118624689D01*
X113830599Y-118613515D01*
X113852013Y-118530435D01*
X113858157Y-118512757D01*
X113885811Y-118450273D01*
X113887277Y-118446961D01*
X113898733Y-118426873D01*
X113943365Y-118364339D01*
X113958390Y-118347207D01*
X114034375Y-118276321D01*
X114049243Y-118264601D01*
X114065033Y-118254156D01*
X114179315Y-118178556D01*
X114183016Y-118175010D01*
X114185571Y-118172968D01*
X114204102Y-118160905D01*
X114496075Y-118008913D01*
X114505090Y-118004709D01*
X114520684Y-117998250D01*
X114584551Y-117991385D01*
X114641991Y-118020138D01*
X114674767Y-118075382D01*
X114672474Y-118139576D01*
X114635744Y-118192414D01*
X114542539Y-118267353D01*
X114413897Y-118420661D01*
X114317484Y-118596037D01*
X114315801Y-118601343D01*
X114315800Y-118601345D01*
X114270073Y-118745494D01*
X114256970Y-118786799D01*
X114247422Y-118871925D01*
X114243678Y-118905306D01*
X114234662Y-118985683D01*
X114251408Y-119185111D01*
X114263472Y-119227184D01*
X114303790Y-119367786D01*
X114306572Y-119377489D01*
X114309122Y-119382450D01*
X114309122Y-119382451D01*
X114329415Y-119421936D01*
X114398051Y-119555488D01*
X114522362Y-119712329D01*
X114674769Y-119842038D01*
X114721790Y-119868317D01*
X114844596Y-119936951D01*
X114844598Y-119936952D01*
X114849467Y-119939673D01*
X114854776Y-119941398D01*
X115034498Y-119999794D01*
X115034502Y-119999795D01*
X115039802Y-120001517D01*
X115097190Y-120008360D01*
X115232988Y-120024553D01*
X115232990Y-120024553D01*
X115238525Y-120025213D01*
X115438065Y-120009859D01*
X115443430Y-120008361D01*
X115443436Y-120008360D01*
X115625460Y-119957538D01*
X115625463Y-119957537D01*
X115630824Y-119956040D01*
X115809457Y-119865806D01*
X115967162Y-119742593D01*
X115997053Y-119707964D01*
X116094288Y-119595317D01*
X116094290Y-119595314D01*
X116097931Y-119591096D01*
X116101622Y-119584600D01*
X116194027Y-119421936D01*
X116196784Y-119417083D01*
X116198544Y-119411793D01*
X116198546Y-119411788D01*
X116217994Y-119353323D01*
X116225057Y-119336648D01*
X116233808Y-119319849D01*
X116290147Y-119126741D01*
X116291942Y-119120108D01*
X116292165Y-119119215D01*
X116293712Y-119112454D01*
X116334192Y-118917954D01*
X116334855Y-118914608D01*
X116334939Y-118914161D01*
X116335536Y-118910803D01*
X116336361Y-118905893D01*
X116366504Y-118726330D01*
X116366659Y-118725429D01*
X116395481Y-118561787D01*
X116397006Y-118554521D01*
X116429031Y-118423356D01*
X116433716Y-118408602D01*
X116471114Y-118313696D01*
X116482464Y-118292042D01*
X116489353Y-118281759D01*
X116525040Y-118228488D01*
X116545617Y-118205335D01*
X116602351Y-118156778D01*
X116628245Y-118140095D01*
X116724255Y-118095272D01*
X116747799Y-118087274D01*
X116887629Y-118056269D01*
X116919402Y-118049224D01*
X116921588Y-118048316D01*
X116944978Y-118043765D01*
X116977689Y-118041191D01*
X117018276Y-118037997D01*
X117030204Y-118038569D01*
X117030204Y-118038172D01*
X117040177Y-118038172D01*
X117049406Y-118039799D01*
X117049405Y-118039799D01*
X117049981Y-118039901D01*
X117049970Y-118039965D01*
X117105495Y-118056269D01*
X117147560Y-118104815D01*
X117156702Y-118168396D01*
X117130017Y-118226826D01*
X117115299Y-118241013D01*
X117082539Y-118267353D01*
X116953897Y-118420661D01*
X116857484Y-118596037D01*
X116855801Y-118601343D01*
X116855800Y-118601345D01*
X116810073Y-118745494D01*
X116796970Y-118786799D01*
X116787422Y-118871925D01*
X116783678Y-118905306D01*
X116774662Y-118985683D01*
X116791408Y-119185111D01*
X116803472Y-119227184D01*
X116843790Y-119367786D01*
X116846572Y-119377489D01*
X116849122Y-119382450D01*
X116849122Y-119382451D01*
X116869415Y-119421936D01*
X116938051Y-119555488D01*
X117062362Y-119712329D01*
X117214769Y-119842038D01*
X117261790Y-119868317D01*
X117384596Y-119936951D01*
X117384598Y-119936952D01*
X117389467Y-119939673D01*
X117394776Y-119941398D01*
X117574498Y-119999794D01*
X117574502Y-119999795D01*
X117579802Y-120001517D01*
X117637190Y-120008360D01*
X117772988Y-120024553D01*
X117772990Y-120024553D01*
X117778525Y-120025213D01*
X117978065Y-120009859D01*
X117983430Y-120008361D01*
X117983436Y-120008360D01*
X118165460Y-119957538D01*
X118165463Y-119957537D01*
X118170824Y-119956040D01*
X118349457Y-119865806D01*
X118507162Y-119742593D01*
X118537053Y-119707964D01*
X118634288Y-119595317D01*
X118634290Y-119595314D01*
X118637931Y-119591096D01*
X118641622Y-119584600D01*
X118734027Y-119421936D01*
X118736784Y-119417083D01*
X118781501Y-119282660D01*
X118785803Y-119271666D01*
X118788249Y-119266258D01*
X118792336Y-119257223D01*
X118796650Y-119238666D01*
X118797356Y-119236164D01*
X118798193Y-119232479D01*
X118799955Y-119227184D01*
X118800654Y-119221649D01*
X118801890Y-119216211D01*
X118801909Y-119216215D01*
X118802038Y-119215496D01*
X118805121Y-119202239D01*
X118833181Y-119081555D01*
X118834660Y-119074547D01*
X118834840Y-119073599D01*
X118836055Y-119066388D01*
X118859650Y-118905893D01*
X118860471Y-118899493D01*
X118860562Y-118898663D01*
X118861119Y-118892609D01*
X118862829Y-118869716D01*
X118871808Y-118749514D01*
X118871813Y-118749445D01*
X118871839Y-118749094D01*
X118872071Y-118745494D01*
X118872099Y-118744976D01*
X118872275Y-118740813D01*
X118876293Y-118608069D01*
X118876308Y-118607545D01*
X118879618Y-118486214D01*
X118879865Y-118481214D01*
X118884215Y-118420226D01*
X118887698Y-118371397D01*
X118888768Y-118361961D01*
X118903953Y-118264601D01*
X118905582Y-118254156D01*
X118908041Y-118242458D01*
X118939280Y-118124850D01*
X118942998Y-118113349D01*
X118996015Y-117974898D01*
X119000296Y-117965116D01*
X119012435Y-117940578D01*
X119083148Y-117797638D01*
X119084581Y-117792520D01*
X119084584Y-117792513D01*
X119085205Y-117790294D01*
X119095516Y-117765334D01*
X119098863Y-117759358D01*
X119160154Y-117649914D01*
X119177699Y-117611857D01*
X119349169Y-117239908D01*
X119350103Y-117237882D01*
X119351661Y-117233659D01*
X119393546Y-117120126D01*
X119431857Y-117068566D01*
X119491962Y-117045903D01*
X119554777Y-117059333D01*
X119600360Y-117104592D01*
X119614500Y-117159583D01*
X119614500Y-117386664D01*
X119611401Y-117413064D01*
X119609201Y-117422302D01*
X119608991Y-117427902D01*
X119608991Y-117427905D01*
X119601815Y-117619622D01*
X119601064Y-117629100D01*
X119581614Y-117789271D01*
X119579999Y-117799019D01*
X119552998Y-117927248D01*
X119551822Y-117932831D01*
X119549706Y-117941267D01*
X119541079Y-117970836D01*
X119514661Y-118061378D01*
X119512977Y-118066666D01*
X119471938Y-118185478D01*
X119471676Y-118186228D01*
X119428528Y-118308379D01*
X119428495Y-118308475D01*
X119428434Y-118308647D01*
X119427342Y-118311836D01*
X119427201Y-118312261D01*
X119426177Y-118315450D01*
X119426097Y-118315706D01*
X119410266Y-118366657D01*
X119386251Y-118443948D01*
X119384415Y-118450273D01*
X119384189Y-118451110D01*
X119382629Y-118457337D01*
X119382525Y-118457789D01*
X119382511Y-118457845D01*
X119364912Y-118533988D01*
X119349811Y-118599324D01*
X119349674Y-118599984D01*
X119349668Y-118600012D01*
X119349392Y-118601347D01*
X119348194Y-118607122D01*
X119347999Y-118608183D01*
X119346704Y-118616290D01*
X119342804Y-118645010D01*
X119328612Y-118749514D01*
X119324429Y-118780312D01*
X119323522Y-118788390D01*
X119323426Y-118789470D01*
X119322893Y-118797602D01*
X119317938Y-118914909D01*
X119315288Y-118977629D01*
X119315275Y-118977789D01*
X119315265Y-118978150D01*
X119315266Y-118978153D01*
X119315120Y-118981597D01*
X119314662Y-118985683D01*
X119315128Y-118991233D01*
X119315128Y-118991237D01*
X119326459Y-119126177D01*
X119331408Y-119185111D01*
X119343472Y-119227184D01*
X119383790Y-119367786D01*
X119386572Y-119377489D01*
X119389122Y-119382450D01*
X119389122Y-119382451D01*
X119409415Y-119421936D01*
X119478051Y-119555488D01*
X119602362Y-119712329D01*
X119754769Y-119842038D01*
X119801790Y-119868317D01*
X119924596Y-119936951D01*
X119924598Y-119936952D01*
X119929467Y-119939673D01*
X119934776Y-119941398D01*
X120114498Y-119999794D01*
X120114502Y-119999795D01*
X120119802Y-120001517D01*
X120177190Y-120008360D01*
X120312988Y-120024553D01*
X120312990Y-120024553D01*
X120318525Y-120025213D01*
X120518065Y-120009859D01*
X120523430Y-120008361D01*
X120523436Y-120008360D01*
X120705460Y-119957538D01*
X120705463Y-119957537D01*
X120710824Y-119956040D01*
X120889457Y-119865806D01*
X121047162Y-119742593D01*
X121077053Y-119707964D01*
X121174288Y-119595317D01*
X121174290Y-119595314D01*
X121177931Y-119591096D01*
X121181622Y-119584600D01*
X121274027Y-119421936D01*
X121276784Y-119417083D01*
X121278544Y-119411793D01*
X121278545Y-119411791D01*
X121329338Y-119259100D01*
X121365964Y-119206330D01*
X121425306Y-119181739D01*
X121488522Y-119193134D01*
X121535542Y-119236898D01*
X121548721Y-119270021D01*
X121578673Y-119402930D01*
X121581461Y-119411823D01*
X121661954Y-119610055D01*
X121666157Y-119618377D01*
X121777951Y-119800807D01*
X121783451Y-119808322D01*
X121923538Y-119970043D01*
X121930199Y-119976566D01*
X122094818Y-120113236D01*
X122102453Y-120118581D01*
X122287178Y-120226526D01*
X122295588Y-120230555D01*
X122495452Y-120306875D01*
X122504427Y-120309483D01*
X122609935Y-120330949D01*
X122622652Y-120329867D01*
X122626000Y-120320507D01*
X122626000Y-120320243D01*
X123134000Y-120320243D01*
X123137677Y-120332766D01*
X123149813Y-120334606D01*
X123158671Y-120333471D01*
X123167793Y-120331533D01*
X123372716Y-120270052D01*
X123381407Y-120266646D01*
X123573537Y-120172523D01*
X123581545Y-120167749D01*
X123755725Y-120043509D01*
X123762852Y-120037486D01*
X123914398Y-119886466D01*
X123920444Y-119879362D01*
X124045285Y-119705628D01*
X124050100Y-119697614D01*
X124144890Y-119505823D01*
X124148324Y-119497150D01*
X124210522Y-119292432D01*
X124213480Y-119278752D01*
X124214607Y-119278996D01*
X124238397Y-119225228D01*
X124292019Y-119189863D01*
X124356250Y-119189102D01*
X124410695Y-119223188D01*
X124435014Y-119267434D01*
X124437773Y-119277056D01*
X124463790Y-119367786D01*
X124466572Y-119377489D01*
X124469122Y-119382450D01*
X124469122Y-119382451D01*
X124489415Y-119421936D01*
X124558051Y-119555488D01*
X124682362Y-119712329D01*
X124834769Y-119842038D01*
X124881790Y-119868317D01*
X125004596Y-119936951D01*
X125004598Y-119936952D01*
X125009467Y-119939673D01*
X125014776Y-119941398D01*
X125194498Y-119999794D01*
X125194502Y-119999795D01*
X125199802Y-120001517D01*
X125257190Y-120008360D01*
X125392988Y-120024553D01*
X125392990Y-120024553D01*
X125398525Y-120025213D01*
X125598065Y-120009859D01*
X125603430Y-120008361D01*
X125603436Y-120008360D01*
X125785460Y-119957538D01*
X125785463Y-119957537D01*
X125790824Y-119956040D01*
X125969457Y-119865806D01*
X126127162Y-119742593D01*
X126157053Y-119707964D01*
X126254288Y-119595317D01*
X126254290Y-119595314D01*
X126257931Y-119591096D01*
X126261622Y-119584600D01*
X126354027Y-119421936D01*
X126356784Y-119417083D01*
X126358544Y-119411793D01*
X126358545Y-119411791D01*
X126418196Y-119232472D01*
X126418196Y-119232471D01*
X126419955Y-119227184D01*
X126421342Y-119216211D01*
X126439165Y-119075122D01*
X126445038Y-119028632D01*
X126445283Y-119011087D01*
X126445394Y-119003182D01*
X126445394Y-119003174D01*
X126445438Y-119000000D01*
X126444034Y-118985683D01*
X126934662Y-118985683D01*
X126951408Y-119185111D01*
X126963472Y-119227184D01*
X127003790Y-119367786D01*
X127006572Y-119377489D01*
X127009122Y-119382450D01*
X127009122Y-119382451D01*
X127029415Y-119421936D01*
X127098051Y-119555488D01*
X127222362Y-119712329D01*
X127374769Y-119842038D01*
X127421790Y-119868317D01*
X127544596Y-119936951D01*
X127544598Y-119936952D01*
X127549467Y-119939673D01*
X127554776Y-119941398D01*
X127734498Y-119999794D01*
X127734502Y-119999795D01*
X127739802Y-120001517D01*
X127797190Y-120008360D01*
X127932988Y-120024553D01*
X127932990Y-120024553D01*
X127938525Y-120025213D01*
X128138065Y-120009859D01*
X128143430Y-120008361D01*
X128143436Y-120008360D01*
X128325460Y-119957538D01*
X128325463Y-119957537D01*
X128330824Y-119956040D01*
X128509457Y-119865806D01*
X128667162Y-119742593D01*
X128697053Y-119707964D01*
X128794288Y-119595317D01*
X128794290Y-119595314D01*
X128797931Y-119591096D01*
X128801622Y-119584600D01*
X128894027Y-119421936D01*
X128896784Y-119417083D01*
X128898544Y-119411792D01*
X128898545Y-119411790D01*
X128919829Y-119347808D01*
X128956456Y-119295038D01*
X129015797Y-119270447D01*
X129079014Y-119281842D01*
X129126034Y-119325606D01*
X129142001Y-119383792D01*
X129142001Y-119895002D01*
X129142335Y-119901160D01*
X129147976Y-119953098D01*
X129151257Y-119966900D01*
X129196978Y-120088861D01*
X129204697Y-120102958D01*
X129282226Y-120206406D01*
X129293594Y-120217774D01*
X129397042Y-120295303D01*
X129411139Y-120303022D01*
X129533105Y-120348745D01*
X129546896Y-120352024D01*
X129598843Y-120357667D01*
X129604995Y-120358000D01*
X130229611Y-120358000D01*
X130243397Y-120353952D01*
X130244488Y-120352693D01*
X130246000Y-120345742D01*
X130246000Y-120341610D01*
X130754000Y-120341610D01*
X130758048Y-120355396D01*
X130759307Y-120356487D01*
X130766258Y-120357999D01*
X131395002Y-120357999D01*
X131401160Y-120357665D01*
X131453098Y-120352024D01*
X131466900Y-120348743D01*
X131588861Y-120303022D01*
X131602958Y-120295303D01*
X131706406Y-120217774D01*
X131717774Y-120206406D01*
X131795303Y-120102958D01*
X131803022Y-120088861D01*
X131848745Y-119966895D01*
X131852024Y-119953104D01*
X131857667Y-119901157D01*
X131858000Y-119895005D01*
X131858000Y-119270389D01*
X131853952Y-119256603D01*
X131852693Y-119255512D01*
X131845742Y-119254000D01*
X130770389Y-119254000D01*
X130756603Y-119258048D01*
X130755512Y-119259307D01*
X130754000Y-119266258D01*
X130754000Y-120341610D01*
X130246000Y-120341610D01*
X130246000Y-118729611D01*
X130754000Y-118729611D01*
X130758048Y-118743397D01*
X130759307Y-118744488D01*
X130766258Y-118746000D01*
X131841610Y-118746000D01*
X131855396Y-118741952D01*
X131856487Y-118740693D01*
X131857999Y-118733742D01*
X131857999Y-118104998D01*
X131857665Y-118098840D01*
X131852024Y-118046902D01*
X131848743Y-118033100D01*
X131803022Y-117911139D01*
X131795303Y-117897042D01*
X131717774Y-117793594D01*
X131706406Y-117782226D01*
X131602958Y-117704697D01*
X131588861Y-117696978D01*
X131466895Y-117651255D01*
X131453104Y-117647976D01*
X131401157Y-117642333D01*
X131395005Y-117642000D01*
X130770389Y-117642000D01*
X130756603Y-117646048D01*
X130755512Y-117647307D01*
X130754000Y-117654258D01*
X130754000Y-118729611D01*
X130246000Y-118729611D01*
X130246000Y-117658390D01*
X130241952Y-117644604D01*
X130240693Y-117643513D01*
X130233742Y-117642001D01*
X129604998Y-117642001D01*
X129598840Y-117642335D01*
X129546902Y-117647976D01*
X129533100Y-117651257D01*
X129411139Y-117696978D01*
X129397042Y-117704697D01*
X129293594Y-117782226D01*
X129282226Y-117793594D01*
X129204697Y-117897042D01*
X129196978Y-117911139D01*
X129151255Y-118033105D01*
X129147976Y-118046896D01*
X129142333Y-118098843D01*
X129142000Y-118104995D01*
X129142000Y-118612062D01*
X129123903Y-118673695D01*
X129075357Y-118715760D01*
X129011776Y-118724902D01*
X128953346Y-118698217D01*
X128918866Y-118645012D01*
X128908065Y-118609236D01*
X128903871Y-118601347D01*
X128827032Y-118456835D01*
X128814109Y-118432531D01*
X128687621Y-118277441D01*
X128671212Y-118263866D01*
X128537718Y-118153430D01*
X128537716Y-118153429D01*
X128533418Y-118149873D01*
X128397765Y-118076526D01*
X128362278Y-118057338D01*
X128362277Y-118057338D01*
X128357373Y-118054686D01*
X128166193Y-117995506D01*
X128140076Y-117992761D01*
X127972697Y-117975169D01*
X127972696Y-117975169D01*
X127967159Y-117974587D01*
X127767852Y-117992725D01*
X127575864Y-118049230D01*
X127398508Y-118141950D01*
X127384230Y-118153430D01*
X127258953Y-118254156D01*
X127242539Y-118267353D01*
X127113897Y-118420661D01*
X127017484Y-118596037D01*
X127015801Y-118601343D01*
X127015800Y-118601345D01*
X126970073Y-118745494D01*
X126956970Y-118786799D01*
X126947422Y-118871925D01*
X126943678Y-118905306D01*
X126934662Y-118985683D01*
X126444034Y-118985683D01*
X126432906Y-118872183D01*
X126426454Y-118806378D01*
X126426453Y-118806373D01*
X126425909Y-118800825D01*
X126421960Y-118787743D01*
X126369678Y-118614578D01*
X126369677Y-118614577D01*
X126368065Y-118609236D01*
X126363871Y-118601347D01*
X126287032Y-118456835D01*
X126274109Y-118432531D01*
X126147621Y-118277441D01*
X126131212Y-118263866D01*
X125997718Y-118153430D01*
X125997716Y-118153429D01*
X125993418Y-118149873D01*
X125857765Y-118076526D01*
X125822278Y-118057338D01*
X125822277Y-118057338D01*
X125817373Y-118054686D01*
X125626193Y-117995506D01*
X125600076Y-117992761D01*
X125432697Y-117975169D01*
X125432696Y-117975169D01*
X125427159Y-117974587D01*
X125227852Y-117992725D01*
X125035864Y-118049230D01*
X124858508Y-118141950D01*
X124844230Y-118153430D01*
X124718953Y-118254156D01*
X124702539Y-118267353D01*
X124573897Y-118420661D01*
X124477484Y-118596037D01*
X124475801Y-118601342D01*
X124475799Y-118601347D01*
X124432197Y-118738798D01*
X124396311Y-118792074D01*
X124337318Y-118817491D01*
X124273949Y-118806980D01*
X124226322Y-118763877D01*
X124212968Y-118732101D01*
X124171095Y-118565400D01*
X124168090Y-118556574D01*
X124082779Y-118360371D01*
X124078370Y-118352147D01*
X123962153Y-118172504D01*
X123956474Y-118165129D01*
X123812472Y-118006873D01*
X123805662Y-118000523D01*
X123637751Y-117867915D01*
X123629984Y-117862755D01*
X123442681Y-117759358D01*
X123434170Y-117755533D01*
X123232495Y-117684116D01*
X123223476Y-117681733D01*
X123150139Y-117668670D01*
X123138108Y-117669990D01*
X123134000Y-117683160D01*
X123134000Y-120320243D01*
X122626000Y-120320243D01*
X122626000Y-117681376D01*
X122622455Y-117669304D01*
X122609537Y-117667506D01*
X122568835Y-117673735D01*
X122559760Y-117675897D01*
X122356396Y-117742366D01*
X122347798Y-117745980D01*
X122158025Y-117844770D01*
X122150134Y-117849739D01*
X121979035Y-117978204D01*
X121972070Y-117984388D01*
X121824251Y-118139072D01*
X121818382Y-118146319D01*
X121697816Y-118323062D01*
X121693209Y-118331172D01*
X121603130Y-118525232D01*
X121599908Y-118533988D01*
X121544934Y-118732218D01*
X121511024Y-118786774D01*
X121453003Y-118814335D01*
X121389291Y-118806153D01*
X121340117Y-118764824D01*
X121325946Y-118734703D01*
X121289678Y-118614578D01*
X121289677Y-118614577D01*
X121288065Y-118609236D01*
X121283871Y-118601347D01*
X121207032Y-118456835D01*
X121194109Y-118432531D01*
X121135257Y-118360371D01*
X121071143Y-118281759D01*
X121071141Y-118281757D01*
X121067621Y-118277441D01*
X121060588Y-118271622D01*
X120928651Y-118162474D01*
X120926766Y-118160780D01*
X120924552Y-118159008D01*
X120920546Y-118155101D01*
X120916764Y-118152641D01*
X120913418Y-118149873D01*
X120908515Y-118147221D01*
X120906132Y-118145614D01*
X120904153Y-118144438D01*
X120865040Y-118118998D01*
X120799311Y-118076246D01*
X120798917Y-118075998D01*
X120798885Y-118075978D01*
X120794986Y-118073529D01*
X120794604Y-118073289D01*
X120793964Y-118072901D01*
X120789058Y-118070035D01*
X120666013Y-118000784D01*
X120665918Y-118000732D01*
X120665862Y-118000700D01*
X120663955Y-117999644D01*
X120663776Y-117999546D01*
X120663682Y-117999495D01*
X120663585Y-117999442D01*
X120661235Y-117998186D01*
X120661071Y-117998100D01*
X120660958Y-117998040D01*
X120547006Y-117938223D01*
X120545505Y-117937422D01*
X120449178Y-117884958D01*
X120442297Y-117880890D01*
X120371075Y-117835335D01*
X120358836Y-117826301D01*
X120343208Y-117813069D01*
X120311962Y-117786612D01*
X120296654Y-117770881D01*
X120266513Y-117733247D01*
X120252907Y-117711702D01*
X120229529Y-117663456D01*
X120221371Y-117640774D01*
X120202508Y-117563431D01*
X120199525Y-117544167D01*
X120193304Y-117452814D01*
X120190837Y-117416585D01*
X120188970Y-117409194D01*
X120185500Y-117381282D01*
X120185500Y-114914000D01*
X120203597Y-114852367D01*
X120252143Y-114810302D01*
X120299500Y-114800000D01*
X131483521Y-114800000D01*
X131505760Y-114802190D01*
X131705920Y-114842002D01*
X131720303Y-114845855D01*
X131931431Y-114917521D01*
X131945183Y-114923217D01*
X132145132Y-115021819D01*
X132158046Y-115029275D01*
X132343404Y-115153124D01*
X132355234Y-115162201D01*
X132505077Y-115293607D01*
X132510652Y-115298838D01*
X132518103Y-115306315D01*
X132524917Y-115317198D01*
X132535776Y-115324049D01*
X132538852Y-115327136D01*
X132551812Y-115337491D01*
X135512138Y-118297818D01*
X135521986Y-118310187D01*
X135525530Y-118313743D01*
X135532342Y-118324624D01*
X135543201Y-118331475D01*
X135552077Y-118340382D01*
X135557033Y-118345683D01*
X135643668Y-118444473D01*
X135687784Y-118494779D01*
X135696861Y-118506609D01*
X135820708Y-118691964D01*
X135828164Y-118704878D01*
X135924136Y-118899493D01*
X135926762Y-118904819D01*
X135932461Y-118918577D01*
X136004126Y-119129702D01*
X136007979Y-119144085D01*
X136051301Y-119361891D01*
X136051469Y-119362738D01*
X136053414Y-119377519D01*
X136056007Y-119417083D01*
X136066483Y-119576946D01*
X136066727Y-119584600D01*
X136066709Y-119594588D01*
X136063832Y-119607100D01*
X136066666Y-119619623D01*
X136066658Y-119623979D01*
X136068500Y-119640466D01*
X136068500Y-120066438D01*
X136066718Y-120082140D01*
X136066709Y-120087163D01*
X136063832Y-120099675D01*
X136066664Y-120112194D01*
X136066652Y-120119191D01*
X136066301Y-120127932D01*
X136053130Y-120295303D01*
X136052971Y-120297318D01*
X136050173Y-120314982D01*
X136039845Y-120358000D01*
X136006062Y-120498716D01*
X136000534Y-120515729D01*
X135928226Y-120690295D01*
X135920105Y-120706233D01*
X135821376Y-120867346D01*
X135810861Y-120881819D01*
X135688147Y-121025498D01*
X135675501Y-121038144D01*
X135531819Y-121160861D01*
X135517346Y-121171376D01*
X135356233Y-121270105D01*
X135340295Y-121278226D01*
X135165729Y-121350534D01*
X135148716Y-121356062D01*
X135087003Y-121370878D01*
X134964982Y-121400173D01*
X134947322Y-121402970D01*
X134887317Y-121407693D01*
X134777099Y-121416367D01*
X134767956Y-121416718D01*
X134762836Y-121416709D01*
X134750325Y-121413832D01*
X134737803Y-121416666D01*
X134733446Y-121416658D01*
X134716958Y-121418500D01*
X91783562Y-121418500D01*
X91767860Y-121416718D01*
X91762837Y-121416709D01*
X91750325Y-121413832D01*
X91737806Y-121416664D01*
X91730809Y-121416652D01*
X91722068Y-121416301D01*
X91634602Y-121409418D01*
X91552678Y-121402970D01*
X91535018Y-121400173D01*
X91412997Y-121370878D01*
X91351284Y-121356062D01*
X91334271Y-121350534D01*
X91159705Y-121278226D01*
X91143767Y-121270105D01*
X90982654Y-121171376D01*
X90968181Y-121160861D01*
X90824499Y-121038144D01*
X90811853Y-121025498D01*
X90689139Y-120881819D01*
X90678624Y-120867346D01*
X90579895Y-120706233D01*
X90571774Y-120690295D01*
X90499466Y-120515729D01*
X90493938Y-120498716D01*
X90455813Y-120339914D01*
X90449828Y-120314984D01*
X90447029Y-120297317D01*
X90433994Y-120131686D01*
X90434392Y-120109700D01*
X90434711Y-120106932D01*
X90436167Y-120100650D01*
X90436168Y-120100000D01*
X90434355Y-120092052D01*
X90431500Y-120066699D01*
X90431500Y-118985683D01*
X91374662Y-118985683D01*
X91391408Y-119185111D01*
X91403472Y-119227184D01*
X91443790Y-119367786D01*
X91446572Y-119377489D01*
X91449122Y-119382450D01*
X91449122Y-119382451D01*
X91469415Y-119421936D01*
X91538051Y-119555488D01*
X91662362Y-119712329D01*
X91814769Y-119842038D01*
X91861790Y-119868317D01*
X91984596Y-119936951D01*
X91984598Y-119936952D01*
X91989467Y-119939673D01*
X91994776Y-119941398D01*
X92174498Y-119999794D01*
X92174502Y-119999795D01*
X92179802Y-120001517D01*
X92237190Y-120008360D01*
X92372988Y-120024553D01*
X92372990Y-120024553D01*
X92378525Y-120025213D01*
X92578065Y-120009859D01*
X92583430Y-120008361D01*
X92583436Y-120008360D01*
X92765460Y-119957538D01*
X92765463Y-119957537D01*
X92770824Y-119956040D01*
X92949457Y-119865806D01*
X93107162Y-119742593D01*
X93137053Y-119707964D01*
X93234288Y-119595317D01*
X93234290Y-119595314D01*
X93237931Y-119591096D01*
X93241622Y-119584600D01*
X93334027Y-119421936D01*
X93336784Y-119417083D01*
X93338544Y-119411793D01*
X93338545Y-119411791D01*
X93398196Y-119232472D01*
X93398196Y-119232471D01*
X93399955Y-119227184D01*
X93401342Y-119216211D01*
X93419165Y-119075122D01*
X93425038Y-119028632D01*
X93425283Y-119011087D01*
X93425394Y-119003182D01*
X93425394Y-119003174D01*
X93425438Y-119000000D01*
X93424034Y-118985683D01*
X93914662Y-118985683D01*
X93931408Y-119185111D01*
X93943472Y-119227184D01*
X93983790Y-119367786D01*
X93986572Y-119377489D01*
X93989122Y-119382450D01*
X93989122Y-119382451D01*
X94009415Y-119421936D01*
X94078051Y-119555488D01*
X94202362Y-119712329D01*
X94354769Y-119842038D01*
X94401790Y-119868317D01*
X94524596Y-119936951D01*
X94524598Y-119936952D01*
X94529467Y-119939673D01*
X94534776Y-119941398D01*
X94714498Y-119999794D01*
X94714502Y-119999795D01*
X94719802Y-120001517D01*
X94777190Y-120008360D01*
X94912988Y-120024553D01*
X94912990Y-120024553D01*
X94918525Y-120025213D01*
X95118065Y-120009859D01*
X95123430Y-120008361D01*
X95123436Y-120008360D01*
X95305460Y-119957538D01*
X95305463Y-119957537D01*
X95310824Y-119956040D01*
X95489457Y-119865806D01*
X95647162Y-119742593D01*
X95677053Y-119707964D01*
X95774288Y-119595317D01*
X95774290Y-119595314D01*
X95777931Y-119591096D01*
X95781622Y-119584600D01*
X95874027Y-119421936D01*
X95876784Y-119417083D01*
X95878544Y-119411793D01*
X95878545Y-119411791D01*
X95938196Y-119232472D01*
X95938196Y-119232471D01*
X95939955Y-119227184D01*
X95941342Y-119216211D01*
X95959165Y-119075122D01*
X95965038Y-119028632D01*
X95965283Y-119011087D01*
X95965394Y-119003182D01*
X95965394Y-119003174D01*
X95965438Y-119000000D01*
X95952906Y-118872183D01*
X95946454Y-118806378D01*
X95946453Y-118806373D01*
X95945909Y-118800825D01*
X95941960Y-118787743D01*
X95889678Y-118614578D01*
X95889677Y-118614577D01*
X95888065Y-118609236D01*
X95883871Y-118601347D01*
X95807032Y-118456835D01*
X95794109Y-118432531D01*
X95667621Y-118277441D01*
X95651212Y-118263866D01*
X95517718Y-118153430D01*
X95517716Y-118153429D01*
X95513418Y-118149873D01*
X95377765Y-118076526D01*
X95342278Y-118057338D01*
X95342277Y-118057338D01*
X95337373Y-118054686D01*
X95146193Y-117995506D01*
X95120076Y-117992761D01*
X94952697Y-117975169D01*
X94952696Y-117975169D01*
X94947159Y-117974587D01*
X94747852Y-117992725D01*
X94555864Y-118049230D01*
X94378508Y-118141950D01*
X94364230Y-118153430D01*
X94238953Y-118254156D01*
X94222539Y-118267353D01*
X94093897Y-118420661D01*
X93997484Y-118596037D01*
X93995801Y-118601343D01*
X93995800Y-118601345D01*
X93950073Y-118745494D01*
X93936970Y-118786799D01*
X93927422Y-118871925D01*
X93923678Y-118905306D01*
X93914662Y-118985683D01*
X93424034Y-118985683D01*
X93412906Y-118872183D01*
X93406454Y-118806378D01*
X93406453Y-118806373D01*
X93405909Y-118800825D01*
X93401960Y-118787743D01*
X93349678Y-118614578D01*
X93349677Y-118614577D01*
X93348065Y-118609236D01*
X93343871Y-118601347D01*
X93267032Y-118456835D01*
X93254109Y-118432531D01*
X93127621Y-118277441D01*
X93111212Y-118263866D01*
X92977718Y-118153430D01*
X92977716Y-118153429D01*
X92973418Y-118149873D01*
X92837765Y-118076526D01*
X92802278Y-118057338D01*
X92802277Y-118057338D01*
X92797373Y-118054686D01*
X92606193Y-117995506D01*
X92580076Y-117992761D01*
X92412697Y-117975169D01*
X92412696Y-117975169D01*
X92407159Y-117974587D01*
X92207852Y-117992725D01*
X92015864Y-118049230D01*
X91838508Y-118141950D01*
X91824230Y-118153430D01*
X91698953Y-118254156D01*
X91682539Y-118267353D01*
X91553897Y-118420661D01*
X91457484Y-118596037D01*
X91455801Y-118601343D01*
X91455800Y-118601345D01*
X91410073Y-118745494D01*
X91396970Y-118786799D01*
X91387422Y-118871925D01*
X91383678Y-118905306D01*
X91374662Y-118985683D01*
X90431500Y-118985683D01*
X90431500Y-116133825D01*
X90434444Y-116108085D01*
X90434709Y-116106942D01*
X90434709Y-116106939D01*
X90436167Y-116100650D01*
X90436168Y-116100000D01*
X90434735Y-116093718D01*
X90434333Y-116090123D01*
X90433978Y-116068509D01*
X90438892Y-116006068D01*
X90447030Y-115902678D01*
X90449828Y-115885013D01*
X90473460Y-115786582D01*
X90493938Y-115701284D01*
X90499466Y-115684271D01*
X90571774Y-115509705D01*
X90579895Y-115493767D01*
X90678624Y-115332654D01*
X90689139Y-115318181D01*
X90770156Y-115223323D01*
X90811856Y-115174499D01*
X90824499Y-115161856D01*
X90968183Y-115039137D01*
X90982654Y-115028624D01*
X91143767Y-114929895D01*
X91159705Y-114921774D01*
X91334271Y-114849466D01*
X91351284Y-114843938D01*
X91491387Y-114810302D01*
X91521178Y-114803150D01*
X91547790Y-114800000D01*
X105050511Y-114800000D01*
X105112144Y-114818097D01*
G37*
%TD.AperFunction*%
%TD*%
%TA.AperFunction,Conductor*%
%TO.N,/GPIO4_IO28*%
G36*
X98694641Y-117798129D02*
G01*
X98777781Y-117906704D01*
X98820971Y-117963107D01*
X98823280Y-117971759D01*
X98819315Y-117979087D01*
X98747563Y-118040836D01*
X98685164Y-118094537D01*
X98679055Y-118099794D01*
X98571914Y-118221907D01*
X98498472Y-118340847D01*
X98450936Y-118459240D01*
X98421512Y-118579715D01*
X98402406Y-118704898D01*
X98402398Y-118704965D01*
X98385846Y-118837238D01*
X98385802Y-118837558D01*
X98364035Y-118979505D01*
X98363884Y-118980302D01*
X98329183Y-119134430D01*
X98328889Y-119135496D01*
X98279250Y-119287074D01*
X98275968Y-119297095D01*
X98270136Y-119303891D01*
X98264694Y-119305153D01*
X97658401Y-119297011D01*
X97181902Y-119290612D01*
X97173676Y-119287074D01*
X97170375Y-119278299D01*
X97227226Y-118196859D01*
X97231083Y-118188777D01*
X97235952Y-118186153D01*
X97407138Y-118141418D01*
X97408173Y-118141197D01*
X97566873Y-118114759D01*
X97567703Y-118114653D01*
X97658363Y-118106331D01*
X97711145Y-118101487D01*
X97711607Y-118101454D01*
X97844712Y-118094538D01*
X97844729Y-118094537D01*
X97972107Y-118086838D01*
X98098354Y-118071294D01*
X98098663Y-118071221D01*
X98098666Y-118071221D01*
X98227879Y-118040924D01*
X98227883Y-118040923D01*
X98228253Y-118040836D01*
X98366604Y-117988393D01*
X98518205Y-117906894D01*
X98518472Y-117906709D01*
X98518480Y-117906704D01*
X98678687Y-117795628D01*
X98687438Y-117793730D01*
X98694641Y-117798129D01*
G37*
%TD.AperFunction*%
%TD*%
%TA.AperFunction,Conductor*%
%TO.N,/UART1_RXD*%
G36*
X129111822Y-89613427D02*
G01*
X129115024Y-89619418D01*
X129115266Y-89620635D01*
X129115481Y-89622460D01*
X129115482Y-89622471D01*
X129118497Y-89700551D01*
X129118498Y-89700561D01*
X129118508Y-89700823D01*
X129128562Y-89776639D01*
X129144457Y-89840638D01*
X129165487Y-89896008D01*
X129190946Y-89945939D01*
X129191062Y-89946129D01*
X129191069Y-89946141D01*
X129220071Y-89993525D01*
X129220130Y-89993621D01*
X129220182Y-89993699D01*
X129252333Y-90042243D01*
X129252327Y-90042247D01*
X129252369Y-90042298D01*
X129286714Y-90094788D01*
X129286951Y-90095164D01*
X129322802Y-90154780D01*
X129323136Y-90155375D01*
X129356083Y-90218178D01*
X129356892Y-90227096D01*
X129354155Y-90231723D01*
X129008433Y-90591231D01*
X129000229Y-90594819D01*
X128991567Y-90591231D01*
X128645845Y-90231723D01*
X128642580Y-90223384D01*
X128643917Y-90218178D01*
X128676863Y-90155375D01*
X128677197Y-90154780D01*
X128713048Y-90095164D01*
X128713285Y-90094788D01*
X128747630Y-90042298D01*
X128747689Y-90042258D01*
X128747666Y-90042243D01*
X128779817Y-89993699D01*
X128779869Y-89993621D01*
X128779928Y-89993525D01*
X128808930Y-89946141D01*
X128808937Y-89946129D01*
X128809053Y-89945939D01*
X128834512Y-89896008D01*
X128855542Y-89840638D01*
X128871437Y-89776639D01*
X128881491Y-89700823D01*
X128884518Y-89622469D01*
X128884735Y-89620635D01*
X128884927Y-89619672D01*
X128884979Y-89619411D01*
X128889958Y-89611968D01*
X128896453Y-89610000D01*
X129103549Y-89610000D01*
X129111822Y-89613427D01*
G37*
%TD.AperFunction*%
%TD*%
%TA.AperFunction,Conductor*%
%TO.N,GND*%
G36*
X127315288Y-87739716D02*
G01*
X127373703Y-87788150D01*
X127424355Y-87831871D01*
X127470245Y-87872771D01*
X127474770Y-87876870D01*
X127476009Y-87877992D01*
X127476010Y-87877994D01*
X127514369Y-87912742D01*
X127558300Y-87952388D01*
X127559727Y-87953676D01*
X127609316Y-87997465D01*
X127609391Y-87997529D01*
X127666076Y-88045948D01*
X127666168Y-88046026D01*
X127733176Y-88101164D01*
X127733187Y-88101173D01*
X127804374Y-88157664D01*
X127808724Y-88165491D01*
X127806324Y-88174027D01*
X127734978Y-88265437D01*
X127678675Y-88337573D01*
X127670883Y-88341986D01*
X127662899Y-88340065D01*
X127608836Y-88303500D01*
X127551122Y-88277362D01*
X127497383Y-88265438D01*
X127496747Y-88265437D01*
X127496743Y-88265437D01*
X127446740Y-88265394D01*
X127446190Y-88265394D01*
X127445655Y-88265496D01*
X127445650Y-88265496D01*
X127396490Y-88274823D01*
X127396487Y-88274824D01*
X127396117Y-88274894D01*
X127395756Y-88275014D01*
X127395755Y-88275014D01*
X127345929Y-88291539D01*
X127345921Y-88291542D01*
X127345737Y-88291603D01*
X127345561Y-88291676D01*
X127345558Y-88291677D01*
X127293622Y-88313186D01*
X127278215Y-88319909D01*
X127278214Y-88319910D01*
X127238344Y-88337308D01*
X127178477Y-88361632D01*
X127112594Y-88383826D01*
X126802739Y-87967015D01*
X127246113Y-87684678D01*
X127315288Y-87739716D01*
G37*
%TD.AperFunction*%
%TD*%
%TA.AperFunction,Conductor*%
%TO.N,/I2C4_SCL*%
G36*
X130207462Y-87838660D02*
G01*
X130213257Y-87845487D01*
X130213639Y-87847024D01*
X130300598Y-88336829D01*
X130298670Y-88345574D01*
X130294584Y-88349197D01*
X130242993Y-88376706D01*
X130242385Y-88377007D01*
X130198301Y-88397251D01*
X130185263Y-88403238D01*
X130185024Y-88403344D01*
X130130608Y-88426868D01*
X130130584Y-88426878D01*
X130130523Y-88426905D01*
X130130481Y-88426924D01*
X130130441Y-88426942D01*
X130079999Y-88450094D01*
X130079993Y-88450097D01*
X130079797Y-88450187D01*
X130079606Y-88450293D01*
X130079600Y-88450296D01*
X130056473Y-88463125D01*
X130034009Y-88475586D01*
X129994184Y-88505559D01*
X129961346Y-88542562D01*
X129936521Y-88589051D01*
X129936349Y-88589689D01*
X129936347Y-88589693D01*
X129920874Y-88646961D01*
X129920873Y-88646967D01*
X129920733Y-88647485D01*
X129920691Y-88648021D01*
X129920690Y-88648026D01*
X129915858Y-88709488D01*
X129911793Y-88717467D01*
X129904143Y-88720271D01*
X129697149Y-88719366D01*
X129688891Y-88715903D01*
X129685500Y-88707666D01*
X129685500Y-88655827D01*
X129685776Y-88619951D01*
X129685777Y-88619865D01*
X129687046Y-88535609D01*
X129687048Y-88535520D01*
X129688401Y-88475830D01*
X129688689Y-88463125D01*
X129690579Y-88398995D01*
X129692590Y-88339802D01*
X129694595Y-88282127D01*
X129696465Y-88222552D01*
X129698075Y-88157660D01*
X129699297Y-88084032D01*
X129699934Y-88006703D01*
X129703429Y-87998459D01*
X129708052Y-87995662D01*
X130198537Y-87837931D01*
X130207462Y-87838660D01*
G37*
%TD.AperFunction*%
%TD*%
%TA.AperFunction,Conductor*%
%TO.N,+1V8*%
G36*
X112601630Y-116227084D02*
G01*
X112692615Y-116413519D01*
X112693163Y-116422457D01*
X112687793Y-116428872D01*
X112622517Y-116465228D01*
X112564993Y-116508165D01*
X112564663Y-116508507D01*
X112522209Y-116552462D01*
X112522205Y-116552467D01*
X112521862Y-116552822D01*
X112490082Y-116599727D01*
X112466612Y-116649411D01*
X112466506Y-116649720D01*
X112448473Y-116702219D01*
X112448468Y-116702236D01*
X112448410Y-116702404D01*
X112448362Y-116702575D01*
X112448356Y-116702594D01*
X112432434Y-116759235D01*
X112415698Y-116820231D01*
X112415583Y-116820624D01*
X112395104Y-116886180D01*
X112394854Y-116886896D01*
X112370496Y-116950138D01*
X112364325Y-116956627D01*
X112358966Y-116957617D01*
X111860940Y-116931537D01*
X111852858Y-116927682D01*
X111849901Y-116918785D01*
X111895441Y-116421983D01*
X111899609Y-116414057D01*
X111904269Y-116411697D01*
X111909712Y-116410344D01*
X111980174Y-116392826D01*
X111980544Y-116392741D01*
X112053500Y-116377404D01*
X112053773Y-116377351D01*
X112118813Y-116365547D01*
X112118913Y-116365529D01*
X112179055Y-116355279D01*
X112236978Y-116344655D01*
X112237000Y-116344650D01*
X112237057Y-116344640D01*
X112256640Y-116340310D01*
X112295645Y-116331686D01*
X112295651Y-116331684D01*
X112295807Y-116331650D01*
X112358221Y-116314339D01*
X112427214Y-116290737D01*
X112505702Y-116258874D01*
X112586200Y-116221598D01*
X112595146Y-116221231D01*
X112601630Y-116227084D01*
G37*
%TD.AperFunction*%
%TD*%
%TA.AperFunction,Conductor*%
%TO.N,GND*%
G36*
X127637461Y-87479872D02*
G01*
X127643098Y-87486564D01*
X127707729Y-87683724D01*
X127707050Y-87692653D01*
X127700901Y-87698254D01*
X127635641Y-87723966D01*
X127576782Y-87757659D01*
X127576384Y-87757991D01*
X127576382Y-87757993D01*
X127532129Y-87794981D01*
X127532126Y-87794984D01*
X127531706Y-87795335D01*
X127497528Y-87837042D01*
X127497292Y-87837455D01*
X127497290Y-87837458D01*
X127475924Y-87874850D01*
X127475924Y-87874852D01*
X127471367Y-87882826D01*
X127450340Y-87932733D01*
X127431564Y-87986811D01*
X127412156Y-88045106D01*
X127389232Y-88107665D01*
X127359912Y-88174536D01*
X126843018Y-88123921D01*
X126878620Y-87865116D01*
X126912663Y-87617643D01*
X126917185Y-87609914D01*
X126921954Y-87607766D01*
X126965895Y-87598963D01*
X126999677Y-87592195D01*
X127000137Y-87592112D01*
X127035913Y-87586421D01*
X127074371Y-87580303D01*
X127074739Y-87580252D01*
X127109911Y-87575910D01*
X127140776Y-87572101D01*
X127141030Y-87572073D01*
X127202059Y-87565894D01*
X127202079Y-87565892D01*
X127261328Y-87559993D01*
X127261379Y-87559987D01*
X127261387Y-87559986D01*
X127321673Y-87552713D01*
X127321682Y-87552712D01*
X127321804Y-87552697D01*
X127340313Y-87549733D01*
X127386561Y-87542329D01*
X127386578Y-87542326D01*
X127386683Y-87542309D01*
X127459144Y-87527135D01*
X127461445Y-87526536D01*
X127542262Y-87505509D01*
X127542281Y-87505504D01*
X127542364Y-87505482D01*
X127542452Y-87505455D01*
X127542459Y-87505453D01*
X127628546Y-87479024D01*
X127637461Y-87479872D01*
G37*
%TD.AperFunction*%
%TD*%
%TA.AperFunction,Conductor*%
%TO.N,+3V3*%
G36*
X113681821Y-116443917D02*
G01*
X113744634Y-116476869D01*
X113745209Y-116477192D01*
X113782561Y-116499653D01*
X113804835Y-116513048D01*
X113805211Y-116513285D01*
X113857701Y-116547630D01*
X113857741Y-116547689D01*
X113857756Y-116547666D01*
X113906378Y-116579869D01*
X113906465Y-116579922D01*
X113906474Y-116579928D01*
X113953858Y-116608930D01*
X113953870Y-116608937D01*
X113954060Y-116609053D01*
X114003991Y-116634512D01*
X114059361Y-116655542D01*
X114088476Y-116662773D01*
X114123045Y-116671359D01*
X114123049Y-116671360D01*
X114123360Y-116671437D01*
X114167625Y-116677307D01*
X114198904Y-116681455D01*
X114198905Y-116681455D01*
X114199176Y-116681491D01*
X114278753Y-116684565D01*
X114286886Y-116688308D01*
X114290000Y-116696256D01*
X114290000Y-116903743D01*
X114286573Y-116912016D01*
X114278752Y-116915434D01*
X114240086Y-116916928D01*
X114199176Y-116918508D01*
X114198905Y-116918544D01*
X114198904Y-116918544D01*
X114167625Y-116922692D01*
X114123360Y-116928562D01*
X114123049Y-116928639D01*
X114123045Y-116928640D01*
X114088476Y-116937226D01*
X114059361Y-116944457D01*
X114003991Y-116965487D01*
X113954060Y-116990946D01*
X113953870Y-116991062D01*
X113953858Y-116991069D01*
X113906474Y-117020071D01*
X113906378Y-117020130D01*
X113857756Y-117052333D01*
X113857752Y-117052327D01*
X113857701Y-117052369D01*
X113805211Y-117086714D01*
X113804835Y-117086951D01*
X113745209Y-117122807D01*
X113744634Y-117123130D01*
X113681821Y-117156083D01*
X113672904Y-117156892D01*
X113668277Y-117154155D01*
X113498449Y-116990839D01*
X113308769Y-116808433D01*
X113305181Y-116800229D01*
X113308769Y-116791567D01*
X113419586Y-116685000D01*
X113668277Y-116445845D01*
X113676616Y-116442580D01*
X113681821Y-116443917D01*
G37*
%TD.AperFunction*%
%TD*%
%TA.AperFunction,Conductor*%
%TO.N,/UART1_TXD*%
G36*
X128755505Y-88016808D02*
G01*
X128993660Y-88436910D01*
X129001509Y-88450756D01*
X129002608Y-88459643D01*
X129000076Y-88464298D01*
X128956718Y-88513086D01*
X128956410Y-88513420D01*
X128910793Y-88560900D01*
X128910698Y-88560998D01*
X128868604Y-88603803D01*
X128868592Y-88603816D01*
X128868583Y-88603825D01*
X128830573Y-88644502D01*
X128797158Y-88685648D01*
X128796987Y-88685914D01*
X128796984Y-88685919D01*
X128778329Y-88715040D01*
X128774977Y-88718457D01*
X128771688Y-88720655D01*
X128762077Y-88727077D01*
X128724393Y-88783474D01*
X128724168Y-88784603D01*
X128724168Y-88784604D01*
X128715779Y-88826779D01*
X128714500Y-88833209D01*
X128714500Y-88979721D01*
X128711073Y-88987994D01*
X128702800Y-88991421D01*
X128497200Y-88991421D01*
X128488927Y-88987994D01*
X128485500Y-88979721D01*
X128485500Y-88870384D01*
X128485678Y-88868353D01*
X128489726Y-88845392D01*
X128489904Y-88844382D01*
X128486956Y-88827664D01*
X128486834Y-88826779D01*
X128482434Y-88782119D01*
X128476322Y-88720082D01*
X128440063Y-88600559D01*
X128394398Y-88515127D01*
X128381456Y-88490914D01*
X128381454Y-88490911D01*
X128381184Y-88490406D01*
X128380820Y-88489962D01*
X128380817Y-88489958D01*
X128362583Y-88467740D01*
X128360655Y-88464381D01*
X128350710Y-88437524D01*
X128350502Y-88436910D01*
X128328394Y-88365256D01*
X128328192Y-88364515D01*
X128309998Y-88288027D01*
X128311417Y-88279185D01*
X128315217Y-88275374D01*
X128739164Y-88012633D01*
X128748001Y-88011188D01*
X128755505Y-88016808D01*
G37*
%TD.AperFunction*%
%TD*%
%TA.AperFunction,Conductor*%
%TO.N,GND*%
G36*
X126666005Y-87795577D02*
G01*
X126784383Y-87834294D01*
X127197654Y-87969462D01*
X126882658Y-88382401D01*
X126821673Y-88359677D01*
X126763228Y-88331955D01*
X126712494Y-88305329D01*
X126712493Y-88305328D01*
X126707262Y-88302583D01*
X126653718Y-88274910D01*
X126620585Y-88260261D01*
X126602895Y-88252439D01*
X126602891Y-88252438D01*
X126602537Y-88252281D01*
X126602162Y-88252172D01*
X126602157Y-88252170D01*
X126554307Y-88238235D01*
X126554304Y-88238234D01*
X126553660Y-88238047D01*
X126552989Y-88238011D01*
X126552988Y-88238011D01*
X126544147Y-88237538D01*
X126507028Y-88235554D01*
X126462582Y-88248150D01*
X126420264Y-88279183D01*
X126386387Y-88323641D01*
X126378648Y-88328144D01*
X126371024Y-88326559D01*
X126193886Y-88219351D01*
X126188583Y-88212135D01*
X126190322Y-88202686D01*
X126207662Y-88177616D01*
X126232141Y-88142227D01*
X126233131Y-88140985D01*
X126281512Y-88088106D01*
X126282690Y-88086986D01*
X126330910Y-88047127D01*
X126332030Y-88046308D01*
X126334004Y-88045037D01*
X126380188Y-88015301D01*
X126380918Y-88014868D01*
X126429066Y-87988683D01*
X126429194Y-87988614D01*
X126476940Y-87963410D01*
X126476946Y-87963407D01*
X126477076Y-87963338D01*
X126496830Y-87951497D01*
X126523809Y-87935325D01*
X126523814Y-87935322D01*
X126524102Y-87935149D01*
X126570033Y-87900035D01*
X126614664Y-87853960D01*
X126652810Y-87799947D01*
X126660383Y-87795167D01*
X126666005Y-87795577D01*
G37*
%TD.AperFunction*%
%TD*%
%TA.AperFunction,Conductor*%
%TO.N,/SPI_MISO*%
G36*
X113983383Y-117836074D02*
G01*
X114086199Y-118016639D01*
X114087315Y-118025524D01*
X114082487Y-118032185D01*
X113932294Y-118131541D01*
X113931942Y-118131870D01*
X113931940Y-118131871D01*
X113859904Y-118199073D01*
X113817414Y-118238711D01*
X113738736Y-118348945D01*
X113688022Y-118463531D01*
X113657033Y-118583758D01*
X113637532Y-118710914D01*
X113637527Y-118710958D01*
X113621295Y-118846164D01*
X113621254Y-118846466D01*
X113600100Y-118990749D01*
X113599947Y-118991581D01*
X113565703Y-119146242D01*
X113565379Y-119147414D01*
X113512377Y-119306380D01*
X113506510Y-119313144D01*
X113500984Y-119314375D01*
X112418498Y-119287080D01*
X112410315Y-119283446D01*
X112407118Y-119274632D01*
X112476709Y-118193862D01*
X112480661Y-118185826D01*
X112485465Y-118183285D01*
X112659614Y-118138417D01*
X112660483Y-118138228D01*
X112698118Y-118131541D01*
X112819652Y-118109946D01*
X112820414Y-118109837D01*
X112962777Y-118094080D01*
X112963241Y-118094038D01*
X113094821Y-118084760D01*
X113094829Y-118084759D01*
X113221206Y-118075934D01*
X113221213Y-118075933D01*
X113221318Y-118075926D01*
X113348303Y-118061486D01*
X113481615Y-118035370D01*
X113627083Y-117991510D01*
X113790537Y-117923836D01*
X113967811Y-117831487D01*
X113976731Y-117830703D01*
X113983383Y-117836074D01*
G37*
%TD.AperFunction*%
%TD*%
%TA.AperFunction,Conductor*%
%TO.N,/I2C4_SDA*%
G36*
X130312016Y-89613427D02*
G01*
X130315434Y-89621248D01*
X130316936Y-89660121D01*
X130318508Y-89700823D01*
X130328562Y-89776639D01*
X130344457Y-89840638D01*
X130365487Y-89896008D01*
X130390946Y-89945939D01*
X130391062Y-89946129D01*
X130391069Y-89946141D01*
X130420071Y-89993525D01*
X130420130Y-89993621D01*
X130420182Y-89993699D01*
X130452333Y-90042243D01*
X130452327Y-90042247D01*
X130452369Y-90042298D01*
X130486714Y-90094788D01*
X130486951Y-90095164D01*
X130522802Y-90154780D01*
X130523136Y-90155375D01*
X130556083Y-90218178D01*
X130556892Y-90227096D01*
X130554155Y-90231723D01*
X130208433Y-90591231D01*
X130200229Y-90594819D01*
X130191567Y-90591231D01*
X129845845Y-90231723D01*
X129842580Y-90223384D01*
X129843917Y-90218178D01*
X129876863Y-90155375D01*
X129877197Y-90154780D01*
X129913048Y-90095164D01*
X129913285Y-90094788D01*
X129947630Y-90042298D01*
X129947689Y-90042258D01*
X129947666Y-90042243D01*
X129979817Y-89993699D01*
X129979869Y-89993621D01*
X129979928Y-89993525D01*
X130008930Y-89946141D01*
X130008937Y-89946129D01*
X130009053Y-89945939D01*
X130034512Y-89896008D01*
X130055542Y-89840638D01*
X130071437Y-89776639D01*
X130081491Y-89700823D01*
X130084518Y-89622469D01*
X130084734Y-89620641D01*
X130084979Y-89619411D01*
X130089958Y-89611968D01*
X130096453Y-89610000D01*
X130303743Y-89610000D01*
X130312016Y-89613427D01*
G37*
%TD.AperFunction*%
%TD*%
%TA.AperFunction,Conductor*%
%TO.N,/SPI_SS1*%
G36*
X120012343Y-117421031D02*
G01*
X120015743Y-117428508D01*
X120026119Y-117580879D01*
X120058165Y-117712271D01*
X120109174Y-117817540D01*
X120177177Y-117902447D01*
X120260209Y-117972753D01*
X120260536Y-117972962D01*
X120356119Y-118034098D01*
X120356126Y-118034102D01*
X120356304Y-118034216D01*
X120463496Y-118092598D01*
X120579666Y-118153578D01*
X120579936Y-118153725D01*
X120702981Y-118222976D01*
X120703621Y-118223364D01*
X120824856Y-118302219D01*
X120829923Y-118309603D01*
X120829774Y-118315073D01*
X120547974Y-119360271D01*
X120542511Y-119367367D01*
X120532781Y-119368257D01*
X119498159Y-119002881D01*
X119491499Y-118996895D01*
X119490365Y-118991355D01*
X119498237Y-118805009D01*
X119498333Y-118803929D01*
X119520608Y-118639907D01*
X119520803Y-118638846D01*
X119553621Y-118496859D01*
X119553847Y-118496022D01*
X119593773Y-118367524D01*
X119593914Y-118367099D01*
X119637500Y-118243705D01*
X119637518Y-118243654D01*
X119681113Y-118117443D01*
X119681160Y-118117308D01*
X119721279Y-117979809D01*
X119737493Y-117902812D01*
X119754270Y-117823135D01*
X119754320Y-117822899D01*
X119755042Y-117816950D01*
X119776713Y-117638492D01*
X119776714Y-117638484D01*
X119776740Y-117638267D01*
X119776748Y-117638052D01*
X119776749Y-117638040D01*
X119784578Y-117428866D01*
X119788312Y-117420727D01*
X119796270Y-117417604D01*
X120004070Y-117417604D01*
X120012343Y-117421031D01*
G37*
%TD.AperFunction*%
%TD*%
%TA.AperFunction,Conductor*%
%TO.N,/SPI_MOSI*%
G36*
X116858127Y-117651608D02*
G01*
X116862921Y-117659572D01*
X116890474Y-117864906D01*
X116888178Y-117873561D01*
X116881411Y-117877885D01*
X116679420Y-117922672D01*
X116679417Y-117922673D01*
X116678799Y-117922810D01*
X116678225Y-117923078D01*
X116678222Y-117923079D01*
X116518945Y-117997439D01*
X116518943Y-117997440D01*
X116518226Y-117997775D01*
X116401337Y-118097818D01*
X116319281Y-118220304D01*
X116263210Y-118362597D01*
X116224276Y-118522063D01*
X116224246Y-118522235D01*
X116224244Y-118522243D01*
X116193629Y-118696066D01*
X116162458Y-118881748D01*
X116162374Y-118882195D01*
X116121894Y-119076695D01*
X116121671Y-119077588D01*
X116065332Y-119270696D01*
X116059725Y-119277678D01*
X116054329Y-119279117D01*
X114973529Y-119300245D01*
X114965190Y-119296980D01*
X114961602Y-119288776D01*
X114961754Y-119286653D01*
X114962991Y-119279117D01*
X115145600Y-118165786D01*
X115150321Y-118158178D01*
X115155177Y-118156148D01*
X115361271Y-118120963D01*
X115361281Y-118120961D01*
X115361497Y-118120924D01*
X115361715Y-118120869D01*
X115540941Y-118075598D01*
X115540951Y-118075595D01*
X115541153Y-118075544D01*
X115592141Y-118058340D01*
X115695242Y-118023552D01*
X115695250Y-118023549D01*
X115695410Y-118023495D01*
X115759065Y-117997439D01*
X115833690Y-117966893D01*
X115833708Y-117966885D01*
X115833760Y-117966864D01*
X115833811Y-117966841D01*
X115833823Y-117966836D01*
X115965693Y-117907735D01*
X115965757Y-117907707D01*
X116043182Y-117873561D01*
X116100496Y-117848285D01*
X116100926Y-117848106D01*
X116247918Y-117790465D01*
X116248616Y-117790216D01*
X116417514Y-117736339D01*
X116418327Y-117736113D01*
X116618697Y-117688039D01*
X116619493Y-117687877D01*
X116768498Y-117663061D01*
X116849403Y-117649587D01*
X116858127Y-117651608D01*
G37*
%TD.AperFunction*%
%TD*%
%TA.AperFunction,Conductor*%
%TO.N,/SPI_SCK*%
G36*
X118738540Y-117604863D02*
G01*
X118830243Y-117654881D01*
X118920959Y-117704361D01*
X118926582Y-117711331D01*
X118925844Y-117719820D01*
X118837096Y-117899217D01*
X118836976Y-117899460D01*
X118836878Y-117899717D01*
X118779855Y-118048628D01*
X118773608Y-118064941D01*
X118773530Y-118065236D01*
X118773529Y-118065238D01*
X118759208Y-118119155D01*
X118734519Y-118212101D01*
X118713503Y-118346849D01*
X118704356Y-118475097D01*
X118704353Y-118475218D01*
X118700874Y-118602724D01*
X118700873Y-118602759D01*
X118696855Y-118735503D01*
X118696827Y-118736021D01*
X118686107Y-118879536D01*
X118686016Y-118880366D01*
X118662421Y-119040861D01*
X118662241Y-119041809D01*
X118621396Y-119217477D01*
X118616185Y-119224759D01*
X118610994Y-119226485D01*
X117531931Y-119318523D01*
X117523397Y-119315811D01*
X117519249Y-119307403D01*
X117469460Y-118225696D01*
X117472503Y-118217274D01*
X117477189Y-118214148D01*
X117483724Y-118211798D01*
X117633589Y-118157909D01*
X117634686Y-118157574D01*
X117713385Y-118137795D01*
X117786880Y-118119323D01*
X117787659Y-118119155D01*
X117929578Y-118093600D01*
X117929840Y-118093556D01*
X118016995Y-118079899D01*
X118062646Y-118072746D01*
X118062733Y-118072729D01*
X118062740Y-118072728D01*
X118120317Y-118061626D01*
X118187307Y-118048710D01*
X118187578Y-118048629D01*
X118187581Y-118048628D01*
X118249584Y-118030034D01*
X118304903Y-118013444D01*
X118305329Y-118013236D01*
X118305332Y-118013235D01*
X118416129Y-117959178D01*
X118416648Y-117958925D01*
X118523755Y-117877129D01*
X118627438Y-117760032D01*
X118723051Y-117608879D01*
X118730370Y-117603720D01*
X118738540Y-117604863D01*
G37*
%TD.AperFunction*%
%TD*%
%TA.AperFunction,Conductor*%
%TO.N,/GPIO4_IO11*%
G36*
X101245086Y-117808019D02*
G01*
X101323764Y-117914409D01*
X101368637Y-117975087D01*
X101370801Y-117983777D01*
X101366718Y-117991033D01*
X101225061Y-118109029D01*
X101116612Y-118229118D01*
X101042040Y-118346715D01*
X100993528Y-118464301D01*
X100963260Y-118584359D01*
X100943420Y-118709370D01*
X100943402Y-118709508D01*
X100943398Y-118709536D01*
X100926211Y-118841664D01*
X100926166Y-118841976D01*
X100903821Y-118983767D01*
X100903669Y-118984559D01*
X100868424Y-119138400D01*
X100868124Y-119139472D01*
X100814716Y-119300420D01*
X100808858Y-119307193D01*
X100803405Y-119308433D01*
X99720688Y-119289362D01*
X99712476Y-119285790D01*
X99709213Y-119277001D01*
X99761995Y-118347187D01*
X99770588Y-118195804D01*
X99774478Y-118187739D01*
X99779354Y-118185137D01*
X99951118Y-118140949D01*
X99952149Y-118140733D01*
X100111094Y-118114806D01*
X100111950Y-118114698D01*
X100255468Y-118102039D01*
X100255939Y-118102007D01*
X100389082Y-118095663D01*
X100516405Y-118088678D01*
X100516406Y-118088678D01*
X100516587Y-118088668D01*
X100516744Y-118088650D01*
X100516754Y-118088649D01*
X100589456Y-118080242D01*
X100643146Y-118074033D01*
X100703912Y-118060404D01*
X100773308Y-118044840D01*
X100773314Y-118044838D01*
X100773685Y-118044755D01*
X100913130Y-117993831D01*
X100913459Y-117993660D01*
X100913464Y-117993658D01*
X100982434Y-117957854D01*
X101066409Y-117914261D01*
X101066671Y-117914086D01*
X101066677Y-117914082D01*
X101229169Y-117805256D01*
X101237950Y-117803499D01*
X101245086Y-117808019D01*
G37*
%TD.AperFunction*%
%TD*%
%TA.AperFunction,Conductor*%
%TO.N,GND*%
G36*
X127360000Y-88174355D02*
G01*
X127322973Y-88244934D01*
X127286849Y-88305005D01*
X127275715Y-88322021D01*
X127275714Y-88322022D01*
X127252369Y-88357701D01*
X127252310Y-88357741D01*
X127252333Y-88357756D01*
X127220130Y-88406378D01*
X127220077Y-88406465D01*
X127220071Y-88406474D01*
X127191069Y-88453858D01*
X127191062Y-88453870D01*
X127190946Y-88454060D01*
X127165487Y-88503991D01*
X127144457Y-88559361D01*
X127128562Y-88623360D01*
X127118508Y-88699176D01*
X127118498Y-88699447D01*
X127115434Y-88778752D01*
X127111691Y-88786886D01*
X127103743Y-88790000D01*
X126896256Y-88790000D01*
X126887983Y-88786573D01*
X126884565Y-88778752D01*
X126881501Y-88699447D01*
X126881491Y-88699176D01*
X126871437Y-88623360D01*
X126855542Y-88559361D01*
X126834512Y-88503991D01*
X126809053Y-88454060D01*
X126808937Y-88453870D01*
X126808930Y-88453858D01*
X126779928Y-88406474D01*
X126779922Y-88406465D01*
X126779869Y-88406378D01*
X126747666Y-88357756D01*
X126747672Y-88357752D01*
X126747630Y-88357701D01*
X126713150Y-88305005D01*
X126677026Y-88244934D01*
X126640000Y-88174355D01*
X127000000Y-87800000D01*
X127360000Y-88174355D01*
G37*
%TD.AperFunction*%
%TD*%
M02*
