%TF.GenerationSoftware,KiCad,Pcbnew,7.0.1-2.fc38*%
%TF.CreationDate,2023-04-23T00:49:20-04:00*%
%TF.ProjectId,ext-con-breakout-board,6578742d-636f-46e2-9d62-7265616b6f75,v0.6*%
%TF.SameCoordinates,Original*%
%TF.FileFunction,Legend,Bot*%
%TF.FilePolarity,Positive*%
%FSLAX46Y46*%
G04 Gerber Fmt 4.6, Leading zero omitted, Abs format (unit mm)*
G04 Created by KiCad (PCBNEW 7.0.1-2.fc38) date 2023-04-23 00:49:20*
%MOMM*%
%LPD*%
G01*
G04 APERTURE LIST*
%ADD10C,0.150000*%
%ADD11C,0.120000*%
G04 APERTURE END LIST*
D10*
X114866667Y-112038809D02*
X114533334Y-112038809D01*
X114390477Y-112562619D02*
X114866667Y-112562619D01*
X114866667Y-112562619D02*
X114866667Y-111562619D01*
X114866667Y-111562619D02*
X114390477Y-111562619D01*
X114057143Y-111562619D02*
X113390477Y-112562619D01*
X113390477Y-111562619D02*
X114057143Y-112562619D01*
X113152381Y-111562619D02*
X112580953Y-111562619D01*
X112866667Y-112562619D02*
X112866667Y-111562619D01*
X110914286Y-112467380D02*
X110961905Y-112515000D01*
X110961905Y-112515000D02*
X111104762Y-112562619D01*
X111104762Y-112562619D02*
X111200000Y-112562619D01*
X111200000Y-112562619D02*
X111342857Y-112515000D01*
X111342857Y-112515000D02*
X111438095Y-112419761D01*
X111438095Y-112419761D02*
X111485714Y-112324523D01*
X111485714Y-112324523D02*
X111533333Y-112134047D01*
X111533333Y-112134047D02*
X111533333Y-111991190D01*
X111533333Y-111991190D02*
X111485714Y-111800714D01*
X111485714Y-111800714D02*
X111438095Y-111705476D01*
X111438095Y-111705476D02*
X111342857Y-111610238D01*
X111342857Y-111610238D02*
X111200000Y-111562619D01*
X111200000Y-111562619D02*
X111104762Y-111562619D01*
X111104762Y-111562619D02*
X110961905Y-111610238D01*
X110961905Y-111610238D02*
X110914286Y-111657857D01*
X110295238Y-111562619D02*
X110104762Y-111562619D01*
X110104762Y-111562619D02*
X110009524Y-111610238D01*
X110009524Y-111610238D02*
X109914286Y-111705476D01*
X109914286Y-111705476D02*
X109866667Y-111895952D01*
X109866667Y-111895952D02*
X109866667Y-112229285D01*
X109866667Y-112229285D02*
X109914286Y-112419761D01*
X109914286Y-112419761D02*
X110009524Y-112515000D01*
X110009524Y-112515000D02*
X110104762Y-112562619D01*
X110104762Y-112562619D02*
X110295238Y-112562619D01*
X110295238Y-112562619D02*
X110390476Y-112515000D01*
X110390476Y-112515000D02*
X110485714Y-112419761D01*
X110485714Y-112419761D02*
X110533333Y-112229285D01*
X110533333Y-112229285D02*
X110533333Y-111895952D01*
X110533333Y-111895952D02*
X110485714Y-111705476D01*
X110485714Y-111705476D02*
X110390476Y-111610238D01*
X110390476Y-111610238D02*
X110295238Y-111562619D01*
X109438095Y-112562619D02*
X109438095Y-111562619D01*
X109438095Y-111562619D02*
X108866667Y-112562619D01*
X108866667Y-112562619D02*
X108866667Y-111562619D01*
X107295238Y-112038809D02*
X107152381Y-112086428D01*
X107152381Y-112086428D02*
X107104762Y-112134047D01*
X107104762Y-112134047D02*
X107057143Y-112229285D01*
X107057143Y-112229285D02*
X107057143Y-112372142D01*
X107057143Y-112372142D02*
X107104762Y-112467380D01*
X107104762Y-112467380D02*
X107152381Y-112515000D01*
X107152381Y-112515000D02*
X107247619Y-112562619D01*
X107247619Y-112562619D02*
X107628571Y-112562619D01*
X107628571Y-112562619D02*
X107628571Y-111562619D01*
X107628571Y-111562619D02*
X107295238Y-111562619D01*
X107295238Y-111562619D02*
X107200000Y-111610238D01*
X107200000Y-111610238D02*
X107152381Y-111657857D01*
X107152381Y-111657857D02*
X107104762Y-111753095D01*
X107104762Y-111753095D02*
X107104762Y-111848333D01*
X107104762Y-111848333D02*
X107152381Y-111943571D01*
X107152381Y-111943571D02*
X107200000Y-111991190D01*
X107200000Y-111991190D02*
X107295238Y-112038809D01*
X107295238Y-112038809D02*
X107628571Y-112038809D01*
X106628571Y-112562619D02*
X106628571Y-111895952D01*
X106628571Y-112086428D02*
X106580952Y-111991190D01*
X106580952Y-111991190D02*
X106533333Y-111943571D01*
X106533333Y-111943571D02*
X106438095Y-111895952D01*
X106438095Y-111895952D02*
X106342857Y-111895952D01*
X105628571Y-112515000D02*
X105723809Y-112562619D01*
X105723809Y-112562619D02*
X105914285Y-112562619D01*
X105914285Y-112562619D02*
X106009523Y-112515000D01*
X106009523Y-112515000D02*
X106057142Y-112419761D01*
X106057142Y-112419761D02*
X106057142Y-112038809D01*
X106057142Y-112038809D02*
X106009523Y-111943571D01*
X106009523Y-111943571D02*
X105914285Y-111895952D01*
X105914285Y-111895952D02*
X105723809Y-111895952D01*
X105723809Y-111895952D02*
X105628571Y-111943571D01*
X105628571Y-111943571D02*
X105580952Y-112038809D01*
X105580952Y-112038809D02*
X105580952Y-112134047D01*
X105580952Y-112134047D02*
X106057142Y-112229285D01*
X104723809Y-112562619D02*
X104723809Y-112038809D01*
X104723809Y-112038809D02*
X104771428Y-111943571D01*
X104771428Y-111943571D02*
X104866666Y-111895952D01*
X104866666Y-111895952D02*
X105057142Y-111895952D01*
X105057142Y-111895952D02*
X105152380Y-111943571D01*
X104723809Y-112515000D02*
X104819047Y-112562619D01*
X104819047Y-112562619D02*
X105057142Y-112562619D01*
X105057142Y-112562619D02*
X105152380Y-112515000D01*
X105152380Y-112515000D02*
X105199999Y-112419761D01*
X105199999Y-112419761D02*
X105199999Y-112324523D01*
X105199999Y-112324523D02*
X105152380Y-112229285D01*
X105152380Y-112229285D02*
X105057142Y-112181666D01*
X105057142Y-112181666D02*
X104819047Y-112181666D01*
X104819047Y-112181666D02*
X104723809Y-112134047D01*
X104247618Y-112562619D02*
X104247618Y-111562619D01*
X104152380Y-112181666D02*
X103866666Y-112562619D01*
X103866666Y-111895952D02*
X104247618Y-112276904D01*
X103295237Y-112562619D02*
X103390475Y-112515000D01*
X103390475Y-112515000D02*
X103438094Y-112467380D01*
X103438094Y-112467380D02*
X103485713Y-112372142D01*
X103485713Y-112372142D02*
X103485713Y-112086428D01*
X103485713Y-112086428D02*
X103438094Y-111991190D01*
X103438094Y-111991190D02*
X103390475Y-111943571D01*
X103390475Y-111943571D02*
X103295237Y-111895952D01*
X103295237Y-111895952D02*
X103152380Y-111895952D01*
X103152380Y-111895952D02*
X103057142Y-111943571D01*
X103057142Y-111943571D02*
X103009523Y-111991190D01*
X103009523Y-111991190D02*
X102961904Y-112086428D01*
X102961904Y-112086428D02*
X102961904Y-112372142D01*
X102961904Y-112372142D02*
X103009523Y-112467380D01*
X103009523Y-112467380D02*
X103057142Y-112515000D01*
X103057142Y-112515000D02*
X103152380Y-112562619D01*
X103152380Y-112562619D02*
X103295237Y-112562619D01*
X102104761Y-111895952D02*
X102104761Y-112562619D01*
X102533332Y-111895952D02*
X102533332Y-112419761D01*
X102533332Y-112419761D02*
X102485713Y-112515000D01*
X102485713Y-112515000D02*
X102390475Y-112562619D01*
X102390475Y-112562619D02*
X102247618Y-112562619D01*
X102247618Y-112562619D02*
X102152380Y-112515000D01*
X102152380Y-112515000D02*
X102104761Y-112467380D01*
X101771427Y-111895952D02*
X101390475Y-111895952D01*
X101628570Y-111562619D02*
X101628570Y-112419761D01*
X101628570Y-112419761D02*
X101580951Y-112515000D01*
X101580951Y-112515000D02*
X101485713Y-112562619D01*
X101485713Y-112562619D02*
X101390475Y-112562619D01*
X99961903Y-112038809D02*
X99819046Y-112086428D01*
X99819046Y-112086428D02*
X99771427Y-112134047D01*
X99771427Y-112134047D02*
X99723808Y-112229285D01*
X99723808Y-112229285D02*
X99723808Y-112372142D01*
X99723808Y-112372142D02*
X99771427Y-112467380D01*
X99771427Y-112467380D02*
X99819046Y-112515000D01*
X99819046Y-112515000D02*
X99914284Y-112562619D01*
X99914284Y-112562619D02*
X100295236Y-112562619D01*
X100295236Y-112562619D02*
X100295236Y-111562619D01*
X100295236Y-111562619D02*
X99961903Y-111562619D01*
X99961903Y-111562619D02*
X99866665Y-111610238D01*
X99866665Y-111610238D02*
X99819046Y-111657857D01*
X99819046Y-111657857D02*
X99771427Y-111753095D01*
X99771427Y-111753095D02*
X99771427Y-111848333D01*
X99771427Y-111848333D02*
X99819046Y-111943571D01*
X99819046Y-111943571D02*
X99866665Y-111991190D01*
X99866665Y-111991190D02*
X99961903Y-112038809D01*
X99961903Y-112038809D02*
X100295236Y-112038809D01*
X99152379Y-112562619D02*
X99247617Y-112515000D01*
X99247617Y-112515000D02*
X99295236Y-112467380D01*
X99295236Y-112467380D02*
X99342855Y-112372142D01*
X99342855Y-112372142D02*
X99342855Y-112086428D01*
X99342855Y-112086428D02*
X99295236Y-111991190D01*
X99295236Y-111991190D02*
X99247617Y-111943571D01*
X99247617Y-111943571D02*
X99152379Y-111895952D01*
X99152379Y-111895952D02*
X99009522Y-111895952D01*
X99009522Y-111895952D02*
X98914284Y-111943571D01*
X98914284Y-111943571D02*
X98866665Y-111991190D01*
X98866665Y-111991190D02*
X98819046Y-112086428D01*
X98819046Y-112086428D02*
X98819046Y-112372142D01*
X98819046Y-112372142D02*
X98866665Y-112467380D01*
X98866665Y-112467380D02*
X98914284Y-112515000D01*
X98914284Y-112515000D02*
X99009522Y-112562619D01*
X99009522Y-112562619D02*
X99152379Y-112562619D01*
X97961903Y-112562619D02*
X97961903Y-112038809D01*
X97961903Y-112038809D02*
X98009522Y-111943571D01*
X98009522Y-111943571D02*
X98104760Y-111895952D01*
X98104760Y-111895952D02*
X98295236Y-111895952D01*
X98295236Y-111895952D02*
X98390474Y-111943571D01*
X97961903Y-112515000D02*
X98057141Y-112562619D01*
X98057141Y-112562619D02*
X98295236Y-112562619D01*
X98295236Y-112562619D02*
X98390474Y-112515000D01*
X98390474Y-112515000D02*
X98438093Y-112419761D01*
X98438093Y-112419761D02*
X98438093Y-112324523D01*
X98438093Y-112324523D02*
X98390474Y-112229285D01*
X98390474Y-112229285D02*
X98295236Y-112181666D01*
X98295236Y-112181666D02*
X98057141Y-112181666D01*
X98057141Y-112181666D02*
X97961903Y-112134047D01*
X97485712Y-112562619D02*
X97485712Y-111895952D01*
X97485712Y-112086428D02*
X97438093Y-111991190D01*
X97438093Y-111991190D02*
X97390474Y-111943571D01*
X97390474Y-111943571D02*
X97295236Y-111895952D01*
X97295236Y-111895952D02*
X97199998Y-111895952D01*
X96438093Y-112562619D02*
X96438093Y-111562619D01*
X96438093Y-112515000D02*
X96533331Y-112562619D01*
X96533331Y-112562619D02*
X96723807Y-112562619D01*
X96723807Y-112562619D02*
X96819045Y-112515000D01*
X96819045Y-112515000D02*
X96866664Y-112467380D01*
X96866664Y-112467380D02*
X96914283Y-112372142D01*
X96914283Y-112372142D02*
X96914283Y-112086428D01*
X96914283Y-112086428D02*
X96866664Y-111991190D01*
X96866664Y-111991190D02*
X96819045Y-111943571D01*
X96819045Y-111943571D02*
X96723807Y-111895952D01*
X96723807Y-111895952D02*
X96533331Y-111895952D01*
X96533331Y-111895952D02*
X96438093Y-111943571D01*
X95295235Y-111895952D02*
X95057140Y-112562619D01*
X95057140Y-112562619D02*
X94819045Y-111895952D01*
X94247616Y-111562619D02*
X94152378Y-111562619D01*
X94152378Y-111562619D02*
X94057140Y-111610238D01*
X94057140Y-111610238D02*
X94009521Y-111657857D01*
X94009521Y-111657857D02*
X93961902Y-111753095D01*
X93961902Y-111753095D02*
X93914283Y-111943571D01*
X93914283Y-111943571D02*
X93914283Y-112181666D01*
X93914283Y-112181666D02*
X93961902Y-112372142D01*
X93961902Y-112372142D02*
X94009521Y-112467380D01*
X94009521Y-112467380D02*
X94057140Y-112515000D01*
X94057140Y-112515000D02*
X94152378Y-112562619D01*
X94152378Y-112562619D02*
X94247616Y-112562619D01*
X94247616Y-112562619D02*
X94342854Y-112515000D01*
X94342854Y-112515000D02*
X94390473Y-112467380D01*
X94390473Y-112467380D02*
X94438092Y-112372142D01*
X94438092Y-112372142D02*
X94485711Y-112181666D01*
X94485711Y-112181666D02*
X94485711Y-111943571D01*
X94485711Y-111943571D02*
X94438092Y-111753095D01*
X94438092Y-111753095D02*
X94390473Y-111657857D01*
X94390473Y-111657857D02*
X94342854Y-111610238D01*
X94342854Y-111610238D02*
X94247616Y-111562619D01*
X93485711Y-112467380D02*
X93438092Y-112515000D01*
X93438092Y-112515000D02*
X93485711Y-112562619D01*
X93485711Y-112562619D02*
X93533330Y-112515000D01*
X93533330Y-112515000D02*
X93485711Y-112467380D01*
X93485711Y-112467380D02*
X93485711Y-112562619D01*
X93104759Y-111562619D02*
X92438093Y-111562619D01*
X92438093Y-111562619D02*
X92866664Y-112562619D01*
X110452380Y-113962619D02*
X110452380Y-112962619D01*
X110452380Y-112962619D02*
X110071428Y-112962619D01*
X110071428Y-112962619D02*
X109976190Y-113010238D01*
X109976190Y-113010238D02*
X109928571Y-113057857D01*
X109928571Y-113057857D02*
X109880952Y-113153095D01*
X109880952Y-113153095D02*
X109880952Y-113295952D01*
X109880952Y-113295952D02*
X109928571Y-113391190D01*
X109928571Y-113391190D02*
X109976190Y-113438809D01*
X109976190Y-113438809D02*
X110071428Y-113486428D01*
X110071428Y-113486428D02*
X110452380Y-113486428D01*
X109023809Y-113295952D02*
X109023809Y-113962619D01*
X109452380Y-113295952D02*
X109452380Y-113819761D01*
X109452380Y-113819761D02*
X109404761Y-113915000D01*
X109404761Y-113915000D02*
X109309523Y-113962619D01*
X109309523Y-113962619D02*
X109166666Y-113962619D01*
X109166666Y-113962619D02*
X109071428Y-113915000D01*
X109071428Y-113915000D02*
X109023809Y-113867380D01*
X108547618Y-113962619D02*
X108547618Y-113295952D01*
X108547618Y-113486428D02*
X108499999Y-113391190D01*
X108499999Y-113391190D02*
X108452380Y-113343571D01*
X108452380Y-113343571D02*
X108357142Y-113295952D01*
X108357142Y-113295952D02*
X108261904Y-113295952D01*
X107928570Y-113962619D02*
X107928570Y-113295952D01*
X107928570Y-112962619D02*
X107976189Y-113010238D01*
X107976189Y-113010238D02*
X107928570Y-113057857D01*
X107928570Y-113057857D02*
X107880951Y-113010238D01*
X107880951Y-113010238D02*
X107928570Y-112962619D01*
X107928570Y-112962619D02*
X107928570Y-113057857D01*
X107499999Y-113915000D02*
X107404761Y-113962619D01*
X107404761Y-113962619D02*
X107214285Y-113962619D01*
X107214285Y-113962619D02*
X107119047Y-113915000D01*
X107119047Y-113915000D02*
X107071428Y-113819761D01*
X107071428Y-113819761D02*
X107071428Y-113772142D01*
X107071428Y-113772142D02*
X107119047Y-113676904D01*
X107119047Y-113676904D02*
X107214285Y-113629285D01*
X107214285Y-113629285D02*
X107357142Y-113629285D01*
X107357142Y-113629285D02*
X107452380Y-113581666D01*
X107452380Y-113581666D02*
X107499999Y-113486428D01*
X107499999Y-113486428D02*
X107499999Y-113438809D01*
X107499999Y-113438809D02*
X107452380Y-113343571D01*
X107452380Y-113343571D02*
X107357142Y-113295952D01*
X107357142Y-113295952D02*
X107214285Y-113295952D01*
X107214285Y-113295952D02*
X107119047Y-113343571D01*
X106642856Y-113962619D02*
X106642856Y-113295952D01*
X106642856Y-113391190D02*
X106595237Y-113343571D01*
X106595237Y-113343571D02*
X106499999Y-113295952D01*
X106499999Y-113295952D02*
X106357142Y-113295952D01*
X106357142Y-113295952D02*
X106261904Y-113343571D01*
X106261904Y-113343571D02*
X106214285Y-113438809D01*
X106214285Y-113438809D02*
X106214285Y-113962619D01*
X106214285Y-113438809D02*
X106166666Y-113343571D01*
X106166666Y-113343571D02*
X106071428Y-113295952D01*
X106071428Y-113295952D02*
X105928571Y-113295952D01*
X105928571Y-113295952D02*
X105833332Y-113343571D01*
X105833332Y-113343571D02*
X105785713Y-113438809D01*
X105785713Y-113438809D02*
X105785713Y-113962619D01*
X104595237Y-113915000D02*
X104452380Y-113962619D01*
X104452380Y-113962619D02*
X104214285Y-113962619D01*
X104214285Y-113962619D02*
X104119047Y-113915000D01*
X104119047Y-113915000D02*
X104071428Y-113867380D01*
X104071428Y-113867380D02*
X104023809Y-113772142D01*
X104023809Y-113772142D02*
X104023809Y-113676904D01*
X104023809Y-113676904D02*
X104071428Y-113581666D01*
X104071428Y-113581666D02*
X104119047Y-113534047D01*
X104119047Y-113534047D02*
X104214285Y-113486428D01*
X104214285Y-113486428D02*
X104404761Y-113438809D01*
X104404761Y-113438809D02*
X104499999Y-113391190D01*
X104499999Y-113391190D02*
X104547618Y-113343571D01*
X104547618Y-113343571D02*
X104595237Y-113248333D01*
X104595237Y-113248333D02*
X104595237Y-113153095D01*
X104595237Y-113153095D02*
X104547618Y-113057857D01*
X104547618Y-113057857D02*
X104499999Y-113010238D01*
X104499999Y-113010238D02*
X104404761Y-112962619D01*
X104404761Y-112962619D02*
X104166666Y-112962619D01*
X104166666Y-112962619D02*
X104023809Y-113010238D01*
X103595237Y-113962619D02*
X103595237Y-112962619D01*
X103595237Y-112962619D02*
X103214285Y-112962619D01*
X103214285Y-112962619D02*
X103119047Y-113010238D01*
X103119047Y-113010238D02*
X103071428Y-113057857D01*
X103071428Y-113057857D02*
X103023809Y-113153095D01*
X103023809Y-113153095D02*
X103023809Y-113295952D01*
X103023809Y-113295952D02*
X103071428Y-113391190D01*
X103071428Y-113391190D02*
X103119047Y-113438809D01*
X103119047Y-113438809D02*
X103214285Y-113486428D01*
X103214285Y-113486428D02*
X103595237Y-113486428D01*
X102023809Y-113867380D02*
X102071428Y-113915000D01*
X102071428Y-113915000D02*
X102214285Y-113962619D01*
X102214285Y-113962619D02*
X102309523Y-113962619D01*
X102309523Y-113962619D02*
X102452380Y-113915000D01*
X102452380Y-113915000D02*
X102547618Y-113819761D01*
X102547618Y-113819761D02*
X102595237Y-113724523D01*
X102595237Y-113724523D02*
X102642856Y-113534047D01*
X102642856Y-113534047D02*
X102642856Y-113391190D01*
X102642856Y-113391190D02*
X102595237Y-113200714D01*
X102595237Y-113200714D02*
X102547618Y-113105476D01*
X102547618Y-113105476D02*
X102452380Y-113010238D01*
X102452380Y-113010238D02*
X102309523Y-112962619D01*
X102309523Y-112962619D02*
X102214285Y-112962619D01*
X102214285Y-112962619D02*
X102071428Y-113010238D01*
X102071428Y-113010238D02*
X102023809Y-113057857D01*
X100309523Y-113010238D02*
X100404761Y-112962619D01*
X100404761Y-112962619D02*
X100547618Y-112962619D01*
X100547618Y-112962619D02*
X100690475Y-113010238D01*
X100690475Y-113010238D02*
X100785713Y-113105476D01*
X100785713Y-113105476D02*
X100833332Y-113200714D01*
X100833332Y-113200714D02*
X100880951Y-113391190D01*
X100880951Y-113391190D02*
X100880951Y-113534047D01*
X100880951Y-113534047D02*
X100833332Y-113724523D01*
X100833332Y-113724523D02*
X100785713Y-113819761D01*
X100785713Y-113819761D02*
X100690475Y-113915000D01*
X100690475Y-113915000D02*
X100547618Y-113962619D01*
X100547618Y-113962619D02*
X100452380Y-113962619D01*
X100452380Y-113962619D02*
X100309523Y-113915000D01*
X100309523Y-113915000D02*
X100261904Y-113867380D01*
X100261904Y-113867380D02*
X100261904Y-113534047D01*
X100261904Y-113534047D02*
X100452380Y-113534047D01*
X99833332Y-113962619D02*
X99833332Y-112962619D01*
X99833332Y-112962619D02*
X99452380Y-112962619D01*
X99452380Y-112962619D02*
X99357142Y-113010238D01*
X99357142Y-113010238D02*
X99309523Y-113057857D01*
X99309523Y-113057857D02*
X99261904Y-113153095D01*
X99261904Y-113153095D02*
X99261904Y-113295952D01*
X99261904Y-113295952D02*
X99309523Y-113391190D01*
X99309523Y-113391190D02*
X99357142Y-113438809D01*
X99357142Y-113438809D02*
X99452380Y-113486428D01*
X99452380Y-113486428D02*
X99833332Y-113486428D01*
X98357142Y-113962619D02*
X98833332Y-113962619D01*
X98833332Y-113962619D02*
X98833332Y-112962619D01*
X98119046Y-113295952D02*
X97880951Y-113962619D01*
X97880951Y-113962619D02*
X97642856Y-113295952D01*
X97357141Y-112962619D02*
X96738094Y-112962619D01*
X96738094Y-112962619D02*
X97071427Y-113343571D01*
X97071427Y-113343571D02*
X96928570Y-113343571D01*
X96928570Y-113343571D02*
X96833332Y-113391190D01*
X96833332Y-113391190D02*
X96785713Y-113438809D01*
X96785713Y-113438809D02*
X96738094Y-113534047D01*
X96738094Y-113534047D02*
X96738094Y-113772142D01*
X96738094Y-113772142D02*
X96785713Y-113867380D01*
X96785713Y-113867380D02*
X96833332Y-113915000D01*
X96833332Y-113915000D02*
X96928570Y-113962619D01*
X96928570Y-113962619D02*
X97214284Y-113962619D01*
X97214284Y-113962619D02*
X97309522Y-113915000D01*
X97309522Y-113915000D02*
X97357141Y-113867380D01*
X96309522Y-113581666D02*
X95547618Y-113581666D01*
X95928570Y-113962619D02*
X95928570Y-113200714D01*
D11*
%TO.C,J1*%
X124400000Y-86200000D02*
X124400000Y-89800000D01*
X130050000Y-90100000D02*
X130350000Y-90100000D01*
X130200000Y-89887868D02*
X130050000Y-90100000D01*
X130350000Y-90100000D02*
X130200000Y-89887868D01*
X131600000Y-86200000D02*
X124400000Y-86200000D01*
X131600000Y-86200000D02*
X131600000Y-89800000D01*
X131600000Y-89800000D02*
X124400000Y-89800000D01*
%TD*%
M02*
