%TF.GenerationSoftware,KiCad,Pcbnew,6.0.10-1.fc37*%
%TF.CreationDate,2023-01-04T19:13:09-05:00*%
%TF.ProjectId,ext-con-breakout-board,6578742d-636f-46e2-9d62-7265616b6f75,v0.6*%
%TF.SameCoordinates,Original*%
%TF.FileFunction,Copper,L1,Top*%
%TF.FilePolarity,Positive*%
%FSLAX46Y46*%
G04 Gerber Fmt 4.6, Leading zero omitted, Abs format (unit mm)*
G04 Created by KiCad (PCBNEW 6.0.10-1.fc37) date 2023-01-04 19:13:09*
%MOMM*%
%LPD*%
G01*
G04 APERTURE LIST*
G04 Aperture macros list*
%AMRoundRect*
0 Rectangle with rounded corners*
0 $1 Rounding radius*
0 $2 $3 $4 $5 $6 $7 $8 $9 X,Y pos of 4 corners*
0 Add a 4 corners polygon primitive as box body*
4,1,4,$2,$3,$4,$5,$6,$7,$8,$9,$2,$3,0*
0 Add four circle primitives for the rounded corners*
1,1,$1+$1,$2,$3*
1,1,$1+$1,$4,$5*
1,1,$1+$1,$6,$7*
1,1,$1+$1,$8,$9*
0 Add four rect primitives between the rounded corners*
20,1,$1+$1,$2,$3,$4,$5,0*
20,1,$1+$1,$4,$5,$6,$7,0*
20,1,$1+$1,$6,$7,$8,$9,0*
20,1,$1+$1,$8,$9,$2,$3,0*%
G04 Aperture macros list end*
%TA.AperFunction,SMDPad,CuDef*%
%ADD10RoundRect,0.147500X0.147500X0.172500X-0.147500X0.172500X-0.147500X-0.172500X0.147500X-0.172500X0*%
%TD*%
%TA.AperFunction,ComponentPad*%
%ADD11R,1.700000X1.700000*%
%TD*%
%TA.AperFunction,ComponentPad*%
%ADD12O,1.700000X1.700000*%
%TD*%
%TA.AperFunction,ComponentPad*%
%ADD13C,2.800000*%
%TD*%
%TA.AperFunction,SMDPad,CuDef*%
%ADD14RoundRect,0.147500X-0.147500X-0.172500X0.147500X-0.172500X0.147500X0.172500X-0.147500X0.172500X0*%
%TD*%
%TA.AperFunction,SMDPad,CuDef*%
%ADD15C,0.500000*%
%TD*%
%TA.AperFunction,SMDPad,CuDef*%
%ADD16RoundRect,0.140000X-0.140000X-0.170000X0.140000X-0.170000X0.140000X0.170000X-0.140000X0.170000X0*%
%TD*%
%TA.AperFunction,SMDPad,CuDef*%
%ADD17RoundRect,0.140000X0.140000X0.170000X-0.140000X0.170000X-0.140000X-0.170000X0.140000X-0.170000X0*%
%TD*%
%TA.AperFunction,ViaPad*%
%ADD18C,0.800000*%
%TD*%
%TA.AperFunction,Conductor*%
%ADD19C,0.230000*%
%TD*%
%TA.AperFunction,Conductor*%
%ADD20C,0.620000*%
%TD*%
%TA.AperFunction,Conductor*%
%ADD21C,0.500000*%
%TD*%
G04 APERTURE END LIST*
D10*
%TO.P,FB2,1*%
%TO.N,+3V3*%
X106285000Y-113500000D03*
%TO.P,FB2,2*%
%TO.N,Net-(C2-Pad1)*%
X105315000Y-113500000D03*
%TD*%
D11*
%TO.P,J2,1,Pin_1*%
%TO.N,GND*%
X130500000Y-115500000D03*
D12*
%TO.P,J2,2,Pin_2*%
%TO.N,/UART1_RXD*%
X127960000Y-115500000D03*
%TO.P,J2,3,Pin_3*%
%TO.N,/UART1_TXD*%
X125420000Y-115500000D03*
%TO.P,J2,4,Pin_4*%
%TO.N,GND*%
X122880000Y-115500000D03*
%TO.P,J2,5,Pin_5*%
%TO.N,/SPI_SS1*%
X120340000Y-115500000D03*
%TO.P,J2,6,Pin_6*%
%TO.N,/SPI_SCK*%
X117800000Y-115500000D03*
%TO.P,J2,7,Pin_7*%
%TO.N,/SPI_MOSI*%
X115260000Y-115500000D03*
%TO.P,J2,8,Pin_8*%
%TO.N,/SPI_MISO*%
X112720000Y-115500000D03*
%TO.P,J2,9,Pin_9*%
%TO.N,GND*%
X110180000Y-115500000D03*
%TO.P,J2,10,Pin_10*%
%TO.N,Net-(C1-Pad1)*%
X107640000Y-115500000D03*
%TO.P,J2,11,Pin_11*%
%TO.N,Net-(C2-Pad1)*%
X105100000Y-115500000D03*
%TO.P,J2,12,Pin_12*%
%TO.N,GND*%
X102560000Y-115500000D03*
%TO.P,J2,13,Pin_13*%
%TO.N,/GPIO4_IO11*%
X100020000Y-115500000D03*
%TO.P,J2,14,Pin_14*%
%TO.N,/GPIO4_IO28*%
X97480000Y-115500000D03*
%TO.P,J2,15,Pin_15*%
%TO.N,/I2C4_SCL*%
X94940000Y-115500000D03*
%TO.P,J2,16,Pin_16*%
%TO.N,/I2C4_SDA*%
X92400000Y-115500000D03*
%TD*%
D13*
%TO.P,H1,1,1*%
%TO.N,GND*%
X133671000Y-115500000D03*
%TD*%
D14*
%TO.P,FB1,1*%
%TO.N,+1V8*%
X107315000Y-113500000D03*
%TO.P,FB1,2*%
%TO.N,Net-(C1-Pad1)*%
X108285000Y-113500000D03*
%TD*%
D15*
%TO.P,FID1,*%
%TO.N,*%
X91500000Y-112200000D03*
%TD*%
D16*
%TO.P,C1,1*%
%TO.N,Net-(C1-Pad1)*%
X109220000Y-113500000D03*
%TO.P,C1,2*%
%TO.N,GND*%
X110180000Y-113500000D03*
%TD*%
D17*
%TO.P,C2,1*%
%TO.N,Net-(C2-Pad1)*%
X104310000Y-113500000D03*
%TO.P,C2,2*%
%TO.N,GND*%
X103350000Y-113500000D03*
%TD*%
D15*
%TO.P,FID2,*%
%TO.N,*%
X132700000Y-113200000D03*
%TD*%
D18*
%TO.N,+1V8*%
X112000000Y-113300000D03*
%TO.N,+3V3*%
X113500000Y-113300000D03*
%TD*%
D19*
%TO.N,+1V8*%
X110913604Y-112850000D02*
X107965000Y-112850000D01*
X107315000Y-113500000D02*
G75*
G02*
X107965000Y-112850000I650000J0D01*
G01*
X110913604Y-112849999D02*
G75*
G02*
X112000000Y-113300000I-4J-1536401D01*
G01*
%TO.N,+3V3*%
X111447919Y-112450000D02*
X107335000Y-112450000D01*
X111447919Y-112449993D02*
G75*
G02*
X113500000Y-113300000I-19J-2902107D01*
G01*
X106285000Y-113500000D02*
G75*
G02*
X107335000Y-112450000I1050000J0D01*
G01*
D20*
%TO.N,Net-(C2-Pad1)*%
X104310000Y-113500000D02*
X105315000Y-113500000D01*
X105315000Y-113500000D02*
X105315000Y-114980945D01*
D21*
X105100000Y-115500000D02*
X105100000Y-115400000D01*
D20*
X105099987Y-115499987D02*
G75*
G03*
X105315000Y-114980945I-519087J519087D01*
G01*
%TO.N,Net-(C1-Pad1)*%
X108285000Y-113500000D02*
X108285000Y-113942833D01*
X108285000Y-113500000D02*
X109220000Y-113500000D01*
X107639991Y-115499991D02*
G75*
G03*
X108285000Y-113942833I-1557191J1557191D01*
G01*
%TD*%
%TA.AperFunction,Conductor*%
%TO.N,+3V3*%
G36*
X112930179Y-112723845D02*
G01*
X113006645Y-112763984D01*
X113006654Y-112763988D01*
X113006819Y-112764075D01*
X113031286Y-112775034D01*
X113082131Y-112797808D01*
X113082143Y-112797813D01*
X113082313Y-112797889D01*
X113149261Y-112822216D01*
X113177610Y-112830135D01*
X113210182Y-112839235D01*
X113210194Y-112839238D01*
X113210359Y-112839284D01*
X113210541Y-112839322D01*
X113210550Y-112839324D01*
X113268136Y-112851288D01*
X113268300Y-112851322D01*
X113325779Y-112860556D01*
X113385462Y-112869210D01*
X113385516Y-112869218D01*
X113422543Y-112875125D01*
X113449907Y-112879490D01*
X113450319Y-112879563D01*
X113483221Y-112886024D01*
X113522121Y-112893663D01*
X113522629Y-112893776D01*
X113596819Y-112912014D01*
X113604034Y-112917317D01*
X113605679Y-112922342D01*
X113617575Y-113056470D01*
X113649748Y-113419227D01*
X113647066Y-113427771D01*
X113638671Y-113431947D01*
X113140545Y-113456558D01*
X113132113Y-113453543D01*
X113129049Y-113449074D01*
X113104807Y-113386085D01*
X113104571Y-113385414D01*
X113084059Y-113320612D01*
X113083949Y-113320241D01*
X113067141Y-113260325D01*
X113067133Y-113260296D01*
X113051170Y-113204750D01*
X113051165Y-113204735D01*
X113051127Y-113204602D01*
X113033018Y-113152502D01*
X113032197Y-113150756D01*
X113010049Y-113103642D01*
X113010045Y-113103635D01*
X113009866Y-113103254D01*
X112978722Y-113056083D01*
X112936638Y-113010218D01*
X112880668Y-112964883D01*
X112817300Y-112925216D01*
X112812106Y-112917922D01*
X112813295Y-112909590D01*
X112914528Y-112728495D01*
X112921556Y-112722946D01*
X112930179Y-112723845D01*
G37*
%TD.AperFunction*%
%TD*%
%TA.AperFunction,Conductor*%
%TO.N,+1V8*%
G36*
X111386531Y-112802860D02*
G01*
X111444990Y-112817649D01*
X111445003Y-112817652D01*
X111445082Y-112817672D01*
X111445168Y-112817690D01*
X111445184Y-112817694D01*
X111495638Y-112828419D01*
X111530016Y-112835727D01*
X111603726Y-112848212D01*
X111603804Y-112848222D01*
X111603817Y-112848224D01*
X111633939Y-112852093D01*
X111669493Y-112856660D01*
X111669569Y-112856667D01*
X111669583Y-112856669D01*
X111706157Y-112860224D01*
X111730600Y-112862600D01*
X111790328Y-112867566D01*
X111790403Y-112867573D01*
X111851802Y-112873074D01*
X111852082Y-112873102D01*
X111918585Y-112880676D01*
X111918987Y-112880729D01*
X111993855Y-112891897D01*
X111994293Y-112891971D01*
X112072946Y-112906774D01*
X112080443Y-112911672D01*
X112082351Y-112916527D01*
X112156767Y-113409837D01*
X112154613Y-113418529D01*
X112146490Y-113423210D01*
X111650830Y-113478268D01*
X111642229Y-113475776D01*
X111638883Y-113471473D01*
X111612762Y-113413881D01*
X111612483Y-113413212D01*
X111589141Y-113351913D01*
X111589026Y-113351596D01*
X111568978Y-113294018D01*
X111549514Y-113240619D01*
X111549512Y-113240614D01*
X111549446Y-113240433D01*
X111549361Y-113240240D01*
X111527805Y-113191498D01*
X111527801Y-113191491D01*
X111527655Y-113191160D01*
X111500765Y-113146343D01*
X111482917Y-113125732D01*
X111466311Y-113106554D01*
X111466308Y-113106551D01*
X111465939Y-113106125D01*
X111420340Y-113070650D01*
X111361128Y-113040061D01*
X111360724Y-113039924D01*
X111360718Y-113039922D01*
X111315163Y-113024535D01*
X111295897Y-113018027D01*
X111289155Y-113012132D01*
X111288348Y-113003881D01*
X111333927Y-112835727D01*
X111342631Y-112803618D01*
X111348102Y-112796531D01*
X111356792Y-112795337D01*
X111386531Y-112802860D01*
G37*
%TD.AperFunction*%
%TD*%
%TA.AperFunction,Conductor*%
%TO.N,Net-(C1-Pad1)*%
G36*
X108582943Y-113976410D02*
G01*
X108591170Y-113979948D01*
X108594482Y-113988396D01*
X108589562Y-114188787D01*
X108589552Y-114189072D01*
X108580740Y-114369184D01*
X108580722Y-114369477D01*
X108569222Y-114524662D01*
X108569203Y-114524890D01*
X108555907Y-114662463D01*
X108541737Y-114789398D01*
X108527615Y-114912701D01*
X108514458Y-115039463D01*
X108503180Y-115176777D01*
X108494696Y-115331734D01*
X108494694Y-115331808D01*
X108494694Y-115331809D01*
X108490145Y-115503075D01*
X108486500Y-115511254D01*
X108481952Y-115513927D01*
X107415422Y-115848586D01*
X107406502Y-115847794D01*
X107400756Y-115840926D01*
X107400395Y-115839442D01*
X107342896Y-115511254D01*
X107213688Y-114773782D01*
X107215635Y-114765042D01*
X107219643Y-114761473D01*
X107330775Y-114701326D01*
X107331225Y-114701096D01*
X107445022Y-114645720D01*
X107445104Y-114645680D01*
X107469657Y-114633969D01*
X107552679Y-114594370D01*
X107552754Y-114594331D01*
X107651838Y-114542763D01*
X107651843Y-114542760D01*
X107652043Y-114542656D01*
X107741368Y-114485983D01*
X107818867Y-114419780D01*
X107882750Y-114339475D01*
X107931230Y-114240498D01*
X107944427Y-114188949D01*
X107962396Y-114118755D01*
X107962396Y-114118753D01*
X107962519Y-114118274D01*
X107973937Y-113979124D01*
X107978029Y-113971159D01*
X107985755Y-113968382D01*
X108582943Y-113976410D01*
G37*
%TD.AperFunction*%
%TD*%
%TA.AperFunction,Conductor*%
%TO.N,GND*%
G36*
X131505751Y-111302190D02*
G01*
X131705910Y-111342003D01*
X131720314Y-111345863D01*
X131931404Y-111417519D01*
X131945182Y-111423226D01*
X132145117Y-111521826D01*
X132158031Y-111529282D01*
X132343388Y-111653137D01*
X132355219Y-111662216D01*
X132505369Y-111793900D01*
X132510955Y-111799140D01*
X132518097Y-111806308D01*
X132524912Y-111817193D01*
X132535773Y-111824046D01*
X132538848Y-111827132D01*
X132551807Y-111837486D01*
X135512138Y-114797818D01*
X135521988Y-114810189D01*
X135525530Y-114813744D01*
X135532342Y-114824624D01*
X135543197Y-114831473D01*
X135552098Y-114840406D01*
X135557056Y-114845709D01*
X135687788Y-114994781D01*
X135696865Y-115006611D01*
X135820715Y-115191965D01*
X135828171Y-115204878D01*
X135926772Y-115404817D01*
X135932478Y-115418593D01*
X136004143Y-115629699D01*
X136008002Y-115644097D01*
X136038030Y-115795038D01*
X136051499Y-115862741D01*
X136053446Y-115877525D01*
X136066483Y-116076339D01*
X136066727Y-116083993D01*
X136066709Y-116094598D01*
X136063832Y-116107110D01*
X136066666Y-116119634D01*
X136066659Y-116123998D01*
X136068500Y-116140476D01*
X136068500Y-116566438D01*
X136066718Y-116582140D01*
X136066709Y-116587163D01*
X136063832Y-116599675D01*
X136066664Y-116612194D01*
X136066652Y-116619191D01*
X136066301Y-116627932D01*
X136053130Y-116795303D01*
X136052971Y-116797318D01*
X136050173Y-116814982D01*
X136039845Y-116858000D01*
X136006062Y-116998716D01*
X136000534Y-117015729D01*
X135928226Y-117190295D01*
X135920105Y-117206233D01*
X135821376Y-117367346D01*
X135810861Y-117381819D01*
X135688147Y-117525498D01*
X135675501Y-117538144D01*
X135531819Y-117660861D01*
X135517346Y-117671376D01*
X135356233Y-117770105D01*
X135340295Y-117778226D01*
X135165729Y-117850534D01*
X135148716Y-117856062D01*
X135087003Y-117870878D01*
X134964982Y-117900173D01*
X134947322Y-117902970D01*
X134887317Y-117907693D01*
X134777099Y-117916367D01*
X134767956Y-117916718D01*
X134762836Y-117916709D01*
X134750325Y-117913832D01*
X134737803Y-117916666D01*
X134733446Y-117916658D01*
X134716958Y-117918500D01*
X91783562Y-117918500D01*
X91767860Y-117916718D01*
X91762837Y-117916709D01*
X91750325Y-117913832D01*
X91737806Y-117916664D01*
X91730809Y-117916652D01*
X91722068Y-117916301D01*
X91634602Y-117909418D01*
X91552678Y-117902970D01*
X91535018Y-117900173D01*
X91412997Y-117870878D01*
X91351284Y-117856062D01*
X91334271Y-117850534D01*
X91159705Y-117778226D01*
X91143767Y-117770105D01*
X90982654Y-117671376D01*
X90968181Y-117660861D01*
X90824499Y-117538144D01*
X90811853Y-117525498D01*
X90689139Y-117381819D01*
X90678624Y-117367346D01*
X90579895Y-117206233D01*
X90571774Y-117190295D01*
X90499466Y-117015729D01*
X90493938Y-116998716D01*
X90455813Y-116839914D01*
X90449828Y-116814984D01*
X90447029Y-116797317D01*
X90433994Y-116631686D01*
X90434392Y-116609700D01*
X90434711Y-116606932D01*
X90436167Y-116600650D01*
X90436168Y-116600000D01*
X90434355Y-116592052D01*
X90431500Y-116566699D01*
X90431500Y-115485683D01*
X91374662Y-115485683D01*
X91391408Y-115685111D01*
X91403472Y-115727184D01*
X91431695Y-115825606D01*
X91446572Y-115877489D01*
X91449122Y-115882450D01*
X91449122Y-115882451D01*
X91469415Y-115921936D01*
X91538051Y-116055488D01*
X91662362Y-116212329D01*
X91814769Y-116342038D01*
X91861790Y-116368317D01*
X91984596Y-116436951D01*
X91984598Y-116436952D01*
X91989467Y-116439673D01*
X91994776Y-116441398D01*
X92174498Y-116499794D01*
X92174502Y-116499795D01*
X92179802Y-116501517D01*
X92237190Y-116508360D01*
X92372988Y-116524553D01*
X92372990Y-116524553D01*
X92378525Y-116525213D01*
X92578065Y-116509859D01*
X92583430Y-116508361D01*
X92583436Y-116508360D01*
X92765460Y-116457538D01*
X92765463Y-116457537D01*
X92770824Y-116456040D01*
X92949457Y-116365806D01*
X93107162Y-116242593D01*
X93137053Y-116207964D01*
X93234288Y-116095317D01*
X93234290Y-116095314D01*
X93237931Y-116091096D01*
X93255676Y-116059860D01*
X93334027Y-115921936D01*
X93336784Y-115917083D01*
X93338543Y-115911796D01*
X93338545Y-115911791D01*
X93398196Y-115732472D01*
X93398196Y-115732471D01*
X93399955Y-115727184D01*
X93402590Y-115706330D01*
X93424639Y-115531788D01*
X93425038Y-115528632D01*
X93425233Y-115514671D01*
X93425394Y-115503182D01*
X93425394Y-115503174D01*
X93425438Y-115500000D01*
X93424034Y-115485683D01*
X93914662Y-115485683D01*
X93931408Y-115685111D01*
X93943472Y-115727184D01*
X93971695Y-115825606D01*
X93986572Y-115877489D01*
X93989122Y-115882450D01*
X93989122Y-115882451D01*
X94009415Y-115921936D01*
X94078051Y-116055488D01*
X94202362Y-116212329D01*
X94354769Y-116342038D01*
X94401790Y-116368317D01*
X94524596Y-116436951D01*
X94524598Y-116436952D01*
X94529467Y-116439673D01*
X94534776Y-116441398D01*
X94714498Y-116499794D01*
X94714502Y-116499795D01*
X94719802Y-116501517D01*
X94777190Y-116508360D01*
X94912988Y-116524553D01*
X94912990Y-116524553D01*
X94918525Y-116525213D01*
X95118065Y-116509859D01*
X95123430Y-116508361D01*
X95123436Y-116508360D01*
X95305460Y-116457538D01*
X95305463Y-116457537D01*
X95310824Y-116456040D01*
X95489457Y-116365806D01*
X95647162Y-116242593D01*
X95677053Y-116207964D01*
X95774288Y-116095317D01*
X95774290Y-116095314D01*
X95777931Y-116091096D01*
X95795676Y-116059860D01*
X95874027Y-115921936D01*
X95876784Y-115917083D01*
X95878543Y-115911796D01*
X95878545Y-115911791D01*
X95938196Y-115732472D01*
X95938196Y-115732471D01*
X95939955Y-115727184D01*
X95942590Y-115706330D01*
X95964639Y-115531788D01*
X95965038Y-115528632D01*
X95965233Y-115514671D01*
X95965394Y-115503182D01*
X95965394Y-115503174D01*
X95965438Y-115500000D01*
X95964034Y-115485683D01*
X96454662Y-115485683D01*
X96471408Y-115685111D01*
X96483472Y-115727184D01*
X96511695Y-115825606D01*
X96526572Y-115877489D01*
X96529122Y-115882450D01*
X96529122Y-115882451D01*
X96549415Y-115921936D01*
X96618051Y-116055488D01*
X96742362Y-116212329D01*
X96894769Y-116342038D01*
X96941790Y-116368317D01*
X97064596Y-116436951D01*
X97064598Y-116436952D01*
X97069467Y-116439673D01*
X97074776Y-116441398D01*
X97254498Y-116499794D01*
X97254502Y-116499795D01*
X97259802Y-116501517D01*
X97317190Y-116508360D01*
X97452988Y-116524553D01*
X97452990Y-116524553D01*
X97458525Y-116525213D01*
X97658065Y-116509859D01*
X97663430Y-116508361D01*
X97663436Y-116508360D01*
X97845460Y-116457538D01*
X97845463Y-116457537D01*
X97850824Y-116456040D01*
X98029457Y-116365806D01*
X98187162Y-116242593D01*
X98217053Y-116207964D01*
X98314288Y-116095317D01*
X98314290Y-116095314D01*
X98317931Y-116091096D01*
X98335676Y-116059860D01*
X98414027Y-115921936D01*
X98416784Y-115917083D01*
X98418543Y-115911796D01*
X98418545Y-115911791D01*
X98478196Y-115732472D01*
X98478196Y-115732471D01*
X98479955Y-115727184D01*
X98482590Y-115706330D01*
X98504639Y-115531788D01*
X98505038Y-115528632D01*
X98505233Y-115514671D01*
X98505394Y-115503182D01*
X98505394Y-115503174D01*
X98505438Y-115500000D01*
X98504034Y-115485683D01*
X98994662Y-115485683D01*
X99011408Y-115685111D01*
X99023472Y-115727184D01*
X99051695Y-115825606D01*
X99066572Y-115877489D01*
X99069122Y-115882450D01*
X99069122Y-115882451D01*
X99089415Y-115921936D01*
X99158051Y-116055488D01*
X99282362Y-116212329D01*
X99434769Y-116342038D01*
X99481790Y-116368317D01*
X99604596Y-116436951D01*
X99604598Y-116436952D01*
X99609467Y-116439673D01*
X99614776Y-116441398D01*
X99794498Y-116499794D01*
X99794502Y-116499795D01*
X99799802Y-116501517D01*
X99857190Y-116508360D01*
X99992988Y-116524553D01*
X99992990Y-116524553D01*
X99998525Y-116525213D01*
X100198065Y-116509859D01*
X100203430Y-116508361D01*
X100203436Y-116508360D01*
X100385460Y-116457538D01*
X100385463Y-116457537D01*
X100390824Y-116456040D01*
X100569457Y-116365806D01*
X100727162Y-116242593D01*
X100757053Y-116207964D01*
X100854288Y-116095317D01*
X100854290Y-116095314D01*
X100857931Y-116091096D01*
X100875676Y-116059860D01*
X100954027Y-115921936D01*
X100956784Y-115917083D01*
X100958543Y-115911796D01*
X100958545Y-115911791D01*
X101009338Y-115759100D01*
X101045964Y-115706330D01*
X101105306Y-115681739D01*
X101168522Y-115693134D01*
X101215542Y-115736898D01*
X101228721Y-115770021D01*
X101258673Y-115902930D01*
X101261461Y-115911823D01*
X101341954Y-116110055D01*
X101346157Y-116118377D01*
X101457951Y-116300807D01*
X101463451Y-116308322D01*
X101603538Y-116470043D01*
X101610199Y-116476566D01*
X101774818Y-116613236D01*
X101782453Y-116618581D01*
X101967178Y-116726526D01*
X101975588Y-116730555D01*
X102175452Y-116806875D01*
X102184427Y-116809483D01*
X102289935Y-116830949D01*
X102302652Y-116829867D01*
X102306000Y-116820507D01*
X102306000Y-114181376D01*
X102302455Y-114169304D01*
X102289537Y-114167506D01*
X102248835Y-114173735D01*
X102239760Y-114175897D01*
X102036396Y-114242366D01*
X102027798Y-114245980D01*
X101838025Y-114344770D01*
X101830134Y-114349739D01*
X101659035Y-114478204D01*
X101652070Y-114484388D01*
X101504251Y-114639072D01*
X101498382Y-114646319D01*
X101377816Y-114823062D01*
X101373209Y-114831172D01*
X101283130Y-115025232D01*
X101279908Y-115033988D01*
X101224934Y-115232218D01*
X101191024Y-115286774D01*
X101133003Y-115314335D01*
X101069291Y-115306153D01*
X101020117Y-115264824D01*
X101005946Y-115234703D01*
X100969678Y-115114578D01*
X100969677Y-115114577D01*
X100968065Y-115109236D01*
X100963871Y-115101347D01*
X100886730Y-114956267D01*
X100874109Y-114932531D01*
X100747621Y-114777441D01*
X100735427Y-114767353D01*
X100597718Y-114653430D01*
X100597716Y-114653429D01*
X100593418Y-114649873D01*
X100484172Y-114590804D01*
X100422278Y-114557338D01*
X100422277Y-114557338D01*
X100417373Y-114554686D01*
X100226193Y-114495506D01*
X100214709Y-114494299D01*
X100032697Y-114475169D01*
X100032696Y-114475169D01*
X100027159Y-114474587D01*
X99827852Y-114492725D01*
X99635864Y-114549230D01*
X99458508Y-114641950D01*
X99448654Y-114649873D01*
X99330163Y-114745143D01*
X99302539Y-114767353D01*
X99173897Y-114920661D01*
X99077484Y-115096037D01*
X99075801Y-115101343D01*
X99075800Y-115101345D01*
X99047053Y-115191965D01*
X99016970Y-115286799D01*
X98994662Y-115485683D01*
X98504034Y-115485683D01*
X98496105Y-115404817D01*
X98486454Y-115306378D01*
X98486453Y-115306373D01*
X98485909Y-115300825D01*
X98481676Y-115286802D01*
X98429678Y-115114578D01*
X98429677Y-115114577D01*
X98428065Y-115109236D01*
X98423871Y-115101347D01*
X98346730Y-114956267D01*
X98334109Y-114932531D01*
X98207621Y-114777441D01*
X98195427Y-114767353D01*
X98057718Y-114653430D01*
X98057716Y-114653429D01*
X98053418Y-114649873D01*
X97944172Y-114590804D01*
X97882278Y-114557338D01*
X97882277Y-114557338D01*
X97877373Y-114554686D01*
X97686193Y-114495506D01*
X97674709Y-114494299D01*
X97492697Y-114475169D01*
X97492696Y-114475169D01*
X97487159Y-114474587D01*
X97287852Y-114492725D01*
X97095864Y-114549230D01*
X96918508Y-114641950D01*
X96908654Y-114649873D01*
X96790163Y-114745143D01*
X96762539Y-114767353D01*
X96633897Y-114920661D01*
X96537484Y-115096037D01*
X96535801Y-115101343D01*
X96535800Y-115101345D01*
X96507053Y-115191965D01*
X96476970Y-115286799D01*
X96454662Y-115485683D01*
X95964034Y-115485683D01*
X95956105Y-115404817D01*
X95946454Y-115306378D01*
X95946453Y-115306373D01*
X95945909Y-115300825D01*
X95941676Y-115286802D01*
X95889678Y-115114578D01*
X95889677Y-115114577D01*
X95888065Y-115109236D01*
X95883871Y-115101347D01*
X95806730Y-114956267D01*
X95794109Y-114932531D01*
X95667621Y-114777441D01*
X95655427Y-114767353D01*
X95517718Y-114653430D01*
X95517716Y-114653429D01*
X95513418Y-114649873D01*
X95404172Y-114590804D01*
X95342278Y-114557338D01*
X95342277Y-114557338D01*
X95337373Y-114554686D01*
X95146193Y-114495506D01*
X95134709Y-114494299D01*
X94952697Y-114475169D01*
X94952696Y-114475169D01*
X94947159Y-114474587D01*
X94747852Y-114492725D01*
X94555864Y-114549230D01*
X94378508Y-114641950D01*
X94368654Y-114649873D01*
X94250163Y-114745143D01*
X94222539Y-114767353D01*
X94093897Y-114920661D01*
X93997484Y-115096037D01*
X93995801Y-115101343D01*
X93995800Y-115101345D01*
X93967053Y-115191965D01*
X93936970Y-115286799D01*
X93914662Y-115485683D01*
X93424034Y-115485683D01*
X93416105Y-115404817D01*
X93406454Y-115306378D01*
X93406453Y-115306373D01*
X93405909Y-115300825D01*
X93401676Y-115286802D01*
X93349678Y-115114578D01*
X93349677Y-115114577D01*
X93348065Y-115109236D01*
X93343871Y-115101347D01*
X93266730Y-114956267D01*
X93254109Y-114932531D01*
X93127621Y-114777441D01*
X93115427Y-114767353D01*
X92977718Y-114653430D01*
X92977716Y-114653429D01*
X92973418Y-114649873D01*
X92864172Y-114590804D01*
X92802278Y-114557338D01*
X92802277Y-114557338D01*
X92797373Y-114554686D01*
X92606193Y-114495506D01*
X92594709Y-114494299D01*
X92412697Y-114475169D01*
X92412696Y-114475169D01*
X92407159Y-114474587D01*
X92207852Y-114492725D01*
X92015864Y-114549230D01*
X91838508Y-114641950D01*
X91828654Y-114649873D01*
X91710163Y-114745143D01*
X91682539Y-114767353D01*
X91553897Y-114920661D01*
X91457484Y-115096037D01*
X91455801Y-115101343D01*
X91455800Y-115101345D01*
X91427053Y-115191965D01*
X91396970Y-115286799D01*
X91374662Y-115485683D01*
X90431500Y-115485683D01*
X90431500Y-113767868D01*
X102564708Y-113767868D01*
X102566518Y-113777776D01*
X102608567Y-113922506D01*
X102614221Y-113935572D01*
X102690259Y-114064147D01*
X102698982Y-114075392D01*
X102713998Y-114090408D01*
X102754634Y-114112597D01*
X102800055Y-114158018D01*
X102814000Y-114212653D01*
X102814000Y-116820243D01*
X102817677Y-116832766D01*
X102829813Y-116834606D01*
X102838671Y-116833471D01*
X102847793Y-116831533D01*
X103052716Y-116770052D01*
X103061407Y-116766646D01*
X103253537Y-116672523D01*
X103261545Y-116667749D01*
X103435725Y-116543509D01*
X103442852Y-116537486D01*
X103594398Y-116386466D01*
X103600444Y-116379362D01*
X103725285Y-116205628D01*
X103730100Y-116197614D01*
X103824890Y-116005823D01*
X103828324Y-115997150D01*
X103890522Y-115792432D01*
X103893480Y-115778752D01*
X103894607Y-115778996D01*
X103918397Y-115725228D01*
X103972019Y-115689863D01*
X104036250Y-115689102D01*
X104090695Y-115723188D01*
X104115014Y-115767434D01*
X104131695Y-115825606D01*
X104146572Y-115877489D01*
X104149122Y-115882450D01*
X104149122Y-115882451D01*
X104169415Y-115921936D01*
X104238051Y-116055488D01*
X104362362Y-116212329D01*
X104514769Y-116342038D01*
X104561790Y-116368317D01*
X104684596Y-116436951D01*
X104684598Y-116436952D01*
X104689467Y-116439673D01*
X104694776Y-116441398D01*
X104874498Y-116499794D01*
X104874502Y-116499795D01*
X104879802Y-116501517D01*
X104937190Y-116508360D01*
X105072988Y-116524553D01*
X105072990Y-116524553D01*
X105078525Y-116525213D01*
X105278065Y-116509859D01*
X105283430Y-116508361D01*
X105283436Y-116508360D01*
X105465460Y-116457538D01*
X105465463Y-116457537D01*
X105470824Y-116456040D01*
X105649457Y-116365806D01*
X105807162Y-116242593D01*
X105837053Y-116207964D01*
X105934288Y-116095317D01*
X105934290Y-116095314D01*
X105937931Y-116091096D01*
X105955676Y-116059860D01*
X106034027Y-115921936D01*
X106036784Y-115917083D01*
X106038543Y-115911796D01*
X106038545Y-115911791D01*
X106098196Y-115732472D01*
X106098196Y-115732471D01*
X106099955Y-115727184D01*
X106102590Y-115706330D01*
X106124639Y-115531788D01*
X106125038Y-115528632D01*
X106125233Y-115514671D01*
X106125394Y-115503182D01*
X106125394Y-115503174D01*
X106125438Y-115500000D01*
X106105909Y-115300825D01*
X106104298Y-115295489D01*
X106103215Y-115290017D01*
X106103539Y-115289953D01*
X106102926Y-115287045D01*
X106102920Y-115286802D01*
X106092853Y-115241952D01*
X106065261Y-115119036D01*
X106065193Y-115118733D01*
X106064214Y-115114607D01*
X106064084Y-115114087D01*
X106063120Y-115110401D01*
X106030562Y-114991227D01*
X106021909Y-114959553D01*
X106021894Y-114959499D01*
X106021830Y-114959265D01*
X106020962Y-114956199D01*
X106020844Y-114955796D01*
X106019943Y-114952816D01*
X105978177Y-114819023D01*
X105978134Y-114818888D01*
X105978104Y-114818794D01*
X105977380Y-114816542D01*
X105977294Y-114816274D01*
X105936959Y-114694165D01*
X105936599Y-114693058D01*
X105900311Y-114579315D01*
X105899082Y-114575196D01*
X105890704Y-114545055D01*
X105868223Y-114464179D01*
X105866639Y-114457760D01*
X105841125Y-114339824D01*
X105839764Y-114332333D01*
X105819844Y-114197110D01*
X105819004Y-114189757D01*
X105808255Y-114057874D01*
X105821285Y-113994974D01*
X105866253Y-113949105D01*
X105928882Y-113934828D01*
X105970057Y-113945294D01*
X106053926Y-113984403D01*
X106100236Y-113990500D01*
X106469764Y-113990500D01*
X106516074Y-113984403D01*
X106617711Y-113937009D01*
X106697009Y-113857711D01*
X106701226Y-113848669D01*
X106706616Y-113840970D01*
X106756791Y-113800863D01*
X106820685Y-113794249D01*
X106878011Y-113823229D01*
X106893384Y-113840970D01*
X106898774Y-113848669D01*
X106902991Y-113857711D01*
X106982289Y-113937009D01*
X107083926Y-113984403D01*
X107130236Y-113990500D01*
X107499764Y-113990500D01*
X107546074Y-113984403D01*
X107629571Y-113945468D01*
X107693076Y-113935822D01*
X107751716Y-113962042D01*
X107786872Y-114015803D01*
X107791366Y-114058107D01*
X107789610Y-114079515D01*
X107786430Y-114098468D01*
X107768592Y-114168146D01*
X107760533Y-114190018D01*
X107738980Y-114234022D01*
X107725818Y-114254843D01*
X107698867Y-114288722D01*
X107683702Y-114304427D01*
X107642978Y-114339215D01*
X107630017Y-114348788D01*
X107568472Y-114387835D01*
X107560040Y-114392692D01*
X107476123Y-114436367D01*
X107472577Y-114438135D01*
X107369550Y-114487276D01*
X107368312Y-114487873D01*
X107368172Y-114487941D01*
X107353822Y-114494924D01*
X107254433Y-114543289D01*
X107251353Y-114544825D01*
X107250903Y-114545055D01*
X107247240Y-114546981D01*
X107247047Y-114547085D01*
X107246984Y-114547119D01*
X107139005Y-114605560D01*
X107136108Y-114607128D01*
X107115849Y-114621343D01*
X107103193Y-114629045D01*
X107078508Y-114641950D01*
X107074164Y-114645443D01*
X107074162Y-114645444D01*
X106950163Y-114745143D01*
X106922539Y-114767353D01*
X106793897Y-114920661D01*
X106697484Y-115096037D01*
X106695801Y-115101343D01*
X106695800Y-115101345D01*
X106667053Y-115191965D01*
X106636970Y-115286799D01*
X106614662Y-115485683D01*
X106631408Y-115685111D01*
X106643472Y-115727184D01*
X106671695Y-115825606D01*
X106686572Y-115877489D01*
X106689122Y-115882450D01*
X106689122Y-115882451D01*
X106709415Y-115921936D01*
X106778051Y-116055488D01*
X106902362Y-116212329D01*
X107054769Y-116342038D01*
X107101790Y-116368317D01*
X107224596Y-116436951D01*
X107224598Y-116436952D01*
X107229467Y-116439673D01*
X107234776Y-116441398D01*
X107414498Y-116499794D01*
X107414502Y-116499795D01*
X107419802Y-116501517D01*
X107477190Y-116508360D01*
X107612988Y-116524553D01*
X107612990Y-116524553D01*
X107618525Y-116525213D01*
X107818065Y-116509859D01*
X107823430Y-116508361D01*
X107823436Y-116508360D01*
X108005460Y-116457538D01*
X108005463Y-116457537D01*
X108010824Y-116456040D01*
X108189457Y-116365806D01*
X108347162Y-116242593D01*
X108377053Y-116207964D01*
X108474288Y-116095317D01*
X108474290Y-116095314D01*
X108477931Y-116091096D01*
X108495676Y-116059860D01*
X108574027Y-115921936D01*
X108576784Y-115917083D01*
X108578543Y-115911796D01*
X108578545Y-115911791D01*
X108629338Y-115759100D01*
X108665964Y-115706330D01*
X108725306Y-115681739D01*
X108788522Y-115693134D01*
X108835542Y-115736898D01*
X108848721Y-115770021D01*
X108878673Y-115902930D01*
X108881461Y-115911823D01*
X108961954Y-116110055D01*
X108966157Y-116118377D01*
X109077951Y-116300807D01*
X109083451Y-116308322D01*
X109223538Y-116470043D01*
X109230199Y-116476566D01*
X109394818Y-116613236D01*
X109402453Y-116618581D01*
X109587178Y-116726526D01*
X109595588Y-116730555D01*
X109795452Y-116806875D01*
X109804427Y-116809483D01*
X109909935Y-116830949D01*
X109922652Y-116829867D01*
X109926000Y-116820507D01*
X109926000Y-116820243D01*
X110434000Y-116820243D01*
X110437677Y-116832766D01*
X110449813Y-116834606D01*
X110458671Y-116833471D01*
X110467793Y-116831533D01*
X110672716Y-116770052D01*
X110681407Y-116766646D01*
X110873537Y-116672523D01*
X110881545Y-116667749D01*
X111055725Y-116543509D01*
X111062852Y-116537486D01*
X111214398Y-116386466D01*
X111220444Y-116379362D01*
X111345285Y-116205628D01*
X111350100Y-116197614D01*
X111444890Y-116005823D01*
X111448324Y-115997150D01*
X111510522Y-115792432D01*
X111513480Y-115778752D01*
X111514607Y-115778996D01*
X111538397Y-115725228D01*
X111592019Y-115689863D01*
X111656250Y-115689102D01*
X111710695Y-115723188D01*
X111735014Y-115767434D01*
X111751695Y-115825606D01*
X111766572Y-115877489D01*
X111769122Y-115882450D01*
X111769122Y-115882451D01*
X111789415Y-115921936D01*
X111858051Y-116055488D01*
X111982362Y-116212329D01*
X112134769Y-116342038D01*
X112181790Y-116368317D01*
X112304596Y-116436951D01*
X112304598Y-116436952D01*
X112309467Y-116439673D01*
X112314776Y-116441398D01*
X112494498Y-116499794D01*
X112494502Y-116499795D01*
X112499802Y-116501517D01*
X112557190Y-116508360D01*
X112692988Y-116524553D01*
X112692990Y-116524553D01*
X112698525Y-116525213D01*
X112898065Y-116509859D01*
X112903430Y-116508361D01*
X112903436Y-116508360D01*
X113085460Y-116457538D01*
X113085463Y-116457537D01*
X113090824Y-116456040D01*
X113269457Y-116365806D01*
X113427162Y-116242593D01*
X113457053Y-116207964D01*
X113554288Y-116095317D01*
X113554290Y-116095314D01*
X113557931Y-116091096D01*
X113575676Y-116059860D01*
X113654027Y-115921936D01*
X113656784Y-115917083D01*
X113658543Y-115911796D01*
X113658545Y-115911791D01*
X113718196Y-115732472D01*
X113718196Y-115732471D01*
X113719955Y-115727184D01*
X113722590Y-115706330D01*
X113744639Y-115531788D01*
X113745038Y-115528632D01*
X113745233Y-115514671D01*
X113745394Y-115503182D01*
X113745394Y-115503174D01*
X113745438Y-115500000D01*
X113744034Y-115485683D01*
X114234662Y-115485683D01*
X114251408Y-115685111D01*
X114263472Y-115727184D01*
X114291695Y-115825606D01*
X114306572Y-115877489D01*
X114309122Y-115882450D01*
X114309122Y-115882451D01*
X114329415Y-115921936D01*
X114398051Y-116055488D01*
X114522362Y-116212329D01*
X114674769Y-116342038D01*
X114721790Y-116368317D01*
X114844596Y-116436951D01*
X114844598Y-116436952D01*
X114849467Y-116439673D01*
X114854776Y-116441398D01*
X115034498Y-116499794D01*
X115034502Y-116499795D01*
X115039802Y-116501517D01*
X115097190Y-116508360D01*
X115232988Y-116524553D01*
X115232990Y-116524553D01*
X115238525Y-116525213D01*
X115438065Y-116509859D01*
X115443430Y-116508361D01*
X115443436Y-116508360D01*
X115625460Y-116457538D01*
X115625463Y-116457537D01*
X115630824Y-116456040D01*
X115809457Y-116365806D01*
X115967162Y-116242593D01*
X115997053Y-116207964D01*
X116094288Y-116095317D01*
X116094290Y-116095314D01*
X116097931Y-116091096D01*
X116115676Y-116059860D01*
X116194027Y-115921936D01*
X116196784Y-115917083D01*
X116198543Y-115911796D01*
X116198545Y-115911791D01*
X116258196Y-115732472D01*
X116258196Y-115732471D01*
X116259955Y-115727184D01*
X116262590Y-115706330D01*
X116284639Y-115531788D01*
X116285038Y-115528632D01*
X116285233Y-115514671D01*
X116285394Y-115503182D01*
X116285394Y-115503174D01*
X116285438Y-115500000D01*
X116284034Y-115485683D01*
X116774662Y-115485683D01*
X116791408Y-115685111D01*
X116803472Y-115727184D01*
X116831695Y-115825606D01*
X116846572Y-115877489D01*
X116849122Y-115882450D01*
X116849122Y-115882451D01*
X116869415Y-115921936D01*
X116938051Y-116055488D01*
X117062362Y-116212329D01*
X117214769Y-116342038D01*
X117261790Y-116368317D01*
X117384596Y-116436951D01*
X117384598Y-116436952D01*
X117389467Y-116439673D01*
X117394776Y-116441398D01*
X117574498Y-116499794D01*
X117574502Y-116499795D01*
X117579802Y-116501517D01*
X117637190Y-116508360D01*
X117772988Y-116524553D01*
X117772990Y-116524553D01*
X117778525Y-116525213D01*
X117978065Y-116509859D01*
X117983430Y-116508361D01*
X117983436Y-116508360D01*
X118165460Y-116457538D01*
X118165463Y-116457537D01*
X118170824Y-116456040D01*
X118349457Y-116365806D01*
X118507162Y-116242593D01*
X118537053Y-116207964D01*
X118634288Y-116095317D01*
X118634290Y-116095314D01*
X118637931Y-116091096D01*
X118655676Y-116059860D01*
X118734027Y-115921936D01*
X118736784Y-115917083D01*
X118738543Y-115911796D01*
X118738545Y-115911791D01*
X118798196Y-115732472D01*
X118798196Y-115732471D01*
X118799955Y-115727184D01*
X118802590Y-115706330D01*
X118824639Y-115531788D01*
X118825038Y-115528632D01*
X118825233Y-115514671D01*
X118825394Y-115503182D01*
X118825394Y-115503174D01*
X118825438Y-115500000D01*
X118824034Y-115485683D01*
X119314662Y-115485683D01*
X119331408Y-115685111D01*
X119343472Y-115727184D01*
X119371695Y-115825606D01*
X119386572Y-115877489D01*
X119389122Y-115882450D01*
X119389122Y-115882451D01*
X119409415Y-115921936D01*
X119478051Y-116055488D01*
X119602362Y-116212329D01*
X119754769Y-116342038D01*
X119801790Y-116368317D01*
X119924596Y-116436951D01*
X119924598Y-116436952D01*
X119929467Y-116439673D01*
X119934776Y-116441398D01*
X120114498Y-116499794D01*
X120114502Y-116499795D01*
X120119802Y-116501517D01*
X120177190Y-116508360D01*
X120312988Y-116524553D01*
X120312990Y-116524553D01*
X120318525Y-116525213D01*
X120518065Y-116509859D01*
X120523430Y-116508361D01*
X120523436Y-116508360D01*
X120705460Y-116457538D01*
X120705463Y-116457537D01*
X120710824Y-116456040D01*
X120889457Y-116365806D01*
X121047162Y-116242593D01*
X121077053Y-116207964D01*
X121174288Y-116095317D01*
X121174290Y-116095314D01*
X121177931Y-116091096D01*
X121195676Y-116059860D01*
X121274027Y-115921936D01*
X121276784Y-115917083D01*
X121278543Y-115911796D01*
X121278545Y-115911791D01*
X121329338Y-115759100D01*
X121365964Y-115706330D01*
X121425306Y-115681739D01*
X121488522Y-115693134D01*
X121535542Y-115736898D01*
X121548721Y-115770021D01*
X121578673Y-115902930D01*
X121581461Y-115911823D01*
X121661954Y-116110055D01*
X121666157Y-116118377D01*
X121777951Y-116300807D01*
X121783451Y-116308322D01*
X121923538Y-116470043D01*
X121930199Y-116476566D01*
X122094818Y-116613236D01*
X122102453Y-116618581D01*
X122287178Y-116726526D01*
X122295588Y-116730555D01*
X122495452Y-116806875D01*
X122504427Y-116809483D01*
X122609935Y-116830949D01*
X122622652Y-116829867D01*
X122626000Y-116820507D01*
X122626000Y-116820243D01*
X123134000Y-116820243D01*
X123137677Y-116832766D01*
X123149813Y-116834606D01*
X123158671Y-116833471D01*
X123167793Y-116831533D01*
X123372716Y-116770052D01*
X123381407Y-116766646D01*
X123573537Y-116672523D01*
X123581545Y-116667749D01*
X123755725Y-116543509D01*
X123762852Y-116537486D01*
X123914398Y-116386466D01*
X123920444Y-116379362D01*
X124045285Y-116205628D01*
X124050100Y-116197614D01*
X124144890Y-116005823D01*
X124148324Y-115997150D01*
X124210522Y-115792432D01*
X124213480Y-115778752D01*
X124214607Y-115778996D01*
X124238397Y-115725228D01*
X124292019Y-115689863D01*
X124356250Y-115689102D01*
X124410695Y-115723188D01*
X124435014Y-115767434D01*
X124451695Y-115825606D01*
X124466572Y-115877489D01*
X124469122Y-115882450D01*
X124469122Y-115882451D01*
X124489415Y-115921936D01*
X124558051Y-116055488D01*
X124682362Y-116212329D01*
X124834769Y-116342038D01*
X124881790Y-116368317D01*
X125004596Y-116436951D01*
X125004598Y-116436952D01*
X125009467Y-116439673D01*
X125014776Y-116441398D01*
X125194498Y-116499794D01*
X125194502Y-116499795D01*
X125199802Y-116501517D01*
X125257190Y-116508360D01*
X125392988Y-116524553D01*
X125392990Y-116524553D01*
X125398525Y-116525213D01*
X125598065Y-116509859D01*
X125603430Y-116508361D01*
X125603436Y-116508360D01*
X125785460Y-116457538D01*
X125785463Y-116457537D01*
X125790824Y-116456040D01*
X125969457Y-116365806D01*
X126127162Y-116242593D01*
X126157053Y-116207964D01*
X126254288Y-116095317D01*
X126254290Y-116095314D01*
X126257931Y-116091096D01*
X126275676Y-116059860D01*
X126354027Y-115921936D01*
X126356784Y-115917083D01*
X126358543Y-115911796D01*
X126358545Y-115911791D01*
X126418196Y-115732472D01*
X126418196Y-115732471D01*
X126419955Y-115727184D01*
X126422590Y-115706330D01*
X126444639Y-115531788D01*
X126445038Y-115528632D01*
X126445233Y-115514671D01*
X126445394Y-115503182D01*
X126445394Y-115503174D01*
X126445438Y-115500000D01*
X126444034Y-115485683D01*
X126934662Y-115485683D01*
X126951408Y-115685111D01*
X126963472Y-115727184D01*
X126991695Y-115825606D01*
X127006572Y-115877489D01*
X127009122Y-115882450D01*
X127009122Y-115882451D01*
X127029415Y-115921936D01*
X127098051Y-116055488D01*
X127222362Y-116212329D01*
X127374769Y-116342038D01*
X127421790Y-116368317D01*
X127544596Y-116436951D01*
X127544598Y-116436952D01*
X127549467Y-116439673D01*
X127554776Y-116441398D01*
X127734498Y-116499794D01*
X127734502Y-116499795D01*
X127739802Y-116501517D01*
X127797190Y-116508360D01*
X127932988Y-116524553D01*
X127932990Y-116524553D01*
X127938525Y-116525213D01*
X128138065Y-116509859D01*
X128143430Y-116508361D01*
X128143436Y-116508360D01*
X128325460Y-116457538D01*
X128325463Y-116457537D01*
X128330824Y-116456040D01*
X128509457Y-116365806D01*
X128667162Y-116242593D01*
X128697053Y-116207964D01*
X128794288Y-116095317D01*
X128794290Y-116095314D01*
X128797931Y-116091096D01*
X128815676Y-116059860D01*
X128894027Y-115921936D01*
X128896784Y-115917083D01*
X128898544Y-115911792D01*
X128898545Y-115911790D01*
X128919829Y-115847808D01*
X128956456Y-115795038D01*
X129015797Y-115770447D01*
X129079014Y-115781842D01*
X129126034Y-115825606D01*
X129142001Y-115883792D01*
X129142001Y-116395002D01*
X129142335Y-116401160D01*
X129147976Y-116453098D01*
X129151257Y-116466900D01*
X129196978Y-116588861D01*
X129204697Y-116602958D01*
X129282226Y-116706406D01*
X129293594Y-116717774D01*
X129397042Y-116795303D01*
X129411139Y-116803022D01*
X129533105Y-116848745D01*
X129546896Y-116852024D01*
X129598843Y-116857667D01*
X129604995Y-116858000D01*
X130229611Y-116858000D01*
X130243397Y-116853952D01*
X130244488Y-116852693D01*
X130246000Y-116845742D01*
X130246000Y-116841610D01*
X130754000Y-116841610D01*
X130758048Y-116855396D01*
X130759307Y-116856487D01*
X130766258Y-116857999D01*
X131395002Y-116857999D01*
X131401160Y-116857665D01*
X131453098Y-116852024D01*
X131466900Y-116848743D01*
X131588861Y-116803022D01*
X131602958Y-116795303D01*
X131706406Y-116717774D01*
X131717774Y-116706406D01*
X131795303Y-116602958D01*
X131803022Y-116588861D01*
X131848745Y-116466895D01*
X131852024Y-116453104D01*
X131857667Y-116401157D01*
X131858000Y-116395005D01*
X131858000Y-115770389D01*
X131853952Y-115756603D01*
X131852693Y-115755512D01*
X131845742Y-115754000D01*
X130770389Y-115754000D01*
X130756603Y-115758048D01*
X130755512Y-115759307D01*
X130754000Y-115766258D01*
X130754000Y-116841610D01*
X130246000Y-116841610D01*
X130246000Y-115229611D01*
X130754000Y-115229611D01*
X130758048Y-115243397D01*
X130759307Y-115244488D01*
X130766258Y-115246000D01*
X131841610Y-115246000D01*
X131855396Y-115241952D01*
X131856487Y-115240693D01*
X131857999Y-115233742D01*
X131857999Y-114604998D01*
X131857665Y-114598840D01*
X131852024Y-114546902D01*
X131848743Y-114533100D01*
X131803022Y-114411139D01*
X131795303Y-114397042D01*
X131717774Y-114293594D01*
X131706406Y-114282226D01*
X131602958Y-114204697D01*
X131588861Y-114196978D01*
X131466895Y-114151255D01*
X131453104Y-114147976D01*
X131401157Y-114142333D01*
X131395005Y-114142000D01*
X130770389Y-114142000D01*
X130756603Y-114146048D01*
X130755512Y-114147307D01*
X130754000Y-114154258D01*
X130754000Y-115229611D01*
X130246000Y-115229611D01*
X130246000Y-114158390D01*
X130241952Y-114144604D01*
X130240693Y-114143513D01*
X130233742Y-114142001D01*
X129604998Y-114142001D01*
X129598840Y-114142335D01*
X129546902Y-114147976D01*
X129533100Y-114151257D01*
X129411139Y-114196978D01*
X129397042Y-114204697D01*
X129293594Y-114282226D01*
X129282226Y-114293594D01*
X129204697Y-114397042D01*
X129196978Y-114411139D01*
X129151255Y-114533105D01*
X129147976Y-114546896D01*
X129142333Y-114598843D01*
X129142000Y-114604995D01*
X129142000Y-115112062D01*
X129123903Y-115173695D01*
X129075357Y-115215760D01*
X129011776Y-115224902D01*
X128953346Y-115198217D01*
X128918866Y-115145012D01*
X128908065Y-115109236D01*
X128903871Y-115101347D01*
X128826730Y-114956267D01*
X128814109Y-114932531D01*
X128687621Y-114777441D01*
X128675427Y-114767353D01*
X128537718Y-114653430D01*
X128537716Y-114653429D01*
X128533418Y-114649873D01*
X128424172Y-114590804D01*
X128362278Y-114557338D01*
X128362277Y-114557338D01*
X128357373Y-114554686D01*
X128166193Y-114495506D01*
X128154709Y-114494299D01*
X127972697Y-114475169D01*
X127972696Y-114475169D01*
X127967159Y-114474587D01*
X127767852Y-114492725D01*
X127575864Y-114549230D01*
X127398508Y-114641950D01*
X127388654Y-114649873D01*
X127270163Y-114745143D01*
X127242539Y-114767353D01*
X127113897Y-114920661D01*
X127017484Y-115096037D01*
X127015801Y-115101343D01*
X127015800Y-115101345D01*
X126987053Y-115191965D01*
X126956970Y-115286799D01*
X126934662Y-115485683D01*
X126444034Y-115485683D01*
X126436105Y-115404817D01*
X126426454Y-115306378D01*
X126426453Y-115306373D01*
X126425909Y-115300825D01*
X126421676Y-115286802D01*
X126369678Y-115114578D01*
X126369677Y-115114577D01*
X126368065Y-115109236D01*
X126363871Y-115101347D01*
X126286730Y-114956267D01*
X126274109Y-114932531D01*
X126147621Y-114777441D01*
X126135427Y-114767353D01*
X125997718Y-114653430D01*
X125997716Y-114653429D01*
X125993418Y-114649873D01*
X125884172Y-114590804D01*
X125822278Y-114557338D01*
X125822277Y-114557338D01*
X125817373Y-114554686D01*
X125626193Y-114495506D01*
X125614709Y-114494299D01*
X125432697Y-114475169D01*
X125432696Y-114475169D01*
X125427159Y-114474587D01*
X125227852Y-114492725D01*
X125035864Y-114549230D01*
X124858508Y-114641950D01*
X124848654Y-114649873D01*
X124730163Y-114745143D01*
X124702539Y-114767353D01*
X124573897Y-114920661D01*
X124477484Y-115096037D01*
X124475801Y-115101342D01*
X124475799Y-115101347D01*
X124432197Y-115238798D01*
X124396311Y-115292074D01*
X124337318Y-115317491D01*
X124273949Y-115306980D01*
X124226322Y-115263877D01*
X124212968Y-115232101D01*
X124171095Y-115065400D01*
X124168090Y-115056574D01*
X124082779Y-114860371D01*
X124078370Y-114852147D01*
X123962153Y-114672504D01*
X123956474Y-114665129D01*
X123812469Y-114506870D01*
X123805662Y-114500523D01*
X123637751Y-114367915D01*
X123629984Y-114362755D01*
X123442681Y-114259358D01*
X123434170Y-114255533D01*
X123232495Y-114184116D01*
X123223476Y-114181733D01*
X123150139Y-114168670D01*
X123138108Y-114169990D01*
X123134000Y-114183160D01*
X123134000Y-116820243D01*
X122626000Y-116820243D01*
X122626000Y-114181376D01*
X122622455Y-114169304D01*
X122609537Y-114167506D01*
X122568835Y-114173735D01*
X122559760Y-114175897D01*
X122356396Y-114242366D01*
X122347798Y-114245980D01*
X122158025Y-114344770D01*
X122150134Y-114349739D01*
X121979035Y-114478204D01*
X121972070Y-114484388D01*
X121824251Y-114639072D01*
X121818382Y-114646319D01*
X121697816Y-114823062D01*
X121693209Y-114831172D01*
X121603130Y-115025232D01*
X121599908Y-115033988D01*
X121544934Y-115232218D01*
X121511024Y-115286774D01*
X121453003Y-115314335D01*
X121389291Y-115306153D01*
X121340117Y-115264824D01*
X121325946Y-115234703D01*
X121289678Y-115114578D01*
X121289677Y-115114577D01*
X121288065Y-115109236D01*
X121283871Y-115101347D01*
X121206730Y-114956267D01*
X121194109Y-114932531D01*
X121067621Y-114777441D01*
X121055427Y-114767353D01*
X120917718Y-114653430D01*
X120917716Y-114653429D01*
X120913418Y-114649873D01*
X120804172Y-114590804D01*
X120742278Y-114557338D01*
X120742277Y-114557338D01*
X120737373Y-114554686D01*
X120546193Y-114495506D01*
X120534709Y-114494299D01*
X120352697Y-114475169D01*
X120352696Y-114475169D01*
X120347159Y-114474587D01*
X120147852Y-114492725D01*
X119955864Y-114549230D01*
X119778508Y-114641950D01*
X119768654Y-114649873D01*
X119650163Y-114745143D01*
X119622539Y-114767353D01*
X119493897Y-114920661D01*
X119397484Y-115096037D01*
X119395801Y-115101343D01*
X119395800Y-115101345D01*
X119367053Y-115191965D01*
X119336970Y-115286799D01*
X119314662Y-115485683D01*
X118824034Y-115485683D01*
X118816105Y-115404817D01*
X118806454Y-115306378D01*
X118806453Y-115306373D01*
X118805909Y-115300825D01*
X118801676Y-115286802D01*
X118749678Y-115114578D01*
X118749677Y-115114577D01*
X118748065Y-115109236D01*
X118743871Y-115101347D01*
X118666730Y-114956267D01*
X118654109Y-114932531D01*
X118527621Y-114777441D01*
X118515427Y-114767353D01*
X118377718Y-114653430D01*
X118377716Y-114653429D01*
X118373418Y-114649873D01*
X118264172Y-114590804D01*
X118202278Y-114557338D01*
X118202277Y-114557338D01*
X118197373Y-114554686D01*
X118006193Y-114495506D01*
X117994709Y-114494299D01*
X117812697Y-114475169D01*
X117812696Y-114475169D01*
X117807159Y-114474587D01*
X117607852Y-114492725D01*
X117415864Y-114549230D01*
X117238508Y-114641950D01*
X117228654Y-114649873D01*
X117110163Y-114745143D01*
X117082539Y-114767353D01*
X116953897Y-114920661D01*
X116857484Y-115096037D01*
X116855801Y-115101343D01*
X116855800Y-115101345D01*
X116827053Y-115191965D01*
X116796970Y-115286799D01*
X116774662Y-115485683D01*
X116284034Y-115485683D01*
X116276105Y-115404817D01*
X116266454Y-115306378D01*
X116266453Y-115306373D01*
X116265909Y-115300825D01*
X116261676Y-115286802D01*
X116209678Y-115114578D01*
X116209677Y-115114577D01*
X116208065Y-115109236D01*
X116203871Y-115101347D01*
X116126730Y-114956267D01*
X116114109Y-114932531D01*
X115987621Y-114777441D01*
X115975427Y-114767353D01*
X115837718Y-114653430D01*
X115837716Y-114653429D01*
X115833418Y-114649873D01*
X115724172Y-114590804D01*
X115662278Y-114557338D01*
X115662277Y-114557338D01*
X115657373Y-114554686D01*
X115466193Y-114495506D01*
X115454709Y-114494299D01*
X115272697Y-114475169D01*
X115272696Y-114475169D01*
X115267159Y-114474587D01*
X115067852Y-114492725D01*
X114875864Y-114549230D01*
X114698508Y-114641950D01*
X114688654Y-114649873D01*
X114570163Y-114745143D01*
X114542539Y-114767353D01*
X114413897Y-114920661D01*
X114317484Y-115096037D01*
X114315801Y-115101343D01*
X114315800Y-115101345D01*
X114287053Y-115191965D01*
X114256970Y-115286799D01*
X114234662Y-115485683D01*
X113744034Y-115485683D01*
X113736105Y-115404817D01*
X113726454Y-115306378D01*
X113726453Y-115306373D01*
X113725909Y-115300825D01*
X113721676Y-115286802D01*
X113669678Y-115114578D01*
X113669677Y-115114577D01*
X113668065Y-115109236D01*
X113663871Y-115101347D01*
X113586730Y-114956267D01*
X113574109Y-114932531D01*
X113447621Y-114777441D01*
X113435427Y-114767353D01*
X113297718Y-114653430D01*
X113297716Y-114653429D01*
X113293418Y-114649873D01*
X113184172Y-114590804D01*
X113122278Y-114557338D01*
X113122277Y-114557338D01*
X113117373Y-114554686D01*
X112926193Y-114495506D01*
X112914709Y-114494299D01*
X112732697Y-114475169D01*
X112732696Y-114475169D01*
X112727159Y-114474587D01*
X112527852Y-114492725D01*
X112335864Y-114549230D01*
X112158508Y-114641950D01*
X112148654Y-114649873D01*
X112030163Y-114745143D01*
X112002539Y-114767353D01*
X111873897Y-114920661D01*
X111777484Y-115096037D01*
X111775801Y-115101342D01*
X111775799Y-115101347D01*
X111732197Y-115238798D01*
X111696311Y-115292074D01*
X111637318Y-115317491D01*
X111573949Y-115306980D01*
X111526322Y-115263877D01*
X111512968Y-115232101D01*
X111471095Y-115065400D01*
X111468090Y-115056574D01*
X111382779Y-114860371D01*
X111378370Y-114852147D01*
X111262153Y-114672504D01*
X111256474Y-114665129D01*
X111112469Y-114506870D01*
X111105662Y-114500523D01*
X110937751Y-114367915D01*
X110929984Y-114362755D01*
X110813749Y-114298590D01*
X110768537Y-114252960D01*
X110755172Y-114190131D01*
X110777897Y-114130050D01*
X110788233Y-114118177D01*
X110831018Y-114075392D01*
X110839741Y-114064147D01*
X110915779Y-113935572D01*
X110921433Y-113922506D01*
X110963482Y-113777776D01*
X110965032Y-113769286D01*
X110962385Y-113756687D01*
X110952013Y-113754000D01*
X110450389Y-113754000D01*
X110436603Y-113758048D01*
X110435512Y-113759307D01*
X110434000Y-113766258D01*
X110434000Y-116820243D01*
X109926000Y-116820243D01*
X109926000Y-113360000D01*
X109944097Y-113298367D01*
X109992643Y-113256302D01*
X110040000Y-113246000D01*
X110950150Y-113246000D01*
X110963795Y-113241993D01*
X110991960Y-113185223D01*
X111047086Y-113152249D01*
X111084615Y-113148958D01*
X111100350Y-113150197D01*
X111118010Y-113152994D01*
X111169913Y-113165455D01*
X111222266Y-113178024D01*
X111238467Y-113183569D01*
X111239733Y-113184298D01*
X111284209Y-113199321D01*
X111300049Y-113206043D01*
X111316016Y-113214292D01*
X111333684Y-113225590D01*
X111335561Y-113227050D01*
X111363321Y-113258380D01*
X111367916Y-113266038D01*
X111374420Y-113278580D01*
X111376761Y-113283872D01*
X111385025Y-113302559D01*
X111387868Y-113309616D01*
X111403353Y-113352097D01*
X111403908Y-113353654D01*
X111423285Y-113409305D01*
X111424047Y-113411447D01*
X111424162Y-113411764D01*
X111425130Y-113414367D01*
X111448472Y-113475666D01*
X111450504Y-113480764D01*
X111450783Y-113481433D01*
X111450940Y-113481793D01*
X111452740Y-113485930D01*
X111452768Y-113485994D01*
X111452933Y-113486372D01*
X111479054Y-113543964D01*
X111481698Y-113548341D01*
X111488908Y-113560278D01*
X111496649Y-113575592D01*
X111501669Y-113587711D01*
X111593114Y-113706886D01*
X111599041Y-113711434D01*
X111674436Y-113769286D01*
X111712288Y-113798331D01*
X111756298Y-113816560D01*
X111844167Y-113852957D01*
X111844169Y-113852958D01*
X111851070Y-113855816D01*
X112000000Y-113875423D01*
X112148930Y-113855816D01*
X112155831Y-113852958D01*
X112155833Y-113852957D01*
X112243702Y-113816560D01*
X112287712Y-113798331D01*
X112325565Y-113769286D01*
X112400959Y-113711434D01*
X112406886Y-113706886D01*
X112433328Y-113672426D01*
X112493781Y-113593641D01*
X112493783Y-113593638D01*
X112498331Y-113587711D01*
X112517714Y-113540916D01*
X112552957Y-113455833D01*
X112552958Y-113455831D01*
X112555816Y-113448930D01*
X112575423Y-113300000D01*
X112572604Y-113278585D01*
X112561216Y-113192086D01*
X112571114Y-113128618D01*
X112613754Y-113080576D01*
X112675598Y-113063214D01*
X112734728Y-113080577D01*
X112772620Y-113104296D01*
X112783882Y-113112337D01*
X112803984Y-113128618D01*
X112809542Y-113133120D01*
X112821787Y-113144633D01*
X112833825Y-113157752D01*
X112844967Y-113172020D01*
X112851900Y-113182522D01*
X112859930Y-113196827D01*
X112864263Y-113206043D01*
X112867722Y-113213402D01*
X112872233Y-113224472D01*
X112882756Y-113254745D01*
X112884639Y-113260679D01*
X112895940Y-113300000D01*
X112898255Y-113308055D01*
X112898434Y-113308687D01*
X112914972Y-113367643D01*
X112915689Y-113370129D01*
X112915799Y-113370500D01*
X112916741Y-113373574D01*
X112916846Y-113373906D01*
X112916852Y-113373925D01*
X112923113Y-113393703D01*
X112937253Y-113438376D01*
X112939013Y-113443643D01*
X112939249Y-113444314D01*
X112941018Y-113449121D01*
X112965260Y-113512110D01*
X112966814Y-113515064D01*
X112984302Y-113548314D01*
X112984251Y-113548341D01*
X112990428Y-113560573D01*
X113001669Y-113587711D01*
X113006217Y-113593638D01*
X113006219Y-113593641D01*
X113066672Y-113672426D01*
X113093114Y-113706886D01*
X113099041Y-113711434D01*
X113174436Y-113769286D01*
X113212288Y-113798331D01*
X113256298Y-113816560D01*
X113344167Y-113852957D01*
X113344169Y-113852958D01*
X113351070Y-113855816D01*
X113500000Y-113875423D01*
X113648930Y-113855816D01*
X113655831Y-113852958D01*
X113655833Y-113852957D01*
X113743702Y-113816560D01*
X113787712Y-113798331D01*
X113825565Y-113769286D01*
X113900959Y-113711434D01*
X113906886Y-113706886D01*
X113933328Y-113672426D01*
X113993781Y-113593641D01*
X113993783Y-113593638D01*
X113998331Y-113587711D01*
X114017714Y-113540916D01*
X114052957Y-113455833D01*
X114052958Y-113455831D01*
X114055816Y-113448930D01*
X114075423Y-113300000D01*
X114061445Y-113193823D01*
X132194391Y-113193823D01*
X132195443Y-113201868D01*
X132195443Y-113201870D01*
X132200943Y-113243926D01*
X132212980Y-113335979D01*
X132225201Y-113363753D01*
X132262764Y-113449121D01*
X132270720Y-113467203D01*
X132275948Y-113473423D01*
X132275949Y-113473424D01*
X132288852Y-113488774D01*
X132362970Y-113576948D01*
X132482313Y-113656390D01*
X132490064Y-113658811D01*
X132490067Y-113658813D01*
X132533642Y-113672426D01*
X132619157Y-113699142D01*
X132627273Y-113699291D01*
X132627274Y-113699291D01*
X132701941Y-113700660D01*
X132762499Y-113701770D01*
X132772139Y-113699142D01*
X132792405Y-113693617D01*
X132900817Y-113664060D01*
X132920640Y-113651889D01*
X132940106Y-113639937D01*
X133022991Y-113589045D01*
X133119200Y-113482754D01*
X133173424Y-113370836D01*
X133178170Y-113361040D01*
X133178170Y-113361039D01*
X133181710Y-113353733D01*
X133205496Y-113212354D01*
X133205647Y-113200000D01*
X133205022Y-113195635D01*
X133186475Y-113066123D01*
X133186474Y-113066120D01*
X133185323Y-113058082D01*
X133138298Y-112954655D01*
X133129345Y-112934963D01*
X133129343Y-112934960D01*
X133125984Y-112927572D01*
X133032400Y-112818963D01*
X132993132Y-112793511D01*
X132918909Y-112745401D01*
X132918906Y-112745399D01*
X132912095Y-112740985D01*
X132799754Y-112707388D01*
X132782524Y-112702235D01*
X132782523Y-112702235D01*
X132774739Y-112699907D01*
X132766618Y-112699857D01*
X132766615Y-112699857D01*
X132705146Y-112699482D01*
X132631376Y-112699031D01*
X132493529Y-112738428D01*
X132454750Y-112762895D01*
X132379148Y-112810596D01*
X132379145Y-112810598D01*
X132372280Y-112814930D01*
X132366905Y-112821016D01*
X132366904Y-112821017D01*
X132282753Y-112916300D01*
X132282751Y-112916303D01*
X132277377Y-112922388D01*
X132216447Y-113052163D01*
X132194391Y-113193823D01*
X114061445Y-113193823D01*
X114055816Y-113151070D01*
X114039773Y-113112337D01*
X114001192Y-113019196D01*
X113998331Y-113012289D01*
X113957762Y-112959417D01*
X113911434Y-112899041D01*
X113906886Y-112893114D01*
X113869388Y-112864341D01*
X113793642Y-112806219D01*
X113793641Y-112806218D01*
X113787712Y-112801669D01*
X113736914Y-112780628D01*
X113655831Y-112747042D01*
X113655828Y-112747041D01*
X113648930Y-112744184D01*
X113642660Y-112743358D01*
X113642189Y-112743212D01*
X113638715Y-112741588D01*
X113602292Y-112732634D01*
X113564791Y-112723415D01*
X113564729Y-112723400D01*
X113564525Y-112723350D01*
X113564290Y-112723295D01*
X113564265Y-112723289D01*
X113561134Y-112722556D01*
X113561105Y-112722549D01*
X113560736Y-112722463D01*
X113560228Y-112722350D01*
X113555939Y-112721452D01*
X113484137Y-112707352D01*
X113483961Y-112707319D01*
X113483903Y-112707308D01*
X113481218Y-112706807D01*
X113481150Y-112706795D01*
X113480938Y-112706755D01*
X113480800Y-112706731D01*
X113480715Y-112706715D01*
X113480650Y-112706704D01*
X113480526Y-112706682D01*
X113478509Y-112706342D01*
X113477875Y-112706235D01*
X113477851Y-112706231D01*
X113477554Y-112706181D01*
X113438225Y-112699907D01*
X113413303Y-112695931D01*
X113413227Y-112695919D01*
X113413163Y-112695909D01*
X113413062Y-112695894D01*
X113412942Y-112695875D01*
X113410886Y-112695562D01*
X113410849Y-112695556D01*
X113410701Y-112695534D01*
X113353140Y-112687188D01*
X113351422Y-112686925D01*
X113302659Y-112679090D01*
X113297558Y-112678151D01*
X113255619Y-112669439D01*
X113248146Y-112667621D01*
X113207102Y-112656155D01*
X113198847Y-112653507D01*
X113152128Y-112636530D01*
X113144464Y-112633426D01*
X113115167Y-112620304D01*
X113086767Y-112607584D01*
X113080400Y-112604490D01*
X113071847Y-112600000D01*
X113011748Y-112568453D01*
X113006563Y-112566885D01*
X113001561Y-112564838D01*
X113001767Y-112564334D01*
X112984000Y-112556468D01*
X112954742Y-112538931D01*
X112954740Y-112538930D01*
X112952346Y-112537495D01*
X112787997Y-112459763D01*
X112671739Y-112404777D01*
X112671738Y-112404777D01*
X112669225Y-112403588D01*
X112374342Y-112298076D01*
X112070537Y-112221975D01*
X112067777Y-112221566D01*
X112067774Y-112221565D01*
X111763509Y-112176430D01*
X111763499Y-112176429D01*
X111760735Y-112176019D01*
X111471930Y-112161829D01*
X111460696Y-112161277D01*
X111452269Y-112160863D01*
X111447921Y-112160096D01*
X111438098Y-112161828D01*
X111438095Y-112161828D01*
X111432765Y-112162768D01*
X111412971Y-112164500D01*
X107369949Y-112164500D01*
X107350154Y-112162768D01*
X107344823Y-112161828D01*
X107335000Y-112160096D01*
X107332193Y-112160591D01*
X107321873Y-112161403D01*
X107321872Y-112161403D01*
X107220137Y-112169410D01*
X107125436Y-112176863D01*
X107047245Y-112195635D01*
X106925388Y-112224890D01*
X106925385Y-112224891D01*
X106921032Y-112225936D01*
X106726821Y-112306381D01*
X106547585Y-112416217D01*
X106387739Y-112552739D01*
X106251217Y-112712585D01*
X106141381Y-112891821D01*
X106139665Y-112895964D01*
X106115354Y-112954655D01*
X106075048Y-113004671D01*
X106053604Y-113014905D01*
X106053926Y-113015597D01*
X105952289Y-113062991D01*
X105880610Y-113134670D01*
X105824232Y-113165455D01*
X105760161Y-113160872D01*
X105719390Y-113134670D01*
X105647711Y-113062991D01*
X105546074Y-113015597D01*
X105499764Y-113009500D01*
X105130236Y-113009500D01*
X105083926Y-113015597D01*
X105082862Y-113016093D01*
X105059001Y-113019500D01*
X104275498Y-113019500D01*
X104275495Y-113019501D01*
X104124235Y-113019501D01*
X104062602Y-113001404D01*
X104026110Y-112963532D01*
X104009741Y-112935853D01*
X104001017Y-112924607D01*
X103895392Y-112818982D01*
X103884147Y-112810259D01*
X103755572Y-112734221D01*
X103742506Y-112728567D01*
X103619743Y-112692901D01*
X103606981Y-112692937D01*
X103604000Y-112699514D01*
X103604000Y-113640000D01*
X103585903Y-113701633D01*
X103537357Y-113743698D01*
X103490000Y-113754000D01*
X102579850Y-113754000D01*
X102566465Y-113757930D01*
X102564708Y-113767868D01*
X90431500Y-113767868D01*
X90431500Y-113230714D01*
X102564968Y-113230714D01*
X102567615Y-113243313D01*
X102577987Y-113246000D01*
X103079611Y-113246000D01*
X103093397Y-113241952D01*
X103094488Y-113240693D01*
X103096000Y-113233742D01*
X103096000Y-112704716D01*
X103092406Y-112692476D01*
X103085257Y-112691448D01*
X102957494Y-112728567D01*
X102944428Y-112734221D01*
X102815853Y-112810259D01*
X102804608Y-112818982D01*
X102698982Y-112924608D01*
X102690259Y-112935853D01*
X102614221Y-113064428D01*
X102608567Y-113077494D01*
X102566518Y-113222224D01*
X102564968Y-113230714D01*
X90431500Y-113230714D01*
X90431500Y-112633825D01*
X90434444Y-112608085D01*
X90434709Y-112606942D01*
X90434709Y-112606939D01*
X90436167Y-112600650D01*
X90436168Y-112600000D01*
X90434735Y-112593718D01*
X90434333Y-112590123D01*
X90433978Y-112568509D01*
X90441302Y-112475447D01*
X90447030Y-112402678D01*
X90449828Y-112385013D01*
X90455584Y-112361040D01*
X90487608Y-112227651D01*
X90493938Y-112201284D01*
X90496362Y-112193823D01*
X90994391Y-112193823D01*
X90995443Y-112201868D01*
X90995443Y-112201870D01*
X91007934Y-112297394D01*
X91012980Y-112335979D01*
X91016252Y-112343415D01*
X91049566Y-112419126D01*
X91070720Y-112467203D01*
X91162970Y-112576948D01*
X91282313Y-112656390D01*
X91290064Y-112658811D01*
X91290067Y-112658813D01*
X91351967Y-112678151D01*
X91419157Y-112699142D01*
X91427273Y-112699291D01*
X91427274Y-112699291D01*
X91501941Y-112700660D01*
X91562499Y-112701770D01*
X91572139Y-112699142D01*
X91615981Y-112687189D01*
X91700817Y-112664060D01*
X91720640Y-112651889D01*
X91771297Y-112620785D01*
X91822991Y-112589045D01*
X91919200Y-112482754D01*
X91957556Y-112403588D01*
X91978170Y-112361040D01*
X91978170Y-112361039D01*
X91981710Y-112353733D01*
X92005496Y-112212354D01*
X92005647Y-112200000D01*
X92005022Y-112195635D01*
X91986475Y-112066123D01*
X91986474Y-112066120D01*
X91985323Y-112058082D01*
X91956081Y-111993767D01*
X91929345Y-111934963D01*
X91929343Y-111934960D01*
X91925984Y-111927572D01*
X91832400Y-111818963D01*
X91793132Y-111793511D01*
X91718909Y-111745401D01*
X91718906Y-111745399D01*
X91712095Y-111740985D01*
X91630964Y-111716722D01*
X91582524Y-111702235D01*
X91582523Y-111702235D01*
X91574739Y-111699907D01*
X91566618Y-111699857D01*
X91566615Y-111699857D01*
X91505146Y-111699482D01*
X91431376Y-111699031D01*
X91293529Y-111738428D01*
X91254750Y-111762895D01*
X91179148Y-111810596D01*
X91179145Y-111810598D01*
X91172280Y-111814930D01*
X91166905Y-111821016D01*
X91166904Y-111821017D01*
X91082753Y-111916300D01*
X91082751Y-111916303D01*
X91077377Y-111922388D01*
X91016447Y-112052163D01*
X90994391Y-112193823D01*
X90496362Y-112193823D01*
X90499466Y-112184271D01*
X90571774Y-112009705D01*
X90579895Y-111993767D01*
X90678624Y-111832654D01*
X90689139Y-111818181D01*
X90692244Y-111814546D01*
X90811856Y-111674499D01*
X90824499Y-111661856D01*
X90968183Y-111539137D01*
X90982654Y-111528624D01*
X91143767Y-111429895D01*
X91159705Y-111421774D01*
X91334271Y-111349466D01*
X91351284Y-111343938D01*
X91454615Y-111319130D01*
X91521178Y-111303150D01*
X91547790Y-111300000D01*
X131483511Y-111300000D01*
X131505751Y-111302190D01*
G37*
%TD.AperFunction*%
%TD*%
%TA.AperFunction,Conductor*%
%TO.N,Net-(C2-Pad1)*%
G36*
X105621855Y-113824372D02*
G01*
X105625279Y-113832359D01*
X105630196Y-114033622D01*
X105630209Y-114033786D01*
X105630210Y-114033798D01*
X105638933Y-114140813D01*
X105644848Y-114213390D01*
X105667547Y-114367472D01*
X105667590Y-114367670D01*
X105667592Y-114367682D01*
X105689557Y-114469215D01*
X105696885Y-114503087D01*
X105731455Y-114627457D01*
X105769850Y-114747805D01*
X105799245Y-114836792D01*
X105810650Y-114871320D01*
X105810708Y-114871504D01*
X105852416Y-115005113D01*
X105852534Y-115005516D01*
X105893824Y-115156652D01*
X105893954Y-115157172D01*
X105931681Y-115325241D01*
X105930149Y-115334064D01*
X105926393Y-115337770D01*
X105505557Y-115596484D01*
X105003678Y-115905019D01*
X104994836Y-115906433D01*
X104987352Y-115900785D01*
X104668779Y-115334064D01*
X104456562Y-114956542D01*
X104455495Y-114947653D01*
X104457966Y-114943095D01*
X104551229Y-114836792D01*
X104551371Y-114836633D01*
X104641598Y-114737493D01*
X104641642Y-114737445D01*
X104723068Y-114646506D01*
X104795121Y-114558866D01*
X104795243Y-114558691D01*
X104795252Y-114558679D01*
X104857162Y-114469764D01*
X104857165Y-114469759D01*
X104857344Y-114469502D01*
X104909280Y-114373388D01*
X104950471Y-114265500D01*
X104980460Y-114140813D01*
X104998788Y-113994303D01*
X105004596Y-113832226D01*
X105008316Y-113824081D01*
X105016288Y-113820945D01*
X105613582Y-113820945D01*
X105621855Y-113824372D01*
G37*
%TD.AperFunction*%
%TD*%
M02*
